G04 ================== begin FILE IDENTIFICATION RECORD ==================*
G04 Layout Name:  M:/QB3_V12/QB3_V12.brd*
G04 Film Name:    L5-VCC*
G04 File Format:  Gerber RS274X*
G04 File Origin:  15.7-p007*
G04 Origin Date:  Wed Apr 18 17:00:50 2007*
G04 *
G04 Layer:  VIA CLASS/L5-VCC*
G04 Layer:  PIN/L5-VCC*
G04 Layer:  ETCH/L5-VCC*
G04 *
G04 Offset:    (0.00 0.00)*
G04 Mirror:    No*
G04 Mode:      Negative*
G04 Rotation:  0*
G04 FullContactRelief:  No*
G04 UndefLineWidth:     0.00*
G04 ================== end FILE IDENTIFICATION RECORD ====================*
%FSLAX53Y53*MOIN*%
%IR0*IPPOS*OFA0.00000B0.00000*MIA0B0*SFA1.00000B1.00000*%
%AMMACRO28*
4,1,15,.025,.01369,
.026997,.009141,
.028175,.004314,
.028496,-.000644,
.027951,-.005582,
.026557,-.010351,
.025,-.01369,
.02939,-.01807,
.032081,-.012692,
.033798,-.006928,
.034488,-.000954,
.034129,.005049,
.032734,.010899,
.030344,.016417,
.02939,.01807,
.025,.01369,
270.*
4,1,15,.01369,-.025,
.009141,-.026997,
.004314,-.028175,
-.000644,-.028496,
-.005582,-.027951,
-.010351,-.026557,
-.01369,-.025,
-.01807,-.02939,
-.012692,-.032081,
-.006928,-.033798,
-.000954,-.034488,
.005049,-.034129,
.010899,-.032734,
.016417,-.030344,
.01807,-.02939,
.01369,-.025,
270.*
4,1,15,-.025,-.01369,
-.026997,-.009141,
-.028175,-.004314,
-.028496,.000644,
-.027951,.005582,
-.026557,.010351,
-.025,.01369,
-.02939,.01807,
-.032081,.012692,
-.033798,.006928,
-.034488,.000954,
-.034129,-.005049,
-.032734,-.010899,
-.030344,-.016417,
-.02939,-.01807,
-.025,-.01369,
270.*
4,1,15,-.01369,.025,
-.009141,.026997,
-.004314,.028175,
.000644,.028496,
.005582,.027951,
.010351,.026557,
.01369,.025,
.01807,.02939,
.012692,.032081,
.006928,.033798,
.000954,.034488,
-.005049,.034129,
-.010899,.032734,
-.016417,.030344,
-.01807,.02939,
-.01369,.025,
270.*
%
%ADD28MACRO28*%
%ADD18C,.061*%
%ADD15C,.045*%
%ADD34C,.055*%
%ADD14C,.028*%
%ADD30C,.075*%
%ADD11C,.057*%
%ADD19R,.061X.061*%
%ADD21C,.069*%
%ADD25O,.069X.18036*%
%ADD29R,.075X.075*%
%ADD13R,.057X.057*%
%ADD24R,.069X.069*%
%AMMACRO32*
4,1,13,.00931,.00365,
.009802,.001978,
.009997,.000246,
.009888,-.001494,
.009478,-.003188,
.00931,-.00365,
.01232,-.00666,
.013289,-.00442,
.013855,-.002045,
.014,.000391,
.013719,.002816,
.013022,.005155,
.01232,.00666,
.00931,.00365,
315.*
4,1,13,.00365,-.00931,
.001978,-.009802,
.000246,-.009997,
-.001494,-.009888,
-.003188,-.009478,
-.00365,-.00931,
-.00666,-.01232,
-.00442,-.013289,
-.002045,-.013855,
.000391,-.014,
.002816,-.013719,
.005155,-.013022,
.00666,-.01232,
.00365,-.00931,
315.*
4,1,13,-.00931,-.00365,
-.009802,-.001978,
-.009997,-.000246,
-.009888,.001494,
-.009478,.003188,
-.00931,.00365,
-.01232,.00666,
-.013289,.00442,
-.013855,.002045,
-.014,-.000391,
-.013719,-.002816,
-.013022,-.005155,
-.01232,-.00666,
-.00931,-.00365,
315.*
4,1,13,-.00365,.00931,
-.001978,.009802,
-.000246,.009997,
.001494,.009888,
.003188,.009478,
.00365,.00931,
.00666,.01232,
.00442,.013289,
.002045,.013855,
-.000391,.014,
-.002816,.013719,
-.005155,.013022,
-.00666,.01232,
-.00365,.00931,
315.*
%
%ADD32MACRO32*%
%AMMACRO16*
4,1,20,.01552,.00562,
.015821,.004708,
.016067,.00378,
.01626,.002839,
.016398,.001889,
.01648,.000932,
.016506,-.000028,
.016477,-.000987,
.016391,-.001944,
.016251,-.002894,
.016055,-.003834,
.015805,-.004761,
.01552,-.00562,
.02007,-.01017,
.021531,-.00653,
.022338,-.002692,
.022466,.001228,
.021912,.00511,
.020691,.008837,
.02007,.01017,
.01552,.00562,
0.0*
4,1,20,.00562,-.01552,
.004708,-.015821,
.00378,-.016067,
.002839,-.01626,
.001889,-.016398,
.000932,-.01648,
-.000028,-.016506,
-.000987,-.016477,
-.001944,-.016391,
-.002894,-.016251,
-.003834,-.016055,
-.004761,-.015805,
-.00562,-.01552,
-.01017,-.02007,
-.00653,-.021531,
-.002692,-.022338,
.001228,-.022466,
.00511,-.021912,
.008837,-.020691,
.01017,-.02007,
.00562,-.01552,
0.0*
4,1,20,-.01552,-.00562,
-.015821,-.004708,
-.016067,-.00378,
-.01626,-.002839,
-.016398,-.001889,
-.01648,-.000932,
-.016506,.000028,
-.016477,.000987,
-.016391,.001944,
-.016251,.002894,
-.016055,.003834,
-.015805,.004761,
-.01552,.00562,
-.02007,.01017,
-.021531,.00653,
-.022338,.002692,
-.022466,-.001228,
-.021912,-.00511,
-.020691,-.008837,
-.02007,-.01017,
-.01552,-.00562,
0.0*
4,1,20,-.00562,.01552,
-.004708,.015821,
-.00378,.016067,
-.002839,.01626,
-.001889,.016398,
-.000932,.01648,
.000028,.016506,
.000987,.016477,
.001944,.016391,
.002894,.016251,
.003834,.016055,
.004761,.015805,
.00562,.01552,
.01017,.02007,
.00653,.021531,
.002692,.022338,
-.001228,.022466,
-.00511,.021912,
-.008837,.020691,
-.01017,.02007,
-.00562,.01552,
0.0*
%
%ADD16MACRO16*%
%AMMACRO33*
4,1,13,.01977,.00845,
.020937,.004889,
.021468,.001179,
.021346,-.002567,
.020576,-.006235,
.01977,-.00845,
.02426,-.01295,
.02614,-.008541,
.027226,-.003872,
.027485,.000915,
.026908,.005674,
.025514,.01026,
.02426,.01295,
.01977,.00845,
0.0*
4,1,13,.00845,-.01977,
.004889,-.020937,
.001179,-.021468,
-.002567,-.021346,
-.006235,-.020576,
-.00845,-.01977,
-.01295,-.02426,
-.008541,-.02614,
-.003872,-.027226,
.000915,-.027485,
.005674,-.026908,
.01026,-.025514,
.01295,-.02426,
.00845,-.01977,
0.0*
4,1,13,-.01977,-.00845,
-.020937,-.004889,
-.021468,-.001179,
-.021346,.002567,
-.020576,.006235,
-.01977,.00845,
-.02426,.01295,
-.02614,.008541,
-.027226,.003872,
-.027485,-.000915,
-.026908,-.005674,
-.025514,-.01026,
-.02426,-.01295,
-.01977,-.00845,
0.0*
4,1,13,-.00845,.01977,
-.004889,.020937,
-.001179,.021468,
.002567,.021346,
.006235,.020576,
.00845,.01977,
.01295,.02426,
.008541,.02614,
.003872,.027226,
-.000915,.027485,
-.005674,.026908,
-.01026,.025514,
-.01295,.02426,
-.00845,.01977,
0.0*
%
%ADD33MACRO33*%
%AMMACRO23*
4,1,20,-.0075,-.0275,
-.0565,-.0275,
-.061271,-.027085,
-.065897,-.025848,
-.070238,-.023826,
-.074162,-.021082,
-.077549,-.017697,
-.080298,-.013776,
-.082324,-.009437,
-.08295,-.0075,
-.09018,-.0075,
-.088365,-.013234,
-.085582,-.018567,
-.081915,-.023334,
-.077475,-.027393,
-.072399,-.030619,
-.066839,-.032915,
-.060966,-.03421,
-.0565,-.0345,
-.0075,-.0345,
-.0075,-.0275,
90.*
4,1,20,-.0075,.0345,
-.0565,.0345,
-.062489,.033978,
-.068297,.032424,
-.073747,.029885,
-.078673,.026439,
-.082926,.022189,
-.086376,.017265,
-.088919,.011817,
-.09018,.0075,
-.08295,.0075,
-.081248,.011979,
-.078793,.016095,
-.075661,.019722,
-.071947,.022749,
-.067764,.025086,
-.063238,.026661,
-.058508,.027427,
-.0565,.0275,
-.0075,.0275,
-.0075,.0345,
90.*
4,1,20,.0075,-.0275,
.0565,-.0275,
.061278,-.02708,
.065911,-.025836,
.070258,-.023807,
.074186,-.021054,
.077577,-.017661,
.080326,-.01373,
.082352,-.009382,
.08296,-.0075,
.09018,-.0075,
.088368,-.013233,
.085588,-.018563,
.081924,-.02333,
.077488,-.027389,
.072415,-.030615,
.066859,-.032912,
.060988,-.034208,
.0565,-.0345,
.0075,-.0345,
.0075,-.0275,
90.*
4,1,20,.0075,.0345,
.0565,.0345,
.062492,.033976,
.068302,.032419,
.073753,.029877,
.07868,.026427,
.082933,.022174,
.086383,.017247,
.088925,.011796,
.09018,.0075,
.08296,.0075,
.081259,.011978,
.078806,.016093,
.075676,.01972,
.071964,.022747,
.067782,.025085,
.063258,.02666,
.058529,.027426,
.0565,.0275,
.0075,.0275,
.0075,.0345,
90.*
%
%ADD23MACRO23*%
%AMMACRO12*
4,1,13,.0209,.00959,
.022248,.005815,
.022919,.001863,
.022895,-.002146,
.022174,-.006089,
.0209,-.00959,
.025,-.01369,
.026997,-.009141,
.028175,-.004314,
.028496,.000644,
.027951,.005582,
.026557,.010351,
.025,.01369,
.0209,.00959,
90.*
4,1,13,.00959,-.0209,
.005815,-.022248,
.001863,-.022919,
-.002146,-.022895,
-.006089,-.022174,
-.00959,-.0209,
-.01369,-.025,
-.009141,-.026997,
-.004314,-.028175,
.000644,-.028496,
.005582,-.027951,
.010351,-.026557,
.01369,-.025,
.00959,-.0209,
90.*
4,1,13,-.0209,-.00959,
-.022248,-.005815,
-.022919,-.001863,
-.022895,.002146,
-.022174,.006089,
-.0209,.00959,
-.025,.01369,
-.026997,.009141,
-.028175,.004314,
-.028496,-.000644,
-.027951,-.005582,
-.026557,-.010351,
-.025,-.01369,
-.0209,-.00959,
90.*
4,1,13,-.00959,.0209,
-.005815,.022248,
-.001863,.022919,
.002146,.022895,
.006089,.022174,
.00959,.0209,
.01369,.025,
.009141,.026997,
.004314,.028175,
-.000644,.028496,
-.005582,.027951,
-.010351,.026557,
-.01369,.025,
-.00959,.0209,
90.*
%
%ADD12MACRO12*%
%AMMACRO31*
4,1,15,.025,.01369,
.026997,.009141,
.028175,.004314,
.028496,-.000644,
.027951,-.005582,
.026557,-.010351,
.025,-.01369,
.02939,-.01807,
.032081,-.012692,
.033798,-.006928,
.034488,-.000954,
.034129,.005049,
.032734,.010899,
.030344,.016417,
.02939,.01807,
.025,.01369,
90.*
4,1,15,.01369,-.025,
.009141,-.026997,
.004314,-.028175,
-.000644,-.028496,
-.005582,-.027951,
-.010351,-.026557,
-.01369,-.025,
-.01807,-.02939,
-.012692,-.032081,
-.006928,-.033798,
-.000954,-.034488,
.005049,-.034129,
.010899,-.032734,
.016417,-.030344,
.01807,-.02939,
.01369,-.025,
90.*
4,1,15,-.025,-.01369,
-.026997,-.009141,
-.028175,-.004314,
-.028496,.000644,
-.027951,.005582,
-.026557,.010351,
-.025,.01369,
-.02939,.01807,
-.032081,.012692,
-.033798,.006928,
-.034488,.000954,
-.034129,-.005049,
-.032734,-.010899,
-.030344,-.016417,
-.02939,-.01807,
-.025,-.01369,
90.*
4,1,15,-.01369,.025,
-.009141,.026997,
-.004314,.028175,
.000644,.028496,
.005582,.027951,
.010351,.026557,
.01369,.025,
.01807,.02939,
.012692,.032081,
.006928,.033798,
.000954,.034488,
-.005049,.034129,
-.010899,.032734,
-.016417,.030344,
-.01807,.02939,
-.01369,.025,
90.*
%
%ADD31MACRO31*%
%AMMACRO26*
4,1,15,.025,.01369,
.026997,.009141,
.028175,.004314,
.028496,-.000644,
.027951,-.005582,
.026557,-.010351,
.025,-.01369,
.02939,-.01807,
.032081,-.012692,
.033798,-.006928,
.034488,-.000954,
.034129,.005049,
.032734,.010899,
.030344,.016417,
.02939,.01807,
.025,.01369,
0.0*
4,1,15,.01369,-.025,
.009141,-.026997,
.004314,-.028175,
-.000644,-.028496,
-.005582,-.027951,
-.010351,-.026557,
-.01369,-.025,
-.01807,-.02939,
-.012692,-.032081,
-.006928,-.033798,
-.000954,-.034488,
.005049,-.034129,
.010899,-.032734,
.016417,-.030344,
.01807,-.02939,
.01369,-.025,
0.0*
4,1,15,-.025,-.01369,
-.026997,-.009141,
-.028175,-.004314,
-.028496,.000644,
-.027951,.005582,
-.026557,.010351,
-.025,.01369,
-.02939,.01807,
-.032081,.012692,
-.033798,.006928,
-.034488,.000954,
-.034129,-.005049,
-.032734,-.010899,
-.030344,-.016417,
-.02939,-.01807,
-.025,-.01369,
0.0*
4,1,15,-.01369,.025,
-.009141,.026997,
-.004314,.028175,
.000644,.028496,
.005582,.027951,
.010351,.026557,
.01369,.025,
.01807,.02939,
.012692,.032081,
.006928,.033798,
.000954,.034488,
-.005049,.034129,
-.010899,.032734,
-.016417,.030344,
-.01807,.02939,
-.01369,.025,
0.0*
%
%ADD26MACRO26*%
%ADD20C,.114*%
%AMMACRO27*
4,1,6,.008,-.0285,
.008,-.0345,
.0345,-.0345,
.0345,-.008,
.0285,-.008,
.0285,-.0285,
.008,-.0285,
0.0*
4,1,6,-.0345,-.008,
-.0285,-.008,
-.0285,-.0285,
-.008,-.0285,
-.008,-.0345,
-.0345,-.0345,
-.0345,-.008,
0.0*
4,1,6,-.008,.0345,
-.0345,.0345,
-.0345,.008,
-.0285,.008,
-.0285,.0285,
-.008,.0285,
-.008,.0345,
0.0*
4,1,6,.008,.0345,
.008,.0285,
.0285,.0285,
.0285,.008,
.0345,.008,
.0345,.0345,
.008,.0345,
0.0*
%
%ADD27MACRO27*%
%ADD10C,.167*%
%AMMACRO17*
4,1,13,.00931,.00365,
.009802,.001978,
.009997,.000246,
.009888,-.001494,
.009478,-.003188,
.00931,-.00365,
.01232,-.00666,
.013289,-.00442,
.013855,-.002045,
.014,.000391,
.013719,.002816,
.013022,.005155,
.01232,.00666,
.00931,.00365,
0.0*
4,1,13,.00365,-.00931,
.001978,-.009802,
.000246,-.009997,
-.001494,-.009888,
-.003188,-.009478,
-.00365,-.00931,
-.00666,-.01232,
-.00442,-.013289,
-.002045,-.013855,
.000391,-.014,
.002816,-.013719,
.005155,-.013022,
.00666,-.01232,
.00365,-.00931,
0.0*
4,1,13,-.00931,-.00365,
-.009802,-.001978,
-.009997,-.000246,
-.009888,.001494,
-.009478,.003188,
-.00931,.00365,
-.01232,.00666,
-.013289,.00442,
-.013855,.002045,
-.014,-.000391,
-.013719,-.002816,
-.013022,-.005155,
-.01232,-.00666,
-.00931,-.00365,
0.0*
4,1,13,-.00365,.00931,
-.001978,.009802,
-.000246,.009997,
.001494,.009888,
.003188,.009478,
.00365,.00931,
.00666,.01232,
.00442,.013289,
.002045,.013855,
-.000391,.014,
-.002816,.013719,
-.005155,.013022,
-.00666,.01232,
-.00365,.00931,
0.0*
%
%ADD17MACRO17*%
%AMMACRO22*
4,1,20,-.0075,-.0275,
-.0565,-.0275,
-.061271,-.027085,
-.065897,-.025848,
-.070238,-.023826,
-.074162,-.021082,
-.077549,-.017697,
-.080298,-.013776,
-.082324,-.009437,
-.08295,-.0075,
-.09018,-.0075,
-.088365,-.013234,
-.085582,-.018567,
-.081915,-.023334,
-.077475,-.027393,
-.072399,-.030619,
-.066839,-.032915,
-.060966,-.03421,
-.0565,-.0345,
-.0075,-.0345,
-.0075,-.0275,
180.*
4,1,20,-.0075,.0345,
-.0565,.0345,
-.062489,.033978,
-.068297,.032424,
-.073747,.029885,
-.078673,.026439,
-.082926,.022189,
-.086376,.017265,
-.088919,.011817,
-.09018,.0075,
-.08295,.0075,
-.081248,.011979,
-.078793,.016095,
-.075661,.019722,
-.071947,.022749,
-.067764,.025086,
-.063238,.026661,
-.058508,.027427,
-.0565,.0275,
-.0075,.0275,
-.0075,.0345,
180.*
4,1,20,.0075,-.0275,
.0565,-.0275,
.061278,-.02708,
.065911,-.025836,
.070258,-.023807,
.074186,-.021054,
.077577,-.017661,
.080326,-.01373,
.082352,-.009382,
.08296,-.0075,
.09018,-.0075,
.088368,-.013233,
.085588,-.018563,
.081924,-.02333,
.077488,-.027389,
.072415,-.030615,
.066859,-.032912,
.060988,-.034208,
.0565,-.0345,
.0075,-.0345,
.0075,-.0275,
180.*
4,1,20,.0075,.0345,
.0565,.0345,
.062492,.033976,
.068302,.032419,
.073753,.029877,
.07868,.026427,
.082933,.022174,
.086383,.017247,
.088925,.011796,
.09018,.0075,
.08296,.0075,
.081259,.011978,
.078806,.016093,
.075676,.01972,
.071964,.022747,
.067782,.025085,
.063258,.02666,
.058529,.027426,
.0565,.0275,
.0075,.0275,
.0075,.0345,
180.*
%
%ADD22MACRO22*%
G75*
%LPD*%
G75*
G36*
G01X-100Y-100D02*
X5100D01*
Y4100D01*
X-100D01*
Y-100D01*
G37*
%LPC*%
G75*
G36*
G01X680Y502D02*
Y453D01*
G03X680Y437I15J-8D01*
G01X680Y289D01*
X680Y288D01*
G03Y242I40J-23D01*
G01X680Y241D01*
Y189D01*
X680Y188D01*
G03Y142I40J-23D01*
G01X680Y141D01*
Y60D01*
X660Y40D01*
X60D01*
X40Y60D01*
Y2490D01*
X60Y2510D01*
X660D01*
X680Y2490D01*
Y518D01*
G03X680Y502I15J-8D01*
G37*
G36*
G01X60Y2530D02*
X40Y2550D01*
Y3940D01*
X60Y3960D01*
X750D01*
X770Y3940D01*
Y3536D01*
X769Y3536D01*
G03Y3504I6J-16D01*
G01X770Y3504D01*
Y3431D01*
X769Y3431D01*
G03Y3399I6J-16D01*
G01X770Y3399D01*
Y3281D01*
X769Y3281D01*
G03X766Y3251I6J-16D01*
G02Y3244I-2J-3D01*
G03Y3216I9J-14D01*
G02Y3209I-2J-3D01*
G03X769Y3179I9J-14D01*
G01X770Y3179D01*
Y2550D01*
X750Y2530D01*
X60D01*
G37*
G36*
G01X720Y40D02*
X700Y60D01*
Y429D01*
X701Y429D01*
G03Y461I-6J16D01*
G01X700Y461D01*
Y494D01*
X701Y494D01*
G03Y526I-6J16D01*
G01X700Y526D01*
Y1370D01*
X720Y1390D01*
X1170D01*
X1210Y1350D01*
X1510D01*
X1530Y1330D01*
Y60D01*
X1510Y40D01*
X720D01*
G37*
G36*
G01X1570D02*
X1550Y60D01*
Y1340D01*
X1520Y1370D01*
X1220D01*
X1180Y1410D01*
X720D01*
X700Y1430D01*
Y1870D01*
X720Y1890D01*
X1510D01*
X1530Y1870D01*
Y1530D01*
X1550Y1510D01*
X2070D01*
X2090Y1490D01*
Y550D01*
X2120Y520D01*
X2790D01*
X2820Y550D01*
Y1340D01*
X2840Y1360D01*
X3160D01*
X3450Y1070D01*
X3620D01*
Y800D01*
X3650Y770D01*
X3760D01*
X3790Y800D01*
Y1200D01*
X4120Y1530D01*
Y1630D01*
X3540Y2210D01*
Y2680D01*
X3550Y2690D01*
X3820D01*
X3830Y2700D01*
Y2880D01*
X3840Y2890D01*
X4440D01*
X4520Y2970D01*
Y3638D01*
G03X4520Y3662I-50J12D01*
G01X4520Y3830D01*
X4500Y3850D01*
X3760D01*
X3740Y3830D01*
Y3750D01*
X3720Y3730D01*
X3550D01*
X3520Y3700D01*
Y3460D01*
X3120Y3060D01*
X2760D01*
X2730Y3030D01*
Y2910D01*
X2750Y2890D01*
X3270D01*
X3290Y2870D01*
Y1870D01*
X3130Y1710D01*
X1750D01*
X1720Y1740D01*
Y3940D01*
X1740Y3960D01*
X4940D01*
X4960Y3940D01*
Y2116D01*
X4959Y2116D01*
G03Y2084I6J-16D01*
G01X4960Y2084D01*
Y1756D01*
X4959Y1756D01*
G03Y1724I6J-16D01*
G01X4960Y1724D01*
Y1641D01*
X4959Y1641D01*
G03X4952Y1614I6J-16D01*
G02Y1611I-2J-1D01*
G03Y1589I13J-11D01*
G02Y1586I-2J-1D01*
G03X4959Y1559I13J-11D01*
G01X4960Y1559D01*
Y1326D01*
X4959Y1326D01*
G03Y1294I6J-16D01*
G01X4960Y1294D01*
Y1206D01*
X4959Y1206D01*
G03Y1174I6J-16D01*
G01X4960Y1174D01*
Y976D01*
X4959Y976D01*
G03Y944I6J-16D01*
G01X4960Y944D01*
Y60D01*
X4940Y40D01*
X1570D01*
G37*
G36*
G01X700Y1930D02*
Y2490D01*
X720Y2510D01*
X1460D01*
X1470Y2500D01*
Y1930D01*
X1450Y1910D01*
X720D01*
X700Y1930D01*
G37*
G36*
G01X2130Y540D02*
X2110Y560D01*
Y1500D01*
X2080Y1530D01*
X1560D01*
X1550Y1540D01*
Y1880D01*
X1520Y1910D01*
X1510D01*
X1490Y1930D01*
Y2510D01*
X1470Y2530D01*
X800D01*
X790Y2540D01*
Y2620D01*
X800Y2630D01*
X1320D01*
X1340Y2650D01*
Y3140D01*
X1360Y3160D01*
X1680D01*
X1700Y3140D01*
Y1730D01*
X1740Y1690D01*
X3130D01*
X3470Y1350D01*
Y1310D01*
X3355Y1195D01*
X3170Y1380D01*
X2830D01*
X2800Y1350D01*
Y560D01*
X2780Y540D01*
X2130D01*
G37*
G36*
G01X810Y2650D02*
X790Y2670D01*
Y3187D01*
G03X790Y3203I-15J8D01*
G01X790Y3222D01*
G03X790Y3238I-15J8D01*
G01X790Y3257D01*
G03X790Y3273I-15J8D01*
G01X790Y3407D01*
G03X790Y3423I-15J8D01*
G01X790Y3512D01*
G03X790Y3528I-15J8D01*
G01X790Y3940D01*
X810Y3960D01*
X1680D01*
X1700Y3940D01*
Y3200D01*
X1680Y3180D01*
X1340D01*
X1320Y3160D01*
Y2660D01*
X1310Y2650D01*
X810D01*
G37*
G36*
G01X3660Y790D02*
X3640Y810D01*
Y1090D01*
X3460D01*
X3380Y1170D01*
X3440Y1230D01*
G03X3449Y1239I-7J16D01*
G01X3468Y1258D01*
G03X3477Y1267I-7J16D01*
G01X3497Y1287D01*
G03X3504Y1293I-8J15D01*
G01X3504Y1294D01*
X3510Y1300D01*
Y1360D01*
X3504Y1366D01*
X3504Y1367D01*
G03X3498Y1372I-15J-9D01*
G01X3473Y1397D01*
X3472Y1398D01*
X3418Y1452D01*
X3417Y1453D01*
X3392Y1478D01*
G03X3387Y1484I-15J-9D01*
G01X3386Y1484D01*
X3250Y1620D01*
X3223Y1647D01*
G03X3222Y1648I-12J-12D01*
G01X3195Y1675D01*
G03X3194Y1676I-12J-12D01*
G01X3170Y1700D01*
X3310Y1840D01*
Y2880D01*
X3280Y2910D01*
X2760D01*
X2750Y2920D01*
Y3020D01*
X2770Y3040D01*
X3130D01*
X3540Y3450D01*
Y3690D01*
X3560Y3710D01*
X3720D01*
X3740Y3690D01*
Y3150D01*
X3520Y2930D01*
Y2200D01*
X4100Y1620D01*
Y1540D01*
X3770Y1210D01*
Y810D01*
X3750Y790D01*
X3660D01*
G37*
G36*
G01X3540Y2720D02*
Y2920D01*
X3760Y3140D01*
Y3820D01*
X3770Y3830D01*
X4490D01*
X4500Y3820D01*
Y2980D01*
X4430Y2910D01*
X3830D01*
X3810Y2890D01*
Y2720D01*
X3800Y2710D01*
X3550D01*
X3540Y2720D01*
G37*
%LPD*%
G75*
G54D28*
X1545Y2630D03*
G54D18*
X200Y2775D03*
X100Y3015D03*
X200D03*
X300Y2775D03*
Y3015D03*
G54D15*
X155Y1285D03*
X156Y1415D03*
Y1350D03*
X155Y1480D03*
Y1545D03*
X85Y1835D03*
X173Y1845D03*
X285Y1545D03*
X410Y1870D03*
X321Y1981D03*
X1078Y1872D03*
X855Y2187D03*
X1135Y1240D03*
X1280Y3805D03*
X1385D03*
X1240Y3730D03*
X1420Y3935D03*
X1280D03*
X1350D03*
X1670Y620D03*
Y820D03*
X1535Y3460D03*
Y3510D03*
X1665Y3460D03*
Y3770D03*
Y3690D03*
Y3600D03*
Y3530D03*
X1535Y3690D03*
Y3770D03*
X1490Y3805D03*
X1460Y3560D03*
X1490Y3935D03*
X1750Y1738D03*
X1995Y3155D03*
X2160Y3335D03*
X2260Y3485D03*
X2330Y3130D03*
X2946Y988D03*
X2980Y3160D03*
X3180D03*
X3140Y3335D03*
X3240Y3485D03*
X3955Y3160D03*
X4120Y3335D03*
X4165Y3160D03*
X4225Y3480D03*
G54D14*
X108Y1008D03*
X150Y958D03*
Y1108D03*
Y1182D03*
X280Y490D03*
X442Y598D03*
X482Y625D03*
X275Y655D03*
X462Y676D03*
X420Y682D03*
X455Y555D03*
X275Y590D03*
Y555D03*
Y620D03*
X310Y1080D03*
X280Y850D03*
Y1045D03*
X695Y510D03*
Y445D03*
X795Y440D03*
X541Y650D03*
X535Y690D03*
X605Y783D03*
Y530D03*
X661Y780D03*
X790Y590D03*
X615Y979D03*
X629Y1109D03*
X670Y1110D03*
X566Y1109D03*
X535Y1000D03*
X565D03*
X724Y1020D03*
X756Y1305D03*
X785Y1735D03*
X720Y2275D03*
Y2310D03*
Y2340D03*
Y2375D03*
X705Y2860D03*
Y2825D03*
Y2895D03*
X800Y2885D03*
Y2820D03*
X685Y3195D03*
X775D03*
X705Y2995D03*
Y2960D03*
Y3030D03*
X680Y2930D03*
X645D03*
X610D03*
X800Y2950D03*
X635Y3485D03*
X670D03*
X705D03*
X740D03*
X635Y3450D03*
X670D03*
X705D03*
X740D03*
X810Y3415D03*
X775D03*
X635D03*
X670D03*
X705D03*
X740D03*
X685Y3265D03*
Y3230D03*
Y3300D03*
X775Y3230D03*
Y3265D03*
X810Y3520D03*
X775D03*
X635D03*
X670D03*
X705D03*
X740D03*
X1020Y625D03*
X1110Y775D03*
X994Y614D03*
X850Y790D03*
X880Y825D03*
X870Y1052D03*
X970Y914D03*
X876Y1240D03*
X1092Y1135D03*
X955Y1230D03*
X994Y1135D03*
X992Y1610D03*
X955Y1605D03*
X1074Y1996D03*
X915Y1735D03*
X1110Y1855D03*
X1042Y2299D03*
X1082Y2260D03*
X1042D03*
X1002D03*
X1096Y2206D03*
Y2166D03*
X1057Y2166D03*
X1017D03*
X1096Y2126D03*
X1017D03*
X1096Y2086D03*
X1057D03*
Y2126D03*
X860Y2245D03*
X950Y2150D03*
X1056Y2206D03*
X1096Y2324D03*
X1042Y2338D03*
X1002D03*
X890Y2344D03*
X950Y2405D03*
X1095Y2875D03*
X1065D03*
X1095Y2815D03*
X1065D03*
Y2905D03*
X1095D03*
X1065Y2845D03*
X1095D03*
Y2785D03*
X1065D03*
X990Y2888D03*
X1065Y2965D03*
X1095D03*
Y2935D03*
X1065D03*
X965Y3510D03*
Y3460D03*
Y3410D03*
X1015D03*
Y3460D03*
Y3510D03*
X1065Y3410D03*
Y3460D03*
Y3510D03*
X880Y3415D03*
X845D03*
X965Y3610D03*
Y3560D03*
X1015D03*
Y3610D03*
X1065Y3560D03*
Y3610D03*
X880Y3520D03*
X845D03*
X965Y3760D03*
Y3710D03*
Y3660D03*
X1015Y3760D03*
Y3710D03*
Y3660D03*
X1065Y3760D03*
Y3710D03*
Y3660D03*
X1255Y330D03*
X1320Y625D03*
X1200D03*
X1132Y532D03*
X1350Y935D03*
X1191Y1135D03*
X1230D03*
X1269D03*
X1282Y1610D03*
X1245Y1605D03*
X1362Y1994D03*
X1253Y1972D03*
X1175Y1735D03*
X1305D03*
X1235Y1994D03*
X1195Y1996D03*
X1272Y1994D03*
X1300Y1972D03*
X1115Y1996D03*
X1155D03*
X1253Y2166D03*
X1175Y2126D03*
X1214Y2126D03*
X1135Y2166D03*
Y2126D03*
Y2086D03*
X1293Y2246D03*
X1214D03*
Y2206D03*
Y2166D03*
X1175D03*
Y2086D03*
X1253Y2286D03*
Y2246D03*
X1175D03*
Y2206D03*
X1293Y2128D03*
Y2286D03*
Y2206D03*
X1122Y2299D03*
X1135Y2246D03*
X1253Y2206D03*
X1214Y2284D03*
X1122Y2378D03*
X1135Y2324D03*
X1175D03*
X1253D03*
X1293D03*
X1365Y2780D03*
X1185Y2875D03*
X1125D03*
X1155D03*
X1185Y2815D03*
X1125D03*
X1155D03*
Y2905D03*
X1125D03*
X1185D03*
X1155Y2845D03*
X1125D03*
X1185D03*
X1125Y2785D03*
X1155D03*
X1365Y2755D03*
Y2730D03*
Y2705D03*
Y2680D03*
X1345Y2670D03*
X1320D03*
X1300Y2680D03*
Y2705D03*
Y2730D03*
Y2755D03*
Y2780D03*
X1185Y2965D03*
X1155D03*
X1125D03*
X1185Y2935D03*
X1125D03*
X1155D03*
X1115Y3410D03*
Y3460D03*
Y3510D03*
X1165Y3410D03*
Y3460D03*
Y3510D03*
X1215Y3410D03*
Y3460D03*
Y3510D03*
X1265Y3410D03*
Y3460D03*
Y3510D03*
X1315Y3410D03*
Y3460D03*
Y3510D03*
X1115Y3560D03*
Y3610D03*
X1165Y3560D03*
Y3610D03*
X1215Y3560D03*
X1115Y3760D03*
Y3710D03*
X1165Y3760D03*
Y3710D03*
Y3660D03*
X1115D03*
X1575Y151D03*
Y177D03*
Y125D03*
Y100D03*
Y202D03*
Y330D03*
Y305D03*
X1576Y228D03*
Y253D03*
X1490Y796D03*
Y678D03*
X1491Y855D03*
X1490Y1072D03*
X1576Y1092D03*
X1575Y914D03*
X1695Y1270D03*
X1427Y1135D03*
X1505Y1485D03*
X1558Y2002D03*
Y2308D03*
Y2282D03*
X1562Y2230D03*
X1558Y2178D03*
Y2027D03*
Y2052D03*
Y2078D03*
Y2102D03*
Y2128D03*
Y2152D03*
X1420Y2212D03*
Y2278D03*
X1558Y2458D03*
Y2432D03*
Y2408D03*
Y2382D03*
Y2358D03*
Y2332D03*
X1850Y778D03*
X1825Y804D03*
Y753D03*
Y651D03*
X1850Y676D03*
Y727D03*
X1825Y702D03*
X1822Y983D03*
X1850Y830D03*
Y958D03*
X1725Y1075D03*
X1824Y1034D03*
X1824Y1111D03*
X1825Y881D03*
Y932D03*
X1850Y906D03*
X1852Y1086D03*
X1850Y1290D03*
X1825Y1214D03*
Y1367D03*
X1735Y1188D03*
X1850Y1342D03*
X1825Y1265D03*
X1850Y1393D03*
X1825Y1316D03*
X1841Y1162D03*
X1862Y1239D03*
X1725Y1475D03*
X1825Y1418D03*
Y1469D03*
X1850Y1444D03*
X1943Y1738D03*
X1918D03*
X1892D03*
X1992D03*
X1968D03*
X1845Y1755D03*
X1916Y1985D03*
X1891Y1984D03*
X1875Y1840D03*
X1810Y2258D03*
X1945Y2215D03*
X1916Y2505D03*
X1825Y2475D03*
X1885Y2505D03*
X1892Y2752D03*
X1918D03*
X1943D03*
X1968D03*
X1992D03*
X1790Y2790D03*
X1845Y2740D03*
X1790Y2760D03*
Y2730D03*
Y2700D03*
Y2670D03*
X1845Y2620D03*
X1820Y3185D03*
X1860D03*
X1900D03*
X1940D03*
Y3345D03*
X1980Y3305D03*
X1940D03*
Y3265D03*
Y3225D03*
X1900D03*
Y3265D03*
Y3305D03*
Y3345D03*
X1860Y3225D03*
Y3265D03*
Y3305D03*
Y3345D03*
X1820Y3305D03*
Y3345D03*
Y3385D03*
Y3425D03*
Y3225D03*
Y3265D03*
X1940Y3385D03*
X1900D03*
X1860D03*
X1900Y3425D03*
X1860D03*
X1940Y3735D03*
X1975D03*
X2010D03*
X2137Y804D03*
X2307Y702D03*
X2172Y651D03*
X2266Y676D03*
X2280Y727D03*
X2172Y753D03*
X2266Y778D03*
X2288Y1086D03*
X2265Y855D03*
Y930D03*
X2170Y830D03*
X2155Y1005D03*
X2288Y1009D03*
X2265Y960D03*
X2180Y906D03*
X2277Y1162D03*
X2155Y1130D03*
X2125Y1190D03*
X2165Y1265D03*
X2125Y1340D03*
X2262Y1342D03*
X2263Y1188D03*
X2125Y1290D03*
X2145Y1389D03*
X2295Y1214D03*
Y1316D03*
Y1367D03*
X2265Y1239D03*
Y1465D03*
X2280Y1418D03*
X2295Y1444D03*
X2312Y1738D03*
X2068D03*
X2042D03*
X2018D03*
X2265Y1750D03*
X2190D03*
X2115D03*
X2044Y1985D03*
X2223D03*
X2147D03*
X2295Y1840D03*
X2085D03*
X2070Y1985D03*
X2300D03*
X2080Y2050D03*
X2147Y2505D03*
X2044D03*
X2300Y2505D03*
X2070Y2505D03*
X2018Y2752D03*
X2068D03*
X2302D03*
X2255Y2740D03*
X2185D03*
X2115D03*
X2255Y2620D03*
X2115D03*
X2055Y3305D03*
X2020D03*
X2095Y3710D03*
X2060D03*
X2130D03*
X2215Y3735D03*
X2180D03*
X2250D03*
X2130Y3685D03*
X2060D03*
X2095D03*
Y3820D03*
X2060D03*
X2130D03*
X2575Y155D03*
X2438Y662D03*
Y798D03*
Y712D03*
Y688D03*
Y638D03*
Y562D03*
Y612D03*
Y738D03*
Y588D03*
Y772D03*
Y898D03*
Y1058D03*
X2322Y983D03*
X2438Y948D03*
Y922D03*
Y1032D03*
Y1008D03*
Y982D03*
Y1108D03*
Y822D03*
Y848D03*
Y872D03*
Y1082D03*
Y1158D03*
Y1193D03*
Y1132D03*
Y1268D03*
X2480Y1380D03*
X2438Y1400D03*
Y1342D03*
Y1218D03*
Y1292D03*
Y1318D03*
Y1242D03*
Y1475D03*
Y1425D03*
Y1525D03*
Y1575D03*
Y1550D03*
Y1500D03*
Y1450D03*
X2488Y1738D03*
X2462D03*
X2438D03*
X2412D03*
X2388D03*
X2363D03*
X2338D03*
X2535Y1750D03*
X2326Y1985D03*
X2454D03*
X2505Y1840D03*
X2479Y1984D03*
X2560Y2232D03*
X2420Y2280D03*
X2562Y2053D03*
X2561Y2079D03*
X2562Y2283D03*
X2420Y2020D03*
Y2085D03*
Y2150D03*
X2561Y2181D03*
X2454Y2506D03*
X2326Y2505D03*
X2561Y2411D03*
X2420Y2410D03*
X2479Y2505D03*
X2352Y2752D03*
X2378D03*
X2402D03*
X2428D03*
X2452D03*
X2478D03*
X2525Y2740D03*
Y2620D03*
X2415Y3690D03*
X2380D03*
X2450D03*
X2470Y3725D03*
Y3760D03*
Y3795D03*
X2360Y3760D03*
Y3795D03*
Y3725D03*
X2415Y3855D03*
X2380D03*
X2450D03*
X2470Y3830D03*
X2360D03*
X2778Y772D03*
Y562D03*
Y588D03*
Y612D03*
Y638D03*
Y738D03*
Y688D03*
Y712D03*
X2680Y755D03*
X2710D03*
X2740D03*
X2680Y545D03*
X2710D03*
X2740D03*
X2778Y798D03*
Y1082D03*
Y1058D03*
Y1008D03*
Y1108D03*
X2680Y965D03*
X2710D03*
X2740D03*
X2778Y898D03*
Y872D03*
Y848D03*
Y822D03*
Y1158D03*
Y1132D03*
Y1342D03*
Y1318D03*
Y1242D03*
Y1218D03*
Y1193D03*
X2680Y1385D03*
X2710D03*
X2740D03*
X2680Y1175D03*
X2710D03*
X2740D03*
X2778Y1475D03*
Y1525D03*
X2680Y1590D03*
X2710D03*
X2740D03*
X2812Y2058D03*
Y2033D03*
X2800Y2260D03*
X2812Y2208D03*
Y2312D03*
Y2158D03*
Y2132D03*
Y2182D03*
X2815Y2490D03*
X2813Y2463D03*
X2812Y2388D03*
Y2363D03*
Y2338D03*
Y2438D03*
X2800Y3185D03*
X2880D03*
X2840D03*
X2800Y3305D03*
Y3345D03*
Y3385D03*
Y3425D03*
Y3225D03*
Y3265D03*
X2840Y3345D03*
Y3305D03*
Y3265D03*
Y3225D03*
X2880Y3345D03*
Y3305D03*
Y3265D03*
Y3225D03*
X2945Y1055D03*
X3155Y1322D03*
X3182Y1608D03*
X3155Y1636D03*
X3127Y1608D03*
X3182Y1552D03*
X3155Y1524D03*
X3099Y1580D03*
X3182Y1664D03*
X3210Y1636D03*
Y1691D03*
Y1580D03*
X2945Y2105D03*
X2946Y2430D03*
X2920Y3185D03*
X2960Y3305D03*
X2920Y3225D03*
Y3265D03*
Y3305D03*
Y3345D03*
X3035Y3305D03*
X3000D03*
X2955Y3735D03*
X2920D03*
X2990D03*
X3075Y3685D03*
X3040D03*
X3110D03*
X3160Y3735D03*
X3195D03*
X3110Y3710D03*
X3040D03*
X3075D03*
X3110Y3820D03*
X3040D03*
X3075D03*
X3380Y455D03*
X3500Y630D03*
X3380D03*
X3325Y1010D03*
X3295D03*
X3265D03*
X3245Y985D03*
Y955D03*
Y925D03*
X3500Y865D03*
X3516Y1385D03*
X3322Y1413D03*
X3294Y1385D03*
X3377Y1302D03*
X3433Y1246D03*
X3405Y1329D03*
Y1274D03*
X3349Y1385D03*
X3489Y1413D03*
Y1357D03*
X3433Y1302D03*
X3461Y1274D03*
X3489Y1246D03*
X3315Y1162D03*
X3377Y1413D03*
X3433Y1357D03*
X3489Y1302D03*
X3461Y1385D03*
X3516Y1329D03*
X3461Y1218D03*
X3516Y1274D03*
Y1719D03*
Y1441D03*
X3433Y1524D03*
X3405Y1552D03*
X3322Y1691D03*
X3266D03*
X3238Y1719D03*
X3405Y1496D03*
X3294Y1441D03*
X3238Y1496D03*
X3349Y1441D03*
X3238Y1552D03*
X3433Y1469D03*
X3377D03*
X3516Y1552D03*
X3294Y1664D03*
X3266Y1636D03*
X3322Y1580D03*
X3266Y1524D03*
X3322Y1469D03*
X3461Y1664D03*
X3266Y1580D03*
X3294Y1552D03*
X3405Y1719D03*
X3349Y1664D03*
X3322Y1636D03*
X3349Y1608D03*
X3322Y1524D03*
X3349Y1496D03*
X3405Y1441D03*
X3294Y1719D03*
X3433Y1636D03*
X3377D03*
Y1580D03*
X3238Y1608D03*
X3349Y1719D03*
X3405Y1664D03*
Y1608D03*
X3238Y1664D03*
X3377Y1691D03*
X3433D03*
X3461Y1496D03*
X3349Y1552D03*
X3377Y1524D03*
X3489Y1747D03*
X3516Y1998D03*
X3461Y1831D03*
X3472Y1966D03*
X3516Y1886D03*
X3405Y1831D03*
X3489Y1858D03*
X3433Y1803D03*
X3377Y1747D03*
Y1858D03*
X3516Y1775D03*
X3266Y1747D03*
X3294Y1775D03*
X3322Y1803D03*
X3433Y1914D03*
X3516Y1831D03*
X3461Y1775D03*
X3322Y1747D03*
X3349Y1775D03*
X3461Y1886D03*
X3405D03*
X3489Y1914D03*
X3461Y1942D03*
X3489Y1803D03*
X3433Y1858D03*
X3230Y3735D03*
X3340Y3725D03*
Y3795D03*
Y3760D03*
X3450D03*
Y3795D03*
Y3725D03*
X3430Y3690D03*
X3360D03*
X3395D03*
X3340Y3830D03*
X3450D03*
X3430Y3855D03*
X3360D03*
X3395D03*
X3770Y426D03*
X3740Y590D03*
X3535Y630D03*
X3565D03*
X3600D03*
X3535Y865D03*
X3565D03*
X3600D03*
Y1190D03*
X3628Y1218D03*
X3656Y1302D03*
X3544Y1413D03*
X3684Y1274D03*
X3544Y1190D03*
Y1302D03*
X3767Y1357D03*
X3711Y1302D03*
X3600D03*
X3656Y1246D03*
X3572Y1218D03*
X3711Y1413D03*
X3656Y1135D03*
X3711Y1357D03*
X3795Y1274D03*
X3628Y1162D03*
X3684Y1385D03*
X3795Y1329D03*
X3739Y1385D03*
X3684Y1329D03*
X3628D03*
X3572Y1274D03*
X3600Y1246D03*
Y1357D03*
X3684Y1162D03*
X3656Y1357D03*
X3767Y1302D03*
X3628Y1385D03*
X3656Y1190D03*
Y1413D03*
X3739Y1329D03*
X3572Y1385D03*
X3544Y1357D03*
X3572Y1329D03*
X3544Y1246D03*
X3739Y1496D03*
X3767Y1691D03*
X3795Y1719D03*
Y1664D03*
X3628D03*
X3600Y1636D03*
X3656Y1580D03*
X3544D03*
X3600Y1524D03*
X3572Y1496D03*
X3684Y1608D03*
X3767Y1469D03*
X3795Y1441D03*
X3684D03*
X3767Y1524D03*
X3795Y1496D03*
Y1608D03*
X3767Y1636D03*
X3739Y1664D03*
X3684Y1719D03*
X3795Y1552D03*
Y1886D03*
X3751Y1949D03*
X3767Y1914D03*
X3739Y1775D03*
X3767Y1803D03*
X3711Y1858D03*
X3572Y1775D03*
X3628Y1831D03*
X3600Y1803D03*
X3684Y1831D03*
X3656Y1747D03*
X3544Y1970D03*
X3628Y1886D03*
Y1998D03*
X3656Y1803D03*
Y1970D03*
X3684Y1998D03*
Y1775D03*
X3656Y1914D03*
X3739Y1886D03*
X3767Y1858D03*
X3628Y1942D03*
X3684Y1886D03*
X3739Y1831D03*
X3544Y1914D03*
X3600Y1858D03*
X3544Y1803D03*
X3600Y1914D03*
X3656Y1858D03*
X3711Y1803D03*
X3572Y1886D03*
X3544Y1858D03*
X3572Y1942D03*
X3544Y1747D03*
X3600Y1970D03*
X3711Y1747D03*
X3572Y1998D03*
X3628Y1775D03*
X3600Y2081D03*
X3656Y2025D03*
X3572Y2053D03*
X3600Y2025D03*
X3544D03*
X3628Y2053D03*
X3775Y3185D03*
Y3305D03*
Y3345D03*
Y3385D03*
Y3425D03*
Y3225D03*
Y3265D03*
X3840Y404D03*
X3910Y380D03*
X4088Y444D03*
X4063D03*
X3994Y384D03*
X3935Y454D03*
X3960Y660D03*
X3945Y590D03*
X4015D03*
X4085D03*
X3855Y810D03*
X3876Y590D03*
X3935Y660D03*
X3990Y914D03*
X3855Y890D03*
Y850D03*
X3920Y914D03*
X4055D03*
X4090D03*
X3823Y1357D03*
X3823Y1413D03*
X3851Y1385D03*
X3867Y1161D03*
X4095Y1373D03*
X3878Y1357D03*
X3849Y1143D03*
X4072Y1350D03*
X3823Y1302D03*
X3934Y1413D03*
X3851Y1329D03*
X3851Y1441D03*
X3823Y1469D03*
X4018Y1552D03*
X4045Y1580D03*
X3823Y1524D03*
X4045D03*
X4073Y1552D03*
X3906Y1719D03*
X3934Y1691D03*
X3962Y1719D03*
Y1664D03*
X3990Y1691D03*
Y1636D03*
X4018Y1664D03*
Y1608D03*
X4045Y1636D03*
X3823D03*
X3878Y1691D03*
X3962Y1552D03*
X3878Y1580D03*
X3851Y1608D03*
Y1664D03*
X3990Y1580D03*
X3851Y1719D03*
X3906Y1664D03*
X3962Y1608D03*
X3934Y1524D03*
X3878D03*
Y1469D03*
X3823Y1691D03*
X3878Y1636D03*
X3934Y1580D03*
X3851Y1552D03*
X3906Y1496D03*
X3851D03*
X3990Y1524D03*
X4018Y1496D03*
X3906Y1441D03*
X3823Y1580D03*
X3906Y1608D03*
X3934Y1636D03*
X3823Y1858D03*
Y1747D03*
X3878D03*
X3906Y1775D03*
X3934Y1747D03*
X3851Y1775D03*
X3878Y1803D03*
X3895Y3185D03*
X3855D03*
X3815D03*
X3935Y3305D03*
X3815Y3345D03*
Y3305D03*
Y3265D03*
Y3225D03*
X3855Y3345D03*
Y3305D03*
Y3265D03*
Y3225D03*
X3895D03*
Y3265D03*
Y3305D03*
Y3345D03*
X4010Y3305D03*
X3975D03*
X3935Y3735D03*
X3900D03*
X3970D03*
X4055Y3685D03*
X4020D03*
X4090D03*
Y3710D03*
X4020D03*
X4055D03*
X4090Y3820D03*
X4020D03*
X4055D03*
X4165Y445D03*
X4330Y500D03*
X4225Y555D03*
X4333Y713D03*
X4183Y625D03*
X4120Y914D03*
X4155D03*
X4245Y2513D03*
X4165Y2616D03*
X4370Y2850D03*
Y2790D03*
Y2740D03*
X4270Y2850D03*
Y2790D03*
Y2740D03*
X4161Y2641D03*
X4160Y2667D03*
X4370Y3040D03*
Y2980D03*
Y2930D03*
X4270D03*
Y2980D03*
Y3040D03*
X4210Y3735D03*
X4140D03*
X4175D03*
X4602Y1062D03*
Y1087D03*
Y1180D03*
Y1205D03*
Y1416D03*
Y1441D03*
X4566Y1850D03*
X4534Y1980D03*
X4602Y1849D03*
Y1968D03*
Y1874D03*
Y1993D03*
Y1756D03*
Y1731D03*
Y2086D03*
Y2111D03*
Y2204D03*
Y2229D03*
Y2603D03*
X4775Y832D03*
X4965Y960D03*
X4828Y969D03*
X4722Y1003D03*
Y1028D03*
X4828Y944D03*
X4948Y1003D03*
X4828Y1062D03*
X4948Y1028D03*
X4828Y1087D03*
X4775Y1200D03*
X4805Y1280D03*
X4965Y1310D03*
Y1190D03*
X4722Y1240D03*
Y1265D03*
X4948Y1122D03*
X4828Y1180D03*
X4948Y1240D03*
X4828Y1298D03*
X4948Y1358D03*
Y1147D03*
X4828Y1205D03*
X4948Y1265D03*
X4828Y1323D03*
X4948Y1383D03*
X4775Y1595D03*
Y1445D03*
Y1620D03*
X4965Y1600D03*
Y1575D03*
Y1625D03*
X4722Y1476D03*
Y1501D03*
X4828Y1416D03*
X4948Y1476D03*
X4828Y1441D03*
X4948Y1501D03*
X4775Y2005D03*
Y1770D03*
X4965Y1740D03*
X4828Y1756D03*
X4722Y1791D03*
Y1909D03*
Y1816D03*
Y1934D03*
X4828Y1731D03*
X4948Y1791D03*
X4828Y1849D03*
X4948Y1909D03*
X4828Y1968D03*
X4948Y1816D03*
X4828Y1874D03*
X4948Y1934D03*
X4828Y1993D03*
X4948Y2027D03*
X4722D03*
X4948Y2052D03*
X4722D03*
X4828Y2086D03*
Y2111D03*
X4948Y2145D03*
X4722D03*
X4948Y2170D03*
X4722D03*
X4828Y2204D03*
Y2229D03*
X4965Y2100D03*
X4948Y2263D03*
X4722D03*
X4948Y2288D03*
X4722D03*
X4828Y2603D03*
X4940Y2440D03*
X4920Y2460D03*
Y2420D03*
X4940Y2400D03*
X4920Y2380D03*
X4940Y2360D03*
Y2480D03*
Y2320D03*
X4920Y2340D03*
X4775Y2770D03*
Y3020D03*
Y3170D03*
G54D34*
Y2390D03*
G54D11*
X66Y776D03*
X145D03*
X66Y697D03*
X145D03*
Y619D03*
X66Y540D03*
Y855D03*
X145D03*
G54D30*
X1825Y302D03*
X2081Y125D03*
Y302D03*
X2225D03*
X2481Y125D03*
Y302D03*
X2825D03*
X3081Y125D03*
Y302D03*
X3225D03*
X3481Y125D03*
Y302D03*
X3625D03*
X3881Y125D03*
Y302D03*
X4025D03*
X4281Y125D03*
Y302D03*
G54D19*
X100Y2775D03*
G54D21*
X506Y1480D03*
Y1578D03*
X820Y165D03*
X720D03*
X820Y265D03*
X720D03*
X620D03*
X585Y1578D03*
X1020Y165D03*
X920D03*
X1020Y265D03*
X920D03*
X950Y2580D03*
X960Y3115D03*
X1170Y460D03*
X1625Y1325D03*
Y1225D03*
X2890Y2970D03*
X4090Y2550D03*
X3870D03*
X3980Y2980D03*
X4300Y2125D03*
Y2325D03*
Y2425D03*
G54D25*
X589Y3305D03*
G54D13*
X145Y540D03*
G54D29*
X1825Y125D03*
X2225D03*
X2825D03*
X3225D03*
X3625D03*
X4025D03*
G54D24*
X620Y165D03*
X585Y1480D03*
X1070Y460D03*
X1545Y2730D03*
X2620Y3550D03*
X3600D03*
X4090Y2650D03*
X3870D03*
X4470Y3550D03*
G54D32*
X3461Y1329D03*
X3489Y1636D03*
X3461Y1608D03*
Y1552D03*
X3489Y1524D03*
X3294Y1608D03*
Y1496D03*
X3628Y1274D03*
X3572Y1441D03*
X3628D03*
X3656Y1469D03*
X3739Y1608D03*
Y1552D03*
X3628Y1719D03*
X3711Y1636D03*
X3572Y1719D03*
X3711Y1524D03*
X3544Y1691D03*
X3572Y1831D03*
X3906Y1552D03*
G54D16*
X85Y1964D03*
X408Y490D03*
X230Y1964D03*
X470Y2805D03*
X575Y2590D03*
X845Y1338D03*
X855Y2073D03*
X830Y2720D03*
X1535Y3260D03*
X1750Y1940D03*
X3095Y1027D03*
G54D33*
X4665Y2390D03*
G54D23*
X345Y3305D03*
G54D12*
X66Y619D03*
G54D31*
X2620Y3650D03*
X3600D03*
X4470D03*
G54D26*
X850Y2580D03*
X2790Y2970D03*
X3880Y2980D03*
X4300Y2225D03*
G54D20*
X400Y1290D03*
Y1766D03*
G54D27*
X860Y3115D03*
G54D10*
X200Y200D03*
Y3800D03*
X4800Y200D03*
X4775Y600D03*
Y3400D03*
X4800Y3800D03*
G54D17*
X80Y2140D03*
Y2270D03*
Y2210D03*
Y2400D03*
Y2330D03*
X160Y2400D03*
X390Y2140D03*
Y2270D03*
Y2210D03*
Y2400D03*
X240D03*
X310D03*
X390Y2330D03*
X556Y410D03*
X977Y777D03*
X973Y1072D03*
X1017Y2206D03*
X1002Y2299D03*
X890Y2140D03*
X860D03*
X920D03*
X830D03*
X920Y2110D03*
X890D03*
X860D03*
X920Y2080D03*
X890D03*
X965Y3210D03*
X1015D03*
X1065D03*
X965Y3360D03*
Y3310D03*
Y3260D03*
X1015Y3360D03*
Y3310D03*
Y3260D03*
X1065D03*
Y3310D03*
Y3360D03*
X1254Y100D03*
X1260Y625D03*
X1140D03*
X1348Y1135D03*
X1210Y1220D03*
X1171D03*
X1208Y1825D03*
X1360Y2212D03*
X1293Y2166D03*
X1200Y2675D03*
Y2700D03*
Y2725D03*
Y2750D03*
X1225Y2760D03*
X1255D03*
X1115Y3210D03*
X1165D03*
X1215D03*
X1265D03*
X1315D03*
X1365D03*
X1265Y3090D03*
Y3065D03*
Y3040D03*
Y3015D03*
X1205Y3090D03*
X1250Y2990D03*
X1225D03*
X1235Y3090D03*
X1205Y3065D03*
Y3040D03*
Y3015D03*
X1115Y3360D03*
Y3310D03*
Y3260D03*
X1165D03*
Y3310D03*
Y3360D03*
X1215D03*
Y3310D03*
Y3260D03*
X1265D03*
Y3310D03*
Y3360D03*
X1315D03*
Y3310D03*
Y3260D03*
X1365D03*
Y3310D03*
Y3360D03*
X1491Y639D03*
X1490Y934D03*
X1435Y1388D03*
X1500Y1854D03*
X1415Y3210D03*
Y3260D03*
Y3310D03*
X1820Y2215D03*
X2260Y1040D03*
X2190Y1870D03*
X2185Y2620D03*
X2540Y755D03*
X2570D03*
X2600D03*
X2570Y545D03*
X2600D03*
X2540D03*
X2600Y965D03*
X2540D03*
X2570D03*
X2540Y1385D03*
X2570D03*
X2600D03*
X2540Y1175D03*
X2570D03*
X2600D03*
X2540Y1590D03*
X2570D03*
X2600D03*
X2630Y755D03*
Y545D03*
Y965D03*
Y1385D03*
Y1175D03*
Y1590D03*
X2660Y2258D03*
X3198Y1365D03*
X3462Y480D03*
X3288D03*
X3358Y1205D03*
X3638Y480D03*
X3812D03*
X3675Y810D03*
Y850D03*
Y890D03*
X3570Y2830D03*
X3600D03*
X3630D03*
X3660D03*
X3570Y2800D03*
Y2770D03*
Y2740D03*
X4190Y500D03*
X4400Y595D03*
X4390Y2667D03*
X4725Y956D03*
Y1075D03*
Y1193D03*
X4722Y1311D03*
X4725Y1430D03*
Y1744D03*
Y1862D03*
Y1980D03*
Y2218D03*
Y2095D03*
G54D22*
X463Y3120D03*
M02*
