G04 ================== begin FILE IDENTIFICATION RECORD ==================*
G04 Layout Name:  M:/QB3_V12/QB3_V12.brd*
G04 Film Name:    L7-SIG*
G04 File Format:  Gerber RS274X*
G04 File Origin:  15.7-p007*
G04 Origin Date:  Wed Apr 18 17:00:50 2007*
G04 *
G04 Layer:  VIA CLASS/L7-SIG*
G04 Layer:  PIN/L7-SIG*
G04 Layer:  ETCH/L7-SIG*
G04 *
G04 Offset:    (0.00 0.00)*
G04 Mirror:    No*
G04 Mode:      Positive*
G04 Rotation:  0*
G04 FullContactRelief:  No*
G04 UndefLineWidth:     0.00*
G04 ================== end FILE IDENTIFICATION RECORD ====================*
%FSLAX53Y53*MOIN*%
%IR0*IPPOS*OFA0.00000B0.00000*MIA0B0*SFA1.00000B1.00000*%
%ADD13C,.02*%
%ADD11C,.043*%
%ADD20O,.055X.168*%
%ADD14C,.035*%
%ADD19O,.168X.055*%
%ADD18C,.063*%
%ADD15C,.049*%
%ADD12R,.043X.043*%
%ADD23C,.069*%
%ADD21R,.063X.063*%
%ADD16R,.049X.049*%
%ADD22R,.069X.069*%
%ADD17C,.12*%
%ADD10C,.25*%
%ADD24C,.005*%
%ADD25C,.008*%
G75*
%LPD*%
G75*
G54D10*
X200Y200D03*
Y3800D03*
X4800Y200D03*
X4775Y600D03*
Y3400D03*
X4800Y3800D03*
G54D20*
X345Y3305D03*
X589D03*
G54D11*
X66Y776D03*
X145D03*
X66Y697D03*
X145D03*
X66Y619D03*
X145D03*
X66Y540D03*
Y855D03*
X145D03*
X4665Y2390D03*
X4775D03*
G54D21*
X620Y165D03*
X585Y1480D03*
X1070Y460D03*
X860Y3115D03*
X1545Y2730D03*
X2620Y3550D03*
X3600D03*
X4090Y2650D03*
X3870D03*
X4470Y3550D03*
G54D12*
X145Y540D03*
G54D22*
X1825Y125D03*
X2225D03*
X2825D03*
X3225D03*
X3625D03*
X4025D03*
G54D13*
X108Y1008D03*
X150Y958D03*
Y1108D03*
Y1182D03*
X80Y2140D03*
Y2270D03*
Y2210D03*
Y2400D03*
Y2330D03*
X160Y2400D03*
X280Y490D03*
X442Y598D03*
X482Y625D03*
X275Y655D03*
X462Y676D03*
X420Y682D03*
X455Y555D03*
X275Y590D03*
Y555D03*
Y620D03*
X310Y1080D03*
X280Y850D03*
Y1045D03*
X390Y2140D03*
Y2270D03*
Y2210D03*
Y2400D03*
X240D03*
X310D03*
X390Y2330D03*
X695Y510D03*
Y445D03*
X795Y440D03*
X556Y410D03*
X541Y650D03*
X535Y690D03*
X605Y783D03*
Y530D03*
X661Y780D03*
X790Y590D03*
X615Y979D03*
X629Y1109D03*
X670Y1110D03*
X566Y1109D03*
X535Y1000D03*
X565D03*
X724Y1020D03*
X756Y1305D03*
X785Y1735D03*
X720Y2275D03*
Y2310D03*
Y2340D03*
Y2375D03*
X705Y2860D03*
Y2825D03*
Y2895D03*
X800Y2885D03*
Y2820D03*
X685Y3195D03*
X775D03*
X705Y2995D03*
Y2960D03*
Y3030D03*
X680Y2930D03*
X645D03*
X610D03*
X800Y2950D03*
X635Y3485D03*
X670D03*
X705D03*
X740D03*
X635Y3450D03*
X670D03*
X705D03*
X740D03*
X810Y3415D03*
X775D03*
X635D03*
X670D03*
X705D03*
X740D03*
X685Y3265D03*
Y3230D03*
Y3300D03*
X775Y3230D03*
Y3265D03*
X810Y3520D03*
X775D03*
X635D03*
X670D03*
X705D03*
X740D03*
X1020Y625D03*
X1110Y775D03*
X994Y614D03*
X850Y790D03*
X977Y777D03*
X880Y825D03*
X870Y1052D03*
X970Y914D03*
X973Y1072D03*
X876Y1240D03*
X1092Y1135D03*
X955Y1230D03*
X994Y1135D03*
X992Y1610D03*
X955Y1605D03*
X1074Y1996D03*
X915Y1735D03*
X1110Y1855D03*
X1042Y2299D03*
X1082Y2260D03*
X1042D03*
X1002D03*
X1096Y2206D03*
Y2166D03*
X1057Y2166D03*
X1017D03*
X1096Y2126D03*
X1017D03*
X1096Y2086D03*
X1057D03*
Y2126D03*
X1017Y2206D03*
X1002Y2299D03*
X890Y2140D03*
X860D03*
X920D03*
X830D03*
X920Y2110D03*
X890D03*
X860D03*
X920Y2080D03*
X890D03*
X860Y2245D03*
X950Y2150D03*
X1056Y2206D03*
X1096Y2324D03*
X1042Y2338D03*
X1002D03*
X890Y2344D03*
X950Y2405D03*
X1095Y2875D03*
X1065D03*
X1095Y2815D03*
X1065D03*
Y2905D03*
X1095D03*
X1065Y2845D03*
X1095D03*
Y2785D03*
X1065D03*
X990Y2888D03*
X1065Y2965D03*
X1095D03*
Y2935D03*
X1065D03*
X965Y3210D03*
X1015D03*
X1065D03*
X965Y3510D03*
Y3460D03*
Y3410D03*
X1015D03*
Y3460D03*
Y3510D03*
X1065Y3410D03*
Y3460D03*
Y3510D03*
X880Y3415D03*
X845D03*
X965Y3360D03*
Y3310D03*
Y3260D03*
X1015Y3360D03*
Y3310D03*
Y3260D03*
X1065D03*
Y3310D03*
Y3360D03*
X965Y3610D03*
Y3560D03*
X1015D03*
Y3610D03*
X1065Y3560D03*
Y3610D03*
X880Y3520D03*
X845D03*
X965Y3760D03*
Y3710D03*
Y3660D03*
X1015Y3760D03*
Y3710D03*
Y3660D03*
X1065Y3760D03*
Y3710D03*
Y3660D03*
X1254Y100D03*
X1255Y330D03*
X1320Y625D03*
X1200D03*
X1132Y532D03*
X1260Y625D03*
X1140D03*
X1350Y935D03*
X1191Y1135D03*
X1230D03*
X1269D03*
X1348D03*
X1210Y1220D03*
X1171D03*
X1282Y1610D03*
X1245Y1605D03*
X1362Y1994D03*
X1253Y1972D03*
X1175Y1735D03*
X1305D03*
X1208Y1825D03*
X1235Y1994D03*
X1195Y1996D03*
X1272Y1994D03*
X1300Y1972D03*
X1115Y1996D03*
X1155D03*
X1253Y2166D03*
X1175Y2126D03*
X1214Y2126D03*
X1135Y2166D03*
Y2126D03*
Y2086D03*
X1293Y2246D03*
X1214D03*
Y2206D03*
Y2166D03*
X1175D03*
Y2086D03*
X1253Y2286D03*
Y2246D03*
X1175D03*
Y2206D03*
X1293Y2128D03*
Y2286D03*
Y2206D03*
X1360Y2212D03*
X1293Y2166D03*
X1122Y2299D03*
X1135Y2246D03*
X1253Y2206D03*
X1214Y2284D03*
X1122Y2378D03*
X1135Y2324D03*
X1175D03*
X1253D03*
X1293D03*
X1365Y2780D03*
X1185Y2875D03*
X1125D03*
X1155D03*
X1185Y2815D03*
X1125D03*
X1155D03*
Y2905D03*
X1125D03*
X1185D03*
X1155Y2845D03*
X1125D03*
X1185D03*
X1125Y2785D03*
X1155D03*
X1365Y2755D03*
Y2730D03*
Y2705D03*
Y2680D03*
X1345Y2670D03*
X1320D03*
X1300Y2680D03*
Y2705D03*
Y2730D03*
Y2755D03*
Y2780D03*
X1200Y2675D03*
Y2700D03*
Y2725D03*
Y2750D03*
X1225Y2760D03*
X1255D03*
X1185Y2965D03*
X1155D03*
X1125D03*
X1185Y2935D03*
X1125D03*
X1155D03*
X1115Y3210D03*
X1165D03*
X1215D03*
X1265D03*
X1315D03*
X1365D03*
X1265Y3090D03*
Y3065D03*
Y3040D03*
Y3015D03*
X1205Y3090D03*
X1250Y2990D03*
X1225D03*
X1235Y3090D03*
X1205Y3065D03*
Y3040D03*
Y3015D03*
X1115Y3410D03*
Y3460D03*
Y3510D03*
X1165Y3410D03*
Y3460D03*
Y3510D03*
X1215Y3410D03*
Y3460D03*
Y3510D03*
X1265Y3410D03*
Y3460D03*
Y3510D03*
X1315Y3410D03*
Y3460D03*
Y3510D03*
X1115Y3360D03*
Y3310D03*
Y3260D03*
X1165D03*
Y3310D03*
Y3360D03*
X1215D03*
Y3310D03*
Y3260D03*
X1265D03*
Y3310D03*
Y3360D03*
X1315D03*
Y3310D03*
Y3260D03*
X1365D03*
Y3310D03*
Y3360D03*
X1115Y3560D03*
Y3610D03*
X1165Y3560D03*
Y3610D03*
X1215Y3560D03*
X1115Y3760D03*
Y3710D03*
X1165Y3760D03*
Y3710D03*
Y3660D03*
X1115D03*
X1575Y151D03*
Y177D03*
Y125D03*
Y100D03*
Y202D03*
Y330D03*
Y305D03*
X1576Y228D03*
Y253D03*
X1490Y796D03*
Y678D03*
X1491Y639D03*
X1491Y855D03*
X1490Y1072D03*
X1576Y1092D03*
X1575Y914D03*
X1490Y934D03*
X1695Y1270D03*
X1427Y1135D03*
X1435Y1388D03*
X1505Y1485D03*
X1558Y2002D03*
X1500Y1854D03*
X1558Y2308D03*
Y2282D03*
X1562Y2230D03*
X1558Y2178D03*
Y2027D03*
Y2052D03*
Y2078D03*
Y2102D03*
Y2128D03*
Y2152D03*
X1420Y2212D03*
Y2278D03*
X1558Y2458D03*
Y2432D03*
Y2408D03*
Y2382D03*
Y2358D03*
Y2332D03*
X1415Y3210D03*
Y3260D03*
Y3310D03*
X1850Y778D03*
X1825Y804D03*
Y753D03*
Y651D03*
X1850Y676D03*
Y727D03*
X1825Y702D03*
X1822Y983D03*
X1850Y830D03*
Y958D03*
X1725Y1075D03*
X1824Y1034D03*
X1824Y1111D03*
X1825Y881D03*
Y932D03*
X1850Y906D03*
X1852Y1086D03*
X1850Y1290D03*
X1825Y1214D03*
Y1367D03*
X1735Y1188D03*
X1850Y1342D03*
X1825Y1265D03*
X1850Y1393D03*
X1825Y1316D03*
X1841Y1162D03*
X1862Y1239D03*
X1725Y1475D03*
X1825Y1418D03*
Y1469D03*
X1850Y1444D03*
X1943Y1738D03*
X1918D03*
X1892D03*
X1992D03*
X1968D03*
X1845Y1755D03*
X1916Y1985D03*
X1891Y1984D03*
X1875Y1840D03*
X1810Y2258D03*
X1945Y2215D03*
X1820D03*
X1916Y2505D03*
X1825Y2475D03*
X1885Y2505D03*
X1892Y2752D03*
X1918D03*
X1943D03*
X1968D03*
X1992D03*
X1790Y2790D03*
X1845Y2740D03*
X1790Y2760D03*
Y2730D03*
Y2700D03*
Y2670D03*
X1845Y2620D03*
X1820Y3185D03*
X1860D03*
X1900D03*
X1940D03*
Y3345D03*
X1980Y3305D03*
X1940D03*
Y3265D03*
Y3225D03*
X1900D03*
Y3265D03*
Y3305D03*
Y3345D03*
X1860Y3225D03*
Y3265D03*
Y3305D03*
Y3345D03*
X1820Y3305D03*
Y3345D03*
Y3385D03*
Y3425D03*
Y3225D03*
Y3265D03*
X1940Y3385D03*
X1900D03*
X1860D03*
X1900Y3425D03*
X1860D03*
X1940Y3735D03*
X1975D03*
X2010D03*
X2137Y804D03*
X2307Y702D03*
X2172Y651D03*
X2266Y676D03*
X2280Y727D03*
X2172Y753D03*
X2266Y778D03*
X2288Y1086D03*
X2265Y855D03*
Y930D03*
X2170Y830D03*
X2155Y1005D03*
X2288Y1009D03*
X2260Y1040D03*
X2265Y960D03*
X2180Y906D03*
X2277Y1162D03*
X2155Y1130D03*
X2125Y1190D03*
X2165Y1265D03*
X2125Y1340D03*
X2262Y1342D03*
X2263Y1188D03*
X2125Y1290D03*
X2145Y1389D03*
X2295Y1214D03*
Y1316D03*
Y1367D03*
X2265Y1239D03*
Y1465D03*
X2280Y1418D03*
X2295Y1444D03*
X2312Y1738D03*
X2068D03*
X2042D03*
X2018D03*
X2265Y1750D03*
X2190D03*
X2115D03*
X2044Y1985D03*
X2223D03*
X2147D03*
X2295Y1840D03*
X2085D03*
X2070Y1985D03*
X2300D03*
X2190Y1870D03*
X2080Y2050D03*
X2147Y2505D03*
X2044D03*
X2300Y2505D03*
X2070Y2505D03*
X2018Y2752D03*
X2068D03*
X2302D03*
X2255Y2740D03*
X2185D03*
X2115D03*
X2255Y2620D03*
X2115D03*
X2185D03*
X2055Y3305D03*
X2020D03*
X2095Y3710D03*
X2060D03*
X2130D03*
X2215Y3735D03*
X2180D03*
X2250D03*
X2130Y3685D03*
X2060D03*
X2095D03*
Y3820D03*
X2060D03*
X2130D03*
X2575Y155D03*
X2438Y662D03*
Y798D03*
Y712D03*
Y688D03*
Y638D03*
Y562D03*
Y612D03*
Y738D03*
X2540Y755D03*
X2570D03*
X2600D03*
X2570Y545D03*
X2600D03*
X2540D03*
X2438Y588D03*
Y772D03*
Y898D03*
Y1058D03*
X2322Y983D03*
X2438Y948D03*
Y922D03*
Y1032D03*
X2600Y965D03*
X2540D03*
X2570D03*
X2438Y1008D03*
Y982D03*
Y1108D03*
Y822D03*
Y848D03*
Y872D03*
Y1082D03*
Y1158D03*
Y1193D03*
Y1132D03*
Y1268D03*
X2480Y1380D03*
X2438Y1400D03*
Y1342D03*
Y1218D03*
X2540Y1385D03*
X2570D03*
X2600D03*
X2540Y1175D03*
X2570D03*
X2600D03*
X2438Y1292D03*
Y1318D03*
Y1242D03*
Y1475D03*
Y1425D03*
Y1525D03*
Y1575D03*
Y1550D03*
Y1500D03*
X2540Y1590D03*
X2570D03*
X2600D03*
X2438Y1450D03*
X2488Y1738D03*
X2462D03*
X2438D03*
X2412D03*
X2388D03*
X2363D03*
X2338D03*
X2535Y1750D03*
X2326Y1985D03*
X2454D03*
X2505Y1840D03*
X2479Y1984D03*
X2560Y2232D03*
X2420Y2280D03*
X2562Y2053D03*
X2561Y2079D03*
X2562Y2283D03*
X2420Y2020D03*
Y2085D03*
Y2150D03*
X2561Y2181D03*
X2454Y2506D03*
X2326Y2505D03*
X2561Y2411D03*
X2420Y2410D03*
X2479Y2505D03*
X2352Y2752D03*
X2378D03*
X2402D03*
X2428D03*
X2452D03*
X2478D03*
X2525Y2740D03*
Y2620D03*
X2415Y3690D03*
X2380D03*
X2450D03*
X2470Y3725D03*
Y3760D03*
Y3795D03*
X2360Y3760D03*
Y3795D03*
Y3725D03*
X2415Y3855D03*
X2380D03*
X2450D03*
X2470Y3830D03*
X2360D03*
X2778Y772D03*
Y562D03*
Y588D03*
Y612D03*
Y638D03*
Y738D03*
Y688D03*
Y712D03*
X2680Y755D03*
X2710D03*
X2740D03*
X2680Y545D03*
X2710D03*
X2740D03*
X2630Y755D03*
Y545D03*
X2778Y798D03*
Y1082D03*
Y1058D03*
Y1008D03*
Y1108D03*
X2680Y965D03*
X2710D03*
X2740D03*
X2630D03*
X2778Y898D03*
Y872D03*
Y848D03*
Y822D03*
Y1158D03*
Y1132D03*
Y1342D03*
Y1318D03*
Y1242D03*
Y1218D03*
Y1193D03*
X2680Y1385D03*
X2710D03*
X2740D03*
X2680Y1175D03*
X2710D03*
X2740D03*
X2630Y1385D03*
Y1175D03*
X2778Y1475D03*
Y1525D03*
X2680Y1590D03*
X2710D03*
X2740D03*
X2630D03*
X2812Y2058D03*
Y2033D03*
X2800Y2260D03*
X2660Y2258D03*
X2812Y2208D03*
Y2312D03*
Y2158D03*
Y2132D03*
Y2182D03*
X2815Y2490D03*
X2813Y2463D03*
X2812Y2388D03*
Y2363D03*
Y2338D03*
Y2438D03*
X2800Y3185D03*
X2880D03*
X2840D03*
X2800Y3305D03*
Y3345D03*
Y3385D03*
Y3425D03*
Y3225D03*
Y3265D03*
X2840Y3345D03*
Y3305D03*
Y3265D03*
Y3225D03*
X2880Y3345D03*
Y3305D03*
Y3265D03*
Y3225D03*
X2945Y1055D03*
X3155Y1322D03*
X3198Y1365D03*
X3182Y1608D03*
X3155Y1636D03*
X3127Y1608D03*
X3182Y1552D03*
X3155Y1524D03*
X3099Y1580D03*
X3182Y1664D03*
X3210Y1636D03*
Y1691D03*
Y1580D03*
X2945Y2105D03*
X2946Y2430D03*
X2920Y3185D03*
X2960Y3305D03*
X2920Y3225D03*
Y3265D03*
Y3305D03*
Y3345D03*
X3035Y3305D03*
X3000D03*
X2955Y3735D03*
X2920D03*
X2990D03*
X3075Y3685D03*
X3040D03*
X3110D03*
X3160Y3735D03*
X3195D03*
X3110Y3710D03*
X3040D03*
X3075D03*
X3110Y3820D03*
X3040D03*
X3075D03*
X3380Y455D03*
X3462Y480D03*
X3288D03*
X3500Y630D03*
X3380D03*
X3325Y1010D03*
X3295D03*
X3265D03*
X3245Y985D03*
Y955D03*
Y925D03*
X3500Y865D03*
X3516Y1385D03*
X3322Y1413D03*
X3294Y1385D03*
X3377Y1302D03*
X3433Y1246D03*
X3405Y1329D03*
Y1274D03*
X3349Y1385D03*
X3489Y1413D03*
Y1357D03*
X3433Y1302D03*
X3461Y1274D03*
X3489Y1246D03*
X3315Y1162D03*
X3377Y1413D03*
X3433Y1357D03*
X3489Y1302D03*
X3461Y1385D03*
X3516Y1329D03*
X3461D03*
X3358Y1205D03*
X3461Y1218D03*
X3516Y1274D03*
Y1719D03*
Y1441D03*
X3433Y1524D03*
X3405Y1552D03*
X3322Y1691D03*
X3266D03*
X3238Y1719D03*
X3405Y1496D03*
X3294Y1441D03*
X3238Y1496D03*
X3349Y1441D03*
X3238Y1552D03*
X3433Y1469D03*
X3377D03*
X3516Y1552D03*
X3294Y1664D03*
X3266Y1636D03*
X3322Y1580D03*
X3266Y1524D03*
X3322Y1469D03*
X3461Y1664D03*
X3266Y1580D03*
X3489Y1636D03*
X3461Y1608D03*
Y1552D03*
X3489Y1524D03*
X3294Y1608D03*
Y1552D03*
X3405Y1719D03*
X3349Y1664D03*
X3322Y1636D03*
X3349Y1608D03*
X3322Y1524D03*
X3349Y1496D03*
X3405Y1441D03*
X3294Y1719D03*
X3433Y1636D03*
X3377D03*
Y1580D03*
X3238Y1608D03*
X3349Y1719D03*
X3405Y1664D03*
Y1608D03*
X3238Y1664D03*
X3377Y1691D03*
X3433D03*
X3294Y1496D03*
X3461D03*
X3349Y1552D03*
X3377Y1524D03*
X3489Y1747D03*
X3516Y1998D03*
X3461Y1831D03*
X3472Y1966D03*
X3516Y1886D03*
X3405Y1831D03*
X3489Y1858D03*
X3433Y1803D03*
X3377Y1747D03*
Y1858D03*
X3516Y1775D03*
X3266Y1747D03*
X3294Y1775D03*
X3322Y1803D03*
X3433Y1914D03*
X3516Y1831D03*
X3461Y1775D03*
X3322Y1747D03*
X3349Y1775D03*
X3461Y1886D03*
X3405D03*
X3489Y1914D03*
X3461Y1942D03*
X3489Y1803D03*
X3433Y1858D03*
X3230Y3735D03*
X3340Y3725D03*
Y3795D03*
Y3760D03*
X3450D03*
Y3795D03*
Y3725D03*
X3430Y3690D03*
X3360D03*
X3395D03*
X3340Y3830D03*
X3450D03*
X3430Y3855D03*
X3360D03*
X3395D03*
X3770Y426D03*
X3638Y480D03*
X3812D03*
X3740Y590D03*
X3675Y810D03*
X3535Y630D03*
X3565D03*
X3600D03*
X3675Y850D03*
Y890D03*
X3535Y865D03*
X3565D03*
X3600D03*
Y1190D03*
X3628Y1218D03*
X3656Y1302D03*
X3544Y1413D03*
X3684Y1274D03*
X3544Y1190D03*
Y1302D03*
X3767Y1357D03*
X3711Y1302D03*
X3600D03*
X3656Y1246D03*
X3572Y1218D03*
X3711Y1413D03*
X3656Y1135D03*
X3711Y1357D03*
X3795Y1274D03*
X3628D03*
Y1162D03*
X3684Y1385D03*
X3795Y1329D03*
X3739Y1385D03*
X3684Y1329D03*
X3628D03*
X3572Y1274D03*
X3600Y1246D03*
Y1357D03*
X3684Y1162D03*
X3656Y1357D03*
X3767Y1302D03*
X3628Y1385D03*
X3656Y1190D03*
Y1413D03*
X3739Y1329D03*
X3572Y1385D03*
X3544Y1357D03*
X3572Y1329D03*
X3544Y1246D03*
X3739Y1496D03*
X3767Y1691D03*
X3795Y1719D03*
Y1664D03*
X3628D03*
X3600Y1636D03*
X3656Y1580D03*
X3544D03*
X3600Y1524D03*
X3572Y1496D03*
X3684Y1608D03*
X3572Y1441D03*
X3628D03*
X3656Y1469D03*
X3739Y1608D03*
Y1552D03*
X3628Y1719D03*
X3711Y1636D03*
X3572Y1719D03*
X3711Y1524D03*
X3544Y1691D03*
X3767Y1469D03*
X3795Y1441D03*
X3684D03*
X3767Y1524D03*
X3795Y1496D03*
Y1608D03*
X3767Y1636D03*
X3739Y1664D03*
X3684Y1719D03*
X3795Y1552D03*
Y1886D03*
X3751Y1949D03*
X3767Y1914D03*
X3739Y1775D03*
X3767Y1803D03*
X3711Y1858D03*
X3572Y1775D03*
X3628Y1831D03*
X3600Y1803D03*
X3684Y1831D03*
X3656Y1747D03*
X3544Y1970D03*
X3628Y1886D03*
Y1998D03*
X3656Y1803D03*
Y1970D03*
X3684Y1998D03*
Y1775D03*
X3656Y1914D03*
X3739Y1886D03*
X3767Y1858D03*
X3628Y1942D03*
X3684Y1886D03*
X3739Y1831D03*
X3544Y1914D03*
X3600Y1858D03*
X3544Y1803D03*
X3572Y1831D03*
X3600Y1914D03*
X3656Y1858D03*
X3711Y1803D03*
X3572Y1886D03*
X3544Y1858D03*
X3572Y1942D03*
X3544Y1747D03*
X3600Y1970D03*
X3711Y1747D03*
X3572Y1998D03*
X3628Y1775D03*
X3600Y2081D03*
X3656Y2025D03*
X3572Y2053D03*
X3600Y2025D03*
X3544D03*
X3628Y2053D03*
X3570Y2830D03*
X3600D03*
X3630D03*
X3660D03*
X3570Y2800D03*
Y2770D03*
Y2740D03*
X3775Y3185D03*
Y3305D03*
Y3345D03*
Y3385D03*
Y3425D03*
Y3225D03*
Y3265D03*
X3840Y404D03*
X3910Y380D03*
X4088Y444D03*
X4063D03*
X3994Y384D03*
X3935Y454D03*
X3960Y660D03*
X3945Y590D03*
X4015D03*
X4085D03*
X3855Y810D03*
X3876Y590D03*
X3935Y660D03*
X3990Y914D03*
X3855Y890D03*
Y850D03*
X3920Y914D03*
X4055D03*
X4090D03*
X3823Y1357D03*
X3823Y1413D03*
X3851Y1385D03*
X3867Y1161D03*
X4095Y1373D03*
X3878Y1357D03*
X3849Y1143D03*
X4072Y1350D03*
X3823Y1302D03*
X3934Y1413D03*
X3851Y1329D03*
X3851Y1441D03*
X3823Y1469D03*
X4018Y1552D03*
X4045Y1580D03*
X3823Y1524D03*
X4045D03*
X4073Y1552D03*
X3906Y1719D03*
X3934Y1691D03*
X3962Y1719D03*
Y1664D03*
X3990Y1691D03*
Y1636D03*
X4018Y1664D03*
Y1608D03*
X4045Y1636D03*
X3823D03*
X3878Y1691D03*
X3962Y1552D03*
X3878Y1580D03*
X3851Y1608D03*
Y1664D03*
X3990Y1580D03*
X3851Y1719D03*
X3906Y1664D03*
X3962Y1608D03*
X3934Y1524D03*
X3878D03*
Y1469D03*
X3906Y1552D03*
X3823Y1691D03*
X3878Y1636D03*
X3934Y1580D03*
X3851Y1552D03*
X3906Y1496D03*
X3851D03*
X3990Y1524D03*
X4018Y1496D03*
X3906Y1441D03*
X3823Y1580D03*
X3906Y1608D03*
X3934Y1636D03*
X3823Y1858D03*
Y1747D03*
X3878D03*
X3906Y1775D03*
X3934Y1747D03*
X3851Y1775D03*
X3878Y1803D03*
X3895Y3185D03*
X3855D03*
X3815D03*
X3935Y3305D03*
X3815Y3345D03*
Y3305D03*
Y3265D03*
Y3225D03*
X3855Y3345D03*
Y3305D03*
Y3265D03*
Y3225D03*
X3895D03*
Y3265D03*
Y3305D03*
Y3345D03*
X4010Y3305D03*
X3975D03*
X3935Y3735D03*
X3900D03*
X3970D03*
X4055Y3685D03*
X4020D03*
X4090D03*
Y3710D03*
X4020D03*
X4055D03*
X4090Y3820D03*
X4020D03*
X4055D03*
X4165Y445D03*
X4330Y500D03*
X4190D03*
X4225Y555D03*
X4333Y713D03*
X4183Y625D03*
X4400Y595D03*
X4120Y914D03*
X4155D03*
X4245Y2513D03*
X4165Y2616D03*
X4370Y2850D03*
Y2790D03*
Y2740D03*
X4270Y2850D03*
Y2790D03*
Y2740D03*
X4161Y2641D03*
X4160Y2667D03*
X4390D03*
X4370Y3040D03*
Y2980D03*
Y2930D03*
X4270D03*
Y2980D03*
Y3040D03*
X4210Y3735D03*
X4140D03*
X4175D03*
X4602Y1062D03*
Y1087D03*
Y1180D03*
Y1205D03*
Y1416D03*
Y1441D03*
X4566Y1850D03*
X4534Y1980D03*
X4602Y1849D03*
Y1968D03*
Y1874D03*
Y1993D03*
Y1756D03*
Y1731D03*
Y2086D03*
Y2111D03*
Y2204D03*
Y2229D03*
Y2603D03*
X4775Y832D03*
X4965Y960D03*
X4828Y969D03*
X4722Y1003D03*
Y1028D03*
X4725Y956D03*
Y1075D03*
X4828Y944D03*
X4948Y1003D03*
X4828Y1062D03*
X4948Y1028D03*
X4828Y1087D03*
X4775Y1200D03*
X4805Y1280D03*
X4965Y1310D03*
Y1190D03*
X4722Y1240D03*
Y1265D03*
X4725Y1193D03*
X4722Y1311D03*
X4948Y1122D03*
X4828Y1180D03*
X4948Y1240D03*
X4828Y1298D03*
X4948Y1358D03*
Y1147D03*
X4828Y1205D03*
X4948Y1265D03*
X4828Y1323D03*
X4948Y1383D03*
X4775Y1595D03*
Y1445D03*
Y1620D03*
X4965Y1600D03*
Y1575D03*
Y1625D03*
X4722Y1476D03*
Y1501D03*
X4725Y1430D03*
X4828Y1416D03*
X4948Y1476D03*
X4828Y1441D03*
X4948Y1501D03*
X4775Y2005D03*
Y1770D03*
X4965Y1740D03*
X4828Y1756D03*
X4722Y1791D03*
Y1909D03*
X4725Y1744D03*
Y1862D03*
Y1980D03*
X4722Y1816D03*
Y1934D03*
X4828Y1731D03*
X4948Y1791D03*
X4828Y1849D03*
X4948Y1909D03*
X4828Y1968D03*
X4948Y1816D03*
X4828Y1874D03*
X4948Y1934D03*
X4828Y1993D03*
X4948Y2027D03*
X4722D03*
X4948Y2052D03*
X4722D03*
X4828Y2086D03*
Y2111D03*
X4948Y2145D03*
X4722D03*
X4948Y2170D03*
X4722D03*
X4828Y2204D03*
Y2229D03*
X4965Y2100D03*
X4725Y2218D03*
Y2095D03*
X4948Y2263D03*
X4722D03*
X4948Y2288D03*
X4722D03*
X4828Y2603D03*
X4940Y2440D03*
X4920Y2460D03*
Y2420D03*
X4940Y2400D03*
X4920Y2380D03*
X4940Y2360D03*
Y2480D03*
Y2320D03*
X4920Y2340D03*
X4775Y2770D03*
Y3020D03*
Y3170D03*
G54D23*
X1825Y302D03*
X2081Y125D03*
Y302D03*
X2225D03*
X2481Y125D03*
Y302D03*
X2825D03*
X3081Y125D03*
Y302D03*
X3225D03*
X3481Y125D03*
Y302D03*
X3625D03*
X3881Y125D03*
Y302D03*
X4025D03*
X4281Y125D03*
Y302D03*
G54D14*
X155Y1285D03*
X156Y1415D03*
Y1350D03*
X155Y1480D03*
Y1545D03*
X85Y1835D03*
X173Y1845D03*
X85Y1964D03*
X408Y490D03*
X285Y1545D03*
X410Y1870D03*
X321Y1981D03*
X230Y1964D03*
X470Y2805D03*
X575Y2590D03*
X845Y1338D03*
X1078Y1872D03*
X855Y2187D03*
Y2073D03*
X830Y2720D03*
X1135Y1240D03*
X1280Y3805D03*
X1385D03*
X1240Y3730D03*
X1420Y3935D03*
X1280D03*
X1350D03*
X1670Y620D03*
Y820D03*
X1535Y3460D03*
Y3510D03*
Y3260D03*
X1665Y3460D03*
Y3770D03*
Y3690D03*
Y3600D03*
Y3530D03*
X1535Y3690D03*
Y3770D03*
X1490Y3805D03*
X1460Y3560D03*
X1490Y3935D03*
X1750Y1738D03*
Y1940D03*
X1995Y3155D03*
X2160Y3335D03*
X2260Y3485D03*
X2330Y3130D03*
X2946Y988D03*
X3095Y1027D03*
X2980Y3160D03*
X3180D03*
X3140Y3335D03*
X3240Y3485D03*
X3955Y3160D03*
X4120Y3335D03*
X4165Y3160D03*
X4225Y3480D03*
G54D24*
G01X3600Y1970D02*
X3572D01*
X3552Y1950D01*
X3528D01*
X3494Y1984D01*
X3458D01*
X3439Y1965D01*
X1341D01*
X1326Y1950D01*
X1161D01*
X1115Y1996D01*
G01X1892Y1738D02*
X2069Y1914D01*
X3406D01*
X3461Y1859D01*
Y1831D01*
G01X3572Y1775D02*
Y1802D01*
X3618Y1848D01*
Y1872D01*
X3608Y1881D01*
Y1894D01*
X3620Y1906D01*
Y1922D01*
X3608Y1934D01*
Y1950D01*
X3620Y1962D01*
Y1978D01*
X3608Y1990D01*
Y2004D01*
X3620Y2016D01*
Y2034D01*
X3608Y2046D01*
Y2064D01*
X3618Y2074D01*
Y2091D01*
X3580Y2129D01*
X3278Y2431D01*
X3161Y2548D01*
X2086D01*
X1918Y2716D01*
Y2752D01*
G01X3628Y1831D02*
Y1861D01*
X3645Y1879D01*
Y1899D01*
X3636Y1908D01*
Y1922D01*
X3648Y1934D01*
Y1953D01*
X3636Y1965D01*
Y1978D01*
X3648Y1990D01*
Y2006D01*
X3636Y2018D01*
Y2034D01*
X3648Y2046D01*
Y2075D01*
X3618Y2105D01*
X3285Y2438D01*
X3165Y2558D01*
X2090D01*
X1943Y2705D01*
Y2752D01*
G01X3600Y1803D02*
X3629D01*
X3676Y1850D01*
Y1866D01*
X3664Y1878D01*
Y1894D01*
X3674Y1904D01*
Y1980D01*
X3664Y1990D01*
Y2004D01*
X3673Y2013D01*
Y2064D01*
X3645Y2092D01*
X3292Y2445D01*
X3169Y2568D01*
X2094D01*
X1968Y2695D01*
Y2752D01*
G01X1992D02*
Y2684D01*
X2098Y2578D01*
X3173D01*
X3299Y2452D01*
X3704Y2048D01*
Y1878D01*
X3694Y1868D01*
Y1841D01*
X3684Y1831D01*
G01X3656Y1747D02*
Y1774D01*
X3730Y1848D01*
Y1868D01*
X3718Y1880D01*
Y2048D01*
X3306Y2459D01*
X3178Y2588D01*
X2102D01*
X2018Y2673D01*
Y2752D01*
G01X3878Y1691D02*
X3872Y1698D01*
Y1726D01*
X3860Y1738D01*
Y1758D01*
X3872Y1770D01*
Y1782D01*
X3858Y1796D01*
Y1922D01*
X3313Y2467D01*
X3182Y2598D01*
X2106D01*
X2068Y2637D01*
Y2752D01*
G01X3962Y1552D02*
X3936D01*
X3918Y1570D01*
X3896D01*
X3886Y1560D01*
X3870D01*
X3858Y1572D01*
Y1590D01*
X3898Y1630D01*
Y1644D01*
X3886Y1656D01*
Y1672D01*
X3898Y1684D01*
Y1700D01*
X3886Y1712D01*
Y1726D01*
X3898Y1738D01*
Y1756D01*
X3889Y1765D01*
Y1787D01*
X3898Y1796D01*
Y1896D01*
X3555Y2239D01*
X3320Y2474D01*
X3147Y2647D01*
X2408D01*
X2302Y2752D01*
G01X2352D02*
X2448Y2657D01*
X3151D01*
X3327Y2481D01*
X3924Y1884D01*
Y1764D01*
X3914Y1754D01*
Y1740D01*
X3926Y1728D01*
Y1712D01*
X3914Y1700D01*
Y1684D01*
X3926Y1672D01*
Y1656D01*
X3914Y1644D01*
Y1631D01*
X3926Y1619D01*
Y1600D01*
X3906Y1580D01*
X3878D01*
G01X2478Y2752D02*
X2563Y2667D01*
X3155D01*
X3831Y1992D01*
X4008Y1815D01*
Y1682D01*
X3996Y1670D01*
Y1658D01*
X4010Y1644D01*
Y1628D01*
X4000Y1618D01*
Y1590D01*
X3990Y1580D01*
G01X3266Y1691D02*
Y1662D01*
X3896Y1032D01*
Y908D01*
X3912Y892D01*
X3968D01*
X3990Y914D01*
G01X3516Y1775D02*
X3545D01*
X3920Y1400D01*
Y914D01*
G01X3851Y1775D02*
X3844Y1768D01*
Y1737D01*
X3833Y1726D01*
Y1712D01*
X3844Y1701D01*
Y1682D01*
X3833Y1671D01*
Y1656D01*
X3844Y1645D01*
Y1626D01*
X3833Y1615D01*
Y1601D01*
X3843Y1590D01*
Y1571D01*
X3832Y1560D01*
Y1544D01*
X4055Y1321D01*
Y914D01*
G54D15*
X200Y2775D03*
X100Y3015D03*
X200D03*
X300Y2775D03*
Y3015D03*
G54D25*
G01X3489Y1747D02*
X3404D01*
X3385Y1728D01*
X3369D01*
X3358Y1739D01*
X3341D01*
X3330Y1728D01*
X3314D01*
X3302Y1739D01*
X3285D01*
X3274Y1728D01*
X3258D01*
X3239Y1746D01*
X3184D01*
X3136Y1698D01*
X2343D01*
X2005Y1359D01*
Y365D01*
X1855Y215D01*
X1674D01*
X1610Y151D01*
X1575D01*
G01Y177D02*
X1611D01*
X1664Y230D01*
X1850D01*
X1992Y372D01*
Y1365D01*
X2338Y1711D01*
X3129D01*
X3249Y1831D01*
X3405D01*
G01X1575Y125D02*
X1609D01*
X1684Y200D01*
X1860D01*
X2018Y358D01*
Y1354D01*
X2349Y1685D01*
X3141D01*
X3167Y1711D01*
X3218D01*
X3229Y1700D01*
X3246D01*
X3256Y1710D01*
X3274D01*
X3284Y1700D01*
X3302D01*
X3313Y1711D01*
X3330D01*
X3341Y1700D01*
X3358D01*
X3369Y1711D01*
X3385D01*
X3396Y1700D01*
X3413D01*
X3424Y1711D01*
X3481D01*
X3508Y1737D01*
Y1755D01*
X3498Y1764D01*
X3404Y1858D01*
X3377D01*
G54D16*
X100Y2775D03*
G54D17*
X400Y1290D03*
Y1766D03*
G54D18*
X506Y1480D03*
Y1578D03*
X820Y165D03*
X720D03*
X820Y265D03*
X720D03*
X620D03*
X585Y1578D03*
X1020Y165D03*
X920D03*
X1020Y265D03*
X920D03*
X850Y2580D03*
X950D03*
X960Y3115D03*
X1170Y460D03*
X1625Y1325D03*
Y1225D03*
X1545Y2630D03*
X2620Y3650D03*
X2790Y2970D03*
X2890D03*
X3600Y3650D03*
X4090Y2550D03*
X3870D03*
X3880Y2980D03*
X3980D03*
X4300Y2125D03*
Y2325D03*
Y2225D03*
Y2425D03*
X4470Y3650D03*
G54D19*
X463Y3120D03*
M02*
