G04 ================== begin FILE IDENTIFICATION RECORD ==================*
G04 Layout Name:  M:/QB3_V12/QB3_V12.brd*
G04 Film Name:    L12-Bottom*
G04 File Format:  Gerber RS274X*
G04 File Origin:  15.7-p007*
G04 Origin Date:  Wed Apr 18 17:00:51 2007*
G04 *
G04 Layer:  VIA CLASS/BOTTOM*
G04 Layer:  PIN/BOTTOM*
G04 Layer:  ETCH/BOTTOM*
G04 *
G04 Offset:    (0.00 0.00)*
G04 Mirror:    No*
G04 Mode:      Positive*
G04 Rotation:  0*
G04 FullContactRelief:  No*
G04 UndefLineWidth:     0.00*
G04 ================== end FILE IDENTIFICATION RECORD ====================*
%FSLAX53Y53*MOIN*%
%IR0*IPPOS*OFA0.00000B0.00000*MIA0B0*SFA1.00000B1.00000*%
%ADD14C,.02*%
%ADD37R,.047X.106*%
%ADD12C,.043*%
%ADD38C,.026*%
%ADD21O,.055X.168*%
%ADD11C,.035*%
%ADD20O,.168X.055*%
%ADD19C,.063*%
%AMMACRO33*
21,1,.024,.024,0.0,0.0,45.*%
%ADD33MACRO33*%
%ADD16C,.049*%
%AMMACRO31*
21,1,.035,.035,0.0,0.0,45.*%
%ADD31MACRO31*%
%ADD13R,.043X.043*%
%ADD27C,.069*%
%ADD15R,.035X.035*%
%ADD22R,.063X.063*%
%ADD17R,.049X.049*%
%ADD26R,.069X.069*%
%ADD24R,.04X.025*%
%ADD32R,.025X.04*%
%ADD18C,.12*%
%ADD23R,.04X.018*%
%ADD35R,.018X.04*%
%ADD10C,.25*%
%ADD34R,.071X.047*%
%ADD25R,.047X.071*%
%ADD36R,.024X.059*%
%ADD28R,.04134X.02362*%
%ADD29R,.03937X.01181*%
%ADD30R,.03937X.01575*%
%ADD39C,.01*%
%ADD40C,.03*%
%ADD41C,.012*%
%ADD42C,.05*%
%ADD43C,.015*%
%ADD44C,.025*%
%ADD45C,.004*%
%ADD46C,.005*%
%ADD47C,.008*%
%ADD48C,.03404*%
%ADD55C,.07104*%
%ADD51C,.08004*%
%ADD50C,.09304*%
%ADD49C,.04904*%
%ADD53O,.08502X.19802*%
%ADD57C,.07904*%
%ADD56O,.19804X.08504*%
%ADD54O,.08504X.19804*%
%ADD52R,.09304X.09304*%
%ADD58R,.07904X.07904*%
G75*
%LPD*%
G75*
G36*
G01X40Y2030D02*
Y2400D01*
X60Y2420D01*
X400D01*
X420Y2400D01*
Y2030D01*
X400Y2010D01*
X60D01*
X40Y2030D01*
G37*
G36*
G01X4384Y3050D02*
X4383Y3051D01*
G03X4357I-13J-11D01*
G01X4356Y3050D01*
X4284D01*
X4283Y3051D01*
G03X4257I-13J-11D01*
G01X4256Y3050D01*
X1845D01*
X1800Y3005D01*
Y2550D01*
X1770Y2520D01*
X50D01*
X20Y2550D01*
Y2562D01*
X20Y3930D01*
X70Y3980D01*
X4935D01*
X4980Y3935D01*
Y3090D01*
X4940Y3050D01*
X4384D01*
G37*
G36*
G01X2645Y535D02*
X2635Y525D01*
X2525D01*
X2515Y535D01*
Y1600D01*
X2525Y1610D01*
X2635D01*
X2645Y1600D01*
Y535D01*
G37*
G36*
G01X2755Y1600D02*
Y535D01*
X2745Y525D01*
X2675D01*
X2665Y535D01*
Y1600D01*
X2675Y1610D01*
X2745D01*
X2755Y1600D01*
G37*
G36*
G01X3480Y1555D02*
X3442Y1592D01*
X3518Y1668D01*
X3519D01*
X3573Y1722D01*
X3598D01*
X3622Y1698D01*
X3480Y1555D01*
G37*
G36*
G01X3570Y1480D02*
X3500Y1550D01*
X3635Y1685D01*
X3705Y1615D01*
X3570Y1480D01*
G37*
G36*
G01X3653Y1468D02*
X3644Y1476D01*
X3624D01*
X3605Y1495D01*
X3715Y1605D01*
X3755Y1565D01*
X3668Y1478D01*
X3667D01*
X3657Y1468D01*
X3653D01*
G37*
G36*
G01X4760Y1640D02*
X4840D01*
Y1560D01*
X4760D01*
Y1640D01*
G37*
G36*
G01X4980Y1560D02*
X4900D01*
Y1640D01*
X4980D01*
Y1560D01*
G37*
%LPC*%
G75*
G36*
G01X3647Y3503D02*
X3553D01*
Y3510D01*
X3546D01*
Y3509D01*
X3454D01*
Y3577D01*
X3546D01*
Y3576D01*
X3553D01*
Y3597D01*
X3647D01*
Y3503D01*
G37*
G36*
G01X1378Y3872D02*
X1322D01*
Y3928D01*
G03X1326Y3932I-1J4D01*
G02X1374I24J3D01*
G03X1378Y3928I4J0D01*
G01Y3872D01*
G37*
G36*
G01X1514Y3808D02*
G02X1466I-24J-3D01*
G03X1462Y3812I-4J0D01*
G01Y3868D01*
X1518D01*
Y3812D01*
G03X1514Y3808I1J-4D01*
G37*
G36*
G01X1409D02*
G02X1361I-24J-3D01*
G03X1357Y3812I-4J0D01*
G01X1322D01*
Y3868D01*
X1378D01*
Y3863D01*
X1392D01*
Y3868D01*
X1448D01*
Y3812D01*
X1413D01*
G03X1409Y3808I0J-4D01*
G37*
G36*
G01X1304D02*
G02X1256I-24J-3D01*
G03X1252Y3812I-4J0D01*
G01Y3868D01*
X1308D01*
Y3812D01*
G03X1304Y3808I1J-4D01*
G37*
G36*
G01X1598Y3742D02*
X1542D01*
G03X1538Y3746I-4J-1D01*
G02Y3794I-3J24D01*
G03X1542Y3798I0J4D01*
G01X1598D01*
Y3742D01*
G37*
G36*
G01Y3662D02*
X1542D01*
G03X1538Y3666I-4J-1D01*
G02Y3714I-3J24D01*
G03X1542Y3718I0J4D01*
G01X1598D01*
Y3662D01*
G37*
G36*
G01Y3232D02*
X1542D01*
G03X1538Y3236I-4J-1D01*
G02Y3284I-3J24D01*
G03X1542Y3288I0J4D01*
G01X1579D01*
Y3432D01*
X1542D01*
G03X1538Y3436I-4J-1D01*
G02X1523Y3481I-3J24D01*
G03Y3489I-2J4D01*
G02X1538Y3534I12J21D01*
G01X1539Y3534D01*
X1542Y3537D01*
X1542Y3558D01*
X1549D01*
Y3572D01*
X1542D01*
Y3628D01*
X1598D01*
Y3572D01*
X1591D01*
Y3558D01*
X1598D01*
Y3532D01*
X1621Y3509D01*
Y3488D01*
X1665D01*
G02Y3432I0J-28D01*
G01X1621D01*
Y3299D01*
X1632Y3288D01*
X1658D01*
Y3232D01*
X1602D01*
Y3258D01*
X1601Y3259D01*
G03X1598Y3258I-1J-1D01*
G01Y3232D01*
G37*
G36*
G01X3964Y3137D02*
G02Y3183I-9J23D01*
G01X3965Y3183D01*
X4016D01*
X4097Y3264D01*
Y3325D01*
X4097Y3326D01*
G02X4143I23J9D01*
G01X4143Y3325D01*
Y3246D01*
X4034Y3137D01*
X3965D01*
X3964Y3137D01*
G37*
G36*
G01X3203Y3151D02*
G02X3171Y3183I-23J9D01*
G01X3217Y3229D01*
Y3475D01*
X3217Y3476D01*
G02X3263I23J9D01*
G01X3263Y3475D01*
Y3211D01*
X3203Y3151D01*
G37*
G36*
G01X2989Y3137D02*
G02Y3183I-9J23D01*
G01X2990Y3183D01*
X3061D01*
X3117Y3239D01*
Y3325D01*
X3117Y3326D01*
G02X3163I23J9D01*
G01X3163Y3325D01*
Y3221D01*
X3079Y3137D01*
X2990D01*
X2989Y3137D01*
G37*
G36*
G01X2004Y3132D02*
G02Y3178I-9J23D01*
G01X2005Y3178D01*
X2056D01*
X2137Y3259D01*
Y3325D01*
X2137Y3326D01*
G02X2183I23J9D01*
G01X2183Y3325D01*
Y3241D01*
X2074Y3132D01*
X2005D01*
X2004Y3132D01*
G37*
G36*
G01X2339Y3153D02*
G02X2307Y3121I-9J-23D01*
G01X2237Y3191D01*
Y3475D01*
X2237Y3476D01*
G02X2283I23J9D01*
G01X2283Y3475D01*
Y3209D01*
X2339Y3153D01*
G37*
G36*
G01X340Y2775D02*
G02X260I-40J0D01*
G01Y2828D01*
X233Y2855D01*
X138D01*
X60Y2933D01*
Y3015D01*
G02X140I40J0D01*
G01Y2967D01*
X172Y2935D01*
X267D01*
X340Y2862D01*
Y2775D01*
G37*
G36*
G01X1534Y2675D02*
G02X1499Y2635I11J-45D01*
G03X1492Y2638I-4J0D01*
G01X1441Y2587D01*
X1059D01*
X962Y2684D01*
Y2888D01*
G02X1018I28J0D01*
G01Y2706D01*
X1081Y2643D01*
X1419D01*
X1498Y2722D01*
Y2777D01*
X1592D01*
Y2683D01*
X1537D01*
X1531Y2677D01*
X1533Y2675D01*
X1534Y2675D01*
G37*
G36*
G01X603Y2618D02*
G02X547Y2562I-28J-28D01*
G01X430Y2678D01*
Y2805D01*
G02X510I40J0D01*
G01Y2712D01*
X603Y2618D01*
G37*
G36*
G01X4188Y3151D02*
G02X4156Y3183I-23J9D01*
G01X4202Y3229D01*
Y3470D01*
X4202Y3471D01*
G02X4248I23J9D01*
G01X4248Y3470D01*
Y3211D01*
X4188Y3151D01*
G37*
G36*
G01X3576Y3690D02*
G02X3562Y3624I24J-40D01*
G01X3561Y3624D01*
X3546D01*
Y3623D01*
X3454D01*
Y3691D01*
X3546D01*
Y3690D01*
X3575D01*
X3576Y3690D01*
G37*
G36*
G01X1265Y2650D02*
X1180D01*
X1165Y2665D01*
Y2775D01*
X1210Y2820D01*
Y2960D01*
X1115Y3055D01*
X1001D01*
Y2974D01*
X933D01*
Y3055D01*
X887D01*
Y2974D01*
X819D01*
Y3055D01*
X810D01*
X795Y3070D01*
Y3375D01*
X810Y3390D01*
X1460D01*
X1475Y3375D01*
Y3130D01*
X1460Y3115D01*
X1335D01*
X1290Y3070D01*
Y2790D01*
X1280Y2780D01*
Y2665D01*
X1265Y2650D01*
G37*
G54D48*
X1165Y3760D03*
X1115D03*
X1065D03*
X1015D03*
X965D03*
X1165Y3710D03*
X1115D03*
X1065D03*
X1015D03*
X965D03*
X1165Y3660D03*
X1115D03*
X1065D03*
X1015D03*
X965D03*
G54D55*
X4880Y3184D03*
G54D51*
X4800Y3600D03*
X200Y3590D03*
G54D50*
X2620Y3650D03*
X850Y2580D03*
X4470Y3650D03*
G54D49*
X1240Y3730D03*
X1460Y3560D03*
X830Y2720D03*
G54D53*
X589Y3305D03*
G54D57*
X300Y3015D03*
X200D03*
Y2775D03*
G54D56*
X463Y3120D03*
G54D54*
X345Y3305D03*
G54D52*
X2620Y3550D03*
X4470D03*
G54D58*
X100Y2775D03*
%LPD*%
G75*
G36*
G01X1185Y2665D02*
X1180Y2670D01*
Y2770D01*
X1225Y2815D01*
Y2970D01*
X1125Y3070D01*
X1000D01*
Y3090D01*
X1000Y3091D01*
G03X933Y3077I-40J24D01*
G02X930Y3070I-2J-3D01*
G01X820D01*
X810Y3080D01*
Y3365D01*
X820Y3375D01*
X1450D01*
X1460Y3365D01*
Y3140D01*
X1450Y3130D01*
X1330D01*
X1275Y3075D01*
Y2795D01*
X1265Y2785D01*
Y2670D01*
X1260Y2665D01*
X1185D01*
G37*
G54D10*
X200Y200D03*
Y3800D03*
X4800Y200D03*
X4775Y600D03*
Y3400D03*
X4800Y3800D03*
G54D20*
X463Y3120D03*
G54D11*
G01X853Y3020D02*
Y3108D01*
G01D02*
X860Y3115D01*
G01X967Y3020D02*
Y3108D01*
X960Y3115D01*
G01X3500Y3543D02*
X3593D01*
X3600Y3550D01*
G01X3500Y3657D02*
X3593D01*
X3600Y3650D01*
X200Y400D03*
X155Y1285D03*
X156Y1415D03*
Y1350D03*
X155Y1480D03*
Y1545D03*
X85Y1835D03*
X173Y1845D03*
X85Y1964D03*
X200Y3590D03*
X408Y490D03*
X285Y1545D03*
X410Y1870D03*
X321Y1981D03*
X230Y1964D03*
X470Y2805D03*
X575Y2590D03*
X845Y1338D03*
X1078Y1872D03*
X855Y2187D03*
Y2073D03*
X830Y2720D03*
X1135Y1240D03*
X1280Y3805D03*
X1385D03*
X1240Y3730D03*
X1420Y3935D03*
X1280D03*
X1350D03*
X1670Y620D03*
Y820D03*
X1535Y3460D03*
Y3510D03*
Y3260D03*
X1665Y3460D03*
Y3770D03*
Y3690D03*
Y3600D03*
Y3530D03*
X1535Y3690D03*
Y3770D03*
X1490Y3805D03*
X1460Y3560D03*
X1490Y3935D03*
X1750Y1738D03*
Y1940D03*
X1995Y3155D03*
X2160Y3335D03*
X2260Y3485D03*
X2330Y3130D03*
X2946Y988D03*
X3095Y1027D03*
X2980Y3160D03*
X3180D03*
X3140Y3335D03*
X3240Y3485D03*
X3955Y3160D03*
X4120Y3335D03*
X4165Y3160D03*
X4225Y3480D03*
X4800Y400D03*
Y3600D03*
G54D30*
X2540Y721D03*
Y579D03*
X2480D03*
Y721D03*
X2540Y789D03*
X2480D03*
X2540Y999D03*
X2480D03*
X2540Y931D03*
X2480D03*
X2540Y1141D03*
X2480D03*
X2540Y1351D03*
Y1209D03*
X2480D03*
Y1351D03*
X2540Y1558D03*
Y1417D03*
X2480D03*
Y1558D03*
G54D21*
X345Y3305D03*
X589D03*
G54D12*
X66Y776D03*
X145D03*
X66Y697D03*
X145D03*
X66Y619D03*
X145D03*
X66Y540D03*
Y855D03*
X145D03*
X4665Y2390D03*
X4775D03*
G54D40*
G01X4708D02*
X4665D01*
G01X4775D02*
X4822D01*
G54D22*
X620Y165D03*
X585Y1480D03*
X1070Y460D03*
X860Y3115D03*
X1545Y2730D03*
X2620Y3550D03*
X3600D03*
X4090Y2650D03*
X3870D03*
X4470Y3550D03*
G54D13*
X145Y540D03*
G54D31*
X3171Y1391D03*
X3129Y1349D03*
X3221Y1341D03*
X3179Y1299D03*
X3331Y1231D03*
X3289Y1189D03*
X3381Y1181D03*
X3339Y1139D03*
G54D41*
G01X1570Y3530D02*
X1600Y3500D01*
Y3290D01*
X1630Y3260D01*
G01X1570Y3530D02*
X1565D01*
X1545Y3510D01*
X1535D01*
G01X1570Y3530D02*
Y3600D01*
G01X3081Y302D02*
X3179Y400D01*
X3475D01*
X3500Y425D01*
Y530D01*
G01X3535D02*
Y356D01*
X3481Y302D01*
G01X3500Y590D02*
Y630D01*
G01X4025Y302D02*
X3973Y354D01*
X3671D01*
X3600Y425D01*
Y530D01*
G01X3565D02*
Y362D01*
X3625Y302D01*
G01X3770Y590D02*
X3740D01*
G01X3770D02*
X3840D01*
G01X3565D02*
Y630D01*
G01X3535Y590D02*
Y630D01*
G01X3600Y590D02*
Y630D01*
G01X3767Y1412D02*
X3766D01*
X3739Y1385D01*
G01X3876Y590D02*
X3840D01*
G01X3945D02*
X3910D01*
G01X4015D02*
X3980D01*
G01X4085D02*
X4050D01*
G01X4120D02*
X4085D01*
G01X4050D02*
X4015D01*
G01X3980D02*
X3945D01*
G01X3910D02*
X3876D01*
G01X4190Y500D02*
Y530D01*
G01X4183Y668D02*
Y625D01*
G01X4333Y668D02*
Y713D01*
G01X4190Y530D02*
X4260D01*
G54D23*
X665Y475D03*
Y445D03*
X605D03*
Y475D03*
X665Y640D03*
Y610D03*
X605D03*
Y640D03*
G54D32*
X3500Y530D03*
Y590D03*
X3600Y530D03*
Y590D03*
G54D14*
G01X4875Y895D02*
X4805D01*
X4775Y865D01*
Y832D01*
G01X4875Y960D02*
Y895D01*
G01X4935D02*
Y960D01*
G01D02*
X4965D01*
G01X4935Y1310D02*
X4965D01*
G01X4935Y1190D02*
X4965D01*
G01X4935Y1740D02*
X4965D01*
G01X4825Y2290D02*
Y2387D01*
X4822Y2390D01*
G01X4935Y2100D02*
X4965D01*
G01X4825Y2490D02*
Y2393D01*
X4822Y2390D01*
X108Y1008D03*
X150Y958D03*
Y1108D03*
Y1182D03*
X80Y2140D03*
Y2270D03*
Y2210D03*
Y2400D03*
Y2330D03*
X160Y2400D03*
X280Y490D03*
X442Y598D03*
X482Y625D03*
X275Y655D03*
X462Y676D03*
X420Y682D03*
X455Y555D03*
X275Y590D03*
Y555D03*
Y620D03*
X310Y1080D03*
X280Y850D03*
Y1045D03*
X390Y2140D03*
Y2270D03*
Y2210D03*
Y2400D03*
X240D03*
X310D03*
X390Y2330D03*
X695Y510D03*
Y445D03*
X795Y440D03*
X556Y410D03*
X541Y650D03*
X535Y690D03*
X605Y783D03*
Y530D03*
X661Y780D03*
X790Y590D03*
X615Y979D03*
X629Y1109D03*
X670Y1110D03*
X566Y1109D03*
X535Y1000D03*
X565D03*
X724Y1020D03*
X756Y1305D03*
X785Y1735D03*
X720Y2275D03*
Y2310D03*
Y2340D03*
Y2375D03*
X705Y2860D03*
Y2825D03*
Y2895D03*
X800Y2885D03*
Y2820D03*
X685Y3195D03*
X775D03*
X705Y2995D03*
Y2960D03*
Y3030D03*
X680Y2930D03*
X645D03*
X610D03*
X800Y2950D03*
X635Y3485D03*
X670D03*
X705D03*
X740D03*
X635Y3450D03*
X670D03*
X705D03*
X740D03*
X810Y3415D03*
X775D03*
X635D03*
X670D03*
X705D03*
X740D03*
X685Y3265D03*
Y3230D03*
Y3300D03*
X775Y3230D03*
Y3265D03*
X810Y3520D03*
X775D03*
X635D03*
X670D03*
X705D03*
X740D03*
X1020Y625D03*
X1110Y775D03*
X994Y614D03*
X850Y790D03*
X977Y777D03*
X880Y825D03*
X870Y1052D03*
X970Y914D03*
X973Y1072D03*
X876Y1240D03*
X1092Y1135D03*
X955Y1230D03*
X994Y1135D03*
X992Y1610D03*
X955Y1605D03*
X1074Y1996D03*
X915Y1735D03*
X1110Y1855D03*
X1042Y2299D03*
X1082Y2260D03*
X1042D03*
X1002D03*
X1096Y2206D03*
Y2166D03*
X1057Y2166D03*
X1017D03*
X1096Y2126D03*
X1017D03*
X1096Y2086D03*
X1057D03*
Y2126D03*
X1017Y2206D03*
X1002Y2299D03*
X890Y2140D03*
X860D03*
X920D03*
X830D03*
X920Y2110D03*
X890D03*
X860D03*
X920Y2080D03*
X890D03*
X860Y2245D03*
X950Y2150D03*
X1056Y2206D03*
X1096Y2324D03*
X1042Y2338D03*
X1002D03*
X890Y2344D03*
X950Y2405D03*
X1095Y2875D03*
X1065D03*
X1095Y2815D03*
X1065D03*
Y2905D03*
X1095D03*
X1065Y2845D03*
X1095D03*
Y2785D03*
X1065D03*
X990Y2888D03*
X1065Y2965D03*
X1095D03*
Y2935D03*
X1065D03*
X965Y3210D03*
X1015D03*
X1065D03*
X965Y3510D03*
Y3460D03*
Y3410D03*
X1015D03*
Y3460D03*
Y3510D03*
X1065Y3410D03*
Y3460D03*
Y3510D03*
X880Y3415D03*
X845D03*
X965Y3360D03*
Y3310D03*
Y3260D03*
X1015Y3360D03*
Y3310D03*
Y3260D03*
X1065D03*
Y3310D03*
Y3360D03*
X965Y3610D03*
Y3560D03*
X1015D03*
Y3610D03*
X1065Y3560D03*
Y3610D03*
X880Y3520D03*
X845D03*
X965Y3760D03*
Y3710D03*
Y3660D03*
X1015Y3760D03*
Y3710D03*
Y3660D03*
X1065Y3760D03*
Y3710D03*
Y3660D03*
X1254Y100D03*
X1255Y330D03*
X1320Y625D03*
X1200D03*
X1132Y532D03*
X1260Y625D03*
X1140D03*
X1350Y935D03*
X1191Y1135D03*
X1230D03*
X1269D03*
X1348D03*
X1210Y1220D03*
X1171D03*
X1282Y1610D03*
X1245Y1605D03*
X1362Y1994D03*
X1253Y1972D03*
X1175Y1735D03*
X1305D03*
X1208Y1825D03*
X1235Y1994D03*
X1195Y1996D03*
X1272Y1994D03*
X1300Y1972D03*
X1115Y1996D03*
X1155D03*
X1253Y2166D03*
X1175Y2126D03*
X1214Y2126D03*
X1135Y2166D03*
Y2126D03*
Y2086D03*
X1293Y2246D03*
X1214D03*
Y2206D03*
Y2166D03*
X1175D03*
Y2086D03*
X1253Y2286D03*
Y2246D03*
X1175D03*
Y2206D03*
X1293Y2128D03*
Y2286D03*
Y2206D03*
X1360Y2212D03*
X1293Y2166D03*
X1122Y2299D03*
X1135Y2246D03*
X1253Y2206D03*
X1214Y2284D03*
X1122Y2378D03*
X1135Y2324D03*
X1175D03*
X1253D03*
X1293D03*
X1365Y2780D03*
X1185Y2875D03*
X1125D03*
X1155D03*
X1185Y2815D03*
X1125D03*
X1155D03*
Y2905D03*
X1125D03*
X1185D03*
X1155Y2845D03*
X1125D03*
X1185D03*
X1125Y2785D03*
X1155D03*
X1365Y2755D03*
Y2730D03*
Y2705D03*
Y2680D03*
X1345Y2670D03*
X1320D03*
X1300Y2680D03*
Y2705D03*
Y2730D03*
Y2755D03*
Y2780D03*
X1200Y2675D03*
Y2700D03*
Y2725D03*
Y2750D03*
X1225Y2760D03*
X1255D03*
X1185Y2965D03*
X1155D03*
X1125D03*
X1185Y2935D03*
X1125D03*
X1155D03*
X1115Y3210D03*
X1165D03*
X1215D03*
X1265D03*
X1315D03*
X1365D03*
X1265Y3090D03*
Y3065D03*
Y3040D03*
Y3015D03*
X1205Y3090D03*
X1250Y2990D03*
X1225D03*
X1235Y3090D03*
X1205Y3065D03*
Y3040D03*
Y3015D03*
X1115Y3410D03*
Y3460D03*
Y3510D03*
X1165Y3410D03*
Y3460D03*
Y3510D03*
X1215Y3410D03*
Y3460D03*
Y3510D03*
X1265Y3410D03*
Y3460D03*
Y3510D03*
X1315Y3410D03*
Y3460D03*
Y3510D03*
X1115Y3360D03*
Y3310D03*
Y3260D03*
X1165D03*
Y3310D03*
Y3360D03*
X1215D03*
Y3310D03*
Y3260D03*
X1265D03*
Y3310D03*
Y3360D03*
X1315D03*
Y3310D03*
Y3260D03*
X1365D03*
Y3310D03*
Y3360D03*
X1115Y3560D03*
Y3610D03*
X1165Y3560D03*
Y3610D03*
X1215Y3560D03*
X1115Y3760D03*
Y3710D03*
X1165Y3760D03*
Y3710D03*
Y3660D03*
X1115D03*
X1575Y151D03*
Y177D03*
Y125D03*
Y100D03*
Y202D03*
Y330D03*
Y305D03*
X1576Y228D03*
Y253D03*
X1490Y796D03*
Y678D03*
X1491Y639D03*
X1491Y855D03*
X1490Y1072D03*
X1576Y1092D03*
X1575Y914D03*
X1490Y934D03*
X1695Y1270D03*
X1427Y1135D03*
X1435Y1388D03*
X1505Y1485D03*
X1558Y2002D03*
X1500Y1854D03*
X1558Y2308D03*
Y2282D03*
X1562Y2230D03*
X1558Y2178D03*
Y2027D03*
Y2052D03*
Y2078D03*
Y2102D03*
Y2128D03*
Y2152D03*
X1420Y2212D03*
Y2278D03*
X1558Y2458D03*
Y2432D03*
Y2408D03*
Y2382D03*
Y2358D03*
Y2332D03*
X1415Y3210D03*
Y3260D03*
Y3310D03*
X1850Y778D03*
X1825Y804D03*
Y753D03*
Y651D03*
X1850Y676D03*
Y727D03*
X1825Y702D03*
X1822Y983D03*
X1850Y830D03*
Y958D03*
X1725Y1075D03*
X1824Y1034D03*
X1824Y1111D03*
X1825Y881D03*
Y932D03*
X1850Y906D03*
X1852Y1086D03*
X1850Y1290D03*
X1825Y1214D03*
Y1367D03*
X1735Y1188D03*
X1850Y1342D03*
X1825Y1265D03*
X1850Y1393D03*
X1825Y1316D03*
X1841Y1162D03*
X1862Y1239D03*
X1725Y1475D03*
X1825Y1418D03*
Y1469D03*
X1850Y1444D03*
X1943Y1738D03*
X1918D03*
X1892D03*
X1992D03*
X1968D03*
X1845Y1755D03*
X1916Y1985D03*
X1891Y1984D03*
X1875Y1840D03*
X1810Y2258D03*
X1945Y2215D03*
X1820D03*
X1916Y2505D03*
X1825Y2475D03*
X1885Y2505D03*
X1892Y2752D03*
X1918D03*
X1943D03*
X1968D03*
X1992D03*
X1790Y2790D03*
X1845Y2740D03*
X1790Y2760D03*
Y2730D03*
Y2700D03*
Y2670D03*
X1845Y2620D03*
X1820Y3185D03*
X1860D03*
X1900D03*
X1940D03*
Y3345D03*
X1980Y3305D03*
X1940D03*
Y3265D03*
Y3225D03*
X1900D03*
Y3265D03*
Y3305D03*
Y3345D03*
X1860Y3225D03*
Y3265D03*
Y3305D03*
Y3345D03*
X1820Y3305D03*
Y3345D03*
Y3385D03*
Y3425D03*
Y3225D03*
Y3265D03*
X1940Y3385D03*
X1900D03*
X1860D03*
X1900Y3425D03*
X1860D03*
X1940Y3735D03*
X1975D03*
X2010D03*
X2137Y804D03*
X2307Y702D03*
X2172Y651D03*
X2266Y676D03*
X2280Y727D03*
X2172Y753D03*
X2266Y778D03*
X2288Y1086D03*
X2265Y855D03*
Y930D03*
X2170Y830D03*
X2155Y1005D03*
X2288Y1009D03*
X2260Y1040D03*
X2265Y960D03*
X2180Y906D03*
X2277Y1162D03*
X2155Y1130D03*
X2125Y1190D03*
X2165Y1265D03*
X2125Y1340D03*
X2262Y1342D03*
X2263Y1188D03*
X2125Y1290D03*
X2145Y1389D03*
X2295Y1214D03*
Y1316D03*
Y1367D03*
X2265Y1239D03*
Y1465D03*
X2280Y1418D03*
X2295Y1444D03*
X2312Y1738D03*
X2068D03*
X2042D03*
X2018D03*
X2265Y1750D03*
X2190D03*
X2115D03*
X2044Y1985D03*
X2223D03*
X2147D03*
X2295Y1840D03*
X2085D03*
X2070Y1985D03*
X2300D03*
X2190Y1870D03*
X2080Y2050D03*
X2147Y2505D03*
X2044D03*
X2300Y2505D03*
X2070Y2505D03*
X2018Y2752D03*
X2068D03*
X2302D03*
X2255Y2740D03*
X2185D03*
X2115D03*
X2255Y2620D03*
X2115D03*
X2185D03*
X2055Y3305D03*
X2020D03*
X2095Y3710D03*
X2060D03*
X2130D03*
X2215Y3735D03*
X2180D03*
X2250D03*
X2130Y3685D03*
X2060D03*
X2095D03*
Y3820D03*
X2060D03*
X2130D03*
X2575Y155D03*
X2438Y662D03*
Y798D03*
Y712D03*
Y688D03*
Y638D03*
Y562D03*
Y612D03*
Y738D03*
X2540Y755D03*
X2570D03*
X2600D03*
X2570Y545D03*
X2600D03*
X2540D03*
X2438Y588D03*
Y772D03*
Y898D03*
Y1058D03*
X2322Y983D03*
X2438Y948D03*
Y922D03*
Y1032D03*
X2600Y965D03*
X2540D03*
X2570D03*
X2438Y1008D03*
Y982D03*
Y1108D03*
Y822D03*
Y848D03*
Y872D03*
Y1082D03*
Y1158D03*
Y1193D03*
Y1132D03*
Y1268D03*
X2480Y1380D03*
X2438Y1400D03*
Y1342D03*
Y1218D03*
X2540Y1385D03*
X2570D03*
X2600D03*
X2540Y1175D03*
X2570D03*
X2600D03*
X2438Y1292D03*
Y1318D03*
Y1242D03*
Y1475D03*
Y1425D03*
Y1525D03*
Y1575D03*
Y1550D03*
Y1500D03*
X2540Y1590D03*
X2570D03*
X2600D03*
X2438Y1450D03*
X2488Y1738D03*
X2462D03*
X2438D03*
X2412D03*
X2388D03*
X2363D03*
X2338D03*
X2535Y1750D03*
X2326Y1985D03*
X2454D03*
X2505Y1840D03*
X2479Y1984D03*
X2560Y2232D03*
X2420Y2280D03*
X2562Y2053D03*
X2561Y2079D03*
X2562Y2283D03*
X2420Y2020D03*
Y2085D03*
Y2150D03*
X2561Y2181D03*
X2454Y2506D03*
X2326Y2505D03*
X2561Y2411D03*
X2420Y2410D03*
X2479Y2505D03*
X2352Y2752D03*
X2378D03*
X2402D03*
X2428D03*
X2452D03*
X2478D03*
X2525Y2740D03*
Y2620D03*
X2415Y3690D03*
X2380D03*
X2450D03*
X2470Y3725D03*
Y3760D03*
Y3795D03*
X2360Y3760D03*
Y3795D03*
Y3725D03*
X2415Y3855D03*
X2380D03*
X2450D03*
X2470Y3830D03*
X2360D03*
X2778Y772D03*
Y562D03*
Y588D03*
Y612D03*
Y638D03*
Y738D03*
Y688D03*
Y712D03*
X2680Y755D03*
X2710D03*
X2740D03*
X2680Y545D03*
X2710D03*
X2740D03*
X2630Y755D03*
Y545D03*
X2778Y798D03*
Y1082D03*
Y1058D03*
Y1008D03*
Y1108D03*
X2680Y965D03*
X2710D03*
X2740D03*
X2630D03*
X2778Y898D03*
Y872D03*
Y848D03*
Y822D03*
Y1158D03*
Y1132D03*
Y1342D03*
Y1318D03*
Y1242D03*
Y1218D03*
Y1193D03*
X2680Y1385D03*
X2710D03*
X2740D03*
X2680Y1175D03*
X2710D03*
X2740D03*
X2630Y1385D03*
Y1175D03*
X2778Y1475D03*
Y1525D03*
X2680Y1590D03*
X2710D03*
X2740D03*
X2630D03*
X2812Y2058D03*
Y2033D03*
X2800Y2260D03*
X2660Y2258D03*
X2812Y2208D03*
Y2312D03*
Y2158D03*
Y2132D03*
Y2182D03*
X2815Y2490D03*
X2813Y2463D03*
X2812Y2388D03*
Y2363D03*
Y2338D03*
Y2438D03*
X2800Y3185D03*
X2880D03*
X2840D03*
X2800Y3305D03*
Y3345D03*
Y3385D03*
Y3425D03*
Y3225D03*
Y3265D03*
X2840Y3345D03*
Y3305D03*
Y3265D03*
Y3225D03*
X2880Y3345D03*
Y3305D03*
Y3265D03*
Y3225D03*
X2945Y1055D03*
X3155Y1322D03*
X3198Y1365D03*
X3182Y1608D03*
X3155Y1636D03*
X3127Y1608D03*
X3182Y1552D03*
X3155Y1524D03*
X3099Y1580D03*
X3182Y1664D03*
X3210Y1636D03*
Y1691D03*
Y1580D03*
X2945Y2105D03*
X2946Y2430D03*
X2920Y3185D03*
X2960Y3305D03*
X2920Y3225D03*
Y3265D03*
Y3305D03*
Y3345D03*
X3035Y3305D03*
X3000D03*
X2955Y3735D03*
X2920D03*
X2990D03*
X3075Y3685D03*
X3040D03*
X3110D03*
X3160Y3735D03*
X3195D03*
X3110Y3710D03*
X3040D03*
X3075D03*
X3110Y3820D03*
X3040D03*
X3075D03*
X3380Y455D03*
X3462Y480D03*
X3288D03*
X3500Y630D03*
X3380D03*
X3325Y1010D03*
X3295D03*
X3265D03*
X3245Y985D03*
Y955D03*
Y925D03*
X3500Y865D03*
X3516Y1385D03*
X3322Y1413D03*
X3294Y1385D03*
X3377Y1302D03*
X3433Y1246D03*
X3405Y1329D03*
Y1274D03*
X3349Y1385D03*
X3489Y1413D03*
Y1357D03*
X3433Y1302D03*
X3461Y1274D03*
X3489Y1246D03*
X3315Y1162D03*
X3377Y1413D03*
X3433Y1357D03*
X3489Y1302D03*
X3461Y1385D03*
X3516Y1329D03*
X3461D03*
X3358Y1205D03*
X3461Y1218D03*
X3516Y1274D03*
Y1719D03*
Y1441D03*
X3433Y1524D03*
X3405Y1552D03*
X3322Y1691D03*
X3266D03*
X3238Y1719D03*
X3405Y1496D03*
X3294Y1441D03*
X3238Y1496D03*
X3349Y1441D03*
X3238Y1552D03*
X3433Y1469D03*
X3377D03*
X3516Y1552D03*
X3294Y1664D03*
X3266Y1636D03*
X3322Y1580D03*
X3266Y1524D03*
X3322Y1469D03*
X3461Y1664D03*
X3266Y1580D03*
X3489Y1636D03*
X3461Y1608D03*
Y1552D03*
X3489Y1524D03*
X3294Y1608D03*
Y1552D03*
X3405Y1719D03*
X3349Y1664D03*
X3322Y1636D03*
X3349Y1608D03*
X3322Y1524D03*
X3349Y1496D03*
X3405Y1441D03*
X3294Y1719D03*
X3433Y1636D03*
X3377D03*
Y1580D03*
X3238Y1608D03*
X3349Y1719D03*
X3405Y1664D03*
Y1608D03*
X3238Y1664D03*
X3377Y1691D03*
X3433D03*
X3294Y1496D03*
X3461D03*
X3349Y1552D03*
X3377Y1524D03*
X3489Y1747D03*
X3516Y1998D03*
X3461Y1831D03*
X3472Y1966D03*
X3516Y1886D03*
X3405Y1831D03*
X3489Y1858D03*
X3433Y1803D03*
X3377Y1747D03*
Y1858D03*
X3516Y1775D03*
X3266Y1747D03*
X3294Y1775D03*
X3322Y1803D03*
X3433Y1914D03*
X3516Y1831D03*
X3461Y1775D03*
X3322Y1747D03*
X3349Y1775D03*
X3461Y1886D03*
X3405D03*
X3489Y1914D03*
X3461Y1942D03*
X3489Y1803D03*
X3433Y1858D03*
X3230Y3735D03*
X3340Y3725D03*
Y3795D03*
Y3760D03*
X3450D03*
Y3795D03*
Y3725D03*
X3430Y3690D03*
X3360D03*
X3395D03*
X3340Y3830D03*
X3450D03*
X3430Y3855D03*
X3360D03*
X3395D03*
X3770Y426D03*
X3638Y480D03*
X3812D03*
X3740Y590D03*
X3675Y810D03*
X3535Y630D03*
X3565D03*
X3600D03*
X3675Y850D03*
Y890D03*
X3535Y865D03*
X3565D03*
X3600D03*
Y1190D03*
X3628Y1218D03*
X3656Y1302D03*
X3544Y1413D03*
X3684Y1274D03*
X3544Y1190D03*
Y1302D03*
X3767Y1357D03*
X3711Y1302D03*
X3600D03*
X3656Y1246D03*
X3572Y1218D03*
X3711Y1413D03*
X3656Y1135D03*
X3711Y1357D03*
X3795Y1274D03*
X3628D03*
Y1162D03*
X3684Y1385D03*
X3795Y1329D03*
X3739Y1385D03*
X3684Y1329D03*
X3628D03*
X3572Y1274D03*
X3600Y1246D03*
Y1357D03*
X3684Y1162D03*
X3656Y1357D03*
X3767Y1302D03*
X3628Y1385D03*
X3656Y1190D03*
Y1413D03*
X3739Y1329D03*
X3572Y1385D03*
X3544Y1357D03*
X3572Y1329D03*
X3544Y1246D03*
X3739Y1496D03*
X3767Y1691D03*
X3795Y1719D03*
Y1664D03*
X3628D03*
X3600Y1636D03*
X3656Y1580D03*
X3544D03*
X3600Y1524D03*
X3572Y1496D03*
X3684Y1608D03*
X3572Y1441D03*
X3628D03*
X3656Y1469D03*
X3739Y1608D03*
Y1552D03*
X3628Y1719D03*
X3711Y1636D03*
X3572Y1719D03*
X3711Y1524D03*
X3544Y1691D03*
X3767Y1469D03*
X3795Y1441D03*
X3684D03*
X3767Y1524D03*
X3795Y1496D03*
Y1608D03*
X3767Y1636D03*
X3739Y1664D03*
X3684Y1719D03*
X3795Y1552D03*
Y1886D03*
X3751Y1949D03*
X3767Y1914D03*
X3739Y1775D03*
X3767Y1803D03*
X3711Y1858D03*
X3572Y1775D03*
X3628Y1831D03*
X3600Y1803D03*
X3684Y1831D03*
X3656Y1747D03*
X3544Y1970D03*
X3628Y1886D03*
Y1998D03*
X3656Y1803D03*
Y1970D03*
X3684Y1998D03*
Y1775D03*
X3656Y1914D03*
X3739Y1886D03*
X3767Y1858D03*
X3628Y1942D03*
X3684Y1886D03*
X3739Y1831D03*
X3544Y1914D03*
X3600Y1858D03*
X3544Y1803D03*
X3572Y1831D03*
X3600Y1914D03*
X3656Y1858D03*
X3711Y1803D03*
X3572Y1886D03*
X3544Y1858D03*
X3572Y1942D03*
X3544Y1747D03*
X3600Y1970D03*
X3711Y1747D03*
X3572Y1998D03*
X3628Y1775D03*
X3600Y2081D03*
X3656Y2025D03*
X3572Y2053D03*
X3600Y2025D03*
X3544D03*
X3628Y2053D03*
X3570Y2830D03*
X3600D03*
X3630D03*
X3660D03*
X3570Y2800D03*
Y2770D03*
Y2740D03*
X3775Y3185D03*
Y3305D03*
Y3345D03*
Y3385D03*
Y3425D03*
Y3225D03*
Y3265D03*
X3840Y404D03*
X3910Y380D03*
X4088Y444D03*
X4063D03*
X3994Y384D03*
X3935Y454D03*
X3960Y660D03*
X3945Y590D03*
X4015D03*
X4085D03*
X3855Y810D03*
X3876Y590D03*
X3935Y660D03*
X3990Y914D03*
X3855Y890D03*
Y850D03*
X3920Y914D03*
X4055D03*
X4090D03*
X3823Y1357D03*
X3823Y1413D03*
X3851Y1385D03*
X3867Y1161D03*
X4095Y1373D03*
X3878Y1357D03*
X3849Y1143D03*
X4072Y1350D03*
X3823Y1302D03*
X3934Y1413D03*
X3851Y1329D03*
X3851Y1441D03*
X3823Y1469D03*
X4018Y1552D03*
X4045Y1580D03*
X3823Y1524D03*
X4045D03*
X4073Y1552D03*
X3906Y1719D03*
X3934Y1691D03*
X3962Y1719D03*
Y1664D03*
X3990Y1691D03*
Y1636D03*
X4018Y1664D03*
Y1608D03*
X4045Y1636D03*
X3823D03*
X3878Y1691D03*
X3962Y1552D03*
X3878Y1580D03*
X3851Y1608D03*
Y1664D03*
X3990Y1580D03*
X3851Y1719D03*
X3906Y1664D03*
X3962Y1608D03*
X3934Y1524D03*
X3878D03*
Y1469D03*
X3906Y1552D03*
X3823Y1691D03*
X3878Y1636D03*
X3934Y1580D03*
X3851Y1552D03*
X3906Y1496D03*
X3851D03*
X3990Y1524D03*
X4018Y1496D03*
X3906Y1441D03*
X3823Y1580D03*
X3906Y1608D03*
X3934Y1636D03*
X3823Y1858D03*
Y1747D03*
X3878D03*
X3906Y1775D03*
X3934Y1747D03*
X3851Y1775D03*
X3878Y1803D03*
X3895Y3185D03*
X3855D03*
X3815D03*
X3935Y3305D03*
X3815Y3345D03*
Y3305D03*
Y3265D03*
Y3225D03*
X3855Y3345D03*
Y3305D03*
Y3265D03*
Y3225D03*
X3895D03*
Y3265D03*
Y3305D03*
Y3345D03*
X4010Y3305D03*
X3975D03*
X3935Y3735D03*
X3900D03*
X3970D03*
X4055Y3685D03*
X4020D03*
X4090D03*
Y3710D03*
X4020D03*
X4055D03*
X4090Y3820D03*
X4020D03*
X4055D03*
X4165Y445D03*
X4330Y500D03*
X4190D03*
X4225Y555D03*
X4333Y713D03*
X4183Y625D03*
X4400Y595D03*
X4120Y914D03*
X4155D03*
X4245Y2513D03*
X4165Y2616D03*
X4370Y2850D03*
Y2790D03*
Y2740D03*
X4270Y2850D03*
Y2790D03*
Y2740D03*
X4161Y2641D03*
X4160Y2667D03*
X4390D03*
X4370Y3040D03*
Y2980D03*
Y2930D03*
X4270D03*
Y2980D03*
Y3040D03*
X4210Y3735D03*
X4140D03*
X4175D03*
X4602Y1062D03*
Y1087D03*
Y1180D03*
Y1205D03*
Y1416D03*
Y1441D03*
X4566Y1850D03*
X4534Y1980D03*
X4602Y1849D03*
Y1968D03*
Y1874D03*
Y1993D03*
Y1756D03*
Y1731D03*
Y2086D03*
Y2111D03*
Y2204D03*
Y2229D03*
Y2603D03*
X4775Y832D03*
X4965Y960D03*
X4828Y969D03*
X4722Y1003D03*
Y1028D03*
X4725Y956D03*
Y1075D03*
X4828Y944D03*
X4948Y1003D03*
X4828Y1062D03*
X4948Y1028D03*
X4828Y1087D03*
X4775Y1200D03*
X4805Y1280D03*
X4965Y1310D03*
Y1190D03*
X4722Y1240D03*
Y1265D03*
X4725Y1193D03*
X4722Y1311D03*
X4948Y1122D03*
X4828Y1180D03*
X4948Y1240D03*
X4828Y1298D03*
X4948Y1358D03*
Y1147D03*
X4828Y1205D03*
X4948Y1265D03*
X4828Y1323D03*
X4948Y1383D03*
X4775Y1595D03*
Y1445D03*
Y1620D03*
X4965Y1600D03*
Y1575D03*
Y1625D03*
X4722Y1476D03*
Y1501D03*
X4725Y1430D03*
X4828Y1416D03*
X4948Y1476D03*
X4828Y1441D03*
X4948Y1501D03*
X4775Y2005D03*
Y1770D03*
X4965Y1740D03*
X4828Y1756D03*
X4722Y1791D03*
Y1909D03*
X4725Y1744D03*
Y1862D03*
Y1980D03*
X4722Y1816D03*
Y1934D03*
X4828Y1731D03*
X4948Y1791D03*
X4828Y1849D03*
X4948Y1909D03*
X4828Y1968D03*
X4948Y1816D03*
X4828Y1874D03*
X4948Y1934D03*
X4828Y1993D03*
X4948Y2027D03*
X4722D03*
X4948Y2052D03*
X4722D03*
X4828Y2086D03*
Y2111D03*
X4948Y2145D03*
X4722D03*
X4948Y2170D03*
X4722D03*
X4828Y2204D03*
Y2229D03*
X4965Y2100D03*
X4725Y2218D03*
Y2095D03*
X4948Y2263D03*
X4722D03*
X4948Y2288D03*
X4722D03*
X4828Y2603D03*
X4940Y2440D03*
X4920Y2460D03*
Y2420D03*
X4940Y2400D03*
X4920Y2380D03*
X4940Y2360D03*
Y2480D03*
Y2320D03*
X4920Y2340D03*
X4775Y2770D03*
Y3020D03*
Y3170D03*
G54D42*
G01X100Y3015D02*
Y2950D01*
X155Y2895D01*
X250D01*
X300Y2845D01*
Y2775D01*
G01X470Y2805D02*
Y2695D01*
X575Y2590D01*
G54D24*
X665Y510D03*
Y410D03*
X605D03*
Y510D03*
X665Y675D03*
Y575D03*
X605D03*
Y675D03*
G54D15*
X190Y1415D03*
Y1350D03*
Y1285D03*
Y1480D03*
Y1545D03*
X250Y1415D03*
Y1350D03*
Y1285D03*
Y1480D03*
Y1545D03*
X665Y745D03*
X605D03*
X730Y1065D03*
X670D03*
X1020Y650D03*
X1080D03*
X1020Y775D03*
X1080D03*
X1020Y1070D03*
X1080D03*
X950Y2245D03*
X890D03*
X950Y2310D03*
X890D03*
X950Y2180D03*
X890D03*
X950Y2375D03*
X890D03*
X1260Y650D03*
X1320D03*
X1140D03*
X1200D03*
X1380D03*
Y935D03*
X1360Y2310D03*
X1420D03*
X1360Y2180D03*
X1420D03*
X1360Y2245D03*
X1420D03*
Y3900D03*
Y3840D03*
X1350Y3900D03*
Y3840D03*
X1280D03*
Y3900D03*
X1440Y650D03*
Y935D03*
X1630Y3460D03*
X1570D03*
X1630Y3260D03*
X1570D03*
X1630Y3770D03*
X1570D03*
X1630Y3690D03*
X1570D03*
X1630Y3600D03*
X1570D03*
X1630Y3530D03*
X1570D03*
X1490Y3900D03*
Y3840D03*
X1785Y650D03*
X1725D03*
X1785Y1110D03*
X1725D03*
X1785Y1035D03*
X1725D03*
X1785Y1270D03*
X1725D03*
X1785Y1505D03*
X1725D03*
X1785Y1440D03*
X1725D03*
X1855Y2215D03*
X1915D03*
X1855Y2475D03*
X1915D03*
X2220Y910D03*
Y970D03*
X2155D03*
Y910D03*
X2220Y1040D03*
Y1100D03*
X2155Y1040D03*
Y1100D03*
X2220Y1190D03*
X2160D03*
X2220Y1340D03*
X2160D03*
X2140Y2020D03*
X2080D03*
X2450D03*
X2510D03*
X2450Y2150D03*
X2510D03*
Y2280D03*
X2450D03*
Y2085D03*
X2510D03*
X2450Y2410D03*
X2510D03*
X2915Y2105D03*
X2855D03*
X2915Y2430D03*
X2855D03*
X3380Y590D03*
Y530D03*
X3770D03*
Y590D03*
X3840Y530D03*
Y590D03*
X3910Y530D03*
Y590D03*
X4050Y530D03*
Y590D03*
X3980Y530D03*
Y590D03*
X4120Y530D03*
Y590D03*
X4260D03*
Y530D03*
X4190Y590D03*
Y530D03*
X4330D03*
Y590D03*
X4765Y1025D03*
X4825D03*
X4935Y960D03*
X4875D03*
X4935Y895D03*
X4875D03*
X4935Y1310D03*
X4875D03*
X4935Y1190D03*
X4875D03*
X4765Y1125D03*
X4825D03*
X4765Y1490D03*
X4825D03*
X4935Y1740D03*
X4875D03*
X4935Y2100D03*
X4875D03*
X4765Y2045D03*
X4825D03*
X4765Y2290D03*
X4825D03*
X4765Y2490D03*
X4825D03*
G54D33*
X3515Y1329D03*
X3489Y1303D03*
X3460Y1384D03*
X3434Y1358D03*
X3378Y1414D03*
X3293Y1609D03*
X3267Y1635D03*
X3404Y1440D03*
X3348Y1496D03*
X3322Y1470D03*
X3404Y1720D03*
X3490Y1578D03*
X3515Y1552D03*
X3378Y1746D03*
X3460Y1776D03*
X3434Y1802D03*
X3516Y1832D03*
X3490Y1858D03*
X3629Y1273D03*
X3655Y1247D03*
X3767Y1412D03*
X3793Y1386D03*
X3684Y1329D03*
X3710Y1303D03*
X3602Y1690D03*
X3628Y1665D03*
X3633Y1505D03*
X3607Y1531D03*
X3671Y1543D03*
X3645Y1569D03*
X3708Y1582D03*
X3682Y1608D03*
X3527Y1615D03*
X3553Y1590D03*
X3565Y1653D03*
X3590Y1627D03*
X3573Y1831D03*
X3599Y1857D03*
X3657Y1859D03*
X3683Y1885D03*
X3712Y1804D03*
X3738Y1830D03*
X3907Y1551D03*
X3933Y1525D03*
X3824Y1692D03*
X3850Y1718D03*
X3879Y1637D03*
X3905Y1663D03*
X3851Y1495D03*
X3877Y1469D03*
G54D43*
G01X1280Y3805D02*
Y3840D01*
G01X1385D02*
Y3805D01*
G01X1280Y3900D02*
Y3935D01*
G01X1385Y3840D02*
X1420D01*
G01X1350D02*
X1385D01*
G01X1350Y3900D02*
Y3935D01*
G01X1535Y3460D02*
X1570D01*
G01X1535Y3260D02*
X1570D01*
G01X1630Y3530D02*
X1665D01*
G01X1630Y3600D02*
X1665D01*
G01X1630Y3690D02*
X1665D01*
G01X1630Y3770D02*
X1665D01*
G01X1535Y3690D02*
X1570D01*
G01X1535Y3770D02*
X1570D01*
G01X1490Y3805D02*
Y3840D01*
G01X1420Y3900D02*
Y3935D01*
G01X1490Y3900D02*
Y3935D01*
G01X1995Y3155D02*
X2065D01*
X2160Y3250D01*
Y3335D01*
G01X2330Y3130D02*
X2260Y3200D01*
Y3485D01*
G01X3140Y3335D02*
Y3230D01*
X3070Y3160D01*
X2980D01*
G01X3240Y3485D02*
Y3220D01*
X3180Y3160D01*
G01X3955D02*
X4025D01*
X4120Y3255D01*
Y3335D01*
G01X4225Y3480D02*
Y3220D01*
X4165Y3160D01*
G01X4765Y2490D02*
X4735D01*
X4708Y2463D01*
Y2390D01*
G01X4835Y1125D02*
X4856Y1104D01*
Y1048D01*
X4833Y1025D01*
X4825D01*
G01X4725Y1075D02*
X4764D01*
X4765Y1074D01*
G01D02*
Y1125D01*
G01Y1025D02*
Y1074D01*
G01X4835Y1125D02*
X4856Y1146D01*
Y1166D01*
X4875Y1185D01*
Y1190D01*
G01X4825Y1125D02*
X4835D01*
G01X4805Y1280D02*
X4810Y1275D01*
X4840D01*
X4875Y1310D01*
G01Y1190D02*
Y1199D01*
X4844Y1230D01*
X4805D01*
X4775Y1200D01*
G01Y1445D02*
X4790D01*
X4825Y1480D01*
Y1490D01*
G01X4725Y1430D02*
X4750Y1455D01*
Y1480D01*
X4760Y1490D01*
X4765D01*
G01X4875Y1740D02*
Y1750D01*
X4840Y1785D01*
X4790D01*
X4775Y1770D01*
G01X4825Y2045D02*
Y2037D01*
X4793Y2005D01*
X4775D01*
G01X4825Y2045D02*
X4857D01*
X4875Y2063D01*
Y2100D01*
G01X4765Y2290D02*
Y2258D01*
X4725Y2218D01*
G01Y2095D02*
X4755D01*
X4765Y2085D01*
Y2045D01*
G54D25*
X853Y3020D03*
X967D03*
X4927Y1600D03*
X4813D03*
G54D34*
X3500Y3543D03*
Y3657D03*
G54D16*
X200Y2775D03*
X100Y3015D03*
X200D03*
X300Y2775D03*
Y3015D03*
G54D44*
G01X190Y1285D02*
X155D01*
G01X190Y1350D02*
X156D01*
G01X190D02*
Y1415D01*
G01Y1480D02*
X155D01*
G01X190Y1545D02*
X155D01*
G01X190Y1415D02*
X156D01*
G01X250Y1350D02*
Y1415D01*
G01Y1285D02*
X394D01*
X400Y1290D01*
G01X285Y1545D02*
X250D01*
G01Y1415D02*
X520D01*
X585Y1480D01*
G01X250D02*
X506D01*
G01X605Y410D02*
X556D01*
G01X1545Y2730D02*
X1430Y2615D01*
X1070D01*
X990Y2695D01*
Y2888D01*
G01X1630Y3460D02*
X1665D01*
G54D35*
X3565Y530D03*
X3535D03*
Y590D03*
X3565D03*
G54D26*
X1825Y125D03*
X2225D03*
X2825D03*
X3225D03*
X3625D03*
X4025D03*
G54D17*
X100Y2775D03*
G54D45*
G01X2265Y930D02*
X2240D01*
X2220Y910D01*
G01X2265Y960D02*
X2245Y940D01*
X2228D01*
X2220Y948D01*
Y970D01*
G01X3867Y1161D02*
Y1151D01*
X3946Y1072D01*
Y1006D01*
X3936Y996D01*
X3788D01*
X3784Y992D01*
Y980D01*
X3788Y976D01*
X4482D01*
X4492Y966D01*
Y946D01*
X4482Y936D01*
X4232D01*
X4228Y932D01*
Y919D01*
X4232Y915D01*
X4736D01*
X4782Y961D01*
X4820D01*
X4828Y969D01*
G01X3849Y1143D02*
X3861D01*
X3936Y1068D01*
Y1010D01*
X3932Y1006D01*
X3784D01*
X3774Y996D01*
Y976D01*
X3784Y966D01*
X4478D01*
X4482Y962D01*
Y950D01*
X4478Y946D01*
X4228D01*
X4218Y936D01*
Y915D01*
X4228Y905D01*
X4740D01*
X4786Y951D01*
X4821D01*
X4828Y944D01*
G01X4095Y1373D02*
Y1376D01*
X4100Y1381D01*
X4107D01*
X4112Y1376D01*
Y1360D01*
X4117Y1355D01*
X4550D01*
X4560Y1365D01*
Y1380D01*
X4550Y1390D01*
X4454D01*
X4438Y1406D01*
Y1429D01*
X4454Y1445D01*
X4550D01*
X4560Y1455D01*
Y1470D01*
X4550Y1480D01*
X4454D01*
X4438Y1496D01*
Y1519D01*
X4454Y1535D01*
X4550D01*
X4560Y1545D01*
Y1560D01*
X4550Y1570D01*
X4454D01*
X4438Y1586D01*
Y1609D01*
X4454Y1625D01*
X4550D01*
X4560Y1635D01*
Y1650D01*
X4550Y1660D01*
X4456D01*
X4441Y1675D01*
Y1697D01*
X4456Y1712D01*
X4726D01*
X4763Y1749D01*
X4820D01*
X4828Y1756D01*
G01X4072Y1350D02*
X4107D01*
X4112Y1345D01*
X4554D01*
X4570Y1361D01*
Y1384D01*
X4554Y1400D01*
X4458D01*
X4448Y1410D01*
Y1425D01*
X4458Y1435D01*
X4554D01*
X4570Y1451D01*
Y1474D01*
X4554Y1490D01*
X4458D01*
X4448Y1500D01*
Y1515D01*
X4458Y1525D01*
X4554D01*
X4570Y1541D01*
Y1564D01*
X4554Y1580D01*
X4458D01*
X4448Y1590D01*
Y1605D01*
X4458Y1615D01*
X4554D01*
X4570Y1631D01*
Y1654D01*
X4554Y1670D01*
X4460D01*
X4451Y1679D01*
Y1693D01*
X4460Y1702D01*
X4730D01*
X4767Y1739D01*
X4820D01*
X4828Y1731D01*
G01X4602Y1756D02*
X4614Y1768D01*
X4623D01*
X4628Y1763D01*
Y1754D01*
X4633Y1749D01*
X4643D01*
X4648Y1754D01*
Y1775D01*
X4643Y1780D01*
X4484D01*
X4410Y1706D01*
Y1406D01*
X4394Y1390D01*
X4153D01*
X4138Y1405D01*
Y1425D01*
X4153Y1440D01*
X4361D01*
X4370Y1449D01*
Y1461D01*
X4361Y1470D01*
X4185D01*
X4170Y1485D01*
Y1505D01*
X4185Y1520D01*
X4361D01*
X4370Y1529D01*
Y1541D01*
X4361Y1550D01*
X4186D01*
X4136Y1500D01*
X4040D01*
X3932Y1608D01*
X3906D01*
G01X4602Y1731D02*
X4610Y1739D01*
X4647D01*
X4658Y1750D01*
Y1779D01*
X4647Y1790D01*
X4480D01*
X4400Y1710D01*
Y1410D01*
X4390Y1400D01*
X4157D01*
X4148Y1409D01*
Y1421D01*
X4157Y1430D01*
X4365D01*
X4380Y1445D01*
Y1465D01*
X4365Y1480D01*
X4189D01*
X4180Y1489D01*
Y1501D01*
X4189Y1510D01*
X4365D01*
X4380Y1525D01*
Y1545D01*
X4365Y1560D01*
X4182D01*
X4132Y1510D01*
X4074D01*
X4070Y1514D01*
Y1530D01*
X3964Y1636D01*
X3934D01*
G54D36*
X4407Y668D03*
X4333D03*
X4370Y752D03*
X4257Y668D03*
X4183D03*
X4220Y752D03*
G54D18*
X400Y1290D03*
Y1766D03*
G54D27*
X1825Y302D03*
X2081Y125D03*
Y302D03*
X2225D03*
X2481Y125D03*
Y302D03*
X2825D03*
X3081Y125D03*
Y302D03*
X3225D03*
X3481Y125D03*
Y302D03*
X3625D03*
X3881Y125D03*
Y302D03*
X4025D03*
X4281Y125D03*
Y302D03*
G54D46*
G01X1558Y2027D02*
X1538D01*
X1528Y2038D01*
X1034D01*
X998Y2074D01*
Y2176D01*
X1008Y2186D01*
X1066D01*
X1076Y2196D01*
Y2230D01*
X1066Y2240D01*
X1022D01*
X1002Y2260D01*
G01X1558Y2052D02*
X1532D01*
X1528Y2048D01*
X1066D01*
X1036Y2078D01*
Y2138D01*
X1044Y2146D01*
X1068D01*
X1076Y2154D01*
Y2172D01*
X1096Y2192D01*
Y2206D01*
G01Y2126D02*
X1116Y2146D01*
Y2258D01*
X1156Y2298D01*
Y2338D01*
X1276Y2458D01*
X1558D01*
G01X1096Y2086D02*
X1113Y2068D01*
X1302D01*
X1390Y2156D01*
Y2332D01*
X1416Y2358D01*
X1558D01*
G01X1057Y2086D02*
X1084Y2058D01*
X1346D01*
X1450Y2162D01*
Y2312D01*
X1471Y2332D01*
X1558D01*
G01X950Y2245D02*
X969Y2226D01*
X1036D01*
X1056Y2206D01*
G01X2815Y2490D02*
X2709Y2384D01*
X1820D01*
X1717Y2487D01*
X1151D01*
X1002Y2338D01*
G01X1558Y2408D02*
X1288D01*
X1154Y2274D01*
Y2145D01*
X1135Y2126D01*
G01X1558Y2382D02*
X1278D01*
X1194Y2298D01*
Y2116D01*
X1184Y2106D01*
X1155D01*
X1135Y2086D01*
G01X1360Y2310D02*
X1356Y2306D01*
X1236D01*
X1214Y2284D01*
G01X2813Y2463D02*
X2724Y2374D01*
X1816D01*
X1713Y2477D01*
X1221D01*
X1122Y2378D01*
G01X1825Y2475D02*
X1855D01*
G01X2155Y910D02*
X2176D01*
X2180Y906D01*
G01X2140Y2020D02*
Y1992D01*
X2147Y1985D01*
G01X2480Y660D02*
X2440D01*
X2438Y662D01*
G01Y798D02*
X2451Y811D01*
X2480D01*
G01Y699D02*
X2451D01*
X2438Y712D01*
G01X2480Y680D02*
X2445D01*
X2438Y688D01*
G01X2480Y640D02*
X2440D01*
X2438Y638D01*
G01X2480Y579D02*
X2454D01*
X2438Y562D01*
G01X2480Y620D02*
X2445D01*
X2438Y612D01*
G01Y738D02*
X2454Y721D01*
X2480D01*
G01X2438Y588D02*
X2451Y601D01*
X2480D01*
G01Y789D02*
X2454D01*
X2438Y772D01*
G01X2480Y890D02*
X2445D01*
X2438Y898D01*
G01X2480Y1060D02*
X2440D01*
X2438Y1058D01*
G01Y948D02*
X2454Y931D01*
X2480D01*
G01Y909D02*
X2451D01*
X2438Y922D01*
G01X2480Y1040D02*
X2445D01*
X2438Y1032D01*
G01Y1008D02*
X2451Y1021D01*
X2480D01*
G01Y999D02*
X2455D01*
X2445Y990D01*
X2444D01*
X2438Y982D01*
G01X2480Y1100D02*
X2445D01*
X2438Y1108D01*
G01X2480Y830D02*
X2445D01*
X2438Y822D01*
G01X2480Y850D02*
X2440D01*
X2438Y848D01*
G01X2480Y870D02*
X2440D01*
X2438Y872D01*
G01X2480Y1080D02*
X2440D01*
X2438Y1082D01*
G01Y1158D02*
X2454Y1141D01*
X2480D01*
G01Y1209D02*
X2454D01*
X2438Y1193D01*
G01X2480Y1119D02*
X2451D01*
X2438Y1132D01*
G01X2480Y1270D02*
X2440D01*
X2438Y1268D01*
G01X2480Y1380D02*
Y1351D01*
G01Y1417D02*
X2454D01*
X2438Y1400D01*
G01X2480Y1329D02*
X2451D01*
X2438Y1342D01*
G01Y1218D02*
X2451Y1231D01*
X2480D01*
G01Y1290D02*
X2440D01*
X2438Y1292D01*
G01X2480Y1310D02*
X2445D01*
X2438Y1318D01*
G01X2480Y1250D02*
X2445D01*
X2438Y1242D01*
G01X2480Y1478D02*
X2440D01*
X2438Y1475D01*
G01Y1425D02*
X2451Y1438D01*
X2480D01*
G01Y1517D02*
X2445D01*
X2438Y1525D01*
G01Y1575D02*
X2454Y1558D01*
X2480D01*
G01Y1537D02*
X2451D01*
X2438Y1550D01*
G01X2480Y1497D02*
X2440D01*
X2438Y1500D01*
G01X2480Y1458D02*
X2445D01*
X2438Y1450D01*
G01X2510Y2020D02*
X2543Y2053D01*
X2562D01*
G01X2510Y2085D02*
X2516Y2079D01*
X2561D01*
G01X2510Y2280D02*
X2513Y2283D01*
X2562D01*
G01X2561Y2181D02*
X2541D01*
X2510Y2150D01*
G01Y2410D02*
X2511Y2411D01*
X2561D01*
G01X3322Y1413D02*
X3277D01*
X3266Y1424D01*
X2910D01*
X2902Y1416D01*
Y1263D01*
X2897Y1258D01*
X2891D01*
X2886Y1263D01*
Y1269D01*
X2881Y1274D01*
X2875D01*
X2870Y1269D01*
Y655D01*
X2778Y562D01*
G01X3294Y1441D02*
X2895D01*
X2886Y1432D01*
Y1295D01*
X2881Y1290D01*
X2874D01*
X2870Y1295D01*
Y1317D01*
X2865Y1322D01*
X2859D01*
X2854Y1317D01*
Y664D01*
X2778Y588D01*
G01Y612D02*
X2838Y673D01*
Y1373D01*
X2843Y1378D01*
X2849D01*
X2854Y1373D01*
Y1343D01*
X2859Y1338D01*
X2865D01*
X2870Y1343D01*
Y1491D01*
X2875Y1496D01*
X3238D01*
G01X3127Y1608D02*
Y1581D01*
X3102Y1556D01*
X3085D01*
X3077Y1564D01*
X2859D01*
X2854Y1559D01*
Y1401D01*
X2849Y1396D01*
X2843D01*
X2838Y1401D01*
Y1441D01*
X2833Y1446D01*
X2827D01*
X2822Y1441D01*
Y682D01*
X2778Y638D01*
G01X3099Y1580D02*
X2843D01*
X2838Y1575D01*
Y1467D01*
X2833Y1462D01*
X2827D01*
X2822Y1467D01*
Y1575D01*
X2817Y1580D01*
X2811D01*
X2806Y1575D01*
Y766D01*
X2778Y738D01*
G01X2812Y2158D02*
X2845D01*
X2855Y2148D01*
Y2105D01*
G01Y2430D02*
X2820D01*
X2812Y2438D01*
G01X4828Y2204D02*
X4842D01*
X4852Y2214D01*
Y2244D01*
X4842Y2254D01*
X4824D01*
X4770Y2200D01*
X4651D01*
X4632Y2180D01*
X4240D01*
X4216Y2156D01*
X3693D01*
X3688Y2151D01*
Y2145D01*
X3693Y2140D01*
X3711D01*
X3716Y2135D01*
Y2129D01*
X3711Y2124D01*
X3688D01*
X3668Y2144D01*
X3540D01*
X3160Y1764D01*
Y1660D01*
X3182Y1638D01*
Y1608D01*
G01X4828Y2229D02*
X4813D01*
X4774Y2190D01*
X4656D01*
X4636Y2170D01*
X4244D01*
X4220Y2146D01*
X3733D01*
X3728Y2141D01*
Y2135D01*
X3733Y2130D01*
X3835D01*
X3840Y2125D01*
Y2119D01*
X3835Y2114D01*
X3684D01*
X3664Y2134D01*
X3544D01*
X3223Y1813D01*
Y1761D01*
X3293Y1691D01*
X3322D01*
G01X4948Y2263D02*
X4928D01*
X4920Y2272D01*
X4905D01*
X4900Y2267D01*
Y2240D01*
X4786Y2126D01*
X4693D01*
X4634Y2067D01*
X3702D01*
X3649Y2120D01*
X3554D01*
X3546Y2112D01*
X3387Y1953D01*
X3272Y1838D01*
Y1770D01*
X3406Y1636D01*
X3433D01*
G01X4948Y1476D02*
X4940Y1483D01*
X4918D01*
X4896Y1462D01*
Y1432D01*
X4852Y1388D01*
X4715D01*
X4710Y1383D01*
Y1375D01*
X4715Y1370D01*
X4772D01*
X4782Y1360D01*
Y1345D01*
X4772Y1335D01*
X4677D01*
X4638Y1296D01*
X3952D01*
X3911Y1337D01*
X3873D01*
X3772Y1438D01*
X3706D01*
X3691Y1423D01*
X3673D01*
X3662Y1434D01*
X3648D01*
X3636Y1422D01*
X3564D01*
X3554Y1432D01*
X3536D01*
X3526Y1422D01*
X3508D01*
X3499Y1431D01*
X3443D01*
X3210Y1664D01*
Y1691D01*
G01X4828Y1849D02*
X4820Y1857D01*
X4806D01*
X4780Y1831D01*
Y1804D01*
X4738Y1762D01*
X4696D01*
X4658Y1800D01*
X4471D01*
X4380Y1708D01*
Y1591D01*
X4369Y1580D01*
X4178D01*
X4168Y1590D01*
Y1613D01*
X4178Y1623D01*
X4337D01*
X4342Y1628D01*
Y1643D01*
X4337Y1648D01*
X4096D01*
X4087Y1657D01*
Y1709D01*
X4054Y1742D01*
X3956D01*
X3943Y1729D01*
X3925D01*
X3914Y1740D01*
X3898D01*
X3887Y1729D01*
X3869D01*
X3854Y1744D01*
X3846D01*
X3830Y1728D01*
X3814D01*
X3805Y1737D01*
X3731D01*
X3722Y1728D01*
X3702D01*
X3693Y1737D01*
X3675D01*
X3666Y1728D01*
X3646D01*
X3634Y1740D01*
X3566D01*
X3512Y1686D01*
X3456D01*
X3434Y1664D01*
X3405D01*
G01X4948Y1501D02*
X4954Y1507D01*
Y1514D01*
X4948Y1520D01*
X4941D01*
X4886Y1466D01*
Y1436D01*
X4848Y1398D01*
X4708D01*
X4698Y1388D01*
Y1370D01*
X4708Y1360D01*
X4768D01*
X4772Y1356D01*
Y1349D01*
X4768Y1345D01*
X4673D01*
X4634Y1306D01*
X3956D01*
X3923Y1339D01*
X3902Y1360D01*
X3802Y1460D01*
X3786D01*
X3776Y1450D01*
X3758D01*
X3746Y1462D01*
X3730D01*
X3718Y1450D01*
X3704D01*
X3694Y1460D01*
X3674D01*
X3664Y1450D01*
X3646D01*
X3637Y1459D01*
X3617D01*
X3606Y1448D01*
X3592D01*
X3581Y1459D01*
X3561D01*
X3550Y1448D01*
X3538D01*
X3527Y1459D01*
X3507D01*
X3495Y1447D01*
X3483D01*
X3266Y1664D01*
X3238D01*
G01X3377Y1691D02*
X3405D01*
X3510Y1796D01*
X3524D01*
X3538Y1782D01*
X3552D01*
X3566Y1796D01*
X3578D01*
X3592Y1782D01*
X3608D01*
X3622Y1796D01*
X3634D01*
X3648Y1782D01*
X3660D01*
X3674Y1796D01*
X3690D01*
X3708Y1778D01*
X3716D01*
X3734Y1796D01*
X3746D01*
X3760Y1782D01*
X3776D01*
X3788Y1794D01*
X3860D01*
X3872Y1782D01*
X3886D01*
X3900Y1796D01*
X3916D01*
X3922Y1790D01*
X4042D01*
X4096Y1736D01*
X4191D01*
X4196Y1731D01*
Y1721D01*
X4191Y1716D01*
X4146D01*
X4136Y1706D01*
Y1687D01*
X4146Y1677D01*
X4347D01*
X4356Y1686D01*
Y1720D01*
X4456Y1820D01*
X4685D01*
X4699Y1834D01*
X4740D01*
X4800Y1894D01*
X4846D01*
X4866Y1874D01*
Y1834D01*
X4860Y1828D01*
X4814D01*
X4810Y1824D01*
Y1817D01*
X4814Y1813D01*
X4868D01*
X4872Y1809D01*
Y1803D01*
X4868Y1798D01*
X4864D01*
X4860Y1794D01*
Y1788D01*
X4864Y1784D01*
X4896D01*
X4928Y1816D01*
X4948D01*
G01X4828Y1874D02*
X4820Y1867D01*
X4802D01*
X4770Y1835D01*
Y1808D01*
X4734Y1772D01*
X4700D01*
X4662Y1810D01*
X4467D01*
X4370Y1713D01*
Y1595D01*
X4365Y1590D01*
X4183D01*
X4178Y1595D01*
Y1608D01*
X4183Y1613D01*
X4342D01*
X4352Y1623D01*
Y1648D01*
X4342Y1658D01*
X4101D01*
X4097Y1662D01*
Y1674D01*
X4101Y1678D01*
X4113D01*
X4118Y1683D01*
Y1696D01*
X4113Y1701D01*
X4102D01*
X4097Y1706D01*
Y1714D01*
X4058Y1752D01*
X3956D01*
X3943Y1765D01*
X3923D01*
X3915Y1757D01*
X3897D01*
X3888Y1766D01*
X3870D01*
X3860Y1756D01*
X3842D01*
X3832Y1766D01*
X3814D01*
X3804Y1756D01*
X3733D01*
X3723Y1766D01*
X3702D01*
X3690Y1754D01*
X3679D01*
X3668Y1765D01*
X3645D01*
X3634Y1754D01*
X3566D01*
X3555Y1765D01*
X3535D01*
X3478Y1708D01*
X3450D01*
X3433Y1691D01*
G01X4602Y1849D02*
X4594Y1857D01*
X4589D01*
X4576Y1870D01*
X4554D01*
X4541Y1857D01*
X4441D01*
X4297Y1713D01*
X4250D01*
X4240Y1723D01*
Y1740D01*
X4250Y1750D01*
X4271D01*
X4276Y1755D01*
Y1763D01*
X4271Y1768D01*
X4133D01*
X4122Y1779D01*
Y1797D01*
X4133Y1808D01*
X4335D01*
X4340Y1813D01*
Y1821D01*
X4335Y1826D01*
X4110D01*
X4106Y1822D01*
Y1794D01*
X4101Y1790D01*
X4095D01*
X4091Y1794D01*
Y1822D01*
X4086Y1826D01*
X3940D01*
X3898Y1868D01*
X3875D01*
X3870Y1873D01*
Y1899D01*
X3865Y1904D01*
X3837D01*
X3832Y1900D01*
Y1890D01*
X3828Y1886D01*
X3822D01*
X3817Y1890D01*
Y1900D01*
X3813Y1904D01*
X3784D01*
X3774Y1894D01*
X3760D01*
X3748Y1906D01*
X3732D01*
X3720Y1894D01*
X3704D01*
X3689Y1909D01*
X3676D01*
X3661Y1894D01*
X3650D01*
X3638Y1906D01*
X3620D01*
X3608Y1894D01*
X3592D01*
X3580Y1906D01*
X3564D01*
X3552Y1894D01*
X3536D01*
X3524Y1906D01*
X3508D01*
X3496Y1894D01*
X3480D01*
X3468Y1906D01*
X3452D01*
X3440Y1894D01*
X3426D01*
X3414Y1906D01*
X3394D01*
X3322Y1834D01*
Y1803D01*
G01X3349Y1775D02*
X3323D01*
X3302Y1796D01*
Y1828D01*
X3408Y1934D01*
X3440D01*
X3452Y1922D01*
X3468D01*
X3480Y1934D01*
X3498D01*
X3510Y1922D01*
X3524D01*
X3536Y1934D01*
X3552D01*
X3564Y1922D01*
X3580D01*
X3592Y1934D01*
X3608D01*
X3620Y1922D01*
X3636D01*
X3648Y1934D01*
X3664D01*
X3676Y1922D01*
X3692D01*
X3704Y1934D01*
X3720D01*
X3732Y1922D01*
X3748D01*
X3760Y1934D01*
X3849D01*
X3854Y1929D01*
Y1919D01*
X3859Y1914D01*
X3869D01*
X3880Y1903D01*
Y1883D01*
X3885Y1878D01*
X3902D01*
X3944Y1836D01*
X4339D01*
X4350Y1825D01*
Y1809D01*
X4339Y1798D01*
X4137D01*
X4132Y1793D01*
Y1783D01*
X4137Y1778D01*
X4276D01*
X4286Y1768D01*
Y1750D01*
X4276Y1740D01*
X4255D01*
X4250Y1735D01*
Y1728D01*
X4255Y1723D01*
X4293D01*
X4437Y1867D01*
X4537D01*
X4550Y1880D01*
X4596D01*
X4602Y1874D01*
G01X4948Y2288D02*
X4960D01*
X4970Y2278D01*
Y2254D01*
X4960Y2244D01*
X4920D01*
X4792Y2116D01*
X4697D01*
X4638Y2057D01*
X4479D01*
X4475Y2052D01*
Y2046D01*
X4479Y2042D01*
X4568D01*
X4572Y2037D01*
Y2031D01*
X4568Y2027D01*
X4479D01*
X4475Y2022D01*
Y2016D01*
X4479Y2012D01*
X4524D01*
X4528Y2007D01*
Y2001D01*
X4524Y1997D01*
X4464D01*
X4460Y2001D01*
Y2052D01*
X4455Y2057D01*
X3698D01*
X3645Y2110D01*
X3558D01*
X3496Y2048D01*
Y1990D01*
X3538Y1948D01*
X3566D01*
X3572Y1942D01*
G01X4948Y1791D02*
X4962D01*
X4972Y1801D01*
Y1826D01*
X4962Y1836D01*
X4934D01*
X4906Y1808D01*
X4890D01*
X4876Y1823D01*
Y1878D01*
X4850Y1904D01*
X4796D01*
X4736Y1844D01*
X4695D01*
X4681Y1830D01*
X4452D01*
X4346Y1724D01*
Y1690D01*
X4342Y1687D01*
X4151D01*
X4146Y1692D01*
Y1701D01*
X4151Y1706D01*
X4196D01*
X4206Y1716D01*
Y1736D01*
X4196Y1746D01*
X4100D01*
X4046Y1800D01*
X3928D01*
X3904Y1824D01*
X3774D01*
X3742Y1856D01*
X3734D01*
X3718Y1840D01*
X3702D01*
X3693Y1849D01*
X3676D01*
X3640Y1813D01*
X3617D01*
X3609Y1821D01*
X3593D01*
X3579Y1807D01*
X3567D01*
X3553Y1821D01*
X3535D01*
X3522Y1808D01*
X3519D01*
X3512Y1808D01*
X3510Y1808D01*
X3494Y1824D01*
X3480D01*
X3468Y1812D01*
X3454D01*
X3439Y1827D01*
X3429D01*
X3349Y1747D01*
Y1719D01*
G01X4948Y1122D02*
Y1107D01*
X4943Y1102D01*
X4934D01*
X4929Y1107D01*
Y1124D01*
X4924Y1129D01*
X4908D01*
X4884Y1105D01*
Y1009D01*
X4864Y989D01*
X4816D01*
X4803Y975D01*
X4715D01*
X4676Y936D01*
X4523D01*
X4512Y947D01*
Y965D01*
X4523Y976D01*
X4639D01*
X4644Y981D01*
Y991D01*
X4639Y996D01*
X3979D01*
X3969Y1006D01*
X3968Y1007D01*
Y1024D01*
X3979Y1035D01*
X4131D01*
X4136Y1040D01*
Y1048D01*
X4131Y1053D01*
X4011D01*
X3860Y1204D01*
X3824D01*
X3778Y1158D01*
X3708D01*
X3700Y1166D01*
X3687D01*
X3684Y1162D01*
G01X4828Y1180D02*
X4820Y1188D01*
X4803D01*
X4779Y1164D01*
X4749D01*
X4609Y1025D01*
X4176D01*
X4166Y1035D01*
Y1053D01*
X4176Y1063D01*
X4560D01*
X4565Y1068D01*
Y1075D01*
X4560Y1080D01*
X4022D01*
X4002Y1100D01*
X3874Y1228D01*
X3757D01*
X3656Y1330D01*
Y1357D01*
G01X4948Y1240D02*
Y1233D01*
X4943Y1228D01*
X4929D01*
X4924Y1233D01*
Y1242D01*
X4919Y1247D01*
X4781D01*
X4746Y1212D01*
X4707D01*
X4603Y1108D01*
X4044D01*
X4034Y1118D01*
Y1136D01*
X4045Y1147D01*
X4443D01*
X4448Y1152D01*
Y1161D01*
X4443Y1166D01*
X3976D01*
X3889Y1253D01*
X3781D01*
X3767Y1267D01*
Y1302D01*
G01X3656Y1190D02*
X3690D01*
X3712Y1168D01*
X3774D01*
X3820Y1214D01*
X3864D01*
X4015Y1063D01*
X4135D01*
X4146Y1052D01*
Y1036D01*
X4135Y1025D01*
X3983D01*
X3978Y1020D01*
Y1011D01*
X3983Y1006D01*
X4644D01*
X4654Y996D01*
Y976D01*
X4644Y966D01*
X4527D01*
X4522Y961D01*
Y951D01*
X4527Y946D01*
X4672D01*
X4711Y985D01*
X4799D01*
X4812Y999D01*
X4860D01*
X4874Y1013D01*
Y1104D01*
X4874Y1109D01*
X4904Y1139D01*
X4940D01*
X4948Y1147D01*
G01X3656Y1413D02*
Y1388D01*
X3721Y1322D01*
X3744Y1300D01*
Y1256D01*
X3762Y1238D01*
X3878D01*
X3911Y1205D01*
X4026Y1090D01*
X4565D01*
X4575Y1080D01*
Y1063D01*
X4565Y1053D01*
X4205D01*
X4200Y1048D01*
Y1040D01*
X4205Y1035D01*
X4605D01*
X4744Y1174D01*
X4775D01*
X4798Y1198D01*
X4821D01*
X4828Y1205D01*
G01X3739Y1329D02*
X3769D01*
X3835Y1263D01*
X3893D01*
X3980Y1176D01*
X4448D01*
X4458Y1166D01*
Y1147D01*
X4448Y1137D01*
X4049D01*
X4044Y1132D01*
Y1122D01*
X4048Y1118D01*
X4599D01*
X4703Y1222D01*
X4742D01*
X4777Y1257D01*
X4924D01*
X4932Y1265D01*
X4948D01*
G01X4828Y1968D02*
X4835Y1975D01*
X4859D01*
X4864Y1970D01*
Y1949D01*
X4859Y1944D01*
X4814D01*
X4804Y1954D01*
Y1973D01*
X4799Y1978D01*
X4780D01*
X4764Y1962D01*
X4692D01*
X4650Y1920D01*
X4480D01*
X4474Y1926D01*
X4087D01*
X4076Y1915D01*
Y1893D01*
X4087Y1882D01*
X4393D01*
X4398Y1877D01*
Y1869D01*
X4393Y1864D01*
X3960D01*
X3834Y1990D01*
X3704D01*
X3692Y1978D01*
X3676D01*
X3664Y1990D01*
X3648D01*
X3636Y1978D01*
X3620D01*
X3573Y2025D01*
X3544D01*
G01X3572Y1998D02*
Y1970D01*
X3592Y1950D01*
X3608D01*
X3620Y1962D01*
X3636D01*
X3648Y1950D01*
X3664D01*
X3676Y1962D01*
X3732D01*
X3738Y1968D01*
X3842D01*
X3956Y1854D01*
X4397D01*
X4408Y1865D01*
Y1881D01*
X4397Y1892D01*
X4091D01*
X4086Y1897D01*
Y1911D01*
X4091Y1916D01*
X4470D01*
X4476Y1910D01*
X4654D01*
X4696Y1952D01*
X4764D01*
X4782Y1934D01*
X4863D01*
X4874Y1945D01*
Y1974D01*
X4863Y1985D01*
X4835D01*
X4828Y1993D01*
G01X3600Y2081D02*
X3651D01*
X3688Y2044D01*
X4432D01*
X4442Y2034D01*
Y1998D01*
X4460Y1980D01*
X4534D01*
G01X3572Y2053D02*
X3582Y2043D01*
X3611D01*
X3622Y2032D01*
X3634D01*
X3648Y2046D01*
X3662D01*
X3678Y2030D01*
X4417D01*
X4428Y2019D01*
Y1997D01*
X4417Y1986D01*
X3939D01*
X3934Y1981D01*
Y1965D01*
X3939Y1960D01*
X4487D01*
X4499Y1948D01*
X4638D01*
X4644Y1954D01*
Y1970D01*
X4639Y1975D01*
X4610D01*
X4602Y1968D01*
G01Y1993D02*
X4610Y1985D01*
X4643D01*
X4654Y1974D01*
Y1950D01*
X4642Y1938D01*
X4495D01*
X4483Y1950D01*
X3935D01*
X3924Y1961D01*
Y1985D01*
X3935Y1996D01*
X4413D01*
X4418Y2001D01*
Y2015D01*
X4413Y2020D01*
X3678D01*
X3662Y2004D01*
X3650D01*
X3636Y2018D01*
X3607D01*
X3600Y2025D01*
G01X4828Y1298D02*
X4820Y1306D01*
X4794D01*
X4771Y1283D01*
X4687D01*
X4660Y1256D01*
X4029D01*
X4024Y1251D01*
Y1241D01*
X4029Y1236D01*
X4561D01*
X4572Y1225D01*
Y1208D01*
X4561Y1197D01*
X3999D01*
X3913Y1283D01*
X3863D01*
X3844Y1302D01*
X3823D01*
G01X4828Y1323D02*
X4820Y1316D01*
X4790D01*
X4767Y1293D01*
X4683D01*
X4656Y1266D01*
X4022D01*
X4012Y1256D01*
Y1236D01*
X4022Y1226D01*
X4557D01*
X4562Y1221D01*
Y1212D01*
X4557Y1207D01*
X4003D01*
X3917Y1293D01*
X3867D01*
X3851Y1309D01*
Y1329D01*
G01X4566Y1850D02*
X4552D01*
X4546Y1844D01*
X4448D01*
X4304Y1700D01*
X4240D01*
X4224Y1716D01*
Y1740D01*
X4206Y1758D01*
X4108D01*
X4056Y1810D01*
X3942D01*
X3894Y1858D01*
X3823D01*
G54D28*
X2622Y813D03*
Y603D03*
Y634D03*
Y666D03*
Y697D03*
Y1023D03*
Y1054D03*
Y1086D03*
Y844D03*
Y876D03*
Y907D03*
Y1117D03*
Y1233D03*
Y1264D03*
Y1296D03*
Y1327D03*
Y1443D03*
Y1474D03*
Y1506D03*
Y1537D03*
X2688Y813D03*
Y697D03*
Y666D03*
Y634D03*
Y603D03*
Y1086D03*
Y1054D03*
Y1023D03*
Y907D03*
Y876D03*
Y844D03*
Y1117D03*
Y1327D03*
Y1296D03*
Y1264D03*
Y1233D03*
Y1537D03*
Y1506D03*
Y1474D03*
Y1443D03*
G54D19*
X506Y1480D03*
Y1578D03*
X820Y165D03*
X720D03*
X820Y265D03*
X720D03*
X620D03*
X585Y1578D03*
X1020Y165D03*
X920D03*
X1020Y265D03*
X920D03*
X850Y2580D03*
X950D03*
X960Y3115D03*
X1170Y460D03*
X1625Y1325D03*
Y1225D03*
X1545Y2630D03*
X2620Y3650D03*
X2790Y2970D03*
X2890D03*
X3600Y3650D03*
X4090Y2550D03*
X3870D03*
X3880Y2980D03*
X3980D03*
X4300Y2125D03*
Y2325D03*
Y2225D03*
Y2425D03*
X4470Y3650D03*
G54D37*
X4708Y2390D03*
X4822D03*
G54D47*
G01X66Y776D02*
X112Y822D01*
X228D01*
X400Y650D01*
X541D01*
G01X66Y697D02*
X106Y737D01*
Y788D01*
X126Y808D01*
X218D01*
X401Y625D01*
X482D01*
G01X145Y776D02*
X224D01*
X425Y575D01*
X605D01*
G01X665Y410D02*
X660D01*
X626Y376D01*
X538D01*
X484Y430D01*
Y491D01*
X278Y697D01*
X145D01*
G01X605Y640D02*
X565D01*
X550Y625D01*
X482D01*
G01X665Y575D02*
X695D01*
X725Y605D01*
Y900D01*
X545Y1080D01*
X310D01*
G01X695Y445D02*
X665D01*
G01D02*
X645D01*
X635Y455D01*
Y529D01*
X605Y559D01*
Y575D01*
G01X880Y825D02*
X885Y820D01*
Y600D01*
X695Y410D01*
X665D01*
G01Y475D02*
X735D01*
X870Y610D01*
Y805D01*
X860Y815D01*
Y1042D01*
X870Y1052D01*
G01X695Y510D02*
X665D01*
G01D02*
Y527D01*
X635Y557D01*
Y595D01*
X620Y610D01*
X605D01*
G01Y675D02*
X566D01*
X541Y650D01*
G01X615Y979D02*
X710Y884D01*
Y625D01*
X695Y610D01*
X665D01*
G01X661Y780D02*
X665Y776D01*
Y745D01*
G01X535Y1000D02*
X635Y900D01*
Y655D01*
X650Y640D01*
X665D01*
G01X565Y1000D02*
X695Y870D01*
Y700D01*
X670Y675D01*
X665D01*
G01X1020Y625D02*
Y650D01*
G01X955Y1605D02*
Y1230D01*
G01X1245Y1605D02*
X994Y1354D01*
Y1135D01*
G01X1575Y202D02*
X1558D01*
X1542Y218D01*
Y344D01*
X1578Y380D01*
X1676D01*
X1979Y683D01*
Y1299D01*
X2316Y1636D01*
X2994D01*
X3542Y2184D01*
X3624D01*
X4090Y2650D01*
G01X3377Y1302D02*
X3250D01*
X3200Y1252D01*
X2985D01*
X2888Y1155D01*
Y626D01*
X2768Y506D01*
X1830D01*
X1629Y305D01*
X1575D01*
G01X3405Y1329D02*
X3413Y1321D01*
Y1294D01*
X3426Y1281D01*
Y1267D01*
X3411Y1252D01*
X3362D01*
X3348Y1266D01*
X3251D01*
X3211Y1226D01*
X2996D01*
X2914Y1144D01*
Y615D01*
X2779Y480D01*
X2768Y480D01*
X1846Y480D01*
X1594Y228D01*
X1576D01*
G01Y253D02*
X1598D01*
X1838Y493D01*
X2773D01*
X2901Y621D01*
Y1149D01*
X2991Y1239D01*
X3205D01*
X3245Y1279D01*
X3383D01*
X3398Y1294D01*
Y1308D01*
X3349Y1357D01*
Y1385D01*
G01X3380Y455D02*
Y530D01*
G01Y590D02*
Y630D01*
G01X3770Y426D02*
Y530D01*
G01X3840D02*
Y404D01*
G01X3910Y530D02*
Y380D01*
G01X4088Y444D02*
X4120Y476D01*
Y530D01*
G01X4063Y444D02*
X4050Y457D01*
Y530D01*
G01X3994Y384D02*
X3980Y398D01*
Y530D01*
G01X4330D02*
Y500D01*
G01X4370Y752D02*
X4292D01*
X4257Y717D01*
Y668D01*
G01X4260Y590D02*
Y666D01*
X4257Y668D01*
G01X4190Y590D02*
X4220Y620D01*
Y752D01*
G01X4407Y668D02*
Y652D01*
X4378Y623D01*
X4363D01*
X4330Y590D01*
G54D29*
X2540Y699D03*
Y680D03*
X2480Y601D03*
Y620D03*
X2540Y660D03*
Y640D03*
Y620D03*
Y601D03*
X2480Y640D03*
Y660D03*
Y680D03*
Y699D03*
X2540Y1100D03*
X2480Y1021D03*
Y1040D03*
X2540Y1080D03*
Y1060D03*
Y1040D03*
Y1021D03*
X2480Y1060D03*
Y1080D03*
Y1100D03*
X2540Y909D03*
Y890D03*
X2480Y811D03*
Y830D03*
X2540Y870D03*
Y850D03*
Y830D03*
Y811D03*
X2480Y850D03*
Y870D03*
Y890D03*
Y909D03*
X2540Y1119D03*
X2480D03*
X2540Y1329D03*
Y1310D03*
X2480Y1231D03*
Y1250D03*
X2540Y1290D03*
Y1270D03*
Y1250D03*
Y1231D03*
X2480Y1270D03*
Y1290D03*
Y1310D03*
Y1329D03*
X2540Y1537D03*
Y1517D03*
X2480Y1438D03*
Y1458D03*
X2540Y1497D03*
Y1478D03*
Y1458D03*
Y1438D03*
X2480Y1478D03*
Y1497D03*
Y1517D03*
Y1537D03*
G54D38*
X4880Y816D03*
Y3184D03*
G54D39*
G01X605Y475D02*
Y445D01*
G01D02*
Y410D01*
G01Y745D02*
Y783D01*
G01Y510D02*
Y530D01*
G01X790Y590D02*
X744Y636D01*
Y912D01*
X724Y932D01*
Y1020D01*
G01X670Y1065D02*
Y1110D01*
G01X724Y1020D02*
X730Y1026D01*
Y1065D01*
G01X1080Y775D02*
X1110D01*
G01X1020D02*
X1018Y777D01*
X977D01*
G01X1080Y650D02*
X1310Y880D01*
Y1262D01*
X1435Y1388D01*
G01X1080Y1070D02*
Y1123D01*
X1092Y1135D01*
G01X973Y1072D02*
X1018D01*
X1020Y1070D01*
G01X890Y2180D02*
X862D01*
X855Y2187D01*
G01X1002Y2299D02*
X961D01*
X950Y2310D01*
G01X890Y2245D02*
X860D01*
G01X950Y2180D02*
Y2150D01*
G01X890Y2310D02*
Y2344D01*
G01Y2375D02*
Y2344D01*
G01X950Y2375D02*
Y2405D01*
G01X1320Y650D02*
Y625D01*
G01X1380Y650D02*
X1320D01*
G01X1200Y625D02*
Y650D01*
G01X1260Y625D02*
Y650D01*
G01X1140Y625D02*
Y650D01*
G01X1380Y935D02*
X1350D01*
G01X1360Y2180D02*
Y2212D01*
G01Y2245D02*
X1341Y2226D01*
X1273D01*
X1253Y2206D01*
G01X1725Y650D02*
X1700D01*
X1670Y620D01*
G01X1440Y650D02*
X1480D01*
X1491Y639D01*
G01X1440Y935D02*
X1441Y934D01*
X1490D01*
G01X1725Y1270D02*
X1695D01*
G01X1420Y2245D02*
Y2278D01*
G01Y2212D02*
Y2245D01*
G01Y2180D02*
Y2212D01*
G01Y2310D02*
Y2278D01*
G01X1785Y650D02*
X1824D01*
X1825Y651D01*
G01X1725Y1075D02*
Y1035D01*
G01Y1110D02*
Y1075D01*
G01X1785Y1035D02*
X1824D01*
X1824Y1034D01*
G01X1785Y1270D02*
X1820D01*
X1825Y1265D01*
G01X1785Y1110D02*
X1823D01*
X1824Y1111D01*
G01X1725Y1505D02*
Y1475D01*
G01Y1440D02*
Y1475D01*
G01X1825Y1469D02*
X1786D01*
X1785Y1470D01*
G01D02*
Y1505D01*
G01Y1440D02*
Y1470D01*
G01X1915Y2215D02*
X1945D01*
G01X1820D02*
X1855D01*
G01X1915Y2475D02*
Y2504D01*
X1916Y2505D01*
G01X2155Y1100D02*
X2220D01*
G01X2155Y1130D02*
Y1100D01*
G01Y970D02*
Y1005D01*
G01Y1040D02*
X2220D01*
G01D02*
X2260D01*
G01X2160Y1190D02*
X2125D01*
G01X2160Y1340D02*
X2125D01*
G01X2220Y1190D02*
X2261D01*
X2263Y1188D01*
G01X2220Y1340D02*
X2260D01*
X2262Y1342D01*
G01X2080Y2050D02*
Y2020D01*
G01X2420Y2280D02*
X2450D01*
G01Y2020D02*
X2420D01*
G01X2450Y2085D02*
X2420D01*
G01X2450Y2150D02*
X2420D01*
G01X2450Y2410D02*
X2420D01*
G01X3155Y1322D02*
X3150Y1328D01*
X3129Y1349D01*
G01X3179Y1299D02*
X3155Y1322D01*
G01X3198Y1365D02*
X3221Y1341D01*
G01X3171Y1391D02*
X3192Y1370D01*
X3198Y1365D01*
G01X2915Y2105D02*
X2945D01*
G01X2915Y2430D02*
X2946D01*
G01X3315Y1162D02*
X3289Y1189D01*
G01X3339Y1139D02*
X3315Y1162D01*
G01X3358Y1205D02*
X3381Y1181D01*
G01X3331Y1231D02*
X3358Y1205D01*
G01X3767Y1357D02*
X3793Y1383D01*
Y1386D01*
G01X4225Y555D02*
X4190Y590D01*
M02*
