G04 ================== begin FILE IDENTIFICATION RECORD ==================*
G04 Layout Name:  M:/QB3_V12/QB3_V12.brd*
G04 Film Name:    L3-SIG*
G04 File Format:  Gerber RS274X*
G04 File Origin:  15.7-p007*
G04 Origin Date:  Wed Apr 18 17:00:49 2007*
G04 *
G04 Layer:  VIA CLASS/L3-SIG*
G04 Layer:  PIN/L3-SIG*
G04 Layer:  ETCH/L3-SIG*
G04 *
G04 Offset:    (0.00 0.00)*
G04 Mirror:    No*
G04 Mode:      Positive*
G04 Rotation:  0*
G04 FullContactRelief:  No*
G04 UndefLineWidth:     0.00*
G04 ================== end FILE IDENTIFICATION RECORD ====================*
%FSLAX53Y53*MOIN*%
%IR0*IPPOS*OFA0.00000B0.00000*MIA0B0*SFA1.00000B1.00000*%
%ADD13C,.02*%
%ADD11C,.043*%
%ADD20O,.055X.168*%
%ADD14C,.035*%
%ADD19O,.168X.055*%
%ADD18C,.063*%
%ADD15C,.049*%
%ADD12R,.043X.043*%
%ADD23C,.069*%
%ADD21R,.063X.063*%
%ADD16R,.049X.049*%
%ADD22R,.069X.069*%
%ADD17C,.12*%
%ADD10C,.25*%
%ADD24C,.05*%
%ADD25C,.025*%
%ADD26C,.005*%
%ADD27C,.008*%
%ADD28C,.28004*%
G75*
%LPD*%
G75*
G36*
G01X230Y2720D02*
X170D01*
X150Y2740D01*
Y3030D01*
X20Y3160D01*
Y3640D01*
X20Y3930D01*
X70Y3980D01*
X1190D01*
X1210Y3960D01*
Y3660D01*
X1190Y3640D01*
X400D01*
X250Y3490D01*
Y2740D01*
X230Y2720D01*
G37*
%LPC*%
G75*
G54D28*
X200Y3800D03*
%LPD*%
G75*
G54D10*
X200Y200D03*
Y3800D03*
X4800Y200D03*
X4775Y600D03*
Y3400D03*
X4800Y3800D03*
G54D20*
X345Y3305D03*
X589D03*
G54D11*
X66Y776D03*
X145D03*
X66Y697D03*
X145D03*
X66Y619D03*
X145D03*
X66Y540D03*
Y855D03*
X145D03*
X4665Y2390D03*
X4775D03*
G54D21*
X620Y165D03*
X585Y1480D03*
X1070Y460D03*
X860Y3115D03*
X1545Y2730D03*
X2620Y3550D03*
X3600D03*
X4090Y2650D03*
X3870D03*
X4470Y3550D03*
G54D12*
X145Y540D03*
G54D22*
X1825Y125D03*
X2225D03*
X2825D03*
X3225D03*
X3625D03*
X4025D03*
G54D13*
X108Y1008D03*
X150Y958D03*
Y1108D03*
Y1182D03*
X80Y2140D03*
Y2270D03*
Y2210D03*
Y2400D03*
Y2330D03*
X160Y2400D03*
X280Y490D03*
X442Y598D03*
X482Y625D03*
X275Y655D03*
X462Y676D03*
X420Y682D03*
X455Y555D03*
X275Y590D03*
Y555D03*
Y620D03*
X310Y1080D03*
X280Y850D03*
Y1045D03*
X390Y2140D03*
Y2270D03*
Y2210D03*
Y2400D03*
X240D03*
X310D03*
X390Y2330D03*
X695Y510D03*
Y445D03*
X795Y440D03*
X556Y410D03*
X541Y650D03*
X535Y690D03*
X605Y783D03*
Y530D03*
X661Y780D03*
X790Y590D03*
X615Y979D03*
X629Y1109D03*
X670Y1110D03*
X566Y1109D03*
X535Y1000D03*
X565D03*
X724Y1020D03*
X756Y1305D03*
X785Y1735D03*
X720Y2275D03*
Y2310D03*
Y2340D03*
Y2375D03*
X705Y2860D03*
Y2825D03*
Y2895D03*
X800Y2885D03*
Y2820D03*
X685Y3195D03*
X775D03*
X705Y2995D03*
Y2960D03*
Y3030D03*
X680Y2930D03*
X645D03*
X610D03*
X800Y2950D03*
X635Y3485D03*
X670D03*
X705D03*
X740D03*
X635Y3450D03*
X670D03*
X705D03*
X740D03*
X810Y3415D03*
X775D03*
X635D03*
X670D03*
X705D03*
X740D03*
X685Y3265D03*
Y3230D03*
Y3300D03*
X775Y3230D03*
Y3265D03*
X810Y3520D03*
X775D03*
X635D03*
X670D03*
X705D03*
X740D03*
X1020Y625D03*
X1110Y775D03*
X994Y614D03*
X850Y790D03*
X977Y777D03*
X880Y825D03*
X870Y1052D03*
X970Y914D03*
X973Y1072D03*
X876Y1240D03*
X1092Y1135D03*
X955Y1230D03*
X994Y1135D03*
X992Y1610D03*
X955Y1605D03*
X1074Y1996D03*
X915Y1735D03*
X1110Y1855D03*
X1042Y2299D03*
X1082Y2260D03*
X1042D03*
X1002D03*
X1096Y2206D03*
Y2166D03*
X1057Y2166D03*
X1017D03*
X1096Y2126D03*
X1017D03*
X1096Y2086D03*
X1057D03*
Y2126D03*
X1017Y2206D03*
X1002Y2299D03*
X890Y2140D03*
X860D03*
X920D03*
X830D03*
X920Y2110D03*
X890D03*
X860D03*
X920Y2080D03*
X890D03*
X860Y2245D03*
X950Y2150D03*
X1056Y2206D03*
X1096Y2324D03*
X1042Y2338D03*
X1002D03*
X890Y2344D03*
X950Y2405D03*
X1095Y2875D03*
X1065D03*
X1095Y2815D03*
X1065D03*
Y2905D03*
X1095D03*
X1065Y2845D03*
X1095D03*
Y2785D03*
X1065D03*
X990Y2888D03*
X1065Y2965D03*
X1095D03*
Y2935D03*
X1065D03*
X965Y3210D03*
X1015D03*
X1065D03*
X965Y3510D03*
Y3460D03*
Y3410D03*
X1015D03*
Y3460D03*
Y3510D03*
X1065Y3410D03*
Y3460D03*
Y3510D03*
X880Y3415D03*
X845D03*
X965Y3360D03*
Y3310D03*
Y3260D03*
X1015Y3360D03*
Y3310D03*
Y3260D03*
X1065D03*
Y3310D03*
Y3360D03*
X965Y3610D03*
Y3560D03*
X1015D03*
Y3610D03*
X1065Y3560D03*
Y3610D03*
X880Y3520D03*
X845D03*
X965Y3760D03*
Y3710D03*
Y3660D03*
X1015Y3760D03*
Y3710D03*
Y3660D03*
X1065Y3760D03*
Y3710D03*
Y3660D03*
X1254Y100D03*
X1255Y330D03*
X1320Y625D03*
X1200D03*
X1132Y532D03*
X1260Y625D03*
X1140D03*
X1350Y935D03*
X1191Y1135D03*
X1230D03*
X1269D03*
X1348D03*
X1210Y1220D03*
X1171D03*
X1282Y1610D03*
X1245Y1605D03*
X1362Y1994D03*
X1253Y1972D03*
X1175Y1735D03*
X1305D03*
X1208Y1825D03*
X1235Y1994D03*
X1195Y1996D03*
X1272Y1994D03*
X1300Y1972D03*
X1115Y1996D03*
X1155D03*
X1253Y2166D03*
X1175Y2126D03*
X1214Y2126D03*
X1135Y2166D03*
Y2126D03*
Y2086D03*
X1293Y2246D03*
X1214D03*
Y2206D03*
Y2166D03*
X1175D03*
Y2086D03*
X1253Y2286D03*
Y2246D03*
X1175D03*
Y2206D03*
X1293Y2128D03*
Y2286D03*
Y2206D03*
X1360Y2212D03*
X1293Y2166D03*
X1122Y2299D03*
X1135Y2246D03*
X1253Y2206D03*
X1214Y2284D03*
X1122Y2378D03*
X1135Y2324D03*
X1175D03*
X1253D03*
X1293D03*
X1365Y2780D03*
X1185Y2875D03*
X1125D03*
X1155D03*
X1185Y2815D03*
X1125D03*
X1155D03*
Y2905D03*
X1125D03*
X1185D03*
X1155Y2845D03*
X1125D03*
X1185D03*
X1125Y2785D03*
X1155D03*
X1365Y2755D03*
Y2730D03*
Y2705D03*
Y2680D03*
X1345Y2670D03*
X1320D03*
X1300Y2680D03*
Y2705D03*
Y2730D03*
Y2755D03*
Y2780D03*
X1200Y2675D03*
Y2700D03*
Y2725D03*
Y2750D03*
X1225Y2760D03*
X1255D03*
X1185Y2965D03*
X1155D03*
X1125D03*
X1185Y2935D03*
X1125D03*
X1155D03*
X1115Y3210D03*
X1165D03*
X1215D03*
X1265D03*
X1315D03*
X1365D03*
X1265Y3090D03*
Y3065D03*
Y3040D03*
Y3015D03*
X1205Y3090D03*
X1250Y2990D03*
X1225D03*
X1235Y3090D03*
X1205Y3065D03*
Y3040D03*
Y3015D03*
X1115Y3410D03*
Y3460D03*
Y3510D03*
X1165Y3410D03*
Y3460D03*
Y3510D03*
X1215Y3410D03*
Y3460D03*
Y3510D03*
X1265Y3410D03*
Y3460D03*
Y3510D03*
X1315Y3410D03*
Y3460D03*
Y3510D03*
X1115Y3360D03*
Y3310D03*
Y3260D03*
X1165D03*
Y3310D03*
Y3360D03*
X1215D03*
Y3310D03*
Y3260D03*
X1265D03*
Y3310D03*
Y3360D03*
X1315D03*
Y3310D03*
Y3260D03*
X1365D03*
Y3310D03*
Y3360D03*
X1115Y3560D03*
Y3610D03*
X1165Y3560D03*
Y3610D03*
X1215Y3560D03*
X1115Y3760D03*
Y3710D03*
X1165Y3760D03*
Y3710D03*
Y3660D03*
X1115D03*
X1575Y151D03*
Y177D03*
Y125D03*
Y100D03*
Y202D03*
Y330D03*
Y305D03*
X1576Y228D03*
Y253D03*
X1490Y796D03*
Y678D03*
X1491Y639D03*
X1491Y855D03*
X1490Y1072D03*
X1576Y1092D03*
X1575Y914D03*
X1490Y934D03*
X1695Y1270D03*
X1427Y1135D03*
X1435Y1388D03*
X1505Y1485D03*
X1558Y2002D03*
X1500Y1854D03*
X1558Y2308D03*
Y2282D03*
X1562Y2230D03*
X1558Y2178D03*
Y2027D03*
Y2052D03*
Y2078D03*
Y2102D03*
Y2128D03*
Y2152D03*
X1420Y2212D03*
Y2278D03*
X1558Y2458D03*
Y2432D03*
Y2408D03*
Y2382D03*
Y2358D03*
Y2332D03*
X1415Y3210D03*
Y3260D03*
Y3310D03*
X1850Y778D03*
X1825Y804D03*
Y753D03*
Y651D03*
X1850Y676D03*
Y727D03*
X1825Y702D03*
X1822Y983D03*
X1850Y830D03*
Y958D03*
X1725Y1075D03*
X1824Y1034D03*
X1824Y1111D03*
X1825Y881D03*
Y932D03*
X1850Y906D03*
X1852Y1086D03*
X1850Y1290D03*
X1825Y1214D03*
Y1367D03*
X1735Y1188D03*
X1850Y1342D03*
X1825Y1265D03*
X1850Y1393D03*
X1825Y1316D03*
X1841Y1162D03*
X1862Y1239D03*
X1725Y1475D03*
X1825Y1418D03*
Y1469D03*
X1850Y1444D03*
X1943Y1738D03*
X1918D03*
X1892D03*
X1992D03*
X1968D03*
X1845Y1755D03*
X1916Y1985D03*
X1891Y1984D03*
X1875Y1840D03*
X1810Y2258D03*
X1945Y2215D03*
X1820D03*
X1916Y2505D03*
X1825Y2475D03*
X1885Y2505D03*
X1892Y2752D03*
X1918D03*
X1943D03*
X1968D03*
X1992D03*
X1790Y2790D03*
X1845Y2740D03*
X1790Y2760D03*
Y2730D03*
Y2700D03*
Y2670D03*
X1845Y2620D03*
X1820Y3185D03*
X1860D03*
X1900D03*
X1940D03*
Y3345D03*
X1980Y3305D03*
X1940D03*
Y3265D03*
Y3225D03*
X1900D03*
Y3265D03*
Y3305D03*
Y3345D03*
X1860Y3225D03*
Y3265D03*
Y3305D03*
Y3345D03*
X1820Y3305D03*
Y3345D03*
Y3385D03*
Y3425D03*
Y3225D03*
Y3265D03*
X1940Y3385D03*
X1900D03*
X1860D03*
X1900Y3425D03*
X1860D03*
X1940Y3735D03*
X1975D03*
X2010D03*
X2137Y804D03*
X2307Y702D03*
X2172Y651D03*
X2266Y676D03*
X2280Y727D03*
X2172Y753D03*
X2266Y778D03*
X2288Y1086D03*
X2265Y855D03*
Y930D03*
X2170Y830D03*
X2155Y1005D03*
X2288Y1009D03*
X2260Y1040D03*
X2265Y960D03*
X2180Y906D03*
X2277Y1162D03*
X2155Y1130D03*
X2125Y1190D03*
X2165Y1265D03*
X2125Y1340D03*
X2262Y1342D03*
X2263Y1188D03*
X2125Y1290D03*
X2145Y1389D03*
X2295Y1214D03*
Y1316D03*
Y1367D03*
X2265Y1239D03*
Y1465D03*
X2280Y1418D03*
X2295Y1444D03*
X2312Y1738D03*
X2068D03*
X2042D03*
X2018D03*
X2265Y1750D03*
X2190D03*
X2115D03*
X2044Y1985D03*
X2223D03*
X2147D03*
X2295Y1840D03*
X2085D03*
X2070Y1985D03*
X2300D03*
X2190Y1870D03*
X2080Y2050D03*
X2147Y2505D03*
X2044D03*
X2300Y2505D03*
X2070Y2505D03*
X2018Y2752D03*
X2068D03*
X2302D03*
X2255Y2740D03*
X2185D03*
X2115D03*
X2255Y2620D03*
X2115D03*
X2185D03*
X2055Y3305D03*
X2020D03*
X2095Y3710D03*
X2060D03*
X2130D03*
X2215Y3735D03*
X2180D03*
X2250D03*
X2130Y3685D03*
X2060D03*
X2095D03*
Y3820D03*
X2060D03*
X2130D03*
X2575Y155D03*
X2438Y662D03*
Y798D03*
Y712D03*
Y688D03*
Y638D03*
Y562D03*
Y612D03*
Y738D03*
X2540Y755D03*
X2570D03*
X2600D03*
X2570Y545D03*
X2600D03*
X2540D03*
X2438Y588D03*
Y772D03*
Y898D03*
Y1058D03*
X2322Y983D03*
X2438Y948D03*
Y922D03*
Y1032D03*
X2600Y965D03*
X2540D03*
X2570D03*
X2438Y1008D03*
Y982D03*
Y1108D03*
Y822D03*
Y848D03*
Y872D03*
Y1082D03*
Y1158D03*
Y1193D03*
Y1132D03*
Y1268D03*
X2480Y1380D03*
X2438Y1400D03*
Y1342D03*
Y1218D03*
X2540Y1385D03*
X2570D03*
X2600D03*
X2540Y1175D03*
X2570D03*
X2600D03*
X2438Y1292D03*
Y1318D03*
Y1242D03*
Y1475D03*
Y1425D03*
Y1525D03*
Y1575D03*
Y1550D03*
Y1500D03*
X2540Y1590D03*
X2570D03*
X2600D03*
X2438Y1450D03*
X2488Y1738D03*
X2462D03*
X2438D03*
X2412D03*
X2388D03*
X2363D03*
X2338D03*
X2535Y1750D03*
X2326Y1985D03*
X2454D03*
X2505Y1840D03*
X2479Y1984D03*
X2560Y2232D03*
X2420Y2280D03*
X2562Y2053D03*
X2561Y2079D03*
X2562Y2283D03*
X2420Y2020D03*
Y2085D03*
Y2150D03*
X2561Y2181D03*
X2454Y2506D03*
X2326Y2505D03*
X2561Y2411D03*
X2420Y2410D03*
X2479Y2505D03*
X2352Y2752D03*
X2378D03*
X2402D03*
X2428D03*
X2452D03*
X2478D03*
X2525Y2740D03*
Y2620D03*
X2415Y3690D03*
X2380D03*
X2450D03*
X2470Y3725D03*
Y3760D03*
Y3795D03*
X2360Y3760D03*
Y3795D03*
Y3725D03*
X2415Y3855D03*
X2380D03*
X2450D03*
X2470Y3830D03*
X2360D03*
X2778Y772D03*
Y562D03*
Y588D03*
Y612D03*
Y638D03*
Y738D03*
Y688D03*
Y712D03*
X2680Y755D03*
X2710D03*
X2740D03*
X2680Y545D03*
X2710D03*
X2740D03*
X2630Y755D03*
Y545D03*
X2778Y798D03*
Y1082D03*
Y1058D03*
Y1008D03*
Y1108D03*
X2680Y965D03*
X2710D03*
X2740D03*
X2630D03*
X2778Y898D03*
Y872D03*
Y848D03*
Y822D03*
Y1158D03*
Y1132D03*
Y1342D03*
Y1318D03*
Y1242D03*
Y1218D03*
Y1193D03*
X2680Y1385D03*
X2710D03*
X2740D03*
X2680Y1175D03*
X2710D03*
X2740D03*
X2630Y1385D03*
Y1175D03*
X2778Y1475D03*
Y1525D03*
X2680Y1590D03*
X2710D03*
X2740D03*
X2630D03*
X2812Y2058D03*
Y2033D03*
X2800Y2260D03*
X2660Y2258D03*
X2812Y2208D03*
Y2312D03*
Y2158D03*
Y2132D03*
Y2182D03*
X2815Y2490D03*
X2813Y2463D03*
X2812Y2388D03*
Y2363D03*
Y2338D03*
Y2438D03*
X2800Y3185D03*
X2880D03*
X2840D03*
X2800Y3305D03*
Y3345D03*
Y3385D03*
Y3425D03*
Y3225D03*
Y3265D03*
X2840Y3345D03*
Y3305D03*
Y3265D03*
Y3225D03*
X2880Y3345D03*
Y3305D03*
Y3265D03*
Y3225D03*
X2945Y1055D03*
X3155Y1322D03*
X3198Y1365D03*
X3182Y1608D03*
X3155Y1636D03*
X3127Y1608D03*
X3182Y1552D03*
X3155Y1524D03*
X3099Y1580D03*
X3182Y1664D03*
X3210Y1636D03*
Y1691D03*
Y1580D03*
X2945Y2105D03*
X2946Y2430D03*
X2920Y3185D03*
X2960Y3305D03*
X2920Y3225D03*
Y3265D03*
Y3305D03*
Y3345D03*
X3035Y3305D03*
X3000D03*
X2955Y3735D03*
X2920D03*
X2990D03*
X3075Y3685D03*
X3040D03*
X3110D03*
X3160Y3735D03*
X3195D03*
X3110Y3710D03*
X3040D03*
X3075D03*
X3110Y3820D03*
X3040D03*
X3075D03*
X3380Y455D03*
X3462Y480D03*
X3288D03*
X3500Y630D03*
X3380D03*
X3325Y1010D03*
X3295D03*
X3265D03*
X3245Y985D03*
Y955D03*
Y925D03*
X3500Y865D03*
X3516Y1385D03*
X3322Y1413D03*
X3294Y1385D03*
X3377Y1302D03*
X3433Y1246D03*
X3405Y1329D03*
Y1274D03*
X3349Y1385D03*
X3489Y1413D03*
Y1357D03*
X3433Y1302D03*
X3461Y1274D03*
X3489Y1246D03*
X3315Y1162D03*
X3377Y1413D03*
X3433Y1357D03*
X3489Y1302D03*
X3461Y1385D03*
X3516Y1329D03*
X3461D03*
X3358Y1205D03*
X3461Y1218D03*
X3516Y1274D03*
Y1719D03*
Y1441D03*
X3433Y1524D03*
X3405Y1552D03*
X3322Y1691D03*
X3266D03*
X3238Y1719D03*
X3405Y1496D03*
X3294Y1441D03*
X3238Y1496D03*
X3349Y1441D03*
X3238Y1552D03*
X3433Y1469D03*
X3377D03*
X3516Y1552D03*
X3294Y1664D03*
X3266Y1636D03*
X3322Y1580D03*
X3266Y1524D03*
X3322Y1469D03*
X3461Y1664D03*
X3266Y1580D03*
X3489Y1636D03*
X3461Y1608D03*
Y1552D03*
X3489Y1524D03*
X3294Y1608D03*
Y1552D03*
X3405Y1719D03*
X3349Y1664D03*
X3322Y1636D03*
X3349Y1608D03*
X3322Y1524D03*
X3349Y1496D03*
X3405Y1441D03*
X3294Y1719D03*
X3433Y1636D03*
X3377D03*
Y1580D03*
X3238Y1608D03*
X3349Y1719D03*
X3405Y1664D03*
Y1608D03*
X3238Y1664D03*
X3377Y1691D03*
X3433D03*
X3294Y1496D03*
X3461D03*
X3349Y1552D03*
X3377Y1524D03*
X3489Y1747D03*
X3516Y1998D03*
X3461Y1831D03*
X3472Y1966D03*
X3516Y1886D03*
X3405Y1831D03*
X3489Y1858D03*
X3433Y1803D03*
X3377Y1747D03*
Y1858D03*
X3516Y1775D03*
X3266Y1747D03*
X3294Y1775D03*
X3322Y1803D03*
X3433Y1914D03*
X3516Y1831D03*
X3461Y1775D03*
X3322Y1747D03*
X3349Y1775D03*
X3461Y1886D03*
X3405D03*
X3489Y1914D03*
X3461Y1942D03*
X3489Y1803D03*
X3433Y1858D03*
X3230Y3735D03*
X3340Y3725D03*
Y3795D03*
Y3760D03*
X3450D03*
Y3795D03*
Y3725D03*
X3430Y3690D03*
X3360D03*
X3395D03*
X3340Y3830D03*
X3450D03*
X3430Y3855D03*
X3360D03*
X3395D03*
X3770Y426D03*
X3638Y480D03*
X3812D03*
X3740Y590D03*
X3675Y810D03*
X3535Y630D03*
X3565D03*
X3600D03*
X3675Y850D03*
Y890D03*
X3535Y865D03*
X3565D03*
X3600D03*
Y1190D03*
X3628Y1218D03*
X3656Y1302D03*
X3544Y1413D03*
X3684Y1274D03*
X3544Y1190D03*
Y1302D03*
X3767Y1357D03*
X3711Y1302D03*
X3600D03*
X3656Y1246D03*
X3572Y1218D03*
X3711Y1413D03*
X3656Y1135D03*
X3711Y1357D03*
X3795Y1274D03*
X3628D03*
Y1162D03*
X3684Y1385D03*
X3795Y1329D03*
X3739Y1385D03*
X3684Y1329D03*
X3628D03*
X3572Y1274D03*
X3600Y1246D03*
Y1357D03*
X3684Y1162D03*
X3656Y1357D03*
X3767Y1302D03*
X3628Y1385D03*
X3656Y1190D03*
Y1413D03*
X3739Y1329D03*
X3572Y1385D03*
X3544Y1357D03*
X3572Y1329D03*
X3544Y1246D03*
X3739Y1496D03*
X3767Y1691D03*
X3795Y1719D03*
Y1664D03*
X3628D03*
X3600Y1636D03*
X3656Y1580D03*
X3544D03*
X3600Y1524D03*
X3572Y1496D03*
X3684Y1608D03*
X3572Y1441D03*
X3628D03*
X3656Y1469D03*
X3739Y1608D03*
Y1552D03*
X3628Y1719D03*
X3711Y1636D03*
X3572Y1719D03*
X3711Y1524D03*
X3544Y1691D03*
X3767Y1469D03*
X3795Y1441D03*
X3684D03*
X3767Y1524D03*
X3795Y1496D03*
Y1608D03*
X3767Y1636D03*
X3739Y1664D03*
X3684Y1719D03*
X3795Y1552D03*
Y1886D03*
X3751Y1949D03*
X3767Y1914D03*
X3739Y1775D03*
X3767Y1803D03*
X3711Y1858D03*
X3572Y1775D03*
X3628Y1831D03*
X3600Y1803D03*
X3684Y1831D03*
X3656Y1747D03*
X3544Y1970D03*
X3628Y1886D03*
Y1998D03*
X3656Y1803D03*
Y1970D03*
X3684Y1998D03*
Y1775D03*
X3656Y1914D03*
X3739Y1886D03*
X3767Y1858D03*
X3628Y1942D03*
X3684Y1886D03*
X3739Y1831D03*
X3544Y1914D03*
X3600Y1858D03*
X3544Y1803D03*
X3572Y1831D03*
X3600Y1914D03*
X3656Y1858D03*
X3711Y1803D03*
X3572Y1886D03*
X3544Y1858D03*
X3572Y1942D03*
X3544Y1747D03*
X3600Y1970D03*
X3711Y1747D03*
X3572Y1998D03*
X3628Y1775D03*
X3600Y2081D03*
X3656Y2025D03*
X3572Y2053D03*
X3600Y2025D03*
X3544D03*
X3628Y2053D03*
X3570Y2830D03*
X3600D03*
X3630D03*
X3660D03*
X3570Y2800D03*
Y2770D03*
Y2740D03*
X3775Y3185D03*
Y3305D03*
Y3345D03*
Y3385D03*
Y3425D03*
Y3225D03*
Y3265D03*
X3840Y404D03*
X3910Y380D03*
X4088Y444D03*
X4063D03*
X3994Y384D03*
X3935Y454D03*
X3960Y660D03*
X3945Y590D03*
X4015D03*
X4085D03*
X3855Y810D03*
X3876Y590D03*
X3935Y660D03*
X3990Y914D03*
X3855Y890D03*
Y850D03*
X3920Y914D03*
X4055D03*
X4090D03*
X3823Y1357D03*
X3823Y1413D03*
X3851Y1385D03*
X3867Y1161D03*
X4095Y1373D03*
X3878Y1357D03*
X3849Y1143D03*
X4072Y1350D03*
X3823Y1302D03*
X3934Y1413D03*
X3851Y1329D03*
X3851Y1441D03*
X3823Y1469D03*
X4018Y1552D03*
X4045Y1580D03*
X3823Y1524D03*
X4045D03*
X4073Y1552D03*
X3906Y1719D03*
X3934Y1691D03*
X3962Y1719D03*
Y1664D03*
X3990Y1691D03*
Y1636D03*
X4018Y1664D03*
Y1608D03*
X4045Y1636D03*
X3823D03*
X3878Y1691D03*
X3962Y1552D03*
X3878Y1580D03*
X3851Y1608D03*
Y1664D03*
X3990Y1580D03*
X3851Y1719D03*
X3906Y1664D03*
X3962Y1608D03*
X3934Y1524D03*
X3878D03*
Y1469D03*
X3906Y1552D03*
X3823Y1691D03*
X3878Y1636D03*
X3934Y1580D03*
X3851Y1552D03*
X3906Y1496D03*
X3851D03*
X3990Y1524D03*
X4018Y1496D03*
X3906Y1441D03*
X3823Y1580D03*
X3906Y1608D03*
X3934Y1636D03*
X3823Y1858D03*
Y1747D03*
X3878D03*
X3906Y1775D03*
X3934Y1747D03*
X3851Y1775D03*
X3878Y1803D03*
X3895Y3185D03*
X3855D03*
X3815D03*
X3935Y3305D03*
X3815Y3345D03*
Y3305D03*
Y3265D03*
Y3225D03*
X3855Y3345D03*
Y3305D03*
Y3265D03*
Y3225D03*
X3895D03*
Y3265D03*
Y3305D03*
Y3345D03*
X4010Y3305D03*
X3975D03*
X3935Y3735D03*
X3900D03*
X3970D03*
X4055Y3685D03*
X4020D03*
X4090D03*
Y3710D03*
X4020D03*
X4055D03*
X4090Y3820D03*
X4020D03*
X4055D03*
X4165Y445D03*
X4330Y500D03*
X4190D03*
X4225Y555D03*
X4333Y713D03*
X4183Y625D03*
X4400Y595D03*
X4120Y914D03*
X4155D03*
X4245Y2513D03*
X4165Y2616D03*
X4370Y2850D03*
Y2790D03*
Y2740D03*
X4270Y2850D03*
Y2790D03*
Y2740D03*
X4161Y2641D03*
X4160Y2667D03*
X4390D03*
X4370Y3040D03*
Y2980D03*
Y2930D03*
X4270D03*
Y2980D03*
Y3040D03*
X4210Y3735D03*
X4140D03*
X4175D03*
X4602Y1062D03*
Y1087D03*
Y1180D03*
Y1205D03*
Y1416D03*
Y1441D03*
X4566Y1850D03*
X4534Y1980D03*
X4602Y1849D03*
Y1968D03*
Y1874D03*
Y1993D03*
Y1756D03*
Y1731D03*
Y2086D03*
Y2111D03*
Y2204D03*
Y2229D03*
Y2603D03*
X4775Y832D03*
X4965Y960D03*
X4828Y969D03*
X4722Y1003D03*
Y1028D03*
X4725Y956D03*
Y1075D03*
X4828Y944D03*
X4948Y1003D03*
X4828Y1062D03*
X4948Y1028D03*
X4828Y1087D03*
X4775Y1200D03*
X4805Y1280D03*
X4965Y1310D03*
Y1190D03*
X4722Y1240D03*
Y1265D03*
X4725Y1193D03*
X4722Y1311D03*
X4948Y1122D03*
X4828Y1180D03*
X4948Y1240D03*
X4828Y1298D03*
X4948Y1358D03*
Y1147D03*
X4828Y1205D03*
X4948Y1265D03*
X4828Y1323D03*
X4948Y1383D03*
X4775Y1595D03*
Y1445D03*
Y1620D03*
X4965Y1600D03*
Y1575D03*
Y1625D03*
X4722Y1476D03*
Y1501D03*
X4725Y1430D03*
X4828Y1416D03*
X4948Y1476D03*
X4828Y1441D03*
X4948Y1501D03*
X4775Y2005D03*
Y1770D03*
X4965Y1740D03*
X4828Y1756D03*
X4722Y1791D03*
Y1909D03*
X4725Y1744D03*
Y1862D03*
Y1980D03*
X4722Y1816D03*
Y1934D03*
X4828Y1731D03*
X4948Y1791D03*
X4828Y1849D03*
X4948Y1909D03*
X4828Y1968D03*
X4948Y1816D03*
X4828Y1874D03*
X4948Y1934D03*
X4828Y1993D03*
X4948Y2027D03*
X4722D03*
X4948Y2052D03*
X4722D03*
X4828Y2086D03*
Y2111D03*
X4948Y2145D03*
X4722D03*
X4948Y2170D03*
X4722D03*
X4828Y2204D03*
Y2229D03*
X4965Y2100D03*
X4725Y2218D03*
Y2095D03*
X4948Y2263D03*
X4722D03*
X4948Y2288D03*
X4722D03*
X4828Y2603D03*
X4940Y2440D03*
X4920Y2460D03*
Y2420D03*
X4940Y2400D03*
X4920Y2380D03*
X4940Y2360D03*
Y2480D03*
Y2320D03*
X4920Y2340D03*
X4775Y2770D03*
Y3020D03*
Y3170D03*
G54D23*
X1825Y302D03*
X2081Y125D03*
Y302D03*
X2225D03*
X2481Y125D03*
Y302D03*
X2825D03*
X3081Y125D03*
Y302D03*
X3225D03*
X3481Y125D03*
Y302D03*
X3625D03*
X3881Y125D03*
Y302D03*
X4025D03*
X4281Y125D03*
Y302D03*
G54D14*
X155Y1285D03*
X156Y1415D03*
Y1350D03*
X155Y1480D03*
Y1545D03*
X85Y1835D03*
X173Y1845D03*
X85Y1964D03*
X408Y490D03*
X285Y1545D03*
X410Y1870D03*
X321Y1981D03*
X230Y1964D03*
X470Y2805D03*
X575Y2590D03*
X845Y1338D03*
X1078Y1872D03*
X855Y2187D03*
Y2073D03*
X830Y2720D03*
X1135Y1240D03*
X1280Y3805D03*
X1385D03*
X1240Y3730D03*
X1420Y3935D03*
X1280D03*
X1350D03*
X1670Y620D03*
Y820D03*
X1535Y3460D03*
Y3510D03*
Y3260D03*
X1665Y3460D03*
Y3770D03*
Y3690D03*
Y3600D03*
Y3530D03*
X1535Y3690D03*
Y3770D03*
X1490Y3805D03*
X1460Y3560D03*
X1490Y3935D03*
X1750Y1738D03*
Y1940D03*
X1995Y3155D03*
X2160Y3335D03*
X2260Y3485D03*
X2330Y3130D03*
X2946Y988D03*
X3095Y1027D03*
X2980Y3160D03*
X3180D03*
X3140Y3335D03*
X3240Y3485D03*
X3955Y3160D03*
X4120Y3335D03*
X4165Y3160D03*
X4225Y3480D03*
G54D24*
G01X400Y1766D02*
Y1290D01*
G54D15*
X200Y2775D03*
X100Y3015D03*
X200D03*
X300Y2775D03*
Y3015D03*
G54D25*
G01X150Y958D02*
Y1108D01*
G01D02*
X148D01*
X106Y1150D01*
Y1365D01*
X156Y1415D01*
G01D02*
X285Y1544D01*
Y1545D01*
G01X321Y1981D02*
X285Y1945D01*
Y1545D01*
G01X1078Y1872D02*
X916Y2034D01*
X300D01*
X230Y1964D01*
G01X1200Y2700D02*
X850D01*
X830Y2720D01*
G01X1460Y3560D02*
X1410D01*
X1240Y3730D01*
G01X1665Y3460D02*
X1565Y3560D01*
X1460D01*
G54D16*
X100Y2775D03*
G54D26*
G01X1558Y2102D02*
X1422D01*
X1298Y2226D01*
X1145D01*
X1096Y2177D01*
Y2166D01*
G01X1558Y2128D02*
X1476D01*
X1298Y2306D01*
X1172D01*
X1146Y2280D01*
X1072D01*
X1062Y2270D01*
Y2248D01*
X1036Y2222D01*
Y2187D01*
X1057Y2166D01*
G01X1558Y2152D02*
X1508D01*
X1314Y2346D01*
X1126D01*
X1116Y2336D01*
Y2318D01*
X1098Y2300D01*
X1072D01*
X1052Y2280D01*
X1032D01*
X1022Y2270D01*
Y2244D01*
X994Y2216D01*
Y2189D01*
X1017Y2166D01*
G01Y2126D02*
X972Y2171D01*
Y2336D01*
X1068Y2432D01*
X1558D01*
G01X2412Y1738D02*
X2365Y1690D01*
X1742D01*
X1672Y1760D01*
X1657Y1775D01*
X1392Y2040D01*
X1112D01*
X1076Y2076D01*
Y2220D01*
X1124Y2268D01*
X1192D01*
X1214Y2246D01*
G01X1096Y2324D02*
X1092Y2320D01*
X1032D01*
X1022Y2330D01*
Y2352D01*
X1066Y2396D01*
X1396D01*
X1562Y2230D01*
G01X1042Y2338D02*
X1064Y2360D01*
X1375D01*
X1558Y2178D01*
G01X1175Y2126D02*
X1231Y2070D01*
X1404D01*
X1687Y1787D01*
X1765D01*
X1832Y1720D01*
X1900D01*
X1918Y1738D01*
G01X1214Y2126D02*
X1260Y2080D01*
X1409D01*
X1691Y1797D01*
X1769D01*
X1829Y1738D01*
X1892D01*
G01X1558Y2078D02*
X1426D01*
X1356Y2148D01*
X1153D01*
X1135Y2166D01*
G01X2363Y1738D02*
X2325Y1700D01*
X1746D01*
X1679Y1767D01*
X1667Y1779D01*
X1396Y2050D01*
X1140D01*
X1116Y2074D01*
Y2171D01*
X1131Y2186D01*
X1194D01*
X1214Y2166D01*
G01X1175Y2086D02*
X1201Y2060D01*
X1400D01*
X1683Y1777D01*
X1761D01*
X1828Y1710D01*
X2285D01*
X2312Y1738D01*
G01X3751Y1949D02*
Y1963D01*
X3670Y2044D01*
X3646D01*
X3634Y2032D01*
X3620D01*
X3606Y2046D01*
X3594D01*
X3580Y2032D01*
X3566D01*
X3552Y2046D01*
X3460D01*
X3440Y2026D01*
X3374Y1960D01*
X1832D01*
X1562Y2230D01*
G01X2438Y662D02*
X2388D01*
X2296Y570D01*
X2088D01*
X2084Y574D01*
Y580D01*
X2088Y584D01*
X2130D01*
X2134Y588D01*
Y593D01*
X2130Y597D01*
X2062D01*
X1982Y677D01*
X1927Y732D01*
Y765D01*
X1914Y778D01*
X1850D01*
G01X2438Y712D02*
X2396D01*
X2283Y600D01*
X2170D01*
X2111Y659D01*
X2042D01*
X2012Y689D01*
X1957Y744D01*
Y767D01*
X1962Y772D01*
X1989D01*
X1994Y777D01*
Y784D01*
X1989Y789D01*
X1962D01*
X1957Y794D01*
Y803D01*
X1930Y830D01*
X1850D01*
G01X1825Y804D02*
X1926D01*
X1942Y788D01*
Y738D01*
X1997Y683D01*
X2036Y644D01*
X2105D01*
X2110Y639D01*
Y632D01*
X2105Y628D01*
X2079D01*
X2074Y623D01*
Y617D01*
X2079Y612D01*
X2137D01*
X2164Y585D01*
X2289D01*
X2392Y688D01*
X2438D01*
G01Y638D02*
X2389D01*
X2379Y628D01*
X2374D01*
X2302Y555D01*
X2082D01*
X2041Y595D01*
X1955D01*
X1950Y600D01*
Y607D01*
X1955Y612D01*
X2008D01*
X2012Y616D01*
Y625D01*
X1884Y753D01*
X1825D01*
G01X1850Y676D02*
X1897D01*
X1902Y671D01*
Y663D01*
X1897Y658D01*
X1871D01*
X1866Y653D01*
Y647D01*
X1871Y642D01*
X1899D01*
X1903Y638D01*
Y628D01*
X1899Y624D01*
X1887D01*
X1882Y619D01*
Y612D01*
X1887Y607D01*
X1894D01*
X1900Y601D01*
Y577D01*
X1967Y510D01*
X2321D01*
X2373Y562D01*
X2438D01*
G01X1850Y727D02*
X1888D01*
X1973Y643D01*
Y633D01*
X1968Y628D01*
X1944D01*
X1934Y618D01*
Y588D01*
X1944Y578D01*
X2033D01*
X2038Y573D01*
Y563D01*
X2033Y558D01*
X2029D01*
X2024Y553D01*
Y545D01*
X2029Y540D01*
X2308D01*
X2381Y612D01*
X2438D01*
G01X1825Y702D02*
X1893D01*
X1918Y676D01*
Y582D01*
X1939Y561D01*
X2001D01*
X2006Y556D01*
Y549D01*
X2001Y544D01*
X1973D01*
X1968Y539D01*
Y530D01*
X1973Y525D01*
X2314D01*
X2377Y588D01*
X2438D01*
G01X2280Y727D02*
X2221D01*
X2198Y704D01*
X2094D01*
X2057Y741D01*
X1991D01*
X1986Y746D01*
Y752D01*
X1991Y757D01*
X2064D01*
X2102Y719D01*
X2191D01*
X2218Y746D01*
X2283D01*
X2360Y822D01*
X2438D01*
G01Y898D02*
X2359D01*
X2282Y821D01*
X2203D01*
X2190Y808D01*
X2162D01*
X2150Y820D01*
Y851D01*
X2120Y881D01*
X1977D01*
X1972Y876D01*
Y869D01*
X1977Y864D01*
X2113D01*
X2118Y859D01*
Y852D01*
X2113Y847D01*
X2101D01*
X2096Y842D01*
Y835D01*
X2101Y830D01*
X2132D01*
X2137Y825D01*
Y804D01*
G01X2288Y1086D02*
X2280Y1078D01*
X1974D01*
X1970Y1082D01*
Y1089D01*
X1974Y1093D01*
X2266D01*
X2331Y1158D01*
X2438D01*
G01Y948D02*
X2364D01*
X2311Y895D01*
X2245D01*
X2195Y945D01*
X1973D01*
X1968Y940D01*
Y933D01*
X1973Y928D01*
X2190D01*
X2263Y855D01*
X2265D01*
G01X2438Y1132D02*
X2364D01*
X2295Y1063D01*
X1961D01*
X1888Y1136D01*
X1807D01*
X1800Y1129D01*
Y1005D01*
X1822Y983D01*
G01X2170Y830D02*
Y844D01*
X2176Y850D01*
X2195D01*
X2200Y855D01*
Y865D01*
X2195Y870D01*
X2152D01*
X2126Y896D01*
X1975D01*
X1970Y901D01*
Y908D01*
X1975Y913D01*
X2131D01*
X2158Y886D01*
X2206D01*
X2256Y836D01*
X2276D01*
X2363Y922D01*
X2438D01*
G01Y1032D02*
X2340D01*
X2298Y990D01*
X2282D01*
X2279Y993D01*
X2256D01*
X2216Y1033D01*
X1853D01*
X1848Y1028D01*
Y1020D01*
X1853Y1015D01*
X1917D01*
X1922Y1010D01*
Y1001D01*
X1917Y996D01*
X1860D01*
X1850Y986D01*
Y958D01*
G01X2438Y1008D02*
X2374D01*
X2326Y960D01*
X2290D01*
X2272Y978D01*
X2150D01*
X2112Y1016D01*
X1949D01*
X1944Y1011D01*
Y1003D01*
X1949Y998D01*
X2005D01*
X2010Y993D01*
Y985D01*
X2005Y980D01*
X1889D01*
X1884Y975D01*
Y942D01*
X1874Y932D01*
X1825D01*
G01X2438Y982D02*
X2378D01*
X2305Y910D01*
X2252D01*
X2199Y963D01*
X2137D01*
X2102Y998D01*
X2031D01*
X2026Y993D01*
Y985D01*
X2031Y980D01*
X2053D01*
X2058Y975D01*
Y965D01*
X2053Y960D01*
X1923D01*
X1870Y906D01*
X1850D01*
G01X2172Y753D02*
X2110D01*
X2044Y819D01*
X1976D01*
X1972Y815D01*
Y809D01*
X1976Y804D01*
X2037D01*
X2042Y800D01*
Y794D01*
X2037Y789D01*
X2015D01*
X2010Y784D01*
Y777D01*
X2015Y772D01*
X2070D01*
X2108Y734D01*
X2185D01*
X2212Y761D01*
X2276D01*
X2292Y776D01*
Y788D01*
X2351Y848D01*
X2438D01*
G01X2266Y778D02*
X2167D01*
X2156Y768D01*
X2116D01*
X2050Y834D01*
X1976D01*
X1972Y838D01*
Y845D01*
X1976Y849D01*
X2057D01*
X2124Y782D01*
X2150D01*
X2161Y793D01*
X2196D01*
X2209Y806D01*
X2288D01*
X2355Y872D01*
X2438D01*
G01Y1082D02*
X2346D01*
X2301Y1038D01*
X2288D01*
X2270Y1020D01*
X2250D01*
X2222Y1048D01*
X1865D01*
X1860Y1053D01*
Y1061D01*
X1865Y1066D01*
X1917D01*
X1922Y1071D01*
Y1081D01*
X1917Y1086D01*
X1881D01*
X1876Y1091D01*
Y1115D01*
X1871Y1120D01*
X1858D01*
X1852Y1115D01*
Y1086D01*
G01X2438Y1475D02*
X2411D01*
X2357Y1529D01*
X2071D01*
X1935Y1393D01*
Y1267D01*
X1904Y1236D01*
X1889D01*
X1884Y1241D01*
Y1249D01*
X1865Y1268D01*
Y1275D01*
X1850Y1290D01*
G01X1825Y1214D02*
X1851Y1188D01*
X1899D01*
X1965Y1254D01*
Y1380D01*
X2084Y1499D01*
X2344D01*
X2418Y1425D01*
X2438D01*
G01Y1525D02*
X2403D01*
X2369Y1559D01*
X2059D01*
X1905Y1405D01*
X1884D01*
X1878Y1399D01*
Y1391D01*
X1883Y1386D01*
X1900D01*
X1905Y1381D01*
Y1327D01*
X1900Y1322D01*
X1891D01*
X1886Y1327D01*
Y1362D01*
X1881Y1367D01*
X1825D01*
G01X2438Y1268D02*
X2294D01*
X2283Y1279D01*
X2189D01*
X2152Y1316D01*
X2118D01*
X2094Y1340D01*
X2005D01*
X2000Y1335D01*
Y1329D01*
X2005Y1324D01*
X2087D01*
X2092Y1319D01*
Y1313D01*
X2087Y1308D01*
X2005D01*
X2000Y1303D01*
Y1297D01*
X2005Y1292D01*
X2123D01*
X2125Y1290D01*
G01X1850Y1393D02*
X1891Y1434D01*
X1910D01*
X1915Y1439D01*
Y1447D01*
X1910Y1452D01*
X1891D01*
X1886Y1457D01*
Y1465D01*
X1891Y1470D01*
X1949D01*
X1954Y1475D01*
Y1483D01*
X1949Y1488D01*
X1917D01*
X1912Y1492D01*
Y1499D01*
X1917Y1504D01*
X1982D01*
X1983Y1504D01*
X2053Y1574D01*
X2375D01*
X2399Y1550D01*
X2438D01*
G01Y1500D02*
X2407D01*
X2363Y1544D01*
X2065D01*
X1920Y1399D01*
Y1274D01*
X1910Y1264D01*
X1890D01*
X1880Y1274D01*
Y1306D01*
X1870Y1316D01*
X1825D01*
G01X1841Y1162D02*
X1894D01*
X1980Y1248D01*
Y1374D01*
X2090Y1484D01*
X2338D01*
X2422Y1400D01*
X2438D01*
G01Y1292D02*
X2290D01*
X2289Y1294D01*
X2200D01*
X2136Y1358D01*
X2004D01*
X2000Y1362D01*
Y1367D01*
X2004Y1371D01*
X2147D01*
X2177Y1341D01*
X2213D01*
X2218Y1337D01*
Y1330D01*
X2213Y1325D01*
X2207D01*
X2202Y1320D01*
Y1313D01*
X2207Y1308D01*
X2288D01*
X2295Y1316D01*
G01X1862Y1239D02*
Y1224D01*
X1872Y1214D01*
X1904D01*
X1950Y1260D01*
Y1386D01*
X2078Y1514D01*
X2350D01*
X2414Y1450D01*
X2438D01*
G01X1850Y1444D02*
Y1468D01*
X1938Y1556D01*
X2013D01*
X2018Y1561D01*
Y1567D01*
X2013Y1572D01*
X1947D01*
X1942Y1577D01*
Y1584D01*
X1947Y1589D01*
X2382D01*
X2396Y1575D01*
X2438D01*
G01X1918Y1738D02*
Y1770D01*
X2097Y1950D01*
X3378D01*
X3444Y2016D01*
X3498D01*
X3516Y1998D01*
G01X2307Y702D02*
X2292D01*
X2286Y707D01*
X2223D01*
X2204Y689D01*
X2048D01*
X2044Y685D01*
Y678D01*
X2048Y674D01*
X2210D01*
X2231Y695D01*
X2279D01*
X2294Y680D01*
X2321D01*
X2330Y689D01*
Y712D01*
X2306Y736D01*
Y748D01*
X2356Y798D01*
X2438D01*
G01X2266Y676D02*
Y667D01*
X2261Y662D01*
X2219D01*
X2214Y657D01*
Y651D01*
X2219Y646D01*
X2269D01*
X2274Y641D01*
Y635D01*
X2269Y630D01*
X2176D01*
X2172Y626D01*
Y619D01*
X2176Y615D01*
X2277D01*
X2346Y684D01*
Y710D01*
X2351Y715D01*
X2377D01*
X2382Y720D01*
Y729D01*
X2377Y734D01*
X2331D01*
X2326Y739D01*
Y745D01*
X2331Y750D01*
X2407D01*
X2412Y755D01*
Y761D01*
X2407Y766D01*
X2361D01*
X2356Y771D01*
Y776D01*
X2362Y782D01*
X2412D01*
X2422Y772D01*
X2438D01*
G01Y1193D02*
X2344D01*
X2260Y1108D01*
X2088D01*
X2084Y1112D01*
Y1118D01*
X2088Y1122D01*
X2128D01*
X2132Y1126D01*
Y1133D01*
X2128Y1137D01*
X2088D01*
X2084Y1141D01*
Y1148D01*
X2088Y1152D01*
X2225D01*
X2230Y1147D01*
Y1141D01*
X2225Y1136D01*
X2184D01*
X2180Y1132D01*
Y1126D01*
X2184Y1122D01*
X2237D01*
X2277Y1162D01*
G01X2438Y1342D02*
X2424D01*
X2368Y1398D01*
X2262D01*
X2224Y1436D01*
X2064D01*
X2060Y1432D01*
Y1426D01*
X2064Y1422D01*
X2170D01*
X2174Y1418D01*
Y1412D01*
X2170Y1408D01*
X2035D01*
X2030Y1403D01*
Y1397D01*
X2035Y1392D01*
X2142D01*
X2145Y1389D01*
G01X2295Y1214D02*
X2289Y1220D01*
X2240D01*
X2204Y1184D01*
X2153D01*
X2148Y1189D01*
Y1195D01*
X2153Y1200D01*
X2199D01*
X2204Y1205D01*
Y1211D01*
X2199Y1216D01*
X2089D01*
X2084Y1211D01*
Y1205D01*
X2089Y1200D01*
X2099D01*
X2104Y1195D01*
Y1189D01*
X2099Y1184D01*
X2089D01*
X2084Y1179D01*
Y1173D01*
X2089Y1168D01*
X2208D01*
X2248Y1208D01*
X2274D01*
X2294Y1188D01*
X2314D01*
X2344Y1218D01*
X2438D01*
G01Y1318D02*
X2339D01*
X2320Y1336D01*
X2286D01*
X2274Y1324D01*
X2252D01*
X2220Y1356D01*
X2189D01*
X2184Y1361D01*
Y1367D01*
X2189Y1372D01*
X2223D01*
X2228Y1377D01*
Y1383D01*
X2223Y1388D01*
X2191D01*
X2186Y1393D01*
Y1399D01*
X2191Y1404D01*
X2230D01*
X2286Y1348D01*
X2326D01*
X2342Y1332D01*
X2395D01*
X2400Y1337D01*
Y1343D01*
X2395Y1348D01*
X2349D01*
X2344Y1353D01*
Y1361D01*
X2349Y1366D01*
X2363D01*
X2368Y1371D01*
Y1377D01*
X2362Y1383D01*
X2311D01*
X2295Y1367D01*
G01X2438Y1242D02*
X2298D01*
X2276Y1264D01*
X2244D01*
X2227Y1247D01*
X2141D01*
X2112Y1276D01*
X2037D01*
X2032Y1271D01*
Y1265D01*
X2037Y1260D01*
X2106D01*
X2110Y1256D01*
Y1251D01*
X2106Y1247D01*
X2036D01*
X2032Y1242D01*
Y1236D01*
X2036Y1232D01*
X2230D01*
X2237Y1239D01*
X2265D01*
G01X2480Y1380D02*
X2496Y1396D01*
Y1404D01*
X2489Y1411D01*
X2481D01*
X2442Y1372D01*
X2422D01*
X2381Y1413D01*
X2362D01*
X2313Y1413D01*
X2308Y1418D01*
Y1425D01*
X2313Y1430D01*
X2355D01*
X2360Y1435D01*
Y1441D01*
X2355Y1446D01*
X2321D01*
X2316Y1451D01*
Y1464D01*
X2311Y1469D01*
X2294D01*
X2272Y1447D01*
X2255D01*
X2233Y1469D01*
X2096D01*
X2090Y1463D01*
Y1456D01*
X2095Y1451D01*
X2230D01*
X2245Y1436D01*
X2287D01*
X2295Y1444D01*
G01X3684Y1998D02*
X3656D01*
X3636Y1978D01*
X3620D01*
X3608Y1990D01*
X3594D01*
X3582Y1978D01*
X3564D01*
X3552Y1990D01*
X3536D01*
X3524Y1978D01*
X3506D01*
X3486Y1998D01*
X3441D01*
X3384Y1940D01*
X2226D01*
X2068Y1782D01*
Y1738D01*
G01X2312D02*
X2505Y1930D01*
X3388D01*
X3444Y1986D01*
X3482D01*
X3500Y1968D01*
X3518D01*
X3536Y1950D01*
X3552D01*
X3564Y1962D01*
X3580D01*
X3592Y1950D01*
X3608D01*
X3622Y1964D01*
X3650D01*
X3656Y1970D01*
G01X2778Y1058D02*
X2756D01*
X2654Y1160D01*
Y1392D01*
X2694Y1432D01*
X3127D01*
X3132Y1427D01*
Y1421D01*
X3127Y1416D01*
X2989D01*
X2984Y1411D01*
Y1405D01*
X2989Y1400D01*
X3279D01*
X3294Y1385D01*
G01X3461Y1218D02*
X3385Y1142D01*
X2883D01*
X2878Y1137D01*
Y1131D01*
X2883Y1126D01*
X3099D01*
X3104Y1121D01*
Y1115D01*
X3099Y1110D01*
X2824D01*
X2802Y1088D01*
Y922D01*
X2778Y898D01*
G01X3516Y1274D02*
X3526Y1264D01*
Y1232D01*
X3420Y1126D01*
X3127D01*
X3122Y1121D01*
Y1115D01*
X3127Y1110D01*
X3275D01*
X3280Y1105D01*
Y1099D01*
X3275Y1094D01*
X2832D01*
X2818Y1080D01*
Y896D01*
X2794Y872D01*
X2778D01*
G01Y848D02*
X2798D01*
X2834Y884D01*
Y1041D01*
X2839Y1046D01*
X2861D01*
X2866Y1051D01*
Y1057D01*
X2861Y1062D01*
X2839D01*
X2834Y1067D01*
Y1073D01*
X2839Y1078D01*
X3423D01*
X3428Y1083D01*
Y1089D01*
X3423Y1094D01*
X3303D01*
X3298Y1099D01*
Y1105D01*
X3303Y1110D01*
X3430D01*
X3544Y1224D01*
Y1246D01*
G01X3349Y1441D02*
Y1413D01*
X3300Y1364D01*
X3276D01*
X3256Y1384D01*
X2980D01*
X2948Y1416D01*
X2761D01*
X2756Y1411D01*
Y1405D01*
X2761Y1400D01*
X2939D01*
X2944Y1395D01*
Y1389D01*
X2939Y1384D01*
X2821D01*
X2816Y1379D01*
Y1373D01*
X2821Y1368D01*
X2847D01*
X2852Y1363D01*
Y1357D01*
X2847Y1352D01*
X2812D01*
X2798Y1366D01*
X2768D01*
X2754Y1352D01*
Y1195D01*
X2758Y1191D01*
Y1177D01*
X2778Y1158D01*
G01X3544Y1302D02*
X3516D01*
X3498Y1284D01*
Y1264D01*
X3510Y1252D01*
Y1238D01*
X3497Y1225D01*
X3483D01*
X3470Y1238D01*
X3454D01*
X3440Y1224D01*
X3412D01*
X3370Y1182D01*
X3340D01*
X3332Y1190D01*
X3125D01*
X3120Y1185D01*
Y1179D01*
X3125Y1174D01*
X3285D01*
X3290Y1169D01*
Y1163D01*
X3285Y1158D01*
X2809D01*
X2804Y1153D01*
Y1147D01*
X2809Y1142D01*
X2855D01*
X2860Y1137D01*
Y1131D01*
X2855Y1126D01*
X2812D01*
X2794Y1108D01*
X2778D01*
G01Y1342D02*
X2798D01*
X2804Y1336D01*
X3127D01*
X3132Y1341D01*
Y1347D01*
X3127Y1352D01*
X2873D01*
X2868Y1357D01*
Y1364D01*
X2872Y1368D01*
X3156D01*
X3188Y1336D01*
X3217D01*
X3222Y1341D01*
Y1363D01*
X3227Y1368D01*
X3239D01*
X3244Y1363D01*
Y1341D01*
X3249Y1336D01*
X3265D01*
X3277Y1348D01*
X3300D01*
X3312Y1336D01*
X3334D01*
X3411Y1413D01*
X3489D01*
G01X2778Y1318D02*
X3125D01*
X3130Y1313D01*
Y1307D01*
X3125Y1302D01*
X2837D01*
X2832Y1297D01*
Y1291D01*
X2837Y1286D01*
X3148D01*
X3180Y1318D01*
X3338D01*
X3400Y1380D01*
X3440D01*
X3463Y1357D01*
X3489D01*
G01X3433Y1302D02*
Y1331D01*
X3412Y1352D01*
X3394D01*
X3344Y1302D01*
X3191D01*
X3186Y1297D01*
Y1291D01*
X3191Y1286D01*
X3337D01*
X3342Y1281D01*
Y1275D01*
X3337Y1270D01*
X2801D01*
X2796Y1265D01*
Y1259D01*
X2801Y1254D01*
X2943D01*
X2948Y1250D01*
Y1243D01*
X2943Y1238D01*
X2796D01*
X2792Y1242D01*
X2778D01*
G01X3461Y1274D02*
X3453Y1282D01*
X3426D01*
X3416Y1292D01*
X3396D01*
X3358Y1254D01*
X2973D01*
X2968Y1249D01*
Y1243D01*
X2973Y1238D01*
X3285D01*
X3290Y1233D01*
Y1227D01*
X3285Y1222D01*
X2800D01*
X2796Y1218D01*
X2778D01*
G01Y1193D02*
X2796Y1174D01*
X3095D01*
X3100Y1179D01*
Y1186D01*
X3096Y1190D01*
X2807D01*
X2802Y1195D01*
Y1201D01*
X2807Y1206D01*
X3300D01*
X3332Y1238D01*
X3396D01*
X3426Y1268D01*
X3439D01*
X3451Y1256D01*
X3479D01*
X3489Y1246D01*
G01X2778Y1475D02*
X2782Y1480D01*
X3047D01*
X3052Y1475D01*
Y1469D01*
X3047Y1464D01*
X2815D01*
X2810Y1459D01*
Y1453D01*
X2815Y1448D01*
X3227D01*
X3232Y1443D01*
Y1437D01*
X3227Y1432D01*
X3155D01*
X3150Y1427D01*
Y1420D01*
X3155Y1415D01*
X3297D01*
X3342Y1460D01*
X3360D01*
X3370Y1450D01*
X3388D01*
X3407Y1469D01*
X3433D01*
G01X2778Y1525D02*
X3110D01*
X3114Y1521D01*
Y1515D01*
X3110Y1511D01*
X2814D01*
X2810Y1507D01*
Y1500D01*
X2814Y1496D01*
X3117D01*
X3122Y1491D01*
Y1485D01*
X3117Y1480D01*
X3073D01*
X3068Y1475D01*
Y1469D01*
X3073Y1464D01*
X3172D01*
X3184Y1476D01*
X3300D01*
X3312Y1488D01*
X3332D01*
X3346Y1474D01*
X3372D01*
X3377Y1469D01*
G01X3628Y2053D02*
Y2092D01*
X3512Y2208D01*
X2812D01*
G01X3182Y1664D02*
Y1692D01*
X3202Y1712D01*
X3218D01*
X3232Y1698D01*
X3244D01*
X3256Y1710D01*
X3276D01*
X3286Y1700D01*
X3302D01*
X3314Y1712D01*
X3328D01*
X3340Y1700D01*
X3358D01*
X3370Y1712D01*
X3384D01*
X3396Y1700D01*
X3414D01*
X3426Y1712D01*
X3444D01*
X3455Y1701D01*
X3527D01*
X3538Y1712D01*
X3552D01*
X3564Y1700D01*
X3738D01*
X3748Y1710D01*
X3776D01*
X3954Y1532D01*
Y1520D01*
X3972Y1502D01*
X3984D01*
X4012Y1475D01*
X4074D01*
X4113Y1513D01*
X4143D01*
X4171Y1485D01*
X4546D01*
X4556Y1475D01*
Y1454D01*
X4546Y1444D01*
X4353D01*
X4348Y1439D01*
Y1431D01*
X4353Y1426D01*
X4556D01*
X4592Y1462D01*
X4616D01*
X4626Y1452D01*
Y1426D01*
X4616Y1416D01*
X4602D01*
G01Y1062D02*
X4594Y1070D01*
X4210D01*
X4144Y1004D01*
X4043D01*
X4032Y1015D01*
Y1030D01*
X4043Y1041D01*
X4124D01*
X4129Y1046D01*
Y1053D01*
X4124Y1058D01*
X3777D01*
X3766Y1069D01*
Y1084D01*
X3777Y1095D01*
X3871D01*
X3876Y1100D01*
Y1107D01*
X3871Y1112D01*
X3761D01*
X3736Y1137D01*
Y1248D01*
X3634Y1350D01*
Y1362D01*
X3650Y1378D01*
Y1392D01*
X3538Y1504D01*
X3480D01*
X3468Y1516D01*
X3455D01*
X3443Y1504D01*
X3426D01*
X3414Y1516D01*
X3398D01*
X3386Y1504D01*
X3370D01*
X3358Y1516D01*
X3342D01*
X3330Y1504D01*
X3314D01*
X3266Y1552D01*
Y1580D01*
G01X4602Y1087D02*
X4605D01*
X4610Y1092D01*
Y1101D01*
X4605Y1106D01*
X4586D01*
X4560Y1080D01*
X4205Y1080D01*
X4140Y1014D01*
X4047D01*
X4042Y1019D01*
Y1026D01*
X4047Y1031D01*
X4128D01*
X4139Y1042D01*
Y1057D01*
X4128Y1068D01*
X3781D01*
X3776Y1073D01*
Y1080D01*
X3781Y1085D01*
X3878D01*
X3888Y1095D01*
Y1112D01*
X3878Y1122D01*
X3765D01*
X3746Y1141D01*
Y1254D01*
X3732Y1268D01*
Y1310D01*
X3664Y1378D01*
Y1392D01*
X3677Y1405D01*
Y1419D01*
X3564Y1532D01*
X3506D01*
X3496Y1542D01*
X3481D01*
X3471Y1532D01*
X3452D01*
X3440Y1544D01*
X3426D01*
X3414Y1532D01*
X3398D01*
X3386Y1544D01*
X3370D01*
X3358Y1532D01*
X3342D01*
X3322Y1552D01*
X3294D01*
G01X4602Y1441D02*
X4586D01*
X4560Y1416D01*
X4342D01*
X4332Y1426D01*
Y1444D01*
X4342Y1454D01*
X4541D01*
X4546Y1459D01*
Y1470D01*
X4541Y1475D01*
X4167D01*
X4139Y1503D01*
X4122D01*
X4117Y1498D01*
Y1459D01*
X4112Y1454D01*
X4103D01*
X4098Y1459D01*
Y1463D01*
X4093Y1468D01*
X4083D01*
X4078Y1463D01*
Y1435D01*
X4073Y1430D01*
X4063D01*
X4058Y1435D01*
Y1460D01*
X4053Y1465D01*
X4043D01*
X4038Y1460D01*
Y1447D01*
X4033Y1442D01*
X4027D01*
X4022Y1447D01*
Y1460D01*
X4017Y1465D01*
X4007D01*
X3980Y1492D01*
X3938D01*
X3746Y1684D01*
X3620D01*
X3608Y1672D01*
X3536D01*
X3524Y1684D01*
X3454D01*
X3442Y1672D01*
X3424D01*
X3412Y1684D01*
X3398D01*
X3386Y1672D01*
X3368D01*
X3356Y1684D01*
X3342D01*
X3330Y1672D01*
X3314D01*
X3302Y1684D01*
X3286D01*
X3274Y1672D01*
X3258D01*
X3246Y1684D01*
X3232D01*
X3210Y1662D01*
Y1636D01*
G01X4828Y1062D02*
X4820Y1070D01*
X4776D01*
X4753Y1093D01*
X4651D01*
X4623Y1121D01*
X4563D01*
X4542Y1100D01*
X4182D01*
X4166Y1084D01*
X3920D01*
X3910Y1094D01*
Y1112D01*
X3920Y1122D01*
X4103D01*
X4108Y1127D01*
Y1135D01*
X4103Y1140D01*
X3925D01*
X3880Y1186D01*
X3839D01*
X3746Y1278D01*
Y1308D01*
X3760Y1322D01*
Y1336D01*
X3692Y1404D01*
Y1422D01*
X3704Y1434D01*
Y1450D01*
X3596Y1558D01*
X3538D01*
X3522Y1574D01*
X3441D01*
X3435Y1580D01*
X3377D01*
G01X4828Y1416D02*
X4820Y1424D01*
X4807D01*
X4769Y1386D01*
X4159D01*
X4148Y1397D01*
Y1415D01*
X4159Y1426D01*
X4300D01*
X4304Y1430D01*
Y1439D01*
X4300Y1443D01*
X4147D01*
X4104Y1400D01*
X4039D01*
X3973Y1466D01*
X3904D01*
X3888Y1450D01*
X3869D01*
X3857Y1462D01*
X3844D01*
X3832Y1450D01*
X3814D01*
X3650Y1614D01*
X3580D01*
X3574Y1620D01*
Y1634D01*
X3568Y1640D01*
X3560D01*
X3554Y1634D01*
Y1620D01*
X3548Y1614D01*
X3540D01*
X3534Y1620D01*
Y1634D01*
X3528Y1640D01*
X3520D01*
X3514Y1634D01*
Y1620D01*
X3508Y1614D01*
X3484D01*
X3472Y1626D01*
X3451D01*
X3441Y1616D01*
X3426D01*
X3415Y1627D01*
X3396D01*
X3385Y1616D01*
X3370D01*
X3358Y1628D01*
X3342D01*
X3330Y1616D01*
X3314D01*
X3302Y1628D01*
X3286D01*
X3266Y1608D01*
X3238D01*
G01X4828Y1087D02*
X4820Y1080D01*
X4781D01*
X4757Y1103D01*
X4655D01*
X4627Y1131D01*
X4559D01*
X4538Y1110D01*
X4178D01*
X4162Y1094D01*
X3925D01*
X3920Y1099D01*
Y1107D01*
X3925Y1112D01*
X4112D01*
X4122Y1122D01*
Y1140D01*
X4112Y1150D01*
X3929D01*
X3884Y1196D01*
X3843D01*
X3774Y1264D01*
Y1280D01*
X3786Y1292D01*
Y1312D01*
X3774Y1324D01*
Y1336D01*
X3788Y1350D01*
Y1364D01*
X3714Y1438D01*
Y1454D01*
X3568Y1600D01*
X3536D01*
X3522Y1586D01*
X3450D01*
X3438Y1598D01*
X3415D01*
X3405Y1608D01*
G01X3210Y1580D02*
Y1608D01*
X3258Y1656D01*
X3275D01*
X3287Y1644D01*
X3302D01*
X3314Y1656D01*
X3330D01*
X3342Y1644D01*
X3358D01*
X3370Y1656D01*
X3386D01*
X3398Y1644D01*
X3415D01*
X3427Y1656D01*
X3440D01*
X3452Y1644D01*
X3470D01*
X3482Y1656D01*
X3608D01*
X3622Y1642D01*
X3677D01*
X3842Y1477D01*
X3859D01*
X3870Y1488D01*
X3888D01*
X3900Y1476D01*
X3977D01*
X4043Y1410D01*
X4100D01*
X4143Y1453D01*
X4304D01*
X4314Y1443D01*
Y1426D01*
X4304Y1416D01*
X4163D01*
X4158Y1411D01*
Y1401D01*
X4163Y1396D01*
X4765D01*
X4803Y1434D01*
X4820D01*
X4828Y1441D01*
G01X3266Y1747D02*
X3275Y1756D01*
X3302D01*
X3312Y1766D01*
X3330D01*
X3342Y1754D01*
X3356D01*
X3370Y1768D01*
X3438D01*
X3452Y1754D01*
X3468D01*
X3482Y1768D01*
X3496D01*
X3510Y1754D01*
X3524D01*
X3535Y1765D01*
X3553D01*
X3564Y1754D01*
X3582D01*
X3592Y1764D01*
X3612D01*
X3622Y1754D01*
X3636D01*
X3647Y1765D01*
X3665D01*
X3676Y1754D01*
X3692D01*
X3703Y1765D01*
X3722D01*
X3733Y1754D01*
X3800D01*
X3812Y1766D01*
X3832D01*
X4074Y1524D01*
X4086D01*
X4136Y1574D01*
X4376D01*
X4386Y1564D01*
Y1544D01*
X4376Y1534D01*
X4189D01*
X4184Y1529D01*
Y1519D01*
X4189Y1514D01*
X4576D01*
X4597Y1493D01*
X4680D01*
X4709Y1522D01*
X4736D01*
X4746Y1512D01*
Y1486D01*
X4736Y1476D01*
X4722D01*
G01X3294Y1775D02*
X3304Y1785D01*
X3333D01*
X3342Y1794D01*
X3412D01*
X3422Y1784D01*
X3442D01*
X3452Y1794D01*
X3470D01*
X3480Y1784D01*
X3498D01*
X3508Y1794D01*
X3526D01*
X3538Y1782D01*
X3552D01*
X3564Y1794D01*
X3580D01*
X3592Y1782D01*
X3608D01*
X3620Y1794D01*
X3636D01*
X3648Y1782D01*
X3664D01*
X3676Y1794D01*
X3692D01*
X3704Y1782D01*
X3720D01*
X3732Y1794D01*
X3748D01*
X3760Y1782D01*
X3774D01*
X3786Y1794D01*
X3860D01*
X3870Y1784D01*
X3888D01*
X3902Y1798D01*
X3924D01*
X3930Y1792D01*
X4539D01*
X4544Y1787D01*
Y1780D01*
X4539Y1775D01*
X4327D01*
X4316Y1764D01*
Y1749D01*
X4327Y1738D01*
X4556D01*
X4594Y1776D01*
X4626D01*
X4636Y1766D01*
Y1744D01*
X4645Y1734D01*
X4658D01*
X4668Y1744D01*
Y1753D01*
X4673Y1758D01*
X4698D01*
X4704Y1764D01*
Y1773D01*
X4698Y1778D01*
X4656D01*
X4651Y1784D01*
Y1793D01*
X4656Y1798D01*
X4715D01*
X4722Y1791D01*
G01X3433Y1914D02*
X3441Y1922D01*
X3468D01*
X3480Y1934D01*
X3496D01*
X3508Y1922D01*
X3524D01*
X3536Y1934D01*
X3554D01*
X3566Y1922D01*
X3580D01*
X3592Y1934D01*
X3608D01*
X3620Y1922D01*
X3636D01*
X3648Y1934D01*
X3664D01*
X3676Y1922D01*
X3692D01*
X3704Y1934D01*
X3720D01*
X3732Y1922D01*
X3748D01*
X3760Y1934D01*
X3882D01*
X3896Y1920D01*
X4160D01*
X4220Y1860D01*
X4529D01*
X4534Y1865D01*
Y1877D01*
X4529Y1882D01*
X4228D01*
X4218Y1892D01*
Y1914D01*
X4228Y1924D01*
X4613D01*
X4645Y1892D01*
X4773D01*
X4778Y1897D01*
Y1912D01*
X4773Y1916D01*
X4730D01*
X4722Y1909D01*
G01X3294Y1719D02*
X3303Y1728D01*
X3330D01*
X3342Y1740D01*
X3356D01*
X3370Y1726D01*
X3386D01*
X3397Y1737D01*
X3469D01*
X3480Y1726D01*
X3496D01*
X3508Y1738D01*
X3526D01*
X3538Y1726D01*
X3552D01*
X3563Y1737D01*
X3637D01*
X3648Y1726D01*
X3664D01*
X3675Y1737D01*
X3693D01*
X3704Y1726D01*
X3776D01*
X3788Y1738D01*
X3804D01*
X4040Y1502D01*
X4078D01*
X4090Y1514D01*
X4140Y1564D01*
X4372D01*
X4376Y1560D01*
Y1548D01*
X4372Y1544D01*
X4184D01*
X4174Y1534D01*
Y1514D01*
X4184Y1504D01*
X4572D01*
X4592Y1483D01*
X4661D01*
X4667Y1478D01*
Y1419D01*
X4672Y1414D01*
X4682D01*
X4687Y1419D01*
Y1486D01*
X4702Y1501D01*
X4722D01*
G01Y1816D02*
X4715Y1808D01*
X4612D01*
X4552Y1748D01*
X4331D01*
X4326Y1753D01*
Y1760D01*
X4331Y1765D01*
X4544D01*
X4554Y1775D01*
Y1792D01*
X4544Y1802D01*
X3934D01*
X3914Y1822D01*
X3760D01*
X3748Y1810D01*
X3732D01*
X3720Y1822D01*
X3702D01*
X3690Y1810D01*
X3676D01*
X3664Y1822D01*
X3648D01*
X3636Y1810D01*
X3620D01*
X3608Y1822D01*
X3592D01*
X3580Y1810D01*
X3564D01*
X3552Y1822D01*
X3536D01*
X3524Y1810D01*
X3508D01*
X3496Y1822D01*
X3480D01*
X3471Y1813D01*
X3451D01*
X3442Y1822D01*
X3424D01*
X3415Y1813D01*
X3393D01*
X3384Y1822D01*
X3310D01*
X3243Y1755D01*
Y1743D01*
X3260Y1726D01*
X3274D01*
X3286Y1738D01*
X3313D01*
X3322Y1747D01*
G01X3461Y1886D02*
X3471Y1896D01*
X3498D01*
X3508Y1906D01*
X3524D01*
X3536Y1894D01*
X3554D01*
X3566Y1906D01*
X3580D01*
X3592Y1894D01*
X3608D01*
X3620Y1906D01*
X3636D01*
X3648Y1894D01*
X3664D01*
X3676Y1906D01*
X3692D01*
X3704Y1894D01*
X3720D01*
X3732Y1906D01*
X3748D01*
X3760Y1894D01*
X3774D01*
X3790Y1910D01*
X4156D01*
X4216Y1850D01*
X4534D01*
X4544Y1860D01*
Y1882D01*
X4534Y1892D01*
X4233D01*
X4228Y1897D01*
Y1909D01*
X4233Y1914D01*
X4609D01*
X4641Y1882D01*
X4778D01*
X4788Y1892D01*
Y1916D01*
X4778Y1926D01*
X4730D01*
X4722Y1934D01*
G01X3405Y1886D02*
X3415Y1876D01*
X3444D01*
X3454Y1866D01*
X3470D01*
X3482Y1878D01*
X3496D01*
X3508Y1866D01*
X3524D01*
X3536Y1878D01*
X3552D01*
X3564Y1866D01*
X3580D01*
X3592Y1878D01*
X3611D01*
X3623Y1866D01*
X3636D01*
X3646Y1876D01*
X3666D01*
X3676Y1866D01*
X3692D01*
X3702Y1876D01*
X3722D01*
X3732Y1866D01*
X3748D01*
X3758Y1876D01*
X3778D01*
X3788Y1866D01*
X3800D01*
X3810Y1876D01*
X3880D01*
X3896Y1892D01*
X4146D01*
X4156Y1882D01*
Y1861D01*
X4146Y1851D01*
X3977D01*
X3972Y1846D01*
Y1835D01*
X3977Y1830D01*
X4621D01*
X4635Y1844D01*
X4772D01*
X4790Y1826D01*
X4842D01*
X4866Y1850D01*
Y1884D01*
X4938Y1956D01*
X4964D01*
X4974Y1946D01*
Y1919D01*
X4964Y1909D01*
X4948D01*
G01X3433Y1858D02*
X3443Y1849D01*
X3468D01*
X3479Y1838D01*
X3496D01*
X3507Y1849D01*
X3525D01*
X3536Y1838D01*
X3550D01*
X3561Y1849D01*
X3581D01*
X3592Y1838D01*
X3608D01*
X3619Y1849D01*
X3637D01*
X3648Y1838D01*
X3664D01*
X3675Y1849D01*
X3693D01*
X3704Y1838D01*
X3720D01*
X3731Y1849D01*
X3749D01*
X3760Y1838D01*
X3776D01*
X3786Y1848D01*
X3802D01*
X3812Y1838D01*
X3856D01*
X3900Y1882D01*
X4142D01*
X4146Y1878D01*
Y1865D01*
X4142Y1861D01*
X3972D01*
X3962Y1851D01*
Y1830D01*
X3972Y1820D01*
X4625D01*
X4639Y1834D01*
X4768D01*
X4786Y1816D01*
X4903D01*
X4908Y1821D01*
Y1827D01*
X4903Y1832D01*
X4883D01*
X4878Y1837D01*
Y1843D01*
X4883Y1848D01*
X4903D01*
X4908Y1853D01*
Y1859D01*
X4903Y1864D01*
X4885D01*
X4880Y1869D01*
Y1884D01*
X4930Y1934D01*
X4948D01*
G01X4722Y1003D02*
X4727D01*
X4732Y998D01*
Y989D01*
X4727Y984D01*
X4712D01*
X4687Y1009D01*
X4251D01*
X4246Y1004D01*
Y995D01*
X4251Y990D01*
X4678D01*
X4690Y978D01*
Y958D01*
X4677Y945D01*
X3701D01*
X3674Y972D01*
Y1116D01*
X3656Y1135D01*
G01X3628Y1162D02*
X3656D01*
X3687Y1131D01*
Y979D01*
X3708Y958D01*
X4671D01*
X4676Y963D01*
Y972D01*
X4671Y977D01*
X4245D01*
X4232Y990D01*
Y1010D01*
X4244Y1022D01*
X4716D01*
X4722Y1028D01*
G01X4948Y1003D02*
X4940Y1011D01*
X4783D01*
X4748Y1046D01*
X4642D01*
X4630Y1034D01*
X4226D01*
X4170Y978D01*
X3748D01*
X3738Y988D01*
Y1005D01*
X3748Y1015D01*
X3995D01*
X4000Y1020D01*
Y1026D01*
X3995Y1031D01*
X3759D01*
X3706Y1084D01*
Y1168D01*
X3580Y1294D01*
Y1309D01*
X3592Y1321D01*
Y1349D01*
X3600Y1357D01*
G01X4948Y1028D02*
X4940Y1021D01*
X4787D01*
X4752Y1056D01*
X4638D01*
X4626Y1044D01*
X4222D01*
X4166Y988D01*
X3752D01*
X3748Y992D01*
Y1001D01*
X3752Y1005D01*
X3791D01*
X3998Y1005D01*
X3999Y1005D01*
X4010Y1015D01*
Y1030D01*
X3999Y1041D01*
X3763D01*
X3716Y1088D01*
Y1214D01*
X3608Y1322D01*
Y1338D01*
X3620Y1350D01*
Y1377D01*
X3628Y1385D01*
G01X3795Y1274D02*
X3810D01*
X3812Y1272D01*
X3840D01*
X3925Y1187D01*
X4530D01*
X4540Y1197D01*
Y1216D01*
X4530Y1226D01*
X3965D01*
X3960Y1231D01*
Y1242D01*
X3965Y1247D01*
X4687D01*
X4714Y1220D01*
X4723D01*
X4728Y1225D01*
Y1235D01*
X4723Y1240D01*
X4722D01*
G01Y1265D02*
X4715Y1257D01*
X3960D01*
X3950Y1247D01*
Y1226D01*
X3960Y1216D01*
X4526D01*
X4530Y1212D01*
Y1201D01*
X4526Y1197D01*
X3929D01*
X3844Y1282D01*
X3816D01*
X3804Y1294D01*
Y1320D01*
X3795Y1329D01*
G01X4948Y1358D02*
X4940Y1365D01*
X4822D01*
X4806Y1349D01*
X4163D01*
X4158Y1344D01*
Y1333D01*
X4163Y1328D01*
X4662D01*
X4672Y1318D01*
Y1298D01*
X4662Y1288D01*
X4086D01*
X3970Y1404D01*
Y1437D01*
X3965Y1442D01*
X3942D01*
X3934Y1434D01*
Y1413D01*
G01X4948Y1383D02*
X4940Y1375D01*
X4817D01*
X4801Y1359D01*
X4156D01*
X4146Y1349D01*
Y1328D01*
X4156Y1318D01*
X4651D01*
X4656Y1313D01*
Y1303D01*
X4651Y1298D01*
X4090D01*
X3980Y1408D01*
Y1441D01*
X3969Y1452D01*
X3938D01*
X3927Y1441D01*
X3906D01*
G01X4602Y2603D02*
X4478D01*
X4300Y2425D01*
G01Y2325D02*
X4551Y2576D01*
X4640D01*
X4667Y2603D01*
X4828D01*
G54D17*
X400Y1290D03*
Y1766D03*
G54D27*
G01X1825Y302D02*
X1713Y414D01*
X626D01*
X442Y598D01*
G01X4330Y500D02*
X4072Y242D01*
X1808D01*
X1654Y396D01*
X614D01*
X455Y555D01*
G01X695Y510D02*
X788D01*
X1133Y855D01*
X1491D01*
G54D18*
X506Y1480D03*
Y1578D03*
X820Y165D03*
X720D03*
X820Y265D03*
X720D03*
X620D03*
X585Y1578D03*
X1020Y165D03*
X920D03*
X1020Y265D03*
X920D03*
X850Y2580D03*
X950D03*
X960Y3115D03*
X1170Y460D03*
X1625Y1325D03*
Y1225D03*
X1545Y2630D03*
X2620Y3650D03*
X2790Y2970D03*
X2890D03*
X3600Y3650D03*
X4090Y2550D03*
X3870D03*
X3880Y2980D03*
X3980D03*
X4300Y2125D03*
Y2325D03*
Y2225D03*
Y2425D03*
X4470Y3650D03*
G54D19*
X463Y3120D03*
M02*
