G04 ================== begin FILE IDENTIFICATION RECORD ==================*
G04 Layout Name:  C:/HMB/HMB_V11.brd*
G04 Film Name:    L1-Top*
G04 File Format:  Gerber RS274X*
G04 File Origin:  15.7-p007*
G04 Origin Date:  Fri Aug 15 21:53:15 2008*
G04 *
G04 Layer:  VIA CLASS/TOP*
G04 Layer:  PIN/TOP*
G04 Layer:  ETCH/TOP*
G04 Layer:  BOARD GEOMETRY/OUTLINE*
G04 *
G04 Offset:    (0.00 0.00)*
G04 Mirror:    No*
G04 Mode:      Positive*
G04 Rotation:  0*
G04 FullContactRelief:  No*
G04 UndefLineWidth:     0.00*
G04 ================== end FILE IDENTIFICATION RECORD ====================*
%FSLAX53Y53*MOIN*%
%IR0*IPPOS*OFA0.00000B0.00000*MIA0B0*SFA1.00000B1.00000*%
%ADD62R,.14X.06*%
%ADD12C,.02*%
%ADD50C,.04*%
%ADD36R,.106X.047*%
%ADD14R,.047X.106*%
%ADD31C,.043*%
%ADD66C,.053*%
%ADD37O,.055X.168*%
%ADD13C,.026*%
%ADD11C,.035*%
%ADD45O,.168X.055*%
%ADD29C,.018*%
%ADD24C,.063*%
%ADD21C,.09*%
%ADD72O,.069X.129*%
%ADD20C,.037*%
%ADD71O,.129X.069*%
%ADD69C,.094*%
%ADD68C,.067*%
%ADD32R,.043X.043*%
%ADD70R,.053X.053*%
%ADD52C,.069*%
%ADD19R,.035X.035*%
%ADD65R,.063X.063*%
%ADD30C,.01929*%
%ADD51R,.069X.069*%
%ADD35R,.06299X.11811*%
%ADD41R,.02953X.00906*%
%ADD42R,.00906X.02953*%
%AMMACRO57*
4,1,6,.02165,-.06299,
.00799,-.06299,
-.02165,-.03335,
-.02165,.03335,
.00799,.06299,
.02165,.06299,
.02165,-.06299,
0.0*
%
%ADD57MACRO57*%
%ADD61R,.12795X.08465*%
%ADD64R,.08X.03*%
%ADD34R,.04X.025*%
%ADD33R,.04X.018*%
%ADD44C,.104*%
%ADD63R,.08X.026*%
%ADD54R,.055X.024*%
%ADD10C,.25*%
%ADD38R,.055X.043*%
%ADD67R,.043X.055*%
%ADD53R,.024X.039*%
%ADD48C,.207*%
%ADD27R,.11X.11*%
%ADD22R,.071X.047*%
%ADD15R,.047X.071*%
%ADD59R,.024X.059*%
%ADD25R,.03248X.01181*%
%ADD26R,.01181X.03248*%
%ADD43R,.16142X.16142*%
%ADD16R,.05512X.01772*%
%ADD49R,.05906X.01181*%
%ADD58R,.01654X.07008*%
%ADD55R,.01181X.05906*%
%ADD17R,.03937X.01181*%
%ADD46R,.01181X.03937*%
%ADD40R,.01181X.07087*%
%ADD60R,.0374X.08465*%
%ADD23R,.02362X.06299*%
%ADD18R,.03937X.01575*%
%ADD47R,.01575X.03937*%
%AMMACRO56*
4,1,6,-.02165,.06299,
-.00799,.06299,
.02165,.03335,
.02165,-.03335,
-.00799,-.06299,
-.02165,-.06299,
-.02165,.06299,
0.0*
%
%ADD56MACRO56*%
%ADD39R,.07087X.08661*%
%ADD28R,.07087X.07874*%
%ADD73C,.01*%
%ADD74C,.012*%
%ADD75C,.015*%
%ADD76C,.025*%
%ADD77C,.004*%
%ADD78C,.006*%
%ADD79C,.008*%
G75*
%LPD*%
G75*
G36*
G01X300Y1540D02*
X170D01*
X160Y1550D01*
Y1670D01*
X170Y1680D01*
X300D01*
X310Y1670D01*
Y1550D01*
X300Y1540D01*
G37*
G36*
G01X110Y1550D02*
X100Y1540D01*
X30D01*
X20Y1550D01*
Y1670D01*
X30Y1680D01*
X100D01*
X110Y1670D01*
Y1550D01*
G37*
G36*
G01X340D02*
Y1670D01*
X350Y1680D01*
X440D01*
X450Y1670D01*
Y1550D01*
X440Y1540D01*
X350D01*
X340Y1550D01*
G37*
G36*
G01X520Y350D02*
X650D01*
X660Y340D01*
Y270D01*
X650Y260D01*
Y210D01*
X640Y200D01*
X620D01*
X610Y210D01*
Y270D01*
X600Y280D01*
X520D01*
Y350D01*
G37*
G36*
G01X740Y270D02*
X730Y280D01*
Y340D01*
X720Y350D01*
X680D01*
X660Y370D01*
X610D01*
X600Y380D01*
Y400D01*
X590Y410D01*
X520D01*
Y480D01*
X610D01*
X620Y470D01*
X670D01*
X680Y480D01*
Y550D01*
X690Y560D01*
X750D01*
X760Y550D01*
Y470D01*
X830Y400D01*
X910D01*
X920Y390D01*
Y290D01*
X840D01*
X830Y300D01*
Y340D01*
X820Y350D01*
X770D01*
X760Y340D01*
Y280D01*
X750Y270D01*
X740D01*
G37*
G36*
G01X920Y420D02*
X840D01*
Y490D01*
X920D01*
Y420D01*
G37*
G36*
G01X1350Y1210D02*
X1360Y1200D01*
Y900D01*
X1350Y890D01*
X1020D01*
X1010Y900D01*
Y1121D01*
X1032D01*
Y1072D01*
X1061D01*
Y1028D01*
X1032D01*
Y923D01*
X1128D01*
Y1028D01*
X1099D01*
Y1072D01*
X1128D01*
Y1177D01*
X1032D01*
Y1159D01*
X1010D01*
Y1200D01*
X1020Y1210D01*
X1183D01*
Y1203D01*
X1232Y1154D01*
Y1072D01*
X1328D01*
Y1177D01*
X1257D01*
X1231Y1203D01*
G02X1234Y1210I3J3D01*
G01X1350D01*
G37*
G36*
G01X1400Y1010D02*
X1410Y1020D01*
X1510D01*
X1520Y1010D01*
Y950D01*
X1510Y940D01*
X1410D01*
X1400Y950D01*
Y1010D01*
G37*
G36*
G01X1410Y1080D02*
X1400Y1090D01*
Y1150D01*
X1410Y1160D01*
X1510D01*
X1520Y1150D01*
Y1090D01*
X1510Y1080D01*
X1410D01*
G37*
G36*
G01X1720Y3105D02*
X1685D01*
X1675Y3115D01*
Y3335D01*
X1685Y3345D01*
X1755D01*
X1765Y3335D01*
Y3225D01*
X1775Y3215D01*
X1800D01*
X1810Y3205D01*
Y3115D01*
X1800Y3105D01*
X1770D01*
X1765Y3100D01*
Y3010D01*
X1755Y3000D01*
X1735D01*
X1725Y3010D01*
Y3100D01*
X1720Y3105D01*
G37*
G36*
G01X1900Y3000D02*
X1890Y3010D01*
Y3178D01*
G03X1890Y3202I-20J12D01*
G01X1890Y3285D01*
X1900Y3295D01*
X2235D01*
X2245Y3285D01*
Y3010D01*
X2235Y3000D01*
X2195D01*
G02X2191Y3006I0J4D01*
G03X2196Y3020I-21J14D01*
G01Y3023D01*
X2218D01*
Y3128D01*
X2196D01*
Y3172D01*
X2218D01*
Y3277D01*
X2122D01*
Y3172D01*
X2144D01*
Y3128D01*
X2122D01*
Y3023D01*
X2144D01*
Y3020D01*
G03X2149Y3006I26J0D01*
G02X2145Y3000I-3J-2D01*
G01X2135D01*
X2042Y3093D01*
X2018D01*
Y3128D01*
X1922D01*
Y3023D01*
X2018D01*
Y3057D01*
X2027D01*
X2078Y3007D01*
G02X2075Y3000I-3J-3D01*
G01X1900D01*
G37*
G36*
G01X2530Y210D02*
X2540Y200D01*
Y140D01*
X2470D01*
X2460Y150D01*
Y200D01*
X2470Y210D01*
X2530D01*
G37*
G36*
G01X2750Y1145D02*
Y1010D01*
X2745Y1005D01*
X2700D01*
X2695Y1010D01*
Y1145D01*
X2700Y1150D01*
X2745D01*
X2750Y1145D01*
G37*
G36*
G01X2810Y1040D02*
Y905D01*
X2805Y900D01*
X2700D01*
X2695Y905D01*
Y990D01*
X2700Y995D01*
X2750D01*
X2760Y1005D01*
Y1040D01*
X2765Y1045D01*
X2805D01*
X2810Y1040D01*
G37*
G36*
G01X2945Y860D02*
X2825D01*
X2820Y865D01*
Y960D01*
X2825Y965D01*
X2945D01*
X2950Y960D01*
Y865D01*
X2945Y860D01*
G37*
G36*
G01X2825Y1145D02*
X2830Y1150D01*
X2870D01*
X2880Y1160D01*
Y1205D01*
X2885Y1210D01*
X2960D01*
X2965Y1205D01*
Y1060D01*
X2950Y1045D01*
Y1020D01*
X2945Y1015D01*
X2890D01*
X2880Y1025D01*
Y1095D01*
X2870Y1105D01*
X2830D01*
X2825Y1110D01*
Y1145D01*
G37*
G36*
G01X3005Y1005D02*
X3160D01*
X3165Y1000D01*
Y805D01*
X3160Y800D01*
X2825D01*
X2820Y805D01*
Y845D01*
X2825Y850D01*
X2945D01*
X2950Y845D01*
Y825D01*
X2960Y815D01*
X3075D01*
X3085Y825D01*
Y970D01*
X3080Y975D01*
X3005D01*
X3000Y980D01*
Y1000D01*
X3005Y1005D01*
G37*
G36*
G01X2810Y880D02*
Y805D01*
X2805Y800D01*
X2700D01*
X2695Y805D01*
Y880D01*
X2700Y885D01*
X2805D01*
X2810Y880D01*
G37*
G36*
G01X2990Y1035D02*
Y930D01*
X2995Y925D01*
X3070D01*
X3075Y920D01*
Y830D01*
X3070Y825D01*
X2965D01*
X2960Y830D01*
Y970D01*
X2955Y975D01*
X2880D01*
X2870Y985D01*
X2825D01*
X2820Y990D01*
Y1045D01*
X2810Y1055D01*
X2765D01*
X2760Y1060D01*
Y1145D01*
X2765Y1150D01*
X2810D01*
X2815Y1145D01*
Y1105D01*
X2825Y1095D01*
X2865D01*
X2870Y1090D01*
Y1020D01*
X2885Y1005D01*
X2955D01*
X2960Y1010D01*
Y1035D01*
X2965Y1040D01*
X2985D01*
X2990Y1035D01*
G37*
G36*
G01X2865Y1160D02*
X2700D01*
X2695Y1165D01*
Y1205D01*
X2700Y1210D01*
X2865D01*
X2870Y1205D01*
Y1165D01*
X2865Y1160D01*
G37*
G36*
G01X3070Y1110D02*
X3160D01*
X3165Y1105D01*
Y1020D01*
X3160Y1015D01*
X3005D01*
X3000Y1020D01*
Y1045D01*
X2985Y1060D01*
Y1205D01*
X2990Y1210D01*
X3055D01*
X3060Y1205D01*
Y1120D01*
X3070Y1110D01*
G37*
G36*
G01X3075Y1205D02*
X3080Y1210D01*
X3160D01*
X3165Y1205D01*
Y1130D01*
X3160Y1125D01*
X3080D01*
X3075Y1130D01*
Y1205D01*
G37*
G36*
G01X3405Y910D02*
X3495D01*
X3500Y905D01*
Y790D01*
X3480Y770D01*
X3250D01*
X3230Y790D01*
Y1090D01*
X3240Y1100D01*
X3300D01*
X3310Y1090D01*
Y990D01*
X3305Y985D01*
X3265D01*
X3255Y975D01*
Y962D01*
X3255Y863D01*
X3255Y810D01*
X3270Y795D01*
X3390D01*
X3400Y805D01*
Y905D01*
X3405Y910D01*
G37*
G36*
G01X3265Y860D02*
X3260Y865D01*
Y960D01*
X3265Y965D01*
X3385D01*
X3390Y960D01*
Y865D01*
X3385Y860D01*
X3265D01*
G37*
G36*
G01X3530Y800D02*
X3525Y805D01*
Y970D01*
X3520Y975D01*
X3445D01*
X3440Y980D01*
Y1000D01*
X3445Y1005D01*
X3600D01*
X3605Y1000D01*
Y805D01*
X3600Y800D01*
X3530D01*
G37*
G36*
G01X3320Y1025D02*
Y1205D01*
X3325Y1210D01*
X3400D01*
X3405Y1205D01*
Y1060D01*
X3390Y1045D01*
Y1020D01*
X3385Y1015D01*
X3330D01*
X3320Y1025D01*
G37*
G36*
G01X3325Y1000D02*
X3330Y1005D01*
X3395D01*
X3400Y1010D01*
Y1035D01*
X3405Y1040D01*
X3425D01*
X3430Y1035D01*
Y935D01*
X3425Y930D01*
X3405D01*
X3400Y935D01*
Y970D01*
X3395Y975D01*
X3330D01*
X3325Y980D01*
Y1000D01*
G37*
G36*
G01X3600Y1110D02*
X3605Y1105D01*
Y1020D01*
X3600Y1015D01*
X3445D01*
X3440Y1020D01*
Y1045D01*
X3425Y1060D01*
Y1205D01*
X3430Y1210D01*
X3495D01*
X3500Y1205D01*
Y1120D01*
X3510Y1110D01*
X3600D01*
G37*
G36*
G01X3240D02*
X3230Y1120D01*
Y1170D01*
X3240Y1180D01*
X3300D01*
X3310Y1170D01*
Y1120D01*
X3300Y1110D01*
X3240D01*
G37*
G36*
G01X3400Y2710D02*
X3390Y2720D01*
Y3000D01*
X3400Y3010D01*
X3720D01*
X3730Y3000D01*
Y2896D01*
X3708D01*
Y2987D01*
X3612D01*
Y2882D01*
X3634D01*
Y2838D01*
X3612D01*
Y2733D01*
X3708D01*
Y2838D01*
X3686D01*
Y2844D01*
X3730D01*
Y2804D01*
X3729Y2803D01*
G03Y2757I11J-23D01*
G01X3730Y2756D01*
Y2720D01*
X3720Y2710D01*
X3641D01*
X3636Y2715D01*
X3557D01*
X3508Y2764D01*
Y2838D01*
X3412D01*
Y2733D01*
X3485D01*
X3501Y2717D01*
G02X3499Y2710I-3J-3D01*
G01X3400D01*
G37*
G36*
G01X3630Y390D02*
Y320D01*
X3550D01*
Y390D01*
X3630D01*
G37*
G36*
G01Y450D02*
X3550D01*
Y520D01*
X3630D01*
Y450D01*
G37*
G36*
G01X3515Y1205D02*
X3520Y1210D01*
X3600D01*
X3605Y1205D01*
Y1130D01*
X3600Y1125D01*
X3520D01*
X3515Y1130D01*
Y1205D01*
G37*
G36*
G01X4290Y410D02*
X4030D01*
Y440D01*
X4020Y450D01*
X3930D01*
X3920Y460D01*
Y510D01*
X3930Y520D01*
X4020D01*
X4030Y530D01*
Y670D01*
X4040Y680D01*
X4280D01*
X4290Y670D01*
Y410D01*
G37*
G36*
G01X3930Y390D02*
X3990D01*
X4000Y380D01*
Y330D01*
X3990Y320D01*
X3930D01*
X3920Y330D01*
Y380D01*
X3930Y390D01*
G37*
G36*
G01X4330Y450D02*
X4320Y460D01*
Y510D01*
X4330Y520D01*
X4390D01*
X4400Y510D01*
Y460D01*
X4390Y450D01*
X4330D01*
G37*
G36*
G01Y390D02*
X4390D01*
X4400Y380D01*
Y330D01*
X4390Y320D01*
X4330D01*
X4320Y330D01*
Y380D01*
X4330Y390D01*
G37*
G54D10*
X200Y200D03*
X225Y600D03*
Y3400D03*
X200Y3800D03*
X4800Y200D03*
Y3800D03*
G54D20*
X508Y3160D03*
Y3230D03*
X777Y3197D03*
X634Y3160D03*
X636Y3230D03*
X860Y220D03*
X840Y590D03*
X1400Y3210D03*
Y3110D03*
Y3010D03*
X1680Y1225D03*
X1645Y3000D03*
X1595Y2950D03*
Y3010D03*
X1695Y3314D03*
X1645D03*
X1844Y360D03*
X1725Y1995D03*
X1840Y2625D03*
X1735Y2845D03*
X1870Y3190D03*
X1913Y3225D03*
X1745Y3314D03*
X1795D03*
X2170Y3020D03*
X2900Y3010D03*
X3156Y360D03*
X3223Y2710D03*
X3070Y2960D03*
Y3120D03*
X3140Y3220D03*
X3160Y3080D03*
Y3010D03*
X3140Y3360D03*
X3325Y825D03*
X3363Y2046D03*
X3477D03*
X3337Y2710D03*
X3460Y2990D03*
X3740Y2780D03*
X3660Y2870D03*
X4040Y900D03*
X3990Y2060D03*
X3940Y2780D03*
X4100Y2842D03*
X3970D03*
X4040D03*
X3910D03*
X4135Y950D03*
X4130Y1960D03*
Y2060D03*
X4142Y2573D03*
X4302Y2850D03*
X4200Y2640D03*
X4136Y2904D03*
X4340Y3360D03*
X4380Y3260D03*
X4790Y955D03*
Y2025D03*
G54D11*
X200Y400D03*
Y3600D03*
X795Y2115D03*
X1620Y1130D03*
X4800Y400D03*
Y3600D03*
G54D30*
X865Y1404D03*
X905D03*
X944D03*
X983D03*
X1023D03*
X1062D03*
X1102D03*
X865Y1365D03*
X905D03*
X944D03*
X983D03*
X1023D03*
X1062D03*
X1102D03*
X865Y1325D03*
X905D03*
X944D03*
X983D03*
X1023D03*
X1062D03*
X1102D03*
X865Y1680D03*
X905D03*
X944D03*
X983D03*
X1023D03*
X1062D03*
X1102D03*
X865Y1640D03*
X905D03*
X944D03*
X983D03*
X1023D03*
X1062D03*
X1102D03*
X865Y1601D03*
X905D03*
X944D03*
X983D03*
X1023D03*
X1062D03*
X1102D03*
X865Y1562D03*
X905D03*
X944D03*
X983D03*
X1023D03*
X1062D03*
X1102D03*
X865Y1522D03*
X905D03*
X944D03*
X983D03*
X1023D03*
X1062D03*
X1102D03*
X865Y1483D03*
X905D03*
X944D03*
X983D03*
X1023D03*
X1062D03*
X1102D03*
X865Y1443D03*
X905D03*
X944D03*
X983D03*
X1023D03*
X1062D03*
X1102D03*
X865Y1995D03*
X905D03*
X944D03*
X983D03*
X1023D03*
X1062D03*
X1102D03*
X865Y1955D03*
X905D03*
X944D03*
X983D03*
X1023D03*
X1062D03*
X1102D03*
X865Y1916D03*
X905D03*
X944D03*
X983D03*
X1023D03*
X1062D03*
X1102D03*
X865Y1877D03*
X905D03*
X944D03*
X983D03*
X1023D03*
X1062D03*
X1102D03*
X865Y1837D03*
X905D03*
X944D03*
X983D03*
X1023D03*
X1062D03*
X1102D03*
X865Y1798D03*
X905D03*
X944D03*
X983D03*
X1023D03*
X1062D03*
X1102D03*
X865Y1758D03*
X905D03*
X944D03*
X983D03*
X1023D03*
X1062D03*
X1102D03*
X865Y1719D03*
X905D03*
X944D03*
X983D03*
X1023D03*
X1062D03*
X1102D03*
X1141Y1404D03*
X1180D03*
X1220D03*
X1259D03*
X1298D03*
X1338D03*
X1377D03*
X1141Y1365D03*
X1180D03*
X1220D03*
X1259D03*
X1298D03*
X1338D03*
X1377D03*
X1141Y1325D03*
X1180D03*
X1220D03*
X1259D03*
X1298D03*
X1338D03*
X1377D03*
X1141Y1680D03*
X1180D03*
X1220D03*
X1259D03*
X1298D03*
X1338D03*
X1377D03*
X1141Y1640D03*
X1180D03*
X1220D03*
X1259D03*
X1298D03*
X1338D03*
X1377D03*
X1141Y1601D03*
X1180D03*
X1220D03*
X1259D03*
X1298D03*
X1338D03*
X1377D03*
X1141Y1562D03*
X1180D03*
X1220D03*
X1259D03*
X1298D03*
X1338D03*
X1377D03*
X1141Y1522D03*
X1180D03*
X1220D03*
X1259D03*
X1298D03*
X1338D03*
X1377D03*
X1141Y1483D03*
X1180D03*
X1220D03*
X1259D03*
X1298D03*
X1338D03*
X1377D03*
X1141Y1443D03*
X1180D03*
X1220D03*
X1259D03*
X1298D03*
X1338D03*
X1377D03*
X1141Y1995D03*
X1180D03*
X1220D03*
X1259D03*
X1298D03*
X1338D03*
X1377D03*
X1141Y1955D03*
X1180D03*
X1220D03*
X1259D03*
X1298D03*
X1338D03*
X1377D03*
X1141Y1916D03*
X1180D03*
X1220D03*
X1259D03*
X1298D03*
X1338D03*
X1377D03*
X1141Y1877D03*
X1180D03*
X1220D03*
X1259D03*
X1298D03*
X1338D03*
X1377D03*
X1141Y1837D03*
X1180D03*
X1220D03*
X1259D03*
X1298D03*
X1338D03*
X1377D03*
X1141Y1798D03*
X1180D03*
X1220D03*
X1259D03*
X1298D03*
X1338D03*
X1377D03*
X1141Y1758D03*
X1180D03*
X1220D03*
X1259D03*
X1298D03*
X1338D03*
X1377D03*
X1141Y1719D03*
X1180D03*
X1220D03*
X1259D03*
X1298D03*
X1338D03*
X1377D03*
X1417Y1404D03*
X1456D03*
X1495D03*
X1535D03*
X1417Y1365D03*
X1456D03*
X1495D03*
X1535D03*
X1417Y1325D03*
X1456D03*
X1495D03*
X1535D03*
X1417Y1680D03*
X1456D03*
X1495D03*
X1535D03*
X1417Y1640D03*
X1456D03*
X1495D03*
X1535D03*
X1417Y1601D03*
X1456D03*
X1495D03*
X1535D03*
X1417Y1562D03*
X1456D03*
X1495D03*
X1535D03*
X1417Y1522D03*
X1456D03*
X1495D03*
X1535D03*
X1417Y1483D03*
X1456D03*
X1495D03*
X1535D03*
X1417Y1443D03*
X1456D03*
X1495D03*
X1535D03*
X1417Y1995D03*
X1456D03*
X1495D03*
X1535D03*
X1417Y1955D03*
X1456D03*
X1495D03*
X1535D03*
X1417Y1916D03*
X1456D03*
X1495D03*
X1535D03*
X1417Y1877D03*
X1456D03*
X1495D03*
X1535D03*
X1417Y1837D03*
X1456D03*
X1495D03*
X1535D03*
X1417Y1798D03*
X1456D03*
X1495D03*
X1535D03*
X1417Y1758D03*
X1456D03*
X1495D03*
X1535D03*
X1417Y1719D03*
X1456D03*
X1495D03*
X1535D03*
G54D21*
X515Y3475D03*
Y3695D03*
Y3935D03*
X595Y3625D03*
Y3845D03*
X935Y3475D03*
Y3695D03*
X1015Y3625D03*
Y3845D03*
X935Y3935D03*
X1355Y3475D03*
Y3695D03*
X1435Y3625D03*
Y3845D03*
X1355Y3935D03*
G54D12*
G01X2500Y200D02*
Y174D01*
G01Y200D02*
X2530D01*
X59Y1003D03*
Y1028D03*
X148Y1062D03*
Y1087D03*
Y969D03*
Y944D03*
X59Y958D03*
Y1074D03*
X30Y890D03*
X90D03*
X60D03*
X148Y1324D03*
X59Y1358D03*
Y1264D03*
Y1146D03*
X148Y1180D03*
Y1205D03*
X59Y1239D03*
Y1121D03*
X148Y1298D03*
X59Y1194D03*
Y1310D03*
Y1383D03*
Y1501D03*
Y1476D03*
X148Y1442D03*
Y1417D03*
X59Y1428D03*
X35Y1690D03*
Y1650D03*
Y1610D03*
Y1570D03*
Y1530D03*
X59Y1791D03*
Y1816D03*
X148Y1850D03*
Y1875D03*
X59Y1909D03*
Y1934D03*
X148Y1968D03*
Y1993D03*
Y1732D03*
Y1757D03*
X59Y1744D03*
Y1862D03*
Y1980D03*
X148Y2229D03*
Y2204D03*
X59Y2263D03*
Y2288D03*
Y2170D03*
Y2027D03*
Y2052D03*
Y2145D03*
X148Y2086D03*
Y2111D03*
X59Y2098D03*
Y2216D03*
X149Y2581D03*
X149Y2541D03*
X35Y2335D03*
X65D03*
X95D03*
X58Y2580D03*
X150Y2486D03*
X302Y927D03*
X225Y986D03*
X247Y1075D03*
X225Y819D03*
X302Y1074D03*
Y986D03*
X225Y1223D03*
X302Y1194D03*
Y1310D03*
X470Y1660D03*
X224Y1606D03*
X225Y1459D03*
X250Y1650D03*
Y1570D03*
X350Y1645D03*
Y1610D03*
Y1570D03*
X430Y1600D03*
Y1660D03*
Y1630D03*
X302Y1428D03*
X225Y1979D03*
X247Y1862D03*
X225Y1745D03*
X302Y1980D03*
Y1862D03*
Y1744D03*
X300Y2154D03*
X402Y2310D03*
X408Y2266D03*
Y2234D03*
X264Y2259D03*
X262Y2300D03*
X410Y2194D03*
X504Y2143D03*
X226Y2216D03*
X248Y2098D03*
X302D03*
Y2233D03*
X366Y2448D03*
X392Y2360D03*
X426Y2328D03*
X386Y2466D03*
X404Y2386D03*
X410Y2604D03*
X261Y2401D03*
X262Y2360D03*
X262Y2320D03*
X422Y2363D03*
X225Y2391D03*
X404Y2414D03*
Y2486D03*
X390Y2624D03*
X510Y2670D03*
X225Y2783D03*
Y3043D03*
X560Y290D03*
X530D03*
X590D03*
X530Y470D03*
X590D03*
X560D03*
X700Y460D03*
X755D03*
Y360D03*
X640Y460D03*
Y380D03*
X700Y360D03*
X590Y1660D03*
X736Y2246D03*
Y2271D03*
Y2220D03*
Y2194D03*
X514Y2226D03*
X736Y2297D03*
X590Y2379D03*
X565Y2401D03*
Y2360D03*
X590Y2340D03*
X736Y2440D03*
Y2466D03*
Y2491D03*
Y2414D03*
X737Y2517D03*
X680Y2644D03*
X682Y2714D03*
X780Y2880D03*
X740D03*
X514Y2740D03*
X760Y2634D03*
X780Y2786D03*
X660Y2900D03*
X794Y2740D03*
Y2670D03*
X754Y2794D03*
X806D03*
X780Y2960D03*
X760Y3044D03*
X514Y3020D03*
X740Y2920D03*
Y2960D03*
X780Y2920D03*
X794Y3048D03*
X514Y2950D03*
X734Y3044D03*
X780Y3230D03*
X854Y302D03*
X906D03*
X880D03*
X820Y360D03*
X880Y480D03*
X850D03*
X910D03*
X980Y1050D03*
X1030Y910D03*
X840Y1230D03*
X1030Y1190D03*
X960Y1230D03*
X950Y1140D03*
X1040Y1700D03*
Y1620D03*
X890Y2155D03*
X820Y2880D03*
X830Y2634D03*
X1048Y2950D03*
X820Y3192D03*
Y3128D03*
Y2960D03*
Y2920D03*
X960Y2922D03*
X1340Y910D03*
Y1050D03*
X1180Y910D03*
X1340Y1190D03*
X1180D03*
X1123Y1580D03*
X1460Y960D03*
X1500D03*
X1420D03*
X1451Y1230D03*
X1569D03*
X1420Y1140D03*
X1500D03*
X1460D03*
X1880Y74D03*
X2000Y2480D03*
X1915Y2770D03*
X1870Y2705D03*
X1905Y2820D03*
X1840Y2775D03*
X2004Y2645D03*
X1810Y2775D03*
X1925Y2890D03*
X1905Y2850D03*
X1915Y2720D03*
X1770Y2810D03*
X1905Y2670D03*
X2001Y2715D03*
X2010Y2870D03*
Y2810D03*
Y2750D03*
X2001Y2975D03*
X1910Y3020D03*
X1981Y2955D03*
X1910Y3270D03*
X2250Y70D03*
X2040Y74D03*
X2250Y206D03*
X2254Y264D03*
X2244Y1986D03*
X2217D03*
X2190D03*
X2163D03*
X2136D03*
X2109D03*
X2271D03*
X2298D03*
X2040Y2666D03*
X2040Y2620D03*
X2060Y2715D03*
X2080Y2905D03*
X2159Y2666D03*
X2162Y2761D03*
X2070Y2810D03*
X2130Y2870D03*
X2070D03*
Y2750D03*
X2130Y2810D03*
Y2750D03*
X2218Y2780D03*
X2216Y2721D03*
X2060Y2956D03*
X2205Y2945D03*
X2040Y2975D03*
X2255Y2925D03*
X2090Y2975D03*
X2230Y3150D03*
Y3020D03*
X2050D03*
X2021Y2955D03*
X2230Y3270D03*
X2070D03*
X2530Y200D03*
X2500D03*
Y70D03*
X2420D03*
X2340D03*
X2580D03*
X2608Y370D03*
Y355D03*
X2568Y1986D03*
X2541D03*
X2514D03*
X2487D03*
X2460D03*
X2433D03*
X2406D03*
X2379D03*
X2352D03*
X2325D03*
X2595D03*
X2430Y3268D03*
X2570D03*
X2500D03*
X2750Y70D03*
X2840D03*
X2660D03*
Y208D03*
X2790Y70D03*
X2720D03*
X2726Y238D03*
X2746Y355D03*
X2754Y238D03*
X2766Y394D03*
X2815Y259D03*
X2785Y238D03*
X2800Y910D03*
X2770D03*
X2740D03*
X2710D03*
X2800Y870D03*
X2770D03*
X2740D03*
X2710D03*
Y830D03*
X2770Y1070D03*
X2800D03*
X2830D03*
X2860D03*
X2676Y1986D03*
X2703D03*
X2649D03*
X2622D03*
X2892D03*
X2865D03*
X2784D03*
X2757D03*
X2811D03*
X2730D03*
X2838D03*
X2880Y2762D03*
X2680Y2970D03*
X2790D03*
X2770Y3080D03*
X2740Y3122D03*
X2750Y2970D03*
X2711D03*
X2829D03*
X2849D03*
X2868D03*
X2640Y3268D03*
X2850D03*
X2780D03*
X2710D03*
X3000Y70D03*
X3016Y404D03*
X3000Y420D03*
X3082Y402D03*
X3100Y420D03*
Y920D03*
X3125D03*
X3150D03*
X2975Y1030D03*
Y990D03*
Y955D03*
Y900D03*
Y870D03*
Y840D03*
X3050Y900D03*
Y870D03*
Y840D03*
X3060Y1060D03*
X3030D03*
X3000D03*
X3120Y1100D03*
X3150D03*
X3090D03*
X3060Y953D03*
X3090Y1140D03*
X3120D03*
X3150D03*
X2946Y1986D03*
X2919D03*
X3500Y74D03*
X3430D03*
X3360D03*
X3290D03*
X3500Y360D03*
X3474Y356D03*
X3448Y358D03*
X3320Y230D03*
X3293Y537D03*
X3415Y795D03*
X3455D03*
X3490D03*
X3430Y750D03*
X3500D03*
X3360D03*
X3290D03*
X3474Y616D03*
X3415Y1020D03*
Y990D03*
Y955D03*
X3507Y953D03*
X3250Y1170D03*
Y1145D03*
Y1120D03*
X3350Y1670D03*
X3400Y2860D03*
Y2730D03*
Y2990D03*
X3450Y3214D03*
X3570Y74D03*
X3615Y510D03*
X3590Y332D03*
X3564D03*
X3616D03*
X3565Y510D03*
X3590D03*
X3535Y810D03*
X3565D03*
X3595D03*
X3647Y752D03*
X3595Y925D03*
X3565D03*
X3535D03*
X3595Y1100D03*
X3565D03*
X3525D03*
X3530Y1140D03*
X3560D03*
X3590D03*
X3750Y1175D03*
X3590Y1420D03*
X3750Y1470D03*
Y1670D03*
X3590Y1540D03*
X3600Y1670D03*
X3751Y1765D03*
X3770Y2060D03*
X3534Y2538D03*
X3646Y2520D03*
X3789Y2450D03*
X3645Y2341D03*
X3666Y2544D03*
X3724Y2520D03*
X3534Y2322D03*
X3750Y2660D03*
X3642Y2642D03*
X3720Y2730D03*
X3560D03*
X3720Y2990D03*
X3560D03*
X3592Y3230D03*
X3710D03*
X3986Y508D03*
X3934D03*
X3960D03*
X4040Y490D03*
Y420D03*
X4100D03*
X3960Y332D03*
X3986D03*
X3934D03*
X4040Y670D03*
X4100D03*
X4040Y610D03*
Y550D03*
X4100Y610D03*
X3870Y1175D03*
X3920Y1274D03*
X3870Y1667D03*
X3920Y1569D03*
Y1470D03*
X3870Y1765D03*
X4006Y2444D03*
X4010Y2580D03*
X3820Y2492D03*
X4000Y2470D03*
X3958Y2420D03*
Y2528D03*
X3857Y2361D03*
X3858Y2414D03*
X4002Y2498D03*
X4010Y2700D03*
X3840Y2842D03*
X3872Y2690D03*
X4067Y3143D03*
X4080Y2972D03*
X4082Y3077D03*
X3876Y3295D03*
X4075Y3245D03*
X4280Y490D03*
Y420D03*
X4220D03*
X4160D03*
X4386Y508D03*
X4360D03*
X4334D03*
X4335Y330D03*
X4385D03*
X4360D03*
X4280Y670D03*
X4160D03*
X4220D03*
X4280Y610D03*
Y550D03*
X4220Y610D03*
X4160D03*
X4262Y2270D03*
Y2130D03*
X4135D03*
X4136Y2200D03*
X4132Y2270D03*
X4130Y2400D03*
Y2460D03*
X4128Y2520D03*
X4262Y2460D03*
Y2400D03*
X4132Y2340D03*
X4128Y2640D03*
Y2700D03*
X4254Y2909D03*
X4140Y3150D03*
Y3010D03*
Y3080D03*
X4260D03*
X4136Y2940D03*
G54D40*
X1919Y310D03*
X1939D03*
X1959D03*
X1978D03*
X1998D03*
X2018D03*
X2037D03*
X2057D03*
X2077D03*
X2096D03*
X2116D03*
X2136D03*
X2156D03*
X2175D03*
X2195D03*
X2215D03*
X2234D03*
X2254D03*
X2274D03*
X2293D03*
X2313D03*
X2333D03*
X2352D03*
X2372D03*
X2392D03*
X2411D03*
X2431D03*
X2451D03*
X2470D03*
X2490D03*
X2510D03*
X2530D03*
X2549D03*
X2569D03*
X2589D03*
X2608D03*
X2628D03*
X2648D03*
X2667D03*
X2687D03*
X2707D03*
X2726D03*
X2746D03*
X2766D03*
X2785D03*
X2805D03*
X2825D03*
X2844D03*
X2864D03*
X2884D03*
X2904D03*
X2923D03*
X2943D03*
X2963D03*
X2982D03*
X3002D03*
X3022D03*
X3041D03*
X3061D03*
X3081D03*
G54D22*
X560Y437D03*
Y323D03*
X880Y333D03*
Y447D03*
X2765Y947D03*
Y833D03*
X3120Y1063D03*
Y1177D03*
X3590Y477D03*
Y363D03*
X3560Y1063D03*
Y1177D03*
X3960Y363D03*
Y477D03*
X4360D03*
Y363D03*
X4200Y2573D03*
Y2687D03*
G54D13*
X145Y849D03*
Y3151D03*
G54D31*
X1060Y2589D03*
X1375D03*
Y2510D03*
X1296Y2589D03*
Y2510D03*
X1217Y2589D03*
Y2510D03*
X1139Y2589D03*
Y2510D03*
G54D23*
X645Y306D03*
X695D03*
X745D03*
X795D03*
Y514D03*
X745D03*
X695D03*
X645D03*
X1645Y3056D03*
X1695D03*
Y3264D03*
X1645D03*
X1745Y3056D03*
X1795D03*
Y3264D03*
X1745D03*
X3375Y1376D03*
X3425D03*
X3475D03*
Y1584D03*
X3425D03*
X3375D03*
X3525Y1376D03*
Y1584D03*
G54D41*
X1953Y2899D03*
Y2879D03*
Y2859D03*
Y2840D03*
Y2820D03*
Y2800D03*
Y2780D03*
Y2761D03*
Y2741D03*
Y2721D03*
X2187D03*
Y2741D03*
Y2761D03*
Y2780D03*
Y2800D03*
Y2820D03*
Y2840D03*
Y2859D03*
Y2879D03*
Y2899D03*
G54D32*
X1060Y2510D03*
G54D14*
X73Y1610D03*
X187D03*
G54D50*
X2595Y3035D03*
X2925Y2705D03*
X3575Y2595D03*
X4083Y1045D03*
Y1875D03*
X3905Y2265D03*
G54D60*
X4069Y306D03*
X4160D03*
X4251D03*
G54D15*
X283Y1610D03*
X397D03*
X1443Y3010D03*
X1557D03*
X1443Y3210D03*
X1557D03*
X1443Y3110D03*
X1557D03*
X3127Y865D03*
X3013D03*
X3223Y2770D03*
X3453Y865D03*
X3363Y1990D03*
X3477D03*
X3337Y2770D03*
X3567Y865D03*
X3783Y2780D03*
X3897D03*
G54D33*
X1040Y2735D03*
Y2705D03*
X1100D03*
Y2735D03*
G54D42*
X1981Y2693D03*
X2001D03*
Y2927D03*
X1981D03*
X2021Y2693D03*
X2040D03*
X2060D03*
X2080D03*
X2100D03*
X2119D03*
X2139D03*
X2159D03*
Y2927D03*
X2139D03*
X2119D03*
X2100D03*
X2080D03*
X2060D03*
X2040D03*
X2021D03*
G54D51*
X2580Y3465D03*
G54D24*
X570Y710D03*
Y610D03*
X3750Y460D03*
Y360D03*
X4105Y3684D03*
X3997D03*
X3889D03*
X4051Y3570D03*
X3943D03*
X4213Y3684D03*
X4267Y3570D03*
X4159D03*
X4510Y360D03*
Y460D03*
X4577Y3226D03*
Y2962D03*
X4675Y3226D03*
Y2962D03*
Y3145D03*
Y3043D03*
X4818Y2280D03*
X4878Y2180D03*
Y2580D03*
X4818Y2680D03*
G54D16*
X464Y2297D03*
Y2271D03*
Y2246D03*
Y2220D03*
Y2194D03*
Y2169D03*
Y2143D03*
Y2517D03*
Y2491D03*
Y2466D03*
Y2440D03*
Y2414D03*
Y2389D03*
Y2363D03*
X696Y2143D03*
Y2169D03*
Y2194D03*
Y2220D03*
Y2246D03*
Y2271D03*
Y2297D03*
Y2363D03*
Y2389D03*
Y2414D03*
Y2440D03*
Y2466D03*
Y2491D03*
Y2517D03*
G54D43*
X2070Y2810D03*
G54D25*
X686Y2861D03*
Y2881D03*
Y2900D03*
Y2920D03*
Y2940D03*
Y2959D03*
Y2979D03*
X874Y2900D03*
Y2881D03*
Y2861D03*
Y2979D03*
Y2959D03*
Y2940D03*
Y2920D03*
G54D34*
X1040Y2770D03*
Y2670D03*
X1100D03*
Y2770D03*
G54D61*
X4160Y534D03*
G54D52*
X2580Y3665D03*
X2625Y3565D03*
X2535D03*
X2850Y3465D03*
X2760D03*
X2670D03*
X2850Y3665D03*
X2760D03*
X2670Y3665D03*
X2895Y3565D03*
X2805Y3565D03*
X2715D03*
X2940Y3465D03*
Y3665D03*
G54D70*
X4435Y2255D03*
G54D17*
X360Y2281D03*
Y2300D03*
X300D03*
Y2281D03*
Y2379D03*
Y2360D03*
Y2340D03*
Y2320D03*
X360D03*
Y2340D03*
Y2360D03*
Y2379D03*
X890Y2281D03*
Y2300D03*
X830D03*
Y2281D03*
Y2379D03*
Y2360D03*
Y2340D03*
Y2320D03*
X890D03*
Y2340D03*
Y2360D03*
Y2379D03*
G54D26*
X800Y2826D03*
X780D03*
X760D03*
X741D03*
X721D03*
Y3014D03*
X741D03*
X760D03*
X780D03*
X800D03*
X839Y2826D03*
X819D03*
Y3014D03*
X839D03*
G54D53*
X2785Y1118D03*
X2720D03*
X2785Y1182D03*
X2720D03*
X3080Y172D03*
Y108D03*
G54D44*
X1835Y3670D03*
G54D35*
X1040Y3051D03*
Y3229D03*
X1280Y3051D03*
Y3229D03*
G54D71*
X4796Y2819D03*
Y3369D03*
G54D62*
X4043Y955D03*
Y1960D03*
X4882Y955D03*
Y2025D03*
G54D18*
X300Y2259D03*
X360D03*
X300Y2401D03*
X360D03*
X830Y2259D03*
X890D03*
X830Y2401D03*
X890D03*
G54D27*
X780Y2920D03*
G54D54*
X2926Y1027D03*
Y990D03*
Y953D03*
X3024D03*
Y990D03*
Y1027D03*
X3366D03*
Y990D03*
Y953D03*
X3464D03*
Y990D03*
Y1027D03*
G54D63*
X3972Y1015D03*
Y1058D03*
G54D72*
X4825Y3094D03*
G54D45*
X1835Y3890D03*
G54D36*
X1460Y1107D03*
Y993D03*
G54D73*
G01X1023Y1325D02*
X1003Y1306D01*
G01X865Y1404D02*
X845D01*
G01X944Y1325D02*
X924Y1306D01*
G01X1062Y1404D02*
X1043Y1384D01*
G01X983Y1404D02*
X964Y1384D01*
G01X1062Y1365D02*
X1043Y1345D01*
G01X1023Y1404D02*
X1003Y1384D01*
G01X983Y1325D02*
X964Y1306D01*
G01X1023Y1365D02*
X1003Y1345D01*
G01X983Y1365D02*
X964Y1345D01*
G01X905Y1365D02*
X885Y1345D01*
G01X865Y1325D02*
X846Y1306D01*
G01X1062Y1325D02*
X1043Y1306D01*
G01X983Y1601D02*
X964Y1581D01*
G01X1102Y1640D02*
X1082Y1621D01*
G01X1102Y1680D02*
X1082Y1699D01*
G01X1062Y1483D02*
X1043Y1463D01*
G01X983Y1483D02*
X964Y1463D01*
G01X1023Y1443D02*
X1003Y1424D01*
G01X983Y1443D02*
X964Y1424D01*
G01X1062Y1443D02*
X1043Y1424D01*
G01X1023Y1680D02*
X1003Y1699D01*
G01X983Y1680D02*
X964Y1699D01*
G01X1023Y1562D02*
X1003Y1542D01*
G01X983Y1640D02*
X964Y1621D01*
G01X1062Y1601D02*
X1043Y1581D01*
G01X1023Y1640D02*
X1003Y1621D01*
G01X1102Y1601D02*
X1123Y1580D01*
G01X983Y1522D02*
X964Y1503D01*
G01X1062Y1522D02*
X1043Y1503D01*
G01X1102Y1562D02*
X1082Y1542D01*
G01X983Y1562D02*
X964Y1542D01*
G01X1023Y1522D02*
X1003Y1503D01*
G01X1062Y1562D02*
X1043Y1542D01*
G01X1023Y1601D02*
X1003Y1581D01*
G01X1023Y1483D02*
X1003Y1463D01*
G01X1102Y1798D02*
X1082Y1817D01*
G01X1023Y1798D02*
X1003Y1817D01*
G01X1062Y1798D02*
X1043Y1817D01*
G01X1023Y1837D02*
X1003Y1857D01*
G01X983Y1798D02*
X964Y1817D01*
G01X1062Y1837D02*
X1043Y1857D01*
G01X1102Y1837D02*
X1082Y1857D01*
G01X1062Y1877D02*
X1043Y1896D01*
G01X1102Y1877D02*
X1082Y1896D01*
G01X1023Y1877D02*
X1003Y1896D01*
G01X1062Y1758D02*
X1043Y1778D01*
G01X865Y1916D02*
X845D01*
G01X1062Y1719D02*
X1043Y1739D01*
G01X1102Y1758D02*
X1082Y1778D01*
G01X983Y1719D02*
X964Y1739D01*
G01X1023Y1719D02*
X1003Y1739D01*
G01X1023Y1758D02*
X1003Y1778D01*
G01X983Y1758D02*
X964Y1778D01*
G01X983Y1877D02*
X964Y1896D01*
G01X944Y1995D02*
Y2018D01*
G01X905Y1955D02*
X925Y1975D01*
G01X865Y1995D02*
Y2018D01*
G01X1102Y1719D02*
X1082Y1739D01*
G01X983Y1837D02*
X964Y1857D01*
G01X1338Y1680D02*
X1357Y1699D01*
G01X1220Y1562D02*
X1239Y1542D01*
G01X1180Y1562D02*
X1161Y1542D01*
G01X1377Y1680D02*
X1397Y1699D01*
G01X1298Y1562D02*
X1318Y1542D01*
G01X1377Y1562D02*
X1397Y1542D01*
G01X1377Y1601D02*
X1397Y1581D01*
G01X1338Y1601D02*
X1357Y1581D01*
G01X1377Y1640D02*
X1397Y1621D01*
G01X1338Y1562D02*
X1357Y1542D01*
G01X1220Y1680D02*
X1239Y1699D01*
G01X1298Y1680D02*
X1318Y1699D01*
G01X1298Y1640D02*
X1318Y1621D01*
G01X1220Y1640D02*
X1239Y1621D01*
G01X1141Y1640D02*
X1121Y1621D01*
G01X1180Y1680D02*
X1161Y1699D01*
G01X1279Y1581D02*
X1298Y1601D01*
G01X1239Y1581D02*
X1259Y1562D01*
G01X1298Y1601D02*
X1279Y1621D01*
G01X1259Y1562D02*
X1279Y1581D01*
G01Y1621D02*
X1259Y1601D01*
G01X1239Y1581D02*
X1259Y1601D01*
G01X1141D02*
X1161Y1621D01*
G01X1180Y1601D02*
X1161Y1621D01*
G01X1141Y1680D02*
X1121Y1699D01*
G01X1180Y1640D02*
X1161Y1621D01*
G01X1259Y1640D02*
X1279Y1621D01*
G01X1220Y1601D02*
X1239Y1581D01*
G01X1259Y1601D02*
X1279Y1581D01*
G01X1298Y1601D02*
X1318Y1581D01*
G01X1259Y1562D02*
X1279Y1542D01*
G01X1123Y1580D02*
X1141Y1562D01*
G01X1259Y1680D02*
X1279Y1699D01*
G01X1141Y1798D02*
X1121Y1817D01*
G01X1259Y1798D02*
X1279Y1817D01*
G01X1220Y1798D02*
X1239Y1817D01*
G01X1180Y1798D02*
X1161Y1817D01*
G01X1141Y1877D02*
X1121Y1896D01*
G01X1298Y1798D02*
X1318Y1817D01*
G01X1377Y1837D02*
X1397Y1857D01*
G01X1298Y1758D02*
X1318Y1778D01*
G01X1338Y1798D02*
X1357Y1817D01*
G01X1141Y1837D02*
X1121Y1857D01*
G01X1180Y1877D02*
X1161Y1896D01*
G01X1180Y1837D02*
X1161Y1857D01*
G01X1220Y1837D02*
X1239Y1857D01*
G01X1220Y1877D02*
X1239Y1896D01*
G01X1259Y1837D02*
X1279Y1857D01*
G01X1338Y1719D02*
X1357Y1739D01*
G01X1338Y1758D02*
X1357Y1778D01*
G01X1377Y1758D02*
X1397Y1778D01*
G01X1377Y1798D02*
X1397Y1817D01*
G01X1377Y1877D02*
X1397Y1896D01*
G01X1338Y1877D02*
X1357Y1896D01*
G01X1338Y1837D02*
X1357Y1857D01*
G01X1298Y1877D02*
X1318Y1896D01*
G01X1259Y1877D02*
X1279Y1896D01*
G01X1298Y1837D02*
X1318Y1857D01*
G01X1377Y1719D02*
X1397Y1739D01*
G01X1161Y1778D02*
X1180Y1758D01*
G01Y1719D02*
X1161Y1739D01*
G01X1141Y1758D02*
X1121Y1778D01*
G01X1141Y1719D02*
X1121Y1739D01*
G01X1220Y1719D02*
X1239Y1739D01*
G01X1259Y1719D02*
X1279Y1739D01*
G01X1298Y1719D02*
X1318Y1739D01*
G01X1259Y1758D02*
X1279Y1778D01*
G01X1220Y1758D02*
X1239Y1778D01*
G01X1456Y1325D02*
X1475Y1344D01*
Y1345D01*
G01X1535Y1404D02*
X1555D01*
G01X1535Y1325D02*
X1554Y1345D01*
G01X1495Y1365D02*
X1515Y1345D01*
G01X1417Y1680D02*
X1436Y1699D01*
G01X1417Y1640D02*
X1436Y1621D01*
G01X1417Y1522D02*
X1436Y1503D01*
G01X1417Y1562D02*
X1436Y1542D01*
G01X1417Y1601D02*
X1436Y1581D01*
G01X1417Y1877D02*
X1436Y1896D01*
G01X1417Y1758D02*
X1436Y1778D01*
G01X1417Y1798D02*
X1436Y1817D01*
G01X1417Y1719D02*
X1436Y1739D01*
G01X1456Y1995D02*
Y2015D01*
G01X1535Y1916D02*
X1555D01*
G01X1915Y2770D02*
X1925Y2780D01*
X1953D01*
G01X1870Y2880D02*
X1905D01*
X1926Y2859D01*
X1953D01*
G01X1905Y2820D02*
X1953D01*
G01X1840Y2775D02*
X1889D01*
X1914Y2800D01*
X1953D01*
G01Y2840D02*
X1915D01*
X1905Y2850D01*
G01X1925Y2890D02*
X1934Y2899D01*
X1953D01*
G01Y2879D02*
X1936D01*
X1925Y2890D01*
G01X1915Y2720D02*
Y2740D01*
X1936Y2761D01*
X1953D01*
G01X2001Y2693D02*
Y2715D01*
G01X1970Y3075D02*
X2035D01*
X2119Y2991D01*
Y2927D01*
G01X2080Y2693D02*
Y2660D01*
X2040Y2620D01*
G01X2187Y2761D02*
X2162D01*
G01X2187Y2780D02*
X2218D01*
G01X2060Y2693D02*
Y2715D01*
G01X2159Y2693D02*
Y2666D01*
G01X2187Y2721D02*
X2216D01*
G01X2100Y2927D02*
Y2965D01*
X2090Y2975D01*
G01X2080Y2927D02*
Y2905D01*
G01X2021Y2927D02*
Y2955D01*
G54D28*
X1080Y975D03*
Y1125D03*
X1280Y975D03*
Y1125D03*
X1970Y3225D03*
Y3075D03*
X2170Y3225D03*
Y3075D03*
X3460Y2935D03*
Y2785D03*
X3660Y2935D03*
Y2785D03*
G54D46*
X2223Y2520D03*
X2242D03*
X2302Y2580D03*
X2262Y2520D03*
X2282D03*
X2302D03*
X2282Y2580D03*
X2262D03*
X2242D03*
X2223D03*
X2321D03*
Y2520D03*
G54D55*
X2868Y2705D03*
X2849D03*
X2829D03*
X2809D03*
X2790D03*
X2770D03*
X2750D03*
X2730D03*
X2711D03*
X2691D03*
X2671D03*
X2652D03*
Y3035D03*
X2671D03*
X2691D03*
X2711D03*
X2730D03*
X2750D03*
X2770D03*
X2790D03*
X2809D03*
X2829D03*
X2849D03*
X2868D03*
X3789Y2265D03*
X3770D03*
X3750D03*
X3730D03*
X3710D03*
X3691D03*
X3671D03*
X3651D03*
X3632D03*
Y2595D03*
X3651D03*
X3671D03*
X3691D03*
X3710D03*
X3730D03*
X3750D03*
X3770D03*
X3789D03*
X3848Y2265D03*
X3829D03*
X3809D03*
Y2595D03*
X3829D03*
X3848D03*
G54D64*
X3972Y1111D03*
Y1175D03*
Y1274D03*
Y1372D03*
Y1470D03*
Y1569D03*
Y1667D03*
Y1864D03*
Y1765D03*
G54D19*
X300Y2195D03*
X360D03*
X690Y220D03*
X630D03*
X760D03*
X820D03*
X740Y2670D03*
X680D03*
X740Y2740D03*
X680D03*
X540Y2670D03*
X600D03*
X540Y2740D03*
X600D03*
Y2880D03*
X540D03*
X600Y2810D03*
X540D03*
X820Y3090D03*
X540Y2950D03*
X600D03*
X680Y3160D03*
X740D03*
X680Y3090D03*
X740D03*
X820Y3160D03*
X540Y3020D03*
X600D03*
X540Y3160D03*
X600D03*
Y3090D03*
X540D03*
X740Y3230D03*
X680D03*
X540D03*
X600D03*
X820D03*
X980Y1080D03*
Y1140D03*
X890Y2195D03*
X830D03*
X880Y3090D03*
Y3160D03*
X960Y2950D03*
X1020D03*
X880Y3230D03*
X1180Y2740D03*
X1240D03*
X1675Y2880D03*
Y2950D03*
X1960Y170D03*
Y110D03*
X2000Y2580D03*
Y2520D03*
X1735Y2880D03*
X1870Y2810D03*
X1810D03*
Y2670D03*
X1870D03*
X1810Y2880D03*
X1870D03*
Y2740D03*
X1810D03*
Y2950D03*
X1870D03*
X1735D03*
X2070Y2580D03*
Y2520D03*
X2140Y2580D03*
Y2520D03*
X2580Y110D03*
Y170D03*
X2420Y110D03*
Y170D03*
X2500Y3170D03*
X2430D03*
X2570D03*
X2500Y3230D03*
X2430D03*
X2570D03*
X2920Y110D03*
Y170D03*
X2725Y1025D03*
X2785D03*
X2850Y950D03*
Y1010D03*
Y825D03*
Y885D03*
X2915Y825D03*
Y885D03*
X2850Y1125D03*
Y1185D03*
X2780Y3170D03*
X2710D03*
X2850D03*
X2920D03*
X2640D03*
X2780Y3230D03*
X2710D03*
X2850D03*
X2920D03*
X2640D03*
X2990Y3170D03*
X3130Y3010D03*
X3070D03*
X3130Y3080D03*
X3070D03*
X2990Y3230D03*
X3290Y170D03*
Y110D03*
X3500Y170D03*
Y110D03*
X3430Y170D03*
Y110D03*
X3360Y170D03*
Y110D03*
X3290Y720D03*
Y660D03*
X3360Y720D03*
Y660D03*
X3500Y720D03*
Y660D03*
X3430D03*
Y720D03*
X3290Y885D03*
Y825D03*
Y950D03*
Y1010D03*
Y1080D03*
X3355Y825D03*
Y885D03*
X3290Y1140D03*
X3510Y1670D03*
X3380D03*
X3440D03*
Y2160D03*
X3380D03*
X3440Y2280D03*
X3380D03*
X3440Y2220D03*
X3380D03*
X3440Y2460D03*
X3380D03*
X3440Y2340D03*
X3380D03*
X3440Y2400D03*
X3380D03*
X3440Y2520D03*
X3380D03*
X3440Y2580D03*
X3380D03*
X3440Y2640D03*
X3380D03*
X3570Y170D03*
Y110D03*
X3780Y1175D03*
Y1670D03*
X3570D03*
X3590Y1510D03*
Y1450D03*
X3780Y1470D03*
X3650Y1970D03*
X3780Y1765D03*
X3730Y1970D03*
X3570D03*
X3650Y2030D03*
X3770Y2160D03*
Y2100D03*
X3730Y2030D03*
X3690Y2160D03*
Y2100D03*
X3570Y2030D03*
X3530Y2160D03*
Y2100D03*
X3610Y2160D03*
Y2100D03*
X3780Y2690D03*
Y2870D03*
X3680Y3090D03*
X3620D03*
X3680Y3160D03*
X3620D03*
X3780Y2940D03*
X3680Y3230D03*
X3620D03*
X3840Y1175D03*
Y1670D03*
Y1470D03*
Y1765D03*
X4040Y2130D03*
X4100D03*
X4040Y2200D03*
X4100D03*
X4040Y2270D03*
X4100D03*
X4040Y2340D03*
X4100D03*
X4040Y2580D03*
X4100D03*
X4040Y2400D03*
X4100D03*
X4040Y2460D03*
X4100D03*
X4040Y2520D03*
X4100D03*
X4040Y2700D03*
X4100D03*
Y2760D03*
X4040D03*
X3840Y2690D03*
X4100Y2640D03*
X4040D03*
Y2870D03*
X4100D03*
X3910D03*
X3970D03*
X3840D03*
X4040Y2940D03*
X4100D03*
X3910D03*
X3970D03*
X3840D03*
X4170Y2130D03*
X4230D03*
X4170Y2270D03*
X4230D03*
Y2460D03*
X4170D03*
X4230Y2400D03*
X4170D03*
X4230Y2940D03*
X4170D03*
G54D37*
X1610Y3670D03*
X2060D03*
G54D74*
G01X300Y2300D02*
X262D01*
G01X300Y2195D02*
X264Y2231D01*
Y2259D01*
G01D02*
X300D01*
G01Y2320D02*
Y2300D01*
G01D02*
Y2281D01*
G01D02*
Y2259D01*
G01X464Y2297D02*
X511D01*
X514Y2300D01*
G01X464Y2143D02*
X504D01*
G01X464Y2517D02*
X499D01*
X526Y2490D01*
Y2312D01*
X514Y2300D01*
G01X300Y2320D02*
X262D01*
G01X300Y2360D02*
X262D01*
G01X300Y2401D02*
X261D01*
G01X300D02*
Y2379D01*
G01D02*
Y2360D01*
G01D02*
Y2340D01*
G01D02*
Y2320D01*
G01X464Y2363D02*
X422D01*
G01X514Y2300D02*
Y2226D01*
G01X696Y2297D02*
X736D01*
G01X696Y2517D02*
X737D01*
G01X540Y2670D02*
X510D01*
G01X540Y2740D02*
X514D01*
G01X806Y2794D02*
X800Y2800D01*
Y2826D01*
G01X754Y2794D02*
X760Y2800D01*
Y2826D01*
G01X780D02*
Y2786D01*
G01X686Y2920D02*
Y2900D01*
G01D02*
X660D01*
G01X740Y2740D02*
X794D01*
G01X740Y2670D02*
X794D01*
G01X760Y3044D02*
Y3014D01*
G01X540Y3020D02*
X514D01*
G01X780Y3014D02*
Y3034D01*
X794Y3048D01*
G01X680Y3160D02*
X646Y3126D01*
X576D01*
X540Y3090D01*
G01X680Y3160D02*
Y3230D01*
G01X514Y2950D02*
X540D01*
G01X820Y3230D02*
X780D01*
G01X740D02*
X780D01*
G01X595Y3845D02*
X680Y3760D01*
Y3230D01*
G01X880D02*
X846Y3264D01*
X714D01*
X680Y3230D01*
G01X1080Y975D02*
Y1125D01*
G01X980Y1080D02*
Y1050D01*
G01Y1140D02*
X1065D01*
X1080Y1125D01*
G01X980Y1140D02*
X950D01*
G01X839Y3014D02*
Y3071D01*
X820Y3090D01*
G01X1020Y2950D02*
X1048D01*
G01X820Y3160D02*
Y3128D01*
G01Y3230D02*
Y3192D01*
G01D02*
Y3160D01*
G01Y3128D02*
Y3090D01*
G01X1040Y3229D02*
Y3202D01*
X998Y3160D01*
X880D01*
G01X874Y2940D02*
X926D01*
X936Y2950D01*
X960D01*
G01D02*
Y2922D01*
G01X874Y2979D02*
X899D01*
X971Y3051D01*
X1040D01*
G01X1280Y3229D02*
Y3202D01*
X1210Y3132D01*
X922D01*
X880Y3090D01*
G01X874Y2959D02*
X913D01*
X934Y2980D01*
X1240D01*
X1280Y3020D01*
Y3051D01*
G01X1435Y3625D02*
Y3457D01*
X1294Y3316D01*
X1096D01*
X1040Y3260D01*
Y3229D01*
G01X1435Y3845D02*
X1500Y3780D01*
Y3478D01*
X1280Y3258D01*
Y3229D01*
G01X1495Y1955D02*
X1535Y1995D01*
G01D02*
X1555D01*
G01X1675Y2880D02*
Y2885D01*
X1735Y2945D01*
Y2950D01*
G01X1695Y3056D02*
Y2990D01*
X1735Y2950D01*
G01X1939Y310D02*
Y259D01*
X1880Y200D01*
Y174D01*
G01X1960Y110D02*
X1994Y144D01*
Y198D01*
X1978Y214D01*
Y310D01*
G01X1960Y170D02*
X1959Y171D01*
Y310D01*
G01X1880Y106D02*
Y74D01*
G01X1844Y432D02*
Y360D01*
G01X1998Y310D02*
Y252D01*
X2040Y210D01*
Y174D01*
G01Y2620D02*
X2000Y2580D01*
G01Y2520D02*
Y2480D01*
G01X1870Y2740D02*
X1885Y2755D01*
X1900D01*
X1915Y2770D01*
G01X1810Y2880D02*
Y2875D01*
X1870Y2815D01*
Y2810D01*
G01X1810Y2880D02*
Y2950D01*
G01Y2740D02*
Y2775D01*
G01Y2810D02*
Y2775D01*
G01X1745Y3056D02*
Y3020D01*
G01X1981Y2927D02*
Y2955D01*
G01X2431Y310D02*
Y271D01*
X2422Y262D01*
X2306D01*
X2250Y206D01*
G01D02*
Y174D01*
G01Y106D02*
Y70D01*
G01X2040Y106D02*
Y74D01*
G01X2254Y310D02*
Y264D01*
G01X2580Y170D02*
X2584D01*
X2667Y253D01*
Y310D01*
G01X2420Y170D02*
Y205D01*
X2437Y222D01*
X2582D01*
X2628Y268D01*
Y310D01*
G01X2648Y310D02*
Y262D01*
X2585Y200D01*
X2530D01*
G01X2500Y174D02*
X2545Y128D01*
Y60D01*
G01X2340Y174D02*
Y204D01*
X2378Y242D01*
X2578D01*
X2608Y273D01*
Y310D01*
G01X2340Y106D02*
Y70D01*
G01X2420Y110D02*
Y70D01*
G01X2500Y106D02*
Y70D01*
G01X2580Y110D02*
Y70D01*
G01X2430Y3170D02*
Y3060D01*
X2531Y2959D01*
X2595D01*
G01X2500Y3170D02*
Y3020D01*
X2542Y2978D01*
X2595D01*
G01X2570Y3170D02*
X2652Y3088D01*
Y3035D01*
G01X2430Y3230D02*
Y3268D01*
G01X2570Y3230D02*
Y3268D01*
G01X2580Y3465D02*
X2674Y3371D01*
Y3206D01*
X2710Y3170D01*
G01X2500Y3230D02*
Y3268D01*
G01X2864Y310D02*
Y239D01*
X2840Y215D01*
Y174D01*
G01X2750Y106D02*
Y70D01*
G01X2660Y174D02*
Y208D01*
G01D02*
X2707Y255D01*
Y310D01*
G01X2840Y70D02*
Y106D01*
G01X2660D02*
Y70D01*
G01X2884Y310D02*
Y146D01*
X2920Y110D01*
G01X2844Y310D02*
Y258D01*
X2760Y174D01*
X2750D01*
G01X2726Y310D02*
Y238D01*
G01X2754D02*
X2766Y250D01*
Y310D01*
G01X2608D02*
Y355D01*
G01D02*
Y370D01*
G01X2785Y310D02*
Y238D01*
G01X2805Y310D02*
Y269D01*
X2815Y259D01*
G01D02*
X2825Y269D01*
Y310D01*
G01X2920Y170D02*
Y223D01*
X2904Y239D01*
Y310D01*
G01X2925Y2762D02*
X2880D01*
G01X2790Y3035D02*
Y2970D01*
G01X2770Y3035D02*
Y3080D01*
G01X2730Y3035D02*
Y3080D01*
X2780Y3130D01*
Y3170D01*
G01X2670Y3465D02*
X2740Y3395D01*
Y3210D01*
X2780Y3170D01*
G01X2671Y3035D02*
Y3139D01*
X2640Y3170D01*
G01X2710D02*
Y3100D01*
X2691Y3081D01*
Y3035D01*
G01X2809D02*
Y3079D01*
X2850Y3120D01*
Y3170D01*
G01X2760Y3465D02*
X2816Y3409D01*
Y3204D01*
X2850Y3170D01*
G01X2868Y3035D02*
Y2970D01*
G01X2849Y3035D02*
Y2970D01*
G01X2829Y3035D02*
Y2970D01*
G01X2711Y3035D02*
Y2970D01*
G01X2750Y3035D02*
Y2970D01*
G01X2640Y3230D02*
Y3268D01*
G01X2850Y3230D02*
Y3268D01*
G01X2780Y3230D02*
Y3268D01*
G01X2710Y3230D02*
Y3268D01*
G01X2920Y3230D02*
X2990Y3300D01*
Y3564D01*
X2940Y3614D01*
X2901D01*
X2850Y3665D01*
G01X2990Y3230D02*
X3020Y3260D01*
Y3668D01*
X2968Y3720D01*
X2815D01*
X2760Y3665D01*
G01X3000Y70D02*
Y106D01*
G01Y174D02*
X2923Y250D01*
Y310D01*
G01X3000Y174D02*
X3078D01*
X3080Y172D01*
G01X3016Y404D02*
X3041Y379D01*
Y310D01*
G01X3000Y420D02*
X3016Y404D01*
G01X3100Y420D02*
X3082Y402D01*
G01D02*
X3061Y381D01*
Y310D01*
G01X3156Y432D02*
Y360D01*
G01X3060Y953D02*
X3024D01*
G01X3397Y303D02*
Y243D01*
X3430Y210D01*
X3460D01*
X3500Y170D01*
G01X3372Y303D02*
Y228D01*
X3430Y170D01*
G01X3500Y110D02*
Y74D01*
G01X3430Y110D02*
Y74D01*
G01X3360Y110D02*
Y74D01*
G01X3290Y110D02*
Y74D01*
G01X3320Y230D02*
X3290Y200D01*
Y170D01*
G01X3346Y303D02*
Y224D01*
X3360Y210D01*
Y170D01*
G01X3570D02*
X3510Y230D01*
X3450D01*
X3423Y257D01*
Y303D01*
G01X3500D02*
Y360D01*
G01X3474Y303D02*
Y356D01*
G01X3448Y303D02*
Y358D01*
G01X3320Y303D02*
Y230D01*
G01X3500Y660D02*
X3536D01*
X3544Y668D01*
X3573D01*
G01X3500Y537D02*
Y660D01*
G01X3290Y660D02*
X3346Y604D01*
Y537D01*
G01X3448D02*
Y572D01*
X3360Y660D01*
G01X3474Y616D02*
G01X3430Y720D02*
Y750D01*
G01X3500Y720D02*
Y750D01*
G01X3360Y720D02*
Y750D01*
G01X3290Y720D02*
Y750D01*
G01X3430Y660D02*
X3474Y616D01*
G01D02*
Y537D01*
G01X3464Y953D02*
X3507D01*
G01X3375Y1584D02*
Y1665D01*
X3380Y1670D01*
G01D02*
X3350D01*
G01X3475Y1584D02*
Y1635D01*
X3440Y1670D01*
G01X3671Y2595D02*
Y2653D01*
X3628Y2696D01*
X3549D01*
X3460Y2785D01*
G01X3400Y3214D02*
X3450D01*
G01D02*
X3500D01*
G01X3570Y110D02*
Y74D01*
G01X3647Y752D02*
Y668D01*
G01X3610Y752D02*
X3647D01*
G01X3590Y1450D02*
X3550D01*
X3525Y1425D01*
Y1376D01*
G01X3780Y1175D02*
X3750D01*
G01X3590Y1450D02*
Y1420D01*
G01X3780Y1470D02*
X3750D01*
G01X3780Y1670D02*
X3750D01*
G01X3590Y1510D02*
Y1540D01*
G01X3570Y1670D02*
X3600D01*
G01X3525Y1584D02*
Y1655D01*
X3510Y1670D01*
G01X3780Y1765D02*
X3751D01*
G01X3770Y2100D02*
Y2060D01*
G01X3575Y2538D02*
X3534D01*
G01X3575Y2341D02*
X3645D01*
G01X3724Y2520D02*
X3710Y2534D01*
Y2595D01*
G01X3651D02*
Y2559D01*
X3666Y2544D01*
G01X3651Y2595D02*
Y2633D01*
X3642Y2642D01*
G01D02*
X3632Y2632D01*
Y2595D01*
G01X3575Y2322D02*
X3534D01*
G01X3710Y3230D02*
X3727Y3247D01*
X3850D01*
G01X3710Y3230D02*
X3680D01*
G01X3620D02*
X3592D01*
G01X3870Y1175D02*
X3840D01*
G01X3972D02*
X3870D01*
G01X3972Y1274D02*
X3920D01*
G01X3870Y1667D02*
X3843D01*
X3840Y1670D01*
G01X3972Y1667D02*
X3870D01*
G01X3972Y1569D02*
X3920D01*
G01X3972Y1470D02*
X3920D01*
G01D02*
X3840D01*
G01X3870Y1765D02*
X3840D01*
G01X3972D02*
X3870D01*
G01X4135Y2130D02*
X4100D01*
G01X4136Y2200D02*
X4100D01*
G01Y2270D02*
X4132D01*
G01X3958Y2420D02*
X4020D01*
X4040Y2400D01*
G01X3905Y2420D02*
X3958D01*
G01Y2528D02*
X4032D01*
X4040Y2520D01*
G01X3905Y2519D02*
X3949D01*
X3958Y2528D01*
G01X3905Y2361D02*
X3857D01*
G01X3858Y2414D02*
Y2428D01*
X3870Y2440D01*
X3905D01*
G01X4100Y2400D02*
X4130D01*
G01X4100Y2460D02*
X4130D01*
G01X4100Y2520D02*
X4128D01*
G01X4002Y2498D02*
X4040Y2460D01*
G01X4100Y2340D02*
X4132D01*
G01X3905Y2499D02*
X4001D01*
X4002Y2498D01*
G01X4186Y2860D02*
Y2780D01*
X4166Y2760D01*
X4100D01*
G01Y2640D02*
X4128D01*
G01X4100Y2700D02*
X4128D01*
G01X3840Y2870D02*
Y2842D01*
G01Y2690D02*
X3872D01*
G01X4136Y2940D02*
X4100D01*
G01X3876Y3295D02*
Y3247D01*
G01X4230Y2270D02*
X4262D01*
G01X4230Y2130D02*
X4262D01*
G01X4170D02*
X4135D01*
G01X4132Y2270D02*
X4170D01*
G01Y2400D02*
X4130D01*
G01X4170Y2460D02*
X4130D01*
G01X4230D02*
X4262D01*
G01X4230Y2400D02*
X4262D01*
G01X4254Y2860D02*
Y2909D01*
G01X4170Y2940D02*
X4136D01*
G54D56*
X3016Y1140D03*
X3456D03*
G54D47*
X2201Y2520D03*
Y2580D03*
X2343Y2520D03*
Y2580D03*
G54D38*
X1880Y174D03*
Y106D03*
X2040Y174D03*
Y106D03*
X2250Y174D03*
Y106D03*
X2500Y174D03*
Y106D03*
X2340Y174D03*
Y106D03*
X2840Y174D03*
Y106D03*
X2750Y174D03*
Y106D03*
X2660Y174D03*
Y106D03*
X3000Y174D03*
Y106D03*
X3400Y3214D03*
Y3146D03*
X3500Y3214D03*
Y3146D03*
G54D65*
X3835Y3570D03*
G54D29*
X1003Y1306D03*
X845Y1404D03*
X924Y1306D03*
X1043Y1384D03*
X964D03*
X1043Y1345D03*
X1003Y1384D03*
X964Y1306D03*
X1003Y1345D03*
X964D03*
X885D03*
X846Y1306D03*
X1043D03*
X964Y1581D03*
X1082Y1621D03*
Y1699D03*
X1043Y1463D03*
X964D03*
X1003Y1424D03*
X964D03*
X1043D03*
X1003Y1699D03*
X964D03*
X1003Y1542D03*
X964Y1621D03*
X1043Y1581D03*
X1003Y1621D03*
X964Y1503D03*
X1043D03*
X1082Y1542D03*
X964D03*
X1003Y1503D03*
X1043Y1542D03*
X1003Y1581D03*
Y1463D03*
X1082Y1817D03*
X1003D03*
X1043D03*
X1003Y1857D03*
X964Y1817D03*
X1043Y1857D03*
X1082D03*
X1043Y1896D03*
X1082D03*
X1003D03*
X1043Y1778D03*
X845Y1916D03*
X1043Y1739D03*
X1082Y1778D03*
X964Y1739D03*
X1003D03*
Y1778D03*
X964D03*
Y1896D03*
X925Y1975D03*
X1082Y1739D03*
X964Y1857D03*
X865Y2018D03*
X944D03*
X1357Y1699D03*
X1239Y1542D03*
X1161D03*
X1397Y1699D03*
X1318Y1542D03*
X1397D03*
Y1581D03*
X1357D03*
X1397Y1621D03*
X1357Y1542D03*
X1121Y1699D03*
X1239D03*
X1161Y1621D03*
X1279D03*
X1239Y1581D03*
X1279D03*
X1318D03*
X1279Y1542D03*
X1239Y1621D03*
X1161Y1699D03*
X1121Y1621D03*
X1318Y1699D03*
Y1621D03*
X1279Y1699D03*
X1121Y1817D03*
X1279D03*
X1239D03*
X1161D03*
X1121Y1896D03*
X1318Y1817D03*
X1397Y1857D03*
X1318Y1778D03*
X1357Y1817D03*
X1121Y1857D03*
X1161Y1896D03*
Y1857D03*
X1239D03*
Y1896D03*
X1279Y1857D03*
X1357Y1739D03*
Y1778D03*
X1397D03*
Y1817D03*
Y1896D03*
X1357D03*
Y1857D03*
X1318Y1896D03*
X1279D03*
X1318Y1857D03*
X1397Y1739D03*
X1121Y1778D03*
Y1739D03*
X1161D03*
X1239D03*
X1279D03*
X1161Y1778D03*
X1318Y1739D03*
X1279Y1778D03*
X1239D03*
X1475Y1345D03*
X1515Y1345D03*
X1554Y1345D03*
X1555Y1404D03*
X1436Y1699D03*
Y1621D03*
Y1503D03*
Y1542D03*
Y1581D03*
Y1896D03*
Y1778D03*
Y1817D03*
Y1739D03*
X1555Y1995D03*
Y1916D03*
X1456Y2015D03*
G54D75*
G01X1870Y2950D02*
Y2990D01*
X1835Y3025D01*
Y3670D01*
G54D39*
X1844Y432D03*
X3156D03*
G54D48*
X2258Y3565D03*
X3242D03*
X3559Y3627D03*
X4543D03*
G54D57*
X2934Y1140D03*
X3374D03*
G54D66*
X4335Y2305D03*
Y2605D03*
Y2505D03*
Y2405D03*
X4435Y2555D03*
Y2455D03*
Y2355D03*
G54D76*
G01X540Y3160D02*
X508D01*
G01X540Y3230D02*
X508D01*
G01X695Y306D02*
Y225D01*
X690Y220D01*
G01D02*
X760D01*
G01X880Y447D02*
X823D01*
X795Y475D01*
Y514D01*
G01X645D02*
Y565D01*
X670Y590D01*
X840D01*
G01X600Y3160D02*
X634D01*
G01X600Y3230D02*
X636D01*
G01X820Y220D02*
X860D01*
G01X1443Y3210D02*
X1400D01*
G01X1443Y3110D02*
X1400D01*
G01X1443Y3010D02*
X1400D01*
G01X1675Y2950D02*
X1645Y2980D01*
Y3000D01*
G01Y3056D02*
Y3000D01*
G01Y3056D02*
Y3090D01*
X1625Y3110D01*
X1557D01*
G01Y3010D02*
X1595D01*
G01X1557Y3210D02*
X1622D01*
X1645Y3233D01*
Y3264D01*
G01X1695D02*
Y3314D01*
G01X1645Y3264D02*
Y3314D01*
G01X1870Y2705D02*
Y2740D01*
G01Y2670D02*
Y2705D01*
G01X1840Y2625D02*
X1810Y2655D01*
Y2670D01*
G01X1735Y2880D02*
Y2845D01*
G01X1745Y3264D02*
Y3314D01*
G01X1795Y3264D02*
Y3314D01*
G01X2170Y3075D02*
Y3225D01*
G01Y3075D02*
Y3020D01*
G01X2545Y60D02*
X2570Y35D01*
X3040D01*
X3080Y75D01*
Y108D01*
G01X3070Y2960D02*
Y3010D01*
G01Y3080D02*
Y3120D01*
G01X3160Y3080D02*
X3130D01*
G01Y3010D02*
X3160D01*
G01X3355Y825D02*
X3325D01*
G01X3290D02*
X3325D01*
G01X3477Y1990D02*
Y2046D01*
G01X3363Y1990D02*
Y2046D01*
G01X3223Y2770D02*
Y2710D01*
G01X3337Y2770D02*
Y2710D01*
G01X3783Y2780D02*
X3740D01*
G01X3780Y2870D02*
X3660D01*
G01Y2785D02*
Y2870D01*
G01D02*
Y2935D01*
G01X3960Y363D02*
X4047D01*
X4069Y341D01*
Y306D01*
G01X4043Y955D02*
X4048Y950D01*
X4135D01*
G01X4043Y1960D02*
X4130D01*
G01X4100Y2580D02*
X4135D01*
X4142Y2573D01*
G01X3897Y2780D02*
X3940D01*
G01X4100Y2870D02*
Y2842D01*
G01X3970Y2870D02*
Y2842D01*
G01X4040Y2870D02*
Y2842D01*
G01X3910Y2870D02*
Y2842D01*
G01X4160Y306D02*
Y420D01*
G01D02*
Y534D01*
G01X4360Y363D02*
X4283D01*
X4251Y331D01*
Y306D01*
G01X4200Y2573D02*
X4142D01*
G01X4200Y2687D02*
Y2640D01*
G01X4882Y955D02*
X4790D01*
G01X4882Y2025D02*
X4790D01*
G54D58*
X3500Y537D03*
X3474D03*
X3448D03*
X3423D03*
X3397D03*
X3372D03*
X3346D03*
X3320D03*
Y303D03*
X3346D03*
X3372D03*
X3397D03*
X3423D03*
X3448D03*
X3474D03*
X3500D03*
X3850Y3013D03*
X3876D03*
X3902D03*
X3927D03*
X3953D03*
X3978D03*
X4004D03*
X4030D03*
Y3247D03*
X4004D03*
X3978D03*
X3953D03*
X3927D03*
X3902D03*
X3876D03*
X3850D03*
G54D49*
X2595Y2762D03*
Y2781D03*
Y2801D03*
Y2821D03*
Y2840D03*
Y2860D03*
Y2880D03*
Y2900D03*
Y2919D03*
Y2939D03*
Y2959D03*
Y2978D03*
X2925Y2900D03*
Y2880D03*
Y2860D03*
Y2840D03*
Y2821D03*
Y2801D03*
Y2781D03*
Y2762D03*
Y2978D03*
Y2959D03*
Y2939D03*
Y2919D03*
X3575Y2322D03*
Y2341D03*
Y2361D03*
Y2381D03*
Y2400D03*
Y2420D03*
Y2440D03*
Y2460D03*
Y2479D03*
Y2499D03*
Y2519D03*
Y2538D03*
X3905D03*
Y2519D03*
Y2499D03*
Y2479D03*
Y2460D03*
Y2440D03*
Y2420D03*
Y2400D03*
Y2381D03*
Y2361D03*
Y2341D03*
Y2322D03*
G54D67*
X4254Y2860D03*
X4186D03*
G54D77*
G01X59Y1003D02*
X327D01*
X712Y1388D01*
X928D01*
X944Y1404D01*
G01X59Y1028D02*
X335D01*
X726Y1420D01*
X889D01*
X905Y1404D01*
G01X148Y1062D02*
X160Y1050D01*
X340D01*
X718Y1428D01*
X889D01*
X905Y1443D01*
G01X865D02*
X717D01*
X373Y1100D01*
X161D01*
X148Y1087D01*
G01Y969D02*
X309D01*
X720Y1380D01*
X928D01*
X944Y1365D01*
G01X148Y944D02*
X301D01*
X721Y1365D01*
X865D01*
G01X148Y1324D02*
X160Y1335D01*
X459D01*
X670Y1546D01*
X895D01*
X928Y1546D01*
X944Y1562D01*
G01X59Y1358D02*
X463D01*
X667Y1562D01*
X865D01*
G01X59Y1264D02*
X427D01*
X685Y1522D01*
X865D01*
G01X59Y1146D02*
X386D01*
X707Y1467D01*
X928D01*
X944Y1483D01*
G01X865D02*
X703D01*
X390Y1170D01*
X158D01*
X148Y1180D01*
G01X905Y1483D02*
X889Y1498D01*
X700D01*
X416Y1215D01*
X260D01*
X245Y1200D01*
X153D01*
X148Y1205D01*
G01X59Y1239D02*
X422D01*
X689Y1507D01*
X889D01*
X905Y1522D01*
G01X59Y1121D02*
X378D01*
X716Y1459D01*
X928D01*
X944Y1443D01*
G01Y1522D02*
X928Y1538D01*
X681D01*
X428Y1285D01*
X162D01*
X148Y1298D01*
G01X59Y1383D02*
X469D01*
X664Y1577D01*
X889D01*
X905Y1562D01*
G01X59Y1501D02*
X513D01*
X637Y1625D01*
X928D01*
X944Y1640D01*
G01X865D02*
X640D01*
X584Y1696D01*
X153D01*
X59Y1791D01*
G01X944Y1601D02*
X928Y1617D01*
X647D01*
X515Y1485D01*
X68D01*
X59Y1476D01*
G01X865Y1601D02*
X649D01*
X498Y1450D01*
X258D01*
X243Y1435D01*
X155D01*
X148Y1442D01*
G01Y1417D02*
X160Y1405D01*
X473D01*
X654Y1585D01*
X889D01*
X905Y1601D01*
G01X865Y1680D02*
X666D01*
X530Y1816D01*
X59D01*
G01X944Y1680D02*
X928Y1695D01*
X667D01*
X521Y1842D01*
X156D01*
X148Y1850D01*
G01Y1875D02*
X158Y1885D01*
X495D01*
X677Y1703D01*
X928D01*
X944Y1719D01*
G01X59Y1909D02*
X489D01*
X679Y1719D01*
X865D01*
G01X59Y1934D02*
X482D01*
X681Y1735D01*
X889D01*
X905Y1719D01*
G01Y1758D02*
X889Y1743D01*
X691D01*
X474Y1960D01*
X156D01*
X148Y1968D01*
G01X865Y1758D02*
X693D01*
X452Y2000D01*
X155D01*
X148Y1993D01*
G01X1062Y1640D02*
X1047Y1656D01*
X648D01*
X584Y1720D01*
X160D01*
X148Y1732D01*
G01X1062Y1680D02*
X1047Y1664D01*
X662D01*
X556Y1770D01*
X161D01*
X148Y1757D01*
G01X366Y2448D02*
X204D01*
X148Y2392D01*
Y2229D01*
G01X464Y2414D02*
X432D01*
X414Y2432D01*
X216D01*
X166Y2382D01*
Y2222D01*
X148Y2204D01*
G01X386Y2466D02*
X194D01*
X134Y2406D01*
Y2338D01*
X59Y2263D01*
G01Y2288D02*
X63D01*
X118Y2343D01*
Y2490D01*
X140Y2512D01*
X406D01*
X452Y2558D01*
X551D01*
X626Y2483D01*
Y2028D01*
X754Y1900D01*
X889D01*
X905Y1916D01*
G01X59Y2170D02*
X322D01*
X330Y2178D01*
Y2312D01*
X338Y2320D01*
X360D01*
G01X59Y2027D02*
X443D01*
X696Y1774D01*
X928D01*
X944Y1758D01*
G01X59Y2052D02*
X436D01*
X706Y1782D01*
X859D01*
X928Y1782D01*
X944Y1798D01*
G01X59Y2145D02*
X68Y2136D01*
X403D01*
X717Y1821D01*
X889D01*
X905Y1837D01*
G01X865Y1798D02*
X707D01*
X430Y2075D01*
X159D01*
X148Y2086D01*
G01X905Y1798D02*
X889Y1813D01*
X708D01*
X402Y2120D01*
X157D01*
X148Y2111D01*
G01X944Y1916D02*
X928Y1932D01*
X738D01*
X640Y2030D01*
Y2486D01*
X558Y2568D01*
X445D01*
X399Y2522D01*
X116D01*
X58Y2580D01*
G01X150Y2486D02*
X404D01*
G01X300Y2154D02*
X319D01*
X360Y2195D01*
G01D02*
X539Y2016D01*
X540D01*
X719Y1837D01*
X865D01*
G01X402Y2310D02*
X422Y2290D01*
Y2280D01*
X431Y2271D01*
X464D01*
G01X408Y2266D02*
X428Y2246D01*
X464D01*
G01X408Y2266D02*
Y2278D01*
X386Y2300D01*
X360D01*
G01X464Y2220D02*
X422D01*
X408Y2234D01*
G01D02*
X390Y2252D01*
Y2268D01*
X377Y2281D01*
X360D01*
G01X410Y2194D02*
X360Y2244D01*
Y2259D01*
G01X464Y2194D02*
X410D01*
G01X360Y2360D02*
X392D01*
G01X464Y2440D02*
X424D01*
X416Y2448D01*
X366D01*
G01X426Y2328D02*
X414Y2340D01*
X360D01*
G01X464Y2414D02*
X496D01*
X506Y2404D01*
Y2340D01*
X494Y2328D01*
X426D01*
G01X404Y2386D02*
X397Y2379D01*
X360D01*
G01X464Y2466D02*
X386D01*
G01X360Y2320D02*
X392D01*
X402Y2310D01*
G01X404Y2486D02*
X409Y2491D01*
X464D01*
G01X360Y2401D02*
X391D01*
X404Y2414D01*
G01X590Y2379D02*
X610Y2359D01*
Y2026D01*
X744Y1892D01*
X889D01*
X905Y1877D01*
G01X565Y2401D02*
X546Y2382D01*
Y2030D01*
X723Y1853D01*
X928D01*
X944Y1837D01*
G01X565Y2360D02*
Y2031D01*
X735Y1861D01*
X928D01*
X944Y1877D01*
G01X590Y2340D02*
Y2026D01*
X739Y1877D01*
X865D01*
G01X1023Y1955D02*
X1038Y1971D01*
Y2017D01*
X1038Y2018D01*
Y2095D01*
G01X968D02*
Y2040D01*
X968Y1971D01*
X983Y1955D01*
G01X954Y2095D02*
Y2044D01*
X960Y2038D01*
Y1971D01*
X944Y1955D01*
G01X926Y2095D02*
Y2056D01*
X885Y2015D01*
Y1975D01*
X865Y1955D01*
G01X1010Y2095D02*
Y2043D01*
X1007Y2040D01*
Y1932D01*
X1023Y1916D01*
G01X982Y2095D02*
Y1996D01*
X983Y1995D01*
G01X940Y2095D02*
Y2055D01*
X905Y2020D01*
Y1995D01*
G01X1024Y2095D02*
Y1996D01*
X1023Y1995D01*
G01X996Y2095D02*
Y2038D01*
X999Y2035D01*
Y1932D01*
X983Y1916D01*
G01X1062Y1955D02*
X1046Y1971D01*
Y2015D01*
X1052Y2020D01*
Y2095D01*
G01X1066D02*
Y2069D01*
X1062Y2065D01*
Y1995D01*
G01X1108Y2095D02*
Y2075D01*
X1102Y2069D01*
Y1995D01*
G01X1080Y2095D02*
Y2085D01*
X1078Y2083D01*
Y1932D01*
X1062Y1916D01*
G01X1094Y2095D02*
Y2078D01*
X1086Y2070D01*
Y1932D01*
X1102Y1916D01*
G01X1122Y2095D02*
Y2075D01*
X1117Y2070D01*
Y1971D01*
X1102Y1955D01*
G01X1338Y1522D02*
X1353Y1507D01*
Y1312D01*
X1388Y1278D01*
X1625D01*
G01X1377Y1483D02*
X1393Y1467D01*
Y1312D01*
X1411Y1294D01*
X1545D01*
X1555Y1304D01*
X1625D01*
G01X1417Y1483D02*
X1401Y1467D01*
Y1316D01*
X1415Y1302D01*
X1540D01*
X1556Y1318D01*
X1625D01*
G01X1377Y1522D02*
X1361Y1506D01*
Y1316D01*
X1391Y1286D01*
X1550D01*
X1554Y1290D01*
X1625D01*
G01X1136Y2095D02*
Y2075D01*
X1125Y2064D01*
Y1971D01*
X1141Y1955D01*
G01X1417Y1916D02*
X1401Y1932D01*
Y2031D01*
X1430Y2060D01*
Y2095D01*
G01X1415D02*
Y2060D01*
X1393Y2038D01*
Y1932D01*
X1377Y1916D01*
G01X1402Y2095D02*
Y2062D01*
X1377Y2037D01*
Y1995D01*
G01X1388Y2095D02*
Y2063D01*
X1362Y2037D01*
Y1971D01*
X1377Y1955D01*
G01X1374Y2095D02*
Y2064D01*
X1353Y2043D01*
Y1971D01*
X1338Y1955D01*
G01Y1995D02*
Y2043D01*
X1360Y2065D01*
Y2095D01*
G01X1346D02*
Y2066D01*
X1322Y2042D01*
Y1932D01*
X1338Y1916D01*
G01X1298D02*
X1314Y1932D01*
Y2050D01*
X1332Y2068D01*
Y2095D01*
G01X1318D02*
Y2068D01*
X1298Y2048D01*
Y1995D01*
G01Y1955D02*
X1283Y1971D01*
Y2048D01*
X1304Y2069D01*
Y2095D01*
G01X1178D02*
Y2075D01*
X1165Y2062D01*
Y1932D01*
X1180Y1916D01*
G01X1192Y2095D02*
Y2075D01*
X1180Y2063D01*
Y1995D01*
G01X1206Y2095D02*
Y2076D01*
X1196Y2066D01*
Y1971D01*
X1180Y1955D01*
G01X1220Y2095D02*
Y2075D01*
X1204Y2059D01*
Y1971D01*
X1220Y1955D01*
G01X1234Y2095D02*
Y2074D01*
X1220Y2060D01*
Y1995D01*
G01X1248Y2095D02*
Y2073D01*
X1235Y2060D01*
Y1932D01*
X1220Y1916D01*
G01X1262Y2095D02*
Y2072D01*
X1243Y2053D01*
Y1932D01*
X1259Y1916D01*
G01X1276Y2095D02*
Y2071D01*
X1259Y2054D01*
Y1995D01*
G01X1150Y2095D02*
Y2075D01*
X1141Y2066D01*
Y1995D01*
G01X1164Y2095D02*
Y2075D01*
X1157Y2068D01*
Y1932D01*
X1141Y1916D01*
G01X1290Y2095D02*
Y2070D01*
X1275Y2055D01*
Y1971D01*
X1259Y1955D01*
G01X1625Y1389D02*
X1580D01*
X1579Y1388D01*
X1472D01*
X1456Y1404D01*
G01X1625Y1375D02*
X1581D01*
X1576Y1380D01*
X1450D01*
X1435Y1395D01*
Y1425D01*
X1417Y1443D01*
G01X1625Y1431D02*
X1585D01*
X1573Y1443D01*
X1535D01*
G01X1625Y1417D02*
X1585D01*
X1574Y1428D01*
X1472D01*
X1456Y1443D01*
G01X1625Y1403D02*
X1585D01*
X1568Y1420D01*
X1511D01*
X1495Y1404D01*
G01X1625Y1445D02*
X1585D01*
X1571Y1459D01*
X1511D01*
X1495Y1443D01*
G01X1625Y1627D02*
X1584D01*
X1581Y1625D01*
X1511D01*
X1495Y1640D01*
G01X1625Y1655D02*
X1586D01*
X1585Y1656D01*
X1472D01*
X1456Y1640D01*
G01X1625Y1669D02*
X1585D01*
X1580Y1664D01*
X1472D01*
X1456Y1680D01*
G01X1625Y1641D02*
X1586D01*
X1585Y1640D01*
X1535D01*
G01X1625Y1613D02*
X1585D01*
X1582Y1617D01*
X1511D01*
X1495Y1601D01*
G01X1625Y1487D02*
X1585D01*
X1574Y1498D01*
X1472D01*
X1456Y1483D01*
G01X1625Y1585D02*
X1587D01*
X1472Y1585D01*
X1456Y1601D01*
G01X1625Y1515D02*
X1585D01*
X1578Y1522D01*
X1535D01*
G01X1625Y1557D02*
X1585D01*
X1581Y1562D01*
X1535D01*
G01X1625Y1529D02*
X1585D01*
X1576Y1538D01*
X1511D01*
X1495Y1522D01*
G01X1625Y1543D02*
X1586D01*
X1583Y1546D01*
X1511D01*
X1495Y1562D01*
G01X1625Y1571D02*
X1585D01*
X1579Y1577D01*
X1472D01*
X1456Y1562D01*
G01X1625Y1599D02*
X1585D01*
X1583Y1601D01*
X1535D01*
G01X1625Y1459D02*
X1585D01*
X1577Y1467D01*
X1511D01*
X1495Y1483D01*
G01X1625Y1697D02*
X1587D01*
X1585Y1695D01*
X1511D01*
X1495Y1680D01*
G01X1625Y1683D02*
X1585D01*
X1582Y1680D01*
X1535D01*
G01X1625Y1501D02*
X1585D01*
X1579Y1507D01*
X1472D01*
X1456Y1522D01*
G01X1625Y1473D02*
X1585D01*
X1575Y1483D01*
X1535D01*
G01X1495Y1798D02*
X1511Y1782D01*
X1536D01*
X1572Y1782D01*
X1585Y1795D01*
X1625D01*
G01Y1851D02*
X1585D01*
X1571Y1837D01*
X1535D01*
G01Y1798D02*
X1538D01*
G01D02*
X1535D01*
G01X1538D02*
X1573D01*
X1585Y1809D01*
X1625D01*
G01X1535Y1758D02*
X1576D01*
X1585Y1767D01*
X1625D01*
G01Y1753D02*
X1585D01*
X1575Y1743D01*
X1472D01*
X1456Y1758D01*
G01X1625Y1725D02*
X1585D01*
X1579Y1719D01*
X1535D01*
G01X1456D02*
X1472Y1735D01*
X1581D01*
X1585Y1739D01*
X1625D01*
G01Y1711D02*
X1585D01*
X1577Y1703D01*
X1511D01*
X1495Y1719D01*
G01Y2070D02*
Y1995D01*
G01X1475Y2080D02*
Y1974D01*
X1456Y1955D01*
G01X1460Y2095D02*
X1455Y2090D01*
Y2040D01*
X1432Y2017D01*
Y1971D01*
X1417Y1955D01*
G01X1444Y2095D02*
Y2059D01*
X1417Y2032D01*
Y1995D01*
G01X1625Y1865D02*
X1585D01*
X1573Y1853D01*
X1511D01*
X1495Y1837D01*
G01X1625Y1879D02*
X1585D01*
X1567Y1861D01*
X1511D01*
X1495Y1877D01*
G01X1624Y1893D02*
X1585D01*
X1568Y1877D01*
X1535D01*
G01X1624Y1907D02*
X1584D01*
X1569Y1892D01*
X1486D01*
X1475Y1881D01*
Y1865D01*
X1465Y1855D01*
X1434D01*
X1417Y1837D01*
G01X1535Y1955D02*
X1544Y1965D01*
X1625D01*
G01Y1935D02*
X1560D01*
X1556Y1932D01*
X1511D01*
X1495Y1916D01*
G01X1625Y1921D02*
X1584D01*
X1563Y1900D01*
X1480D01*
X1456Y1877D01*
G01X1495Y1758D02*
X1511Y1774D01*
X1539D01*
X1578Y1774D01*
X1585Y1781D01*
X1625D01*
G01Y1949D02*
X1560D01*
X1551Y1940D01*
X1480D01*
X1456Y1916D01*
G01Y1798D02*
X1472Y1813D01*
X1575D01*
X1585Y1823D01*
X1625D01*
G01X1456Y1837D02*
X1472Y1822D01*
X1570D01*
X1585Y1837D01*
X1625D01*
G54D59*
X3573Y668D03*
X3647D03*
X3610Y752D03*
G54D68*
X4685Y2205D03*
Y2655D03*
G54D78*
G01X149Y2581D02*
X421D01*
X432Y2592D01*
X868D01*
X981Y2705D01*
X1040D01*
G01Y2670D02*
X964D01*
X874Y2580D01*
X438D01*
X399Y2541D01*
X149D01*
G01X390Y2624D02*
X426D01*
X434Y2616D01*
X855D01*
X1009Y2770D01*
X1040D01*
G01X410Y2604D02*
X862D01*
X993Y2735D01*
X1040D01*
G01X696Y2363D02*
X665D01*
X656Y2354D01*
Y2152D01*
X665Y2143D01*
X696D01*
G01X830Y2195D02*
X790D01*
X738Y2143D01*
X696D01*
G01X736Y2246D02*
X740D01*
X795Y2300D01*
X830D01*
G01X696Y2246D02*
X736D01*
G01Y2271D02*
X741D01*
X790Y2320D01*
X830D01*
G01X696Y2271D02*
X736D01*
G01Y2220D02*
X740D01*
X800Y2281D01*
X830D01*
G01X696Y2220D02*
X736D01*
G01Y2194D02*
X742D01*
X807Y2259D01*
X830D01*
G01X696Y2194D02*
X736D01*
G01X696Y2440D02*
X736D01*
G01D02*
X756Y2420D01*
Y2388D01*
X784Y2360D01*
X830D01*
G01X736Y2466D02*
X770Y2432D01*
Y2399D01*
X790Y2379D01*
X830D01*
G01X736Y2466D02*
X696D01*
G01X830Y2401D02*
X795D01*
X784Y2412D01*
Y2443D01*
X736Y2491D01*
G01X696D02*
X736D01*
G01Y2414D02*
Y2384D01*
X780Y2340D01*
X830D01*
G01X696Y2414D02*
X736D01*
G01X1038Y2095D02*
Y2324D01*
X1146Y2432D01*
X1358D01*
X1421Y2495D01*
Y2619D01*
X1201Y2839D01*
X951D01*
X879Y2767D01*
X743D01*
X721Y2789D01*
Y2826D01*
G01X686Y2881D02*
X665D01*
X650Y2866D01*
Y2700D01*
X680Y2670D01*
G01Y2644D02*
Y2670D01*
G01X686Y2861D02*
X679D01*
X662Y2844D01*
Y2758D01*
X680Y2740D01*
G01X682Y2714D02*
Y2738D01*
X680Y2740D01*
G01X540Y2880D02*
X570Y2910D01*
Y2920D01*
X600Y2950D01*
G01X686Y2959D02*
X647D01*
X626Y2938D01*
Y2906D01*
X600Y2880D01*
G01Y2740D02*
Y2742D01*
X569Y2773D01*
Y2781D01*
X540Y2810D01*
G01X600Y2670D02*
Y2740D01*
G01X686Y2940D02*
X652D01*
X638Y2926D01*
Y2848D01*
X600Y2810D01*
G01X686Y2979D02*
Y3045D01*
X710Y3069D01*
Y3084D01*
X716Y3090D01*
X740D01*
G01X721Y3014D02*
Y3027D01*
X712Y3036D01*
Y3048D01*
X726Y3062D01*
X758D01*
X770Y3074D01*
Y3130D01*
X740Y3160D01*
G01X600Y3020D02*
Y2950D01*
G01X741Y3014D02*
Y3037D01*
X734Y3044D01*
G01X600Y3090D02*
X680D01*
G01X890Y2320D02*
X918D01*
X968Y2270D01*
Y2095D01*
G01X890Y2300D02*
X918D01*
X954Y2264D01*
Y2095D01*
G01X890Y2259D02*
X917D01*
X926Y2250D01*
Y2095D01*
G01X890Y2379D02*
X919D01*
X1010Y2288D01*
Y2095D01*
G01X890Y2340D02*
X918D01*
X982Y2276D01*
Y2095D01*
G01X890Y2281D02*
X917D01*
X940Y2258D01*
Y2095D01*
G01X890Y2401D02*
X919D01*
X1024Y2296D01*
Y2095D01*
G01X890Y2360D02*
X918D01*
X996Y2282D01*
Y2095D01*
G01X1052D02*
Y2316D01*
X1157Y2421D01*
X1363D01*
X1432Y2490D01*
Y2624D01*
X1206Y2850D01*
X946D01*
X922Y2826D01*
X839D01*
G01X874Y2861D02*
X1210Y2861D01*
X1443Y2628D01*
Y2486D01*
X1367Y2410D01*
X1168D01*
X1066Y2308D01*
Y2095D01*
G01X874Y2920D02*
X920D01*
X946Y2894D01*
X1224D01*
X1476Y2642D01*
Y2472D01*
X1381Y2377D01*
X1201D01*
X1108Y2284D01*
Y2095D01*
G01X874Y2881D02*
X911D01*
X920Y2872D01*
X1215D01*
X1454Y2633D01*
Y2481D01*
X1372Y2399D01*
X1179D01*
X1080Y2300D01*
Y2095D01*
G01X874Y2900D02*
X916D01*
X933Y2883D01*
X1219D01*
X1465Y2637D01*
Y2477D01*
X1376Y2388D01*
X1190D01*
X1094Y2292D01*
Y2095D01*
G01X1981Y2693D02*
Y2641D01*
X1945Y2605D01*
Y2434D01*
X1877Y2366D01*
X1212D01*
X1122Y2276D01*
Y2095D01*
G01X890Y2195D02*
Y2155D01*
G01X1060Y2510D02*
X1094Y2476D01*
X1154D01*
X1172Y2494D01*
Y2662D01*
X1129Y2705D01*
X1100D01*
G01Y2670D02*
Y2549D01*
X1139Y2510D01*
G01X1100Y2770D02*
X1150D01*
X1180Y2740D01*
G01X1375Y2510D02*
X1339Y2474D01*
X1206D01*
X1186Y2494D01*
Y2678D01*
X1129Y2735D01*
X1100D01*
G01X1625Y1278D02*
X1676D01*
X2018Y935D01*
Y352D01*
X2018Y310D01*
G01X1625Y1304D02*
X1683D01*
X2042Y945D01*
Y541D01*
X2057Y526D01*
Y310D01*
G01X1625Y1318D02*
X1686D01*
X2055Y950D01*
Y550D01*
X2077Y528D01*
Y310D01*
G01X1625Y1290D02*
X1680D01*
X2030Y940D01*
Y534D01*
X2037Y527D01*
Y310D01*
G01X2040Y2666D02*
Y2652D01*
X2013Y2625D01*
X1985D01*
X1960Y2600D01*
Y2431D01*
X1884Y2355D01*
X1223D01*
X1136Y2268D01*
Y2095D01*
G01X1430D02*
Y2110D01*
X1444Y2124D01*
X2147D01*
X2538Y2515D01*
Y2750D01*
X2550Y2762D01*
X2595D01*
G01Y2781D02*
X2549D01*
X2527Y2759D01*
Y2520D01*
X2142Y2135D01*
X1435D01*
X1415Y2115D01*
Y2095D01*
G01X2595Y2801D02*
X2549D01*
X2516Y2768D01*
Y2524D01*
X2138Y2146D01*
X1426D01*
X1402Y2122D01*
Y2095D01*
G01X2595Y2821D02*
X2549D01*
X2505Y2777D01*
Y2529D01*
X2133Y2157D01*
X1417D01*
X1388Y2128D01*
Y2095D01*
G01X2595Y2840D02*
X2548D01*
X2494Y2786D01*
Y2533D01*
X2129Y2168D01*
X1408D01*
X1374Y2134D01*
Y2095D01*
G01X1360D02*
Y2140D01*
X1399Y2179D01*
X2124D01*
X2483Y2538D01*
Y2795D01*
X2548Y2860D01*
X2595D01*
G01Y2880D02*
X2548D01*
X2472Y2804D01*
Y2542D01*
X2120Y2190D01*
X1388D01*
X1346Y2148D01*
Y2095D01*
G01X1332D02*
Y2156D01*
X1377Y2201D01*
X2115D01*
X2461Y2547D01*
Y2813D01*
X2548Y2900D01*
X2595D01*
G01Y2919D02*
X2547D01*
X2450Y2822D01*
Y2551D01*
X2111Y2212D01*
X1366D01*
X1318Y2164D01*
Y2095D01*
G01X1304D02*
Y2172D01*
X1355Y2223D01*
X2106D01*
X2439Y2556D01*
Y2831D01*
X2547Y2939D01*
X2595D01*
G01X2201Y2520D02*
Y2458D01*
X2065Y2322D01*
X1256D01*
X1178Y2244D01*
Y2095D01*
G01X2223Y2520D02*
Y2464D01*
X2070Y2311D01*
X1267D01*
X1192Y2236D01*
Y2095D01*
G01X2242Y2520D02*
Y2468D01*
X2074Y2300D01*
X1278D01*
X1206Y2228D01*
Y2095D01*
G01X2262Y2520D02*
Y2473D01*
X2079Y2289D01*
X1289D01*
X1220Y2220D01*
Y2095D01*
G01X2282Y2520D02*
Y2477D01*
X2083Y2278D01*
X1300D01*
X1234Y2212D01*
Y2095D01*
G01X2302Y2520D02*
Y2481D01*
X2088Y2267D01*
X1311D01*
X1248Y2204D01*
Y2095D01*
G01X2321Y2520D02*
Y2485D01*
X2092Y2256D01*
X1322D01*
X1262Y2196D01*
Y2095D01*
G01X2343Y2520D02*
Y2491D01*
X2097Y2245D01*
X1333D01*
X1276Y2188D01*
Y2095D01*
G01X2070Y2520D02*
X1894Y2344D01*
X1234D01*
X1150Y2260D01*
Y2095D01*
G01X2140Y2520D02*
Y2413D01*
X2060Y2333D01*
X1245D01*
X1164Y2252D01*
Y2095D01*
G01X2159Y2927D02*
Y2950D01*
X2174Y2965D01*
X2245D01*
X2360Y2850D01*
Y2493D01*
X2101Y2234D01*
X1344D01*
X1290Y2180D01*
Y2095D01*
G01X1217Y2510D02*
X1256Y2549D01*
Y2664D01*
X1180Y2740D01*
G01X1375Y2589D02*
X1338Y2626D01*
Y2642D01*
X1240Y2740D01*
G01X2116Y310D02*
Y529D01*
X2078Y567D01*
Y958D01*
X1646Y1389D01*
X1625D01*
G01X2096Y310D02*
Y528D01*
X2066Y559D01*
Y954D01*
X1645Y1375D01*
X1625D01*
G01X2175Y310D02*
Y523D01*
X2114Y584D01*
Y968D01*
X1651Y1431D01*
X1625D01*
G01X2156Y310D02*
Y331D01*
X2156Y526D01*
X2102Y579D01*
Y965D01*
X1649Y1417D01*
X1625D01*
G01X2136Y310D02*
Y527D01*
X2090Y573D01*
Y961D01*
X1648Y1403D01*
X1625D01*
G01X2195Y310D02*
Y523D01*
X2126Y592D01*
Y972D01*
X1652Y1445D01*
X1625D01*
G01X2490Y310D02*
Y484D01*
X2282Y693D01*
Y1034D01*
X1688Y1627D01*
X1625D01*
G01X2530Y310D02*
Y484D01*
X2306Y708D01*
Y1044D01*
X1694Y1655D01*
X1625D01*
G01X2549Y310D02*
Y484D01*
X2318Y716D01*
Y1049D01*
X1697Y1669D01*
X1625D01*
G01X2510Y310D02*
Y484D01*
X2294Y700D01*
Y1039D01*
X1691Y1641D01*
X1625D01*
G01X2470Y310D02*
Y484D01*
X2270Y685D01*
Y1029D01*
X1685Y1613D01*
X1625D01*
G01X2274Y310D02*
Y505D01*
X2162Y617D01*
Y984D01*
X1659Y1487D01*
X1625D01*
G01X2411Y310D02*
Y506D01*
X2246Y671D01*
Y1019D01*
X1679Y1585D01*
X1625D01*
G01X2313Y310D02*
Y506D01*
X2186Y633D01*
Y994D01*
X1664Y1515D01*
X1625D01*
G01X2372Y310D02*
Y505D01*
X2222Y655D01*
Y1009D01*
X1673Y1557D01*
X1625D01*
G01X2333Y310D02*
Y506D01*
X2198Y641D01*
Y999D01*
X1667Y1529D01*
X1625D01*
G01X2352Y310D02*
Y505D01*
X2210Y647D01*
Y1004D01*
X1670Y1543D01*
X1625D01*
G01X2392Y310D02*
Y505D01*
X2234Y663D01*
Y1014D01*
X1676Y1571D01*
X1625D01*
G01X2451Y310D02*
Y484D01*
X2258Y677D01*
Y1024D01*
X1682Y1599D01*
X1625D01*
G01X2215Y310D02*
Y522D01*
X2138Y598D01*
Y976D01*
X1654Y1459D01*
X1625D01*
G01X2589Y310D02*
Y484D01*
X2342Y731D01*
Y1059D01*
X1703Y1697D01*
X1625D01*
G01X2569Y310D02*
Y484D01*
X2330Y724D01*
Y1054D01*
X1700Y1683D01*
X1625D01*
G01X2293Y310D02*
Y506D01*
X2174Y625D01*
Y989D01*
X1662Y1501D01*
X1625D01*
G01X2234Y310D02*
Y526D01*
X2150Y610D01*
Y979D01*
X1656Y1473D01*
X1625D01*
G01Y1795D02*
X1721D01*
X2420Y1097D01*
Y762D01*
X2658Y524D01*
X3219D01*
X3284Y458D01*
X3334D01*
X3372Y496D01*
Y537D01*
G01X3972Y1372D02*
X3803D01*
X3650Y1525D01*
Y1660D01*
X3459Y1851D01*
X1625D01*
G01Y1809D02*
X1722D01*
X2431Y1101D01*
Y767D01*
X2663Y534D01*
X3223D01*
X3289Y469D01*
X3319D01*
X3346Y496D01*
Y537D01*
G01X1625Y1767D02*
X1718D01*
X2398Y1087D01*
Y753D01*
X2649Y502D01*
X3210D01*
X3275Y436D01*
X3364D01*
X3423Y495D01*
Y537D01*
G01X3448D02*
Y494D01*
X3379Y425D01*
X3271D01*
X3205Y490D01*
X2644D01*
X2386Y749D01*
Y1083D01*
X1716Y1753D01*
X1625D01*
G01X2726Y310D02*
Y378D01*
X2364Y740D01*
Y1071D01*
X1709Y1725D01*
X1625D01*
G01Y1739D02*
X1712D01*
X2375Y1077D01*
Y745D01*
X2746Y373D01*
Y355D01*
G01X2687Y310D02*
Y401D01*
X2353Y736D01*
Y1065D01*
X1706Y1711D01*
X1625D01*
G01X2711Y2705D02*
Y2615D01*
X2176Y2080D01*
X1506D01*
X1495Y2070D01*
G01X2691Y2705D02*
Y2621D01*
X2161Y2091D01*
X1486D01*
X1475Y2080D01*
G01X2671Y2705D02*
Y2617D01*
X2156Y2102D01*
X1467D01*
X1460Y2095D01*
G01X2652Y2705D02*
Y2613D01*
X2152Y2113D01*
X1453D01*
X1444Y2104D01*
Y2095D01*
G01X3730Y1970D02*
X3625Y1865D01*
X1625D01*
G01X3690Y2100D02*
Y1955D01*
X3614Y1879D01*
X1625D01*
G01X3650Y1970D02*
X3573Y1893D01*
X1624D01*
G01X3610Y2100D02*
Y1955D01*
X3562Y1907D01*
X1624D01*
G01X1625Y1965D02*
X2954D01*
X3103Y2114D01*
X3450D01*
X3478Y2142D01*
Y2178D01*
X3620Y2320D01*
X3664D01*
X3756Y2412D01*
Y2526D01*
X3730Y2552D01*
Y2595D01*
G01X3530Y2100D02*
Y1960D01*
X3505Y1935D01*
X1625D01*
G01X3570Y1970D02*
X3521Y1921D01*
X1625D01*
G01Y1781D02*
X1719D01*
X2409Y1092D01*
Y757D01*
X2654Y512D01*
X3214D01*
X3280Y447D01*
X3349D01*
X3397Y495D01*
Y537D01*
G01X3770Y2595D02*
Y2408D01*
X3668Y2306D01*
X3626D01*
X3492Y2172D01*
Y2134D01*
X3458Y2100D01*
X3109D01*
X2958Y1949D01*
X1625D01*
G01Y1823D02*
X3287D01*
X3440Y1670D01*
G01X1625Y1837D02*
X3343D01*
X3510Y1670D01*
G01X2004Y2645D02*
X2021Y2662D01*
Y2693D01*
G01X2244Y1986D02*
X2829Y2571D01*
Y2705D01*
G01X2217Y1986D02*
X2809Y2578D01*
Y2705D01*
G01X2190Y1986D02*
X2790Y2586D01*
Y2705D01*
G01X2163Y1986D02*
X2770Y2593D01*
Y2705D01*
G01X2136Y1986D02*
X2750Y2600D01*
Y2705D01*
G01X2109Y1986D02*
X2730Y2607D01*
Y2705D01*
G01X2271Y1986D02*
X2849Y2564D01*
Y2705D01*
G01X2298Y1986D02*
X2868Y2556D01*
Y2705D01*
G01X2242Y2580D02*
Y2620D01*
X2266Y2644D01*
Y2802D01*
X2228Y2840D01*
X2187D01*
G01X2100Y2693D02*
Y2650D01*
X2070Y2620D01*
Y2580D01*
G01X2140D02*
X2139Y2581D01*
Y2693D01*
G01X2262Y2580D02*
Y2618D01*
X2278Y2634D01*
Y2810D01*
X2229Y2859D01*
X2187D01*
G01X2282Y2580D02*
Y2618D01*
X2290Y2626D01*
Y2818D01*
X2229Y2879D01*
X2187D01*
G01X2302Y2580D02*
Y2826D01*
X2229Y2899D01*
X2187D01*
G01Y2820D02*
X2228D01*
X2254Y2794D01*
Y2652D01*
X2223Y2621D01*
Y2580D01*
G01X2187Y2800D02*
X2228D01*
X2242Y2786D01*
Y2662D01*
X2201Y2621D01*
Y2580D01*
G01X2205Y2945D02*
X2314Y2836D01*
Y2625D01*
X2321Y2618D01*
Y2580D01*
G01X2255Y2925D02*
X2326Y2854D01*
Y2634D01*
X2343Y2617D01*
Y2580D01*
G01X2040Y2693D02*
Y2666D01*
G01X2060Y2927D02*
Y2956D01*
G01X2040Y2927D02*
Y2975D01*
G01X2568Y1986D02*
X3068Y2486D01*
Y2684D01*
X3068Y2852D01*
X2962Y2959D01*
X2925D01*
G01X2541Y1986D02*
X3057Y2502D01*
Y2680D01*
X3057Y2843D01*
X2962Y2939D01*
X2925D01*
G01X2514Y1986D02*
X3046Y2518D01*
Y2675D01*
X3046Y2835D01*
X2962Y2919D01*
X2925D01*
G01X2487Y1986D02*
X3035Y2534D01*
Y2671D01*
X3035Y2825D01*
X2961Y2900D01*
X2925D01*
G01X2460Y1986D02*
X3024Y2550D01*
Y2818D01*
X2962Y2880D01*
X2925D01*
G01X2433Y1986D02*
X3013Y2566D01*
Y2809D01*
X2962Y2860D01*
X2925D01*
G01X2406Y1986D02*
X3002Y2582D01*
Y2800D01*
X2962Y2840D01*
X2925D01*
G01X2379Y1986D02*
X2991Y2598D01*
Y2791D01*
X2961Y2821D01*
X2925D01*
G01X2352Y1986D02*
X2980Y2614D01*
Y2782D01*
X2961Y2801D01*
X2925D01*
G01X2325Y1986D02*
X2969Y2630D01*
Y2773D01*
X2961Y2781D01*
X2925D01*
G01X2595Y1986D02*
X3079Y2470D01*
Y2689D01*
X3079Y2861D01*
X2962Y2978D01*
X2925D01*
G01X2746Y355D02*
Y310D01*
G01X2766Y394D02*
Y310D01*
G01X2676Y1986D02*
X3112Y2422D01*
Y2703D01*
X3112Y2872D01*
X3295Y3055D01*
X3635D01*
X3650Y3070D01*
Y3130D01*
X3680Y3160D01*
G01X2703Y1986D02*
X3123Y2406D01*
Y2707D01*
X3123Y2863D01*
X3300Y3040D01*
X3650D01*
X3680Y3070D01*
Y3090D01*
G01X2649Y1986D02*
X3101Y2438D01*
Y2698D01*
X3101Y2870D01*
X2962Y3010D01*
Y3142D01*
X2990Y3170D01*
G01X2622Y1986D02*
X3090Y2454D01*
Y2694D01*
X3090Y2865D01*
X2950Y3006D01*
Y3140D01*
X2920Y3170D01*
G01X3380Y2280D02*
X3186D01*
X2892Y1986D01*
G01X3380Y2340D02*
X3219D01*
X2865Y1986D01*
G01X3380Y2520D02*
X3318D01*
X2784Y1986D01*
G01X3380Y2580D02*
X3351D01*
X2757Y1986D01*
G01X3380Y2460D02*
X3285D01*
X2811Y1986D01*
G01X2730D02*
X3380Y2636D01*
Y2640D01*
G01Y2400D02*
X3252D01*
X2838Y1986D01*
G01X3423Y303D02*
Y345D01*
X3392Y376D01*
X3267D01*
X3127Y236D01*
X3012D01*
X2982Y266D01*
Y310D01*
G01X2963D02*
Y263D01*
X3001Y225D01*
X3131D01*
X3271Y365D01*
X3377D01*
X3397Y345D01*
Y303D01*
G01X2943Y310D02*
Y259D01*
X2988Y214D01*
X3136D01*
X3276Y354D01*
X3362D01*
X3372Y344D01*
Y303D01*
G01X3002Y310D02*
Y268D01*
X3023Y247D01*
X3122D01*
X3262Y387D01*
X3265D01*
X3266Y388D01*
X3502D01*
X3528Y362D01*
Y264D01*
X3600Y192D01*
Y150D01*
X3590Y140D01*
X3390D01*
X3360Y170D01*
G01X2946Y1986D02*
X3120Y2160D01*
X3380D01*
G01Y2220D02*
X3153D01*
X2919Y1986D01*
G01X3293Y537D02*
X3320D01*
G01X3440Y2280D02*
X3475Y2315D01*
Y2350D01*
X3525Y2400D01*
X3575D01*
G01X3440Y2220D02*
X3495Y2275D01*
Y2345D01*
X3531Y2381D01*
X3575D01*
G01X3440Y2160D02*
X3515Y2235D01*
Y2340D01*
X3536Y2361D01*
X3575D01*
G01Y2519D02*
X3527D01*
X3496Y2550D01*
Y2584D01*
X3440Y2640D01*
G01Y2340D02*
X3520Y2420D01*
X3575D01*
G01Y2460D02*
X3440D01*
G01X3440Y2400D02*
X3475D01*
X3515Y2440D01*
X3575D01*
G01Y2499D02*
X3519D01*
X3440Y2578D01*
Y2580D01*
G01X3575Y2479D02*
X3513D01*
X3472Y2520D01*
X3440D01*
G01X3770Y2160D02*
Y2200D01*
X3750Y2220D01*
Y2265D01*
G01X3651D02*
Y2221D01*
X3630Y2200D01*
X3600D01*
X3570Y2170D01*
Y2030D01*
G01X3632Y2265D02*
Y2224D01*
X3622Y2214D01*
X3584D01*
X3530Y2160D01*
G01X3610D02*
X3671Y2221D01*
Y2265D01*
G01X3650Y2030D02*
Y2182D01*
X3691Y2223D01*
Y2265D01*
G01X3690Y2160D02*
Y2200D01*
X3710Y2220D01*
Y2265D01*
G01X3730D02*
Y2030D01*
G01X3750Y2595D02*
Y2660D01*
G01D02*
X3780Y2690D01*
G01X4335Y2505D02*
X4366Y2474D01*
Y2442D01*
X4372Y2436D01*
X4378D01*
X4384Y2442D01*
Y2488D01*
X4405Y2509D01*
X4465D01*
X4512Y2462D01*
Y2206D01*
X4466Y2160D01*
X4069D01*
X4040Y2130D01*
G01D02*
X4010Y2160D01*
X3980D01*
X3960Y2180D01*
Y2318D01*
X3952Y2326D01*
X3946D01*
X3941Y2322D01*
X3905D01*
G01X4435Y2355D02*
X4395Y2395D01*
Y2483D01*
X4410Y2498D01*
X4460D01*
X4501Y2457D01*
Y2211D01*
X4461Y2170D01*
X4069D01*
X4040Y2200D01*
G01D02*
X4011Y2171D01*
X3985D01*
X3971Y2185D01*
Y2323D01*
X3956Y2337D01*
X3946D01*
X3941Y2341D01*
X3905D01*
G01X4335Y2305D02*
X4344Y2296D01*
X4382D01*
X4388Y2302D01*
Y2322D01*
X4362Y2348D01*
X4300D01*
X4252Y2300D01*
X4069D01*
X4040Y2270D01*
G01X3905Y2381D02*
X3940D01*
X3945Y2385D01*
X3967D01*
X3984Y2368D01*
Y2316D01*
X4000Y2300D01*
X4010D01*
X4040Y2270D01*
G01X4010Y2580D02*
X4040D01*
G01X4006Y2444D02*
X3957D01*
X3941Y2460D01*
X3905D01*
G01Y2538D02*
X3928D01*
X3974Y2584D01*
Y2614D01*
X4000Y2640D01*
X4040D01*
G01Y2760D02*
X3990D01*
X3880Y2650D01*
X3840D01*
X3829Y2639D01*
Y2595D01*
G01X4435Y2255D02*
X4403D01*
X4390Y2268D01*
Y2288D01*
X4399Y2297D01*
Y2327D01*
X4367Y2359D01*
X4295D01*
X4247Y2310D01*
X4069D01*
X4040Y2340D01*
G01X3905Y2400D02*
X3940D01*
X3945Y2396D01*
X3971D01*
X3995Y2372D01*
Y2320D01*
X4005Y2311D01*
X4011D01*
X4040Y2340D01*
G01X4000Y2470D02*
X3956D01*
X3947Y2479D01*
X3905D01*
G01X4010Y2700D02*
X4040D01*
G54D69*
X4565Y2120D03*
Y2740D03*
G54D79*
G01X20Y-425D02*
Y-525D01*
G01X5Y-425D02*
X35D01*
G01X55Y-480D02*
X76D01*
X74Y-468D01*
X71Y-462D01*
X66Y-458D01*
X62Y-460D01*
X58Y-465D01*
X55Y-477D01*
X54Y-487D01*
Y-497D01*
X55Y-507D01*
X58Y-517D01*
X62Y-523D01*
X67Y-525D01*
X72Y-522D01*
X76Y-512D01*
G01X101Y-525D02*
Y-458D01*
G01Y-472D02*
X104Y-465D01*
X107Y-460D01*
X112Y-458D01*
X115Y-460D01*
X119Y-465D01*
G01X167Y-525D02*
Y-458D01*
G01Y-470D02*
X164Y-463D01*
X160Y-460D01*
X156Y-458D01*
X151Y-462D01*
X147Y-468D01*
X144Y-478D01*
X143Y-492D01*
X144Y-505D01*
X147Y-515D01*
X151Y-522D01*
X156Y-525D01*
X160Y-523D01*
X164Y-518D01*
X167Y-512D01*
G01X190Y-513D02*
X193Y-520D01*
X198Y-525D01*
X202D01*
X206Y-522D01*
X209Y-517D01*
X210Y-510D01*
X209Y-500D01*
X207Y-495D01*
X195Y-485D01*
X192Y-473D01*
X193Y-465D01*
X196Y-460D01*
X200Y-458D01*
X204Y-460D01*
X208Y-465D01*
G01X245Y-458D02*
Y-525D01*
G01Y-432D02*
X244Y-430D01*
Y-427D01*
X245Y-425D01*
X246Y-427D01*
Y-430D01*
X245Y-432D01*
G01X301Y-467D02*
X296Y-460D01*
X292Y-458D01*
X287Y-462D01*
X283Y-468D01*
X280Y-480D01*
X279Y-492D01*
X280Y-503D01*
X283Y-513D01*
X287Y-522D01*
X292Y-525D01*
X297Y-522D01*
X301Y-515D01*
G01X391Y-467D02*
X386Y-460D01*
X382Y-458D01*
X377Y-462D01*
X373Y-468D01*
X370Y-480D01*
X369Y-492D01*
X370Y-503D01*
X373Y-513D01*
X377Y-522D01*
X382Y-525D01*
X387Y-522D01*
X391Y-515D01*
G01X437Y-525D02*
Y-458D01*
G01Y-470D02*
X434Y-463D01*
X430Y-460D01*
X426Y-458D01*
X421Y-462D01*
X417Y-468D01*
X414Y-478D01*
X413Y-492D01*
X414Y-505D01*
X417Y-515D01*
X421Y-522D01*
X426Y-525D01*
X430Y-523D01*
X434Y-518D01*
X437Y-512D01*
G01X459Y-525D02*
Y-458D01*
G01Y-475D02*
X461Y-467D01*
X465Y-460D01*
X471Y-458D01*
X475Y-460D01*
X479Y-467D01*
X481Y-478D01*
Y-525D01*
G01X504D02*
Y-458D01*
G01Y-475D02*
X506Y-467D01*
X510Y-460D01*
X516Y-458D01*
X520Y-460D01*
X524Y-467D01*
X526Y-478D01*
Y-525D01*
G01X560D02*
X556Y-523D01*
X552Y-517D01*
X549Y-505D01*
X548Y-492D01*
X549Y-478D01*
X552Y-467D01*
X556Y-460D01*
X560Y-458D01*
X564Y-460D01*
X568Y-467D01*
X571Y-478D01*
X571Y-492D01*
X571Y-505D01*
X568Y-517D01*
X564Y-523D01*
X560Y-525D01*
G01X605Y-425D02*
Y-525D01*
G01X596Y-458D02*
X614D01*
G01X707Y-525D02*
Y-458D01*
G01Y-470D02*
X704Y-463D01*
X700Y-460D01*
X696Y-458D01*
X691Y-462D01*
X687Y-468D01*
X684Y-478D01*
X683Y-492D01*
X684Y-505D01*
X687Y-515D01*
X691Y-522D01*
X696Y-525D01*
X700Y-523D01*
X704Y-518D01*
X707Y-512D01*
G01X729Y-525D02*
Y-458D01*
G01Y-475D02*
X731Y-467D01*
X735Y-460D01*
X741Y-458D01*
X745Y-460D01*
X749Y-467D01*
X751Y-478D01*
Y-525D01*
G01X797Y-425D02*
Y-525D01*
G01Y-510D02*
X794Y-518D01*
X790Y-523D01*
X786Y-525D01*
X780Y-522D01*
X776Y-513D01*
X774Y-503D01*
X773Y-492D01*
X774Y-480D01*
X776Y-470D01*
X780Y-462D01*
X786Y-458D01*
X790Y-460D01*
X794Y-463D01*
X797Y-470D01*
G01X858Y-458D02*
X866Y-525D01*
X875Y-458D01*
X884Y-525D01*
X892Y-458D01*
G01X920D02*
Y-525D01*
G01Y-432D02*
X919Y-430D01*
Y-427D01*
X920Y-425D01*
X921Y-427D01*
Y-430D01*
X920Y-432D01*
G01X965Y-525D02*
Y-425D01*
G01X1010Y-525D02*
Y-425D01*
G01X1089Y-525D02*
Y-458D01*
G01Y-475D02*
X1091Y-467D01*
X1095Y-460D01*
X1101Y-458D01*
X1105Y-460D01*
X1109Y-467D01*
X1111Y-478D01*
Y-525D01*
G01X1145D02*
X1141Y-523D01*
X1137Y-517D01*
X1134Y-505D01*
X1133Y-492D01*
X1134Y-478D01*
X1137Y-467D01*
X1141Y-460D01*
X1145Y-458D01*
X1149Y-460D01*
X1153Y-467D01*
X1156Y-478D01*
X1156Y-492D01*
X1156Y-505D01*
X1153Y-517D01*
X1149Y-523D01*
X1145Y-525D01*
G01X1190Y-425D02*
Y-525D01*
G01X1181Y-458D02*
X1199D01*
G01X1268Y-525D02*
Y-425D01*
G01Y-475D02*
X1271Y-465D01*
X1275Y-460D01*
X1279Y-458D01*
X1285Y-462D01*
X1289Y-468D01*
X1292Y-480D01*
Y-493D01*
X1291Y-507D01*
X1288Y-517D01*
X1283Y-523D01*
X1279Y-525D01*
X1275Y-523D01*
X1271Y-518D01*
X1268Y-510D01*
G01X1315Y-480D02*
X1336D01*
X1334Y-468D01*
X1331Y-462D01*
X1326Y-458D01*
X1322Y-460D01*
X1318Y-465D01*
X1315Y-477D01*
X1314Y-487D01*
Y-497D01*
X1315Y-507D01*
X1318Y-517D01*
X1322Y-523D01*
X1327Y-525D01*
X1332Y-522D01*
X1336Y-512D01*
G01X1404Y-525D02*
Y-425D01*
G01Y-473D02*
X1407Y-465D01*
X1410Y-460D01*
X1416Y-458D01*
X1420Y-460D01*
X1424Y-467D01*
X1426Y-477D01*
Y-525D01*
G01X1450Y-480D02*
X1471D01*
X1469Y-468D01*
X1466Y-462D01*
X1461Y-458D01*
X1457Y-460D01*
X1453Y-465D01*
X1450Y-477D01*
X1449Y-487D01*
Y-497D01*
X1450Y-507D01*
X1453Y-517D01*
X1457Y-523D01*
X1462Y-525D01*
X1467Y-522D01*
X1471Y-512D01*
G01X1505Y-525D02*
Y-425D01*
G01X1562D02*
Y-525D01*
G01Y-510D02*
X1559Y-518D01*
X1555Y-523D01*
X1551Y-525D01*
X1545Y-522D01*
X1541Y-513D01*
X1539Y-503D01*
X1538Y-492D01*
X1539Y-480D01*
X1541Y-470D01*
X1545Y-462D01*
X1551Y-458D01*
X1555Y-460D01*
X1559Y-463D01*
X1562Y-470D01*
G01X1631Y-525D02*
Y-458D01*
G01Y-472D02*
X1634Y-465D01*
X1637Y-460D01*
X1642Y-458D01*
X1645Y-460D01*
X1649Y-465D01*
G01X1675Y-480D02*
X1696D01*
X1694Y-468D01*
X1691Y-462D01*
X1686Y-458D01*
X1682Y-460D01*
X1678Y-465D01*
X1675Y-477D01*
X1674Y-487D01*
Y-497D01*
X1675Y-507D01*
X1678Y-517D01*
X1682Y-523D01*
X1687Y-525D01*
X1692Y-522D01*
X1696Y-512D01*
G01X1720Y-513D02*
X1723Y-520D01*
X1728Y-525D01*
X1732D01*
X1736Y-522D01*
X1739Y-517D01*
X1740Y-510D01*
X1739Y-500D01*
X1737Y-495D01*
X1725Y-485D01*
X1722Y-473D01*
X1723Y-465D01*
X1726Y-460D01*
X1730Y-458D01*
X1734Y-460D01*
X1738Y-465D01*
G01X1763Y-558D02*
Y-458D01*
G01Y-473D02*
X1766Y-465D01*
X1770Y-460D01*
X1775Y-458D01*
X1780Y-460D01*
X1784Y-468D01*
X1786Y-480D01*
X1787Y-492D01*
X1786Y-503D01*
X1784Y-515D01*
X1780Y-522D01*
X1775Y-525D01*
X1770Y-523D01*
X1766Y-518D01*
X1763Y-512D01*
G01X1820Y-525D02*
X1816Y-523D01*
X1812Y-517D01*
X1809Y-505D01*
X1808Y-492D01*
X1809Y-478D01*
X1812Y-467D01*
X1816Y-460D01*
X1820Y-458D01*
X1824Y-460D01*
X1828Y-467D01*
X1831Y-478D01*
X1831Y-492D01*
X1831Y-505D01*
X1828Y-517D01*
X1824Y-523D01*
X1820Y-525D01*
G01X1854D02*
Y-458D01*
G01Y-475D02*
X1856Y-467D01*
X1860Y-460D01*
X1866Y-458D01*
X1870Y-460D01*
X1874Y-467D01*
X1876Y-478D01*
Y-525D01*
G01X1900Y-513D02*
X1903Y-520D01*
X1908Y-525D01*
X1912D01*
X1916Y-522D01*
X1919Y-517D01*
X1920Y-510D01*
X1919Y-500D01*
X1917Y-495D01*
X1905Y-485D01*
X1902Y-473D01*
X1903Y-465D01*
X1906Y-460D01*
X1910Y-458D01*
X1914Y-460D01*
X1918Y-465D01*
G01X1955Y-458D02*
Y-525D01*
G01Y-432D02*
X1954Y-430D01*
Y-427D01*
X1955Y-425D01*
X1956Y-427D01*
Y-430D01*
X1955Y-432D01*
G01X1988Y-525D02*
Y-425D01*
G01Y-475D02*
X1991Y-465D01*
X1995Y-460D01*
X1999Y-458D01*
X2005Y-462D01*
X2009Y-468D01*
X2012Y-480D01*
Y-493D01*
X2011Y-507D01*
X2008Y-517D01*
X2003Y-523D01*
X1999Y-525D01*
X1995Y-523D01*
X1991Y-518D01*
X1988Y-510D01*
G01X2045Y-525D02*
Y-425D01*
G01X2080Y-480D02*
X2101D01*
X2099Y-468D01*
X2096Y-462D01*
X2091Y-458D01*
X2087Y-460D01*
X2083Y-465D01*
X2080Y-477D01*
X2079Y-487D01*
Y-497D01*
X2080Y-507D01*
X2083Y-517D01*
X2087Y-523D01*
X2092Y-525D01*
X2097Y-522D01*
X2101Y-512D01*
G01X2176Y-525D02*
Y-440D01*
X2177Y-432D01*
X2180Y-427D01*
X2184Y-425D01*
X2188Y-428D01*
X2190Y-437D01*
G01X2182Y-465D02*
X2169D01*
G01X2225Y-525D02*
X2221Y-523D01*
X2217Y-517D01*
X2214Y-505D01*
X2213Y-492D01*
X2214Y-478D01*
X2217Y-467D01*
X2221Y-460D01*
X2225Y-458D01*
X2229Y-460D01*
X2233Y-467D01*
X2236Y-478D01*
X2236Y-492D01*
X2236Y-505D01*
X2233Y-517D01*
X2229Y-523D01*
X2225Y-525D01*
G01X2261D02*
Y-458D01*
G01Y-472D02*
X2264Y-465D01*
X2267Y-460D01*
X2272Y-458D01*
X2275Y-460D01*
X2279Y-465D01*
G01X2372Y-525D02*
Y-458D01*
G01Y-470D02*
X2369Y-463D01*
X2365Y-460D01*
X2361Y-458D01*
X2356Y-462D01*
X2352Y-468D01*
X2349Y-478D01*
X2348Y-492D01*
X2349Y-505D01*
X2352Y-515D01*
X2356Y-522D01*
X2361Y-525D01*
X2365Y-523D01*
X2369Y-518D01*
X2372Y-512D01*
G01X2394Y-525D02*
Y-458D01*
G01Y-475D02*
X2396Y-467D01*
X2400Y-460D01*
X2406Y-458D01*
X2410Y-460D01*
X2414Y-467D01*
X2416Y-478D01*
Y-525D01*
G01X2436Y-555D02*
X2440Y-558D01*
X2445Y-555D01*
X2449Y-548D01*
X2451Y-540D01*
X2455Y-513D01*
X2464Y-458D01*
G01X2443D02*
X2455Y-513D01*
G01X2540Y-525D02*
Y-425D01*
G01X2575Y-480D02*
X2596D01*
X2594Y-468D01*
X2591Y-462D01*
X2586Y-458D01*
X2582Y-460D01*
X2578Y-465D01*
X2575Y-477D01*
X2574Y-487D01*
Y-497D01*
X2575Y-507D01*
X2578Y-517D01*
X2582Y-523D01*
X2587Y-525D01*
X2592Y-522D01*
X2596Y-512D01*
G01X2621Y-550D02*
X2625Y-557D01*
X2631Y-558D01*
X2635Y-557D01*
X2639Y-548D01*
X2642Y-537D01*
Y-458D01*
G01Y-472D02*
X2639Y-465D01*
X2635Y-460D01*
X2631Y-458D01*
X2625Y-462D01*
X2622Y-468D01*
X2619Y-480D01*
X2618Y-492D01*
X2619Y-502D01*
X2621Y-513D01*
X2625Y-522D01*
X2631Y-525D01*
X2635Y-523D01*
X2639Y-517D01*
X2642Y-510D01*
G01X2687Y-525D02*
Y-458D01*
G01Y-470D02*
X2684Y-463D01*
X2680Y-460D01*
X2676Y-458D01*
X2671Y-462D01*
X2667Y-468D01*
X2664Y-478D01*
X2663Y-492D01*
X2664Y-505D01*
X2667Y-515D01*
X2671Y-522D01*
X2676Y-525D01*
X2680Y-523D01*
X2684Y-518D01*
X2687Y-512D01*
G01X2720Y-525D02*
Y-425D01*
G01X2821Y-467D02*
X2816Y-460D01*
X2812Y-458D01*
X2807Y-462D01*
X2803Y-468D01*
X2800Y-480D01*
X2799Y-492D01*
X2800Y-503D01*
X2803Y-513D01*
X2807Y-522D01*
X2812Y-525D01*
X2817Y-522D01*
X2821Y-515D01*
G01X2855Y-525D02*
X2851Y-523D01*
X2847Y-517D01*
X2844Y-505D01*
X2843Y-492D01*
X2844Y-478D01*
X2847Y-467D01*
X2851Y-460D01*
X2855Y-458D01*
X2859Y-460D01*
X2863Y-467D01*
X2866Y-478D01*
X2866Y-492D01*
X2866Y-505D01*
X2863Y-517D01*
X2859Y-523D01*
X2855Y-525D01*
G01X2889D02*
Y-458D01*
G01Y-475D02*
X2891Y-467D01*
X2895Y-460D01*
X2901Y-458D01*
X2905Y-460D01*
X2909Y-467D01*
X2911Y-478D01*
Y-525D01*
G01X2935Y-513D02*
X2938Y-520D01*
X2943Y-525D01*
X2947D01*
X2951Y-522D01*
X2954Y-517D01*
X2955Y-510D01*
X2954Y-500D01*
X2952Y-495D01*
X2940Y-485D01*
X2937Y-473D01*
X2938Y-465D01*
X2941Y-460D01*
X2945Y-458D01*
X2949Y-460D01*
X2953Y-465D01*
G01X2980Y-480D02*
X3001D01*
X2999Y-468D01*
X2996Y-462D01*
X2991Y-458D01*
X2987Y-460D01*
X2983Y-465D01*
X2980Y-477D01*
X2979Y-487D01*
Y-497D01*
X2980Y-507D01*
X2983Y-517D01*
X2987Y-523D01*
X2992Y-525D01*
X2997Y-522D01*
X3001Y-512D01*
G01X3047Y-558D02*
Y-458D01*
G01Y-473D02*
X3044Y-465D01*
X3040Y-460D01*
X3035Y-458D01*
X3031Y-460D01*
X3026Y-468D01*
X3024Y-480D01*
X3023Y-492D01*
X3024Y-503D01*
X3026Y-515D01*
X3031Y-523D01*
X3035Y-525D01*
X3040Y-523D01*
X3044Y-518D01*
X3047Y-510D01*
G01X3069Y-458D02*
Y-505D01*
X3071Y-517D01*
X3075Y-523D01*
X3080Y-525D01*
X3085Y-523D01*
X3089Y-517D01*
X3091Y-505D01*
G01Y-525D02*
Y-458D01*
G01X3115Y-480D02*
X3136D01*
X3134Y-468D01*
X3131Y-462D01*
X3126Y-458D01*
X3122Y-460D01*
X3118Y-465D01*
X3115Y-477D01*
X3114Y-487D01*
Y-497D01*
X3115Y-507D01*
X3118Y-517D01*
X3122Y-523D01*
X3127Y-525D01*
X3132Y-522D01*
X3136Y-512D01*
G01X3159Y-525D02*
Y-458D01*
G01Y-475D02*
X3161Y-467D01*
X3165Y-460D01*
X3171Y-458D01*
X3175Y-460D01*
X3179Y-467D01*
X3181Y-478D01*
Y-525D01*
G01X3226Y-467D02*
X3221Y-460D01*
X3217Y-458D01*
X3212Y-462D01*
X3208Y-468D01*
X3205Y-480D01*
X3204Y-492D01*
X3205Y-503D01*
X3208Y-513D01*
X3212Y-522D01*
X3217Y-525D01*
X3222Y-522D01*
X3226Y-515D01*
G01X3250Y-480D02*
X3271D01*
X3269Y-468D01*
X3266Y-462D01*
X3261Y-458D01*
X3257Y-460D01*
X3253Y-465D01*
X3250Y-477D01*
X3249Y-487D01*
Y-497D01*
X3250Y-507D01*
X3253Y-517D01*
X3257Y-523D01*
X3262Y-525D01*
X3267Y-522D01*
X3271Y-512D01*
G01X3295Y-513D02*
X3298Y-520D01*
X3303Y-525D01*
X3307D01*
X3311Y-522D01*
X3314Y-517D01*
X3315Y-510D01*
X3314Y-500D01*
X3312Y-495D01*
X3300Y-485D01*
X3297Y-473D01*
X3298Y-465D01*
X3301Y-460D01*
X3305Y-458D01*
X3309Y-460D01*
X3313Y-465D01*
G01X3395Y-525D02*
X3391Y-523D01*
X3387Y-517D01*
X3384Y-505D01*
X3383Y-492D01*
X3384Y-478D01*
X3387Y-467D01*
X3391Y-460D01*
X3395Y-458D01*
X3399Y-460D01*
X3403Y-467D01*
X3406Y-478D01*
X3406Y-492D01*
X3406Y-505D01*
X3403Y-517D01*
X3399Y-523D01*
X3395Y-525D01*
G01X3436D02*
Y-440D01*
X3437Y-432D01*
X3440Y-427D01*
X3444Y-425D01*
X3448Y-428D01*
X3450Y-437D01*
G01X3442Y-465D02*
X3429D01*
G01X3519Y-458D02*
Y-505D01*
X3521Y-517D01*
X3525Y-523D01*
X3530Y-525D01*
X3535Y-523D01*
X3539Y-517D01*
X3541Y-505D01*
G01Y-525D02*
Y-458D01*
G01X3565Y-513D02*
X3568Y-520D01*
X3573Y-525D01*
X3577D01*
X3581Y-522D01*
X3584Y-517D01*
X3585Y-510D01*
X3584Y-500D01*
X3582Y-495D01*
X3570Y-485D01*
X3567Y-473D01*
X3568Y-465D01*
X3571Y-460D01*
X3575Y-458D01*
X3579Y-460D01*
X3583Y-465D01*
G01X3620Y-458D02*
Y-525D01*
G01Y-432D02*
X3619Y-430D01*
Y-427D01*
X3620Y-425D01*
X3621Y-427D01*
Y-430D01*
X3620Y-432D01*
G01X3654Y-525D02*
Y-458D01*
G01Y-475D02*
X3656Y-467D01*
X3660Y-460D01*
X3666Y-458D01*
X3670Y-460D01*
X3674Y-467D01*
X3676Y-478D01*
Y-525D01*
G01X3701Y-550D02*
X3705Y-557D01*
X3711Y-558D01*
X3715Y-557D01*
X3719Y-548D01*
X3722Y-537D01*
Y-458D01*
G01Y-472D02*
X3719Y-465D01*
X3715Y-460D01*
X3711Y-458D01*
X3705Y-462D01*
X3702Y-468D01*
X3699Y-480D01*
X3698Y-492D01*
X3699Y-502D01*
X3701Y-513D01*
X3705Y-522D01*
X3711Y-525D01*
X3715Y-523D01*
X3719Y-517D01*
X3722Y-510D01*
G01X3800Y-425D02*
Y-525D01*
G01X3791Y-458D02*
X3809D01*
G01X3834Y-525D02*
Y-425D01*
G01Y-473D02*
X3837Y-465D01*
X3840Y-460D01*
X3846Y-458D01*
X3850Y-460D01*
X3854Y-467D01*
X3856Y-477D01*
Y-525D01*
G01X3890Y-458D02*
Y-525D01*
G01Y-432D02*
X3889Y-430D01*
Y-427D01*
X3890Y-425D01*
X3891Y-427D01*
Y-430D01*
X3890Y-432D01*
G01X3925Y-513D02*
X3928Y-520D01*
X3933Y-525D01*
X3937D01*
X3941Y-522D01*
X3944Y-517D01*
X3945Y-510D01*
X3944Y-500D01*
X3942Y-495D01*
X3930Y-485D01*
X3927Y-473D01*
X3928Y-465D01*
X3931Y-460D01*
X3935Y-458D01*
X3939Y-460D01*
X3943Y-465D01*
G01X4037Y-425D02*
Y-525D01*
G01Y-510D02*
X4034Y-518D01*
X4030Y-523D01*
X4026Y-525D01*
X4020Y-522D01*
X4016Y-513D01*
X4014Y-503D01*
X4013Y-492D01*
X4014Y-480D01*
X4016Y-470D01*
X4020Y-462D01*
X4026Y-458D01*
X4030Y-460D01*
X4034Y-463D01*
X4037Y-470D01*
G01X4060Y-480D02*
X4081D01*
X4079Y-468D01*
X4076Y-462D01*
X4071Y-458D01*
X4067Y-460D01*
X4063Y-465D01*
X4060Y-477D01*
X4059Y-487D01*
Y-497D01*
X4060Y-507D01*
X4063Y-517D01*
X4067Y-523D01*
X4072Y-525D01*
X4077Y-522D01*
X4081Y-512D01*
G01X4105Y-513D02*
X4108Y-520D01*
X4113Y-525D01*
X4117D01*
X4121Y-522D01*
X4124Y-517D01*
X4125Y-510D01*
X4124Y-500D01*
X4122Y-495D01*
X4110Y-485D01*
X4107Y-473D01*
X4108Y-465D01*
X4111Y-460D01*
X4115Y-458D01*
X4119Y-460D01*
X4123Y-465D01*
G01X4160Y-458D02*
Y-525D01*
G01Y-432D02*
X4159Y-430D01*
Y-427D01*
X4160Y-425D01*
X4161Y-427D01*
Y-430D01*
X4160Y-432D01*
G01X4196Y-550D02*
X4200Y-557D01*
X4206Y-558D01*
X4210Y-557D01*
X4214Y-548D01*
X4217Y-537D01*
Y-458D01*
G01Y-472D02*
X4214Y-465D01*
X4210Y-460D01*
X4206Y-458D01*
X4200Y-462D01*
X4197Y-468D01*
X4194Y-480D01*
X4193Y-492D01*
X4194Y-502D01*
X4196Y-513D01*
X4200Y-522D01*
X4206Y-525D01*
X4210Y-523D01*
X4214Y-517D01*
X4217Y-510D01*
G01X4239Y-525D02*
Y-458D01*
G01Y-475D02*
X4241Y-467D01*
X4245Y-460D01*
X4251Y-458D01*
X4255Y-460D01*
X4259Y-467D01*
X4261Y-478D01*
Y-525D01*
G01X4336D02*
Y-440D01*
X4337Y-432D01*
X4340Y-427D01*
X4344Y-425D01*
X4348Y-428D01*
X4350Y-437D01*
G01X4342Y-465D02*
X4329D01*
G01X4385Y-458D02*
Y-525D01*
G01Y-432D02*
X4384Y-430D01*
Y-427D01*
X4385Y-425D01*
X4386Y-427D01*
Y-430D01*
X4385Y-432D01*
G01X4430Y-525D02*
Y-425D01*
G01X4465Y-480D02*
X4486D01*
X4484Y-468D01*
X4481Y-462D01*
X4476Y-458D01*
X4472Y-460D01*
X4468Y-465D01*
X4465Y-477D01*
X4464Y-487D01*
Y-497D01*
X4465Y-507D01*
X4468Y-517D01*
X4472Y-523D01*
X4477Y-525D01*
X4482Y-522D01*
X4486Y-512D01*
G01X4565Y-425D02*
Y-525D01*
G01X4556Y-458D02*
X4574D01*
G01X4610Y-525D02*
X4606Y-523D01*
X4602Y-517D01*
X4599Y-505D01*
X4598Y-492D01*
X4599Y-478D01*
X4602Y-467D01*
X4606Y-460D01*
X4610Y-458D01*
X4614Y-460D01*
X4618Y-467D01*
X4621Y-478D01*
X4621Y-492D01*
X4621Y-505D01*
X4618Y-517D01*
X4614Y-523D01*
X4610Y-525D01*
G01X4680D02*
Y-458D01*
G01Y-477D02*
X4682Y-468D01*
X4685Y-462D01*
X4690Y-458D01*
X4695Y-462D01*
X4698Y-468D01*
X4700Y-477D01*
Y-525D01*
G01Y-477D02*
X4702Y-468D01*
X4705Y-462D01*
X4710Y-458D01*
X4715Y-462D01*
X4718Y-468D01*
X4720Y-478D01*
Y-525D01*
G01X4757D02*
Y-458D01*
G01Y-470D02*
X4754Y-463D01*
X4750Y-460D01*
X4746Y-458D01*
X4741Y-462D01*
X4737Y-468D01*
X4734Y-478D01*
X4733Y-492D01*
X4734Y-505D01*
X4737Y-515D01*
X4741Y-522D01*
X4746Y-525D01*
X4750Y-523D01*
X4754Y-518D01*
X4757Y-512D01*
G01X4779Y-525D02*
Y-425D01*
G01X4800Y-458D02*
X4779Y-497D01*
G01X4787Y-482D02*
X4801Y-525D01*
G01X4825Y-480D02*
X4846D01*
X4844Y-468D01*
X4841Y-462D01*
X4836Y-458D01*
X4832Y-460D01*
X4828Y-465D01*
X4825Y-477D01*
X4824Y-487D01*
Y-497D01*
X4825Y-507D01*
X4828Y-517D01*
X4832Y-523D01*
X4837Y-525D01*
X4842Y-522D01*
X4846Y-512D01*
G01X4912Y-525D02*
Y-425D01*
X4928D01*
X4933Y-430D01*
X4937Y-442D01*
X4938Y-455D01*
X4937Y-468D01*
X4934Y-478D01*
X4928Y-483D01*
X4912D01*
G01X4985Y-433D02*
X4981Y-428D01*
X4976Y-425D01*
X4971D01*
X4965Y-430D01*
X4960Y-438D01*
X4957Y-448D01*
X4954Y-465D01*
X4953Y-480D01*
X4955Y-495D01*
X4957Y-505D01*
X4961Y-515D01*
X4965Y-522D01*
X4970Y-525D01*
X4975D01*
X4979Y-522D01*
X4983Y-517D01*
X4987Y-510D01*
G01X5020Y-472D02*
X5023Y-467D01*
X5025Y-458D01*
X5026Y-447D01*
X5025Y-437D01*
X5022Y-430D01*
X5018Y-425D01*
X5000D01*
Y-525D01*
X5022D01*
X5026Y-518D01*
X5029Y-508D01*
X5030Y-497D01*
X5029Y-485D01*
X5025Y-475D01*
X5020Y-472D01*
X5000D01*
G01X5117Y-425D02*
Y-525D01*
G01Y-510D02*
X5114Y-518D01*
X5110Y-523D01*
X5106Y-525D01*
X5100Y-522D01*
X5096Y-513D01*
X5094Y-503D01*
X5093Y-492D01*
X5094Y-480D01*
X5096Y-470D01*
X5100Y-462D01*
X5106Y-458D01*
X5110Y-460D01*
X5114Y-463D01*
X5117Y-470D01*
G01X5150Y-458D02*
Y-525D01*
G01Y-432D02*
X5149Y-430D01*
Y-427D01*
X5150Y-425D01*
X5151Y-427D01*
Y-430D01*
X5150Y-432D01*
G01X5186Y-525D02*
Y-458D01*
G01Y-472D02*
X5189Y-465D01*
X5192Y-460D01*
X5197Y-458D01*
X5200Y-460D01*
X5204Y-465D01*
G01X5230Y-480D02*
X5251D01*
X5249Y-468D01*
X5246Y-462D01*
X5241Y-458D01*
X5237Y-460D01*
X5233Y-465D01*
X5230Y-477D01*
X5229Y-487D01*
Y-497D01*
X5230Y-507D01*
X5233Y-517D01*
X5237Y-523D01*
X5242Y-525D01*
X5247Y-522D01*
X5251Y-512D01*
G01X5296Y-467D02*
X5291Y-460D01*
X5287Y-458D01*
X5282Y-462D01*
X5278Y-468D01*
X5275Y-480D01*
X5274Y-492D01*
X5275Y-503D01*
X5278Y-513D01*
X5282Y-522D01*
X5287Y-525D01*
X5292Y-522D01*
X5296Y-515D01*
G01X5330Y-425D02*
Y-525D01*
G01X5321Y-458D02*
X5339D01*
G01X5375Y-525D02*
Y-425D01*
G01X5406Y-555D02*
X5410Y-558D01*
X5415Y-555D01*
X5419Y-548D01*
X5421Y-540D01*
X5425Y-513D01*
X5434Y-458D01*
G01X5413D02*
X5425Y-513D01*
G01X5465Y-528D02*
X5464Y-527D01*
Y-523D01*
X5465Y-522D01*
X5466Y-523D01*
Y-527D01*
X5465Y-528D01*
G01X35Y-233D02*
X31Y-228D01*
X26Y-225D01*
X21D01*
X15Y-230D01*
X10Y-238D01*
X7Y-248D01*
X4Y-265D01*
X3Y-280D01*
X5Y-295D01*
X7Y-305D01*
X11Y-315D01*
X15Y-322D01*
X20Y-325D01*
X25D01*
X29Y-322D01*
X33Y-317D01*
X37Y-310D01*
G01X65Y-325D02*
X61Y-323D01*
X57Y-317D01*
X54Y-305D01*
X53Y-292D01*
X54Y-278D01*
X57Y-267D01*
X61Y-260D01*
X65Y-258D01*
X69Y-260D01*
X73Y-267D01*
X76Y-278D01*
X76Y-292D01*
X76Y-305D01*
X73Y-317D01*
X69Y-323D01*
X65Y-325D01*
G01X98Y-358D02*
Y-258D01*
G01Y-273D02*
X101Y-265D01*
X105Y-260D01*
X110Y-258D01*
X115Y-260D01*
X119Y-268D01*
X121Y-280D01*
X122Y-292D01*
X121Y-303D01*
X119Y-315D01*
X115Y-322D01*
X110Y-325D01*
X105Y-323D01*
X101Y-318D01*
X98Y-312D01*
G01X141Y-355D02*
X145Y-358D01*
X150Y-355D01*
X154Y-348D01*
X156Y-340D01*
X160Y-313D01*
X169Y-258D01*
G01X148D02*
X160Y-313D01*
G01X191Y-325D02*
Y-258D01*
G01Y-272D02*
X194Y-265D01*
X197Y-260D01*
X202Y-258D01*
X205Y-260D01*
X209Y-265D01*
G01X245Y-258D02*
Y-325D01*
G01Y-232D02*
X244Y-230D01*
Y-227D01*
X245Y-225D01*
X246Y-227D01*
Y-230D01*
X245Y-232D01*
G01X281Y-350D02*
X285Y-357D01*
X291Y-358D01*
X295Y-357D01*
X299Y-348D01*
X302Y-337D01*
Y-258D01*
G01Y-272D02*
X299Y-265D01*
X295Y-260D01*
X291Y-258D01*
X285Y-262D01*
X282Y-268D01*
X279Y-280D01*
X278Y-292D01*
X279Y-302D01*
X281Y-313D01*
X285Y-322D01*
X291Y-325D01*
X295Y-323D01*
X299Y-317D01*
X302Y-310D01*
G01X324Y-325D02*
Y-225D01*
G01Y-273D02*
X327Y-265D01*
X330Y-260D01*
X336Y-258D01*
X340Y-260D01*
X344Y-267D01*
X346Y-277D01*
Y-325D01*
G01X380Y-225D02*
Y-325D01*
G01X371Y-258D02*
X389D01*
G01X547Y-242D02*
X551Y-232D01*
X556Y-227D01*
X561Y-225D01*
X568Y-228D01*
X573Y-237D01*
X574Y-247D01*
X573Y-257D01*
X571Y-265D01*
X557Y-282D01*
X551Y-293D01*
X547Y-310D01*
X546Y-325D01*
X574D01*
G01X605Y-225D02*
X600Y-228D01*
X596Y-237D01*
X593Y-247D01*
X591Y-260D01*
X590Y-275D01*
X591Y-290D01*
X593Y-303D01*
X596Y-313D01*
X600Y-322D01*
X605Y-325D01*
X610Y-322D01*
X614Y-313D01*
X617Y-303D01*
X619Y-290D01*
X620Y-275D01*
X619Y-260D01*
X617Y-247D01*
X614Y-237D01*
X610Y-228D01*
X605Y-225D01*
G01X650D02*
X645Y-228D01*
X641Y-237D01*
X638Y-247D01*
X636Y-260D01*
X635Y-275D01*
X636Y-290D01*
X638Y-303D01*
X641Y-313D01*
X645Y-322D01*
X650Y-325D01*
X655Y-322D01*
X659Y-313D01*
X662Y-303D01*
X664Y-290D01*
X665Y-275D01*
X664Y-260D01*
X662Y-247D01*
X659Y-237D01*
X655Y-228D01*
X650Y-225D01*
G01X682Y-283D02*
X687Y-272D01*
X691Y-265D01*
X696Y-262D01*
X701Y-265D01*
X704Y-272D01*
X707Y-282D01*
X708Y-293D01*
X707Y-303D01*
X704Y-313D01*
X700Y-322D01*
X696Y-325D01*
X690Y-322D01*
X686Y-312D01*
X683Y-297D01*
X682Y-280D01*
X684Y-258D01*
X686Y-247D01*
X689Y-235D01*
X694Y-227D01*
X698Y-225D01*
X703Y-228D01*
X706Y-237D01*
G01X773Y-325D02*
Y-225D01*
G01Y-275D02*
X776Y-265D01*
X780Y-260D01*
X784Y-258D01*
X790Y-262D01*
X794Y-268D01*
X797Y-280D01*
Y-293D01*
X796Y-307D01*
X793Y-317D01*
X788Y-323D01*
X784Y-325D01*
X780Y-323D01*
X776Y-318D01*
X773Y-310D01*
G01X816Y-355D02*
X820Y-358D01*
X825Y-355D01*
X829Y-348D01*
X831Y-340D01*
X835Y-313D01*
X844Y-258D01*
G01X823D02*
X835Y-313D01*
G01X920Y-225D02*
Y-325D01*
G01X905Y-225D02*
X935D01*
G01X955Y-280D02*
X976D01*
X974Y-268D01*
X971Y-262D01*
X966Y-258D01*
X962Y-260D01*
X958Y-265D01*
X955Y-277D01*
X954Y-287D01*
Y-297D01*
X955Y-307D01*
X958Y-317D01*
X962Y-323D01*
X967Y-325D01*
X972Y-322D01*
X976Y-312D01*
G01X1001Y-325D02*
Y-258D01*
G01Y-272D02*
X1004Y-265D01*
X1007Y-260D01*
X1012Y-258D01*
X1015Y-260D01*
X1019Y-265D01*
G01X1067Y-325D02*
Y-258D01*
G01Y-270D02*
X1064Y-263D01*
X1060Y-260D01*
X1056Y-258D01*
X1051Y-262D01*
X1047Y-268D01*
X1044Y-278D01*
X1043Y-292D01*
X1044Y-305D01*
X1047Y-315D01*
X1051Y-322D01*
X1056Y-325D01*
X1060Y-323D01*
X1064Y-318D01*
X1067Y-312D01*
G01X1090Y-313D02*
X1093Y-320D01*
X1098Y-325D01*
X1102D01*
X1106Y-322D01*
X1109Y-317D01*
X1110Y-310D01*
X1109Y-300D01*
X1107Y-295D01*
X1095Y-285D01*
X1092Y-273D01*
X1093Y-265D01*
X1096Y-260D01*
X1100Y-258D01*
X1104Y-260D01*
X1108Y-265D01*
G01X1145Y-258D02*
Y-325D01*
G01Y-232D02*
X1144Y-230D01*
Y-227D01*
X1145Y-225D01*
X1146Y-227D01*
Y-230D01*
X1145Y-232D01*
G01X1201Y-267D02*
X1196Y-260D01*
X1192Y-258D01*
X1187Y-262D01*
X1183Y-268D01*
X1180Y-280D01*
X1179Y-292D01*
X1180Y-303D01*
X1183Y-313D01*
X1187Y-322D01*
X1192Y-325D01*
X1197Y-322D01*
X1201Y-315D01*
G01X1280Y-225D02*
Y-325D01*
G01X1265Y-225D02*
X1295D01*
G01X1315Y-280D02*
X1336D01*
X1334Y-268D01*
X1331Y-262D01*
X1326Y-258D01*
X1322Y-260D01*
X1318Y-265D01*
X1315Y-277D01*
X1314Y-287D01*
Y-297D01*
X1315Y-307D01*
X1318Y-317D01*
X1322Y-323D01*
X1327Y-325D01*
X1332Y-322D01*
X1336Y-312D01*
G01X1381Y-267D02*
X1376Y-260D01*
X1372Y-258D01*
X1367Y-262D01*
X1363Y-268D01*
X1360Y-280D01*
X1359Y-292D01*
X1360Y-303D01*
X1363Y-313D01*
X1367Y-322D01*
X1372Y-325D01*
X1377Y-322D01*
X1381Y-315D01*
G01X1404Y-325D02*
Y-225D01*
G01Y-273D02*
X1407Y-265D01*
X1410Y-260D01*
X1416Y-258D01*
X1420Y-260D01*
X1424Y-267D01*
X1426Y-277D01*
Y-325D01*
G01X1449D02*
Y-258D01*
G01Y-275D02*
X1451Y-267D01*
X1455Y-260D01*
X1461Y-258D01*
X1465Y-260D01*
X1469Y-267D01*
X1471Y-278D01*
Y-325D01*
G01X1505D02*
X1501Y-323D01*
X1497Y-317D01*
X1494Y-305D01*
X1493Y-292D01*
X1494Y-278D01*
X1497Y-267D01*
X1501Y-260D01*
X1505Y-258D01*
X1509Y-260D01*
X1513Y-267D01*
X1516Y-278D01*
X1516Y-292D01*
X1516Y-305D01*
X1513Y-317D01*
X1509Y-323D01*
X1505Y-325D01*
G01X1550D02*
Y-225D01*
G01X1595Y-325D02*
X1591Y-323D01*
X1587Y-317D01*
X1584Y-305D01*
X1583Y-292D01*
X1584Y-278D01*
X1587Y-267D01*
X1591Y-260D01*
X1595Y-258D01*
X1599Y-260D01*
X1603Y-267D01*
X1606Y-278D01*
X1606Y-292D01*
X1606Y-305D01*
X1603Y-317D01*
X1599Y-323D01*
X1595Y-325D01*
G01X1631Y-350D02*
X1635Y-357D01*
X1641Y-358D01*
X1645Y-357D01*
X1649Y-348D01*
X1652Y-337D01*
Y-258D01*
G01Y-272D02*
X1649Y-265D01*
X1645Y-260D01*
X1641Y-258D01*
X1635Y-262D01*
X1632Y-268D01*
X1629Y-280D01*
X1628Y-292D01*
X1629Y-302D01*
X1631Y-313D01*
X1635Y-322D01*
X1641Y-325D01*
X1645Y-323D01*
X1649Y-317D01*
X1652Y-310D01*
G01X1685Y-258D02*
Y-325D01*
G01Y-232D02*
X1684Y-230D01*
Y-227D01*
X1685Y-225D01*
X1686Y-227D01*
Y-230D01*
X1685Y-232D01*
G01X1720Y-280D02*
X1741D01*
X1739Y-268D01*
X1736Y-262D01*
X1731Y-258D01*
X1727Y-260D01*
X1723Y-265D01*
X1720Y-277D01*
X1719Y-287D01*
Y-297D01*
X1720Y-307D01*
X1723Y-317D01*
X1727Y-323D01*
X1732Y-325D01*
X1737Y-322D01*
X1741Y-312D01*
G01X1765Y-313D02*
X1768Y-320D01*
X1773Y-325D01*
X1777D01*
X1781Y-322D01*
X1784Y-317D01*
X1785Y-310D01*
X1784Y-300D01*
X1782Y-295D01*
X1770Y-285D01*
X1767Y-273D01*
X1768Y-265D01*
X1771Y-260D01*
X1775Y-258D01*
X1779Y-260D01*
X1783Y-265D01*
G01X1857Y-225D02*
X1873D01*
G01X1865D02*
Y-325D01*
G01X1857D02*
X1873D01*
G01X1899D02*
Y-258D01*
G01Y-275D02*
X1901Y-267D01*
X1905Y-260D01*
X1911Y-258D01*
X1915Y-260D01*
X1919Y-267D01*
X1921Y-278D01*
Y-325D01*
G01X1966Y-267D02*
X1961Y-260D01*
X1957Y-258D01*
X1952Y-262D01*
X1948Y-268D01*
X1945Y-280D01*
X1944Y-292D01*
X1945Y-303D01*
X1948Y-313D01*
X1952Y-322D01*
X1957Y-325D01*
X1962Y-322D01*
X1966Y-315D01*
G01X2000Y-328D02*
X1999Y-327D01*
Y-323D01*
X2000Y-322D01*
X2001Y-323D01*
Y-327D01*
X2000Y-328D01*
G01X2073Y-325D02*
X2090Y-225D01*
X2107Y-325D01*
G01X2101Y-290D02*
X2079D01*
G01X2135Y-325D02*
Y-225D01*
G01X2180Y-325D02*
Y-225D01*
G01X2257Y-325D02*
Y-225D01*
X2273D01*
X2279Y-230D01*
X2282Y-237D01*
X2283Y-250D01*
X2282Y-263D01*
X2278Y-272D01*
X2273Y-277D01*
X2257D01*
G01X2273D02*
X2283Y-325D01*
G01X2315Y-258D02*
Y-325D01*
G01Y-232D02*
X2314Y-230D01*
Y-227D01*
X2315Y-225D01*
X2316Y-227D01*
Y-230D01*
X2315Y-232D01*
G01X2351Y-350D02*
X2355Y-357D01*
X2361Y-358D01*
X2365Y-357D01*
X2369Y-348D01*
X2372Y-337D01*
Y-258D01*
G01Y-272D02*
X2369Y-265D01*
X2365Y-260D01*
X2361Y-258D01*
X2355Y-262D01*
X2352Y-268D01*
X2349Y-280D01*
X2348Y-292D01*
X2349Y-302D01*
X2351Y-313D01*
X2355Y-322D01*
X2361Y-325D01*
X2365Y-323D01*
X2369Y-317D01*
X2372Y-310D01*
G01X2394Y-325D02*
Y-225D01*
G01Y-273D02*
X2397Y-265D01*
X2400Y-260D01*
X2406Y-258D01*
X2410Y-260D01*
X2414Y-267D01*
X2416Y-277D01*
Y-325D01*
G01X2450Y-225D02*
Y-325D01*
G01X2441Y-258D02*
X2459D01*
G01X2485Y-313D02*
X2488Y-320D01*
X2493Y-325D01*
X2497D01*
X2501Y-322D01*
X2504Y-317D01*
X2505Y-310D01*
X2504Y-300D01*
X2502Y-295D01*
X2490Y-285D01*
X2487Y-273D01*
X2488Y-265D01*
X2491Y-260D01*
X2495Y-258D01*
X2499Y-260D01*
X2503Y-265D01*
G01X2572Y-325D02*
Y-225D01*
X2588D01*
X2594Y-230D01*
X2597Y-237D01*
X2598Y-250D01*
X2597Y-263D01*
X2593Y-272D01*
X2588Y-277D01*
X2572D01*
G01X2588D02*
X2598Y-325D01*
G01X2620Y-280D02*
X2641D01*
X2639Y-268D01*
X2636Y-262D01*
X2631Y-258D01*
X2627Y-260D01*
X2623Y-265D01*
X2620Y-277D01*
X2619Y-287D01*
Y-297D01*
X2620Y-307D01*
X2623Y-317D01*
X2627Y-323D01*
X2632Y-325D01*
X2637Y-322D01*
X2641Y-312D01*
G01X2665Y-313D02*
X2668Y-320D01*
X2673Y-325D01*
X2677D01*
X2681Y-322D01*
X2684Y-317D01*
X2685Y-310D01*
X2684Y-300D01*
X2682Y-295D01*
X2670Y-285D01*
X2667Y-273D01*
X2668Y-265D01*
X2671Y-260D01*
X2675Y-258D01*
X2679Y-260D01*
X2683Y-265D01*
G01X2710Y-280D02*
X2731D01*
X2729Y-268D01*
X2726Y-262D01*
X2721Y-258D01*
X2717Y-260D01*
X2713Y-265D01*
X2710Y-277D01*
X2709Y-287D01*
Y-297D01*
X2710Y-307D01*
X2713Y-317D01*
X2717Y-323D01*
X2722Y-325D01*
X2727Y-322D01*
X2731Y-312D01*
G01X2756Y-325D02*
Y-258D01*
G01Y-272D02*
X2759Y-265D01*
X2762Y-260D01*
X2767Y-258D01*
X2770Y-260D01*
X2774Y-265D01*
G01X2798Y-258D02*
X2810Y-325D01*
X2822Y-258D01*
G01X2845Y-280D02*
X2866D01*
X2864Y-268D01*
X2861Y-262D01*
X2856Y-258D01*
X2852Y-260D01*
X2848Y-265D01*
X2845Y-277D01*
X2844Y-287D01*
Y-297D01*
X2845Y-307D01*
X2848Y-317D01*
X2852Y-323D01*
X2857Y-325D01*
X2862Y-322D01*
X2866Y-312D01*
G01X2912Y-225D02*
Y-325D01*
G01Y-310D02*
X2909Y-318D01*
X2905Y-323D01*
X2901Y-325D01*
X2895Y-322D01*
X2891Y-313D01*
X2889Y-303D01*
X2888Y-292D01*
X2889Y-280D01*
X2891Y-270D01*
X2895Y-262D01*
X2901Y-258D01*
X2905Y-260D01*
X2909Y-263D01*
X2912Y-270D01*
G01X2945Y-328D02*
X2944Y-327D01*
Y-323D01*
X2945Y-322D01*
X2946Y-323D01*
Y-327D01*
X2945Y-328D01*
G01X3020Y-225D02*
Y-297D01*
X3023Y-312D01*
X3028Y-322D01*
X3035Y-325D01*
X3042Y-322D01*
X3047Y-312D01*
X3050Y-297D01*
Y-225D01*
G01X3070Y-313D02*
X3073Y-320D01*
X3078Y-325D01*
X3082D01*
X3086Y-322D01*
X3089Y-317D01*
X3090Y-310D01*
X3089Y-300D01*
X3087Y-295D01*
X3075Y-285D01*
X3072Y-273D01*
X3073Y-265D01*
X3076Y-260D01*
X3080Y-258D01*
X3084Y-260D01*
X3088Y-265D01*
G01X3125Y-258D02*
Y-325D01*
G01Y-232D02*
X3124Y-230D01*
Y-227D01*
X3125Y-225D01*
X3126Y-227D01*
Y-230D01*
X3125Y-232D01*
G01X3159Y-325D02*
Y-258D01*
G01Y-275D02*
X3161Y-267D01*
X3165Y-260D01*
X3171Y-258D01*
X3175Y-260D01*
X3179Y-267D01*
X3181Y-278D01*
Y-325D01*
G01X3206Y-350D02*
X3210Y-357D01*
X3216Y-358D01*
X3220Y-357D01*
X3224Y-348D01*
X3227Y-337D01*
Y-258D01*
G01Y-272D02*
X3224Y-265D01*
X3220Y-260D01*
X3216Y-258D01*
X3210Y-262D01*
X3207Y-268D01*
X3204Y-280D01*
X3203Y-292D01*
X3204Y-302D01*
X3206Y-313D01*
X3210Y-322D01*
X3216Y-325D01*
X3220Y-323D01*
X3224Y-317D01*
X3227Y-310D01*
G01X3305Y-225D02*
Y-325D01*
G01X3296Y-258D02*
X3314D01*
G01X3339Y-325D02*
Y-225D01*
G01Y-273D02*
X3342Y-265D01*
X3345Y-260D01*
X3351Y-258D01*
X3355Y-260D01*
X3359Y-267D01*
X3361Y-277D01*
Y-325D01*
G01X3395Y-258D02*
Y-325D01*
G01Y-232D02*
X3394Y-230D01*
Y-227D01*
X3395Y-225D01*
X3396Y-227D01*
Y-230D01*
X3395Y-232D01*
G01X3430Y-313D02*
X3433Y-320D01*
X3438Y-325D01*
X3442D01*
X3446Y-322D01*
X3449Y-317D01*
X3450Y-310D01*
X3449Y-300D01*
X3447Y-295D01*
X3435Y-285D01*
X3432Y-273D01*
X3433Y-265D01*
X3436Y-260D01*
X3440Y-258D01*
X3444Y-260D01*
X3448Y-265D01*
G01X3530Y-325D02*
Y-225D01*
G01X3587Y-325D02*
Y-258D01*
G01Y-270D02*
X3584Y-263D01*
X3580Y-260D01*
X3576Y-258D01*
X3571Y-262D01*
X3567Y-268D01*
X3564Y-278D01*
X3563Y-292D01*
X3564Y-305D01*
X3567Y-315D01*
X3571Y-322D01*
X3576Y-325D01*
X3580Y-323D01*
X3584Y-318D01*
X3587Y-312D01*
G01X3606Y-355D02*
X3610Y-358D01*
X3615Y-355D01*
X3619Y-348D01*
X3621Y-340D01*
X3625Y-313D01*
X3634Y-258D01*
G01X3613D02*
X3625Y-313D01*
G01X3665Y-325D02*
X3661Y-323D01*
X3657Y-317D01*
X3654Y-305D01*
X3653Y-292D01*
X3654Y-278D01*
X3657Y-267D01*
X3661Y-260D01*
X3665Y-258D01*
X3669Y-260D01*
X3673Y-267D01*
X3676Y-278D01*
X3676Y-292D01*
X3676Y-305D01*
X3673Y-317D01*
X3669Y-323D01*
X3665Y-325D01*
G01X3699Y-258D02*
Y-305D01*
X3701Y-317D01*
X3705Y-323D01*
X3710Y-325D01*
X3715Y-323D01*
X3719Y-317D01*
X3721Y-305D01*
G01Y-325D02*
Y-258D01*
G01X3755Y-225D02*
Y-325D01*
G01X3746Y-258D02*
X3764D01*
G01X3857Y-225D02*
Y-325D01*
G01Y-310D02*
X3854Y-318D01*
X3850Y-323D01*
X3846Y-325D01*
X3840Y-322D01*
X3836Y-313D01*
X3834Y-303D01*
X3833Y-292D01*
X3834Y-280D01*
X3836Y-270D01*
X3840Y-262D01*
X3846Y-258D01*
X3850Y-260D01*
X3854Y-263D01*
X3857Y-270D01*
G01X3880Y-280D02*
X3901D01*
X3899Y-268D01*
X3896Y-262D01*
X3891Y-258D01*
X3887Y-260D01*
X3883Y-265D01*
X3880Y-277D01*
X3879Y-287D01*
Y-297D01*
X3880Y-307D01*
X3883Y-317D01*
X3887Y-323D01*
X3892Y-325D01*
X3897Y-322D01*
X3901Y-312D01*
G01X3925Y-313D02*
X3928Y-320D01*
X3933Y-325D01*
X3937D01*
X3941Y-322D01*
X3944Y-317D01*
X3945Y-310D01*
X3944Y-300D01*
X3942Y-295D01*
X3930Y-285D01*
X3927Y-273D01*
X3928Y-265D01*
X3931Y-260D01*
X3935Y-258D01*
X3939Y-260D01*
X3943Y-265D01*
G01X3980Y-258D02*
Y-325D01*
G01Y-232D02*
X3979Y-230D01*
Y-227D01*
X3980Y-225D01*
X3981Y-227D01*
Y-230D01*
X3980Y-232D01*
G01X4016Y-350D02*
X4020Y-357D01*
X4026Y-358D01*
X4030Y-357D01*
X4034Y-348D01*
X4037Y-337D01*
Y-258D01*
G01Y-272D02*
X4034Y-265D01*
X4030Y-260D01*
X4026Y-258D01*
X4020Y-262D01*
X4017Y-268D01*
X4014Y-280D01*
X4013Y-292D01*
X4014Y-302D01*
X4016Y-313D01*
X4020Y-322D01*
X4026Y-325D01*
X4030Y-323D01*
X4034Y-317D01*
X4037Y-310D01*
G01X4059Y-325D02*
Y-258D01*
G01Y-275D02*
X4061Y-267D01*
X4065Y-260D01*
X4071Y-258D01*
X4075Y-260D01*
X4079Y-267D01*
X4081Y-278D01*
Y-325D01*
G01X4160Y-225D02*
Y-325D01*
G01X4151Y-258D02*
X4169D01*
G01X4205Y-325D02*
X4201Y-323D01*
X4197Y-317D01*
X4194Y-305D01*
X4193Y-292D01*
X4194Y-278D01*
X4197Y-267D01*
X4201Y-260D01*
X4205Y-258D01*
X4209Y-260D01*
X4213Y-267D01*
X4216Y-278D01*
X4216Y-292D01*
X4216Y-305D01*
X4213Y-317D01*
X4209Y-323D01*
X4205Y-325D01*
G01X4275D02*
Y-258D01*
G01Y-277D02*
X4277Y-268D01*
X4280Y-262D01*
X4285Y-258D01*
X4290Y-262D01*
X4293Y-268D01*
X4295Y-277D01*
Y-325D01*
G01Y-277D02*
X4297Y-268D01*
X4300Y-262D01*
X4305Y-258D01*
X4310Y-262D01*
X4313Y-268D01*
X4315Y-278D01*
Y-325D01*
G01X4352D02*
Y-258D01*
G01Y-270D02*
X4349Y-263D01*
X4345Y-260D01*
X4341Y-258D01*
X4336Y-262D01*
X4332Y-268D01*
X4329Y-278D01*
X4328Y-292D01*
X4329Y-305D01*
X4332Y-315D01*
X4336Y-322D01*
X4341Y-325D01*
X4345Y-323D01*
X4349Y-318D01*
X4352Y-312D01*
G01X4374Y-325D02*
Y-225D01*
G01X4395Y-258D02*
X4374Y-297D01*
G01X4382Y-282D02*
X4396Y-325D01*
G01X4420Y-280D02*
X4441D01*
X4439Y-268D01*
X4436Y-262D01*
X4431Y-258D01*
X4427Y-260D01*
X4423Y-265D01*
X4420Y-277D01*
X4419Y-287D01*
Y-297D01*
X4420Y-307D01*
X4423Y-317D01*
X4427Y-323D01*
X4432Y-325D01*
X4437Y-322D01*
X4441Y-312D01*
G01X4507Y-325D02*
Y-225D01*
X4523D01*
X4528Y-230D01*
X4532Y-242D01*
X4533Y-255D01*
X4532Y-268D01*
X4529Y-278D01*
X4523Y-283D01*
X4507D01*
G01X4580Y-233D02*
X4576Y-228D01*
X4571Y-225D01*
X4566D01*
X4560Y-230D01*
X4555Y-238D01*
X4552Y-248D01*
X4549Y-265D01*
X4548Y-280D01*
X4550Y-295D01*
X4552Y-305D01*
X4556Y-315D01*
X4560Y-322D01*
X4565Y-325D01*
X4570D01*
X4574Y-322D01*
X4578Y-317D01*
X4582Y-310D01*
G01X4615Y-272D02*
X4618Y-267D01*
X4620Y-258D01*
X4621Y-247D01*
X4620Y-237D01*
X4617Y-230D01*
X4613Y-225D01*
X4595D01*
Y-325D01*
X4617D01*
X4621Y-318D01*
X4624Y-308D01*
X4625Y-297D01*
X4624Y-285D01*
X4620Y-275D01*
X4615Y-272D01*
X4595D01*
G01X4712Y-225D02*
Y-325D01*
G01Y-310D02*
X4709Y-318D01*
X4705Y-323D01*
X4701Y-325D01*
X4695Y-322D01*
X4691Y-313D01*
X4689Y-303D01*
X4688Y-292D01*
X4689Y-280D01*
X4691Y-270D01*
X4695Y-262D01*
X4701Y-258D01*
X4705Y-260D01*
X4709Y-263D01*
X4712Y-270D01*
G01X4745Y-258D02*
Y-325D01*
G01Y-232D02*
X4744Y-230D01*
Y-227D01*
X4745Y-225D01*
X4746Y-227D01*
Y-230D01*
X4745Y-232D01*
G01X4781Y-325D02*
Y-258D01*
G01Y-272D02*
X4784Y-265D01*
X4787Y-260D01*
X4792Y-258D01*
X4795Y-260D01*
X4799Y-265D01*
G01X4825Y-280D02*
X4846D01*
X4844Y-268D01*
X4841Y-262D01*
X4836Y-258D01*
X4832Y-260D01*
X4828Y-265D01*
X4825Y-277D01*
X4824Y-287D01*
Y-297D01*
X4825Y-307D01*
X4828Y-317D01*
X4832Y-323D01*
X4837Y-325D01*
X4842Y-322D01*
X4846Y-312D01*
G01X4891Y-267D02*
X4886Y-260D01*
X4882Y-258D01*
X4877Y-262D01*
X4873Y-268D01*
X4870Y-280D01*
X4869Y-292D01*
X4870Y-303D01*
X4873Y-313D01*
X4877Y-322D01*
X4882Y-325D01*
X4887Y-322D01*
X4891Y-315D01*
G01X4925Y-225D02*
Y-325D01*
G01X4916Y-258D02*
X4934D01*
G01X4970Y-325D02*
Y-225D01*
G01X5001Y-355D02*
X5005Y-358D01*
X5010Y-355D01*
X5014Y-348D01*
X5016Y-340D01*
X5020Y-313D01*
X5029Y-258D01*
G01X5008D02*
X5020Y-313D01*
G01X5105Y-258D02*
Y-325D01*
G01Y-232D02*
X5104Y-230D01*
Y-227D01*
X5105Y-225D01*
X5106Y-227D01*
Y-230D01*
X5105Y-232D01*
G01X5140Y-313D02*
X5143Y-320D01*
X5148Y-325D01*
X5152D01*
X5156Y-322D01*
X5159Y-317D01*
X5160Y-310D01*
X5159Y-300D01*
X5157Y-295D01*
X5145Y-285D01*
X5142Y-273D01*
X5143Y-265D01*
X5146Y-260D01*
X5150Y-258D01*
X5154Y-260D01*
X5158Y-265D01*
G01X5228Y-358D02*
Y-258D01*
G01Y-273D02*
X5231Y-265D01*
X5235Y-260D01*
X5240Y-258D01*
X5245Y-260D01*
X5249Y-268D01*
X5251Y-280D01*
X5252Y-292D01*
X5251Y-303D01*
X5249Y-315D01*
X5245Y-322D01*
X5240Y-325D01*
X5235Y-323D01*
X5231Y-318D01*
X5228Y-312D01*
G01X5276Y-325D02*
Y-258D01*
G01Y-272D02*
X5279Y-265D01*
X5282Y-260D01*
X5287Y-258D01*
X5290Y-260D01*
X5294Y-265D01*
G01X5330Y-325D02*
X5326Y-323D01*
X5322Y-317D01*
X5319Y-305D01*
X5318Y-292D01*
X5319Y-278D01*
X5322Y-267D01*
X5326Y-260D01*
X5330Y-258D01*
X5334Y-260D01*
X5338Y-267D01*
X5341Y-278D01*
X5341Y-292D01*
X5341Y-305D01*
X5338Y-317D01*
X5334Y-323D01*
X5330Y-325D01*
G01X5364D02*
Y-225D01*
G01Y-273D02*
X5367Y-265D01*
X5370Y-260D01*
X5376Y-258D01*
X5380Y-260D01*
X5384Y-267D01*
X5386Y-277D01*
Y-325D01*
G01X5420Y-258D02*
Y-325D01*
G01Y-232D02*
X5419Y-230D01*
Y-227D01*
X5420Y-225D01*
X5421Y-227D01*
Y-230D01*
X5420Y-232D01*
G01X5453Y-325D02*
Y-225D01*
G01Y-275D02*
X5456Y-265D01*
X5460Y-260D01*
X5464Y-258D01*
X5470Y-262D01*
X5474Y-268D01*
X5477Y-280D01*
Y-293D01*
X5476Y-307D01*
X5473Y-317D01*
X5468Y-323D01*
X5464Y-325D01*
X5460Y-323D01*
X5456Y-318D01*
X5453Y-310D01*
G01X5510Y-258D02*
Y-325D01*
G01Y-232D02*
X5509Y-230D01*
Y-227D01*
X5510Y-225D01*
X5511Y-227D01*
Y-230D01*
X5510Y-232D01*
G01X5555Y-225D02*
Y-325D01*
G01X5546Y-258D02*
X5564D01*
G01X5590Y-280D02*
X5611D01*
X5609Y-268D01*
X5606Y-262D01*
X5601Y-258D01*
X5597Y-260D01*
X5593Y-265D01*
X5590Y-277D01*
X5589Y-287D01*
Y-297D01*
X5590Y-307D01*
X5593Y-317D01*
X5597Y-323D01*
X5602Y-325D01*
X5607Y-322D01*
X5611Y-312D01*
G01X5657Y-225D02*
Y-325D01*
G01Y-310D02*
X5654Y-318D01*
X5650Y-323D01*
X5646Y-325D01*
X5640Y-322D01*
X5636Y-313D01*
X5634Y-303D01*
X5633Y-292D01*
X5634Y-280D01*
X5636Y-270D01*
X5640Y-262D01*
X5646Y-258D01*
X5650Y-260D01*
X5654Y-263D01*
X5657Y-270D01*
G01X5690Y-328D02*
X5689Y-327D01*
Y-323D01*
X5690Y-322D01*
X5691Y-323D01*
Y-327D01*
X5690Y-328D01*
G01X471Y-247D02*
X466Y-240D01*
X462Y-238D01*
X457Y-242D01*
X453Y-248D01*
X450Y-260D01*
X449Y-272D01*
X450Y-283D01*
X453Y-293D01*
X457Y-302D01*
X462Y-305D01*
X467Y-302D01*
X471Y-295D01*
G01X475Y-220D02*
G03I-10J-50D01*
G01X1338Y1640D02*
X1318Y1660D01*
X1210D01*
X1200Y1650D01*
Y1210D01*
X1280Y1130D01*
Y1125D01*
G01X2001Y2927D02*
Y2975D01*
G01X3620Y3160D02*
X3589D01*
X3575Y3146D01*
X3500D01*
G01X3620Y3090D02*
X3456D01*
X3400Y3146D01*
G01X3789Y2595D02*
Y2450D01*
G01X3953Y3247D02*
Y3198D01*
X3940Y3185D01*
X3705D01*
X3680Y3160D01*
G01Y3090D02*
X3760Y3170D01*
X3950D01*
X3978Y3198D01*
Y3247D01*
G01X3780Y2940D02*
X3815Y2975D01*
X3840D01*
X3850Y2985D01*
Y3013D01*
G01X3809Y2595D02*
Y2503D01*
X3820Y2492D01*
G01X3927Y3013D02*
Y2957D01*
X3910Y2940D01*
G01X3876Y3013D02*
Y3056D01*
X3922Y3102D01*
X4168D01*
X4230Y3040D01*
Y2940D01*
G01X3840D02*
X3865Y2965D01*
X3885D01*
X3902Y2982D01*
Y3013D01*
G01X3953D02*
Y2957D01*
X3970Y2940D01*
G01X3978Y3013D02*
Y2982D01*
X3995Y2965D01*
X4015D01*
X4040Y2940D01*
G01X3902Y3247D02*
Y3529D01*
X3943Y3570D01*
G01X3927Y3247D02*
Y3446D01*
X4051Y3570D01*
M02*
