G04 ================== begin FILE IDENTIFICATION RECORD ==================*
G04 Layout Name:  C:/HMB/HMB_V11.brd*
G04 Film Name:    L2-GND*
G04 File Format:  Gerber RS274X*
G04 File Origin:  15.7-p007*
G04 Origin Date:  Fri Aug 15 21:53:15 2008*
G04 *
G04 Layer:  ETCH/L2-GND*
G04 Layer:  PIN/L2-GND*
G04 Layer:  VIA CLASS/L2-GND*
G04 *
G04 Offset:    (0.00 0.00)*
G04 Mirror:    No*
G04 Mode:      Negative*
G04 Rotation:  0*
G04 FullContactRelief:  No*
G04 UndefLineWidth:     0.00*
G04 ================== end FILE IDENTIFICATION RECORD ====================*
%FSLAX53Y53*MOIN*%
%IR0*IPPOS*OFA0.00000B0.00000*MIA0B0*SFA1.00000B1.00000*%
%AMMACRO34*
4,1,15,.025,.01369,
.026997,.009141,
.028175,.004314,
.028496,-.000644,
.027951,-.005582,
.026557,-.010351,
.025,-.01369,
.02939,-.01807,
.032081,-.012692,
.033798,-.006928,
.034488,-.000954,
.034129,.005049,
.032734,.010899,
.030344,.016417,
.02939,.01807,
.025,.01369,
180.*
4,1,15,.01369,-.025,
.009141,-.026997,
.004314,-.028175,
-.000644,-.028496,
-.005582,-.027951,
-.010351,-.026557,
-.01369,-.025,
-.01807,-.02939,
-.012692,-.032081,
-.006928,-.033798,
-.000954,-.034488,
.005049,-.034129,
.010899,-.032734,
.016417,-.030344,
.01807,-.02939,
.01369,-.025,
180.*
4,1,15,-.025,-.01369,
-.026997,-.009141,
-.028175,-.004314,
-.028496,.000644,
-.027951,.005582,
-.026557,.010351,
-.025,.01369,
-.02939,.01807,
-.032081,.012692,
-.033798,.006928,
-.034488,.000954,
-.034129,-.005049,
-.032734,-.010899,
-.030344,-.016417,
-.02939,-.01807,
-.025,-.01369,
180.*
4,1,15,-.01369,.025,
-.009141,.026997,
-.004314,.028175,
.000644,.028496,
.005582,.027951,
.010351,.026557,
.01369,.025,
.01807,.02939,
.012692,.032081,
.006928,.033798,
.000954,.034488,
-.005049,.034129,
-.010899,.032734,
-.016417,.030344,
-.01807,.02939,
-.01369,.025,
180.*
%
%ADD34MACRO34*%
%AMMACRO15*
4,1,16,.03211,.01938,
.034987,.013509,
.036802,.007228,
.037498,.000728,
.037054,-.005795,
.035485,-.012142,
.032838,-.01812,
.03211,-.01938,
.03718,-.02445,
.040861,-.017622,
.0433,-.010259,
.044424,-.002584,
.044198,.005169,
.042628,.012766,
.039764,.019974,
.03718,.02445,
.03211,.01938,
270.*
4,1,16,.01938,-.03211,
.013509,-.034987,
.007228,-.036802,
.000728,-.037498,
-.005795,-.037054,
-.012142,-.035485,
-.01812,-.032838,
-.01938,-.03211,
-.02445,-.03718,
-.017622,-.040861,
-.010259,-.0433,
-.002584,-.044424,
.005169,-.044198,
.012766,-.042628,
.019974,-.039764,
.02445,-.03718,
.01938,-.03211,
270.*
4,1,16,-.03211,-.01938,
-.034987,-.013509,
-.036802,-.007228,
-.037498,-.000728,
-.037054,.005795,
-.035485,.012142,
-.032838,.01812,
-.03211,.01938,
-.03718,.02445,
-.040861,.017622,
-.0433,.010259,
-.044424,.002584,
-.044198,-.005169,
-.042628,-.012766,
-.039764,-.019974,
-.03718,-.02445,
-.03211,-.01938,
270.*
4,1,16,-.01938,.03211,
-.013509,.034987,
-.007228,.036802,
-.000728,.037498,
.005795,.037054,
.012142,.035485,
.01812,.032838,
.01938,.03211,
.02445,.03718,
.017622,.040861,
.010259,.0433,
.002584,.044424,
-.005169,.044198,
-.012766,.042628,
-.019974,.039764,
-.02445,.03718,
-.01938,.03211,
270.*
%
%ADD15MACRO15*%
%ADD19C,.026*%
%ADD32C,.063*%
%ADD11C,.028*%
%ADD18C,.047*%
%ADD29C,.075*%
%ADD23C,.057*%
%ADD16C,.069*%
%ADD36R,.063X.063*%
%ADD25C,.098*%
%ADD14C,.089*%
%AMMACRO39*
4,1,19,-.009,-.0255,
-.0355,-.0255,
-.040346,-.024892,
-.045013,-.023452,
-.049359,-.021223,
-.053252,-.018274,
-.056574,-.014693,
-.059223,-.01059,
-.06,-.009,
-.07,-.009,
-.06773,-.014944,
-.064463,-.020405,
-.060297,-.025214,
-.055359,-.029228,
-.0498,-.032322,
-.043787,-.034405,
-.037504,-.035412,
-.0355,-.0355,
-.009,-.0355,
-.009,-.0255,
90.*
4,1,19,-.009,.0355,
-.0355,.0355,
-.041829,.03484,
-.047947,.033091,
-.053668,.030306,
-.058819,.02657,
-.063243,.021997,
-.066805,.016724,
-.069398,.010913,
-.07,.009,
-.06,.009,
-.057615,.013262,
-.054526,.017045,
-.050827,.020235,
-.04663,.022733,
-.042064,.024465,
-.037265,.025378,
-.0355,.0255,
-.009,.0255,
-.009,.0355,
90.*
4,1,19,.009,-.0255,
.009,-.0355,
.0355,-.0355,
.041829,-.03484,
.047947,-.033091,
.053668,-.030306,
.058819,-.02657,
.063243,-.021997,
.066805,-.016724,
.069398,-.010913,
.07,-.009,
.06,-.009,
.057615,-.013262,
.054526,-.017045,
.050827,-.020235,
.04663,-.022733,
.042064,-.024465,
.037265,-.025378,
.0355,-.0255,
.009,-.0255,
90.*
4,1,19,.009,.0355,
.0355,.0355,
.041829,.03484,
.047947,.033091,
.053668,.030306,
.058819,.02657,
.063243,.021997,
.066805,.016724,
.069398,.010913,
.07,.009,
.06,.009,
.057615,.013262,
.054526,.017045,
.050827,.020235,
.04663,.022733,
.042064,.024465,
.037265,.025378,
.0355,.0255,
.009,.0255,
.009,.0355,
90.*
%
%ADD39MACRO39*%
%ADD28R,.075X.075*%
%ADD22R,.057X.057*%
%ADD31R,.069X.069*%
%AMMACRO10*
4,1,18,.0582,.04406,
.064967,.033284,
.069759,.021497,
.072432,.009056,
.072905,-.003659,
.071162,-.016264,
.067256,-.028374,
.061308,-.039622,
.0582,-.04406,
.06569,-.05155,
.073644,-.03936,
.07936,-.025974,
.082664,-.011799,
.083457,.002735,
.081715,.017185,
.077489,.031113,
.070909,.044096,
.06569,.05155,
.0582,.04406,
0.0*
4,1,18,.04406,-.0582,
.033284,-.064967,
.021497,-.069759,
.009056,-.072432,
-.003659,-.072905,
-.016264,-.071162,
-.028374,-.067256,
-.039622,-.061308,
-.04406,-.0582,
-.05155,-.06569,
-.03936,-.073644,
-.025974,-.07936,
-.011799,-.082664,
.002735,-.083457,
.017185,-.081715,
.031113,-.077489,
.044096,-.070909,
.05155,-.06569,
.04406,-.0582,
0.0*
4,1,18,-.0582,-.04406,
-.064967,-.033284,
-.069759,-.021497,
-.072432,-.009056,
-.072905,.003659,
-.071162,.016264,
-.067256,.028374,
-.061308,.039622,
-.0582,.04406,
-.06569,.05155,
-.073644,.03936,
-.07936,.025974,
-.082664,.011799,
-.083457,-.002735,
-.081715,-.017185,
-.077489,-.031113,
-.070909,-.044096,
-.06569,-.05155,
-.0582,-.04406,
0.0*
4,1,18,-.04406,.0582,
-.033284,.064967,
-.021497,.069759,
-.009056,.072432,
.003659,.072905,
.016264,.071162,
.028374,.067256,
.039622,.061308,
.04406,.0582,
.05155,.06569,
.03936,.073644,
.025974,.07936,
.011799,.082664,
-.002735,.083457,
-.017185,.081715,
-.031113,.077489,
-.044096,.070909,
-.05155,.06569,
-.04406,.0582,
0.0*
%
%ADD10MACRO10*%
%AMMACRO20*
4,1,20,.00853,.00287,
.008682,.002369,
.008806,.00186,
.008899,.001345,
.008962,.000825,
.008995,.000303,
.008997,-.000221,
.008969,-.000743,
.008911,-.001264,
.008822,-.00178,
.008704,-.002289,
.008556,-.002792,
.00853,-.00287,
.01157,-.00592,
.012422,-.003821,
.012897,-.001605,
.01298,.000659,
.012668,.002903,
.011972,.005059,
.01157,.00592,
.00853,.00287,
180.*
4,1,20,.00287,-.00853,
.002369,-.008682,
.00186,-.008806,
.001345,-.008899,
.000825,-.008962,
.000303,-.008995,
-.000221,-.008997,
-.000743,-.008969,
-.001264,-.008911,
-.00178,-.008822,
-.002289,-.008704,
-.002792,-.008556,
-.00287,-.00853,
-.00592,-.01157,
-.003821,-.012422,
-.001605,-.012897,
.000659,-.01298,
.002903,-.012668,
.005059,-.011972,
.00592,-.01157,
.00287,-.00853,
180.*
4,1,20,-.00853,-.00287,
-.008682,-.002369,
-.008806,-.00186,
-.008899,-.001345,
-.008962,-.000825,
-.008995,-.000303,
-.008997,.000221,
-.008969,.000743,
-.008911,.001264,
-.008822,.00178,
-.008704,.002289,
-.008556,.002792,
-.00853,.00287,
-.01157,.00592,
-.012422,.003821,
-.012897,.001605,
-.01298,-.000659,
-.012668,-.002903,
-.011972,-.005059,
-.01157,-.00592,
-.00853,-.00287,
180.*
4,1,20,-.00287,.00853,
-.002369,.008682,
-.00186,.008806,
-.001345,.008899,
-.000825,.008962,
-.000303,.008995,
.000221,.008997,
.000743,.008969,
.001264,.008911,
.00178,.008822,
.002289,.008704,
.002792,.008556,
.00287,.00853,
.00592,.01157,
.003821,.012422,
.001605,.012897,
-.000659,.01298,
-.002903,.012668,
-.005059,.011972,
-.00592,.01157,
-.00287,.00853,
180.*
%
%ADD20MACRO20*%
%AMMACRO13*
4,1,13,.01629,.00639,
.017152,.003464,
.017493,.000433,
.017302,-.002611,
.016586,-.005576,
.01629,-.00639,
.02081,-.01091,
.022388,-.00713,
.023286,-.003134,
.023477,.000957,
.022954,.00502,
.021733,.00893,
.02081,.01091,
.01629,.00639,
0.0*
4,1,13,.00639,-.01629,
.003464,-.017152,
.000433,-.017493,
-.002611,-.017302,
-.005576,-.016586,
-.00639,-.01629,
-.01091,-.02081,
-.00713,-.022388,
-.003134,-.023286,
.000957,-.023477,
.00502,-.022954,
.00893,-.021733,
.01091,-.02081,
.00639,-.01629,
0.0*
4,1,13,-.01629,-.00639,
-.017152,-.003464,
-.017493,-.000433,
-.017302,.002611,
-.016586,.005576,
-.01629,.00639,
-.02081,.01091,
-.022388,.00713,
-.023286,.003134,
-.023477,-.000957,
-.022954,-.00502,
-.021733,-.00893,
-.02081,-.01091,
-.01629,-.00639,
0.0*
4,1,13,-.00639,.01629,
-.003464,.017152,
-.000433,.017493,
.002611,.017302,
.005576,.016586,
.00639,.01629,
.01091,.02081,
.00713,.022388,
.003134,.023286,
-.000957,.023477,
-.00502,.022954,
-.00893,.021733,
-.01091,.02081,
-.00639,.01629,
0.0*
%
%ADD13MACRO13*%
%AMMACRO21*
4,1,13,.0209,.00959,
.022248,.005815,
.022919,.001863,
.022895,-.002146,
.022174,-.006089,
.0209,-.00959,
.025,-.01369,
.026997,-.009141,
.028175,-.004314,
.028496,.000644,
.027951,.005582,
.026557,.010351,
.025,.01369,
.0209,.00959,
0.0*
4,1,13,.00959,-.0209,
.005815,-.022248,
.001863,-.022919,
-.002146,-.022895,
-.006089,-.022174,
-.00959,-.0209,
-.01369,-.025,
-.009141,-.026997,
-.004314,-.028175,
.000644,-.028496,
.005582,-.027951,
.010351,-.026557,
.01369,-.025,
.00959,-.0209,
0.0*
4,1,13,-.0209,-.00959,
-.022248,-.005815,
-.022919,-.001863,
-.022895,.002146,
-.022174,.006089,
-.0209,.00959,
-.025,.01369,
-.026997,.009141,
-.028175,.004314,
-.028496,-.000644,
-.027951,-.005582,
-.026557,-.010351,
-.025,-.01369,
-.0209,-.00959,
0.0*
4,1,13,-.00959,.0209,
-.005815,.022248,
-.001863,.022919,
.002146,.022895,
.006089,.022174,
.00959,.0209,
.01369,.025,
.009141,.026997,
.004314,.028175,
-.000644,.028496,
-.005582,.027951,
-.010351,.026557,
-.01369,.025,
-.00959,.0209,
0.0*
%
%ADD21MACRO21*%
%AMMACRO37*
4,1,15,.025,.01369,
.026997,.009141,
.028175,.004314,
.028496,-.000644,
.027951,-.005582,
.026557,-.010351,
.025,-.01369,
.02939,-.01807,
.032081,-.012692,
.033798,-.006928,
.034488,-.000954,
.034129,.005049,
.032734,.010899,
.030344,.016417,
.02939,.01807,
.025,.01369,
90.*
4,1,15,.01369,-.025,
.009141,-.026997,
.004314,-.028175,
-.000644,-.028496,
-.005582,-.027951,
-.010351,-.026557,
-.01369,-.025,
-.01807,-.02939,
-.012692,-.032081,
-.006928,-.033798,
-.000954,-.034488,
.005049,-.034129,
.010899,-.032734,
.016417,-.030344,
.01807,-.02939,
.01369,-.025,
90.*
4,1,15,-.025,-.01369,
-.026997,-.009141,
-.028175,-.004314,
-.028496,.000644,
-.027951,.005582,
-.026557,.010351,
-.025,.01369,
-.02939,.01807,
-.032081,.012692,
-.033798,.006928,
-.034488,.000954,
-.034129,-.005049,
-.032734,-.010899,
-.030344,-.016417,
-.02939,-.01807,
-.025,-.01369,
90.*
4,1,15,-.01369,.025,
-.009141,.026997,
-.004314,.028175,
.000644,.028496,
.005582,.027951,
.010351,.026557,
.01369,.025,
.01807,.02939,
.012692,.032081,
.006928,.033798,
.000954,.034488,
-.005049,.034129,
-.010899,.032734,
-.016417,.030344,
-.01807,.02939,
-.01369,.025,
90.*
%
%ADD37MACRO37*%
%AMMACRO17*
4,1,15,.025,.01369,
.026997,.009141,
.028175,.004314,
.028496,-.000644,
.027951,-.005582,
.026557,-.010351,
.025,-.01369,
.02939,-.01807,
.032081,-.012692,
.033798,-.006928,
.034488,-.000954,
.034129,.005049,
.032734,.010899,
.030344,.016417,
.02939,.01807,
.025,.01369,
0.0*
4,1,15,.01369,-.025,
.009141,-.026997,
.004314,-.028175,
-.000644,-.028496,
-.005582,-.027951,
-.010351,-.026557,
-.01369,-.025,
-.01807,-.02939,
-.012692,-.032081,
-.006928,-.033798,
-.000954,-.034488,
.005049,-.034129,
.010899,-.032734,
.016417,-.030344,
.01807,-.02939,
.01369,-.025,
0.0*
4,1,15,-.025,-.01369,
-.026997,-.009141,
-.028175,-.004314,
-.028496,.000644,
-.027951,.005582,
-.026557,.010351,
-.025,.01369,
-.02939,.01807,
-.032081,.012692,
-.033798,.006928,
-.034488,.000954,
-.034129,-.005049,
-.032734,-.010899,
-.030344,-.016417,
-.02939,-.01807,
-.025,-.01369,
0.0*
4,1,15,-.01369,.025,
-.009141,.026997,
-.004314,.028175,
.000644,.028496,
.005582,.027951,
.010351,.026557,
.01369,.025,
.01807,.02939,
.012692,.032081,
.006928,.033798,
.000954,.034488,
-.005049,.034129,
-.010899,.032734,
-.016417,.030344,
-.01807,.02939,
-.01369,.025,
0.0*
%
%ADD17MACRO17*%
%AMMACRO38*
4,1,19,-.009,-.0255,
-.0355,-.0255,
-.040346,-.024892,
-.045013,-.023452,
-.049359,-.021223,
-.053252,-.018274,
-.056574,-.014693,
-.059223,-.01059,
-.06,-.009,
-.07,-.009,
-.06773,-.014944,
-.064463,-.020405,
-.060297,-.025214,
-.055359,-.029228,
-.0498,-.032322,
-.043787,-.034405,
-.037504,-.035412,
-.0355,-.0355,
-.009,-.0355,
-.009,-.0255,
180.*
4,1,19,-.009,.0355,
-.0355,.0355,
-.041829,.03484,
-.047947,.033091,
-.053668,.030306,
-.058819,.02657,
-.063243,.021997,
-.066805,.016724,
-.069398,.010913,
-.07,.009,
-.06,.009,
-.057615,.013262,
-.054526,.017045,
-.050827,.020235,
-.04663,.022733,
-.042064,.024465,
-.037265,.025378,
-.0355,.0255,
-.009,.0255,
-.009,.0355,
180.*
4,1,19,.009,-.0255,
.009,-.0355,
.0355,-.0355,
.041829,-.03484,
.047947,-.033091,
.053668,-.030306,
.058819,-.02657,
.063243,-.021997,
.066805,-.016724,
.069398,-.010913,
.07,-.009,
.06,-.009,
.057615,-.013262,
.054526,-.017045,
.050827,-.020235,
.04663,-.022733,
.042064,-.024465,
.037265,-.025378,
.0355,-.0255,
.009,-.0255,
180.*
4,1,19,.009,.0355,
.0355,.0355,
.041829,.03484,
.047947,.033091,
.053668,.030306,
.058819,.02657,
.063243,.021997,
.066805,.016724,
.069398,.010913,
.07,.009,
.06,.009,
.057615,.013262,
.054526,.017045,
.050827,.020235,
.04663,.022733,
.042064,.024465,
.037265,.025378,
.0355,.0255,
.009,.0255,
.009,.0355,
180.*
%
%ADD38MACRO38*%
%AMMACRO33*
4,1,15,.02278,.01146,
.024424,.00733,
.025326,.002978,
.025458,-.001465,
.024817,-.005864,
.023422,-.010084,
.02278,-.01146,
.0272,-.01589,
.029546,-.010925,
.030994,-.005629,
.031501,-.000161,
.03105,.005311,
.029656,.010622,
.027361,.01561,
.0272,.01589,
.02278,.01146,
270.*
4,1,15,.01146,-.02278,
.00733,-.024424,
.002978,-.025326,
-.001465,-.025458,
-.005864,-.024817,
-.010084,-.023422,
-.01146,-.02278,
-.01589,-.0272,
-.010925,-.029546,
-.005629,-.030994,
-.000161,-.031501,
.005311,-.03105,
.010622,-.029656,
.01561,-.027361,
.01589,-.0272,
.01146,-.02278,
270.*
4,1,15,-.02278,-.01146,
-.024424,-.00733,
-.025326,-.002978,
-.025458,.001465,
-.024817,.005864,
-.023422,.010084,
-.02278,.01146,
-.0272,.01589,
-.029546,.010925,
-.030994,.005629,
-.031501,.000161,
-.03105,-.005311,
-.029656,-.010622,
-.027361,-.01561,
-.0272,-.01589,
-.02278,-.01146,
270.*
4,1,15,-.01146,.02278,
-.00733,.024424,
-.002978,.025326,
.001465,.025458,
.005864,.024817,
.010084,.023422,
.01146,.02278,
.01589,.0272,
.010925,.029546,
.005629,.030994,
.000161,.031501,
-.005311,.03105,
-.010622,.029656,
-.01561,.027361,
-.01589,.0272,
-.01146,.02278,
270.*
%
%ADD33MACRO33*%
%AMMACRO27*
4,1,18,.0582,.04406,
.064967,.033284,
.069759,.021497,
.072432,.009056,
.072905,-.003659,
.071162,-.016264,
.067256,-.028374,
.061308,-.039622,
.0582,-.04406,
.06569,-.05155,
.073644,-.03936,
.07936,-.025974,
.082664,-.011799,
.083457,.002735,
.081715,.017185,
.077489,.031113,
.070909,.044096,
.06569,.05155,
.0582,.04406,
180.*
4,1,18,.04406,-.0582,
.033284,-.064967,
.021497,-.069759,
.009056,-.072432,
-.003659,-.072905,
-.016264,-.071162,
-.028374,-.067256,
-.039622,-.061308,
-.04406,-.0582,
-.05155,-.06569,
-.03936,-.073644,
-.025974,-.07936,
-.011799,-.082664,
.002735,-.083457,
.017185,-.081715,
.031113,-.077489,
.044096,-.070909,
.05155,-.06569,
.04406,-.0582,
180.*
4,1,18,-.0582,-.04406,
-.064967,-.033284,
-.069759,-.021497,
-.072432,-.009056,
-.072905,.003659,
-.071162,.016264,
-.067256,.028374,
-.061308,.039622,
-.0582,.04406,
-.06569,.05155,
-.073644,.03936,
-.07936,.025974,
-.082664,.011799,
-.083457,-.002735,
-.081715,-.017185,
-.077489,-.031113,
-.070909,-.044096,
-.06569,-.05155,
-.0582,-.04406,
180.*
4,1,18,-.04406,.0582,
-.033284,.064967,
-.021497,.069759,
-.009056,.072432,
.003659,.072905,
.016264,.071162,
.028374,.067256,
.039622,.061308,
.04406,.0582,
.05155,.06569,
.03936,.073644,
.025974,.07936,
.011799,.082664,
-.002735,.083457,
-.017185,.081715,
-.031113,.077489,
-.044096,.070909,
-.05155,.06569,
-.04406,.0582,
180.*
%
%ADD27MACRO27*%
%AMMACRO30*
4,1,15,.02647,.01516,
.0287,.010333,
.030059,.005193,
.030504,-.000105,
.030022,-.0054,
.028628,-.010531,
.02647,-.01516,
.03156,-.02025,
.034597,-.014462,
.036583,-.008234,
.037457,-.001757,
.037193,.004774,
.035798,.011161,
.033317,.017207,
.03156,.02025,
.02647,.01516,
180.*
4,1,15,.01516,-.02647,
.010333,-.0287,
.005193,-.030059,
-.000105,-.030504,
-.0054,-.030022,
-.010531,-.028628,
-.01516,-.02647,
-.02025,-.03156,
-.014462,-.034597,
-.008234,-.036583,
-.001757,-.037457,
.004774,-.037193,
.011161,-.035798,
.017207,-.033317,
.02025,-.03156,
.01516,-.02647,
180.*
4,1,15,-.02647,-.01516,
-.0287,-.010333,
-.030059,-.005193,
-.030504,.000105,
-.030022,.0054,
-.028628,.010531,
-.02647,.01516,
-.03156,.02025,
-.034597,.014462,
-.036583,.008234,
-.037457,.001757,
-.037193,-.004774,
-.035798,-.011161,
-.033317,-.017207,
-.03156,-.02025,
-.02647,-.01516,
180.*
4,1,15,-.01516,.02647,
-.010333,.0287,
-.005193,.030059,
.000105,.030504,
.0054,.030022,
.010531,.028628,
.01516,.02647,
.02025,.03156,
.014462,.034597,
.008234,.036583,
.001757,.037457,
-.004774,.037193,
-.011161,.035798,
-.017207,.033317,
-.02025,.03156,
-.01516,.02647,
180.*
%
%ADD30MACRO30*%
%AMMACRO12*
4,1,13,.00931,.00365,
.009802,.001978,
.009997,.000246,
.009888,-.001494,
.009478,-.003188,
.00931,-.00365,
.01232,-.00666,
.013289,-.00442,
.013855,-.002045,
.014,.000391,
.013719,.002816,
.013022,.005155,
.01232,.00666,
.00931,.00365,
0.0*
4,1,13,.00365,-.00931,
.001978,-.009802,
.000246,-.009997,
-.001494,-.009888,
-.003188,-.009478,
-.00365,-.00931,
-.00666,-.01232,
-.00442,-.013289,
-.002045,-.013855,
.000391,-.014,
.002816,-.013719,
.005155,-.013022,
.00666,-.01232,
.00365,-.00931,
0.0*
4,1,13,-.00931,-.00365,
-.009802,-.001978,
-.009997,-.000246,
-.009888,.001494,
-.009478,.003188,
-.00931,.00365,
-.01232,.00666,
-.013289,.00442,
-.013855,.002045,
-.014,-.000391,
-.013719,-.002816,
-.013022,-.005155,
-.01232,-.00666,
-.00931,-.00365,
0.0*
4,1,13,-.00365,.00931,
-.001978,.009802,
-.000246,.009997,
.001494,.009888,
.003188,.009478,
.00365,.00931,
.00666,.01232,
.00442,.013289,
.002045,.013855,
-.000391,.014,
-.002816,.013719,
-.005155,.013022,
-.00666,.01232,
-.00365,.00931,
0.0*
%
%ADD12MACRO12*%
%AMMACRO26*
4,1,20,-.0075,-.0275,
-.0565,-.0275,
-.061271,-.027085,
-.065897,-.025848,
-.070238,-.023826,
-.074162,-.021082,
-.077549,-.017697,
-.080298,-.013776,
-.082324,-.009437,
-.08295,-.0075,
-.09018,-.0075,
-.088365,-.013234,
-.085582,-.018567,
-.081915,-.023334,
-.077475,-.027393,
-.072399,-.030619,
-.066839,-.032915,
-.060966,-.03421,
-.0565,-.0345,
-.0075,-.0345,
-.0075,-.0275,
180.*
4,1,20,-.0075,.0345,
-.0565,.0345,
-.062489,.033978,
-.068297,.032424,
-.073747,.029885,
-.078673,.026439,
-.082926,.022189,
-.086376,.017265,
-.088919,.011817,
-.09018,.0075,
-.08295,.0075,
-.081248,.011979,
-.078793,.016095,
-.075661,.019722,
-.071947,.022749,
-.067764,.025086,
-.063238,.026661,
-.058508,.027427,
-.0565,.0275,
-.0075,.0275,
-.0075,.0345,
180.*
4,1,20,.0075,-.0275,
.0565,-.0275,
.061278,-.02708,
.065911,-.025836,
.070258,-.023807,
.074186,-.021054,
.077577,-.017661,
.080326,-.01373,
.082352,-.009382,
.08296,-.0075,
.09018,-.0075,
.088368,-.013233,
.085588,-.018563,
.081924,-.02333,
.077488,-.027389,
.072415,-.030615,
.066859,-.032912,
.060988,-.034208,
.0565,-.0345,
.0075,-.0345,
.0075,-.0275,
180.*
4,1,20,.0075,.0345,
.0565,.0345,
.062492,.033976,
.068302,.032419,
.073753,.029877,
.07868,.026427,
.082933,.022174,
.086383,.017247,
.088925,.011796,
.09018,.0075,
.08296,.0075,
.081259,.011978,
.078806,.016093,
.075676,.01972,
.071964,.022747,
.067782,.025085,
.063258,.02666,
.058529,.027426,
.0565,.0275,
.0075,.0275,
.0075,.0345,
180.*
%
%ADD26MACRO26*%
%AMMACRO24*
4,1,20,-.0075,-.0275,
-.0565,-.0275,
-.061271,-.027085,
-.065897,-.025848,
-.070238,-.023826,
-.074162,-.021082,
-.077549,-.017697,
-.080298,-.013776,
-.082324,-.009437,
-.08295,-.0075,
-.09018,-.0075,
-.088365,-.013234,
-.085582,-.018567,
-.081915,-.023334,
-.077475,-.027393,
-.072399,-.030619,
-.066839,-.032915,
-.060966,-.03421,
-.0565,-.0345,
-.0075,-.0345,
-.0075,-.0275,
270.*
4,1,20,-.0075,.0345,
-.0565,.0345,
-.062489,.033978,
-.068297,.032424,
-.073747,.029885,
-.078673,.026439,
-.082926,.022189,
-.086376,.017265,
-.088919,.011817,
-.09018,.0075,
-.08295,.0075,
-.081248,.011979,
-.078793,.016095,
-.075661,.019722,
-.071947,.022749,
-.067764,.025086,
-.063238,.026661,
-.058508,.027427,
-.0565,.0275,
-.0075,.0275,
-.0075,.0345,
270.*
4,1,20,.0075,-.0275,
.0565,-.0275,
.061278,-.02708,
.065911,-.025836,
.070258,-.023807,
.074186,-.021054,
.077577,-.017661,
.080326,-.01373,
.082352,-.009382,
.08296,-.0075,
.09018,-.0075,
.088368,-.013233,
.085588,-.018563,
.081924,-.02333,
.077488,-.027389,
.072415,-.030615,
.066859,-.032912,
.060988,-.034208,
.0565,-.0345,
.0075,-.0345,
.0075,-.0275,
270.*
4,1,20,.0075,.0345,
.0565,.0345,
.062492,.033976,
.068302,.032419,
.073753,.029877,
.07868,.026427,
.082933,.022174,
.086383,.017247,
.088925,.011796,
.09018,.0075,
.08296,.0075,
.081259,.011978,
.078806,.016093,
.075676,.01972,
.071964,.022747,
.067782,.025085,
.063258,.02666,
.058529,.027426,
.0565,.0275,
.0075,.0275,
.0075,.0345,
270.*
%
%ADD24MACRO24*%
%AMMACRO35*
4,1,16,.03283,.02011,
.035823,.014104,
.037728,.007669,
.038487,.001001,
.038076,-.005698,
.036508,-.012223,
.033831,-.018377,
.03283,-.02011,
.0379,-.02517,
.041695,-.018206,
.044223,-.010689,
.045407,-.002847,
.045212,.005081,
.043643,.012855,
.040747,.020239,
.0379,.02517,
.03283,.02011,
270.*
4,1,16,.02011,-.03283,
.014104,-.035823,
.007669,-.037728,
.001001,-.038487,
-.005698,-.038076,
-.012223,-.036508,
-.018377,-.033831,
-.02011,-.03283,
-.02517,-.0379,
-.018206,-.041695,
-.010689,-.044223,
-.002847,-.045407,
.005081,-.045212,
.012855,-.043643,
.020239,-.040747,
.02517,-.0379,
.02011,-.03283,
270.*
4,1,16,-.03283,-.02011,
-.035823,-.014104,
-.037728,-.007669,
-.038487,-.001001,
-.038076,.005698,
-.036508,.012223,
-.033831,.018377,
-.03283,.02011,
-.0379,.02517,
-.041695,.018206,
-.044223,.010689,
-.045407,.002847,
-.045212,-.005081,
-.043643,-.012855,
-.040747,-.020239,
-.0379,-.02517,
-.03283,-.02011,
270.*
4,1,16,-.02011,.03283,
-.014104,.035823,
-.007669,.037728,
-.001001,.038487,
.005698,.038076,
.012223,.036508,
.018377,.033831,
.02011,.03283,
.02517,.0379,
.018206,.041695,
.010689,.044223,
.002847,.045407,
-.005081,.045212,
-.012855,.043643,
-.020239,.040747,
-.02517,.0379,
-.02011,.03283,
270.*
%
%ADD35MACRO35*%
%ADD40C,.008*%
G75*
%LPD*%
G75*
G36*
G01X-100Y-100D02*
X5100D01*
Y4100D01*
X-100D01*
Y-100D01*
G37*
%LPC*%
G75*
G36*
G01X820Y2905D02*
G03X831Y2909I0J15D01*
G01X831Y2910D01*
X951D01*
G03X969Y2910I9J12D01*
G01X1060Y2910D01*
X1530Y3380D01*
X1760D01*
X1770Y3370D01*
Y3250D01*
X1550Y3030D01*
Y2930D01*
X1570Y2910D01*
X1770D01*
X1780Y2900D01*
Y2690D01*
X1800Y2670D01*
X1940D01*
X1960Y2690D01*
Y3080D01*
X2110Y3230D01*
Y3320D01*
X2120Y3330D01*
X2510D01*
X2520Y3320D01*
Y3010D01*
X2540Y2990D01*
X2860D01*
X2880Y2970D01*
X2920D01*
X2940Y2990D01*
X3090D01*
X3110Y3010D01*
Y3270D01*
X3120Y3280D01*
X3770D01*
X3800Y3310D01*
Y3680D01*
X3870Y3750D01*
X4230D01*
X4300Y3680D01*
Y3310D01*
X4320Y3290D01*
X4400D01*
X4670Y3560D01*
Y3980D01*
X4980D01*
Y3430D01*
X4730D01*
X4710Y3410D01*
Y2920D01*
X4680Y2890D01*
X4090D01*
X4020Y2820D01*
X3680D01*
X3660Y2800D01*
Y2590D01*
X3610Y2540D01*
Y2490D01*
X3660Y2440D01*
Y2120D01*
X3690Y2090D01*
X4050D01*
X4060Y2080D01*
Y920D01*
X4080Y900D01*
X4980D01*
Y20D01*
X20D01*
Y3980D01*
X350D01*
Y3440D01*
X540Y3250D01*
Y3150D01*
X470Y3080D01*
Y2650D01*
X490Y2630D01*
X620D01*
X640Y2650D01*
Y2900D01*
X650Y2910D01*
X729D01*
X729Y2909D01*
G03X740Y2905I11J11D01*
G01X820D01*
G37*
G36*
G01X947Y2930D02*
X640D01*
X620Y2910D01*
Y2660D01*
X610Y2650D01*
X500D01*
X490Y2660D01*
Y3070D01*
X560Y3140D01*
Y3260D01*
X370Y3450D01*
Y3980D01*
X1490D01*
X1520Y3980D01*
Y3400D01*
X1050Y2930D01*
X973D01*
X972Y2931D01*
G03X948I-12J-9D01*
G01X947Y2930D01*
G37*
G36*
G01X1570Y2940D02*
Y3020D01*
X1790Y3240D01*
Y3380D01*
X1770Y3400D01*
X1550D01*
X1540Y3410D01*
Y3980D01*
X2090D01*
Y3240D01*
X1940Y3090D01*
Y2700D01*
X1930Y2690D01*
X1810D01*
X1800Y2700D01*
Y2910D01*
X1780Y2930D01*
X1580D01*
X1570Y2940D01*
G37*
G36*
G01X2110Y3980D02*
X2450D01*
X4650Y3980D01*
Y3570D01*
X4390Y3310D01*
X4330D01*
X4320Y3320D01*
Y3690D01*
X4240Y3770D01*
X3860D01*
X3780Y3690D01*
Y3320D01*
X3760Y3300D01*
X3070D01*
X3050Y3320D01*
Y3680D01*
X2980Y3750D01*
X2520D01*
X2450Y3680D01*
Y3360D01*
X2440Y3350D01*
X2120D01*
X2110Y3360D01*
Y3980D01*
G37*
G36*
G01X3030Y3670D02*
Y3310D01*
X3060Y3280D01*
X3080D01*
X3090Y3270D01*
Y3020D01*
X3080Y3010D01*
X2930D01*
X2910Y2990D01*
X2890D01*
X2870Y3010D01*
X2550D01*
X2540Y3020D01*
Y3330D01*
X2520Y3350D01*
X2480D01*
X2470Y3360D01*
Y3670D01*
X2530Y3730D01*
X2970D01*
X3030Y3670D01*
G37*
G36*
G01X4068Y2838D02*
X4100Y2870D01*
X4230D01*
X4240Y2860D01*
Y2660D01*
X4260Y2640D01*
X4550D01*
X4590Y2600D01*
X4645D01*
G03X4725Y2600I40J55D01*
G01X4880Y2600D01*
X4900Y2580D01*
Y2330D01*
X4830Y2260D01*
X4725D01*
G03X4645Y2260I-40J-55D01*
G01X4590Y2260D01*
X4440Y2110D01*
X3700D01*
X3680Y2130D01*
Y2450D01*
X3630Y2500D01*
Y2530D01*
X3680Y2580D01*
Y2790D01*
X3690Y2800D01*
X4030D01*
X4044Y2814D01*
G03X4068Y2838I-4J28D01*
G37*
G36*
G01X4840Y2240D02*
X4920Y2320D01*
Y2590D01*
X4890Y2620D01*
X4752D01*
G02X4751Y2623I0J2D01*
G03X4619I-66J32D01*
G02X4618Y2620I-2J-1D01*
G01X4600D01*
X4560Y2660D01*
X4270D01*
X4260Y2670D01*
Y2860D01*
X4270Y2870D01*
X4690D01*
X4730Y2910D01*
Y3400D01*
X4740Y3410D01*
X4980D01*
Y2040D01*
X4980Y920D01*
X4090D01*
X4080Y930D01*
Y2080D01*
X4090Y2090D01*
X4450D01*
X4600Y2240D01*
X4618D01*
G02X4619Y2237I0J-2D01*
G03X4751I66J-32D01*
G02X4752Y2240I2J1D01*
G01X4840D01*
G37*
%LPD*%
G75*
G54D34*
X4267Y3570D03*
G54D15*
X515Y3935D03*
X935D03*
X1355D03*
G54D19*
X1003Y1306D03*
X845Y1404D03*
X924Y1306D03*
X1043Y1384D03*
X964D03*
X1043Y1345D03*
X1003Y1384D03*
X964Y1306D03*
X1003Y1345D03*
X964D03*
X1043Y1306D03*
X964Y1581D03*
X1082Y1621D03*
Y1699D03*
X1043Y1463D03*
X964D03*
X1003Y1424D03*
X964D03*
X1043D03*
X1003Y1699D03*
X964D03*
X1003Y1542D03*
X964Y1621D03*
X1043Y1581D03*
X1003Y1621D03*
X964Y1503D03*
X1043D03*
X1082Y1542D03*
X964D03*
X1003Y1503D03*
X1043Y1542D03*
X1003Y1581D03*
Y1463D03*
X1082Y1817D03*
X1003D03*
X1043D03*
X1003Y1857D03*
X964Y1817D03*
X1043Y1857D03*
X1082D03*
X1043Y1896D03*
X1082D03*
X1003D03*
X1043Y1778D03*
X845Y1916D03*
X1043Y1739D03*
X1082Y1778D03*
X964Y1739D03*
X1003D03*
Y1778D03*
X964D03*
Y1896D03*
Y1857D03*
X1357Y1699D03*
X1239Y1542D03*
X1161D03*
X1397Y1699D03*
X1318Y1542D03*
X1397D03*
Y1581D03*
X1357D03*
X1397Y1621D03*
X1357Y1542D03*
X1121Y1817D03*
X1279D03*
X1239D03*
X1161D03*
X1121Y1896D03*
X1318Y1817D03*
X1397Y1857D03*
X1318Y1778D03*
X1357Y1817D03*
X1121Y1857D03*
X1161Y1896D03*
Y1857D03*
X1239D03*
Y1896D03*
X1279Y1857D03*
X1357Y1739D03*
Y1778D03*
X1397D03*
Y1817D03*
Y1896D03*
X1357D03*
Y1857D03*
X1318Y1896D03*
X1279D03*
X1318Y1857D03*
X1397Y1739D03*
X1475Y1345D03*
X1436Y1699D03*
Y1621D03*
Y1503D03*
Y1542D03*
Y1581D03*
Y1896D03*
Y1778D03*
Y1817D03*
Y1739D03*
G54D32*
X4335Y2305D03*
Y2505D03*
Y2405D03*
X4435Y2555D03*
Y2455D03*
Y2355D03*
G54D11*
X59Y1003D03*
Y1028D03*
X148Y1062D03*
Y1087D03*
Y969D03*
Y944D03*
Y1324D03*
X59Y1358D03*
Y1264D03*
Y1146D03*
X148Y1180D03*
Y1205D03*
X59Y1239D03*
Y1121D03*
X148Y1298D03*
X59Y1383D03*
Y1501D03*
Y1476D03*
X148Y1442D03*
Y1417D03*
X59Y1791D03*
Y1816D03*
X148Y1850D03*
Y1875D03*
X59Y1909D03*
Y1934D03*
X148Y1968D03*
Y1993D03*
Y1732D03*
Y1757D03*
Y2229D03*
Y2204D03*
X59Y2263D03*
Y2288D03*
Y2170D03*
Y2027D03*
Y2052D03*
Y2145D03*
X148Y2086D03*
Y2111D03*
X149Y2581D03*
X149Y2541D03*
X58Y2580D03*
X150Y2486D03*
X300Y2154D03*
X402Y2310D03*
X408Y2266D03*
Y2234D03*
X264Y2259D03*
X262Y2300D03*
X410Y2194D03*
X366Y2448D03*
X392Y2360D03*
X426Y2328D03*
X386Y2466D03*
X404Y2386D03*
X410Y2604D03*
X261Y2401D03*
X262Y2360D03*
X262Y2320D03*
X404Y2414D03*
Y2486D03*
X390Y2624D03*
X560Y290D03*
X530D03*
X590D03*
Y1660D03*
X736Y2246D03*
Y2271D03*
Y2220D03*
Y2194D03*
X514Y2226D03*
X590Y2379D03*
X565Y2401D03*
Y2360D03*
X590Y2340D03*
X736Y2440D03*
Y2466D03*
Y2491D03*
Y2414D03*
X680Y2644D03*
X682Y2714D03*
X780Y2880D03*
X740D03*
X514Y2740D03*
X740Y2920D03*
X780D03*
X794Y3048D03*
X514Y2950D03*
X734Y3044D03*
X840Y1230D03*
X890Y2155D03*
X820Y2880D03*
Y2920D03*
X960Y2922D03*
X1451Y1230D03*
X1915Y2770D03*
X1870Y2705D03*
X1905Y2820D03*
X1840Y2775D03*
X2004Y2645D03*
X2001Y2975D03*
X1910Y3020D03*
X1981Y2955D03*
X1910Y3270D03*
X2244Y1986D03*
X2217D03*
X2190D03*
X2163D03*
X2136D03*
X2109D03*
X2271D03*
X2298D03*
X2040Y2666D03*
X2040Y2620D03*
X2060Y2956D03*
X2205Y2945D03*
X2040Y2975D03*
X2255Y2925D03*
X2090Y2975D03*
X2070Y3270D03*
X2530Y200D03*
X2500D03*
X2608Y370D03*
Y355D03*
X2568Y1986D03*
X2541D03*
X2514D03*
X2487D03*
X2460D03*
X2433D03*
X2406D03*
X2379D03*
X2352D03*
X2325D03*
X2595D03*
X2430Y3268D03*
X2570D03*
X2726Y238D03*
X2746Y355D03*
X2754Y238D03*
X2766Y394D03*
X2800Y910D03*
X2770D03*
X2740D03*
X2710D03*
X2676Y1986D03*
X2703D03*
X2649D03*
X2622D03*
X2892D03*
X2865D03*
X2784D03*
X2757D03*
X2811D03*
X2730D03*
X2838D03*
X2880Y2762D03*
X2680Y2970D03*
X2790D03*
X2770Y3080D03*
X2640Y3268D03*
X3016Y404D03*
X3000Y420D03*
X3082Y402D03*
X3100Y420D03*
Y920D03*
X3125D03*
X3150D03*
X2946Y1986D03*
X2919D03*
X3293Y537D03*
X3415Y795D03*
X3455D03*
X3490D03*
X3535Y810D03*
X3565D03*
X3595D03*
Y925D03*
X3565D03*
X3535D03*
X3534Y2538D03*
X3789Y2450D03*
X3666Y2544D03*
X3724Y2520D03*
X3750Y2660D03*
X3720Y2730D03*
X3986Y508D03*
X3934D03*
X3960D03*
X4040Y490D03*
Y420D03*
X4100D03*
X4040Y670D03*
X4100D03*
X4040Y610D03*
Y550D03*
X4100Y610D03*
X3870Y1175D03*
Y1667D03*
Y1765D03*
X4006Y2444D03*
X4010Y2580D03*
X3820Y2492D03*
X4000Y2470D03*
X3958Y2420D03*
Y2528D03*
X4002Y2498D03*
X4010Y2700D03*
X3872Y2690D03*
X4280Y490D03*
Y420D03*
X4220D03*
X4160D03*
X4280Y670D03*
X4160D03*
X4220D03*
X4280Y610D03*
Y550D03*
X4220Y610D03*
X4160D03*
X4135Y2130D03*
X4136Y2200D03*
X4132Y2270D03*
X4262Y2460D03*
Y2400D03*
X4132Y2340D03*
X4128Y2700D03*
X4140Y3150D03*
Y3010D03*
Y3080D03*
G54D18*
X636Y3230D03*
X1400Y3010D03*
X1645Y3000D03*
X1840Y2625D03*
X1870Y3190D03*
X1913Y3225D03*
X1795Y3314D03*
X3070Y2960D03*
X3325Y825D03*
X3940Y2780D03*
X3970Y2842D03*
X4142Y2573D03*
G54D23*
X1375Y2510D03*
X1296Y2589D03*
Y2510D03*
X1217Y2589D03*
Y2510D03*
X1139D03*
G54D29*
X2580Y3665D03*
X2850Y3465D03*
X2760D03*
X2670D03*
X2850Y3665D03*
X2760D03*
X2670Y3665D03*
X2805Y3565D03*
X2940Y3665D03*
G54D16*
X570Y710D03*
X4105Y3684D03*
X3997D03*
X3889D03*
X4051Y3570D03*
X3943D03*
X4213Y3684D03*
X4159Y3570D03*
X4510Y460D03*
X4577Y3226D03*
Y2962D03*
X4675D03*
Y3145D03*
Y3043D03*
X4818Y2280D03*
X4878Y2180D03*
Y2580D03*
X4818Y2680D03*
G54D36*
X4435Y2255D03*
G54D14*
X515Y3475D03*
Y3695D03*
X595Y3625D03*
Y3845D03*
X935Y3475D03*
Y3695D03*
X1015Y3625D03*
Y3845D03*
X1355Y3475D03*
Y3695D03*
X1435Y3625D03*
Y3845D03*
G54D25*
X1835Y3670D03*
G54D22*
X1060Y2510D03*
G54D28*
X2580Y3465D03*
G54D39*
X4825Y3094D03*
G54D31*
X3835Y3570D03*
G54D10*
X200Y200D03*
X225Y600D03*
Y3400D03*
X200Y3800D03*
X4800Y200D03*
Y3800D03*
G54D13*
X508Y3160D03*
Y3230D03*
X777Y3197D03*
X634Y3160D03*
X860Y220D03*
X840Y590D03*
X1400Y3210D03*
Y3110D03*
X1680Y1225D03*
X1595Y2950D03*
Y3010D03*
X1695Y3314D03*
X1645D03*
X1844Y360D03*
X1725Y1995D03*
X1735Y2845D03*
X1745Y3314D03*
X2170Y3020D03*
X2900Y3010D03*
X3156Y360D03*
X3223Y2710D03*
X3070Y3120D03*
X3140Y3220D03*
X3160Y3080D03*
Y3010D03*
X3140Y3360D03*
X3363Y2046D03*
X3477D03*
X3337Y2710D03*
X3460Y2990D03*
X3740Y2780D03*
X3660Y2870D03*
X4040Y900D03*
X3990Y2060D03*
X4100Y2842D03*
X4040D03*
X3910D03*
X4135Y950D03*
X4130Y1960D03*
Y2060D03*
X4302Y2850D03*
X4200Y2640D03*
X4136Y2904D03*
X4340Y3360D03*
X4380Y3260D03*
X4790Y955D03*
Y2025D03*
G54D20*
X885Y1345D03*
X846Y1306D03*
X925Y1975D03*
X1082Y1739D03*
X865Y2018D03*
X944D03*
X1121Y1699D03*
X1239D03*
X1161Y1621D03*
X1279D03*
X1239Y1581D03*
X1279D03*
X1318D03*
X1279Y1542D03*
X1239Y1621D03*
X1161Y1699D03*
X1121Y1621D03*
X1318Y1699D03*
Y1621D03*
X1279Y1699D03*
X1121Y1778D03*
Y1739D03*
X1161D03*
X1239D03*
X1279D03*
X1161Y1778D03*
X1318Y1739D03*
X1279Y1778D03*
X1239D03*
X1515Y1345D03*
X1554Y1345D03*
X1555Y1404D03*
Y1995D03*
Y1916D03*
X1456Y2015D03*
G54D21*
X1060Y2589D03*
X1375D03*
X1139D03*
G54D37*
X4675Y3226D03*
G54D17*
X570Y610D03*
X3750Y460D03*
Y360D03*
X4510D03*
G54D38*
X4796Y2819D03*
Y3369D03*
G54D27*
X2258Y3565D03*
X3242D03*
X3559Y3627D03*
X4543D03*
G54D33*
X4335Y2605D03*
G54D12*
X59Y958D03*
Y1074D03*
X30Y890D03*
X90D03*
X60D03*
X59Y1194D03*
Y1310D03*
Y1428D03*
X35Y1690D03*
Y1650D03*
Y1610D03*
Y1570D03*
Y1530D03*
X59Y1744D03*
Y1862D03*
Y1980D03*
Y2098D03*
Y2216D03*
X35Y2335D03*
X65D03*
X95D03*
X302Y927D03*
X225Y986D03*
X247Y1075D03*
X225Y819D03*
X302Y1074D03*
Y986D03*
X225Y1223D03*
X302Y1194D03*
Y1310D03*
X470Y1660D03*
X224Y1606D03*
X225Y1459D03*
X250Y1650D03*
Y1570D03*
X350Y1645D03*
Y1610D03*
Y1570D03*
X430Y1600D03*
Y1660D03*
Y1630D03*
X302Y1428D03*
X225Y1979D03*
X247Y1862D03*
X225Y1745D03*
X302Y1980D03*
Y1862D03*
Y1744D03*
X504Y2143D03*
X226Y2216D03*
X248Y2098D03*
X302D03*
Y2233D03*
X422Y2363D03*
X225Y2391D03*
X510Y2670D03*
X225Y2783D03*
Y3043D03*
X530Y470D03*
X590D03*
X560D03*
X700Y460D03*
X755D03*
Y360D03*
X640Y460D03*
Y380D03*
X700Y360D03*
X736Y2297D03*
X737Y2517D03*
X760Y2634D03*
X780Y2786D03*
X660Y2900D03*
X794Y2740D03*
Y2670D03*
X754Y2794D03*
X806D03*
X780Y2960D03*
X760Y3044D03*
X514Y3020D03*
X740Y2960D03*
X780Y3230D03*
X854Y302D03*
X906D03*
X880D03*
X820Y360D03*
X880Y480D03*
X850D03*
X910D03*
X980Y1050D03*
X1030Y910D03*
Y1190D03*
X960Y1230D03*
X950Y1140D03*
X1040Y1700D03*
Y1620D03*
X830Y2634D03*
X1048Y2950D03*
X820Y3192D03*
Y3128D03*
Y2960D03*
X1340Y910D03*
Y1050D03*
X1180Y910D03*
X1340Y1190D03*
X1180D03*
X1123Y1580D03*
X1460Y960D03*
X1500D03*
X1420D03*
X1569Y1230D03*
X1420Y1140D03*
X1500D03*
X1460D03*
X1880Y74D03*
X2000Y2480D03*
X1810Y2775D03*
X1925Y2890D03*
X1905Y2850D03*
X1915Y2720D03*
X1770Y2810D03*
X1905Y2670D03*
X2001Y2715D03*
X2010Y2870D03*
Y2810D03*
Y2750D03*
X2250Y70D03*
X2040Y74D03*
X2250Y206D03*
X2254Y264D03*
X2060Y2715D03*
X2080Y2905D03*
X2159Y2666D03*
X2162Y2761D03*
X2070Y2810D03*
X2130Y2870D03*
X2070D03*
Y2750D03*
X2130Y2810D03*
Y2750D03*
X2218Y2780D03*
X2216Y2721D03*
X2230Y3150D03*
Y3020D03*
X2050D03*
X2021Y2955D03*
X2230Y3270D03*
X2500Y70D03*
X2420D03*
X2340D03*
X2580D03*
X2500Y3268D03*
X2750Y70D03*
X2840D03*
X2660D03*
Y208D03*
X2790Y70D03*
X2720D03*
X2815Y259D03*
X2785Y238D03*
X2800Y870D03*
X2770D03*
X2740D03*
X2710D03*
Y830D03*
X2770Y1070D03*
X2800D03*
X2830D03*
X2860D03*
X2740Y3122D03*
X2750Y2970D03*
X2711D03*
X2829D03*
X2849D03*
X2868D03*
X2850Y3268D03*
X2780D03*
X2710D03*
X3000Y70D03*
X2975Y1030D03*
Y990D03*
Y955D03*
Y900D03*
Y870D03*
Y840D03*
X3050Y900D03*
Y870D03*
Y840D03*
X3060Y1060D03*
X3030D03*
X3000D03*
X3120Y1100D03*
X3150D03*
X3090D03*
X3060Y953D03*
X3090Y1140D03*
X3120D03*
X3150D03*
X3500Y74D03*
X3430D03*
X3360D03*
X3290D03*
X3500Y360D03*
X3474Y356D03*
X3448Y358D03*
X3320Y230D03*
X3430Y750D03*
X3500D03*
X3360D03*
X3290D03*
X3474Y616D03*
X3415Y1020D03*
Y990D03*
Y955D03*
X3507Y953D03*
X3250Y1170D03*
Y1145D03*
Y1120D03*
X3350Y1670D03*
X3400Y2860D03*
Y2730D03*
Y2990D03*
X3450Y3214D03*
X3570Y74D03*
X3615Y510D03*
X3590Y332D03*
X3564D03*
X3616D03*
X3565Y510D03*
X3590D03*
X3647Y752D03*
X3595Y1100D03*
X3565D03*
X3525D03*
X3530Y1140D03*
X3560D03*
X3590D03*
X3750Y1175D03*
X3590Y1420D03*
X3750Y1470D03*
Y1670D03*
X3590Y1540D03*
X3600Y1670D03*
X3751Y1765D03*
X3770Y2060D03*
X3646Y2520D03*
X3645Y2341D03*
X3534Y2322D03*
X3642Y2642D03*
X3560Y2730D03*
X3720Y2990D03*
X3560D03*
X3592Y3230D03*
X3710D03*
X3960Y332D03*
X3986D03*
X3934D03*
X3920Y1274D03*
Y1569D03*
Y1470D03*
X3857Y2361D03*
X3858Y2414D03*
X3840Y2842D03*
X4067Y3143D03*
X4080Y2972D03*
X4082Y3077D03*
X3876Y3295D03*
X4075Y3245D03*
X4386Y508D03*
X4360D03*
X4334D03*
X4335Y330D03*
X4385D03*
X4360D03*
X4262Y2270D03*
Y2130D03*
X4130Y2400D03*
Y2460D03*
X4128Y2520D03*
Y2640D03*
X4254Y2909D03*
X4260Y3080D03*
X4136Y2940D03*
G54D30*
X2625Y3565D03*
X2535D03*
X2895Y3565D03*
X2715Y3565D03*
X2940Y3465D03*
G54D24*
X1610Y3670D03*
X2060D03*
G54D26*
X1835Y3890D03*
G54D35*
X4565Y2120D03*
Y2740D03*
%LPC*%
G75*
G54D40*
G01X20Y-425D02*
Y-525D01*
G01X5Y-425D02*
X35D01*
G01X55Y-480D02*
X76D01*
X74Y-468D01*
X71Y-462D01*
X66Y-458D01*
X62Y-460D01*
X58Y-465D01*
X55Y-477D01*
X54Y-487D01*
Y-497D01*
X55Y-507D01*
X58Y-517D01*
X62Y-523D01*
X67Y-525D01*
X72Y-522D01*
X76Y-512D01*
G01X101Y-525D02*
Y-458D01*
G01Y-472D02*
X104Y-465D01*
X107Y-460D01*
X112Y-458D01*
X115Y-460D01*
X119Y-465D01*
G01X167Y-525D02*
Y-458D01*
G01Y-470D02*
X164Y-463D01*
X160Y-460D01*
X156Y-458D01*
X151Y-462D01*
X147Y-468D01*
X144Y-478D01*
X143Y-492D01*
X144Y-505D01*
X147Y-515D01*
X151Y-522D01*
X156Y-525D01*
X160Y-523D01*
X164Y-518D01*
X167Y-512D01*
G01X190Y-513D02*
X193Y-520D01*
X198Y-525D01*
X202D01*
X206Y-522D01*
X209Y-517D01*
X210Y-510D01*
X209Y-500D01*
X207Y-495D01*
X195Y-485D01*
X192Y-473D01*
X193Y-465D01*
X196Y-460D01*
X200Y-458D01*
X204Y-460D01*
X208Y-465D01*
G01X245Y-458D02*
Y-525D01*
G01Y-432D02*
X244Y-430D01*
Y-427D01*
X245Y-425D01*
X246Y-427D01*
Y-430D01*
X245Y-432D01*
G01X301Y-467D02*
X296Y-460D01*
X292Y-458D01*
X287Y-462D01*
X283Y-468D01*
X280Y-480D01*
X279Y-492D01*
X280Y-503D01*
X283Y-513D01*
X287Y-522D01*
X292Y-525D01*
X297Y-522D01*
X301Y-515D01*
G01X391Y-467D02*
X386Y-460D01*
X382Y-458D01*
X377Y-462D01*
X373Y-468D01*
X370Y-480D01*
X369Y-492D01*
X370Y-503D01*
X373Y-513D01*
X377Y-522D01*
X382Y-525D01*
X387Y-522D01*
X391Y-515D01*
G01X437Y-525D02*
Y-458D01*
G01Y-470D02*
X434Y-463D01*
X430Y-460D01*
X426Y-458D01*
X421Y-462D01*
X417Y-468D01*
X414Y-478D01*
X413Y-492D01*
X414Y-505D01*
X417Y-515D01*
X421Y-522D01*
X426Y-525D01*
X430Y-523D01*
X434Y-518D01*
X437Y-512D01*
G01X459Y-525D02*
Y-458D01*
G01Y-475D02*
X461Y-467D01*
X465Y-460D01*
X471Y-458D01*
X475Y-460D01*
X479Y-467D01*
X481Y-478D01*
Y-525D01*
G01X504D02*
Y-458D01*
G01Y-475D02*
X506Y-467D01*
X510Y-460D01*
X516Y-458D01*
X520Y-460D01*
X524Y-467D01*
X526Y-478D01*
Y-525D01*
G01X560D02*
X556Y-523D01*
X552Y-517D01*
X549Y-505D01*
X548Y-492D01*
X549Y-478D01*
X552Y-467D01*
X556Y-460D01*
X560Y-458D01*
X564Y-460D01*
X568Y-467D01*
X571Y-478D01*
X571Y-492D01*
X571Y-505D01*
X568Y-517D01*
X564Y-523D01*
X560Y-525D01*
G01X605Y-425D02*
Y-525D01*
G01X596Y-458D02*
X614D01*
G01X707Y-525D02*
Y-458D01*
G01Y-470D02*
X704Y-463D01*
X700Y-460D01*
X696Y-458D01*
X691Y-462D01*
X687Y-468D01*
X684Y-478D01*
X683Y-492D01*
X684Y-505D01*
X687Y-515D01*
X691Y-522D01*
X696Y-525D01*
X700Y-523D01*
X704Y-518D01*
X707Y-512D01*
G01X729Y-525D02*
Y-458D01*
G01Y-475D02*
X731Y-467D01*
X735Y-460D01*
X741Y-458D01*
X745Y-460D01*
X749Y-467D01*
X751Y-478D01*
Y-525D01*
G01X797Y-425D02*
Y-525D01*
G01Y-510D02*
X794Y-518D01*
X790Y-523D01*
X786Y-525D01*
X780Y-522D01*
X776Y-513D01*
X774Y-503D01*
X773Y-492D01*
X774Y-480D01*
X776Y-470D01*
X780Y-462D01*
X786Y-458D01*
X790Y-460D01*
X794Y-463D01*
X797Y-470D01*
G01X858Y-458D02*
X866Y-525D01*
X875Y-458D01*
X884Y-525D01*
X892Y-458D01*
G01X920D02*
Y-525D01*
G01Y-432D02*
X919Y-430D01*
Y-427D01*
X920Y-425D01*
X921Y-427D01*
Y-430D01*
X920Y-432D01*
G01X965Y-525D02*
Y-425D01*
G01X1010Y-525D02*
Y-425D01*
G01X1089Y-525D02*
Y-458D01*
G01Y-475D02*
X1091Y-467D01*
X1095Y-460D01*
X1101Y-458D01*
X1105Y-460D01*
X1109Y-467D01*
X1111Y-478D01*
Y-525D01*
G01X1145D02*
X1141Y-523D01*
X1137Y-517D01*
X1134Y-505D01*
X1133Y-492D01*
X1134Y-478D01*
X1137Y-467D01*
X1141Y-460D01*
X1145Y-458D01*
X1149Y-460D01*
X1153Y-467D01*
X1156Y-478D01*
X1156Y-492D01*
X1156Y-505D01*
X1153Y-517D01*
X1149Y-523D01*
X1145Y-525D01*
G01X1190Y-425D02*
Y-525D01*
G01X1181Y-458D02*
X1199D01*
G01X1268Y-525D02*
Y-425D01*
G01Y-475D02*
X1271Y-465D01*
X1275Y-460D01*
X1279Y-458D01*
X1285Y-462D01*
X1289Y-468D01*
X1292Y-480D01*
Y-493D01*
X1291Y-507D01*
X1288Y-517D01*
X1283Y-523D01*
X1279Y-525D01*
X1275Y-523D01*
X1271Y-518D01*
X1268Y-510D01*
G01X1315Y-480D02*
X1336D01*
X1334Y-468D01*
X1331Y-462D01*
X1326Y-458D01*
X1322Y-460D01*
X1318Y-465D01*
X1315Y-477D01*
X1314Y-487D01*
Y-497D01*
X1315Y-507D01*
X1318Y-517D01*
X1322Y-523D01*
X1327Y-525D01*
X1332Y-522D01*
X1336Y-512D01*
G01X1404Y-525D02*
Y-425D01*
G01Y-473D02*
X1407Y-465D01*
X1410Y-460D01*
X1416Y-458D01*
X1420Y-460D01*
X1424Y-467D01*
X1426Y-477D01*
Y-525D01*
G01X1450Y-480D02*
X1471D01*
X1469Y-468D01*
X1466Y-462D01*
X1461Y-458D01*
X1457Y-460D01*
X1453Y-465D01*
X1450Y-477D01*
X1449Y-487D01*
Y-497D01*
X1450Y-507D01*
X1453Y-517D01*
X1457Y-523D01*
X1462Y-525D01*
X1467Y-522D01*
X1471Y-512D01*
G01X1505Y-525D02*
Y-425D01*
G01X1562D02*
Y-525D01*
G01Y-510D02*
X1559Y-518D01*
X1555Y-523D01*
X1551Y-525D01*
X1545Y-522D01*
X1541Y-513D01*
X1539Y-503D01*
X1538Y-492D01*
X1539Y-480D01*
X1541Y-470D01*
X1545Y-462D01*
X1551Y-458D01*
X1555Y-460D01*
X1559Y-463D01*
X1562Y-470D01*
G01X1631Y-525D02*
Y-458D01*
G01Y-472D02*
X1634Y-465D01*
X1637Y-460D01*
X1642Y-458D01*
X1645Y-460D01*
X1649Y-465D01*
G01X1675Y-480D02*
X1696D01*
X1694Y-468D01*
X1691Y-462D01*
X1686Y-458D01*
X1682Y-460D01*
X1678Y-465D01*
X1675Y-477D01*
X1674Y-487D01*
Y-497D01*
X1675Y-507D01*
X1678Y-517D01*
X1682Y-523D01*
X1687Y-525D01*
X1692Y-522D01*
X1696Y-512D01*
G01X1720Y-513D02*
X1723Y-520D01*
X1728Y-525D01*
X1732D01*
X1736Y-522D01*
X1739Y-517D01*
X1740Y-510D01*
X1739Y-500D01*
X1737Y-495D01*
X1725Y-485D01*
X1722Y-473D01*
X1723Y-465D01*
X1726Y-460D01*
X1730Y-458D01*
X1734Y-460D01*
X1738Y-465D01*
G01X1763Y-558D02*
Y-458D01*
G01Y-473D02*
X1766Y-465D01*
X1770Y-460D01*
X1775Y-458D01*
X1780Y-460D01*
X1784Y-468D01*
X1786Y-480D01*
X1787Y-492D01*
X1786Y-503D01*
X1784Y-515D01*
X1780Y-522D01*
X1775Y-525D01*
X1770Y-523D01*
X1766Y-518D01*
X1763Y-512D01*
G01X1820Y-525D02*
X1816Y-523D01*
X1812Y-517D01*
X1809Y-505D01*
X1808Y-492D01*
X1809Y-478D01*
X1812Y-467D01*
X1816Y-460D01*
X1820Y-458D01*
X1824Y-460D01*
X1828Y-467D01*
X1831Y-478D01*
X1831Y-492D01*
X1831Y-505D01*
X1828Y-517D01*
X1824Y-523D01*
X1820Y-525D01*
G01X1854D02*
Y-458D01*
G01Y-475D02*
X1856Y-467D01*
X1860Y-460D01*
X1866Y-458D01*
X1870Y-460D01*
X1874Y-467D01*
X1876Y-478D01*
Y-525D01*
G01X1900Y-513D02*
X1903Y-520D01*
X1908Y-525D01*
X1912D01*
X1916Y-522D01*
X1919Y-517D01*
X1920Y-510D01*
X1919Y-500D01*
X1917Y-495D01*
X1905Y-485D01*
X1902Y-473D01*
X1903Y-465D01*
X1906Y-460D01*
X1910Y-458D01*
X1914Y-460D01*
X1918Y-465D01*
G01X1955Y-458D02*
Y-525D01*
G01Y-432D02*
X1954Y-430D01*
Y-427D01*
X1955Y-425D01*
X1956Y-427D01*
Y-430D01*
X1955Y-432D01*
G01X1988Y-525D02*
Y-425D01*
G01Y-475D02*
X1991Y-465D01*
X1995Y-460D01*
X1999Y-458D01*
X2005Y-462D01*
X2009Y-468D01*
X2012Y-480D01*
Y-493D01*
X2011Y-507D01*
X2008Y-517D01*
X2003Y-523D01*
X1999Y-525D01*
X1995Y-523D01*
X1991Y-518D01*
X1988Y-510D01*
G01X2045Y-525D02*
Y-425D01*
G01X2080Y-480D02*
X2101D01*
X2099Y-468D01*
X2096Y-462D01*
X2091Y-458D01*
X2087Y-460D01*
X2083Y-465D01*
X2080Y-477D01*
X2079Y-487D01*
Y-497D01*
X2080Y-507D01*
X2083Y-517D01*
X2087Y-523D01*
X2092Y-525D01*
X2097Y-522D01*
X2101Y-512D01*
G01X2176Y-525D02*
Y-440D01*
X2177Y-432D01*
X2180Y-427D01*
X2184Y-425D01*
X2188Y-428D01*
X2190Y-437D01*
G01X2182Y-465D02*
X2169D01*
G01X2225Y-525D02*
X2221Y-523D01*
X2217Y-517D01*
X2214Y-505D01*
X2213Y-492D01*
X2214Y-478D01*
X2217Y-467D01*
X2221Y-460D01*
X2225Y-458D01*
X2229Y-460D01*
X2233Y-467D01*
X2236Y-478D01*
X2236Y-492D01*
X2236Y-505D01*
X2233Y-517D01*
X2229Y-523D01*
X2225Y-525D01*
G01X2261D02*
Y-458D01*
G01Y-472D02*
X2264Y-465D01*
X2267Y-460D01*
X2272Y-458D01*
X2275Y-460D01*
X2279Y-465D01*
G01X2372Y-525D02*
Y-458D01*
G01Y-470D02*
X2369Y-463D01*
X2365Y-460D01*
X2361Y-458D01*
X2356Y-462D01*
X2352Y-468D01*
X2349Y-478D01*
X2348Y-492D01*
X2349Y-505D01*
X2352Y-515D01*
X2356Y-522D01*
X2361Y-525D01*
X2365Y-523D01*
X2369Y-518D01*
X2372Y-512D01*
G01X2394Y-525D02*
Y-458D01*
G01Y-475D02*
X2396Y-467D01*
X2400Y-460D01*
X2406Y-458D01*
X2410Y-460D01*
X2414Y-467D01*
X2416Y-478D01*
Y-525D01*
G01X2436Y-555D02*
X2440Y-558D01*
X2445Y-555D01*
X2449Y-548D01*
X2451Y-540D01*
X2455Y-513D01*
X2464Y-458D01*
G01X2443D02*
X2455Y-513D01*
G01X2540Y-525D02*
Y-425D01*
G01X2575Y-480D02*
X2596D01*
X2594Y-468D01*
X2591Y-462D01*
X2586Y-458D01*
X2582Y-460D01*
X2578Y-465D01*
X2575Y-477D01*
X2574Y-487D01*
Y-497D01*
X2575Y-507D01*
X2578Y-517D01*
X2582Y-523D01*
X2587Y-525D01*
X2592Y-522D01*
X2596Y-512D01*
G01X2621Y-550D02*
X2625Y-557D01*
X2631Y-558D01*
X2635Y-557D01*
X2639Y-548D01*
X2642Y-537D01*
Y-458D01*
G01Y-472D02*
X2639Y-465D01*
X2635Y-460D01*
X2631Y-458D01*
X2625Y-462D01*
X2622Y-468D01*
X2619Y-480D01*
X2618Y-492D01*
X2619Y-502D01*
X2621Y-513D01*
X2625Y-522D01*
X2631Y-525D01*
X2635Y-523D01*
X2639Y-517D01*
X2642Y-510D01*
G01X2687Y-525D02*
Y-458D01*
G01Y-470D02*
X2684Y-463D01*
X2680Y-460D01*
X2676Y-458D01*
X2671Y-462D01*
X2667Y-468D01*
X2664Y-478D01*
X2663Y-492D01*
X2664Y-505D01*
X2667Y-515D01*
X2671Y-522D01*
X2676Y-525D01*
X2680Y-523D01*
X2684Y-518D01*
X2687Y-512D01*
G01X2720Y-525D02*
Y-425D01*
G01X2821Y-467D02*
X2816Y-460D01*
X2812Y-458D01*
X2807Y-462D01*
X2803Y-468D01*
X2800Y-480D01*
X2799Y-492D01*
X2800Y-503D01*
X2803Y-513D01*
X2807Y-522D01*
X2812Y-525D01*
X2817Y-522D01*
X2821Y-515D01*
G01X2855Y-525D02*
X2851Y-523D01*
X2847Y-517D01*
X2844Y-505D01*
X2843Y-492D01*
X2844Y-478D01*
X2847Y-467D01*
X2851Y-460D01*
X2855Y-458D01*
X2859Y-460D01*
X2863Y-467D01*
X2866Y-478D01*
X2866Y-492D01*
X2866Y-505D01*
X2863Y-517D01*
X2859Y-523D01*
X2855Y-525D01*
G01X2889D02*
Y-458D01*
G01Y-475D02*
X2891Y-467D01*
X2895Y-460D01*
X2901Y-458D01*
X2905Y-460D01*
X2909Y-467D01*
X2911Y-478D01*
Y-525D01*
G01X2935Y-513D02*
X2938Y-520D01*
X2943Y-525D01*
X2947D01*
X2951Y-522D01*
X2954Y-517D01*
X2955Y-510D01*
X2954Y-500D01*
X2952Y-495D01*
X2940Y-485D01*
X2937Y-473D01*
X2938Y-465D01*
X2941Y-460D01*
X2945Y-458D01*
X2949Y-460D01*
X2953Y-465D01*
G01X2980Y-480D02*
X3001D01*
X2999Y-468D01*
X2996Y-462D01*
X2991Y-458D01*
X2987Y-460D01*
X2983Y-465D01*
X2980Y-477D01*
X2979Y-487D01*
Y-497D01*
X2980Y-507D01*
X2983Y-517D01*
X2987Y-523D01*
X2992Y-525D01*
X2997Y-522D01*
X3001Y-512D01*
G01X3047Y-558D02*
Y-458D01*
G01Y-473D02*
X3044Y-465D01*
X3040Y-460D01*
X3035Y-458D01*
X3031Y-460D01*
X3026Y-468D01*
X3024Y-480D01*
X3023Y-492D01*
X3024Y-503D01*
X3026Y-515D01*
X3031Y-523D01*
X3035Y-525D01*
X3040Y-523D01*
X3044Y-518D01*
X3047Y-510D01*
G01X3069Y-458D02*
Y-505D01*
X3071Y-517D01*
X3075Y-523D01*
X3080Y-525D01*
X3085Y-523D01*
X3089Y-517D01*
X3091Y-505D01*
G01Y-525D02*
Y-458D01*
G01X3115Y-480D02*
X3136D01*
X3134Y-468D01*
X3131Y-462D01*
X3126Y-458D01*
X3122Y-460D01*
X3118Y-465D01*
X3115Y-477D01*
X3114Y-487D01*
Y-497D01*
X3115Y-507D01*
X3118Y-517D01*
X3122Y-523D01*
X3127Y-525D01*
X3132Y-522D01*
X3136Y-512D01*
G01X3159Y-525D02*
Y-458D01*
G01Y-475D02*
X3161Y-467D01*
X3165Y-460D01*
X3171Y-458D01*
X3175Y-460D01*
X3179Y-467D01*
X3181Y-478D01*
Y-525D01*
G01X3226Y-467D02*
X3221Y-460D01*
X3217Y-458D01*
X3212Y-462D01*
X3208Y-468D01*
X3205Y-480D01*
X3204Y-492D01*
X3205Y-503D01*
X3208Y-513D01*
X3212Y-522D01*
X3217Y-525D01*
X3222Y-522D01*
X3226Y-515D01*
G01X3250Y-480D02*
X3271D01*
X3269Y-468D01*
X3266Y-462D01*
X3261Y-458D01*
X3257Y-460D01*
X3253Y-465D01*
X3250Y-477D01*
X3249Y-487D01*
Y-497D01*
X3250Y-507D01*
X3253Y-517D01*
X3257Y-523D01*
X3262Y-525D01*
X3267Y-522D01*
X3271Y-512D01*
G01X3295Y-513D02*
X3298Y-520D01*
X3303Y-525D01*
X3307D01*
X3311Y-522D01*
X3314Y-517D01*
X3315Y-510D01*
X3314Y-500D01*
X3312Y-495D01*
X3300Y-485D01*
X3297Y-473D01*
X3298Y-465D01*
X3301Y-460D01*
X3305Y-458D01*
X3309Y-460D01*
X3313Y-465D01*
G01X3395Y-525D02*
X3391Y-523D01*
X3387Y-517D01*
X3384Y-505D01*
X3383Y-492D01*
X3384Y-478D01*
X3387Y-467D01*
X3391Y-460D01*
X3395Y-458D01*
X3399Y-460D01*
X3403Y-467D01*
X3406Y-478D01*
X3406Y-492D01*
X3406Y-505D01*
X3403Y-517D01*
X3399Y-523D01*
X3395Y-525D01*
G01X3436D02*
Y-440D01*
X3437Y-432D01*
X3440Y-427D01*
X3444Y-425D01*
X3448Y-428D01*
X3450Y-437D01*
G01X3442Y-465D02*
X3429D01*
G01X3519Y-458D02*
Y-505D01*
X3521Y-517D01*
X3525Y-523D01*
X3530Y-525D01*
X3535Y-523D01*
X3539Y-517D01*
X3541Y-505D01*
G01Y-525D02*
Y-458D01*
G01X3565Y-513D02*
X3568Y-520D01*
X3573Y-525D01*
X3577D01*
X3581Y-522D01*
X3584Y-517D01*
X3585Y-510D01*
X3584Y-500D01*
X3582Y-495D01*
X3570Y-485D01*
X3567Y-473D01*
X3568Y-465D01*
X3571Y-460D01*
X3575Y-458D01*
X3579Y-460D01*
X3583Y-465D01*
G01X3620Y-458D02*
Y-525D01*
G01Y-432D02*
X3619Y-430D01*
Y-427D01*
X3620Y-425D01*
X3621Y-427D01*
Y-430D01*
X3620Y-432D01*
G01X3654Y-525D02*
Y-458D01*
G01Y-475D02*
X3656Y-467D01*
X3660Y-460D01*
X3666Y-458D01*
X3670Y-460D01*
X3674Y-467D01*
X3676Y-478D01*
Y-525D01*
G01X3701Y-550D02*
X3705Y-557D01*
X3711Y-558D01*
X3715Y-557D01*
X3719Y-548D01*
X3722Y-537D01*
Y-458D01*
G01Y-472D02*
X3719Y-465D01*
X3715Y-460D01*
X3711Y-458D01*
X3705Y-462D01*
X3702Y-468D01*
X3699Y-480D01*
X3698Y-492D01*
X3699Y-502D01*
X3701Y-513D01*
X3705Y-522D01*
X3711Y-525D01*
X3715Y-523D01*
X3719Y-517D01*
X3722Y-510D01*
G01X3800Y-425D02*
Y-525D01*
G01X3791Y-458D02*
X3809D01*
G01X3834Y-525D02*
Y-425D01*
G01Y-473D02*
X3837Y-465D01*
X3840Y-460D01*
X3846Y-458D01*
X3850Y-460D01*
X3854Y-467D01*
X3856Y-477D01*
Y-525D01*
G01X3890Y-458D02*
Y-525D01*
G01Y-432D02*
X3889Y-430D01*
Y-427D01*
X3890Y-425D01*
X3891Y-427D01*
Y-430D01*
X3890Y-432D01*
G01X3925Y-513D02*
X3928Y-520D01*
X3933Y-525D01*
X3937D01*
X3941Y-522D01*
X3944Y-517D01*
X3945Y-510D01*
X3944Y-500D01*
X3942Y-495D01*
X3930Y-485D01*
X3927Y-473D01*
X3928Y-465D01*
X3931Y-460D01*
X3935Y-458D01*
X3939Y-460D01*
X3943Y-465D01*
G01X4037Y-425D02*
Y-525D01*
G01Y-510D02*
X4034Y-518D01*
X4030Y-523D01*
X4026Y-525D01*
X4020Y-522D01*
X4016Y-513D01*
X4014Y-503D01*
X4013Y-492D01*
X4014Y-480D01*
X4016Y-470D01*
X4020Y-462D01*
X4026Y-458D01*
X4030Y-460D01*
X4034Y-463D01*
X4037Y-470D01*
G01X4060Y-480D02*
X4081D01*
X4079Y-468D01*
X4076Y-462D01*
X4071Y-458D01*
X4067Y-460D01*
X4063Y-465D01*
X4060Y-477D01*
X4059Y-487D01*
Y-497D01*
X4060Y-507D01*
X4063Y-517D01*
X4067Y-523D01*
X4072Y-525D01*
X4077Y-522D01*
X4081Y-512D01*
G01X4105Y-513D02*
X4108Y-520D01*
X4113Y-525D01*
X4117D01*
X4121Y-522D01*
X4124Y-517D01*
X4125Y-510D01*
X4124Y-500D01*
X4122Y-495D01*
X4110Y-485D01*
X4107Y-473D01*
X4108Y-465D01*
X4111Y-460D01*
X4115Y-458D01*
X4119Y-460D01*
X4123Y-465D01*
G01X4160Y-458D02*
Y-525D01*
G01Y-432D02*
X4159Y-430D01*
Y-427D01*
X4160Y-425D01*
X4161Y-427D01*
Y-430D01*
X4160Y-432D01*
G01X4196Y-550D02*
X4200Y-557D01*
X4206Y-558D01*
X4210Y-557D01*
X4214Y-548D01*
X4217Y-537D01*
Y-458D01*
G01Y-472D02*
X4214Y-465D01*
X4210Y-460D01*
X4206Y-458D01*
X4200Y-462D01*
X4197Y-468D01*
X4194Y-480D01*
X4193Y-492D01*
X4194Y-502D01*
X4196Y-513D01*
X4200Y-522D01*
X4206Y-525D01*
X4210Y-523D01*
X4214Y-517D01*
X4217Y-510D01*
G01X4239Y-525D02*
Y-458D01*
G01Y-475D02*
X4241Y-467D01*
X4245Y-460D01*
X4251Y-458D01*
X4255Y-460D01*
X4259Y-467D01*
X4261Y-478D01*
Y-525D01*
G01X4336D02*
Y-440D01*
X4337Y-432D01*
X4340Y-427D01*
X4344Y-425D01*
X4348Y-428D01*
X4350Y-437D01*
G01X4342Y-465D02*
X4329D01*
G01X4385Y-458D02*
Y-525D01*
G01Y-432D02*
X4384Y-430D01*
Y-427D01*
X4385Y-425D01*
X4386Y-427D01*
Y-430D01*
X4385Y-432D01*
G01X4430Y-525D02*
Y-425D01*
G01X4465Y-480D02*
X4486D01*
X4484Y-468D01*
X4481Y-462D01*
X4476Y-458D01*
X4472Y-460D01*
X4468Y-465D01*
X4465Y-477D01*
X4464Y-487D01*
Y-497D01*
X4465Y-507D01*
X4468Y-517D01*
X4472Y-523D01*
X4477Y-525D01*
X4482Y-522D01*
X4486Y-512D01*
G01X4565Y-425D02*
Y-525D01*
G01X4556Y-458D02*
X4574D01*
G01X4610Y-525D02*
X4606Y-523D01*
X4602Y-517D01*
X4599Y-505D01*
X4598Y-492D01*
X4599Y-478D01*
X4602Y-467D01*
X4606Y-460D01*
X4610Y-458D01*
X4614Y-460D01*
X4618Y-467D01*
X4621Y-478D01*
X4621Y-492D01*
X4621Y-505D01*
X4618Y-517D01*
X4614Y-523D01*
X4610Y-525D01*
G01X4680D02*
Y-458D01*
G01Y-477D02*
X4682Y-468D01*
X4685Y-462D01*
X4690Y-458D01*
X4695Y-462D01*
X4698Y-468D01*
X4700Y-477D01*
Y-525D01*
G01Y-477D02*
X4702Y-468D01*
X4705Y-462D01*
X4710Y-458D01*
X4715Y-462D01*
X4718Y-468D01*
X4720Y-478D01*
Y-525D01*
G01X4757D02*
Y-458D01*
G01Y-470D02*
X4754Y-463D01*
X4750Y-460D01*
X4746Y-458D01*
X4741Y-462D01*
X4737Y-468D01*
X4734Y-478D01*
X4733Y-492D01*
X4734Y-505D01*
X4737Y-515D01*
X4741Y-522D01*
X4746Y-525D01*
X4750Y-523D01*
X4754Y-518D01*
X4757Y-512D01*
G01X4779Y-525D02*
Y-425D01*
G01X4800Y-458D02*
X4779Y-497D01*
G01X4787Y-482D02*
X4801Y-525D01*
G01X4825Y-480D02*
X4846D01*
X4844Y-468D01*
X4841Y-462D01*
X4836Y-458D01*
X4832Y-460D01*
X4828Y-465D01*
X4825Y-477D01*
X4824Y-487D01*
Y-497D01*
X4825Y-507D01*
X4828Y-517D01*
X4832Y-523D01*
X4837Y-525D01*
X4842Y-522D01*
X4846Y-512D01*
G01X4912Y-525D02*
Y-425D01*
X4928D01*
X4933Y-430D01*
X4937Y-442D01*
X4938Y-455D01*
X4937Y-468D01*
X4934Y-478D01*
X4928Y-483D01*
X4912D01*
G01X4985Y-433D02*
X4981Y-428D01*
X4976Y-425D01*
X4971D01*
X4965Y-430D01*
X4960Y-438D01*
X4957Y-448D01*
X4954Y-465D01*
X4953Y-480D01*
X4955Y-495D01*
X4957Y-505D01*
X4961Y-515D01*
X4965Y-522D01*
X4970Y-525D01*
X4975D01*
X4979Y-522D01*
X4983Y-517D01*
X4987Y-510D01*
G01X5020Y-472D02*
X5023Y-467D01*
X5025Y-458D01*
X5026Y-447D01*
X5025Y-437D01*
X5022Y-430D01*
X5018Y-425D01*
X5000D01*
Y-525D01*
X5022D01*
X5026Y-518D01*
X5029Y-508D01*
X5030Y-497D01*
X5029Y-485D01*
X5025Y-475D01*
X5020Y-472D01*
X5000D01*
G01X5117Y-425D02*
Y-525D01*
G01Y-510D02*
X5114Y-518D01*
X5110Y-523D01*
X5106Y-525D01*
X5100Y-522D01*
X5096Y-513D01*
X5094Y-503D01*
X5093Y-492D01*
X5094Y-480D01*
X5096Y-470D01*
X5100Y-462D01*
X5106Y-458D01*
X5110Y-460D01*
X5114Y-463D01*
X5117Y-470D01*
G01X5150Y-458D02*
Y-525D01*
G01Y-432D02*
X5149Y-430D01*
Y-427D01*
X5150Y-425D01*
X5151Y-427D01*
Y-430D01*
X5150Y-432D01*
G01X5186Y-525D02*
Y-458D01*
G01Y-472D02*
X5189Y-465D01*
X5192Y-460D01*
X5197Y-458D01*
X5200Y-460D01*
X5204Y-465D01*
G01X5230Y-480D02*
X5251D01*
X5249Y-468D01*
X5246Y-462D01*
X5241Y-458D01*
X5237Y-460D01*
X5233Y-465D01*
X5230Y-477D01*
X5229Y-487D01*
Y-497D01*
X5230Y-507D01*
X5233Y-517D01*
X5237Y-523D01*
X5242Y-525D01*
X5247Y-522D01*
X5251Y-512D01*
G01X5296Y-467D02*
X5291Y-460D01*
X5287Y-458D01*
X5282Y-462D01*
X5278Y-468D01*
X5275Y-480D01*
X5274Y-492D01*
X5275Y-503D01*
X5278Y-513D01*
X5282Y-522D01*
X5287Y-525D01*
X5292Y-522D01*
X5296Y-515D01*
G01X5330Y-425D02*
Y-525D01*
G01X5321Y-458D02*
X5339D01*
G01X5375Y-525D02*
Y-425D01*
G01X5406Y-555D02*
X5410Y-558D01*
X5415Y-555D01*
X5419Y-548D01*
X5421Y-540D01*
X5425Y-513D01*
X5434Y-458D01*
G01X5413D02*
X5425Y-513D01*
G01X5465Y-528D02*
X5464Y-527D01*
Y-523D01*
X5465Y-522D01*
X5466Y-523D01*
Y-527D01*
X5465Y-528D01*
G01X35Y-233D02*
X31Y-228D01*
X26Y-225D01*
X21D01*
X15Y-230D01*
X10Y-238D01*
X7Y-248D01*
X4Y-265D01*
X3Y-280D01*
X5Y-295D01*
X7Y-305D01*
X11Y-315D01*
X15Y-322D01*
X20Y-325D01*
X25D01*
X29Y-322D01*
X33Y-317D01*
X37Y-310D01*
G01X65Y-325D02*
X61Y-323D01*
X57Y-317D01*
X54Y-305D01*
X53Y-292D01*
X54Y-278D01*
X57Y-267D01*
X61Y-260D01*
X65Y-258D01*
X69Y-260D01*
X73Y-267D01*
X76Y-278D01*
X76Y-292D01*
X76Y-305D01*
X73Y-317D01*
X69Y-323D01*
X65Y-325D01*
G01X98Y-358D02*
Y-258D01*
G01Y-273D02*
X101Y-265D01*
X105Y-260D01*
X110Y-258D01*
X115Y-260D01*
X119Y-268D01*
X121Y-280D01*
X122Y-292D01*
X121Y-303D01*
X119Y-315D01*
X115Y-322D01*
X110Y-325D01*
X105Y-323D01*
X101Y-318D01*
X98Y-312D01*
G01X141Y-355D02*
X145Y-358D01*
X150Y-355D01*
X154Y-348D01*
X156Y-340D01*
X160Y-313D01*
X169Y-258D01*
G01X148D02*
X160Y-313D01*
G01X191Y-325D02*
Y-258D01*
G01Y-272D02*
X194Y-265D01*
X197Y-260D01*
X202Y-258D01*
X205Y-260D01*
X209Y-265D01*
G01X245Y-258D02*
Y-325D01*
G01Y-232D02*
X244Y-230D01*
Y-227D01*
X245Y-225D01*
X246Y-227D01*
Y-230D01*
X245Y-232D01*
G01X281Y-350D02*
X285Y-357D01*
X291Y-358D01*
X295Y-357D01*
X299Y-348D01*
X302Y-337D01*
Y-258D01*
G01Y-272D02*
X299Y-265D01*
X295Y-260D01*
X291Y-258D01*
X285Y-262D01*
X282Y-268D01*
X279Y-280D01*
X278Y-292D01*
X279Y-302D01*
X281Y-313D01*
X285Y-322D01*
X291Y-325D01*
X295Y-323D01*
X299Y-317D01*
X302Y-310D01*
G01X324Y-325D02*
Y-225D01*
G01Y-273D02*
X327Y-265D01*
X330Y-260D01*
X336Y-258D01*
X340Y-260D01*
X344Y-267D01*
X346Y-277D01*
Y-325D01*
G01X380Y-225D02*
Y-325D01*
G01X371Y-258D02*
X389D01*
G01X547Y-242D02*
X551Y-232D01*
X556Y-227D01*
X561Y-225D01*
X568Y-228D01*
X573Y-237D01*
X574Y-247D01*
X573Y-257D01*
X571Y-265D01*
X557Y-282D01*
X551Y-293D01*
X547Y-310D01*
X546Y-325D01*
X574D01*
G01X605Y-225D02*
X600Y-228D01*
X596Y-237D01*
X593Y-247D01*
X591Y-260D01*
X590Y-275D01*
X591Y-290D01*
X593Y-303D01*
X596Y-313D01*
X600Y-322D01*
X605Y-325D01*
X610Y-322D01*
X614Y-313D01*
X617Y-303D01*
X619Y-290D01*
X620Y-275D01*
X619Y-260D01*
X617Y-247D01*
X614Y-237D01*
X610Y-228D01*
X605Y-225D01*
G01X650D02*
X645Y-228D01*
X641Y-237D01*
X638Y-247D01*
X636Y-260D01*
X635Y-275D01*
X636Y-290D01*
X638Y-303D01*
X641Y-313D01*
X645Y-322D01*
X650Y-325D01*
X655Y-322D01*
X659Y-313D01*
X662Y-303D01*
X664Y-290D01*
X665Y-275D01*
X664Y-260D01*
X662Y-247D01*
X659Y-237D01*
X655Y-228D01*
X650Y-225D01*
G01X682Y-283D02*
X687Y-272D01*
X691Y-265D01*
X696Y-262D01*
X701Y-265D01*
X704Y-272D01*
X707Y-282D01*
X708Y-293D01*
X707Y-303D01*
X704Y-313D01*
X700Y-322D01*
X696Y-325D01*
X690Y-322D01*
X686Y-312D01*
X683Y-297D01*
X682Y-280D01*
X684Y-258D01*
X686Y-247D01*
X689Y-235D01*
X694Y-227D01*
X698Y-225D01*
X703Y-228D01*
X706Y-237D01*
G01X773Y-325D02*
Y-225D01*
G01Y-275D02*
X776Y-265D01*
X780Y-260D01*
X784Y-258D01*
X790Y-262D01*
X794Y-268D01*
X797Y-280D01*
Y-293D01*
X796Y-307D01*
X793Y-317D01*
X788Y-323D01*
X784Y-325D01*
X780Y-323D01*
X776Y-318D01*
X773Y-310D01*
G01X816Y-355D02*
X820Y-358D01*
X825Y-355D01*
X829Y-348D01*
X831Y-340D01*
X835Y-313D01*
X844Y-258D01*
G01X823D02*
X835Y-313D01*
G01X920Y-225D02*
Y-325D01*
G01X905Y-225D02*
X935D01*
G01X955Y-280D02*
X976D01*
X974Y-268D01*
X971Y-262D01*
X966Y-258D01*
X962Y-260D01*
X958Y-265D01*
X955Y-277D01*
X954Y-287D01*
Y-297D01*
X955Y-307D01*
X958Y-317D01*
X962Y-323D01*
X967Y-325D01*
X972Y-322D01*
X976Y-312D01*
G01X1001Y-325D02*
Y-258D01*
G01Y-272D02*
X1004Y-265D01*
X1007Y-260D01*
X1012Y-258D01*
X1015Y-260D01*
X1019Y-265D01*
G01X1067Y-325D02*
Y-258D01*
G01Y-270D02*
X1064Y-263D01*
X1060Y-260D01*
X1056Y-258D01*
X1051Y-262D01*
X1047Y-268D01*
X1044Y-278D01*
X1043Y-292D01*
X1044Y-305D01*
X1047Y-315D01*
X1051Y-322D01*
X1056Y-325D01*
X1060Y-323D01*
X1064Y-318D01*
X1067Y-312D01*
G01X1090Y-313D02*
X1093Y-320D01*
X1098Y-325D01*
X1102D01*
X1106Y-322D01*
X1109Y-317D01*
X1110Y-310D01*
X1109Y-300D01*
X1107Y-295D01*
X1095Y-285D01*
X1092Y-273D01*
X1093Y-265D01*
X1096Y-260D01*
X1100Y-258D01*
X1104Y-260D01*
X1108Y-265D01*
G01X1145Y-258D02*
Y-325D01*
G01Y-232D02*
X1144Y-230D01*
Y-227D01*
X1145Y-225D01*
X1146Y-227D01*
Y-230D01*
X1145Y-232D01*
G01X1201Y-267D02*
X1196Y-260D01*
X1192Y-258D01*
X1187Y-262D01*
X1183Y-268D01*
X1180Y-280D01*
X1179Y-292D01*
X1180Y-303D01*
X1183Y-313D01*
X1187Y-322D01*
X1192Y-325D01*
X1197Y-322D01*
X1201Y-315D01*
G01X1280Y-225D02*
Y-325D01*
G01X1265Y-225D02*
X1295D01*
G01X1315Y-280D02*
X1336D01*
X1334Y-268D01*
X1331Y-262D01*
X1326Y-258D01*
X1322Y-260D01*
X1318Y-265D01*
X1315Y-277D01*
X1314Y-287D01*
Y-297D01*
X1315Y-307D01*
X1318Y-317D01*
X1322Y-323D01*
X1327Y-325D01*
X1332Y-322D01*
X1336Y-312D01*
G01X1381Y-267D02*
X1376Y-260D01*
X1372Y-258D01*
X1367Y-262D01*
X1363Y-268D01*
X1360Y-280D01*
X1359Y-292D01*
X1360Y-303D01*
X1363Y-313D01*
X1367Y-322D01*
X1372Y-325D01*
X1377Y-322D01*
X1381Y-315D01*
G01X1404Y-325D02*
Y-225D01*
G01Y-273D02*
X1407Y-265D01*
X1410Y-260D01*
X1416Y-258D01*
X1420Y-260D01*
X1424Y-267D01*
X1426Y-277D01*
Y-325D01*
G01X1449D02*
Y-258D01*
G01Y-275D02*
X1451Y-267D01*
X1455Y-260D01*
X1461Y-258D01*
X1465Y-260D01*
X1469Y-267D01*
X1471Y-278D01*
Y-325D01*
G01X1505D02*
X1501Y-323D01*
X1497Y-317D01*
X1494Y-305D01*
X1493Y-292D01*
X1494Y-278D01*
X1497Y-267D01*
X1501Y-260D01*
X1505Y-258D01*
X1509Y-260D01*
X1513Y-267D01*
X1516Y-278D01*
X1516Y-292D01*
X1516Y-305D01*
X1513Y-317D01*
X1509Y-323D01*
X1505Y-325D01*
G01X1550D02*
Y-225D01*
G01X1595Y-325D02*
X1591Y-323D01*
X1587Y-317D01*
X1584Y-305D01*
X1583Y-292D01*
X1584Y-278D01*
X1587Y-267D01*
X1591Y-260D01*
X1595Y-258D01*
X1599Y-260D01*
X1603Y-267D01*
X1606Y-278D01*
X1606Y-292D01*
X1606Y-305D01*
X1603Y-317D01*
X1599Y-323D01*
X1595Y-325D01*
G01X1631Y-350D02*
X1635Y-357D01*
X1641Y-358D01*
X1645Y-357D01*
X1649Y-348D01*
X1652Y-337D01*
Y-258D01*
G01Y-272D02*
X1649Y-265D01*
X1645Y-260D01*
X1641Y-258D01*
X1635Y-262D01*
X1632Y-268D01*
X1629Y-280D01*
X1628Y-292D01*
X1629Y-302D01*
X1631Y-313D01*
X1635Y-322D01*
X1641Y-325D01*
X1645Y-323D01*
X1649Y-317D01*
X1652Y-310D01*
G01X1685Y-258D02*
Y-325D01*
G01Y-232D02*
X1684Y-230D01*
Y-227D01*
X1685Y-225D01*
X1686Y-227D01*
Y-230D01*
X1685Y-232D01*
G01X1720Y-280D02*
X1741D01*
X1739Y-268D01*
X1736Y-262D01*
X1731Y-258D01*
X1727Y-260D01*
X1723Y-265D01*
X1720Y-277D01*
X1719Y-287D01*
Y-297D01*
X1720Y-307D01*
X1723Y-317D01*
X1727Y-323D01*
X1732Y-325D01*
X1737Y-322D01*
X1741Y-312D01*
G01X1765Y-313D02*
X1768Y-320D01*
X1773Y-325D01*
X1777D01*
X1781Y-322D01*
X1784Y-317D01*
X1785Y-310D01*
X1784Y-300D01*
X1782Y-295D01*
X1770Y-285D01*
X1767Y-273D01*
X1768Y-265D01*
X1771Y-260D01*
X1775Y-258D01*
X1779Y-260D01*
X1783Y-265D01*
G01X1857Y-225D02*
X1873D01*
G01X1865D02*
Y-325D01*
G01X1857D02*
X1873D01*
G01X1899D02*
Y-258D01*
G01Y-275D02*
X1901Y-267D01*
X1905Y-260D01*
X1911Y-258D01*
X1915Y-260D01*
X1919Y-267D01*
X1921Y-278D01*
Y-325D01*
G01X1966Y-267D02*
X1961Y-260D01*
X1957Y-258D01*
X1952Y-262D01*
X1948Y-268D01*
X1945Y-280D01*
X1944Y-292D01*
X1945Y-303D01*
X1948Y-313D01*
X1952Y-322D01*
X1957Y-325D01*
X1962Y-322D01*
X1966Y-315D01*
G01X2000Y-328D02*
X1999Y-327D01*
Y-323D01*
X2000Y-322D01*
X2001Y-323D01*
Y-327D01*
X2000Y-328D01*
G01X2073Y-325D02*
X2090Y-225D01*
X2107Y-325D01*
G01X2101Y-290D02*
X2079D01*
G01X2135Y-325D02*
Y-225D01*
G01X2180Y-325D02*
Y-225D01*
G01X2257Y-325D02*
Y-225D01*
X2273D01*
X2279Y-230D01*
X2282Y-237D01*
X2283Y-250D01*
X2282Y-263D01*
X2278Y-272D01*
X2273Y-277D01*
X2257D01*
G01X2273D02*
X2283Y-325D01*
G01X2315Y-258D02*
Y-325D01*
G01Y-232D02*
X2314Y-230D01*
Y-227D01*
X2315Y-225D01*
X2316Y-227D01*
Y-230D01*
X2315Y-232D01*
G01X2351Y-350D02*
X2355Y-357D01*
X2361Y-358D01*
X2365Y-357D01*
X2369Y-348D01*
X2372Y-337D01*
Y-258D01*
G01Y-272D02*
X2369Y-265D01*
X2365Y-260D01*
X2361Y-258D01*
X2355Y-262D01*
X2352Y-268D01*
X2349Y-280D01*
X2348Y-292D01*
X2349Y-302D01*
X2351Y-313D01*
X2355Y-322D01*
X2361Y-325D01*
X2365Y-323D01*
X2369Y-317D01*
X2372Y-310D01*
G01X2394Y-325D02*
Y-225D01*
G01Y-273D02*
X2397Y-265D01*
X2400Y-260D01*
X2406Y-258D01*
X2410Y-260D01*
X2414Y-267D01*
X2416Y-277D01*
Y-325D01*
G01X2450Y-225D02*
Y-325D01*
G01X2441Y-258D02*
X2459D01*
G01X2485Y-313D02*
X2488Y-320D01*
X2493Y-325D01*
X2497D01*
X2501Y-322D01*
X2504Y-317D01*
X2505Y-310D01*
X2504Y-300D01*
X2502Y-295D01*
X2490Y-285D01*
X2487Y-273D01*
X2488Y-265D01*
X2491Y-260D01*
X2495Y-258D01*
X2499Y-260D01*
X2503Y-265D01*
G01X2572Y-325D02*
Y-225D01*
X2588D01*
X2594Y-230D01*
X2597Y-237D01*
X2598Y-250D01*
X2597Y-263D01*
X2593Y-272D01*
X2588Y-277D01*
X2572D01*
G01X2588D02*
X2598Y-325D01*
G01X2620Y-280D02*
X2641D01*
X2639Y-268D01*
X2636Y-262D01*
X2631Y-258D01*
X2627Y-260D01*
X2623Y-265D01*
X2620Y-277D01*
X2619Y-287D01*
Y-297D01*
X2620Y-307D01*
X2623Y-317D01*
X2627Y-323D01*
X2632Y-325D01*
X2637Y-322D01*
X2641Y-312D01*
G01X2665Y-313D02*
X2668Y-320D01*
X2673Y-325D01*
X2677D01*
X2681Y-322D01*
X2684Y-317D01*
X2685Y-310D01*
X2684Y-300D01*
X2682Y-295D01*
X2670Y-285D01*
X2667Y-273D01*
X2668Y-265D01*
X2671Y-260D01*
X2675Y-258D01*
X2679Y-260D01*
X2683Y-265D01*
G01X2710Y-280D02*
X2731D01*
X2729Y-268D01*
X2726Y-262D01*
X2721Y-258D01*
X2717Y-260D01*
X2713Y-265D01*
X2710Y-277D01*
X2709Y-287D01*
Y-297D01*
X2710Y-307D01*
X2713Y-317D01*
X2717Y-323D01*
X2722Y-325D01*
X2727Y-322D01*
X2731Y-312D01*
G01X2756Y-325D02*
Y-258D01*
G01Y-272D02*
X2759Y-265D01*
X2762Y-260D01*
X2767Y-258D01*
X2770Y-260D01*
X2774Y-265D01*
G01X2798Y-258D02*
X2810Y-325D01*
X2822Y-258D01*
G01X2845Y-280D02*
X2866D01*
X2864Y-268D01*
X2861Y-262D01*
X2856Y-258D01*
X2852Y-260D01*
X2848Y-265D01*
X2845Y-277D01*
X2844Y-287D01*
Y-297D01*
X2845Y-307D01*
X2848Y-317D01*
X2852Y-323D01*
X2857Y-325D01*
X2862Y-322D01*
X2866Y-312D01*
G01X2912Y-225D02*
Y-325D01*
G01Y-310D02*
X2909Y-318D01*
X2905Y-323D01*
X2901Y-325D01*
X2895Y-322D01*
X2891Y-313D01*
X2889Y-303D01*
X2888Y-292D01*
X2889Y-280D01*
X2891Y-270D01*
X2895Y-262D01*
X2901Y-258D01*
X2905Y-260D01*
X2909Y-263D01*
X2912Y-270D01*
G01X2945Y-328D02*
X2944Y-327D01*
Y-323D01*
X2945Y-322D01*
X2946Y-323D01*
Y-327D01*
X2945Y-328D01*
G01X3020Y-225D02*
Y-297D01*
X3023Y-312D01*
X3028Y-322D01*
X3035Y-325D01*
X3042Y-322D01*
X3047Y-312D01*
X3050Y-297D01*
Y-225D01*
G01X3070Y-313D02*
X3073Y-320D01*
X3078Y-325D01*
X3082D01*
X3086Y-322D01*
X3089Y-317D01*
X3090Y-310D01*
X3089Y-300D01*
X3087Y-295D01*
X3075Y-285D01*
X3072Y-273D01*
X3073Y-265D01*
X3076Y-260D01*
X3080Y-258D01*
X3084Y-260D01*
X3088Y-265D01*
G01X3125Y-258D02*
Y-325D01*
G01Y-232D02*
X3124Y-230D01*
Y-227D01*
X3125Y-225D01*
X3126Y-227D01*
Y-230D01*
X3125Y-232D01*
G01X3159Y-325D02*
Y-258D01*
G01Y-275D02*
X3161Y-267D01*
X3165Y-260D01*
X3171Y-258D01*
X3175Y-260D01*
X3179Y-267D01*
X3181Y-278D01*
Y-325D01*
G01X3206Y-350D02*
X3210Y-357D01*
X3216Y-358D01*
X3220Y-357D01*
X3224Y-348D01*
X3227Y-337D01*
Y-258D01*
G01Y-272D02*
X3224Y-265D01*
X3220Y-260D01*
X3216Y-258D01*
X3210Y-262D01*
X3207Y-268D01*
X3204Y-280D01*
X3203Y-292D01*
X3204Y-302D01*
X3206Y-313D01*
X3210Y-322D01*
X3216Y-325D01*
X3220Y-323D01*
X3224Y-317D01*
X3227Y-310D01*
G01X3305Y-225D02*
Y-325D01*
G01X3296Y-258D02*
X3314D01*
G01X3339Y-325D02*
Y-225D01*
G01Y-273D02*
X3342Y-265D01*
X3345Y-260D01*
X3351Y-258D01*
X3355Y-260D01*
X3359Y-267D01*
X3361Y-277D01*
Y-325D01*
G01X3395Y-258D02*
Y-325D01*
G01Y-232D02*
X3394Y-230D01*
Y-227D01*
X3395Y-225D01*
X3396Y-227D01*
Y-230D01*
X3395Y-232D01*
G01X3430Y-313D02*
X3433Y-320D01*
X3438Y-325D01*
X3442D01*
X3446Y-322D01*
X3449Y-317D01*
X3450Y-310D01*
X3449Y-300D01*
X3447Y-295D01*
X3435Y-285D01*
X3432Y-273D01*
X3433Y-265D01*
X3436Y-260D01*
X3440Y-258D01*
X3444Y-260D01*
X3448Y-265D01*
G01X3530Y-325D02*
Y-225D01*
G01X3587Y-325D02*
Y-258D01*
G01Y-270D02*
X3584Y-263D01*
X3580Y-260D01*
X3576Y-258D01*
X3571Y-262D01*
X3567Y-268D01*
X3564Y-278D01*
X3563Y-292D01*
X3564Y-305D01*
X3567Y-315D01*
X3571Y-322D01*
X3576Y-325D01*
X3580Y-323D01*
X3584Y-318D01*
X3587Y-312D01*
G01X3606Y-355D02*
X3610Y-358D01*
X3615Y-355D01*
X3619Y-348D01*
X3621Y-340D01*
X3625Y-313D01*
X3634Y-258D01*
G01X3613D02*
X3625Y-313D01*
G01X3665Y-325D02*
X3661Y-323D01*
X3657Y-317D01*
X3654Y-305D01*
X3653Y-292D01*
X3654Y-278D01*
X3657Y-267D01*
X3661Y-260D01*
X3665Y-258D01*
X3669Y-260D01*
X3673Y-267D01*
X3676Y-278D01*
X3676Y-292D01*
X3676Y-305D01*
X3673Y-317D01*
X3669Y-323D01*
X3665Y-325D01*
G01X3699Y-258D02*
Y-305D01*
X3701Y-317D01*
X3705Y-323D01*
X3710Y-325D01*
X3715Y-323D01*
X3719Y-317D01*
X3721Y-305D01*
G01Y-325D02*
Y-258D01*
G01X3755Y-225D02*
Y-325D01*
G01X3746Y-258D02*
X3764D01*
G01X3857Y-225D02*
Y-325D01*
G01Y-310D02*
X3854Y-318D01*
X3850Y-323D01*
X3846Y-325D01*
X3840Y-322D01*
X3836Y-313D01*
X3834Y-303D01*
X3833Y-292D01*
X3834Y-280D01*
X3836Y-270D01*
X3840Y-262D01*
X3846Y-258D01*
X3850Y-260D01*
X3854Y-263D01*
X3857Y-270D01*
G01X3880Y-280D02*
X3901D01*
X3899Y-268D01*
X3896Y-262D01*
X3891Y-258D01*
X3887Y-260D01*
X3883Y-265D01*
X3880Y-277D01*
X3879Y-287D01*
Y-297D01*
X3880Y-307D01*
X3883Y-317D01*
X3887Y-323D01*
X3892Y-325D01*
X3897Y-322D01*
X3901Y-312D01*
G01X3925Y-313D02*
X3928Y-320D01*
X3933Y-325D01*
X3937D01*
X3941Y-322D01*
X3944Y-317D01*
X3945Y-310D01*
X3944Y-300D01*
X3942Y-295D01*
X3930Y-285D01*
X3927Y-273D01*
X3928Y-265D01*
X3931Y-260D01*
X3935Y-258D01*
X3939Y-260D01*
X3943Y-265D01*
G01X3980Y-258D02*
Y-325D01*
G01Y-232D02*
X3979Y-230D01*
Y-227D01*
X3980Y-225D01*
X3981Y-227D01*
Y-230D01*
X3980Y-232D01*
G01X4016Y-350D02*
X4020Y-357D01*
X4026Y-358D01*
X4030Y-357D01*
X4034Y-348D01*
X4037Y-337D01*
Y-258D01*
G01Y-272D02*
X4034Y-265D01*
X4030Y-260D01*
X4026Y-258D01*
X4020Y-262D01*
X4017Y-268D01*
X4014Y-280D01*
X4013Y-292D01*
X4014Y-302D01*
X4016Y-313D01*
X4020Y-322D01*
X4026Y-325D01*
X4030Y-323D01*
X4034Y-317D01*
X4037Y-310D01*
G01X4059Y-325D02*
Y-258D01*
G01Y-275D02*
X4061Y-267D01*
X4065Y-260D01*
X4071Y-258D01*
X4075Y-260D01*
X4079Y-267D01*
X4081Y-278D01*
Y-325D01*
G01X4160Y-225D02*
Y-325D01*
G01X4151Y-258D02*
X4169D01*
G01X4205Y-325D02*
X4201Y-323D01*
X4197Y-317D01*
X4194Y-305D01*
X4193Y-292D01*
X4194Y-278D01*
X4197Y-267D01*
X4201Y-260D01*
X4205Y-258D01*
X4209Y-260D01*
X4213Y-267D01*
X4216Y-278D01*
X4216Y-292D01*
X4216Y-305D01*
X4213Y-317D01*
X4209Y-323D01*
X4205Y-325D01*
G01X4275D02*
Y-258D01*
G01Y-277D02*
X4277Y-268D01*
X4280Y-262D01*
X4285Y-258D01*
X4290Y-262D01*
X4293Y-268D01*
X4295Y-277D01*
Y-325D01*
G01Y-277D02*
X4297Y-268D01*
X4300Y-262D01*
X4305Y-258D01*
X4310Y-262D01*
X4313Y-268D01*
X4315Y-278D01*
Y-325D01*
G01X4352D02*
Y-258D01*
G01Y-270D02*
X4349Y-263D01*
X4345Y-260D01*
X4341Y-258D01*
X4336Y-262D01*
X4332Y-268D01*
X4329Y-278D01*
X4328Y-292D01*
X4329Y-305D01*
X4332Y-315D01*
X4336Y-322D01*
X4341Y-325D01*
X4345Y-323D01*
X4349Y-318D01*
X4352Y-312D01*
G01X4374Y-325D02*
Y-225D01*
G01X4395Y-258D02*
X4374Y-297D01*
G01X4382Y-282D02*
X4396Y-325D01*
G01X4420Y-280D02*
X4441D01*
X4439Y-268D01*
X4436Y-262D01*
X4431Y-258D01*
X4427Y-260D01*
X4423Y-265D01*
X4420Y-277D01*
X4419Y-287D01*
Y-297D01*
X4420Y-307D01*
X4423Y-317D01*
X4427Y-323D01*
X4432Y-325D01*
X4437Y-322D01*
X4441Y-312D01*
G01X4507Y-325D02*
Y-225D01*
X4523D01*
X4528Y-230D01*
X4532Y-242D01*
X4533Y-255D01*
X4532Y-268D01*
X4529Y-278D01*
X4523Y-283D01*
X4507D01*
G01X4580Y-233D02*
X4576Y-228D01*
X4571Y-225D01*
X4566D01*
X4560Y-230D01*
X4555Y-238D01*
X4552Y-248D01*
X4549Y-265D01*
X4548Y-280D01*
X4550Y-295D01*
X4552Y-305D01*
X4556Y-315D01*
X4560Y-322D01*
X4565Y-325D01*
X4570D01*
X4574Y-322D01*
X4578Y-317D01*
X4582Y-310D01*
G01X4615Y-272D02*
X4618Y-267D01*
X4620Y-258D01*
X4621Y-247D01*
X4620Y-237D01*
X4617Y-230D01*
X4613Y-225D01*
X4595D01*
Y-325D01*
X4617D01*
X4621Y-318D01*
X4624Y-308D01*
X4625Y-297D01*
X4624Y-285D01*
X4620Y-275D01*
X4615Y-272D01*
X4595D01*
G01X4712Y-225D02*
Y-325D01*
G01Y-310D02*
X4709Y-318D01*
X4705Y-323D01*
X4701Y-325D01*
X4695Y-322D01*
X4691Y-313D01*
X4689Y-303D01*
X4688Y-292D01*
X4689Y-280D01*
X4691Y-270D01*
X4695Y-262D01*
X4701Y-258D01*
X4705Y-260D01*
X4709Y-263D01*
X4712Y-270D01*
G01X4745Y-258D02*
Y-325D01*
G01Y-232D02*
X4744Y-230D01*
Y-227D01*
X4745Y-225D01*
X4746Y-227D01*
Y-230D01*
X4745Y-232D01*
G01X4781Y-325D02*
Y-258D01*
G01Y-272D02*
X4784Y-265D01*
X4787Y-260D01*
X4792Y-258D01*
X4795Y-260D01*
X4799Y-265D01*
G01X4825Y-280D02*
X4846D01*
X4844Y-268D01*
X4841Y-262D01*
X4836Y-258D01*
X4832Y-260D01*
X4828Y-265D01*
X4825Y-277D01*
X4824Y-287D01*
Y-297D01*
X4825Y-307D01*
X4828Y-317D01*
X4832Y-323D01*
X4837Y-325D01*
X4842Y-322D01*
X4846Y-312D01*
G01X4891Y-267D02*
X4886Y-260D01*
X4882Y-258D01*
X4877Y-262D01*
X4873Y-268D01*
X4870Y-280D01*
X4869Y-292D01*
X4870Y-303D01*
X4873Y-313D01*
X4877Y-322D01*
X4882Y-325D01*
X4887Y-322D01*
X4891Y-315D01*
G01X4925Y-225D02*
Y-325D01*
G01X4916Y-258D02*
X4934D01*
G01X4970Y-325D02*
Y-225D01*
G01X5001Y-355D02*
X5005Y-358D01*
X5010Y-355D01*
X5014Y-348D01*
X5016Y-340D01*
X5020Y-313D01*
X5029Y-258D01*
G01X5008D02*
X5020Y-313D01*
G01X5105Y-258D02*
Y-325D01*
G01Y-232D02*
X5104Y-230D01*
Y-227D01*
X5105Y-225D01*
X5106Y-227D01*
Y-230D01*
X5105Y-232D01*
G01X5140Y-313D02*
X5143Y-320D01*
X5148Y-325D01*
X5152D01*
X5156Y-322D01*
X5159Y-317D01*
X5160Y-310D01*
X5159Y-300D01*
X5157Y-295D01*
X5145Y-285D01*
X5142Y-273D01*
X5143Y-265D01*
X5146Y-260D01*
X5150Y-258D01*
X5154Y-260D01*
X5158Y-265D01*
G01X5228Y-358D02*
Y-258D01*
G01Y-273D02*
X5231Y-265D01*
X5235Y-260D01*
X5240Y-258D01*
X5245Y-260D01*
X5249Y-268D01*
X5251Y-280D01*
X5252Y-292D01*
X5251Y-303D01*
X5249Y-315D01*
X5245Y-322D01*
X5240Y-325D01*
X5235Y-323D01*
X5231Y-318D01*
X5228Y-312D01*
G01X5276Y-325D02*
Y-258D01*
G01Y-272D02*
X5279Y-265D01*
X5282Y-260D01*
X5287Y-258D01*
X5290Y-260D01*
X5294Y-265D01*
G01X5330Y-325D02*
X5326Y-323D01*
X5322Y-317D01*
X5319Y-305D01*
X5318Y-292D01*
X5319Y-278D01*
X5322Y-267D01*
X5326Y-260D01*
X5330Y-258D01*
X5334Y-260D01*
X5338Y-267D01*
X5341Y-278D01*
X5341Y-292D01*
X5341Y-305D01*
X5338Y-317D01*
X5334Y-323D01*
X5330Y-325D01*
G01X5364D02*
Y-225D01*
G01Y-273D02*
X5367Y-265D01*
X5370Y-260D01*
X5376Y-258D01*
X5380Y-260D01*
X5384Y-267D01*
X5386Y-277D01*
Y-325D01*
G01X5420Y-258D02*
Y-325D01*
G01Y-232D02*
X5419Y-230D01*
Y-227D01*
X5420Y-225D01*
X5421Y-227D01*
Y-230D01*
X5420Y-232D01*
G01X5453Y-325D02*
Y-225D01*
G01Y-275D02*
X5456Y-265D01*
X5460Y-260D01*
X5464Y-258D01*
X5470Y-262D01*
X5474Y-268D01*
X5477Y-280D01*
Y-293D01*
X5476Y-307D01*
X5473Y-317D01*
X5468Y-323D01*
X5464Y-325D01*
X5460Y-323D01*
X5456Y-318D01*
X5453Y-310D01*
G01X5510Y-258D02*
Y-325D01*
G01Y-232D02*
X5509Y-230D01*
Y-227D01*
X5510Y-225D01*
X5511Y-227D01*
Y-230D01*
X5510Y-232D01*
G01X5555Y-225D02*
Y-325D01*
G01X5546Y-258D02*
X5564D01*
G01X5590Y-280D02*
X5611D01*
X5609Y-268D01*
X5606Y-262D01*
X5601Y-258D01*
X5597Y-260D01*
X5593Y-265D01*
X5590Y-277D01*
X5589Y-287D01*
Y-297D01*
X5590Y-307D01*
X5593Y-317D01*
X5597Y-323D01*
X5602Y-325D01*
X5607Y-322D01*
X5611Y-312D01*
G01X5657Y-225D02*
Y-325D01*
G01Y-310D02*
X5654Y-318D01*
X5650Y-323D01*
X5646Y-325D01*
X5640Y-322D01*
X5636Y-313D01*
X5634Y-303D01*
X5633Y-292D01*
X5634Y-280D01*
X5636Y-270D01*
X5640Y-262D01*
X5646Y-258D01*
X5650Y-260D01*
X5654Y-263D01*
X5657Y-270D01*
G01X5690Y-328D02*
X5689Y-327D01*
Y-323D01*
X5690Y-322D01*
X5691Y-323D01*
Y-327D01*
X5690Y-328D01*
G01X471Y-247D02*
X466Y-240D01*
X462Y-238D01*
X457Y-242D01*
X453Y-248D01*
X450Y-260D01*
X449Y-272D01*
X450Y-283D01*
X453Y-293D01*
X457Y-302D01*
X462Y-305D01*
X467Y-302D01*
X471Y-295D01*
G01X475Y-220D02*
G03I-10J-50D01*
M02*
