G04 ================== begin FILE IDENTIFICATION RECORD ==================*
G04 Layout Name:  C:/HMB/HMB_V11.brd*
G04 Film Name:    L4-Bottom*
G04 File Format:  Gerber RS274X*
G04 File Origin:  15.7-p007*
G04 Origin Date:  Fri Aug 15 21:53:15 2008*
G04 *
G04 Layer:  VIA CLASS/BOTTOM*
G04 Layer:  PIN/BOTTOM*
G04 Layer:  ETCH/BOTTOM*
G04 *
G04 Offset:    (0.00 0.00)*
G04 Mirror:    No*
G04 Mode:      Positive*
G04 Rotation:  0*
G04 FullContactRelief:  No*
G04 UndefLineWidth:     0.00*
G04 ================== end FILE IDENTIFICATION RECORD ====================*
%FSLAX53Y53*MOIN*%
%IR0*IPPOS*OFA0.00000B0.00000*MIA0B0*SFA1.00000B1.00000*%
%ADD15R,.0252X.1*%
%ADD12C,.02*%
%ADD33C,.04*%
%ADD25C,.043*%
%ADD36C,.053*%
%ADD27O,.055X.168*%
%ADD14C,.026*%
%ADD11C,.035*%
%ADD29O,.168X.055*%
%ADD24C,.018*%
%ADD22C,.063*%
%ADD21C,.09*%
%ADD41O,.069X.129*%
%ADD20C,.037*%
%ADD40O,.129X.069*%
%ADD38C,.094*%
%ADD37C,.067*%
%ADD16R,.0252X.18504*%
%ADD26R,.043X.043*%
%ADD39R,.053X.053*%
%ADD32C,.069*%
%ADD17R,.035X.035*%
%ADD35R,.063X.063*%
%ADD31R,.069X.069*%
%ADD28C,.104*%
%ADD10C,.25*%
%ADD30C,.207*%
%ADD23R,.071X.047*%
%ADD34R,.059X.024*%
%ADD13R,.05709X.01181*%
%ADD18R,.03937X.01181*%
%ADD19R,.03937X.01575*%
%ADD42C,.01*%
%ADD43C,.03*%
%ADD44C,.012*%
%ADD45C,.015*%
%ADD46C,.025*%
%ADD47C,.004*%
%ADD48C,.006*%
%ADD49C,.008*%
%ADD51C,.04704*%
%ADD50O,.09002X.03002*%
G75*
%LPD*%
G75*
G36*
G01X170Y810D02*
Y3180D01*
X280D01*
Y2445D01*
X245Y2410D01*
Y2255D01*
X280Y2220D01*
Y2166D01*
X280Y2165D01*
Y810D01*
X170D01*
G37*
G36*
G01X45Y2263D02*
G03X64Y2250I14J0D01*
G02X70Y2247I2J-4D01*
G01Y2235D01*
X71D01*
Y2198D01*
X70D01*
Y2187D01*
G02X64Y2183I-4J0D01*
G03X45Y2170I-6J-13D01*
G01Y2145D01*
G03X64Y2132I14J0D01*
G02X70Y2128I2J-4D01*
G01Y2117D01*
X71D01*
Y2080D01*
X70D01*
Y2068D01*
G02X64Y2065I-4J0D01*
G03X45Y2052I-6J-13D01*
G01Y2027D01*
G03X64Y2014I14J0D01*
G02X70Y2010I2J-4D01*
G01Y1999D01*
X71D01*
Y1962D01*
X70D01*
Y1950D01*
G02X64Y1947I-4J0D01*
G03X45Y1934I-6J-13D01*
G01Y1909D01*
G03X64Y1896I14J0D01*
G02X70Y1892I2J-4D01*
G01Y1881D01*
X71D01*
Y1844D01*
X70D01*
Y1832D01*
G02X64Y1829I-4J0D01*
G03X45Y1816I-6J-13D01*
G01Y1791D01*
G03X64Y1778I14J0D01*
G02X70Y1774I2J-4D01*
G01Y1763D01*
X71D01*
Y1725D01*
X70D01*
Y1704D01*
X110D01*
Y1508D01*
X71D01*
X70Y1509D01*
G03X45Y1501I-11J-8D01*
G01Y1476D01*
G03X64Y1463I14J0D01*
G02X70Y1459I2J-4D01*
G01Y1448D01*
X71D01*
Y1411D01*
X70D01*
Y1399D01*
G02X64Y1395I-4J0D01*
G03X45Y1383I-6J-13D01*
G01Y1358D01*
G03X64Y1345I14J0D01*
G02X70Y1341I2J-4D01*
G01Y1330D01*
X71D01*
Y1292D01*
X70D01*
Y1281D01*
G02X64Y1277I-4J0D01*
G03X45Y1264I-6J-13D01*
G01Y1239D01*
G03X64Y1227I14J0D01*
G02X70Y1223I2J-4D01*
G01Y1212D01*
X71D01*
Y1174D01*
X70D01*
Y1163D01*
G02X64Y1159I-4J0D01*
G03X45Y1146I-6J-13D01*
G01Y1121D01*
G03X64Y1108I14J0D01*
G02X70Y1105I2J-4D01*
G01Y1093D01*
X71D01*
Y1056D01*
X70D01*
Y1045D01*
G02X64Y1041I-4J0D01*
G03X45Y1028I-6J-13D01*
G01Y1003D01*
G03X64Y990I14J0D01*
G02X70Y987I2J-4D01*
G01Y975D01*
X71D01*
Y938D01*
X70D01*
Y916D01*
X110D01*
Y890D01*
X100Y880D01*
X20D01*
Y2350D01*
X100D01*
X110Y2340D01*
Y2295D01*
X71D01*
X70Y2296D01*
G03X45Y2288I-11J-8D01*
G01Y2263D01*
G37*
G36*
G01X534Y615D02*
G03X606I36J-5D01*
G02X610Y620I4J1D01*
G01X920D01*
X930Y610D01*
Y190D01*
X920Y180D01*
X510D01*
X500Y190D01*
Y610D01*
X510Y620D01*
X530D01*
G02X534Y615I0J-4D01*
G37*
G36*
G01X1115Y1670D02*
X1175Y1730D01*
X1220D01*
X1225Y1725D01*
Y1650D01*
X1250Y1625D01*
Y1615D01*
X1245Y1610D01*
X1180D01*
X1175Y1615D01*
Y1630D01*
X1170Y1635D01*
X1150D01*
X1145Y1630D01*
Y1615D01*
X1140Y1610D01*
X1110D01*
X1105Y1615D01*
Y1625D01*
X1115Y1635D01*
Y1670D01*
G37*
G36*
G01X4040Y680D02*
X4280D01*
X4290Y670D01*
Y260D01*
X4280Y250D01*
X4040D01*
X4030Y260D01*
Y670D01*
X4040Y680D01*
G37*
%LPC*%
G75*
G54D51*
X840Y590D03*
G54D50*
X560Y290D03*
%LPD*%
G75*
G54D10*
X200Y200D03*
X225Y600D03*
Y3400D03*
X200Y3800D03*
X4800Y200D03*
Y3800D03*
G54D20*
X508Y3160D03*
Y3230D03*
X777Y3197D03*
X634Y3160D03*
X636Y3230D03*
X860Y220D03*
X840Y590D03*
X1400Y3210D03*
Y3110D03*
Y3010D03*
X1680Y1225D03*
X1645Y3000D03*
X1595Y2950D03*
Y3010D03*
X1695Y3314D03*
X1645D03*
X1844Y360D03*
X1725Y1995D03*
X1840Y2625D03*
X1735Y2845D03*
X1870Y3190D03*
X1913Y3225D03*
X1745Y3314D03*
X1795D03*
X2170Y3020D03*
X2900Y3010D03*
X3156Y360D03*
X3223Y2710D03*
X3070Y2960D03*
Y3120D03*
X3140Y3220D03*
X3160Y3080D03*
Y3010D03*
X3140Y3360D03*
X3325Y825D03*
X3363Y2046D03*
X3477D03*
X3337Y2710D03*
X3460Y2990D03*
X3740Y2780D03*
X3660Y2870D03*
X4040Y900D03*
X3990Y2060D03*
X3940Y2780D03*
X4100Y2842D03*
X3970D03*
X4040D03*
X3910D03*
X4135Y950D03*
X4130Y1960D03*
Y2060D03*
X4142Y2573D03*
X4302Y2850D03*
X4200Y2640D03*
X4136Y2904D03*
X4340Y3360D03*
X4380Y3260D03*
X4790Y955D03*
Y2025D03*
G54D11*
X200Y400D03*
Y3600D03*
X4800Y400D03*
Y3600D03*
G54D30*
X2258Y3565D03*
X3242D03*
X3559Y3627D03*
X4543D03*
G54D21*
X515Y3475D03*
Y3695D03*
Y3935D03*
X595Y3625D03*
Y3845D03*
X935Y3475D03*
Y3695D03*
X1015Y3625D03*
Y3845D03*
X935Y3935D03*
X1355Y3475D03*
Y3695D03*
X1435Y3625D03*
Y3845D03*
X1355Y3935D03*
G54D12*
X59Y1003D03*
Y1028D03*
X148Y1062D03*
Y1087D03*
Y969D03*
Y944D03*
X59Y958D03*
Y1074D03*
X30Y890D03*
X90D03*
X60D03*
X148Y1324D03*
X59Y1358D03*
Y1264D03*
Y1146D03*
X148Y1180D03*
Y1205D03*
X59Y1239D03*
Y1121D03*
X148Y1298D03*
X59Y1194D03*
Y1310D03*
Y1383D03*
Y1501D03*
Y1476D03*
X148Y1442D03*
Y1417D03*
X59Y1428D03*
X35Y1690D03*
Y1650D03*
Y1610D03*
Y1570D03*
Y1530D03*
X59Y1791D03*
Y1816D03*
X148Y1850D03*
Y1875D03*
X59Y1909D03*
Y1934D03*
X148Y1968D03*
Y1993D03*
Y1732D03*
Y1757D03*
X59Y1744D03*
Y1862D03*
Y1980D03*
X148Y2229D03*
Y2204D03*
X59Y2263D03*
Y2288D03*
Y2170D03*
Y2027D03*
Y2052D03*
Y2145D03*
X148Y2086D03*
Y2111D03*
X59Y2098D03*
Y2216D03*
X149Y2581D03*
X149Y2541D03*
X35Y2335D03*
X65D03*
X95D03*
X58Y2580D03*
X150Y2486D03*
X302Y927D03*
X225Y986D03*
X247Y1075D03*
X225Y819D03*
X302Y1074D03*
Y986D03*
X225Y1223D03*
X302Y1194D03*
Y1310D03*
X470Y1660D03*
X224Y1606D03*
X225Y1459D03*
X250Y1650D03*
Y1570D03*
X350Y1645D03*
Y1610D03*
Y1570D03*
X430Y1600D03*
Y1660D03*
Y1630D03*
X302Y1428D03*
X225Y1979D03*
X247Y1862D03*
X225Y1745D03*
X302Y1980D03*
Y1862D03*
Y1744D03*
X300Y2154D03*
X402Y2310D03*
X408Y2266D03*
Y2234D03*
X264Y2259D03*
X262Y2300D03*
X410Y2194D03*
X504Y2143D03*
X226Y2216D03*
X248Y2098D03*
X302D03*
Y2233D03*
X366Y2448D03*
X392Y2360D03*
X426Y2328D03*
X386Y2466D03*
X404Y2386D03*
X410Y2604D03*
X261Y2401D03*
X262Y2360D03*
X262Y2320D03*
X422Y2363D03*
X225Y2391D03*
X404Y2414D03*
Y2486D03*
X390Y2624D03*
X510Y2670D03*
X225Y2783D03*
Y3043D03*
X560Y290D03*
X530D03*
X590D03*
X530Y470D03*
X590D03*
X560D03*
X700Y460D03*
X755D03*
Y360D03*
X640Y460D03*
Y380D03*
X700Y360D03*
X590Y1660D03*
X736Y2246D03*
Y2271D03*
Y2220D03*
Y2194D03*
X514Y2226D03*
X736Y2297D03*
X590Y2379D03*
X565Y2401D03*
Y2360D03*
X590Y2340D03*
X736Y2440D03*
Y2466D03*
Y2491D03*
Y2414D03*
X737Y2517D03*
X680Y2644D03*
X682Y2714D03*
X780Y2880D03*
X740D03*
X514Y2740D03*
X760Y2634D03*
X780Y2786D03*
X660Y2900D03*
X794Y2740D03*
Y2670D03*
X754Y2794D03*
X806D03*
X780Y2960D03*
X760Y3044D03*
X514Y3020D03*
X740Y2920D03*
Y2960D03*
X780Y2920D03*
X794Y3048D03*
X514Y2950D03*
X734Y3044D03*
X780Y3230D03*
X854Y302D03*
X906D03*
X880D03*
X820Y360D03*
X880Y480D03*
X850D03*
X910D03*
X980Y1050D03*
X1030Y910D03*
X840Y1230D03*
X1030Y1190D03*
X960Y1230D03*
X950Y1140D03*
X1040Y1700D03*
Y1620D03*
X890Y2155D03*
X820Y2880D03*
X830Y2634D03*
X1048Y2950D03*
X820Y3192D03*
Y3128D03*
Y2960D03*
Y2920D03*
X960Y2922D03*
X1340Y910D03*
Y1050D03*
X1180Y910D03*
X1340Y1190D03*
X1180D03*
X1123Y1580D03*
X1460Y960D03*
X1500D03*
X1420D03*
X1451Y1230D03*
X1569D03*
X1420Y1140D03*
X1500D03*
X1460D03*
X1880Y74D03*
X2000Y2480D03*
X1915Y2770D03*
X1870Y2705D03*
X1905Y2820D03*
X1840Y2775D03*
X2004Y2645D03*
X1810Y2775D03*
X1925Y2890D03*
X1905Y2850D03*
X1915Y2720D03*
X1770Y2810D03*
X1905Y2670D03*
X2001Y2715D03*
X2010Y2870D03*
Y2810D03*
Y2750D03*
X2001Y2975D03*
X1910Y3020D03*
X1981Y2955D03*
X1910Y3270D03*
X2250Y70D03*
X2040Y74D03*
X2250Y206D03*
X2254Y264D03*
X2244Y1986D03*
X2217D03*
X2190D03*
X2163D03*
X2136D03*
X2109D03*
X2271D03*
X2298D03*
X2040Y2666D03*
X2040Y2620D03*
X2060Y2715D03*
X2080Y2905D03*
X2159Y2666D03*
X2162Y2761D03*
X2070Y2810D03*
X2130Y2870D03*
X2070D03*
Y2750D03*
X2130Y2810D03*
Y2750D03*
X2218Y2780D03*
X2216Y2721D03*
X2060Y2956D03*
X2205Y2945D03*
X2040Y2975D03*
X2255Y2925D03*
X2090Y2975D03*
X2230Y3150D03*
Y3020D03*
X2050D03*
X2021Y2955D03*
X2230Y3270D03*
X2070D03*
X2530Y200D03*
X2500D03*
Y70D03*
X2420D03*
X2340D03*
X2580D03*
X2608Y370D03*
Y355D03*
X2568Y1986D03*
X2541D03*
X2514D03*
X2487D03*
X2460D03*
X2433D03*
X2406D03*
X2379D03*
X2352D03*
X2325D03*
X2595D03*
X2430Y3268D03*
X2570D03*
X2500D03*
X2750Y70D03*
X2840D03*
X2660D03*
Y208D03*
X2790Y70D03*
X2720D03*
X2726Y238D03*
X2746Y355D03*
X2754Y238D03*
X2766Y394D03*
X2815Y259D03*
X2785Y238D03*
X2800Y910D03*
X2770D03*
X2740D03*
X2710D03*
X2800Y870D03*
X2770D03*
X2740D03*
X2710D03*
Y830D03*
X2770Y1070D03*
X2800D03*
X2830D03*
X2860D03*
X2676Y1986D03*
X2703D03*
X2649D03*
X2622D03*
X2892D03*
X2865D03*
X2784D03*
X2757D03*
X2811D03*
X2730D03*
X2838D03*
X2880Y2762D03*
X2680Y2970D03*
X2790D03*
X2770Y3080D03*
X2740Y3122D03*
X2750Y2970D03*
X2711D03*
X2829D03*
X2849D03*
X2868D03*
X2640Y3268D03*
X2850D03*
X2780D03*
X2710D03*
X3000Y70D03*
X3016Y404D03*
X3000Y420D03*
X3082Y402D03*
X3100Y420D03*
Y920D03*
X3125D03*
X3150D03*
X2975Y1030D03*
Y990D03*
Y955D03*
Y900D03*
Y870D03*
Y840D03*
X3050Y900D03*
Y870D03*
Y840D03*
X3060Y1060D03*
X3030D03*
X3000D03*
X3120Y1100D03*
X3150D03*
X3090D03*
X3060Y953D03*
X3090Y1140D03*
X3120D03*
X3150D03*
X2946Y1986D03*
X2919D03*
X3500Y74D03*
X3430D03*
X3360D03*
X3290D03*
X3500Y360D03*
X3474Y356D03*
X3448Y358D03*
X3320Y230D03*
X3293Y537D03*
X3415Y795D03*
X3455D03*
X3490D03*
X3430Y750D03*
X3500D03*
X3360D03*
X3290D03*
X3474Y616D03*
X3415Y1020D03*
Y990D03*
Y955D03*
X3507Y953D03*
X3250Y1170D03*
Y1145D03*
Y1120D03*
X3350Y1670D03*
X3400Y2860D03*
Y2730D03*
Y2990D03*
X3450Y3214D03*
X3570Y74D03*
X3615Y510D03*
X3590Y332D03*
X3564D03*
X3616D03*
X3565Y510D03*
X3590D03*
X3535Y810D03*
X3565D03*
X3595D03*
X3647Y752D03*
X3595Y925D03*
X3565D03*
X3535D03*
X3595Y1100D03*
X3565D03*
X3525D03*
X3530Y1140D03*
X3560D03*
X3590D03*
X3750Y1175D03*
X3590Y1420D03*
X3750Y1470D03*
Y1670D03*
X3590Y1540D03*
X3600Y1670D03*
X3751Y1765D03*
X3770Y2060D03*
X3534Y2538D03*
X3646Y2520D03*
X3789Y2450D03*
X3645Y2341D03*
X3666Y2544D03*
X3724Y2520D03*
X3534Y2322D03*
X3750Y2660D03*
X3642Y2642D03*
X3720Y2730D03*
X3560D03*
X3720Y2990D03*
X3560D03*
X3592Y3230D03*
X3710D03*
X3986Y508D03*
X3934D03*
X3960D03*
X4040Y490D03*
Y420D03*
X4100D03*
X3960Y332D03*
X3986D03*
X3934D03*
X4040Y670D03*
X4100D03*
X4040Y610D03*
Y550D03*
X4100Y610D03*
X3870Y1175D03*
X3920Y1274D03*
X3870Y1667D03*
X3920Y1569D03*
Y1470D03*
X3870Y1765D03*
X4006Y2444D03*
X4010Y2580D03*
X3820Y2492D03*
X4000Y2470D03*
X3958Y2420D03*
Y2528D03*
X3857Y2361D03*
X3858Y2414D03*
X4002Y2498D03*
X4010Y2700D03*
X3840Y2842D03*
X3872Y2690D03*
X4067Y3143D03*
X4080Y2972D03*
X4082Y3077D03*
X3876Y3295D03*
X4075Y3245D03*
X4280Y490D03*
Y420D03*
X4220D03*
X4160D03*
X4386Y508D03*
X4360D03*
X4334D03*
X4335Y330D03*
X4385D03*
X4360D03*
X4280Y670D03*
X4160D03*
X4220D03*
X4280Y610D03*
Y550D03*
X4220Y610D03*
X4160D03*
X4262Y2270D03*
Y2130D03*
X4135D03*
X4136Y2200D03*
X4132Y2270D03*
X4130Y2400D03*
Y2460D03*
X4128Y2520D03*
X4262Y2460D03*
Y2400D03*
X4132Y2340D03*
X4128Y2640D03*
Y2700D03*
X4254Y2909D03*
X4140Y3150D03*
Y3010D03*
Y3080D03*
X4260D03*
X4136Y2940D03*
G54D13*
X103Y927D03*
Y947D03*
Y967D03*
Y986D03*
Y1006D03*
Y1026D03*
Y1045D03*
Y1065D03*
Y1085D03*
Y1104D03*
Y1124D03*
Y1144D03*
Y1163D03*
Y1183D03*
Y1203D03*
Y1222D03*
Y1242D03*
Y1262D03*
Y1282D03*
Y1301D03*
Y1321D03*
Y1341D03*
Y1360D03*
Y1380D03*
Y1400D03*
Y1419D03*
Y1439D03*
Y1459D03*
Y1478D03*
Y1498D03*
Y1715D03*
Y1734D03*
Y1754D03*
Y1774D03*
Y1793D03*
Y1813D03*
Y1833D03*
Y1852D03*
Y1872D03*
Y1892D03*
Y1911D03*
Y1931D03*
Y1951D03*
Y1970D03*
Y1990D03*
Y2010D03*
Y2030D03*
Y2049D03*
Y2069D03*
Y2089D03*
Y2108D03*
Y2128D03*
Y2148D03*
Y2167D03*
Y2187D03*
Y2207D03*
Y2226D03*
Y2246D03*
Y2266D03*
Y2285D03*
Y2522D03*
Y2541D03*
Y2581D03*
Y2600D03*
Y2640D03*
Y2659D03*
Y2699D03*
Y2718D03*
Y2758D03*
Y2778D03*
Y2817D03*
Y2837D03*
Y2876D03*
Y2896D03*
Y2935D03*
Y2955D03*
Y2994D03*
Y3014D03*
Y3053D03*
Y3073D03*
X347Y927D03*
Y947D03*
Y967D03*
Y986D03*
Y1006D03*
Y1026D03*
Y1045D03*
Y1065D03*
Y1085D03*
Y1104D03*
Y1124D03*
Y1144D03*
Y1163D03*
Y1183D03*
Y1203D03*
Y1222D03*
Y1242D03*
Y1262D03*
Y1282D03*
Y1301D03*
Y1321D03*
Y1341D03*
Y1360D03*
Y1380D03*
Y1400D03*
Y1419D03*
Y1439D03*
Y1459D03*
Y1478D03*
Y1498D03*
Y1715D03*
Y1734D03*
Y1754D03*
Y1774D03*
Y1793D03*
Y1813D03*
Y1833D03*
Y1852D03*
Y1872D03*
Y1892D03*
Y1911D03*
Y1931D03*
Y1951D03*
Y1970D03*
Y1990D03*
Y2010D03*
Y2030D03*
Y2049D03*
Y2069D03*
Y2089D03*
Y2108D03*
Y2128D03*
Y2148D03*
Y2167D03*
Y2187D03*
Y2207D03*
Y2226D03*
Y2246D03*
Y2266D03*
Y2285D03*
Y2522D03*
Y2541D03*
Y2581D03*
Y2600D03*
Y2640D03*
Y2659D03*
Y2699D03*
Y2718D03*
Y2758D03*
Y2778D03*
Y2817D03*
Y2837D03*
Y2876D03*
Y2896D03*
Y2935D03*
Y2955D03*
Y2994D03*
Y3014D03*
Y3053D03*
Y3073D03*
G54D31*
X2580Y3465D03*
G54D40*
X4796Y2819D03*
Y3369D03*
G54D22*
X570Y710D03*
Y610D03*
X3750Y460D03*
Y360D03*
X4105Y3684D03*
X3997D03*
X3889D03*
X4051Y3570D03*
X3943D03*
X4213Y3684D03*
X4267Y3570D03*
X4159D03*
X4510Y360D03*
Y460D03*
X4577Y3226D03*
Y2962D03*
X4675Y3226D03*
Y2962D03*
Y3145D03*
Y3043D03*
X4818Y2280D03*
X4878Y2180D03*
Y2580D03*
X4818Y2680D03*
G54D23*
X720Y3083D03*
Y3197D03*
G54D32*
X2580Y3665D03*
X2625Y3565D03*
X2535D03*
X2850Y3465D03*
X2760D03*
X2670D03*
X2850Y3665D03*
X2760D03*
X2670Y3665D03*
X2895Y3565D03*
X2805Y3565D03*
X2715D03*
X2940Y3465D03*
Y3665D03*
G54D41*
X4825Y3094D03*
G54D14*
X145Y849D03*
Y3151D03*
G54D42*
G01X2090Y2975D02*
X2073D01*
X2050Y2998D01*
X2027D01*
X2005Y3020D01*
G54D24*
X1003Y1306D03*
X845Y1404D03*
X924Y1306D03*
X1043Y1384D03*
X964D03*
X1043Y1345D03*
X1003Y1384D03*
X964Y1306D03*
X1003Y1345D03*
X964D03*
X885D03*
X846Y1306D03*
X1043D03*
X964Y1581D03*
X1082Y1621D03*
Y1699D03*
X1043Y1463D03*
X964D03*
X1003Y1424D03*
X964D03*
X1043D03*
X1003Y1699D03*
X964D03*
X1003Y1542D03*
X964Y1621D03*
X1043Y1581D03*
X1003Y1621D03*
X964Y1503D03*
X1043D03*
X1082Y1542D03*
X964D03*
X1003Y1503D03*
X1043Y1542D03*
X1003Y1581D03*
Y1463D03*
X1082Y1817D03*
X1003D03*
X1043D03*
X1003Y1857D03*
X964Y1817D03*
X1043Y1857D03*
X1082D03*
X1043Y1896D03*
X1082D03*
X1003D03*
X1043Y1778D03*
X845Y1916D03*
X1043Y1739D03*
X1082Y1778D03*
X964Y1739D03*
X1003D03*
Y1778D03*
X964D03*
Y1896D03*
X925Y1975D03*
X1082Y1739D03*
X964Y1857D03*
X865Y2018D03*
X944D03*
X1357Y1699D03*
X1239Y1542D03*
X1161D03*
X1397Y1699D03*
X1318Y1542D03*
X1397D03*
Y1581D03*
X1357D03*
X1397Y1621D03*
X1357Y1542D03*
X1121Y1699D03*
X1239D03*
X1161Y1621D03*
X1279D03*
X1239Y1581D03*
X1279D03*
X1318D03*
X1279Y1542D03*
X1239Y1621D03*
X1161Y1699D03*
X1121Y1621D03*
X1318Y1699D03*
Y1621D03*
X1279Y1699D03*
X1121Y1817D03*
X1279D03*
X1239D03*
X1161D03*
X1121Y1896D03*
X1318Y1817D03*
X1397Y1857D03*
X1318Y1778D03*
X1357Y1817D03*
X1121Y1857D03*
X1161Y1896D03*
Y1857D03*
X1239D03*
Y1896D03*
X1279Y1857D03*
X1357Y1739D03*
Y1778D03*
X1397D03*
Y1817D03*
Y1896D03*
X1357D03*
Y1857D03*
X1318Y1896D03*
X1279D03*
X1318Y1857D03*
X1397Y1739D03*
X1121Y1778D03*
Y1739D03*
X1161D03*
X1239D03*
X1279D03*
X1161Y1778D03*
X1318Y1739D03*
X1279Y1778D03*
X1239D03*
X1475Y1345D03*
X1515Y1345D03*
X1554Y1345D03*
X1555Y1404D03*
X1436Y1699D03*
Y1621D03*
Y1503D03*
Y1542D03*
Y1581D03*
Y1896D03*
Y1778D03*
Y1817D03*
Y1739D03*
X1555Y1995D03*
Y1916D03*
X1456Y2015D03*
G54D33*
X4083Y1045D03*
Y1875D03*
G54D15*
X225Y880D03*
Y1545D03*
Y1668D03*
Y2332D03*
Y2455D03*
Y3120D03*
G54D43*
G01X3560Y2540D02*
Y2520D01*
G01X3534Y2538D02*
X3558D01*
X3560Y2540D01*
G01D02*
X3604Y2584D01*
X3902D01*
G01X3958Y2528D02*
X3902Y2584D01*
G01D02*
X3940Y2622D01*
Y2780D01*
G01X3958Y2420D02*
Y2528D01*
G54D34*
X4019Y3143D03*
X4102Y3180D03*
X4019Y3003D03*
Y3077D03*
X4102Y3040D03*
X4019Y3217D03*
G54D16*
X225Y1088D03*
Y1338D03*
Y1875D03*
Y2125D03*
Y2662D03*
Y2912D03*
G54D25*
X1060Y2589D03*
X1375D03*
Y2510D03*
X1296Y2589D03*
Y2510D03*
X1217Y2589D03*
Y2510D03*
X1139Y2589D03*
Y2510D03*
G54D44*
G01X59Y1058D02*
Y1074D01*
G01Y939D02*
Y958D01*
G01Y973D02*
Y958D01*
G01Y1091D02*
Y1074D01*
G01X103Y1104D02*
X72D01*
X59Y1091D01*
G01X103Y1045D02*
X71D01*
X59Y1058D01*
G01X103Y986D02*
X72D01*
X59Y973D01*
G01X103Y927D02*
X71D01*
X59Y939D01*
G01Y1176D02*
Y1194D01*
G01Y1294D02*
Y1310D01*
G01Y1209D02*
Y1194D01*
G01Y1327D02*
Y1310D01*
G01X103Y1400D02*
X71D01*
X59Y1412D01*
G01X103Y1341D02*
X72D01*
X59Y1327D01*
G01X103Y1282D02*
X71D01*
X59Y1294D01*
G01X103Y1222D02*
X72D01*
X59Y1209D01*
G01X103Y1163D02*
X71D01*
X59Y1176D01*
G01Y1445D02*
Y1428D01*
G01D02*
Y1412D01*
G01X103Y1459D02*
X72D01*
X59Y1445D01*
G01Y1845D02*
Y1862D01*
G01Y1963D02*
Y1980D01*
G01Y1727D02*
Y1744D01*
G01Y1760D02*
Y1744D01*
G01Y1878D02*
Y1862D01*
G01Y1996D02*
Y1980D01*
G01X103Y2010D02*
X72D01*
X59Y1996D01*
G01X103Y1951D02*
X71D01*
X59Y1963D01*
G01X103Y1892D02*
X72D01*
X59Y1878D01*
G01X103Y1833D02*
X71D01*
X59Y1845D01*
G01X103Y1774D02*
X72D01*
X59Y1760D01*
G01X103Y1715D02*
X71D01*
X59Y1727D01*
G01Y2082D02*
Y2098D01*
G01Y2115D02*
Y2098D01*
G01Y2233D02*
Y2216D01*
G01D02*
Y2200D01*
G01X103Y2246D02*
X72D01*
X59Y2233D01*
G01X103Y2187D02*
X71D01*
X59Y2200D01*
G01X103Y2128D02*
X72D01*
X59Y2115D01*
G01X103Y2069D02*
X71D01*
X59Y2082D01*
G01X347Y986D02*
X302D01*
G01X347Y1104D02*
X315D01*
X302Y1091D01*
Y1074D01*
G01X347Y927D02*
X302D01*
G01X347Y1045D02*
X315D01*
X302Y1058D01*
Y1074D01*
G01X347Y1400D02*
X315D01*
X302Y1412D01*
Y1428D01*
G01X347Y1282D02*
X315D01*
X302Y1294D01*
Y1310D01*
G01X347Y1163D02*
X315D01*
X302Y1176D01*
Y1194D01*
G01X347Y1222D02*
X315D01*
X302Y1209D01*
Y1194D01*
G01X347Y1341D02*
X315D01*
X302Y1327D01*
Y1310D01*
G01X500Y1660D02*
X470D01*
G01X347Y1459D02*
X315D01*
X302Y1445D01*
Y1428D01*
G01X347Y1774D02*
X315D01*
X302Y1760D01*
Y1744D01*
G01X347Y1892D02*
X315D01*
X302Y1878D01*
Y1862D01*
G01X347Y2010D02*
X315D01*
X302Y1996D01*
Y1980D01*
G01X347Y1951D02*
X314D01*
X302Y1963D01*
Y1980D01*
G01X347Y1833D02*
X314D01*
X302Y1845D01*
Y1862D01*
G01X347Y1715D02*
X314D01*
X302Y1727D01*
Y1744D01*
G01X347Y2187D02*
X314D01*
X302Y2199D01*
Y2233D01*
G01X347Y2128D02*
X315D01*
X302Y2115D01*
Y2098D01*
G01X347Y2246D02*
X315D01*
X302Y2233D01*
G01X347Y2069D02*
X314D01*
X302Y2081D01*
Y2098D01*
G01X590Y1660D02*
X560D01*
G01X514Y2740D02*
Y2908D01*
X598Y2992D01*
X834D01*
X1090Y3248D01*
Y3770D01*
X1015Y3845D01*
G01X830Y2730D02*
X820Y2740D01*
X794D01*
G01X760Y2670D02*
Y2634D01*
G01X794Y2740D02*
X770D01*
X760Y2730D01*
G01X794Y3048D02*
Y3064D01*
X810Y3080D01*
G01X1015Y3625D02*
Y3211D01*
X822Y3018D01*
X582D01*
X514Y2950D01*
G01X720Y3083D02*
X734Y3069D01*
Y3044D01*
G01X870Y1230D02*
X840D01*
G01X930D02*
X960D01*
G01X1080Y1660D02*
X1082Y1658D01*
Y1621D01*
G01X1080Y1660D02*
X1082Y1662D01*
Y1699D01*
G01X1020Y1660D02*
X1040Y1640D01*
Y1620D01*
G01X1020Y1660D02*
X1040Y1680D01*
Y1700D01*
G01X930Y2090D02*
Y2032D01*
X944Y2018D01*
G01X870Y2090D02*
Y2023D01*
X865Y2018D01*
G01X830Y2670D02*
Y2634D01*
G01X1260Y1660D02*
Y1639D01*
X1279Y1621D01*
G01X1260Y1660D02*
Y1679D01*
X1240Y1699D01*
X1239D01*
G01X1200Y1570D02*
X1228D01*
X1239Y1581D01*
G01X1230Y1630D02*
X1239Y1621D01*
G01X1171Y1710D02*
X1161Y1699D01*
G01X1200Y1630D02*
X1230D01*
G01X1320Y1660D02*
X1318Y1662D01*
Y1699D01*
G01X1320Y1660D02*
X1318Y1658D01*
Y1621D01*
G01X1200Y1770D02*
X1208D01*
X1239Y1739D01*
G01X1200Y1770D02*
X1192D01*
X1161Y1739D01*
G01X1200Y1710D02*
X1171D01*
G01X1480Y1230D02*
X1451D01*
G01X1540D02*
X1569D01*
G01X1980Y2918D02*
X1908D01*
X1870Y2880D01*
G01Y2810D02*
Y2740D01*
G01Y2810D02*
X1895D01*
X1905Y2820D01*
G01X1810Y2670D02*
Y2740D01*
G01X1840Y2775D02*
X1810Y2745D01*
Y2740D01*
G01Y2880D02*
Y2950D01*
G01Y2810D02*
X1770D01*
G01X1870Y2670D02*
X1905D01*
G01X1945Y3020D02*
X1910D01*
G01X2080D02*
X2050D01*
G01X2726Y238D02*
X2720Y232D01*
Y170D01*
G01X2754Y238D02*
X2790Y202D01*
Y170D01*
G01Y110D02*
Y70D01*
G01X2720Y110D02*
Y70D01*
G01X2680Y3010D02*
Y2970D01*
G01X2790D02*
Y2990D01*
X2810Y3010D01*
G01X2740D02*
Y3122D01*
G01X3620Y2520D02*
X3646D01*
G01X3534Y2322D02*
X3552Y2340D01*
X3560D01*
G01X3750Y2520D02*
X3724D01*
G01X3620Y2340D02*
X3644D01*
X3645Y2341D01*
G01X3690Y2520D02*
X3666Y2544D01*
G01X4102Y3040D02*
Y3008D01*
X4170Y2940D01*
G01X4102Y3180D02*
X4124D01*
X4164Y3220D01*
X4170D01*
G01X4082Y3077D02*
X4019D01*
G01Y3143D02*
X4067D01*
G01X4080Y2972D02*
Y2986D01*
X4063Y3003D01*
X4019D01*
G01Y3217D02*
X4047D01*
X4075Y3245D01*
G01X4170Y3080D02*
X4140D01*
G01X4170Y3010D02*
X4140D01*
G01X4170Y3150D02*
X4140D01*
G01X4170Y3010D02*
Y3080D01*
G01Y3150D02*
Y3080D01*
G01X4675Y3145D02*
X4540Y3010D01*
X4230D01*
G01Y2940D02*
Y3010D01*
G01X4577Y3226D02*
X4501Y3150D01*
X4230D01*
G01D02*
Y3220D01*
G01Y3080D02*
X4260D01*
G54D35*
X3835Y3570D03*
G54D17*
X500Y1660D03*
X560D03*
X760Y2730D03*
Y2670D03*
X810Y3080D03*
Y3140D03*
X870Y1230D03*
X930D03*
X1080Y1660D03*
X1020D03*
X930Y2090D03*
X870D03*
X830Y2730D03*
Y2670D03*
X1200Y1710D03*
X1320Y1660D03*
X1260D03*
X1200Y1630D03*
Y1570D03*
Y1770D03*
X1480Y1230D03*
X1540D03*
X1620Y1375D03*
X1680D03*
X1620Y1310D03*
X1680D03*
Y2015D03*
X1620D03*
X1680Y1950D03*
X1620D03*
X1675Y2950D03*
X1810Y2880D03*
X1870D03*
X1810Y2810D03*
X1870D03*
X1810Y2740D03*
X1870D03*
Y2670D03*
X1810D03*
X1870Y3090D03*
X1810D03*
X1735Y2950D03*
X1870Y3160D03*
X1810D03*
X1870Y3020D03*
X1810D03*
X2005D03*
X1945D03*
X1870Y2950D03*
X1810D03*
X2140Y3020D03*
X2080D03*
X2720Y110D03*
Y170D03*
X2790Y110D03*
Y170D03*
X2870Y2760D03*
X2810D03*
X2680Y3010D03*
X2740D03*
X2810D03*
X2870D03*
X3140Y3260D03*
Y3320D03*
X3820Y2520D03*
Y2450D03*
X3560Y2340D03*
X3620D03*
X3560Y2520D03*
X3620D03*
X3750D03*
X3690D03*
X4040Y950D03*
X4100D03*
X4040Y2060D03*
X4100D03*
X3880Y2520D03*
Y2450D03*
X4170Y2870D03*
X4230D03*
X4170Y3010D03*
X4230D03*
X4170Y3150D03*
X4230D03*
X4170Y2940D03*
X4230D03*
X4170Y3220D03*
X4230D03*
X4170Y3080D03*
X4230D03*
X4340Y3260D03*
Y3320D03*
G54D26*
X1060Y2510D03*
G54D45*
G01X1981Y2955D02*
X1976Y2950D01*
X1950D01*
G54D18*
X470Y2281D03*
Y2300D03*
Y2320D03*
Y2340D03*
Y2360D03*
Y2379D03*
X530Y2300D03*
Y2281D03*
Y2379D03*
Y2360D03*
Y2340D03*
Y2320D03*
G54D27*
X1610Y3670D03*
X2060D03*
G54D36*
X4335Y2305D03*
Y2605D03*
Y2505D03*
Y2405D03*
X4435Y2555D03*
Y2455D03*
Y2355D03*
G54D46*
G01X720Y3197D02*
X777D01*
G01X1620Y1310D02*
Y1375D01*
G01X1680Y1310D02*
Y1225D01*
G01Y1375D02*
Y1310D01*
G01X1620Y1375D02*
X1591Y1404D01*
X1555D01*
G01X1725Y1995D02*
X1680D01*
G01D02*
Y1950D01*
G01X1555Y1995D02*
X1620D01*
G01D02*
Y2015D01*
G01Y1950D02*
Y1995D01*
G01X1680Y2015D02*
Y1995D01*
G01X1810Y3090D02*
X1735D01*
X1645Y3000D01*
G01X1675Y2950D02*
X1595D01*
G01X1810Y3160D02*
X1745D01*
X1595Y3010D01*
G01X1735Y2950D02*
Y2845D01*
G01X1950Y2950D02*
X1870D01*
G01Y3160D02*
Y3190D01*
G01Y3090D02*
Y3160D01*
G01Y3020D02*
Y3090D01*
G01Y3020D02*
Y2950D01*
G01X2140Y3020D02*
X2170D01*
G01X2810Y2760D02*
X2900Y2850D01*
Y3010D01*
G01X2870D02*
X2900D01*
G01X3140Y3360D02*
Y3320D01*
G01Y3220D02*
Y3260D01*
G01X3325Y825D02*
X3520D01*
X3535Y810D01*
G01X4100Y950D02*
X4135D01*
G01X4040Y900D02*
Y950D01*
G01X4100Y2060D02*
X4130D01*
G01X4040D02*
X3990D01*
G01X4230Y2870D02*
X4282D01*
X4302Y2850D01*
G01X4136Y2904D02*
X4170Y2870D01*
G01X4340Y3360D02*
Y3320D01*
G01X4380Y3260D02*
X4340D01*
G54D19*
X470Y2259D03*
Y2401D03*
X530Y2259D03*
Y2401D03*
G54D28*
X1835Y3670D03*
G54D37*
X4685Y2205D03*
Y2655D03*
G54D47*
G01X58Y2580D02*
Y2532D01*
X68Y2522D01*
X103D01*
G01X150Y2486D02*
X56D01*
X36Y2506D01*
Y2586D01*
X50Y2600D01*
X103D01*
G01X347Y967D02*
X452D01*
X765Y1279D01*
X976D01*
X1003Y1306D01*
G01X347Y1085D02*
X455D01*
X731Y1360D01*
X1028D01*
X1043Y1345D01*
G01X347Y1006D02*
X456D01*
X739Y1289D01*
X947D01*
X964Y1306D01*
G01X347Y1026D02*
X456D01*
X752Y1321D01*
X979D01*
X988Y1330D01*
X1003Y1345D01*
G01X347Y1065D02*
X456D01*
X720Y1329D01*
X948D01*
X964Y1345D01*
G01X347Y947D02*
X453D01*
X777Y1271D01*
X1008D01*
X1043Y1306D01*
G01X347Y1301D02*
X452D01*
X599Y1448D01*
X1027D01*
X1043Y1463D01*
G01X347Y1321D02*
X452D01*
X594Y1463D01*
X964D01*
G01X347Y1124D02*
X455D01*
X700Y1369D01*
X1027D01*
X1043Y1384D01*
G01X347Y1144D02*
X456D01*
X691Y1379D01*
X958D01*
X964Y1384D01*
G01X347Y1203D02*
X453D01*
X671Y1420D01*
X855D01*
X867Y1408D01*
X987D01*
X1003Y1424D01*
G01X347Y1183D02*
X454D01*
X659Y1388D01*
X855D01*
X867Y1400D01*
X988D01*
X1003Y1384D01*
G01X347Y1242D02*
X453D01*
X640Y1429D01*
X959D01*
X964Y1424D01*
G01X347Y1262D02*
X453D01*
X629Y1439D01*
X1028D01*
X1043Y1424D01*
G01X347Y1380D02*
X456D01*
X563Y1487D01*
X988D01*
X1003Y1503D01*
G01X347Y1360D02*
X456D01*
X575Y1479D01*
X987D01*
X1003Y1463D01*
G01X964Y1503D02*
X538D01*
X455Y1419D01*
X347D01*
G01Y1439D02*
X455D01*
X535Y1519D01*
X1026D01*
X1043Y1503D01*
G01X347Y1478D02*
X454D01*
X503Y1527D01*
X1067D01*
X1082Y1542D01*
G01X964D02*
X498D01*
X454Y1498D01*
X347D01*
G01Y1793D02*
X524D01*
X736Y1581D01*
X964D01*
G01X347Y1931D02*
X489D01*
X738Y1682D01*
X985D01*
X1002Y1699D01*
X1003D01*
G01X347Y1970D02*
X475D01*
X746Y1699D01*
X964D01*
G01X347Y1990D02*
X470D01*
X745Y1715D01*
X1019D01*
X1043Y1739D01*
G01X347Y2030D02*
X459D01*
X765Y1723D01*
X1014D01*
X1022Y1731D01*
Y1745D01*
X1035Y1758D01*
X1062D01*
X1082Y1778D01*
G01X347Y1734D02*
X544D01*
X722Y1557D01*
X988D01*
X1003Y1542D01*
G01X964Y1621D02*
X759D01*
X508Y1872D01*
X347D01*
G01Y1852D02*
X508D01*
X755Y1606D01*
X1018D01*
X1043Y1581D01*
G01X347Y1911D02*
X492D01*
X731Y1673D01*
X951D01*
X1003Y1621D01*
G01X347Y1813D02*
X522D01*
X739Y1596D01*
X1014D01*
X1023Y1587D01*
Y1561D01*
X1043Y1542D01*
G01X347Y1754D02*
X541D01*
X730Y1565D01*
X987D01*
X1003Y1581D01*
G01X300Y2154D02*
X286Y2168D01*
Y2262D01*
X309Y2285D01*
X347D01*
G01X408Y2266D02*
X443Y2300D01*
X470D01*
G01X347Y2266D02*
X408D01*
G01X470Y2281D02*
X453D01*
X408Y2236D01*
Y2234D01*
G01X347Y2226D02*
X400D01*
X408Y2234D01*
G01X347Y2167D02*
X437D01*
X810Y1794D01*
X1027D01*
X1043Y1778D01*
G01X410Y2194D02*
X398Y2207D01*
X347D01*
G01X410Y2194D02*
X428D01*
X470Y2236D01*
Y2259D01*
G01X964Y1739D02*
X766D01*
X456Y2049D01*
X347D01*
G01Y2089D02*
X448D01*
X782Y1754D01*
X988D01*
X1003Y1739D01*
G01X347Y2108D02*
X448D01*
X794Y1762D01*
X987D01*
X1003Y1778D01*
G01X964D02*
X807D01*
X437Y2148D01*
X347D01*
G01X366Y2448D02*
Y2386D01*
X392Y2360D01*
G01D02*
X406Y2346D01*
X430D01*
X444Y2360D01*
X470D01*
G01X426Y2328D02*
X438Y2340D01*
X470D01*
G01X386Y2466D02*
Y2404D01*
X404Y2386D01*
G01D02*
X434D01*
X441Y2379D01*
X470D01*
G01X402Y2310D02*
X436D01*
X446Y2320D01*
X470D01*
G01X347Y2522D02*
X506D01*
X694Y2334D01*
Y2038D01*
X836Y1896D01*
X964D01*
G01X347Y2600D02*
X312D01*
X292Y2580D01*
Y2526D01*
X312Y2506D01*
X502D01*
X680Y2328D01*
Y2034D01*
X857Y1857D01*
X964D01*
G01X404Y2486D02*
Y2414D01*
G01D02*
X417Y2401D01*
X470D01*
G01X530Y2300D02*
X592D01*
X652Y2240D01*
Y2024D01*
X843Y1833D01*
X988D01*
X1003Y1817D01*
G01X530Y2259D02*
X595D01*
X626Y2228D01*
Y2010D01*
X834Y1802D01*
X1027D01*
X1043Y1817D01*
G01X530Y2320D02*
X594D01*
X666Y2248D01*
Y2028D01*
X853Y1841D01*
X987D01*
X1003Y1857D01*
G01X530Y2281D02*
X591D01*
X639Y2233D01*
Y2015D01*
X837Y1817D01*
X964D01*
G01X1397Y1857D02*
X1382Y1842D01*
X1115D01*
X1106Y1851D01*
Y1917D01*
X1088Y1935D01*
Y2095D01*
G01X1436Y1896D02*
Y1856D01*
X1416Y1836D01*
X1390D01*
X1378Y1824D01*
Y1812D01*
X1368Y1802D01*
X1075D01*
X1066Y1811D01*
Y2095D01*
G01X1318Y1778D02*
X1302Y1794D01*
X1072D01*
X1058Y1808D01*
Y1913D01*
X1055Y1916D01*
Y2095D01*
G01X1077D02*
Y1932D01*
X1097Y1912D01*
Y1902D01*
X1097Y1890D01*
X1097Y1863D01*
X1097Y1845D01*
X1109Y1833D01*
X1342D01*
X1357Y1817D01*
G01X1625Y1714D02*
X1528D01*
X1412Y1714D01*
X1397Y1699D01*
G01X1625Y1514D02*
X1600D01*
X1596Y1518D01*
X1342D01*
X1318Y1542D01*
G01X1625Y1528D02*
X1596D01*
X1595Y1527D01*
X1412D01*
X1397Y1542D01*
G01X1625Y1598D02*
X1597D01*
X1596Y1596D01*
X1412D01*
X1397Y1581D01*
G01X1625Y1570D02*
X1600D01*
X1596Y1566D01*
X1373D01*
X1357Y1581D01*
G01X1625Y1612D02*
X1600D01*
X1592Y1604D01*
X1413D01*
X1397Y1621D01*
G01X1625Y1556D02*
X1600D01*
X1599Y1557D01*
X1372D01*
X1357Y1542D01*
G01X1310Y2048D02*
X1176Y1915D01*
X1153D01*
X1140Y1902D01*
Y1876D01*
X1121Y1857D01*
G01X1328Y2047D02*
X1177Y1896D01*
X1161D01*
G01X1345Y2044D02*
X1161Y1860D01*
Y1857D01*
G01X1365Y2045D02*
X1220Y1900D01*
Y1876D01*
X1239Y1857D01*
G01X1382Y2042D02*
X1239Y1900D01*
Y1896D01*
G01X1402Y2043D02*
X1260Y1902D01*
Y1876D01*
X1279Y1857D01*
G01X1625Y1756D02*
X1532D01*
X1530Y1754D01*
X1373D01*
X1357Y1739D01*
G01X1625Y1770D02*
X1528D01*
X1520Y1762D01*
X1374D01*
X1357Y1778D01*
G01X1625Y1798D02*
X1524D01*
X1519Y1793D01*
X1412D01*
X1397Y1778D01*
G01X1625Y1812D02*
X1524D01*
X1514Y1802D01*
X1412D01*
X1397Y1817D01*
G01X1625Y1840D02*
X1525D01*
X1450Y1915D01*
X1416D01*
X1397Y1896D01*
G01X1625Y1854D02*
X1526D01*
X1455Y1925D01*
X1386D01*
X1357Y1896D01*
G01X1625Y1868D02*
X1527D01*
X1460Y1935D01*
X1367D01*
X1338Y1906D01*
Y1876D01*
X1357Y1857D01*
G01X1625Y1882D02*
X1528D01*
X1465Y1945D01*
X1360D01*
X1318Y1903D01*
Y1896D01*
G01X1625Y1910D02*
X1590D01*
X1535Y1965D01*
X1342D01*
X1279Y1901D01*
Y1896D01*
G01X1625Y1896D02*
X1529D01*
X1470Y1955D01*
X1352D01*
X1300Y1903D01*
Y1875D01*
X1318Y1857D01*
G01X1625Y1728D02*
X1536D01*
X1530Y1722D01*
X1413D01*
X1397Y1739D01*
G01X1625Y1700D02*
X1544D01*
X1543Y1699D01*
X1436D01*
G01X1625Y1626D02*
X1598D01*
X1593Y1621D01*
X1436D01*
G01X1625Y1500D02*
X1439D01*
X1436Y1503D01*
G01X1625Y1542D02*
X1436D01*
G01X1625Y1584D02*
X1598D01*
X1595Y1581D01*
X1436D01*
G01X1625Y1784D02*
X1526D01*
X1520Y1778D01*
X1436D01*
G01X1625Y1826D02*
X1520D01*
X1511Y1817D01*
X1436D01*
G01X1625Y1742D02*
X1532D01*
X1529Y1739D01*
X1436D01*
G54D38*
X4565Y2120D03*
Y2740D03*
G54D29*
X1835Y3890D03*
G54D48*
G01X59Y1003D02*
X61Y1006D01*
X103D01*
G01X59Y1028D02*
X61Y1026D01*
X103D01*
G01X148Y1062D02*
X145Y1065D01*
X103D01*
G01X148Y1087D02*
X145Y1085D01*
X103D01*
G01X148Y969D02*
X145Y967D01*
X103D01*
G01X148Y944D02*
X145Y947D01*
X103D01*
G01Y1321D02*
X114D01*
X145Y1321D01*
X148Y1324D01*
G01X59Y1358D02*
X61Y1360D01*
X103D01*
G01X59Y1264D02*
X61Y1262D01*
X103D01*
G01X59Y1146D02*
X61Y1144D01*
X103D01*
G01X148Y1180D02*
X145Y1183D01*
X103D01*
G01X148Y1205D02*
X145Y1203D01*
X120D01*
X103Y1203D01*
G01X59Y1239D02*
X61Y1242D01*
X103D01*
G01X59Y1121D02*
X61Y1124D01*
X103D01*
G01X148Y1298D02*
X145Y1301D01*
X103D01*
G01X59Y1383D02*
X61Y1380D01*
X103D01*
G01X59Y1501D02*
X61Y1498D01*
X103D01*
G01X59Y1476D02*
X61Y1478D01*
X103D01*
G01X148Y1442D02*
X145Y1439D01*
X110D01*
X103Y1439D01*
G01X148Y1417D02*
X145Y1419D01*
X103D01*
G01X59Y1791D02*
X61Y1793D01*
X103D01*
G01X59Y1816D02*
X61Y1813D01*
X103D01*
G01X148Y1850D02*
X145Y1852D01*
X103D01*
G01X148Y1875D02*
X145Y1872D01*
X103D01*
G01X59Y1909D02*
X61Y1911D01*
X103D01*
G01X59Y1934D02*
X61Y1931D01*
X103D01*
G01X148Y1968D02*
X145Y1970D01*
X103D01*
G01X148Y1993D02*
X145Y1990D01*
X110D01*
X103Y1990D01*
G01X148Y1732D02*
X145Y1734D01*
X103D01*
G01X148Y1757D02*
X145Y1754D01*
X111D01*
X103Y1754D01*
G01X148Y2229D02*
X145Y2226D01*
X103D01*
G01Y2207D02*
X145D01*
X148Y2204D01*
G01X103Y2266D02*
X61D01*
X59Y2263D01*
G01Y2288D02*
X61Y2285D01*
X103D01*
G01Y2167D02*
X61D01*
X59Y2170D01*
G01Y2027D02*
X61Y2030D01*
X103D01*
G01X59Y2052D02*
X61Y2049D01*
X103D01*
G01X59Y2145D02*
X61Y2148D01*
X103D01*
G01X148Y2086D02*
X145Y2089D01*
X103D01*
G01X148Y2111D02*
X145Y2108D01*
X116D01*
X103Y2108D01*
G01Y2581D02*
X149D01*
G01X103Y2541D02*
X149D01*
G01X390Y2624D02*
Y2590D01*
X381Y2581D01*
X347D01*
G01X410Y2604D02*
Y2565D01*
X386Y2541D01*
X347D01*
G01X570Y610D02*
X608D01*
G01X532D02*
X570D01*
G01Y572D02*
Y610D01*
G01X736Y2246D02*
X794Y2304D01*
Y2438D01*
X1034Y2678D01*
X1617D01*
X2254Y2041D01*
X2964D01*
X3295Y1710D01*
X3827D01*
X3870Y1667D01*
G01X736Y2271D02*
X782Y2317D01*
Y2445D01*
X1029Y2692D01*
X1622D01*
X2260Y2054D01*
X2970D01*
X3299Y1725D01*
X3830D01*
X3870Y1765D01*
G01X736Y2220D02*
X806Y2290D01*
Y2430D01*
X1040Y2664D01*
X1611D01*
X2248Y2026D01*
X2958D01*
X3290Y1695D01*
X3350D01*
X3357Y1688D01*
X3368Y1677D01*
X3870Y1175D01*
G01X736Y2194D02*
X818Y2276D01*
Y2422D01*
X1046Y2650D01*
X1605D01*
X2242Y2013D01*
X2952D01*
X3280Y1685D01*
Y908D01*
X2766Y394D01*
G01X530Y2379D02*
X590D01*
G01X530Y2401D02*
X565D01*
G01X530Y2360D02*
X565D01*
G01X530Y2340D02*
X590D01*
G01X4102Y3040D02*
X3925D01*
X2968Y2082D01*
X2272D01*
X1634Y2720D01*
X1017D01*
X737Y2440D01*
X736D01*
G01Y2466D02*
X742D01*
X1010Y2734D01*
X1640D01*
X2277Y2097D01*
X2962D01*
X3975Y3110D01*
X4081D01*
X4102Y3130D01*
Y3180D01*
G01X736Y2491D02*
X747D01*
X1004Y2748D01*
X1647D01*
X1820Y2575D01*
X1934D01*
X2004Y2645D01*
G01X736Y2491D02*
X680Y2547D01*
Y2644D01*
G01X2040Y2666D02*
X1996D01*
X1920Y2590D01*
X1825D01*
X1653Y2762D01*
X998D01*
X776Y2540D01*
X718D01*
X700Y2558D01*
Y2696D01*
X682Y2714D01*
G01X736Y2414D02*
X770Y2448D01*
Y2453D01*
X1023Y2706D01*
X1628D01*
X2266Y2068D01*
X2974D01*
X3525Y2620D01*
X3710D01*
X3750Y2660D01*
G01X1088Y2095D02*
Y2381D01*
X1217Y2510D01*
G01X1066Y2095D02*
Y2504D01*
X1060Y2510D01*
G01X1055Y2095D02*
Y2430D01*
X1014Y2471D01*
Y2532D01*
X1032Y2550D01*
X1335D01*
X1375Y2510D01*
G01X1139D02*
X1077Y2448D01*
Y2095D01*
G01X845Y1916D02*
X900Y1971D01*
Y2145D01*
X890Y2155D01*
G01X2649Y1986D02*
X2377Y1714D01*
X1625D01*
G01X2919Y1986D02*
X2447Y1514D01*
X1625D01*
G01X2892Y1986D02*
X2434Y1528D01*
X1625D01*
G01X2757Y1986D02*
X2369Y1598D01*
X1625D01*
G01X2811Y1986D02*
X2395Y1570D01*
X1625D01*
G01X2730Y1986D02*
X2356Y1612D01*
X1625D01*
G01X2838Y1986D02*
X2408Y1556D01*
X1625D01*
G01X2244Y1986D02*
X2110Y2120D01*
X1382D01*
X1310Y2048D01*
G01X2217Y1986D02*
X2097Y2106D01*
X1388D01*
X1328Y2047D01*
G01X2190Y1986D02*
X2084Y2093D01*
X1394D01*
X1345Y2044D01*
G01X2163Y1986D02*
X2070Y2078D01*
X1398D01*
X1365Y2045D01*
G01X2136Y1986D02*
X2058Y2064D01*
X1404D01*
X1382Y2042D01*
G01X2109Y1986D02*
X2045Y2050D01*
X1408D01*
X1402Y2043D01*
G01X2568Y1986D02*
X2338Y1756D01*
X1625D01*
G01X2541Y1986D02*
X2325Y1770D01*
X1625D01*
G01X2487Y1986D02*
X2299Y1798D01*
X1625D01*
G01X2460Y1986D02*
X2286Y1812D01*
X1625D01*
G01X2406Y1986D02*
X2260Y1840D01*
X1625D01*
G01X2379Y1986D02*
X2247Y1854D01*
X1625D01*
G01X2352Y1986D02*
X2234Y1868D01*
X1625D01*
G01X2325Y1986D02*
X2221Y1882D01*
X1625D01*
G01X2271Y1986D02*
X2195Y1910D01*
X1625D01*
G01X2298Y1986D02*
X2208Y1896D01*
X1625D01*
G01X2622Y1986D02*
X2364Y1728D01*
X1625D01*
G01X2676Y1986D02*
X2390Y1700D01*
X1625D01*
G01X2703Y1986D02*
X2343Y1626D01*
X1625D01*
G01X2946Y1986D02*
X2460Y1500D01*
X1625D01*
G01X2865Y1986D02*
X2421Y1542D01*
X1625D01*
G01X2784Y1986D02*
X2382Y1584D01*
X1625D01*
G01X2514Y1986D02*
X2312Y1784D01*
X1625D01*
G01X2433Y1986D02*
X2273Y1826D01*
X1625D01*
G01X2595Y1986D02*
X2351Y1742D01*
X1625D01*
G01X2021Y2955D02*
Y2889D01*
X2070Y2840D01*
X2158D01*
X2218Y2780D01*
G01X2205Y2945D02*
X2071D01*
X2060Y2956D01*
G01X2255Y2925D02*
X2061D01*
X2040Y2946D01*
Y2975D01*
G01X3293Y537D02*
X3111Y355D01*
X2746D01*
G01X4006Y2444D02*
X4024Y2462D01*
Y2566D01*
X4010Y2580D01*
G01X4878D02*
X4704Y2406D01*
X4406D01*
X4370Y2370D01*
X3960D01*
X3880Y2450D01*
G01X4000Y2470D02*
X3984Y2486D01*
Y2674D01*
X4010Y2700D01*
G01X4818Y2280D02*
X4788Y2310D01*
X4418D01*
X4370Y2358D01*
X3889D01*
X3840Y2407D01*
Y2422D01*
X3850Y2432D01*
Y2490D01*
X3880Y2520D01*
G54D39*
X4435Y2255D03*
G54D49*
G01X20Y-425D02*
Y-525D01*
G01X5Y-425D02*
X35D01*
G01X55Y-480D02*
X76D01*
X74Y-468D01*
X71Y-462D01*
X66Y-458D01*
X62Y-460D01*
X58Y-465D01*
X55Y-477D01*
X54Y-487D01*
Y-497D01*
X55Y-507D01*
X58Y-517D01*
X62Y-523D01*
X67Y-525D01*
X72Y-522D01*
X76Y-512D01*
G01X101Y-525D02*
Y-458D01*
G01Y-472D02*
X104Y-465D01*
X107Y-460D01*
X112Y-458D01*
X115Y-460D01*
X119Y-465D01*
G01X167Y-525D02*
Y-458D01*
G01Y-470D02*
X164Y-463D01*
X160Y-460D01*
X156Y-458D01*
X151Y-462D01*
X147Y-468D01*
X144Y-478D01*
X143Y-492D01*
X144Y-505D01*
X147Y-515D01*
X151Y-522D01*
X156Y-525D01*
X160Y-523D01*
X164Y-518D01*
X167Y-512D01*
G01X190Y-513D02*
X193Y-520D01*
X198Y-525D01*
X202D01*
X206Y-522D01*
X209Y-517D01*
X210Y-510D01*
X209Y-500D01*
X207Y-495D01*
X195Y-485D01*
X192Y-473D01*
X193Y-465D01*
X196Y-460D01*
X200Y-458D01*
X204Y-460D01*
X208Y-465D01*
G01X245Y-458D02*
Y-525D01*
G01Y-432D02*
X244Y-430D01*
Y-427D01*
X245Y-425D01*
X246Y-427D01*
Y-430D01*
X245Y-432D01*
G01X301Y-467D02*
X296Y-460D01*
X292Y-458D01*
X287Y-462D01*
X283Y-468D01*
X280Y-480D01*
X279Y-492D01*
X280Y-503D01*
X283Y-513D01*
X287Y-522D01*
X292Y-525D01*
X297Y-522D01*
X301Y-515D01*
G01X391Y-467D02*
X386Y-460D01*
X382Y-458D01*
X377Y-462D01*
X373Y-468D01*
X370Y-480D01*
X369Y-492D01*
X370Y-503D01*
X373Y-513D01*
X377Y-522D01*
X382Y-525D01*
X387Y-522D01*
X391Y-515D01*
G01X437Y-525D02*
Y-458D01*
G01Y-470D02*
X434Y-463D01*
X430Y-460D01*
X426Y-458D01*
X421Y-462D01*
X417Y-468D01*
X414Y-478D01*
X413Y-492D01*
X414Y-505D01*
X417Y-515D01*
X421Y-522D01*
X426Y-525D01*
X430Y-523D01*
X434Y-518D01*
X437Y-512D01*
G01X459Y-525D02*
Y-458D01*
G01Y-475D02*
X461Y-467D01*
X465Y-460D01*
X471Y-458D01*
X475Y-460D01*
X479Y-467D01*
X481Y-478D01*
Y-525D01*
G01X504D02*
Y-458D01*
G01Y-475D02*
X506Y-467D01*
X510Y-460D01*
X516Y-458D01*
X520Y-460D01*
X524Y-467D01*
X526Y-478D01*
Y-525D01*
G01X560D02*
X556Y-523D01*
X552Y-517D01*
X549Y-505D01*
X548Y-492D01*
X549Y-478D01*
X552Y-467D01*
X556Y-460D01*
X560Y-458D01*
X564Y-460D01*
X568Y-467D01*
X571Y-478D01*
X571Y-492D01*
X571Y-505D01*
X568Y-517D01*
X564Y-523D01*
X560Y-525D01*
G01X605Y-425D02*
Y-525D01*
G01X596Y-458D02*
X614D01*
G01X707Y-525D02*
Y-458D01*
G01Y-470D02*
X704Y-463D01*
X700Y-460D01*
X696Y-458D01*
X691Y-462D01*
X687Y-468D01*
X684Y-478D01*
X683Y-492D01*
X684Y-505D01*
X687Y-515D01*
X691Y-522D01*
X696Y-525D01*
X700Y-523D01*
X704Y-518D01*
X707Y-512D01*
G01X729Y-525D02*
Y-458D01*
G01Y-475D02*
X731Y-467D01*
X735Y-460D01*
X741Y-458D01*
X745Y-460D01*
X749Y-467D01*
X751Y-478D01*
Y-525D01*
G01X797Y-425D02*
Y-525D01*
G01Y-510D02*
X794Y-518D01*
X790Y-523D01*
X786Y-525D01*
X780Y-522D01*
X776Y-513D01*
X774Y-503D01*
X773Y-492D01*
X774Y-480D01*
X776Y-470D01*
X780Y-462D01*
X786Y-458D01*
X790Y-460D01*
X794Y-463D01*
X797Y-470D01*
G01X858Y-458D02*
X866Y-525D01*
X875Y-458D01*
X884Y-525D01*
X892Y-458D01*
G01X920D02*
Y-525D01*
G01Y-432D02*
X919Y-430D01*
Y-427D01*
X920Y-425D01*
X921Y-427D01*
Y-430D01*
X920Y-432D01*
G01X965Y-525D02*
Y-425D01*
G01X1010Y-525D02*
Y-425D01*
G01X1089Y-525D02*
Y-458D01*
G01Y-475D02*
X1091Y-467D01*
X1095Y-460D01*
X1101Y-458D01*
X1105Y-460D01*
X1109Y-467D01*
X1111Y-478D01*
Y-525D01*
G01X1145D02*
X1141Y-523D01*
X1137Y-517D01*
X1134Y-505D01*
X1133Y-492D01*
X1134Y-478D01*
X1137Y-467D01*
X1141Y-460D01*
X1145Y-458D01*
X1149Y-460D01*
X1153Y-467D01*
X1156Y-478D01*
X1156Y-492D01*
X1156Y-505D01*
X1153Y-517D01*
X1149Y-523D01*
X1145Y-525D01*
G01X1190Y-425D02*
Y-525D01*
G01X1181Y-458D02*
X1199D01*
G01X1268Y-525D02*
Y-425D01*
G01Y-475D02*
X1271Y-465D01*
X1275Y-460D01*
X1279Y-458D01*
X1285Y-462D01*
X1289Y-468D01*
X1292Y-480D01*
Y-493D01*
X1291Y-507D01*
X1288Y-517D01*
X1283Y-523D01*
X1279Y-525D01*
X1275Y-523D01*
X1271Y-518D01*
X1268Y-510D01*
G01X1315Y-480D02*
X1336D01*
X1334Y-468D01*
X1331Y-462D01*
X1326Y-458D01*
X1322Y-460D01*
X1318Y-465D01*
X1315Y-477D01*
X1314Y-487D01*
Y-497D01*
X1315Y-507D01*
X1318Y-517D01*
X1322Y-523D01*
X1327Y-525D01*
X1332Y-522D01*
X1336Y-512D01*
G01X1404Y-525D02*
Y-425D01*
G01Y-473D02*
X1407Y-465D01*
X1410Y-460D01*
X1416Y-458D01*
X1420Y-460D01*
X1424Y-467D01*
X1426Y-477D01*
Y-525D01*
G01X1450Y-480D02*
X1471D01*
X1469Y-468D01*
X1466Y-462D01*
X1461Y-458D01*
X1457Y-460D01*
X1453Y-465D01*
X1450Y-477D01*
X1449Y-487D01*
Y-497D01*
X1450Y-507D01*
X1453Y-517D01*
X1457Y-523D01*
X1462Y-525D01*
X1467Y-522D01*
X1471Y-512D01*
G01X1505Y-525D02*
Y-425D01*
G01X1562D02*
Y-525D01*
G01Y-510D02*
X1559Y-518D01*
X1555Y-523D01*
X1551Y-525D01*
X1545Y-522D01*
X1541Y-513D01*
X1539Y-503D01*
X1538Y-492D01*
X1539Y-480D01*
X1541Y-470D01*
X1545Y-462D01*
X1551Y-458D01*
X1555Y-460D01*
X1559Y-463D01*
X1562Y-470D01*
G01X1631Y-525D02*
Y-458D01*
G01Y-472D02*
X1634Y-465D01*
X1637Y-460D01*
X1642Y-458D01*
X1645Y-460D01*
X1649Y-465D01*
G01X1675Y-480D02*
X1696D01*
X1694Y-468D01*
X1691Y-462D01*
X1686Y-458D01*
X1682Y-460D01*
X1678Y-465D01*
X1675Y-477D01*
X1674Y-487D01*
Y-497D01*
X1675Y-507D01*
X1678Y-517D01*
X1682Y-523D01*
X1687Y-525D01*
X1692Y-522D01*
X1696Y-512D01*
G01X1720Y-513D02*
X1723Y-520D01*
X1728Y-525D01*
X1732D01*
X1736Y-522D01*
X1739Y-517D01*
X1740Y-510D01*
X1739Y-500D01*
X1737Y-495D01*
X1725Y-485D01*
X1722Y-473D01*
X1723Y-465D01*
X1726Y-460D01*
X1730Y-458D01*
X1734Y-460D01*
X1738Y-465D01*
G01X1763Y-558D02*
Y-458D01*
G01Y-473D02*
X1766Y-465D01*
X1770Y-460D01*
X1775Y-458D01*
X1780Y-460D01*
X1784Y-468D01*
X1786Y-480D01*
X1787Y-492D01*
X1786Y-503D01*
X1784Y-515D01*
X1780Y-522D01*
X1775Y-525D01*
X1770Y-523D01*
X1766Y-518D01*
X1763Y-512D01*
G01X1820Y-525D02*
X1816Y-523D01*
X1812Y-517D01*
X1809Y-505D01*
X1808Y-492D01*
X1809Y-478D01*
X1812Y-467D01*
X1816Y-460D01*
X1820Y-458D01*
X1824Y-460D01*
X1828Y-467D01*
X1831Y-478D01*
X1831Y-492D01*
X1831Y-505D01*
X1828Y-517D01*
X1824Y-523D01*
X1820Y-525D01*
G01X1854D02*
Y-458D01*
G01Y-475D02*
X1856Y-467D01*
X1860Y-460D01*
X1866Y-458D01*
X1870Y-460D01*
X1874Y-467D01*
X1876Y-478D01*
Y-525D01*
G01X1900Y-513D02*
X1903Y-520D01*
X1908Y-525D01*
X1912D01*
X1916Y-522D01*
X1919Y-517D01*
X1920Y-510D01*
X1919Y-500D01*
X1917Y-495D01*
X1905Y-485D01*
X1902Y-473D01*
X1903Y-465D01*
X1906Y-460D01*
X1910Y-458D01*
X1914Y-460D01*
X1918Y-465D01*
G01X1955Y-458D02*
Y-525D01*
G01Y-432D02*
X1954Y-430D01*
Y-427D01*
X1955Y-425D01*
X1956Y-427D01*
Y-430D01*
X1955Y-432D01*
G01X1988Y-525D02*
Y-425D01*
G01Y-475D02*
X1991Y-465D01*
X1995Y-460D01*
X1999Y-458D01*
X2005Y-462D01*
X2009Y-468D01*
X2012Y-480D01*
Y-493D01*
X2011Y-507D01*
X2008Y-517D01*
X2003Y-523D01*
X1999Y-525D01*
X1995Y-523D01*
X1991Y-518D01*
X1988Y-510D01*
G01X2045Y-525D02*
Y-425D01*
G01X2080Y-480D02*
X2101D01*
X2099Y-468D01*
X2096Y-462D01*
X2091Y-458D01*
X2087Y-460D01*
X2083Y-465D01*
X2080Y-477D01*
X2079Y-487D01*
Y-497D01*
X2080Y-507D01*
X2083Y-517D01*
X2087Y-523D01*
X2092Y-525D01*
X2097Y-522D01*
X2101Y-512D01*
G01X2176Y-525D02*
Y-440D01*
X2177Y-432D01*
X2180Y-427D01*
X2184Y-425D01*
X2188Y-428D01*
X2190Y-437D01*
G01X2182Y-465D02*
X2169D01*
G01X2225Y-525D02*
X2221Y-523D01*
X2217Y-517D01*
X2214Y-505D01*
X2213Y-492D01*
X2214Y-478D01*
X2217Y-467D01*
X2221Y-460D01*
X2225Y-458D01*
X2229Y-460D01*
X2233Y-467D01*
X2236Y-478D01*
X2236Y-492D01*
X2236Y-505D01*
X2233Y-517D01*
X2229Y-523D01*
X2225Y-525D01*
G01X2261D02*
Y-458D01*
G01Y-472D02*
X2264Y-465D01*
X2267Y-460D01*
X2272Y-458D01*
X2275Y-460D01*
X2279Y-465D01*
G01X2372Y-525D02*
Y-458D01*
G01Y-470D02*
X2369Y-463D01*
X2365Y-460D01*
X2361Y-458D01*
X2356Y-462D01*
X2352Y-468D01*
X2349Y-478D01*
X2348Y-492D01*
X2349Y-505D01*
X2352Y-515D01*
X2356Y-522D01*
X2361Y-525D01*
X2365Y-523D01*
X2369Y-518D01*
X2372Y-512D01*
G01X2394Y-525D02*
Y-458D01*
G01Y-475D02*
X2396Y-467D01*
X2400Y-460D01*
X2406Y-458D01*
X2410Y-460D01*
X2414Y-467D01*
X2416Y-478D01*
Y-525D01*
G01X2436Y-555D02*
X2440Y-558D01*
X2445Y-555D01*
X2449Y-548D01*
X2451Y-540D01*
X2455Y-513D01*
X2464Y-458D01*
G01X2443D02*
X2455Y-513D01*
G01X2540Y-525D02*
Y-425D01*
G01X2575Y-480D02*
X2596D01*
X2594Y-468D01*
X2591Y-462D01*
X2586Y-458D01*
X2582Y-460D01*
X2578Y-465D01*
X2575Y-477D01*
X2574Y-487D01*
Y-497D01*
X2575Y-507D01*
X2578Y-517D01*
X2582Y-523D01*
X2587Y-525D01*
X2592Y-522D01*
X2596Y-512D01*
G01X2621Y-550D02*
X2625Y-557D01*
X2631Y-558D01*
X2635Y-557D01*
X2639Y-548D01*
X2642Y-537D01*
Y-458D01*
G01Y-472D02*
X2639Y-465D01*
X2635Y-460D01*
X2631Y-458D01*
X2625Y-462D01*
X2622Y-468D01*
X2619Y-480D01*
X2618Y-492D01*
X2619Y-502D01*
X2621Y-513D01*
X2625Y-522D01*
X2631Y-525D01*
X2635Y-523D01*
X2639Y-517D01*
X2642Y-510D01*
G01X2687Y-525D02*
Y-458D01*
G01Y-470D02*
X2684Y-463D01*
X2680Y-460D01*
X2676Y-458D01*
X2671Y-462D01*
X2667Y-468D01*
X2664Y-478D01*
X2663Y-492D01*
X2664Y-505D01*
X2667Y-515D01*
X2671Y-522D01*
X2676Y-525D01*
X2680Y-523D01*
X2684Y-518D01*
X2687Y-512D01*
G01X2720Y-525D02*
Y-425D01*
G01X2821Y-467D02*
X2816Y-460D01*
X2812Y-458D01*
X2807Y-462D01*
X2803Y-468D01*
X2800Y-480D01*
X2799Y-492D01*
X2800Y-503D01*
X2803Y-513D01*
X2807Y-522D01*
X2812Y-525D01*
X2817Y-522D01*
X2821Y-515D01*
G01X2855Y-525D02*
X2851Y-523D01*
X2847Y-517D01*
X2844Y-505D01*
X2843Y-492D01*
X2844Y-478D01*
X2847Y-467D01*
X2851Y-460D01*
X2855Y-458D01*
X2859Y-460D01*
X2863Y-467D01*
X2866Y-478D01*
X2866Y-492D01*
X2866Y-505D01*
X2863Y-517D01*
X2859Y-523D01*
X2855Y-525D01*
G01X2889D02*
Y-458D01*
G01Y-475D02*
X2891Y-467D01*
X2895Y-460D01*
X2901Y-458D01*
X2905Y-460D01*
X2909Y-467D01*
X2911Y-478D01*
Y-525D01*
G01X2935Y-513D02*
X2938Y-520D01*
X2943Y-525D01*
X2947D01*
X2951Y-522D01*
X2954Y-517D01*
X2955Y-510D01*
X2954Y-500D01*
X2952Y-495D01*
X2940Y-485D01*
X2937Y-473D01*
X2938Y-465D01*
X2941Y-460D01*
X2945Y-458D01*
X2949Y-460D01*
X2953Y-465D01*
G01X2980Y-480D02*
X3001D01*
X2999Y-468D01*
X2996Y-462D01*
X2991Y-458D01*
X2987Y-460D01*
X2983Y-465D01*
X2980Y-477D01*
X2979Y-487D01*
Y-497D01*
X2980Y-507D01*
X2983Y-517D01*
X2987Y-523D01*
X2992Y-525D01*
X2997Y-522D01*
X3001Y-512D01*
G01X3047Y-558D02*
Y-458D01*
G01Y-473D02*
X3044Y-465D01*
X3040Y-460D01*
X3035Y-458D01*
X3031Y-460D01*
X3026Y-468D01*
X3024Y-480D01*
X3023Y-492D01*
X3024Y-503D01*
X3026Y-515D01*
X3031Y-523D01*
X3035Y-525D01*
X3040Y-523D01*
X3044Y-518D01*
X3047Y-510D01*
G01X3069Y-458D02*
Y-505D01*
X3071Y-517D01*
X3075Y-523D01*
X3080Y-525D01*
X3085Y-523D01*
X3089Y-517D01*
X3091Y-505D01*
G01Y-525D02*
Y-458D01*
G01X3115Y-480D02*
X3136D01*
X3134Y-468D01*
X3131Y-462D01*
X3126Y-458D01*
X3122Y-460D01*
X3118Y-465D01*
X3115Y-477D01*
X3114Y-487D01*
Y-497D01*
X3115Y-507D01*
X3118Y-517D01*
X3122Y-523D01*
X3127Y-525D01*
X3132Y-522D01*
X3136Y-512D01*
G01X3159Y-525D02*
Y-458D01*
G01Y-475D02*
X3161Y-467D01*
X3165Y-460D01*
X3171Y-458D01*
X3175Y-460D01*
X3179Y-467D01*
X3181Y-478D01*
Y-525D01*
G01X3226Y-467D02*
X3221Y-460D01*
X3217Y-458D01*
X3212Y-462D01*
X3208Y-468D01*
X3205Y-480D01*
X3204Y-492D01*
X3205Y-503D01*
X3208Y-513D01*
X3212Y-522D01*
X3217Y-525D01*
X3222Y-522D01*
X3226Y-515D01*
G01X3250Y-480D02*
X3271D01*
X3269Y-468D01*
X3266Y-462D01*
X3261Y-458D01*
X3257Y-460D01*
X3253Y-465D01*
X3250Y-477D01*
X3249Y-487D01*
Y-497D01*
X3250Y-507D01*
X3253Y-517D01*
X3257Y-523D01*
X3262Y-525D01*
X3267Y-522D01*
X3271Y-512D01*
G01X3295Y-513D02*
X3298Y-520D01*
X3303Y-525D01*
X3307D01*
X3311Y-522D01*
X3314Y-517D01*
X3315Y-510D01*
X3314Y-500D01*
X3312Y-495D01*
X3300Y-485D01*
X3297Y-473D01*
X3298Y-465D01*
X3301Y-460D01*
X3305Y-458D01*
X3309Y-460D01*
X3313Y-465D01*
G01X3395Y-525D02*
X3391Y-523D01*
X3387Y-517D01*
X3384Y-505D01*
X3383Y-492D01*
X3384Y-478D01*
X3387Y-467D01*
X3391Y-460D01*
X3395Y-458D01*
X3399Y-460D01*
X3403Y-467D01*
X3406Y-478D01*
X3406Y-492D01*
X3406Y-505D01*
X3403Y-517D01*
X3399Y-523D01*
X3395Y-525D01*
G01X3436D02*
Y-440D01*
X3437Y-432D01*
X3440Y-427D01*
X3444Y-425D01*
X3448Y-428D01*
X3450Y-437D01*
G01X3442Y-465D02*
X3429D01*
G01X3519Y-458D02*
Y-505D01*
X3521Y-517D01*
X3525Y-523D01*
X3530Y-525D01*
X3535Y-523D01*
X3539Y-517D01*
X3541Y-505D01*
G01Y-525D02*
Y-458D01*
G01X3565Y-513D02*
X3568Y-520D01*
X3573Y-525D01*
X3577D01*
X3581Y-522D01*
X3584Y-517D01*
X3585Y-510D01*
X3584Y-500D01*
X3582Y-495D01*
X3570Y-485D01*
X3567Y-473D01*
X3568Y-465D01*
X3571Y-460D01*
X3575Y-458D01*
X3579Y-460D01*
X3583Y-465D01*
G01X3620Y-458D02*
Y-525D01*
G01Y-432D02*
X3619Y-430D01*
Y-427D01*
X3620Y-425D01*
X3621Y-427D01*
Y-430D01*
X3620Y-432D01*
G01X3654Y-525D02*
Y-458D01*
G01Y-475D02*
X3656Y-467D01*
X3660Y-460D01*
X3666Y-458D01*
X3670Y-460D01*
X3674Y-467D01*
X3676Y-478D01*
Y-525D01*
G01X3701Y-550D02*
X3705Y-557D01*
X3711Y-558D01*
X3715Y-557D01*
X3719Y-548D01*
X3722Y-537D01*
Y-458D01*
G01Y-472D02*
X3719Y-465D01*
X3715Y-460D01*
X3711Y-458D01*
X3705Y-462D01*
X3702Y-468D01*
X3699Y-480D01*
X3698Y-492D01*
X3699Y-502D01*
X3701Y-513D01*
X3705Y-522D01*
X3711Y-525D01*
X3715Y-523D01*
X3719Y-517D01*
X3722Y-510D01*
G01X3800Y-425D02*
Y-525D01*
G01X3791Y-458D02*
X3809D01*
G01X3834Y-525D02*
Y-425D01*
G01Y-473D02*
X3837Y-465D01*
X3840Y-460D01*
X3846Y-458D01*
X3850Y-460D01*
X3854Y-467D01*
X3856Y-477D01*
Y-525D01*
G01X3890Y-458D02*
Y-525D01*
G01Y-432D02*
X3889Y-430D01*
Y-427D01*
X3890Y-425D01*
X3891Y-427D01*
Y-430D01*
X3890Y-432D01*
G01X3925Y-513D02*
X3928Y-520D01*
X3933Y-525D01*
X3937D01*
X3941Y-522D01*
X3944Y-517D01*
X3945Y-510D01*
X3944Y-500D01*
X3942Y-495D01*
X3930Y-485D01*
X3927Y-473D01*
X3928Y-465D01*
X3931Y-460D01*
X3935Y-458D01*
X3939Y-460D01*
X3943Y-465D01*
G01X4037Y-425D02*
Y-525D01*
G01Y-510D02*
X4034Y-518D01*
X4030Y-523D01*
X4026Y-525D01*
X4020Y-522D01*
X4016Y-513D01*
X4014Y-503D01*
X4013Y-492D01*
X4014Y-480D01*
X4016Y-470D01*
X4020Y-462D01*
X4026Y-458D01*
X4030Y-460D01*
X4034Y-463D01*
X4037Y-470D01*
G01X4060Y-480D02*
X4081D01*
X4079Y-468D01*
X4076Y-462D01*
X4071Y-458D01*
X4067Y-460D01*
X4063Y-465D01*
X4060Y-477D01*
X4059Y-487D01*
Y-497D01*
X4060Y-507D01*
X4063Y-517D01*
X4067Y-523D01*
X4072Y-525D01*
X4077Y-522D01*
X4081Y-512D01*
G01X4105Y-513D02*
X4108Y-520D01*
X4113Y-525D01*
X4117D01*
X4121Y-522D01*
X4124Y-517D01*
X4125Y-510D01*
X4124Y-500D01*
X4122Y-495D01*
X4110Y-485D01*
X4107Y-473D01*
X4108Y-465D01*
X4111Y-460D01*
X4115Y-458D01*
X4119Y-460D01*
X4123Y-465D01*
G01X4160Y-458D02*
Y-525D01*
G01Y-432D02*
X4159Y-430D01*
Y-427D01*
X4160Y-425D01*
X4161Y-427D01*
Y-430D01*
X4160Y-432D01*
G01X4196Y-550D02*
X4200Y-557D01*
X4206Y-558D01*
X4210Y-557D01*
X4214Y-548D01*
X4217Y-537D01*
Y-458D01*
G01Y-472D02*
X4214Y-465D01*
X4210Y-460D01*
X4206Y-458D01*
X4200Y-462D01*
X4197Y-468D01*
X4194Y-480D01*
X4193Y-492D01*
X4194Y-502D01*
X4196Y-513D01*
X4200Y-522D01*
X4206Y-525D01*
X4210Y-523D01*
X4214Y-517D01*
X4217Y-510D01*
G01X4239Y-525D02*
Y-458D01*
G01Y-475D02*
X4241Y-467D01*
X4245Y-460D01*
X4251Y-458D01*
X4255Y-460D01*
X4259Y-467D01*
X4261Y-478D01*
Y-525D01*
G01X4336D02*
Y-440D01*
X4337Y-432D01*
X4340Y-427D01*
X4344Y-425D01*
X4348Y-428D01*
X4350Y-437D01*
G01X4342Y-465D02*
X4329D01*
G01X4385Y-458D02*
Y-525D01*
G01Y-432D02*
X4384Y-430D01*
Y-427D01*
X4385Y-425D01*
X4386Y-427D01*
Y-430D01*
X4385Y-432D01*
G01X4430Y-525D02*
Y-425D01*
G01X4465Y-480D02*
X4486D01*
X4484Y-468D01*
X4481Y-462D01*
X4476Y-458D01*
X4472Y-460D01*
X4468Y-465D01*
X4465Y-477D01*
X4464Y-487D01*
Y-497D01*
X4465Y-507D01*
X4468Y-517D01*
X4472Y-523D01*
X4477Y-525D01*
X4482Y-522D01*
X4486Y-512D01*
G01X4565Y-425D02*
Y-525D01*
G01X4556Y-458D02*
X4574D01*
G01X4610Y-525D02*
X4606Y-523D01*
X4602Y-517D01*
X4599Y-505D01*
X4598Y-492D01*
X4599Y-478D01*
X4602Y-467D01*
X4606Y-460D01*
X4610Y-458D01*
X4614Y-460D01*
X4618Y-467D01*
X4621Y-478D01*
X4621Y-492D01*
X4621Y-505D01*
X4618Y-517D01*
X4614Y-523D01*
X4610Y-525D01*
G01X4680D02*
Y-458D01*
G01Y-477D02*
X4682Y-468D01*
X4685Y-462D01*
X4690Y-458D01*
X4695Y-462D01*
X4698Y-468D01*
X4700Y-477D01*
Y-525D01*
G01Y-477D02*
X4702Y-468D01*
X4705Y-462D01*
X4710Y-458D01*
X4715Y-462D01*
X4718Y-468D01*
X4720Y-478D01*
Y-525D01*
G01X4757D02*
Y-458D01*
G01Y-470D02*
X4754Y-463D01*
X4750Y-460D01*
X4746Y-458D01*
X4741Y-462D01*
X4737Y-468D01*
X4734Y-478D01*
X4733Y-492D01*
X4734Y-505D01*
X4737Y-515D01*
X4741Y-522D01*
X4746Y-525D01*
X4750Y-523D01*
X4754Y-518D01*
X4757Y-512D01*
G01X4779Y-525D02*
Y-425D01*
G01X4800Y-458D02*
X4779Y-497D01*
G01X4787Y-482D02*
X4801Y-525D01*
G01X4825Y-480D02*
X4846D01*
X4844Y-468D01*
X4841Y-462D01*
X4836Y-458D01*
X4832Y-460D01*
X4828Y-465D01*
X4825Y-477D01*
X4824Y-487D01*
Y-497D01*
X4825Y-507D01*
X4828Y-517D01*
X4832Y-523D01*
X4837Y-525D01*
X4842Y-522D01*
X4846Y-512D01*
G01X4912Y-525D02*
Y-425D01*
X4928D01*
X4933Y-430D01*
X4937Y-442D01*
X4938Y-455D01*
X4937Y-468D01*
X4934Y-478D01*
X4928Y-483D01*
X4912D01*
G01X4985Y-433D02*
X4981Y-428D01*
X4976Y-425D01*
X4971D01*
X4965Y-430D01*
X4960Y-438D01*
X4957Y-448D01*
X4954Y-465D01*
X4953Y-480D01*
X4955Y-495D01*
X4957Y-505D01*
X4961Y-515D01*
X4965Y-522D01*
X4970Y-525D01*
X4975D01*
X4979Y-522D01*
X4983Y-517D01*
X4987Y-510D01*
G01X5020Y-472D02*
X5023Y-467D01*
X5025Y-458D01*
X5026Y-447D01*
X5025Y-437D01*
X5022Y-430D01*
X5018Y-425D01*
X5000D01*
Y-525D01*
X5022D01*
X5026Y-518D01*
X5029Y-508D01*
X5030Y-497D01*
X5029Y-485D01*
X5025Y-475D01*
X5020Y-472D01*
X5000D01*
G01X5117Y-425D02*
Y-525D01*
G01Y-510D02*
X5114Y-518D01*
X5110Y-523D01*
X5106Y-525D01*
X5100Y-522D01*
X5096Y-513D01*
X5094Y-503D01*
X5093Y-492D01*
X5094Y-480D01*
X5096Y-470D01*
X5100Y-462D01*
X5106Y-458D01*
X5110Y-460D01*
X5114Y-463D01*
X5117Y-470D01*
G01X5150Y-458D02*
Y-525D01*
G01Y-432D02*
X5149Y-430D01*
Y-427D01*
X5150Y-425D01*
X5151Y-427D01*
Y-430D01*
X5150Y-432D01*
G01X5186Y-525D02*
Y-458D01*
G01Y-472D02*
X5189Y-465D01*
X5192Y-460D01*
X5197Y-458D01*
X5200Y-460D01*
X5204Y-465D01*
G01X5230Y-480D02*
X5251D01*
X5249Y-468D01*
X5246Y-462D01*
X5241Y-458D01*
X5237Y-460D01*
X5233Y-465D01*
X5230Y-477D01*
X5229Y-487D01*
Y-497D01*
X5230Y-507D01*
X5233Y-517D01*
X5237Y-523D01*
X5242Y-525D01*
X5247Y-522D01*
X5251Y-512D01*
G01X5296Y-467D02*
X5291Y-460D01*
X5287Y-458D01*
X5282Y-462D01*
X5278Y-468D01*
X5275Y-480D01*
X5274Y-492D01*
X5275Y-503D01*
X5278Y-513D01*
X5282Y-522D01*
X5287Y-525D01*
X5292Y-522D01*
X5296Y-515D01*
G01X5330Y-425D02*
Y-525D01*
G01X5321Y-458D02*
X5339D01*
G01X5375Y-525D02*
Y-425D01*
G01X5406Y-555D02*
X5410Y-558D01*
X5415Y-555D01*
X5419Y-548D01*
X5421Y-540D01*
X5425Y-513D01*
X5434Y-458D01*
G01X5413D02*
X5425Y-513D01*
G01X5465Y-528D02*
X5464Y-527D01*
Y-523D01*
X5465Y-522D01*
X5466Y-523D01*
Y-527D01*
X5465Y-528D01*
G01X35Y-233D02*
X31Y-228D01*
X26Y-225D01*
X21D01*
X15Y-230D01*
X10Y-238D01*
X7Y-248D01*
X4Y-265D01*
X3Y-280D01*
X5Y-295D01*
X7Y-305D01*
X11Y-315D01*
X15Y-322D01*
X20Y-325D01*
X25D01*
X29Y-322D01*
X33Y-317D01*
X37Y-310D01*
G01X65Y-325D02*
X61Y-323D01*
X57Y-317D01*
X54Y-305D01*
X53Y-292D01*
X54Y-278D01*
X57Y-267D01*
X61Y-260D01*
X65Y-258D01*
X69Y-260D01*
X73Y-267D01*
X76Y-278D01*
X76Y-292D01*
X76Y-305D01*
X73Y-317D01*
X69Y-323D01*
X65Y-325D01*
G01X98Y-358D02*
Y-258D01*
G01Y-273D02*
X101Y-265D01*
X105Y-260D01*
X110Y-258D01*
X115Y-260D01*
X119Y-268D01*
X121Y-280D01*
X122Y-292D01*
X121Y-303D01*
X119Y-315D01*
X115Y-322D01*
X110Y-325D01*
X105Y-323D01*
X101Y-318D01*
X98Y-312D01*
G01X141Y-355D02*
X145Y-358D01*
X150Y-355D01*
X154Y-348D01*
X156Y-340D01*
X160Y-313D01*
X169Y-258D01*
G01X148D02*
X160Y-313D01*
G01X191Y-325D02*
Y-258D01*
G01Y-272D02*
X194Y-265D01*
X197Y-260D01*
X202Y-258D01*
X205Y-260D01*
X209Y-265D01*
G01X245Y-258D02*
Y-325D01*
G01Y-232D02*
X244Y-230D01*
Y-227D01*
X245Y-225D01*
X246Y-227D01*
Y-230D01*
X245Y-232D01*
G01X281Y-350D02*
X285Y-357D01*
X291Y-358D01*
X295Y-357D01*
X299Y-348D01*
X302Y-337D01*
Y-258D01*
G01Y-272D02*
X299Y-265D01*
X295Y-260D01*
X291Y-258D01*
X285Y-262D01*
X282Y-268D01*
X279Y-280D01*
X278Y-292D01*
X279Y-302D01*
X281Y-313D01*
X285Y-322D01*
X291Y-325D01*
X295Y-323D01*
X299Y-317D01*
X302Y-310D01*
G01X324Y-325D02*
Y-225D01*
G01Y-273D02*
X327Y-265D01*
X330Y-260D01*
X336Y-258D01*
X340Y-260D01*
X344Y-267D01*
X346Y-277D01*
Y-325D01*
G01X380Y-225D02*
Y-325D01*
G01X371Y-258D02*
X389D01*
G01X547Y-242D02*
X551Y-232D01*
X556Y-227D01*
X561Y-225D01*
X568Y-228D01*
X573Y-237D01*
X574Y-247D01*
X573Y-257D01*
X571Y-265D01*
X557Y-282D01*
X551Y-293D01*
X547Y-310D01*
X546Y-325D01*
X574D01*
G01X605Y-225D02*
X600Y-228D01*
X596Y-237D01*
X593Y-247D01*
X591Y-260D01*
X590Y-275D01*
X591Y-290D01*
X593Y-303D01*
X596Y-313D01*
X600Y-322D01*
X605Y-325D01*
X610Y-322D01*
X614Y-313D01*
X617Y-303D01*
X619Y-290D01*
X620Y-275D01*
X619Y-260D01*
X617Y-247D01*
X614Y-237D01*
X610Y-228D01*
X605Y-225D01*
G01X650D02*
X645Y-228D01*
X641Y-237D01*
X638Y-247D01*
X636Y-260D01*
X635Y-275D01*
X636Y-290D01*
X638Y-303D01*
X641Y-313D01*
X645Y-322D01*
X650Y-325D01*
X655Y-322D01*
X659Y-313D01*
X662Y-303D01*
X664Y-290D01*
X665Y-275D01*
X664Y-260D01*
X662Y-247D01*
X659Y-237D01*
X655Y-228D01*
X650Y-225D01*
G01X682Y-283D02*
X687Y-272D01*
X691Y-265D01*
X696Y-262D01*
X701Y-265D01*
X704Y-272D01*
X707Y-282D01*
X708Y-293D01*
X707Y-303D01*
X704Y-313D01*
X700Y-322D01*
X696Y-325D01*
X690Y-322D01*
X686Y-312D01*
X683Y-297D01*
X682Y-280D01*
X684Y-258D01*
X686Y-247D01*
X689Y-235D01*
X694Y-227D01*
X698Y-225D01*
X703Y-228D01*
X706Y-237D01*
G01X773Y-325D02*
Y-225D01*
G01Y-275D02*
X776Y-265D01*
X780Y-260D01*
X784Y-258D01*
X790Y-262D01*
X794Y-268D01*
X797Y-280D01*
Y-293D01*
X796Y-307D01*
X793Y-317D01*
X788Y-323D01*
X784Y-325D01*
X780Y-323D01*
X776Y-318D01*
X773Y-310D01*
G01X816Y-355D02*
X820Y-358D01*
X825Y-355D01*
X829Y-348D01*
X831Y-340D01*
X835Y-313D01*
X844Y-258D01*
G01X823D02*
X835Y-313D01*
G01X920Y-225D02*
Y-325D01*
G01X905Y-225D02*
X935D01*
G01X955Y-280D02*
X976D01*
X974Y-268D01*
X971Y-262D01*
X966Y-258D01*
X962Y-260D01*
X958Y-265D01*
X955Y-277D01*
X954Y-287D01*
Y-297D01*
X955Y-307D01*
X958Y-317D01*
X962Y-323D01*
X967Y-325D01*
X972Y-322D01*
X976Y-312D01*
G01X1001Y-325D02*
Y-258D01*
G01Y-272D02*
X1004Y-265D01*
X1007Y-260D01*
X1012Y-258D01*
X1015Y-260D01*
X1019Y-265D01*
G01X1067Y-325D02*
Y-258D01*
G01Y-270D02*
X1064Y-263D01*
X1060Y-260D01*
X1056Y-258D01*
X1051Y-262D01*
X1047Y-268D01*
X1044Y-278D01*
X1043Y-292D01*
X1044Y-305D01*
X1047Y-315D01*
X1051Y-322D01*
X1056Y-325D01*
X1060Y-323D01*
X1064Y-318D01*
X1067Y-312D01*
G01X1090Y-313D02*
X1093Y-320D01*
X1098Y-325D01*
X1102D01*
X1106Y-322D01*
X1109Y-317D01*
X1110Y-310D01*
X1109Y-300D01*
X1107Y-295D01*
X1095Y-285D01*
X1092Y-273D01*
X1093Y-265D01*
X1096Y-260D01*
X1100Y-258D01*
X1104Y-260D01*
X1108Y-265D01*
G01X1145Y-258D02*
Y-325D01*
G01Y-232D02*
X1144Y-230D01*
Y-227D01*
X1145Y-225D01*
X1146Y-227D01*
Y-230D01*
X1145Y-232D01*
G01X1201Y-267D02*
X1196Y-260D01*
X1192Y-258D01*
X1187Y-262D01*
X1183Y-268D01*
X1180Y-280D01*
X1179Y-292D01*
X1180Y-303D01*
X1183Y-313D01*
X1187Y-322D01*
X1192Y-325D01*
X1197Y-322D01*
X1201Y-315D01*
G01X1280Y-225D02*
Y-325D01*
G01X1265Y-225D02*
X1295D01*
G01X1315Y-280D02*
X1336D01*
X1334Y-268D01*
X1331Y-262D01*
X1326Y-258D01*
X1322Y-260D01*
X1318Y-265D01*
X1315Y-277D01*
X1314Y-287D01*
Y-297D01*
X1315Y-307D01*
X1318Y-317D01*
X1322Y-323D01*
X1327Y-325D01*
X1332Y-322D01*
X1336Y-312D01*
G01X1381Y-267D02*
X1376Y-260D01*
X1372Y-258D01*
X1367Y-262D01*
X1363Y-268D01*
X1360Y-280D01*
X1359Y-292D01*
X1360Y-303D01*
X1363Y-313D01*
X1367Y-322D01*
X1372Y-325D01*
X1377Y-322D01*
X1381Y-315D01*
G01X1404Y-325D02*
Y-225D01*
G01Y-273D02*
X1407Y-265D01*
X1410Y-260D01*
X1416Y-258D01*
X1420Y-260D01*
X1424Y-267D01*
X1426Y-277D01*
Y-325D01*
G01X1449D02*
Y-258D01*
G01Y-275D02*
X1451Y-267D01*
X1455Y-260D01*
X1461Y-258D01*
X1465Y-260D01*
X1469Y-267D01*
X1471Y-278D01*
Y-325D01*
G01X1505D02*
X1501Y-323D01*
X1497Y-317D01*
X1494Y-305D01*
X1493Y-292D01*
X1494Y-278D01*
X1497Y-267D01*
X1501Y-260D01*
X1505Y-258D01*
X1509Y-260D01*
X1513Y-267D01*
X1516Y-278D01*
X1516Y-292D01*
X1516Y-305D01*
X1513Y-317D01*
X1509Y-323D01*
X1505Y-325D01*
G01X1550D02*
Y-225D01*
G01X1595Y-325D02*
X1591Y-323D01*
X1587Y-317D01*
X1584Y-305D01*
X1583Y-292D01*
X1584Y-278D01*
X1587Y-267D01*
X1591Y-260D01*
X1595Y-258D01*
X1599Y-260D01*
X1603Y-267D01*
X1606Y-278D01*
X1606Y-292D01*
X1606Y-305D01*
X1603Y-317D01*
X1599Y-323D01*
X1595Y-325D01*
G01X1631Y-350D02*
X1635Y-357D01*
X1641Y-358D01*
X1645Y-357D01*
X1649Y-348D01*
X1652Y-337D01*
Y-258D01*
G01Y-272D02*
X1649Y-265D01*
X1645Y-260D01*
X1641Y-258D01*
X1635Y-262D01*
X1632Y-268D01*
X1629Y-280D01*
X1628Y-292D01*
X1629Y-302D01*
X1631Y-313D01*
X1635Y-322D01*
X1641Y-325D01*
X1645Y-323D01*
X1649Y-317D01*
X1652Y-310D01*
G01X1685Y-258D02*
Y-325D01*
G01Y-232D02*
X1684Y-230D01*
Y-227D01*
X1685Y-225D01*
X1686Y-227D01*
Y-230D01*
X1685Y-232D01*
G01X1720Y-280D02*
X1741D01*
X1739Y-268D01*
X1736Y-262D01*
X1731Y-258D01*
X1727Y-260D01*
X1723Y-265D01*
X1720Y-277D01*
X1719Y-287D01*
Y-297D01*
X1720Y-307D01*
X1723Y-317D01*
X1727Y-323D01*
X1732Y-325D01*
X1737Y-322D01*
X1741Y-312D01*
G01X1765Y-313D02*
X1768Y-320D01*
X1773Y-325D01*
X1777D01*
X1781Y-322D01*
X1784Y-317D01*
X1785Y-310D01*
X1784Y-300D01*
X1782Y-295D01*
X1770Y-285D01*
X1767Y-273D01*
X1768Y-265D01*
X1771Y-260D01*
X1775Y-258D01*
X1779Y-260D01*
X1783Y-265D01*
G01X1857Y-225D02*
X1873D01*
G01X1865D02*
Y-325D01*
G01X1857D02*
X1873D01*
G01X1899D02*
Y-258D01*
G01Y-275D02*
X1901Y-267D01*
X1905Y-260D01*
X1911Y-258D01*
X1915Y-260D01*
X1919Y-267D01*
X1921Y-278D01*
Y-325D01*
G01X1966Y-267D02*
X1961Y-260D01*
X1957Y-258D01*
X1952Y-262D01*
X1948Y-268D01*
X1945Y-280D01*
X1944Y-292D01*
X1945Y-303D01*
X1948Y-313D01*
X1952Y-322D01*
X1957Y-325D01*
X1962Y-322D01*
X1966Y-315D01*
G01X2000Y-328D02*
X1999Y-327D01*
Y-323D01*
X2000Y-322D01*
X2001Y-323D01*
Y-327D01*
X2000Y-328D01*
G01X2073Y-325D02*
X2090Y-225D01*
X2107Y-325D01*
G01X2101Y-290D02*
X2079D01*
G01X2135Y-325D02*
Y-225D01*
G01X2180Y-325D02*
Y-225D01*
G01X2257Y-325D02*
Y-225D01*
X2273D01*
X2279Y-230D01*
X2282Y-237D01*
X2283Y-250D01*
X2282Y-263D01*
X2278Y-272D01*
X2273Y-277D01*
X2257D01*
G01X2273D02*
X2283Y-325D01*
G01X2315Y-258D02*
Y-325D01*
G01Y-232D02*
X2314Y-230D01*
Y-227D01*
X2315Y-225D01*
X2316Y-227D01*
Y-230D01*
X2315Y-232D01*
G01X2351Y-350D02*
X2355Y-357D01*
X2361Y-358D01*
X2365Y-357D01*
X2369Y-348D01*
X2372Y-337D01*
Y-258D01*
G01Y-272D02*
X2369Y-265D01*
X2365Y-260D01*
X2361Y-258D01*
X2355Y-262D01*
X2352Y-268D01*
X2349Y-280D01*
X2348Y-292D01*
X2349Y-302D01*
X2351Y-313D01*
X2355Y-322D01*
X2361Y-325D01*
X2365Y-323D01*
X2369Y-317D01*
X2372Y-310D01*
G01X2394Y-325D02*
Y-225D01*
G01Y-273D02*
X2397Y-265D01*
X2400Y-260D01*
X2406Y-258D01*
X2410Y-260D01*
X2414Y-267D01*
X2416Y-277D01*
Y-325D01*
G01X2450Y-225D02*
Y-325D01*
G01X2441Y-258D02*
X2459D01*
G01X2485Y-313D02*
X2488Y-320D01*
X2493Y-325D01*
X2497D01*
X2501Y-322D01*
X2504Y-317D01*
X2505Y-310D01*
X2504Y-300D01*
X2502Y-295D01*
X2490Y-285D01*
X2487Y-273D01*
X2488Y-265D01*
X2491Y-260D01*
X2495Y-258D01*
X2499Y-260D01*
X2503Y-265D01*
G01X2572Y-325D02*
Y-225D01*
X2588D01*
X2594Y-230D01*
X2597Y-237D01*
X2598Y-250D01*
X2597Y-263D01*
X2593Y-272D01*
X2588Y-277D01*
X2572D01*
G01X2588D02*
X2598Y-325D01*
G01X2620Y-280D02*
X2641D01*
X2639Y-268D01*
X2636Y-262D01*
X2631Y-258D01*
X2627Y-260D01*
X2623Y-265D01*
X2620Y-277D01*
X2619Y-287D01*
Y-297D01*
X2620Y-307D01*
X2623Y-317D01*
X2627Y-323D01*
X2632Y-325D01*
X2637Y-322D01*
X2641Y-312D01*
G01X2665Y-313D02*
X2668Y-320D01*
X2673Y-325D01*
X2677D01*
X2681Y-322D01*
X2684Y-317D01*
X2685Y-310D01*
X2684Y-300D01*
X2682Y-295D01*
X2670Y-285D01*
X2667Y-273D01*
X2668Y-265D01*
X2671Y-260D01*
X2675Y-258D01*
X2679Y-260D01*
X2683Y-265D01*
G01X2710Y-280D02*
X2731D01*
X2729Y-268D01*
X2726Y-262D01*
X2721Y-258D01*
X2717Y-260D01*
X2713Y-265D01*
X2710Y-277D01*
X2709Y-287D01*
Y-297D01*
X2710Y-307D01*
X2713Y-317D01*
X2717Y-323D01*
X2722Y-325D01*
X2727Y-322D01*
X2731Y-312D01*
G01X2756Y-325D02*
Y-258D01*
G01Y-272D02*
X2759Y-265D01*
X2762Y-260D01*
X2767Y-258D01*
X2770Y-260D01*
X2774Y-265D01*
G01X2798Y-258D02*
X2810Y-325D01*
X2822Y-258D01*
G01X2845Y-280D02*
X2866D01*
X2864Y-268D01*
X2861Y-262D01*
X2856Y-258D01*
X2852Y-260D01*
X2848Y-265D01*
X2845Y-277D01*
X2844Y-287D01*
Y-297D01*
X2845Y-307D01*
X2848Y-317D01*
X2852Y-323D01*
X2857Y-325D01*
X2862Y-322D01*
X2866Y-312D01*
G01X2912Y-225D02*
Y-325D01*
G01Y-310D02*
X2909Y-318D01*
X2905Y-323D01*
X2901Y-325D01*
X2895Y-322D01*
X2891Y-313D01*
X2889Y-303D01*
X2888Y-292D01*
X2889Y-280D01*
X2891Y-270D01*
X2895Y-262D01*
X2901Y-258D01*
X2905Y-260D01*
X2909Y-263D01*
X2912Y-270D01*
G01X2945Y-328D02*
X2944Y-327D01*
Y-323D01*
X2945Y-322D01*
X2946Y-323D01*
Y-327D01*
X2945Y-328D01*
G01X3020Y-225D02*
Y-297D01*
X3023Y-312D01*
X3028Y-322D01*
X3035Y-325D01*
X3042Y-322D01*
X3047Y-312D01*
X3050Y-297D01*
Y-225D01*
G01X3070Y-313D02*
X3073Y-320D01*
X3078Y-325D01*
X3082D01*
X3086Y-322D01*
X3089Y-317D01*
X3090Y-310D01*
X3089Y-300D01*
X3087Y-295D01*
X3075Y-285D01*
X3072Y-273D01*
X3073Y-265D01*
X3076Y-260D01*
X3080Y-258D01*
X3084Y-260D01*
X3088Y-265D01*
G01X3125Y-258D02*
Y-325D01*
G01Y-232D02*
X3124Y-230D01*
Y-227D01*
X3125Y-225D01*
X3126Y-227D01*
Y-230D01*
X3125Y-232D01*
G01X3159Y-325D02*
Y-258D01*
G01Y-275D02*
X3161Y-267D01*
X3165Y-260D01*
X3171Y-258D01*
X3175Y-260D01*
X3179Y-267D01*
X3181Y-278D01*
Y-325D01*
G01X3206Y-350D02*
X3210Y-357D01*
X3216Y-358D01*
X3220Y-357D01*
X3224Y-348D01*
X3227Y-337D01*
Y-258D01*
G01Y-272D02*
X3224Y-265D01*
X3220Y-260D01*
X3216Y-258D01*
X3210Y-262D01*
X3207Y-268D01*
X3204Y-280D01*
X3203Y-292D01*
X3204Y-302D01*
X3206Y-313D01*
X3210Y-322D01*
X3216Y-325D01*
X3220Y-323D01*
X3224Y-317D01*
X3227Y-310D01*
G01X3305Y-225D02*
Y-325D01*
G01X3296Y-258D02*
X3314D01*
G01X3339Y-325D02*
Y-225D01*
G01Y-273D02*
X3342Y-265D01*
X3345Y-260D01*
X3351Y-258D01*
X3355Y-260D01*
X3359Y-267D01*
X3361Y-277D01*
Y-325D01*
G01X3395Y-258D02*
Y-325D01*
G01Y-232D02*
X3394Y-230D01*
Y-227D01*
X3395Y-225D01*
X3396Y-227D01*
Y-230D01*
X3395Y-232D01*
G01X3430Y-313D02*
X3433Y-320D01*
X3438Y-325D01*
X3442D01*
X3446Y-322D01*
X3449Y-317D01*
X3450Y-310D01*
X3449Y-300D01*
X3447Y-295D01*
X3435Y-285D01*
X3432Y-273D01*
X3433Y-265D01*
X3436Y-260D01*
X3440Y-258D01*
X3444Y-260D01*
X3448Y-265D01*
G01X3530Y-325D02*
Y-225D01*
G01X3587Y-325D02*
Y-258D01*
G01Y-270D02*
X3584Y-263D01*
X3580Y-260D01*
X3576Y-258D01*
X3571Y-262D01*
X3567Y-268D01*
X3564Y-278D01*
X3563Y-292D01*
X3564Y-305D01*
X3567Y-315D01*
X3571Y-322D01*
X3576Y-325D01*
X3580Y-323D01*
X3584Y-318D01*
X3587Y-312D01*
G01X3606Y-355D02*
X3610Y-358D01*
X3615Y-355D01*
X3619Y-348D01*
X3621Y-340D01*
X3625Y-313D01*
X3634Y-258D01*
G01X3613D02*
X3625Y-313D01*
G01X3665Y-325D02*
X3661Y-323D01*
X3657Y-317D01*
X3654Y-305D01*
X3653Y-292D01*
X3654Y-278D01*
X3657Y-267D01*
X3661Y-260D01*
X3665Y-258D01*
X3669Y-260D01*
X3673Y-267D01*
X3676Y-278D01*
X3676Y-292D01*
X3676Y-305D01*
X3673Y-317D01*
X3669Y-323D01*
X3665Y-325D01*
G01X3699Y-258D02*
Y-305D01*
X3701Y-317D01*
X3705Y-323D01*
X3710Y-325D01*
X3715Y-323D01*
X3719Y-317D01*
X3721Y-305D01*
G01Y-325D02*
Y-258D01*
G01X3755Y-225D02*
Y-325D01*
G01X3746Y-258D02*
X3764D01*
G01X3857Y-225D02*
Y-325D01*
G01Y-310D02*
X3854Y-318D01*
X3850Y-323D01*
X3846Y-325D01*
X3840Y-322D01*
X3836Y-313D01*
X3834Y-303D01*
X3833Y-292D01*
X3834Y-280D01*
X3836Y-270D01*
X3840Y-262D01*
X3846Y-258D01*
X3850Y-260D01*
X3854Y-263D01*
X3857Y-270D01*
G01X3880Y-280D02*
X3901D01*
X3899Y-268D01*
X3896Y-262D01*
X3891Y-258D01*
X3887Y-260D01*
X3883Y-265D01*
X3880Y-277D01*
X3879Y-287D01*
Y-297D01*
X3880Y-307D01*
X3883Y-317D01*
X3887Y-323D01*
X3892Y-325D01*
X3897Y-322D01*
X3901Y-312D01*
G01X3925Y-313D02*
X3928Y-320D01*
X3933Y-325D01*
X3937D01*
X3941Y-322D01*
X3944Y-317D01*
X3945Y-310D01*
X3944Y-300D01*
X3942Y-295D01*
X3930Y-285D01*
X3927Y-273D01*
X3928Y-265D01*
X3931Y-260D01*
X3935Y-258D01*
X3939Y-260D01*
X3943Y-265D01*
G01X3980Y-258D02*
Y-325D01*
G01Y-232D02*
X3979Y-230D01*
Y-227D01*
X3980Y-225D01*
X3981Y-227D01*
Y-230D01*
X3980Y-232D01*
G01X4016Y-350D02*
X4020Y-357D01*
X4026Y-358D01*
X4030Y-357D01*
X4034Y-348D01*
X4037Y-337D01*
Y-258D01*
G01Y-272D02*
X4034Y-265D01*
X4030Y-260D01*
X4026Y-258D01*
X4020Y-262D01*
X4017Y-268D01*
X4014Y-280D01*
X4013Y-292D01*
X4014Y-302D01*
X4016Y-313D01*
X4020Y-322D01*
X4026Y-325D01*
X4030Y-323D01*
X4034Y-317D01*
X4037Y-310D01*
G01X4059Y-325D02*
Y-258D01*
G01Y-275D02*
X4061Y-267D01*
X4065Y-260D01*
X4071Y-258D01*
X4075Y-260D01*
X4079Y-267D01*
X4081Y-278D01*
Y-325D01*
G01X4160Y-225D02*
Y-325D01*
G01X4151Y-258D02*
X4169D01*
G01X4205Y-325D02*
X4201Y-323D01*
X4197Y-317D01*
X4194Y-305D01*
X4193Y-292D01*
X4194Y-278D01*
X4197Y-267D01*
X4201Y-260D01*
X4205Y-258D01*
X4209Y-260D01*
X4213Y-267D01*
X4216Y-278D01*
X4216Y-292D01*
X4216Y-305D01*
X4213Y-317D01*
X4209Y-323D01*
X4205Y-325D01*
G01X4275D02*
Y-258D01*
G01Y-277D02*
X4277Y-268D01*
X4280Y-262D01*
X4285Y-258D01*
X4290Y-262D01*
X4293Y-268D01*
X4295Y-277D01*
Y-325D01*
G01Y-277D02*
X4297Y-268D01*
X4300Y-262D01*
X4305Y-258D01*
X4310Y-262D01*
X4313Y-268D01*
X4315Y-278D01*
Y-325D01*
G01X4352D02*
Y-258D01*
G01Y-270D02*
X4349Y-263D01*
X4345Y-260D01*
X4341Y-258D01*
X4336Y-262D01*
X4332Y-268D01*
X4329Y-278D01*
X4328Y-292D01*
X4329Y-305D01*
X4332Y-315D01*
X4336Y-322D01*
X4341Y-325D01*
X4345Y-323D01*
X4349Y-318D01*
X4352Y-312D01*
G01X4374Y-325D02*
Y-225D01*
G01X4395Y-258D02*
X4374Y-297D01*
G01X4382Y-282D02*
X4396Y-325D01*
G01X4420Y-280D02*
X4441D01*
X4439Y-268D01*
X4436Y-262D01*
X4431Y-258D01*
X4427Y-260D01*
X4423Y-265D01*
X4420Y-277D01*
X4419Y-287D01*
Y-297D01*
X4420Y-307D01*
X4423Y-317D01*
X4427Y-323D01*
X4432Y-325D01*
X4437Y-322D01*
X4441Y-312D01*
G01X4507Y-325D02*
Y-225D01*
X4523D01*
X4528Y-230D01*
X4532Y-242D01*
X4533Y-255D01*
X4532Y-268D01*
X4529Y-278D01*
X4523Y-283D01*
X4507D01*
G01X4580Y-233D02*
X4576Y-228D01*
X4571Y-225D01*
X4566D01*
X4560Y-230D01*
X4555Y-238D01*
X4552Y-248D01*
X4549Y-265D01*
X4548Y-280D01*
X4550Y-295D01*
X4552Y-305D01*
X4556Y-315D01*
X4560Y-322D01*
X4565Y-325D01*
X4570D01*
X4574Y-322D01*
X4578Y-317D01*
X4582Y-310D01*
G01X4615Y-272D02*
X4618Y-267D01*
X4620Y-258D01*
X4621Y-247D01*
X4620Y-237D01*
X4617Y-230D01*
X4613Y-225D01*
X4595D01*
Y-325D01*
X4617D01*
X4621Y-318D01*
X4624Y-308D01*
X4625Y-297D01*
X4624Y-285D01*
X4620Y-275D01*
X4615Y-272D01*
X4595D01*
G01X4712Y-225D02*
Y-325D01*
G01Y-310D02*
X4709Y-318D01*
X4705Y-323D01*
X4701Y-325D01*
X4695Y-322D01*
X4691Y-313D01*
X4689Y-303D01*
X4688Y-292D01*
X4689Y-280D01*
X4691Y-270D01*
X4695Y-262D01*
X4701Y-258D01*
X4705Y-260D01*
X4709Y-263D01*
X4712Y-270D01*
G01X4745Y-258D02*
Y-325D01*
G01Y-232D02*
X4744Y-230D01*
Y-227D01*
X4745Y-225D01*
X4746Y-227D01*
Y-230D01*
X4745Y-232D01*
G01X4781Y-325D02*
Y-258D01*
G01Y-272D02*
X4784Y-265D01*
X4787Y-260D01*
X4792Y-258D01*
X4795Y-260D01*
X4799Y-265D01*
G01X4825Y-280D02*
X4846D01*
X4844Y-268D01*
X4841Y-262D01*
X4836Y-258D01*
X4832Y-260D01*
X4828Y-265D01*
X4825Y-277D01*
X4824Y-287D01*
Y-297D01*
X4825Y-307D01*
X4828Y-317D01*
X4832Y-323D01*
X4837Y-325D01*
X4842Y-322D01*
X4846Y-312D01*
G01X4891Y-267D02*
X4886Y-260D01*
X4882Y-258D01*
X4877Y-262D01*
X4873Y-268D01*
X4870Y-280D01*
X4869Y-292D01*
X4870Y-303D01*
X4873Y-313D01*
X4877Y-322D01*
X4882Y-325D01*
X4887Y-322D01*
X4891Y-315D01*
G01X4925Y-225D02*
Y-325D01*
G01X4916Y-258D02*
X4934D01*
G01X4970Y-325D02*
Y-225D01*
G01X5001Y-355D02*
X5005Y-358D01*
X5010Y-355D01*
X5014Y-348D01*
X5016Y-340D01*
X5020Y-313D01*
X5029Y-258D01*
G01X5008D02*
X5020Y-313D01*
G01X5105Y-258D02*
Y-325D01*
G01Y-232D02*
X5104Y-230D01*
Y-227D01*
X5105Y-225D01*
X5106Y-227D01*
Y-230D01*
X5105Y-232D01*
G01X5140Y-313D02*
X5143Y-320D01*
X5148Y-325D01*
X5152D01*
X5156Y-322D01*
X5159Y-317D01*
X5160Y-310D01*
X5159Y-300D01*
X5157Y-295D01*
X5145Y-285D01*
X5142Y-273D01*
X5143Y-265D01*
X5146Y-260D01*
X5150Y-258D01*
X5154Y-260D01*
X5158Y-265D01*
G01X5228Y-358D02*
Y-258D01*
G01Y-273D02*
X5231Y-265D01*
X5235Y-260D01*
X5240Y-258D01*
X5245Y-260D01*
X5249Y-268D01*
X5251Y-280D01*
X5252Y-292D01*
X5251Y-303D01*
X5249Y-315D01*
X5245Y-322D01*
X5240Y-325D01*
X5235Y-323D01*
X5231Y-318D01*
X5228Y-312D01*
G01X5276Y-325D02*
Y-258D01*
G01Y-272D02*
X5279Y-265D01*
X5282Y-260D01*
X5287Y-258D01*
X5290Y-260D01*
X5294Y-265D01*
G01X5330Y-325D02*
X5326Y-323D01*
X5322Y-317D01*
X5319Y-305D01*
X5318Y-292D01*
X5319Y-278D01*
X5322Y-267D01*
X5326Y-260D01*
X5330Y-258D01*
X5334Y-260D01*
X5338Y-267D01*
X5341Y-278D01*
X5341Y-292D01*
X5341Y-305D01*
X5338Y-317D01*
X5334Y-323D01*
X5330Y-325D01*
G01X5364D02*
Y-225D01*
G01Y-273D02*
X5367Y-265D01*
X5370Y-260D01*
X5376Y-258D01*
X5380Y-260D01*
X5384Y-267D01*
X5386Y-277D01*
Y-325D01*
G01X5420Y-258D02*
Y-325D01*
G01Y-232D02*
X5419Y-230D01*
Y-227D01*
X5420Y-225D01*
X5421Y-227D01*
Y-230D01*
X5420Y-232D01*
G01X5453Y-325D02*
Y-225D01*
G01Y-275D02*
X5456Y-265D01*
X5460Y-260D01*
X5464Y-258D01*
X5470Y-262D01*
X5474Y-268D01*
X5477Y-280D01*
Y-293D01*
X5476Y-307D01*
X5473Y-317D01*
X5468Y-323D01*
X5464Y-325D01*
X5460Y-323D01*
X5456Y-318D01*
X5453Y-310D01*
G01X5510Y-258D02*
Y-325D01*
G01Y-232D02*
X5509Y-230D01*
Y-227D01*
X5510Y-225D01*
X5511Y-227D01*
Y-230D01*
X5510Y-232D01*
G01X5555Y-225D02*
Y-325D01*
G01X5546Y-258D02*
X5564D01*
G01X5590Y-280D02*
X5611D01*
X5609Y-268D01*
X5606Y-262D01*
X5601Y-258D01*
X5597Y-260D01*
X5593Y-265D01*
X5590Y-277D01*
X5589Y-287D01*
Y-297D01*
X5590Y-307D01*
X5593Y-317D01*
X5597Y-323D01*
X5602Y-325D01*
X5607Y-322D01*
X5611Y-312D01*
G01X5657Y-225D02*
Y-325D01*
G01Y-310D02*
X5654Y-318D01*
X5650Y-323D01*
X5646Y-325D01*
X5640Y-322D01*
X5636Y-313D01*
X5634Y-303D01*
X5633Y-292D01*
X5634Y-280D01*
X5636Y-270D01*
X5640Y-262D01*
X5646Y-258D01*
X5650Y-260D01*
X5654Y-263D01*
X5657Y-270D01*
G01X5690Y-328D02*
X5689Y-327D01*
Y-323D01*
X5690Y-322D01*
X5691Y-323D01*
Y-327D01*
X5690Y-328D01*
G01X471Y-247D02*
X466Y-240D01*
X462Y-238D01*
X457Y-242D01*
X453Y-248D01*
X450Y-260D01*
X449Y-272D01*
X450Y-283D01*
X453Y-293D01*
X457Y-302D01*
X462Y-305D01*
X467Y-302D01*
X471Y-295D01*
G01X475Y-220D02*
G03I-10J-50D01*
G01X2001Y2975D02*
Y2939D01*
X1980Y2918D01*
G01X1870Y2880D02*
X1840Y2910D01*
Y2990D01*
X1810Y3020D01*
G01X3789Y2450D02*
X3820D01*
G01Y2492D02*
Y2520D01*
M02*
