G04 ================== begin FILE IDENTIFICATION RECORD ==================*
G04 Layout Name:  C:/HMB/HMB_V11.brd*
G04 Film Name:    Mask_Bot*
G04 File Format:  Gerber RS274X*
G04 File Origin:  15.7-p007*
G04 Origin Date:  Fri Aug 15 21:53:15 2008*
G04 *
G04 Layer:  VIA CLASS/SOLDERMASK_BOTTOM*
G04 Layer:  PIN/SOLDERMASK_BOTTOM*
G04 *
G04 Offset:    (0.00 0.00)*
G04 Mirror:    No*
G04 Mode:      Positive*
G04 Rotation:  0*
G04 FullContactRelief:  No*
G04 UndefLineWidth:     0.00*
G04 ================== end FILE IDENTIFICATION RECORD ====================*
%FSLAX53Y53*MOIN*%
%IR0*IPPOS*OFA0.00000B0.00000*MIA0B0*SFA1.00000B1.00000*%
%ADD23O,.061X.174*%
%ADD25O,.174X.061*%
%ADD35O,.075X.135*%
%ADD34O,.135X.075*%
%ADD13R,.0311X.10591*%
%ADD11C,.08*%
%ADD28C,.075*%
%ADD15R,.041X.041*%
%ADD21C,.049*%
%ADD31C,.059*%
%ADD14R,.0311X.19094*%
%ADD19C,.069*%
%ADD18C,.096*%
%ADD27R,.075X.075*%
%ADD22R,.049X.049*%
%ADD33R,.059X.059*%
%ADD30R,.069X.069*%
%ADD32C,.1*%
%ADD24C,.11*%
%ADD29R,.065X.03*%
%ADD26C,.213*%
%ADD20R,.077X.053*%
%ADD10C,.256*%
%ADD17R,.04528X.02165*%
%ADD16R,.04528X.01772*%
%ADD12R,.06299X.01772*%
%LPD*%
G75*
G54D10*
X200Y200D03*
X225Y600D03*
Y3400D03*
X200Y3800D03*
X4800Y200D03*
Y3800D03*
G54D20*
X720Y3083D03*
Y3197D03*
G54D11*
X200Y400D03*
Y3600D03*
X4800Y400D03*
Y3600D03*
G54D12*
X103Y927D03*
Y947D03*
Y967D03*
Y986D03*
Y1006D03*
Y1026D03*
Y1045D03*
Y1065D03*
Y1085D03*
Y1104D03*
Y1124D03*
Y1144D03*
Y1163D03*
Y1183D03*
Y1203D03*
Y1222D03*
Y1242D03*
Y1262D03*
Y1282D03*
Y1301D03*
Y1321D03*
Y1341D03*
Y1360D03*
Y1380D03*
Y1400D03*
Y1419D03*
Y1439D03*
Y1459D03*
Y1478D03*
Y1498D03*
Y1715D03*
Y1734D03*
Y1754D03*
Y1774D03*
Y1793D03*
Y1813D03*
Y1833D03*
Y1852D03*
Y1872D03*
Y1892D03*
Y1911D03*
Y1931D03*
Y1951D03*
Y1970D03*
Y1990D03*
Y2010D03*
Y2030D03*
Y2049D03*
Y2069D03*
Y2089D03*
Y2108D03*
Y2128D03*
Y2148D03*
Y2167D03*
Y2187D03*
Y2207D03*
Y2226D03*
Y2246D03*
Y2266D03*
Y2285D03*
Y2522D03*
Y2541D03*
Y2581D03*
Y2600D03*
Y2640D03*
Y2659D03*
Y2699D03*
Y2718D03*
Y2758D03*
Y2778D03*
Y2817D03*
Y2837D03*
Y2876D03*
Y2896D03*
Y2935D03*
Y2955D03*
Y2994D03*
Y3014D03*
Y3053D03*
Y3073D03*
X347Y927D03*
Y947D03*
Y967D03*
Y986D03*
Y1006D03*
Y1026D03*
Y1045D03*
Y1065D03*
Y1085D03*
Y1104D03*
Y1124D03*
Y1144D03*
Y1163D03*
Y1183D03*
Y1203D03*
Y1222D03*
Y1242D03*
Y1262D03*
Y1282D03*
Y1301D03*
Y1321D03*
Y1341D03*
Y1360D03*
Y1380D03*
Y1400D03*
Y1419D03*
Y1439D03*
Y1459D03*
Y1478D03*
Y1498D03*
Y1715D03*
Y1734D03*
Y1754D03*
Y1774D03*
Y1793D03*
Y1813D03*
Y1833D03*
Y1852D03*
Y1872D03*
Y1892D03*
Y1911D03*
Y1931D03*
Y1951D03*
Y1970D03*
Y1990D03*
Y2010D03*
Y2030D03*
Y2049D03*
Y2069D03*
Y2089D03*
Y2108D03*
Y2128D03*
Y2148D03*
Y2167D03*
Y2187D03*
Y2207D03*
Y2226D03*
Y2246D03*
Y2266D03*
Y2285D03*
Y2522D03*
Y2541D03*
Y2581D03*
Y2600D03*
Y2640D03*
Y2659D03*
Y2699D03*
Y2718D03*
Y2758D03*
Y2778D03*
Y2817D03*
Y2837D03*
Y2876D03*
Y2896D03*
Y2935D03*
Y2955D03*
Y2994D03*
Y3014D03*
Y3053D03*
Y3073D03*
G54D30*
X3835Y3570D03*
G54D21*
X1060Y2589D03*
X1375D03*
Y2510D03*
X1296Y2589D03*
Y2510D03*
X1217Y2589D03*
Y2510D03*
X1139Y2589D03*
Y2510D03*
G54D22*
X1060D03*
G54D31*
X4335Y2305D03*
Y2605D03*
Y2505D03*
Y2405D03*
X4435Y2555D03*
Y2455D03*
Y2355D03*
G54D13*
X225Y880D03*
Y1545D03*
Y1668D03*
Y2332D03*
Y2455D03*
Y3120D03*
G54D32*
X4565Y2120D03*
Y2740D03*
G54D14*
X225Y1088D03*
Y1338D03*
Y1875D03*
Y2125D03*
Y2662D03*
Y2912D03*
G54D23*
X1610Y3670D03*
X2060D03*
G54D24*
X1835D03*
G54D33*
X4435Y2255D03*
G54D15*
X500Y1660D03*
X560D03*
X760Y2730D03*
Y2670D03*
X810Y3080D03*
Y3140D03*
X870Y1230D03*
X930D03*
X1080Y1660D03*
X1020D03*
X930Y2090D03*
X870D03*
X830Y2730D03*
Y2670D03*
X1200Y1710D03*
X1320Y1660D03*
X1260D03*
X1200Y1630D03*
Y1570D03*
Y1770D03*
X1480Y1230D03*
X1540D03*
X1620Y1375D03*
X1680D03*
X1620Y1310D03*
X1680D03*
Y2015D03*
X1620D03*
X1680Y1950D03*
X1620D03*
X1675Y2950D03*
X1810Y2880D03*
X1870D03*
X1810Y2810D03*
X1870D03*
X1810Y2740D03*
X1870D03*
Y2670D03*
X1810D03*
X1870Y3090D03*
X1810D03*
X1735Y2950D03*
X1870Y3160D03*
X1810D03*
X1870Y3020D03*
X1810D03*
X2005D03*
X1945D03*
X1870Y2950D03*
X1810D03*
X2140Y3020D03*
X2080D03*
X2720Y110D03*
Y170D03*
X2790Y110D03*
Y170D03*
X2870Y2760D03*
X2810D03*
X2680Y3010D03*
X2740D03*
X2810D03*
X2870D03*
X3140Y3260D03*
Y3320D03*
X3820Y2520D03*
Y2450D03*
X3560Y2340D03*
X3620D03*
X3560Y2520D03*
X3620D03*
X3750D03*
X3690D03*
X4040Y950D03*
X4100D03*
X4040Y2060D03*
X4100D03*
X3880Y2520D03*
Y2450D03*
X4170Y2870D03*
X4230D03*
X4170Y3010D03*
X4230D03*
X4170Y3150D03*
X4230D03*
X4170Y2940D03*
X4230D03*
X4170Y3220D03*
X4230D03*
X4170Y3080D03*
X4230D03*
X4340Y3260D03*
Y3320D03*
G54D16*
X470Y2281D03*
Y2300D03*
Y2320D03*
Y2340D03*
Y2360D03*
Y2379D03*
X530Y2300D03*
Y2281D03*
Y2379D03*
Y2360D03*
Y2340D03*
Y2320D03*
G54D34*
X4796Y2819D03*
Y3369D03*
G54D25*
X1835Y3890D03*
G54D17*
X470Y2259D03*
Y2401D03*
X530Y2259D03*
Y2401D03*
G54D26*
X2258Y3565D03*
X3242D03*
X3559Y3627D03*
X4543D03*
G54D35*
X4825Y3094D03*
G54D27*
X2580Y3465D03*
G54D18*
X515Y3475D03*
Y3695D03*
Y3935D03*
X595Y3625D03*
Y3845D03*
X935Y3475D03*
Y3695D03*
X1015Y3625D03*
Y3845D03*
X935Y3935D03*
X1355Y3475D03*
Y3695D03*
X1435Y3625D03*
Y3845D03*
X1355Y3935D03*
G54D19*
X570Y710D03*
Y610D03*
X3750Y460D03*
Y360D03*
X4105Y3684D03*
X3997D03*
X3889D03*
X4051Y3570D03*
X3943D03*
X4213Y3684D03*
X4267Y3570D03*
X4159D03*
X4510Y360D03*
Y460D03*
X4577Y3226D03*
Y2962D03*
X4675Y3226D03*
Y2962D03*
Y3145D03*
Y3043D03*
X4818Y2280D03*
X4878Y2180D03*
Y2580D03*
X4818Y2680D03*
G54D28*
X2580Y3665D03*
X2625Y3565D03*
X2535D03*
X2850Y3465D03*
X2760D03*
X2670D03*
X2850Y3665D03*
X2760D03*
X2670Y3665D03*
X2895Y3565D03*
X2805Y3565D03*
X2715D03*
X2940Y3465D03*
Y3665D03*
G54D29*
X4019Y3143D03*
X4102Y3180D03*
X4019Y3003D03*
Y3077D03*
X4102Y3040D03*
X4019Y3217D03*
M02*
