G04 ================== begin FILE IDENTIFICATION RECORD ==================*
G04 Layout Name:  C:/HMB/HMB_V11.brd*
G04 Film Name:    Pasre_Top*
G04 File Format:  Gerber RS274X*
G04 File Origin:  15.7-p007*
G04 Origin Date:  Fri Aug 15 21:53:15 2008*
G04 *
G04 Layer:  VIA CLASS/PASTEMASK_TOP*
G04 Layer:  PIN/PASTEMASK_TOP*
G04 *
G04 Offset:    (0.00 0.00)*
G04 Mirror:    No*
G04 Mode:      Positive*
G04 Rotation:  0*
G04 FullContactRelief:  No*
G04 UndefLineWidth:     0.00*
G04 ================== end FILE IDENTIFICATION RECORD ====================*
%FSLAX53Y53*MOIN*%
%IR0*IPPOS*OFA0.00000B0.00000*MIA0B0*SFA1.00000B1.00000*%
%ADD47R,.14X.06*%
%ADD37C,.04*%
%ADD27R,.106X.047*%
%ADD11R,.047X.106*%
%ADD10C,.035*%
%ADD16R,.035X.035*%
%ADD23C,.01929*%
%ADD26R,.06299X.11811*%
%ADD31R,.02953X.00906*%
%ADD32R,.00906X.02953*%
%AMMACRO42*
4,1,6,.02165,-.06299,
.00799,-.06299,
-.02165,-.03335,
-.02165,.03335,
.00799,.06299,
.02165,.06299,
.02165,-.06299,
0.0*
%
%ADD42MACRO42*%
%ADD46R,.12795X.08465*%
%ADD49R,.08X.03*%
%ADD25R,.04X.025*%
%ADD24R,.04X.018*%
%ADD48R,.08X.026*%
%ADD39R,.055X.024*%
%ADD28R,.055X.043*%
%ADD50R,.043X.055*%
%ADD38R,.024X.039*%
%ADD21R,.11X.11*%
%ADD17R,.071X.047*%
%ADD12R,.047X.071*%
%ADD44R,.024X.059*%
%ADD19R,.03248X.01181*%
%ADD20R,.01181X.03248*%
%ADD33R,.16142X.16142*%
%ADD13R,.05512X.01772*%
%ADD36R,.05906X.01181*%
%ADD43R,.01654X.07008*%
%ADD40R,.01181X.05906*%
%ADD14R,.03937X.01181*%
%ADD34R,.01181X.03937*%
%ADD30R,.01181X.07087*%
%ADD45R,.0374X.08465*%
%ADD18R,.02362X.06299*%
%ADD15R,.03937X.01575*%
%ADD35R,.01575X.03937*%
%AMMACRO41*
4,1,6,-.02165,.06299,
-.00799,.06299,
.02165,.03335,
.02165,-.03335,
-.00799,-.06299,
-.02165,-.06299,
-.02165,.06299,
0.0*
%
%ADD41MACRO41*%
%ADD29R,.07087X.08661*%
%ADD22R,.07087X.07874*%
%LPD*%
G75*
G54D10*
X200Y400D03*
Y3600D03*
X795Y2115D03*
X1620Y1130D03*
X4800Y400D03*
Y3600D03*
G54D20*
X800Y2826D03*
X780D03*
X760D03*
X741D03*
X721D03*
Y3014D03*
X741D03*
X760D03*
X780D03*
X800D03*
X839Y2826D03*
X819D03*
Y3014D03*
X839D03*
G54D11*
X73Y1610D03*
X187D03*
G54D30*
X1919Y310D03*
X1939D03*
X1959D03*
X1978D03*
X1998D03*
X2018D03*
X2037D03*
X2057D03*
X2077D03*
X2096D03*
X2116D03*
X2136D03*
X2156D03*
X2175D03*
X2195D03*
X2215D03*
X2234D03*
X2254D03*
X2274D03*
X2293D03*
X2313D03*
X2333D03*
X2352D03*
X2372D03*
X2392D03*
X2411D03*
X2431D03*
X2451D03*
X2470D03*
X2490D03*
X2510D03*
X2530D03*
X2549D03*
X2569D03*
X2589D03*
X2608D03*
X2628D03*
X2648D03*
X2667D03*
X2687D03*
X2707D03*
X2726D03*
X2746D03*
X2766D03*
X2785D03*
X2805D03*
X2825D03*
X2844D03*
X2864D03*
X2884D03*
X2904D03*
X2923D03*
X2943D03*
X2963D03*
X2982D03*
X3002D03*
X3022D03*
X3041D03*
X3061D03*
X3081D03*
G54D12*
X283Y1610D03*
X397D03*
X1443Y3010D03*
X1557D03*
X1443Y3210D03*
X1557D03*
X1443Y3110D03*
X1557D03*
X3127Y865D03*
X3013D03*
X3223Y2770D03*
X3453Y865D03*
X3363Y1990D03*
X3477D03*
X3337Y2770D03*
X3567Y865D03*
X3783Y2780D03*
X3897D03*
G54D21*
X780Y2920D03*
G54D22*
X1080Y975D03*
Y1125D03*
X1280Y975D03*
Y1125D03*
X1970Y3225D03*
Y3075D03*
X2170Y3225D03*
Y3075D03*
X3460Y2935D03*
Y2785D03*
X3660Y2935D03*
Y2785D03*
G54D40*
X2868Y2705D03*
X2849D03*
X2829D03*
X2809D03*
X2790D03*
X2770D03*
X2750D03*
X2730D03*
X2711D03*
X2691D03*
X2671D03*
X2652D03*
Y3035D03*
X2671D03*
X2691D03*
X2711D03*
X2730D03*
X2750D03*
X2770D03*
X2790D03*
X2809D03*
X2829D03*
X2849D03*
X2868D03*
X3789Y2265D03*
X3770D03*
X3750D03*
X3730D03*
X3710D03*
X3691D03*
X3671D03*
X3651D03*
X3632D03*
Y2595D03*
X3651D03*
X3671D03*
X3691D03*
X3710D03*
X3730D03*
X3750D03*
X3770D03*
X3789D03*
X3848Y2265D03*
X3829D03*
X3809D03*
Y2595D03*
X3829D03*
X3848D03*
G54D13*
X464Y2297D03*
Y2271D03*
Y2246D03*
Y2220D03*
Y2194D03*
Y2169D03*
Y2143D03*
Y2517D03*
Y2491D03*
Y2466D03*
Y2440D03*
Y2414D03*
Y2389D03*
Y2363D03*
X696Y2143D03*
Y2169D03*
Y2194D03*
Y2220D03*
Y2246D03*
Y2271D03*
Y2297D03*
Y2363D03*
Y2389D03*
Y2414D03*
Y2440D03*
Y2466D03*
Y2491D03*
Y2517D03*
G54D31*
X1953Y2899D03*
Y2879D03*
Y2859D03*
Y2840D03*
Y2820D03*
Y2800D03*
Y2780D03*
Y2761D03*
Y2741D03*
Y2721D03*
X2187D03*
Y2741D03*
Y2761D03*
Y2780D03*
Y2800D03*
Y2820D03*
Y2840D03*
Y2859D03*
Y2879D03*
Y2899D03*
G54D41*
X3016Y1140D03*
X3456D03*
G54D14*
X360Y2281D03*
Y2300D03*
X300D03*
Y2281D03*
Y2379D03*
Y2360D03*
Y2340D03*
Y2320D03*
X360D03*
Y2340D03*
Y2360D03*
Y2379D03*
X890Y2281D03*
Y2300D03*
X830D03*
Y2281D03*
Y2379D03*
Y2360D03*
Y2340D03*
Y2320D03*
X890D03*
Y2340D03*
Y2360D03*
Y2379D03*
G54D50*
X4254Y2860D03*
X4186D03*
G54D32*
X1981Y2693D03*
X2001D03*
Y2927D03*
X1981D03*
X2021Y2693D03*
X2040D03*
X2060D03*
X2080D03*
X2100D03*
X2119D03*
X2139D03*
X2159D03*
Y2927D03*
X2139D03*
X2119D03*
X2100D03*
X2080D03*
X2060D03*
X2040D03*
X2021D03*
G54D23*
X865Y1404D03*
X905D03*
X944D03*
X983D03*
X1023D03*
X1062D03*
X1102D03*
X865Y1365D03*
X905D03*
X944D03*
X983D03*
X1023D03*
X1062D03*
X1102D03*
X865Y1325D03*
X905D03*
X944D03*
X983D03*
X1023D03*
X1062D03*
X1102D03*
X865Y1680D03*
X905D03*
X944D03*
X983D03*
X1023D03*
X1062D03*
X1102D03*
X865Y1640D03*
X905D03*
X944D03*
X983D03*
X1023D03*
X1062D03*
X1102D03*
X865Y1601D03*
X905D03*
X944D03*
X983D03*
X1023D03*
X1062D03*
X1102D03*
X865Y1562D03*
X905D03*
X944D03*
X983D03*
X1023D03*
X1062D03*
X1102D03*
X865Y1522D03*
X905D03*
X944D03*
X983D03*
X1023D03*
X1062D03*
X1102D03*
X865Y1483D03*
X905D03*
X944D03*
X983D03*
X1023D03*
X1062D03*
X1102D03*
X865Y1443D03*
X905D03*
X944D03*
X983D03*
X1023D03*
X1062D03*
X1102D03*
X865Y1995D03*
X905D03*
X944D03*
X983D03*
X1023D03*
X1062D03*
X1102D03*
X865Y1955D03*
X905D03*
X944D03*
X983D03*
X1023D03*
X1062D03*
X1102D03*
X865Y1916D03*
X905D03*
X944D03*
X983D03*
X1023D03*
X1062D03*
X1102D03*
X865Y1877D03*
X905D03*
X944D03*
X983D03*
X1023D03*
X1062D03*
X1102D03*
X865Y1837D03*
X905D03*
X944D03*
X983D03*
X1023D03*
X1062D03*
X1102D03*
X865Y1798D03*
X905D03*
X944D03*
X983D03*
X1023D03*
X1062D03*
X1102D03*
X865Y1758D03*
X905D03*
X944D03*
X983D03*
X1023D03*
X1062D03*
X1102D03*
X865Y1719D03*
X905D03*
X944D03*
X983D03*
X1023D03*
X1062D03*
X1102D03*
X1141Y1404D03*
X1180D03*
X1220D03*
X1259D03*
X1298D03*
X1338D03*
X1377D03*
X1141Y1365D03*
X1180D03*
X1220D03*
X1259D03*
X1298D03*
X1338D03*
X1377D03*
X1141Y1325D03*
X1180D03*
X1220D03*
X1259D03*
X1298D03*
X1338D03*
X1377D03*
X1141Y1680D03*
X1180D03*
X1220D03*
X1259D03*
X1298D03*
X1338D03*
X1377D03*
X1141Y1640D03*
X1180D03*
X1220D03*
X1259D03*
X1298D03*
X1338D03*
X1377D03*
X1141Y1601D03*
X1180D03*
X1220D03*
X1259D03*
X1298D03*
X1338D03*
X1377D03*
X1141Y1562D03*
X1180D03*
X1220D03*
X1259D03*
X1298D03*
X1338D03*
X1377D03*
X1141Y1522D03*
X1180D03*
X1220D03*
X1259D03*
X1298D03*
X1338D03*
X1377D03*
X1141Y1483D03*
X1180D03*
X1220D03*
X1259D03*
X1298D03*
X1338D03*
X1377D03*
X1141Y1443D03*
X1180D03*
X1220D03*
X1259D03*
X1298D03*
X1338D03*
X1377D03*
X1141Y1995D03*
X1180D03*
X1220D03*
X1259D03*
X1298D03*
X1338D03*
X1377D03*
X1141Y1955D03*
X1180D03*
X1220D03*
X1259D03*
X1298D03*
X1338D03*
X1377D03*
X1141Y1916D03*
X1180D03*
X1220D03*
X1259D03*
X1298D03*
X1338D03*
X1377D03*
X1141Y1877D03*
X1180D03*
X1220D03*
X1259D03*
X1298D03*
X1338D03*
X1377D03*
X1141Y1837D03*
X1180D03*
X1220D03*
X1259D03*
X1298D03*
X1338D03*
X1377D03*
X1141Y1798D03*
X1180D03*
X1220D03*
X1259D03*
X1298D03*
X1338D03*
X1377D03*
X1141Y1758D03*
X1180D03*
X1220D03*
X1259D03*
X1298D03*
X1338D03*
X1377D03*
X1141Y1719D03*
X1180D03*
X1220D03*
X1259D03*
X1298D03*
X1338D03*
X1377D03*
X1417Y1404D03*
X1456D03*
X1495D03*
X1535D03*
X1417Y1365D03*
X1456D03*
X1495D03*
X1535D03*
X1417Y1325D03*
X1456D03*
X1495D03*
X1535D03*
X1417Y1680D03*
X1456D03*
X1495D03*
X1535D03*
X1417Y1640D03*
X1456D03*
X1495D03*
X1535D03*
X1417Y1601D03*
X1456D03*
X1495D03*
X1535D03*
X1417Y1562D03*
X1456D03*
X1495D03*
X1535D03*
X1417Y1522D03*
X1456D03*
X1495D03*
X1535D03*
X1417Y1483D03*
X1456D03*
X1495D03*
X1535D03*
X1417Y1443D03*
X1456D03*
X1495D03*
X1535D03*
X1417Y1995D03*
X1456D03*
X1495D03*
X1535D03*
X1417Y1955D03*
X1456D03*
X1495D03*
X1535D03*
X1417Y1916D03*
X1456D03*
X1495D03*
X1535D03*
X1417Y1877D03*
X1456D03*
X1495D03*
X1535D03*
X1417Y1837D03*
X1456D03*
X1495D03*
X1535D03*
X1417Y1798D03*
X1456D03*
X1495D03*
X1535D03*
X1417Y1758D03*
X1456D03*
X1495D03*
X1535D03*
X1417Y1719D03*
X1456D03*
X1495D03*
X1535D03*
G54D15*
X300Y2259D03*
X360D03*
X300Y2401D03*
X360D03*
X830Y2259D03*
X890D03*
X830Y2401D03*
X890D03*
G54D33*
X2070Y2810D03*
G54D24*
X1040Y2735D03*
Y2705D03*
X1100D03*
Y2735D03*
G54D42*
X2934Y1140D03*
X3374D03*
G54D34*
X2223Y2520D03*
X2242D03*
X2302Y2580D03*
X2262Y2520D03*
X2282D03*
X2302D03*
X2282Y2580D03*
X2262D03*
X2242D03*
X2223D03*
X2321D03*
Y2520D03*
G54D43*
X3500Y537D03*
X3474D03*
X3448D03*
X3423D03*
X3397D03*
X3372D03*
X3346D03*
X3320D03*
Y303D03*
X3346D03*
X3372D03*
X3397D03*
X3423D03*
X3448D03*
X3474D03*
X3500D03*
X3850Y3013D03*
X3876D03*
X3902D03*
X3927D03*
X3953D03*
X3978D03*
X4004D03*
X4030D03*
Y3247D03*
X4004D03*
X3978D03*
X3953D03*
X3927D03*
X3902D03*
X3876D03*
X3850D03*
G54D25*
X1040Y2770D03*
Y2670D03*
X1100D03*
Y2770D03*
G54D16*
X300Y2195D03*
X360D03*
X690Y220D03*
X630D03*
X760D03*
X820D03*
X740Y2670D03*
X680D03*
X740Y2740D03*
X680D03*
X540Y2670D03*
X600D03*
X540Y2740D03*
X600D03*
Y2880D03*
X540D03*
X600Y2810D03*
X540D03*
X820Y3090D03*
X540Y2950D03*
X600D03*
X680Y3160D03*
X740D03*
X680Y3090D03*
X740D03*
X820Y3160D03*
X540Y3020D03*
X600D03*
X540Y3160D03*
X600D03*
Y3090D03*
X540D03*
X740Y3230D03*
X680D03*
X540D03*
X600D03*
X820D03*
X980Y1080D03*
Y1140D03*
X890Y2195D03*
X830D03*
X880Y3090D03*
Y3160D03*
X960Y2950D03*
X1020D03*
X880Y3230D03*
X1180Y2740D03*
X1240D03*
X1675Y2880D03*
Y2950D03*
X1960Y170D03*
Y110D03*
X2000Y2580D03*
Y2520D03*
X1735Y2880D03*
X1870Y2810D03*
X1810D03*
Y2670D03*
X1870D03*
X1810Y2880D03*
X1870D03*
Y2740D03*
X1810D03*
Y2950D03*
X1870D03*
X1735D03*
X2070Y2580D03*
Y2520D03*
X2140Y2580D03*
Y2520D03*
X2580Y110D03*
Y170D03*
X2420Y110D03*
Y170D03*
X2500Y3170D03*
X2430D03*
X2570D03*
X2500Y3230D03*
X2430D03*
X2570D03*
X2920Y110D03*
Y170D03*
X2725Y1025D03*
X2785D03*
X2850Y950D03*
Y1010D03*
Y825D03*
Y885D03*
X2915Y825D03*
Y885D03*
X2850Y1125D03*
Y1185D03*
X2780Y3170D03*
X2710D03*
X2850D03*
X2920D03*
X2640D03*
X2780Y3230D03*
X2710D03*
X2850D03*
X2920D03*
X2640D03*
X2990Y3170D03*
X3130Y3010D03*
X3070D03*
X3130Y3080D03*
X3070D03*
X2990Y3230D03*
X3290Y170D03*
Y110D03*
X3500Y170D03*
Y110D03*
X3430Y170D03*
Y110D03*
X3360Y170D03*
Y110D03*
X3290Y720D03*
Y660D03*
X3360Y720D03*
Y660D03*
X3500Y720D03*
Y660D03*
X3430D03*
Y720D03*
X3290Y885D03*
Y825D03*
Y950D03*
Y1010D03*
Y1080D03*
X3355Y825D03*
Y885D03*
X3290Y1140D03*
X3510Y1670D03*
X3380D03*
X3440D03*
Y2160D03*
X3380D03*
X3440Y2280D03*
X3380D03*
X3440Y2220D03*
X3380D03*
X3440Y2460D03*
X3380D03*
X3440Y2340D03*
X3380D03*
X3440Y2400D03*
X3380D03*
X3440Y2520D03*
X3380D03*
X3440Y2580D03*
X3380D03*
X3440Y2640D03*
X3380D03*
X3570Y170D03*
Y110D03*
X3780Y1175D03*
Y1670D03*
X3570D03*
X3590Y1510D03*
Y1450D03*
X3780Y1470D03*
X3650Y1970D03*
X3780Y1765D03*
X3730Y1970D03*
X3570D03*
X3650Y2030D03*
X3770Y2160D03*
Y2100D03*
X3730Y2030D03*
X3690Y2160D03*
Y2100D03*
X3570Y2030D03*
X3530Y2160D03*
Y2100D03*
X3610Y2160D03*
Y2100D03*
X3780Y2690D03*
Y2870D03*
X3680Y3090D03*
X3620D03*
X3680Y3160D03*
X3620D03*
X3780Y2940D03*
X3680Y3230D03*
X3620D03*
X3840Y1175D03*
Y1670D03*
Y1470D03*
Y1765D03*
X4040Y2130D03*
X4100D03*
X4040Y2200D03*
X4100D03*
X4040Y2270D03*
X4100D03*
X4040Y2340D03*
X4100D03*
X4040Y2580D03*
X4100D03*
X4040Y2400D03*
X4100D03*
X4040Y2460D03*
X4100D03*
X4040Y2520D03*
X4100D03*
X4040Y2700D03*
X4100D03*
Y2760D03*
X4040D03*
X3840Y2690D03*
X4100Y2640D03*
X4040D03*
Y2870D03*
X4100D03*
X3910D03*
X3970D03*
X3840D03*
X4040Y2940D03*
X4100D03*
X3910D03*
X3970D03*
X3840D03*
X4170Y2130D03*
X4230D03*
X4170Y2270D03*
X4230D03*
Y2460D03*
X4170D03*
X4230Y2400D03*
X4170D03*
X4230Y2940D03*
X4170D03*
G54D35*
X2201Y2520D03*
Y2580D03*
X2343Y2520D03*
Y2580D03*
G54D44*
X3573Y668D03*
X3647D03*
X3610Y752D03*
G54D17*
X560Y437D03*
Y323D03*
X880Y333D03*
Y447D03*
X2765Y947D03*
Y833D03*
X3120Y1063D03*
Y1177D03*
X3590Y477D03*
Y363D03*
X3560Y1063D03*
Y1177D03*
X3960Y363D03*
Y477D03*
X4360D03*
Y363D03*
X4200Y2573D03*
Y2687D03*
G54D26*
X1040Y3051D03*
Y3229D03*
X1280Y3051D03*
Y3229D03*
G54D18*
X645Y306D03*
X695D03*
X745D03*
X795D03*
Y514D03*
X745D03*
X695D03*
X645D03*
X1645Y3056D03*
X1695D03*
Y3264D03*
X1645D03*
X1745Y3056D03*
X1795D03*
Y3264D03*
X1745D03*
X3375Y1376D03*
X3425D03*
X3475D03*
Y1584D03*
X3425D03*
X3375D03*
X3525Y1376D03*
Y1584D03*
G54D45*
X4069Y306D03*
X4160D03*
X4251D03*
G54D36*
X2595Y2762D03*
Y2781D03*
Y2801D03*
Y2821D03*
Y2840D03*
Y2860D03*
Y2880D03*
Y2900D03*
Y2919D03*
Y2939D03*
Y2959D03*
Y2978D03*
X2925Y2900D03*
Y2880D03*
Y2860D03*
Y2840D03*
Y2821D03*
Y2801D03*
Y2781D03*
Y2762D03*
Y2978D03*
Y2959D03*
Y2939D03*
Y2919D03*
X3575Y2322D03*
Y2341D03*
Y2361D03*
Y2381D03*
Y2400D03*
Y2420D03*
Y2440D03*
Y2460D03*
Y2479D03*
Y2499D03*
Y2519D03*
Y2538D03*
X3905D03*
Y2519D03*
Y2499D03*
Y2479D03*
Y2460D03*
Y2440D03*
Y2420D03*
Y2400D03*
Y2381D03*
Y2361D03*
Y2341D03*
Y2322D03*
G54D27*
X1460Y1107D03*
Y993D03*
G54D19*
X686Y2861D03*
Y2881D03*
Y2900D03*
Y2920D03*
Y2940D03*
Y2959D03*
Y2979D03*
X874Y2900D03*
Y2881D03*
Y2861D03*
Y2979D03*
Y2959D03*
Y2940D03*
Y2920D03*
G54D28*
X1880Y174D03*
Y106D03*
X2040Y174D03*
Y106D03*
X2250Y174D03*
Y106D03*
X2500Y174D03*
Y106D03*
X2340Y174D03*
Y106D03*
X2840Y174D03*
Y106D03*
X2750Y174D03*
Y106D03*
X2660Y174D03*
Y106D03*
X3000Y174D03*
Y106D03*
X3400Y3214D03*
Y3146D03*
X3500Y3214D03*
Y3146D03*
G54D46*
X4160Y534D03*
G54D37*
X2595Y3035D03*
X2925Y2705D03*
X3575Y2595D03*
X3905Y2265D03*
G54D29*
X1844Y432D03*
X3156D03*
G54D38*
X2785Y1118D03*
X2720D03*
X2785Y1182D03*
X2720D03*
X3080Y172D03*
Y108D03*
G54D47*
X4043Y955D03*
Y1960D03*
X4882Y955D03*
Y2025D03*
G54D39*
X2926Y1027D03*
Y990D03*
Y953D03*
X3024D03*
Y990D03*
Y1027D03*
X3366D03*
Y990D03*
Y953D03*
X3464D03*
Y990D03*
Y1027D03*
G54D48*
X3972Y1015D03*
Y1058D03*
G54D49*
Y1111D03*
Y1175D03*
Y1274D03*
Y1372D03*
Y1470D03*
Y1569D03*
Y1667D03*
Y1864D03*
Y1765D03*
M02*
