G04 ================== begin FILE IDENTIFICATION RECORD ==================*
G04 Layout Name:  C:/HMB/HMB_V11.brd*
G04 Film Name:    Silk_Bot*
G04 File Format:  Gerber RS274X*
G04 File Origin:  15.7-p007*
G04 Origin Date:  Fri Aug 15 21:53:15 2008*
G04 *
G04 Layer:  REF DES/SILKSCREEN_BOTTOM*
G04 Layer:  PACKAGE GEOMETRY/SILKSCREEN_BOTTOM*
G04 Layer:  BOARD GEOMETRY/SILKSCREEN_BOTTOM*
G04 *
G04 Offset:    (0.00 0.00)*
G04 Mirror:    No*
G04 Mode:      Positive*
G04 Rotation:  0*
G04 FullContactRelief:  No*
G04 UndefLineWidth:     7.00*
G04 ================== end FILE IDENTIFICATION RECORD ====================*
%FSLAX53Y53*MOIN*%
%IR0*IPPOS*OFA0.00000B0.00000*MIA0B0*SFA1.00000B1.00000*%
%ADD10C,.006*%
%ADD11C,.008*%
G75*
%LPD*%
G75*
G54D10*
G01X10Y900D02*
X60D01*
X50Y896D01*
G01X10D02*
Y904D01*
G01X18Y918D02*
X13Y920D01*
X11Y922D01*
X10Y925D01*
X12Y928D01*
X15Y930D01*
X21Y932D01*
X28Y932D01*
X34Y932D01*
X38Y930D01*
X42Y928D01*
X42Y925D01*
X42Y923D01*
X38Y920D01*
X60Y921D01*
Y930D01*
G01X16Y944D02*
X12Y947D01*
X10Y949D01*
X12Y952D01*
X17Y954D01*
X24Y956D01*
X32Y957D01*
X41D01*
X48Y956D01*
X55Y954D01*
X58Y952D01*
X60Y950D01*
X58Y947D01*
X55Y945D01*
X50Y944D01*
X43Y943D01*
X38Y944D01*
X32Y946D01*
X28Y948D01*
X28Y950D01*
X29Y953D01*
X33Y955D01*
X41Y957D01*
G01X16Y1694D02*
X12Y1697D01*
X10Y1699D01*
X12Y1702D01*
X17Y1704D01*
X24Y1706D01*
X32Y1707D01*
X41D01*
X48Y1706D01*
X55Y1704D01*
X58Y1702D01*
X60Y1700D01*
X58Y1697D01*
X55Y1695D01*
X50Y1694D01*
X43Y1693D01*
X38Y1694D01*
X32Y1696D01*
X28Y1698D01*
X28Y1700D01*
X29Y1703D01*
X33Y1705D01*
X41Y1707D01*
G01X16Y1719D02*
X12Y1722D01*
X10Y1724D01*
X12Y1727D01*
X17Y1729D01*
X24Y1731D01*
X32Y1732D01*
X41D01*
X48Y1731D01*
X55Y1729D01*
X58Y1727D01*
X60Y1725D01*
X58Y1722D01*
X55Y1720D01*
X50Y1719D01*
X43Y1718D01*
X38Y1719D01*
X32Y1721D01*
X28Y1723D01*
X28Y1725D01*
X29Y1728D01*
X33Y1730D01*
X41Y1732D01*
G01X10Y1480D02*
X60D01*
X50Y1476D01*
G01X10D02*
Y1484D01*
G01X60Y1505D02*
X58Y1502D01*
X54Y1500D01*
X49Y1499D01*
X42Y1498D01*
X35Y1498D01*
X28Y1498D01*
X21Y1499D01*
X16Y1500D01*
X12Y1502D01*
X10Y1505D01*
X12Y1508D01*
X16Y1510D01*
X21Y1511D01*
X28Y1512D01*
X35Y1512D01*
X42Y1512D01*
X49Y1511D01*
X54Y1510D01*
X58Y1508D01*
X60Y1505D01*
G01X10Y1530D02*
X60D01*
X50Y1526D01*
G01X10D02*
Y1534D01*
G01Y2284D02*
X60D01*
X24Y2272D01*
Y2288D01*
G01X10Y2305D02*
X60D01*
X50Y2301D01*
G01X10D02*
Y2309D01*
G01X20Y2503D02*
X14Y2505D01*
X11Y2507D01*
X10Y2510D01*
X11Y2513D01*
X15Y2516D01*
X20Y2517D01*
X25Y2518D01*
X31Y2517D01*
X35Y2515D01*
X37Y2512D01*
Y2509D01*
G01Y2512D02*
X39Y2514D01*
X43Y2516D01*
X48Y2517D01*
X53Y2516D01*
X58Y2514D01*
X60Y2511D01*
X59Y2508D01*
X56Y2505D01*
G01X16Y2529D02*
X12Y2532D01*
X10Y2534D01*
X12Y2537D01*
X17Y2539D01*
X24Y2541D01*
X32Y2542D01*
X41D01*
X48Y2541D01*
X55Y2539D01*
X58Y2537D01*
X60Y2535D01*
X58Y2532D01*
X55Y2530D01*
X50Y2529D01*
X43Y2528D01*
X38Y2529D01*
X32Y2531D01*
X28Y2533D01*
X28Y2535D01*
X29Y2538D01*
X33Y2540D01*
X41Y2542D01*
G01X15Y3080D02*
X65D01*
X55Y3076D01*
G01X15D02*
Y3084D01*
G01X390Y900D02*
X440D01*
X430Y896D01*
G01X390D02*
Y904D01*
G01X411Y919D02*
X417Y921D01*
X420Y923D01*
X422Y926D01*
X420Y928D01*
X417Y930D01*
X412Y931D01*
X406Y931D01*
X401Y931D01*
X396Y930D01*
X392Y928D01*
X390Y925D01*
X392Y923D01*
X397Y920D01*
X404Y919D01*
X413Y919D01*
X423Y919D01*
X429Y920D01*
X435Y922D01*
X439Y924D01*
X440Y927D01*
X438Y929D01*
X434Y931D01*
G01X440Y950D02*
X438Y947D01*
X434Y945D01*
X429Y944D01*
X422Y943D01*
X415Y943D01*
X408Y943D01*
X401Y944D01*
X396Y945D01*
X392Y947D01*
X390Y950D01*
X392Y953D01*
X396Y955D01*
X401Y956D01*
X408Y957D01*
X415Y957D01*
X422Y957D01*
X429Y956D01*
X434Y955D01*
X438Y953D01*
X440Y950D01*
G01X560Y1734D02*
X558Y1737D01*
X558Y1741D01*
X557Y1747D01*
X558Y1752D01*
X559Y1755D01*
X561Y1758D01*
X570D01*
Y1708D01*
X559D01*
X557Y1711D01*
X556Y1716D01*
X555Y1722D01*
X556Y1728D01*
X558Y1732D01*
X560Y1734D01*
X570D01*
G01X530Y1753D02*
X532Y1756D01*
X534Y1758D01*
X537D01*
X540Y1755D01*
X542Y1751D01*
X544Y1746D01*
X546Y1738D01*
X546Y1730D01*
X545Y1723D01*
X544Y1718D01*
X542Y1713D01*
X540Y1709D01*
X538Y1708D01*
X535D01*
X533Y1709D01*
X531Y1712D01*
X529Y1715D01*
G01X519Y1749D02*
X517Y1754D01*
X514Y1757D01*
X512Y1758D01*
X509Y1756D01*
X506Y1752D01*
X506Y1747D01*
X506Y1742D01*
X507Y1738D01*
X514Y1729D01*
X517Y1723D01*
X519Y1715D01*
X520Y1708D01*
X506D01*
G01X495Y1715D02*
X493Y1711D01*
X490Y1708D01*
X488Y1708D01*
X484Y1709D01*
X482Y1713D01*
X480Y1718D01*
X480Y1725D01*
X481Y1732D01*
X482Y1736D01*
X485Y1739D01*
X487Y1740D01*
X490Y1739D01*
X492Y1736D01*
X492Y1758D01*
X482D01*
G01X390Y1480D02*
X440D01*
X430Y1476D01*
G01X390D02*
Y1484D01*
G01X440Y1505D02*
X438Y1502D01*
X434Y1500D01*
X429Y1499D01*
X422Y1498D01*
X415Y1498D01*
X408Y1498D01*
X401Y1499D01*
X396Y1500D01*
X392Y1502D01*
X390Y1505D01*
X392Y1508D01*
X396Y1510D01*
X401Y1511D01*
X408Y1512D01*
X415Y1512D01*
X422Y1512D01*
X429Y1511D01*
X434Y1510D01*
X438Y1508D01*
X440Y1505D01*
G01X432Y1524D02*
X437Y1526D01*
X439Y1528D01*
X440Y1531D01*
X438Y1534D01*
X434Y1536D01*
X429Y1537D01*
X424Y1537D01*
X420Y1535D01*
X412Y1529D01*
X406Y1526D01*
X398Y1524D01*
X390Y1523D01*
Y1537D01*
G01Y1690D02*
X440D01*
X430Y1686D01*
G01X390D02*
Y1694D01*
G01X440Y1715D02*
X438Y1712D01*
X434Y1710D01*
X429Y1709D01*
X422Y1708D01*
X415Y1708D01*
X408Y1708D01*
X401Y1709D01*
X396Y1710D01*
X392Y1712D01*
X390Y1715D01*
X392Y1718D01*
X396Y1720D01*
X401Y1721D01*
X408Y1722D01*
X415Y1722D01*
X422Y1722D01*
X429Y1721D01*
X434Y1720D01*
X438Y1718D01*
X440Y1715D01*
G01Y1740D02*
X438Y1737D01*
X434Y1735D01*
X429Y1734D01*
X422Y1733D01*
X415Y1733D01*
X408Y1733D01*
X401Y1734D01*
X396Y1735D01*
X392Y1737D01*
X390Y1740D01*
X392Y1743D01*
X396Y1745D01*
X401Y1746D01*
X408Y1747D01*
X415Y1747D01*
X422Y1747D01*
X429Y1746D01*
X434Y1745D01*
X438Y1743D01*
X440Y1740D01*
G01X390Y2284D02*
X440D01*
X404Y2272D01*
Y2288D01*
G01X432Y2299D02*
X437Y2301D01*
X439Y2303D01*
X440Y2306D01*
X438Y2309D01*
X434Y2311D01*
X429Y2312D01*
X424Y2312D01*
X420Y2310D01*
X412Y2304D01*
X406Y2301D01*
X398Y2299D01*
X390Y2298D01*
Y2312D01*
G01X527Y2440D02*
Y2490D01*
X518D01*
X516Y2488D01*
X514Y2484D01*
X513Y2478D01*
X514Y2471D01*
X516Y2467D01*
X518Y2464D01*
X527D01*
G01X518D02*
X513Y2440D01*
G01X503D02*
Y2490D01*
X487Y2440D01*
Y2490D01*
G01X477Y2450D02*
X475Y2444D01*
X473Y2441D01*
X470Y2440D01*
X467Y2441D01*
X464Y2445D01*
X463Y2450D01*
X462Y2455D01*
X463Y2461D01*
X465Y2465D01*
X468Y2467D01*
X471D01*
G01X468D02*
X466Y2469D01*
X464Y2473D01*
X463Y2478D01*
X464Y2483D01*
X466Y2488D01*
X469Y2490D01*
X472Y2489D01*
X475Y2486D01*
G01X390Y2514D02*
X440D01*
X404Y2502D01*
Y2518D01*
G01X440Y2535D02*
X438Y2532D01*
X434Y2530D01*
X429Y2529D01*
X422Y2528D01*
X415Y2528D01*
X408Y2528D01*
X401Y2529D01*
X396Y2530D01*
X392Y2532D01*
X390Y2535D01*
X392Y2538D01*
X396Y2540D01*
X401Y2541D01*
X408Y2542D01*
X415Y2542D01*
X422Y2542D01*
X429Y2541D01*
X434Y2540D01*
X438Y2538D01*
X440Y2535D01*
G01X387Y3220D02*
X385Y3215D01*
X383Y3212D01*
X381Y3210D01*
X378Y3212D01*
X376Y3215D01*
X374Y3220D01*
X373Y3227D01*
Y3260D01*
G01X361Y3231D02*
X359Y3237D01*
X357Y3240D01*
X354Y3242D01*
X352Y3240D01*
X350Y3237D01*
X349Y3232D01*
X349Y3226D01*
X349Y3221D01*
X350Y3216D01*
X352Y3212D01*
X355Y3210D01*
X357Y3212D01*
X360Y3217D01*
X361Y3224D01*
X361Y3232D01*
X361Y3243D01*
X360Y3249D01*
X358Y3255D01*
X356Y3259D01*
X353Y3260D01*
X351Y3258D01*
X349Y3254D01*
G01X432Y3074D02*
X437Y3076D01*
X439Y3078D01*
X440Y3081D01*
X438Y3084D01*
X434Y3086D01*
X429Y3087D01*
X424Y3087D01*
X420Y3085D01*
X412Y3079D01*
X406Y3076D01*
X398Y3074D01*
X390Y3073D01*
Y3087D01*
G01X726Y732D02*
X724Y737D01*
X722Y739D01*
X719Y740D01*
X716Y738D01*
X714Y734D01*
X713Y729D01*
X713Y724D01*
X715Y720D01*
X721Y712D01*
X724Y706D01*
X726Y698D01*
X727Y690D01*
X713D01*
G01X695Y688D02*
X696Y689D01*
Y691D01*
X695Y692D01*
X694Y691D01*
Y689D01*
X695Y688D01*
G01X677Y698D02*
X675Y693D01*
X673Y691D01*
X670Y690D01*
X667Y692D01*
X665Y695D01*
X663Y701D01*
X663Y708D01*
X663Y714D01*
X665Y718D01*
X667Y722D01*
X670Y722D01*
X672Y722D01*
X675Y718D01*
X674Y740D01*
X665D01*
G01X653D02*
X645Y690D01*
X637Y740D01*
G01X718Y615D02*
X711D01*
Y600D01*
X713Y595D01*
X716Y592D01*
X719Y590D01*
X722Y592D01*
X725Y595D01*
X727Y600D01*
X728Y606D01*
X729Y612D01*
Y618D01*
X728Y623D01*
X727Y629D01*
X725Y634D01*
X723Y638D01*
X720Y640D01*
X718D01*
X715Y638D01*
X713Y635D01*
G01X703Y590D02*
Y640D01*
X687Y590D01*
Y640D01*
G01X677Y590D02*
Y640D01*
X671D01*
X668Y638D01*
X666Y634D01*
X664Y629D01*
X663Y623D01*
X663Y615D01*
X663Y607D01*
X664Y601D01*
X666Y596D01*
X668Y592D01*
X671Y590D01*
X677D01*
G01X645D02*
Y640D01*
X649Y630D01*
G01Y590D02*
X641D01*
G01X832Y2793D02*
X834Y2794D01*
X838Y2795D01*
X844Y2796D01*
X849Y2795D01*
X852Y2794D01*
X855Y2791D01*
Y2782D01*
X805D01*
Y2793D01*
X808Y2796D01*
X813Y2797D01*
X819Y2798D01*
X825Y2797D01*
X830Y2795D01*
X832Y2793D01*
Y2782D01*
G01X851Y2822D02*
X853Y2820D01*
X855Y2818D01*
Y2815D01*
X852Y2812D01*
X848Y2810D01*
X843Y2808D01*
X835Y2807D01*
X828Y2807D01*
X820Y2807D01*
X815Y2808D01*
X810Y2810D01*
X807Y2813D01*
X805Y2815D01*
Y2817D01*
X807Y2820D01*
X809Y2822D01*
X812Y2823D01*
G01X847Y2834D02*
X852Y2836D01*
X854Y2838D01*
X855Y2841D01*
X853Y2844D01*
X849Y2846D01*
X844Y2847D01*
X839Y2847D01*
X835Y2845D01*
X827Y2839D01*
X821Y2836D01*
X812Y2834D01*
X805Y2833D01*
Y2847D01*
G01X762Y2793D02*
X764Y2794D01*
X768Y2795D01*
X774Y2796D01*
X779Y2795D01*
X782Y2794D01*
X785Y2791D01*
Y2782D01*
X735D01*
Y2793D01*
X738Y2796D01*
X743Y2797D01*
X749Y2798D01*
X755Y2797D01*
X760Y2795D01*
X762Y2793D01*
Y2782D01*
G01X781Y2822D02*
X783Y2820D01*
X785Y2818D01*
Y2815D01*
X782Y2812D01*
X778Y2810D01*
X773Y2808D01*
X765Y2807D01*
X758Y2807D01*
X750Y2807D01*
X745Y2808D01*
X740Y2810D01*
X737Y2813D01*
X735Y2815D01*
Y2817D01*
X737Y2820D01*
X739Y2822D01*
X742Y2823D01*
G01X735Y2840D02*
X785D01*
X775Y2836D01*
G01X735D02*
Y2844D01*
G01X817Y3193D02*
X819Y3194D01*
X823Y3195D01*
X829Y3196D01*
X834Y3195D01*
X838Y3194D01*
X840Y3191D01*
Y3182D01*
X790D01*
Y3193D01*
X793Y3196D01*
X798Y3197D01*
X804Y3198D01*
X810Y3197D01*
X815Y3195D01*
X817Y3193D01*
Y3182D01*
G01X836Y3222D02*
X838Y3220D01*
X840Y3218D01*
Y3215D01*
X838Y3212D01*
X833Y3210D01*
X828Y3208D01*
X820Y3207D01*
X812Y3207D01*
X805Y3207D01*
X800Y3208D01*
X795Y3210D01*
X792Y3213D01*
X790Y3215D01*
Y3217D01*
X792Y3220D01*
X794Y3222D01*
X798Y3223D01*
G01X790Y3244D02*
X840D01*
X804Y3232D01*
Y3248D01*
G01X746Y3267D02*
X748Y3265D01*
X750Y3263D01*
Y3260D01*
X748Y3257D01*
X743Y3255D01*
X738Y3253D01*
X730Y3252D01*
X722Y3252D01*
X715Y3252D01*
X710Y3253D01*
X705Y3255D01*
X702Y3258D01*
X700Y3260D01*
Y3262D01*
X702Y3265D01*
X704Y3267D01*
X708Y3268D01*
G01X700Y3289D02*
X750D01*
X714Y3277D01*
Y3293D01*
G01X927Y1307D02*
X926Y1309D01*
X925Y1313D01*
X924Y1319D01*
X925Y1324D01*
X926Y1328D01*
X929Y1330D01*
X938D01*
Y1280D01*
X927D01*
X924Y1283D01*
X923Y1288D01*
X922Y1294D01*
X923Y1300D01*
X925Y1305D01*
X927Y1307D01*
X938D01*
G01X898Y1326D02*
X900Y1328D01*
X902Y1330D01*
X905D01*
X908Y1328D01*
X910Y1323D01*
X912Y1318D01*
X913Y1310D01*
X913Y1302D01*
X913Y1295D01*
X912Y1290D01*
X910Y1285D01*
X907Y1282D01*
X905Y1280D01*
X903D01*
X900Y1282D01*
X898Y1284D01*
X897Y1288D01*
G01X886Y1322D02*
X884Y1327D01*
X882Y1329D01*
X879Y1330D01*
X876Y1328D01*
X874Y1324D01*
X873Y1319D01*
X873Y1314D01*
X875Y1310D01*
X881Y1302D01*
X884Y1296D01*
X886Y1288D01*
X887Y1280D01*
X873D01*
G01X856D02*
X855Y1291D01*
X854Y1300D01*
X853Y1308D01*
X851Y1318D01*
X848Y1330D01*
X862D01*
G01X1077Y1737D02*
X1076Y1739D01*
X1075Y1743D01*
X1074Y1749D01*
X1075Y1754D01*
X1076Y1758D01*
X1079Y1760D01*
X1088D01*
Y1710D01*
X1077D01*
X1074Y1713D01*
X1073Y1718D01*
X1072Y1724D01*
X1073Y1730D01*
X1075Y1735D01*
X1077Y1737D01*
X1088D01*
G01X1048Y1756D02*
X1050Y1758D01*
X1052Y1760D01*
X1055D01*
X1058Y1758D01*
X1060Y1753D01*
X1062Y1748D01*
X1063Y1740D01*
X1063Y1732D01*
X1063Y1725D01*
X1062Y1720D01*
X1060Y1715D01*
X1057Y1712D01*
X1055Y1710D01*
X1053D01*
X1050Y1712D01*
X1048Y1714D01*
X1047Y1718D01*
G01X1036Y1752D02*
X1034Y1757D01*
X1032Y1759D01*
X1029Y1760D01*
X1026Y1758D01*
X1024Y1754D01*
X1023Y1749D01*
X1023Y1744D01*
X1025Y1740D01*
X1031Y1732D01*
X1034Y1726D01*
X1036Y1718D01*
X1037Y1710D01*
X1023D01*
G01X1011Y1731D02*
X1009Y1737D01*
X1007Y1740D01*
X1004Y1742D01*
X1002Y1740D01*
X1000Y1737D01*
X999Y1732D01*
X999Y1726D01*
X999Y1721D01*
X1000Y1716D01*
X1002Y1712D01*
X1005Y1710D01*
X1007Y1712D01*
X1010Y1717D01*
X1011Y1724D01*
X1011Y1732D01*
X1011Y1743D01*
X1010Y1749D01*
X1008Y1755D01*
X1006Y1759D01*
X1003Y1760D01*
X1001Y1758D01*
X999Y1754D01*
G01X930Y2164D02*
X928Y2167D01*
X928Y2171D01*
X927Y2177D01*
X928Y2182D01*
X929Y2185D01*
X931Y2188D01*
X940D01*
Y2138D01*
X929D01*
X927Y2141D01*
X926Y2146D01*
X925Y2152D01*
X926Y2158D01*
X928Y2162D01*
X930Y2164D01*
X940D01*
G01X900Y2183D02*
X902Y2186D01*
X904Y2188D01*
X907D01*
X910Y2185D01*
X912Y2181D01*
X914Y2176D01*
X916Y2168D01*
X916Y2160D01*
X915Y2152D01*
X914Y2148D01*
X912Y2142D01*
X910Y2139D01*
X908Y2138D01*
X905D01*
X903Y2139D01*
X901Y2142D01*
X899Y2145D01*
G01X889Y2179D02*
X887Y2184D01*
X885Y2187D01*
X882Y2188D01*
X879Y2186D01*
X876Y2182D01*
X876Y2177D01*
X876Y2172D01*
X877Y2168D01*
X884Y2159D01*
X887Y2153D01*
X889Y2145D01*
X890Y2138D01*
X876D01*
G01X858D02*
Y2188D01*
X862Y2178D01*
G01Y2138D02*
X854D01*
G01X1327Y1737D02*
X1326Y1739D01*
X1325Y1743D01*
X1324Y1749D01*
X1325Y1754D01*
X1326Y1758D01*
X1329Y1760D01*
X1338D01*
Y1710D01*
X1327D01*
X1324Y1713D01*
X1323Y1718D01*
X1322Y1724D01*
X1323Y1730D01*
X1325Y1735D01*
X1327Y1737D01*
X1338D01*
G01X1298Y1756D02*
X1300Y1758D01*
X1302Y1760D01*
X1305D01*
X1308Y1758D01*
X1310Y1753D01*
X1312Y1748D01*
X1313Y1740D01*
X1313Y1732D01*
X1313Y1725D01*
X1312Y1720D01*
X1310Y1715D01*
X1307Y1712D01*
X1305Y1710D01*
X1303D01*
X1300Y1712D01*
X1298Y1714D01*
X1297Y1718D01*
G01X1286Y1752D02*
X1284Y1757D01*
X1282Y1759D01*
X1279Y1760D01*
X1276Y1758D01*
X1274Y1754D01*
X1273Y1749D01*
X1273Y1744D01*
X1275Y1740D01*
X1281Y1732D01*
X1284Y1726D01*
X1286Y1718D01*
X1287Y1710D01*
X1273D01*
G01X1262Y1720D02*
X1260Y1714D01*
X1258Y1711D01*
X1255Y1710D01*
X1252Y1711D01*
X1249Y1715D01*
X1248Y1720D01*
X1247Y1725D01*
X1248Y1731D01*
X1250Y1735D01*
X1253Y1737D01*
X1256D01*
G01X1253D02*
X1251Y1739D01*
X1249Y1743D01*
X1248Y1748D01*
X1249Y1753D01*
X1251Y1758D01*
X1254Y1760D01*
X1257Y1759D01*
X1260Y1756D01*
G01X1207Y1443D02*
X1209Y1444D01*
X1213Y1445D01*
X1219Y1446D01*
X1224Y1445D01*
X1228Y1444D01*
X1230Y1441D01*
Y1432D01*
X1180D01*
Y1443D01*
X1183Y1446D01*
X1188Y1447D01*
X1194Y1448D01*
X1200Y1447D01*
X1205Y1445D01*
X1207Y1443D01*
Y1432D01*
G01X1226Y1472D02*
X1228Y1470D01*
X1230Y1468D01*
Y1465D01*
X1228Y1462D01*
X1223Y1460D01*
X1218Y1458D01*
X1210Y1457D01*
X1203Y1457D01*
X1195Y1457D01*
X1190Y1458D01*
X1185Y1460D01*
X1182Y1463D01*
X1180Y1465D01*
Y1467D01*
X1182Y1470D01*
X1184Y1472D01*
X1188Y1473D01*
G01X1190Y1483D02*
X1184Y1485D01*
X1181Y1487D01*
X1180Y1490D01*
X1181Y1493D01*
X1185Y1496D01*
X1190Y1497D01*
X1195Y1498D01*
X1201Y1497D01*
X1205Y1495D01*
X1207Y1492D01*
Y1489D01*
G01Y1492D02*
X1209Y1494D01*
X1213Y1496D01*
X1218Y1497D01*
X1223Y1496D01*
X1228Y1494D01*
X1230Y1491D01*
X1229Y1488D01*
X1226Y1485D01*
G01X1230Y1515D02*
X1228Y1512D01*
X1224Y1510D01*
X1219Y1509D01*
X1213Y1508D01*
X1205Y1508D01*
X1198Y1508D01*
X1191Y1509D01*
X1186Y1510D01*
X1182Y1512D01*
X1180Y1515D01*
X1182Y1518D01*
X1186Y1520D01*
X1191Y1521D01*
X1198Y1522D01*
X1205Y1522D01*
X1213Y1522D01*
X1219Y1521D01*
X1224Y1520D01*
X1228Y1518D01*
X1230Y1515D01*
G01X1207Y1828D02*
X1209Y1829D01*
X1213Y1830D01*
X1219Y1831D01*
X1224Y1830D01*
X1228Y1829D01*
X1230Y1826D01*
Y1817D01*
X1180D01*
Y1828D01*
X1183Y1831D01*
X1188Y1832D01*
X1194Y1833D01*
X1200Y1832D01*
X1205Y1830D01*
X1207Y1828D01*
Y1817D01*
G01X1226Y1857D02*
X1228Y1855D01*
X1230Y1853D01*
Y1850D01*
X1228Y1847D01*
X1223Y1845D01*
X1218Y1843D01*
X1210Y1842D01*
X1203Y1842D01*
X1195Y1842D01*
X1190Y1843D01*
X1185Y1845D01*
X1182Y1848D01*
X1180Y1850D01*
Y1852D01*
X1182Y1855D01*
X1184Y1857D01*
X1188Y1858D01*
G01X1222Y1869D02*
X1227Y1871D01*
X1229Y1873D01*
X1230Y1876D01*
X1228Y1879D01*
X1224Y1881D01*
X1219Y1882D01*
X1214Y1882D01*
X1210Y1880D01*
X1202Y1874D01*
X1196Y1871D01*
X1188Y1869D01*
X1180Y1868D01*
Y1882D01*
G01X1222Y1894D02*
X1227Y1896D01*
X1229Y1898D01*
X1230Y1901D01*
X1228Y1904D01*
X1224Y1906D01*
X1219Y1907D01*
X1214Y1907D01*
X1210Y1905D01*
X1202Y1899D01*
X1196Y1896D01*
X1188Y1894D01*
X1180Y1893D01*
Y1907D01*
G01X1537Y1307D02*
X1536Y1309D01*
X1535Y1313D01*
X1534Y1319D01*
X1535Y1324D01*
X1536Y1328D01*
X1539Y1330D01*
X1548D01*
Y1280D01*
X1537D01*
X1534Y1283D01*
X1533Y1288D01*
X1532Y1294D01*
X1533Y1300D01*
X1535Y1305D01*
X1537Y1307D01*
X1548D01*
G01X1508Y1326D02*
X1510Y1328D01*
X1512Y1330D01*
X1515D01*
X1518Y1328D01*
X1520Y1323D01*
X1522Y1318D01*
X1523Y1310D01*
X1523Y1302D01*
X1523Y1295D01*
X1522Y1290D01*
X1520Y1285D01*
X1517Y1282D01*
X1515Y1280D01*
X1513D01*
X1510Y1282D01*
X1508Y1284D01*
X1507Y1288D01*
G01X1496Y1322D02*
X1494Y1327D01*
X1492Y1329D01*
X1489Y1330D01*
X1486Y1328D01*
X1484Y1324D01*
X1483Y1319D01*
X1483Y1314D01*
X1485Y1310D01*
X1491Y1302D01*
X1494Y1296D01*
X1496Y1288D01*
X1497Y1280D01*
X1483D01*
G01X1465D02*
X1463Y1281D01*
X1460Y1283D01*
X1458Y1288D01*
X1458Y1293D01*
X1458Y1299D01*
X1460Y1304D01*
X1463Y1307D01*
X1467D01*
X1469Y1308D01*
X1470Y1312D01*
X1471Y1318D01*
X1470Y1324D01*
X1468Y1328D01*
X1465Y1330D01*
X1462Y1328D01*
X1460Y1324D01*
X1459Y1318D01*
X1460Y1312D01*
X1461Y1308D01*
X1463Y1307D01*
X1467D01*
X1470Y1304D01*
X1472Y1299D01*
X1472Y1293D01*
X1472Y1288D01*
X1470Y1283D01*
X1467Y1281D01*
X1465Y1280D01*
G01X1757Y2855D02*
Y2905D01*
X1748D01*
X1746Y2902D01*
X1744Y2899D01*
X1743Y2892D01*
X1744Y2886D01*
X1746Y2882D01*
X1748Y2879D01*
X1757D01*
G01X1748D02*
X1743Y2855D01*
G01X1731Y2876D02*
X1729Y2882D01*
X1727Y2885D01*
X1724Y2887D01*
X1722Y2885D01*
X1720Y2882D01*
X1719Y2877D01*
X1719Y2871D01*
X1719Y2866D01*
X1720Y2861D01*
X1722Y2857D01*
X1725Y2855D01*
X1727Y2857D01*
X1730Y2862D01*
X1731Y2869D01*
X1731Y2878D01*
X1731Y2888D01*
X1730Y2894D01*
X1728Y2900D01*
X1726Y2904D01*
X1723Y2905D01*
X1721Y2903D01*
X1719Y2899D01*
G01X1707Y2865D02*
X1705Y2859D01*
X1703Y2856D01*
X1700Y2855D01*
X1697Y2856D01*
X1694Y2860D01*
X1693Y2865D01*
X1692Y2870D01*
X1693Y2876D01*
X1695Y2880D01*
X1698Y2882D01*
X1701D01*
G01X1698D02*
X1696Y2884D01*
X1694Y2888D01*
X1693Y2893D01*
X1694Y2898D01*
X1696Y2902D01*
X1699Y2905D01*
X1702Y2904D01*
X1705Y2901D01*
G01X1743Y2831D02*
X1745Y2833D01*
X1747Y2835D01*
X1750D01*
X1753Y2832D01*
X1755Y2828D01*
X1757Y2823D01*
X1758Y2815D01*
X1758Y2808D01*
X1758Y2800D01*
X1757Y2795D01*
X1755Y2790D01*
X1752Y2787D01*
X1750Y2785D01*
X1748D01*
X1745Y2787D01*
X1743Y2789D01*
X1742Y2792D01*
G01X1732D02*
X1730Y2788D01*
X1728Y2786D01*
X1725Y2785D01*
X1722Y2787D01*
X1720Y2790D01*
X1718Y2796D01*
X1718Y2802D01*
X1718Y2809D01*
X1720Y2813D01*
X1722Y2817D01*
X1725Y2818D01*
X1727Y2817D01*
X1730Y2813D01*
X1729Y2835D01*
X1720D01*
G01X1706Y2827D02*
X1704Y2832D01*
X1702Y2834D01*
X1699Y2835D01*
X1696Y2833D01*
X1694Y2829D01*
X1693Y2824D01*
X1693Y2819D01*
X1695Y2815D01*
X1701Y2807D01*
X1704Y2801D01*
X1706Y2792D01*
X1707Y2785D01*
X1693D01*
G01X1743Y2756D02*
X1745Y2758D01*
X1747Y2760D01*
X1750D01*
X1753Y2758D01*
X1755Y2753D01*
X1757Y2748D01*
X1758Y2740D01*
X1758Y2732D01*
X1758Y2725D01*
X1757Y2720D01*
X1755Y2715D01*
X1752Y2712D01*
X1750Y2710D01*
X1748D01*
X1745Y2712D01*
X1743Y2714D01*
X1742Y2718D01*
G01X1732D02*
X1730Y2713D01*
X1728Y2711D01*
X1725Y2710D01*
X1722Y2712D01*
X1720Y2715D01*
X1718Y2721D01*
X1718Y2728D01*
X1718Y2734D01*
X1720Y2738D01*
X1722Y2742D01*
X1725Y2742D01*
X1727Y2742D01*
X1730Y2738D01*
X1729Y2760D01*
X1720D01*
G01X1700Y2710D02*
Y2760D01*
X1704Y2750D01*
G01Y2710D02*
X1696D01*
G01X1743Y2686D02*
X1745Y2688D01*
X1747Y2690D01*
X1750D01*
X1753Y2688D01*
X1755Y2683D01*
X1757Y2678D01*
X1758Y2670D01*
X1758Y2662D01*
X1758Y2655D01*
X1757Y2650D01*
X1755Y2645D01*
X1752Y2642D01*
X1750Y2640D01*
X1748D01*
X1745Y2642D01*
X1743Y2644D01*
X1742Y2648D01*
G01X1732D02*
X1730Y2643D01*
X1728Y2641D01*
X1725Y2640D01*
X1722Y2642D01*
X1720Y2645D01*
X1718Y2651D01*
X1718Y2658D01*
X1718Y2664D01*
X1720Y2668D01*
X1722Y2672D01*
X1725Y2672D01*
X1727Y2672D01*
X1730Y2668D01*
X1729Y2690D01*
X1720D01*
G01X1700D02*
X1703Y2688D01*
X1705Y2684D01*
X1706Y2679D01*
X1707Y2672D01*
X1707Y2665D01*
X1707Y2658D01*
X1706Y2651D01*
X1705Y2646D01*
X1703Y2642D01*
X1700Y2640D01*
X1697Y2642D01*
X1695Y2646D01*
X1694Y2651D01*
X1693Y2658D01*
X1693Y2665D01*
X1693Y2672D01*
X1694Y2679D01*
X1695Y2684D01*
X1697Y2688D01*
X1700Y2690D01*
G01X1627Y2975D02*
Y2925D01*
X1613D01*
G01X1595D02*
Y2975D01*
X1599Y2965D01*
G01Y2925D02*
X1591D01*
G01X1570D02*
Y2975D01*
X1574Y2965D01*
G01Y2925D02*
X1566D01*
G01X1747Y3157D02*
X1746Y3159D01*
X1745Y3163D01*
X1744Y3169D01*
X1745Y3174D01*
X1746Y3178D01*
X1749Y3180D01*
X1758D01*
Y3130D01*
X1747D01*
X1744Y3133D01*
X1743Y3138D01*
X1742Y3144D01*
X1743Y3150D01*
X1745Y3155D01*
X1747Y3157D01*
X1758D01*
G01X1718Y3176D02*
X1720Y3178D01*
X1722Y3180D01*
X1725D01*
X1728Y3178D01*
X1730Y3173D01*
X1732Y3168D01*
X1733Y3160D01*
X1733Y3152D01*
X1733Y3145D01*
X1732Y3140D01*
X1730Y3135D01*
X1727Y3132D01*
X1725Y3130D01*
X1723D01*
X1720Y3132D01*
X1718Y3134D01*
X1717Y3138D01*
G01X1707Y3140D02*
X1705Y3134D01*
X1703Y3131D01*
X1700Y3130D01*
X1697Y3131D01*
X1694Y3135D01*
X1693Y3140D01*
X1692Y3145D01*
X1693Y3151D01*
X1695Y3155D01*
X1698Y3157D01*
X1701D01*
G01X1698D02*
X1696Y3159D01*
X1694Y3163D01*
X1693Y3168D01*
X1694Y3173D01*
X1696Y3178D01*
X1699Y3180D01*
X1702Y3179D01*
X1705Y3176D01*
G01X1681Y3136D02*
X1678Y3132D01*
X1676Y3130D01*
X1673Y3132D01*
X1671Y3137D01*
X1669Y3144D01*
X1668Y3152D01*
Y3161D01*
X1669Y3168D01*
X1671Y3175D01*
X1673Y3178D01*
X1675Y3180D01*
X1678Y3178D01*
X1680Y3175D01*
X1681Y3170D01*
X1682Y3163D01*
X1681Y3158D01*
X1679Y3152D01*
X1677Y3148D01*
X1675Y3148D01*
X1672Y3149D01*
X1670Y3153D01*
X1668Y3161D01*
G01X1743Y3041D02*
X1745Y3043D01*
X1747Y3045D01*
X1750D01*
X1753Y3042D01*
X1755Y3038D01*
X1757Y3033D01*
X1758Y3025D01*
X1758Y3018D01*
X1758Y3010D01*
X1757Y3005D01*
X1755Y3000D01*
X1752Y2997D01*
X1750Y2995D01*
X1748D01*
X1745Y2997D01*
X1743Y2999D01*
X1742Y3002D01*
G01X1721Y2995D02*
Y3045D01*
X1733Y3009D01*
X1717D01*
G01X1701Y2995D02*
X1700Y3006D01*
X1699Y3015D01*
X1698Y3023D01*
X1696Y3032D01*
X1693Y3045D01*
X1707D01*
G01X1797Y1377D02*
X1796Y1379D01*
X1795Y1383D01*
X1794Y1389D01*
X1795Y1394D01*
X1796Y1398D01*
X1799Y1400D01*
X1808D01*
Y1350D01*
X1797D01*
X1794Y1353D01*
X1793Y1358D01*
X1792Y1364D01*
X1793Y1370D01*
X1795Y1375D01*
X1797Y1377D01*
X1808D01*
G01X1768Y1396D02*
X1770Y1398D01*
X1772Y1400D01*
X1775D01*
X1778Y1398D01*
X1780Y1393D01*
X1782Y1388D01*
X1783Y1380D01*
X1783Y1372D01*
X1783Y1365D01*
X1782Y1360D01*
X1780Y1355D01*
X1777Y1352D01*
X1775Y1350D01*
X1773D01*
X1770Y1352D01*
X1768Y1354D01*
X1767Y1358D01*
G01X1757Y1360D02*
X1755Y1354D01*
X1753Y1351D01*
X1750Y1350D01*
X1747Y1351D01*
X1744Y1355D01*
X1743Y1360D01*
X1742Y1365D01*
X1743Y1371D01*
X1745Y1375D01*
X1748Y1377D01*
X1751D01*
G01X1748D02*
X1746Y1379D01*
X1744Y1383D01*
X1743Y1388D01*
X1744Y1393D01*
X1746Y1398D01*
X1749Y1400D01*
X1752Y1399D01*
X1755Y1396D01*
G01X1725Y1350D02*
Y1400D01*
X1729Y1390D01*
G01Y1350D02*
X1721D01*
G01X1797Y1317D02*
X1796Y1319D01*
X1795Y1323D01*
X1794Y1329D01*
X1795Y1334D01*
X1796Y1338D01*
X1799Y1340D01*
X1808D01*
Y1290D01*
X1797D01*
X1794Y1293D01*
X1793Y1298D01*
X1792Y1304D01*
X1793Y1310D01*
X1795Y1315D01*
X1797Y1317D01*
X1808D01*
G01X1768Y1336D02*
X1770Y1338D01*
X1772Y1340D01*
X1775D01*
X1778Y1338D01*
X1780Y1333D01*
X1782Y1328D01*
X1783Y1320D01*
X1783Y1312D01*
X1783Y1305D01*
X1782Y1300D01*
X1780Y1295D01*
X1777Y1292D01*
X1775Y1290D01*
X1773D01*
X1770Y1292D01*
X1768Y1294D01*
X1767Y1298D01*
G01X1757Y1300D02*
X1755Y1294D01*
X1753Y1291D01*
X1750Y1290D01*
X1747Y1291D01*
X1744Y1295D01*
X1743Y1300D01*
X1742Y1305D01*
X1743Y1311D01*
X1745Y1315D01*
X1748Y1317D01*
X1751D01*
G01X1748D02*
X1746Y1319D01*
X1744Y1323D01*
X1743Y1328D01*
X1744Y1333D01*
X1746Y1338D01*
X1749Y1340D01*
X1752Y1339D01*
X1755Y1336D01*
G01X1731Y1332D02*
X1729Y1337D01*
X1727Y1339D01*
X1724Y1340D01*
X1721Y1338D01*
X1719Y1334D01*
X1718Y1329D01*
X1718Y1324D01*
X1720Y1320D01*
X1726Y1312D01*
X1729Y1306D01*
X1731Y1298D01*
X1732Y1290D01*
X1718D01*
G01X1807Y2027D02*
X1806Y2029D01*
X1805Y2033D01*
X1804Y2039D01*
X1805Y2044D01*
X1806Y2047D01*
X1809Y2050D01*
X1818D01*
Y2000D01*
X1807D01*
X1804Y2003D01*
X1803Y2008D01*
X1802Y2014D01*
X1803Y2020D01*
X1805Y2025D01*
X1807Y2027D01*
X1818D01*
G01X1778Y2046D02*
X1780Y2048D01*
X1782Y2050D01*
X1785D01*
X1788Y2047D01*
X1790Y2043D01*
X1792Y2038D01*
X1793Y2030D01*
X1793Y2022D01*
X1793Y2015D01*
X1792Y2010D01*
X1790Y2005D01*
X1787Y2002D01*
X1785Y2000D01*
X1783D01*
X1780Y2002D01*
X1778Y2004D01*
X1777Y2007D01*
G01X1766Y2042D02*
X1764Y2047D01*
X1762Y2049D01*
X1759Y2050D01*
X1756Y2048D01*
X1754Y2044D01*
X1753Y2039D01*
X1753Y2034D01*
X1755Y2030D01*
X1761Y2022D01*
X1764Y2016D01*
X1766Y2007D01*
X1767Y2000D01*
X1753D01*
G01X1731D02*
Y2050D01*
X1743Y2014D01*
X1727D01*
G01X1807Y1957D02*
X1806Y1959D01*
X1805Y1963D01*
X1804Y1969D01*
X1805Y1974D01*
X1806Y1978D01*
X1809Y1980D01*
X1818D01*
Y1930D01*
X1807D01*
X1804Y1933D01*
X1803Y1938D01*
X1802Y1944D01*
X1803Y1950D01*
X1805Y1955D01*
X1807Y1957D01*
X1818D01*
G01X1778Y1976D02*
X1780Y1978D01*
X1782Y1980D01*
X1785D01*
X1788Y1978D01*
X1790Y1973D01*
X1792Y1968D01*
X1793Y1960D01*
X1793Y1953D01*
X1793Y1945D01*
X1792Y1940D01*
X1790Y1935D01*
X1787Y1932D01*
X1785Y1930D01*
X1783D01*
X1780Y1932D01*
X1778Y1934D01*
X1777Y1938D01*
G01X1766Y1972D02*
X1764Y1977D01*
X1762Y1979D01*
X1759Y1980D01*
X1756Y1978D01*
X1754Y1974D01*
X1753Y1969D01*
X1753Y1964D01*
X1755Y1960D01*
X1761Y1952D01*
X1764Y1946D01*
X1766Y1938D01*
X1767Y1930D01*
X1753D01*
G01X1741Y1936D02*
X1738Y1932D01*
X1736Y1930D01*
X1733Y1932D01*
X1731Y1937D01*
X1729Y1944D01*
X1728Y1952D01*
Y1961D01*
X1729Y1968D01*
X1731Y1975D01*
X1733Y1978D01*
X1735Y1980D01*
X1738Y1978D01*
X1740Y1975D01*
X1741Y1970D01*
X1742Y1963D01*
X1741Y1958D01*
X1739Y1952D01*
X1737Y1948D01*
X1735Y1948D01*
X1732Y1949D01*
X1730Y1953D01*
X1728Y1961D01*
G01X1757Y3110D02*
Y3060D01*
X1743D01*
G01X1731Y3066D02*
X1728Y3062D01*
X1726Y3060D01*
X1723Y3062D01*
X1721Y3067D01*
X1719Y3074D01*
X1718Y3082D01*
Y3091D01*
X1719Y3098D01*
X1721Y3105D01*
X1723Y3108D01*
X1725Y3110D01*
X1728Y3108D01*
X1730Y3105D01*
X1731Y3100D01*
X1732Y3093D01*
X1731Y3088D01*
X1729Y3082D01*
X1727Y3078D01*
X1725Y3078D01*
X1722Y3079D01*
X1720Y3083D01*
X1718Y3091D01*
G01X2002Y3092D02*
X2001Y3094D01*
X2000Y3098D01*
X1999Y3104D01*
X2000Y3109D01*
X2001Y3113D01*
X2004Y3115D01*
X2013D01*
Y3065D01*
X2002D01*
X1999Y3068D01*
X1998Y3073D01*
X1997Y3079D01*
X1998Y3085D01*
X2000Y3090D01*
X2002Y3092D01*
X2013D01*
G01X1973Y3111D02*
X1975Y3113D01*
X1977Y3115D01*
X1980D01*
X1983Y3113D01*
X1985Y3108D01*
X1987Y3103D01*
X1988Y3095D01*
X1988Y3088D01*
X1988Y3080D01*
X1987Y3075D01*
X1985Y3070D01*
X1982Y3067D01*
X1980Y3065D01*
X1978D01*
X1975Y3067D01*
X1973Y3069D01*
X1972Y3073D01*
G01X1951Y3065D02*
Y3115D01*
X1963Y3079D01*
X1947D01*
G01X1930Y3115D02*
X1933Y3113D01*
X1935Y3109D01*
X1936Y3104D01*
X1937Y3098D01*
X1937Y3090D01*
X1937Y3082D01*
X1936Y3076D01*
X1935Y3071D01*
X1933Y3067D01*
X1930Y3065D01*
X1927Y3067D01*
X1925Y3071D01*
X1924Y3076D01*
X1923Y3082D01*
X1923Y3090D01*
X1923Y3098D01*
X1924Y3104D01*
X1925Y3109D01*
X1927Y3113D01*
X1930Y3115D01*
G01X1973Y2971D02*
X1975Y2973D01*
X1977Y2975D01*
X1980D01*
X1983Y2972D01*
X1985Y2968D01*
X1987Y2963D01*
X1988Y2955D01*
X1988Y2948D01*
X1988Y2940D01*
X1987Y2935D01*
X1985Y2930D01*
X1982Y2927D01*
X1980Y2925D01*
X1978D01*
X1975Y2927D01*
X1973Y2929D01*
X1972Y2932D01*
G01X1951Y2925D02*
Y2975D01*
X1963Y2939D01*
X1947D01*
G01X1930Y2925D02*
X1928Y2926D01*
X1925Y2928D01*
X1923Y2932D01*
X1923Y2938D01*
X1923Y2944D01*
X1925Y2949D01*
X1928Y2952D01*
X1932D01*
X1934Y2953D01*
X1935Y2958D01*
X1936Y2963D01*
X1935Y2969D01*
X1933Y2973D01*
X1930Y2975D01*
X1927Y2973D01*
X1925Y2969D01*
X1924Y2963D01*
X1925Y2958D01*
X1926Y2953D01*
X1928Y2952D01*
X1932D01*
X1935Y2949D01*
X1937Y2944D01*
X1937Y2938D01*
X1937Y2932D01*
X1935Y2928D01*
X1932Y2926D01*
X1930Y2925D01*
G01X2142Y3092D02*
X2141Y3094D01*
X2140Y3098D01*
X2139Y3104D01*
X2140Y3109D01*
X2141Y3113D01*
X2144Y3115D01*
X2153D01*
Y3065D01*
X2142D01*
X2139Y3068D01*
X2138Y3073D01*
X2137Y3079D01*
X2138Y3085D01*
X2140Y3090D01*
X2142Y3092D01*
X2153D01*
G01X2113Y3111D02*
X2115Y3113D01*
X2117Y3115D01*
X2120D01*
X2123Y3113D01*
X2125Y3108D01*
X2127Y3103D01*
X2128Y3095D01*
X2128Y3088D01*
X2128Y3080D01*
X2127Y3075D01*
X2125Y3070D01*
X2122Y3067D01*
X2120Y3065D01*
X2118D01*
X2115Y3067D01*
X2113Y3069D01*
X2112Y3073D01*
G01X2102Y3075D02*
X2100Y3069D01*
X2098Y3066D01*
X2095Y3065D01*
X2092Y3066D01*
X2089Y3070D01*
X2088Y3075D01*
X2087Y3080D01*
X2088Y3086D01*
X2090Y3090D01*
X2093Y3092D01*
X2096D01*
G01X2093D02*
X2091Y3094D01*
X2089Y3098D01*
X2088Y3103D01*
X2089Y3108D01*
X2091Y3113D01*
X2094Y3115D01*
X2097Y3114D01*
X2100Y3111D01*
G01X2070Y3065D02*
X2068Y3066D01*
X2065Y3068D01*
X2063Y3073D01*
X2063Y3078D01*
X2063Y3084D01*
X2065Y3089D01*
X2068Y3092D01*
X2072D01*
X2074Y3093D01*
X2075Y3098D01*
X2076Y3103D01*
X2075Y3109D01*
X2073Y3113D01*
X2070Y3115D01*
X2067Y3113D01*
X2065Y3109D01*
X2064Y3103D01*
X2065Y3098D01*
X2066Y3093D01*
X2068Y3092D01*
X2072D01*
X2075Y3089D01*
X2077Y3084D01*
X2077Y3078D01*
X2077Y3073D01*
X2075Y3068D01*
X2072Y3066D01*
X2070Y3065D01*
G01X2695Y218D02*
X2745D01*
Y227D01*
X2742Y229D01*
X2739Y231D01*
X2732Y232D01*
X2726Y231D01*
X2722Y229D01*
X2719Y227D01*
Y218D01*
G01Y227D02*
X2695Y232D01*
G01X2716Y244D02*
X2722Y246D01*
X2725Y248D01*
X2727Y251D01*
X2725Y253D01*
X2722Y255D01*
X2717Y256D01*
X2711Y256D01*
X2706Y256D01*
X2701Y255D01*
X2697Y253D01*
X2695Y250D01*
X2697Y248D01*
X2702Y245D01*
X2709Y244D01*
X2718Y244D01*
X2728Y244D01*
X2734Y245D01*
X2740Y247D01*
X2744Y249D01*
X2745Y252D01*
X2743Y254D01*
X2739Y256D01*
G01X2737Y269D02*
X2742Y271D01*
X2744Y273D01*
X2745Y276D01*
X2743Y279D01*
X2739Y281D01*
X2734Y282D01*
X2729Y282D01*
X2725Y280D01*
X2717Y274D01*
X2711Y271D01*
X2702Y269D01*
X2695Y268D01*
Y282D01*
G01X2765Y218D02*
X2815D01*
Y227D01*
X2812Y229D01*
X2809Y231D01*
X2802Y232D01*
X2796Y231D01*
X2792Y229D01*
X2789Y227D01*
Y218D01*
G01Y227D02*
X2765Y232D01*
G01X2772Y243D02*
X2768Y245D01*
X2766Y247D01*
X2765Y250D01*
X2767Y253D01*
X2770Y255D01*
X2776Y257D01*
X2782Y257D01*
X2789Y257D01*
X2793Y255D01*
X2797Y253D01*
X2798Y250D01*
X2797Y248D01*
X2793Y245D01*
X2815Y246D01*
Y255D01*
G01X2771Y269D02*
X2767Y272D01*
X2765Y274D01*
X2767Y277D01*
X2772Y279D01*
X2779Y281D01*
X2787Y282D01*
X2796D01*
X2803Y281D01*
X2810Y279D01*
X2813Y277D01*
X2815Y275D01*
X2813Y272D01*
X2810Y270D01*
X2805Y269D01*
X2798Y268D01*
X2792Y269D01*
X2787Y271D01*
X2783Y273D01*
X2782Y275D01*
X2784Y278D01*
X2788Y280D01*
X2796Y282D01*
G01X2872Y2832D02*
X2871Y2834D01*
X2870Y2838D01*
X2869Y2844D01*
X2870Y2849D01*
X2871Y2852D01*
X2874Y2855D01*
X2883D01*
Y2805D01*
X2872D01*
X2869Y2808D01*
X2868Y2813D01*
X2867Y2819D01*
X2868Y2825D01*
X2870Y2830D01*
X2872Y2832D01*
X2883D01*
G01X2843Y2851D02*
X2845Y2853D01*
X2847Y2855D01*
X2850D01*
X2853Y2852D01*
X2855Y2848D01*
X2857Y2843D01*
X2858Y2835D01*
X2858Y2828D01*
X2858Y2820D01*
X2857Y2815D01*
X2855Y2810D01*
X2852Y2807D01*
X2850Y2805D01*
X2848D01*
X2845Y2807D01*
X2843Y2809D01*
X2842Y2812D01*
G01X2821Y2805D02*
Y2855D01*
X2833Y2819D01*
X2817D01*
G01X2806Y2826D02*
X2804Y2832D01*
X2802Y2835D01*
X2799Y2837D01*
X2797Y2835D01*
X2795Y2832D01*
X2794Y2827D01*
X2794Y2821D01*
X2794Y2816D01*
X2795Y2811D01*
X2797Y2807D01*
X2800Y2805D01*
X2802Y2807D01*
X2805Y2812D01*
X2806Y2819D01*
X2806Y2828D01*
X2806Y2838D01*
X2805Y2844D01*
X2803Y2850D01*
X2801Y2854D01*
X2798Y2855D01*
X2796Y2853D01*
X2794Y2849D01*
G01X2742Y3082D02*
X2741Y3084D01*
X2740Y3088D01*
X2739Y3094D01*
X2740Y3099D01*
X2741Y3102D01*
X2744Y3105D01*
X2753D01*
Y3055D01*
X2742D01*
X2739Y3058D01*
X2738Y3063D01*
X2737Y3069D01*
X2738Y3075D01*
X2740Y3080D01*
X2742Y3082D01*
X2753D01*
G01X2713Y3101D02*
X2715Y3103D01*
X2717Y3105D01*
X2720D01*
X2723Y3102D01*
X2725Y3098D01*
X2727Y3093D01*
X2728Y3085D01*
X2728Y3078D01*
X2728Y3070D01*
X2727Y3065D01*
X2725Y3060D01*
X2722Y3057D01*
X2720Y3055D01*
X2718D01*
X2715Y3057D01*
X2713Y3059D01*
X2712Y3062D01*
G01X2691Y3055D02*
Y3105D01*
X2703Y3069D01*
X2687D01*
G01X2670Y3055D02*
X2668Y3056D01*
X2665Y3058D01*
X2663Y3062D01*
X2663Y3068D01*
X2663Y3074D01*
X2665Y3079D01*
X2668Y3082D01*
X2672D01*
X2674Y3083D01*
X2675Y3088D01*
X2676Y3093D01*
X2675Y3099D01*
X2673Y3103D01*
X2670Y3105D01*
X2667Y3103D01*
X2665Y3099D01*
X2664Y3093D01*
X2665Y3088D01*
X2666Y3083D01*
X2668Y3082D01*
X2672D01*
X2675Y3079D01*
X2677Y3074D01*
X2677Y3068D01*
X2677Y3062D01*
X2675Y3058D01*
X2672Y3056D01*
X2670Y3055D01*
G01X2872Y3082D02*
X2871Y3084D01*
X2870Y3088D01*
X2869Y3094D01*
X2870Y3099D01*
X2871Y3102D01*
X2874Y3105D01*
X2883D01*
Y3055D01*
X2872D01*
X2869Y3058D01*
X2868Y3063D01*
X2867Y3069D01*
X2868Y3075D01*
X2870Y3080D01*
X2872Y3082D01*
X2883D01*
G01X2843Y3101D02*
X2845Y3103D01*
X2847Y3105D01*
X2850D01*
X2853Y3102D01*
X2855Y3098D01*
X2857Y3093D01*
X2858Y3085D01*
X2858Y3078D01*
X2858Y3070D01*
X2857Y3065D01*
X2855Y3060D01*
X2852Y3057D01*
X2850Y3055D01*
X2848D01*
X2845Y3057D01*
X2843Y3059D01*
X2842Y3062D01*
G01X2821Y3055D02*
Y3105D01*
X2833Y3069D01*
X2817D01*
G01X2801Y3055D02*
X2800Y3066D01*
X2799Y3075D01*
X2798Y3083D01*
X2796Y3093D01*
X2793Y3105D01*
X2807D01*
G01X3142Y3113D02*
X3144Y3114D01*
X3148Y3115D01*
X3154Y3116D01*
X3159Y3115D01*
X3162Y3114D01*
X3165Y3111D01*
Y3102D01*
X3115D01*
Y3113D01*
X3118Y3116D01*
X3123Y3117D01*
X3129Y3118D01*
X3135Y3117D01*
X3140Y3115D01*
X3142Y3113D01*
Y3102D01*
G01X3161Y3142D02*
X3163Y3140D01*
X3165Y3138D01*
Y3135D01*
X3162Y3132D01*
X3158Y3130D01*
X3153Y3128D01*
X3145Y3127D01*
X3138Y3127D01*
X3130Y3127D01*
X3125Y3128D01*
X3120Y3130D01*
X3117Y3133D01*
X3115Y3135D01*
Y3137D01*
X3117Y3140D01*
X3119Y3142D01*
X3122Y3143D01*
G01X3115Y3164D02*
X3165D01*
X3129Y3152D01*
Y3168D01*
G01X3122Y3178D02*
X3118Y3180D01*
X3116Y3182D01*
X3115Y3185D01*
X3117Y3188D01*
X3120Y3190D01*
X3126Y3192D01*
X3133Y3192D01*
X3139Y3192D01*
X3143Y3190D01*
X3147Y3188D01*
X3148Y3185D01*
X3147Y3183D01*
X3143Y3180D01*
X3165Y3181D01*
Y3190D01*
G01X3617Y2407D02*
X3616Y2409D01*
X3615Y2413D01*
X3614Y2419D01*
X3615Y2424D01*
X3616Y2428D01*
X3619Y2430D01*
X3628D01*
Y2380D01*
X3617D01*
X3614Y2383D01*
X3613Y2388D01*
X3612Y2394D01*
X3613Y2400D01*
X3615Y2405D01*
X3617Y2407D01*
X3628D01*
G01X3588Y2426D02*
X3590Y2428D01*
X3592Y2430D01*
X3595D01*
X3598Y2428D01*
X3600Y2423D01*
X3602Y2418D01*
X3603Y2410D01*
X3603Y2402D01*
X3603Y2395D01*
X3602Y2390D01*
X3600Y2385D01*
X3597Y2382D01*
X3595Y2380D01*
X3593D01*
X3590Y2382D01*
X3588Y2384D01*
X3587Y2388D01*
G01X3570Y2380D02*
Y2430D01*
X3574Y2420D01*
G01Y2380D02*
X3566D01*
G01X3545D02*
Y2430D01*
X3549Y2420D01*
G01Y2380D02*
X3541D01*
G01X3607Y2597D02*
X3606Y2599D01*
X3605Y2603D01*
X3604Y2609D01*
X3605Y2614D01*
X3606Y2618D01*
X3609Y2620D01*
X3618D01*
Y2570D01*
X3607D01*
X3604Y2573D01*
X3603Y2578D01*
X3602Y2584D01*
X3603Y2590D01*
X3605Y2595D01*
X3607Y2597D01*
X3618D01*
G01X3578Y2616D02*
X3580Y2618D01*
X3582Y2620D01*
X3585D01*
X3588Y2618D01*
X3590Y2613D01*
X3592Y2608D01*
X3593Y2600D01*
X3593Y2593D01*
X3593Y2585D01*
X3592Y2580D01*
X3590Y2575D01*
X3587Y2572D01*
X3585Y2570D01*
X3583D01*
X3580Y2572D01*
X3578Y2574D01*
X3577Y2578D01*
G01X3561Y2570D02*
X3560Y2581D01*
X3559Y2590D01*
X3558Y2598D01*
X3556Y2608D01*
X3553Y2620D01*
X3567D01*
G01X3737Y2597D02*
X3736Y2599D01*
X3735Y2603D01*
X3734Y2609D01*
X3735Y2614D01*
X3736Y2618D01*
X3739Y2620D01*
X3748D01*
Y2570D01*
X3737D01*
X3734Y2573D01*
X3733Y2578D01*
X3732Y2584D01*
X3733Y2590D01*
X3735Y2595D01*
X3737Y2597D01*
X3748D01*
G01X3708Y2616D02*
X3710Y2618D01*
X3712Y2620D01*
X3715D01*
X3718Y2618D01*
X3720Y2613D01*
X3722Y2608D01*
X3723Y2600D01*
X3723Y2593D01*
X3723Y2585D01*
X3722Y2580D01*
X3720Y2575D01*
X3717Y2572D01*
X3715Y2570D01*
X3713D01*
X3710Y2572D01*
X3708Y2574D01*
X3707Y2578D01*
G01X3696Y2591D02*
X3694Y2597D01*
X3692Y2600D01*
X3689Y2602D01*
X3687Y2600D01*
X3685Y2597D01*
X3684Y2592D01*
X3684Y2586D01*
X3684Y2581D01*
X3685Y2576D01*
X3687Y2572D01*
X3690Y2570D01*
X3692Y2572D01*
X3695Y2577D01*
X3696Y2584D01*
X3696Y2593D01*
X3696Y2603D01*
X3695Y2609D01*
X3693Y2615D01*
X3691Y2619D01*
X3688Y2620D01*
X3686Y2618D01*
X3684Y2614D01*
G01X3917Y450D02*
X3915Y444D01*
X3913Y441D01*
X3910Y440D01*
X3907Y441D01*
X3904Y445D01*
X3903Y450D01*
X3902Y455D01*
X3903Y461D01*
X3905Y465D01*
X3908Y467D01*
X3911D01*
G01X3908D02*
X3906Y469D01*
X3904Y473D01*
X3903Y478D01*
X3904Y483D01*
X3906Y488D01*
X3909Y490D01*
X3912Y489D01*
X3915Y486D01*
G01X3885Y438D02*
X3886Y439D01*
Y441D01*
X3885Y442D01*
X3884Y441D01*
Y439D01*
X3885Y438D01*
G01X3867Y450D02*
X3865Y444D01*
X3863Y441D01*
X3860Y440D01*
X3857Y441D01*
X3854Y445D01*
X3853Y450D01*
X3852Y455D01*
X3853Y461D01*
X3855Y465D01*
X3858Y467D01*
X3861D01*
G01X3858D02*
X3856Y469D01*
X3854Y473D01*
X3853Y478D01*
X3854Y483D01*
X3856Y488D01*
X3859Y490D01*
X3862Y489D01*
X3865Y486D01*
G01X3843Y490D02*
X3835Y440D01*
X3827Y490D01*
G01X3908Y365D02*
X3901D01*
Y350D01*
X3903Y345D01*
X3906Y342D01*
X3909Y340D01*
X3912Y342D01*
X3915Y345D01*
X3917Y350D01*
X3918Y356D01*
X3919Y362D01*
Y368D01*
X3918Y373D01*
X3917Y379D01*
X3915Y384D01*
X3913Y388D01*
X3910Y390D01*
X3908D01*
X3905Y388D01*
X3903Y385D01*
G01X3893Y340D02*
Y390D01*
X3877Y340D01*
Y390D01*
G01X3867Y340D02*
Y390D01*
X3861D01*
X3858Y388D01*
X3856Y384D01*
X3854Y379D01*
X3853Y373D01*
X3853Y365D01*
X3853Y357D01*
X3854Y351D01*
X3856Y346D01*
X3858Y342D01*
X3861Y340D01*
X3867D01*
G01X3841Y382D02*
X3839Y387D01*
X3837Y389D01*
X3834Y390D01*
X3831Y388D01*
X3829Y384D01*
X3828Y379D01*
X3828Y374D01*
X3830Y370D01*
X3836Y362D01*
X3839Y356D01*
X3841Y348D01*
X3842Y340D01*
X3828D01*
G01X4107Y877D02*
X4106Y879D01*
X4105Y883D01*
X4104Y889D01*
X4105Y894D01*
X4106Y898D01*
X4109Y900D01*
X4118D01*
Y850D01*
X4107D01*
X4104Y853D01*
X4103Y858D01*
X4102Y864D01*
X4103Y870D01*
X4105Y875D01*
X4107Y877D01*
X4118D01*
G01X4078Y896D02*
X4080Y898D01*
X4082Y900D01*
X4085D01*
X4088Y898D01*
X4090Y893D01*
X4092Y888D01*
X4093Y880D01*
X4093Y872D01*
X4093Y865D01*
X4092Y860D01*
X4090Y855D01*
X4087Y852D01*
X4085Y850D01*
X4083D01*
X4080Y852D01*
X4078Y854D01*
X4077Y858D01*
G01X4060Y850D02*
Y900D01*
X4064Y890D01*
G01Y850D02*
X4056D01*
G01X4035D02*
X4033Y851D01*
X4030Y853D01*
X4028Y858D01*
X4028Y863D01*
X4028Y869D01*
X4030Y874D01*
X4033Y877D01*
X4037D01*
X4039Y878D01*
X4040Y883D01*
X4041Y888D01*
X4040Y894D01*
X4038Y898D01*
X4035Y900D01*
X4032Y898D01*
X4030Y894D01*
X4029Y888D01*
X4030Y883D01*
X4031Y878D01*
X4033Y877D01*
X4037D01*
X4040Y874D01*
X4042Y869D01*
X4042Y863D01*
X4042Y858D01*
X4040Y853D01*
X4037Y851D01*
X4035Y850D01*
G01X4097Y2127D02*
X4096Y2129D01*
X4095Y2133D01*
X4094Y2139D01*
X4095Y2144D01*
X4096Y2148D01*
X4099Y2150D01*
X4108D01*
Y2100D01*
X4097D01*
X4094Y2103D01*
X4093Y2108D01*
X4092Y2114D01*
X4093Y2120D01*
X4095Y2125D01*
X4097Y2127D01*
X4108D01*
G01X4068Y2146D02*
X4070Y2148D01*
X4072Y2150D01*
X4075D01*
X4078Y2148D01*
X4080Y2143D01*
X4082Y2138D01*
X4083Y2130D01*
X4083Y2122D01*
X4083Y2115D01*
X4082Y2110D01*
X4080Y2105D01*
X4077Y2102D01*
X4075Y2100D01*
X4073D01*
X4070Y2102D01*
X4068Y2104D01*
X4067Y2108D01*
G01X4050Y2100D02*
Y2150D01*
X4054Y2140D01*
G01Y2100D02*
X4046D01*
G01X4031Y2121D02*
X4029Y2127D01*
X4027Y2130D01*
X4024Y2132D01*
X4022Y2130D01*
X4020Y2127D01*
X4019Y2122D01*
X4019Y2116D01*
X4019Y2111D01*
X4020Y2106D01*
X4022Y2102D01*
X4025Y2100D01*
X4027Y2102D01*
X4030Y2107D01*
X4031Y2114D01*
X4031Y2122D01*
X4031Y2133D01*
X4030Y2139D01*
X4028Y2145D01*
X4026Y2149D01*
X4023Y2150D01*
X4021Y2148D01*
X4019Y2144D01*
G01X3877Y2570D02*
Y2620D01*
X3868D01*
X3866Y2618D01*
X3864Y2614D01*
X3863Y2608D01*
X3864Y2601D01*
X3866Y2597D01*
X3868Y2594D01*
X3877D01*
G01X3868D02*
X3863Y2570D01*
G01X3845D02*
Y2620D01*
X3849Y2610D01*
G01Y2570D02*
X3841D01*
G01X3827Y2580D02*
X3825Y2574D01*
X3823Y2571D01*
X3820Y2570D01*
X3817Y2571D01*
X3814Y2575D01*
X3813Y2580D01*
X3812Y2585D01*
X3813Y2591D01*
X3815Y2595D01*
X3818Y2597D01*
X3821D01*
G01X3818D02*
X3816Y2599D01*
X3814Y2603D01*
X3813Y2608D01*
X3814Y2613D01*
X3816Y2618D01*
X3819Y2620D01*
X3822Y2619D01*
X3825Y2616D01*
G01X3877Y2350D02*
Y2400D01*
X3868D01*
X3866Y2398D01*
X3864Y2394D01*
X3863Y2388D01*
X3864Y2381D01*
X3866Y2377D01*
X3868Y2374D01*
X3877D01*
G01X3868D02*
X3863Y2350D01*
G01X3845D02*
Y2400D01*
X3849Y2390D01*
G01Y2350D02*
X3841D01*
G01X3826Y2392D02*
X3824Y2397D01*
X3822Y2399D01*
X3819Y2400D01*
X3816Y2398D01*
X3814Y2394D01*
X3813Y2389D01*
X3813Y2384D01*
X3815Y2380D01*
X3821Y2372D01*
X3824Y2366D01*
X3826Y2358D01*
X3827Y2350D01*
X3813D01*
G01X3957Y3150D02*
Y3200D01*
X3951D01*
X3948Y3198D01*
X3946Y3194D01*
X3944Y3189D01*
X3943Y3183D01*
X3943Y3175D01*
X3943Y3167D01*
X3944Y3161D01*
X3946Y3156D01*
X3948Y3152D01*
X3951Y3150D01*
X3957D01*
G01X3932Y3160D02*
X3930Y3154D01*
X3928Y3151D01*
X3925Y3150D01*
X3922Y3151D01*
X3919Y3155D01*
X3918Y3160D01*
X3917Y3165D01*
X3918Y3171D01*
X3920Y3175D01*
X3923Y3177D01*
X3926D01*
G01X3923D02*
X3921Y3179D01*
X3919Y3183D01*
X3918Y3188D01*
X3919Y3193D01*
X3921Y3198D01*
X3924Y3200D01*
X3927Y3199D01*
X3930Y3196D01*
G01X3957Y3020D02*
Y3070D01*
X3951D01*
X3948Y3068D01*
X3946Y3064D01*
X3944Y3059D01*
X3943Y3053D01*
X3943Y3045D01*
X3943Y3037D01*
X3944Y3031D01*
X3946Y3026D01*
X3948Y3022D01*
X3951Y3020D01*
X3957D01*
G01X3921D02*
Y3070D01*
X3933Y3034D01*
X3917D01*
G01X4367Y2890D02*
Y2940D01*
X4358D01*
X4356Y2938D01*
X4354Y2934D01*
X4353Y2928D01*
X4354Y2921D01*
X4356Y2917D01*
X4358Y2914D01*
X4367D01*
G01X4358D02*
X4353Y2890D01*
G01X4342Y2898D02*
X4340Y2893D01*
X4338Y2891D01*
X4335Y2890D01*
X4332Y2892D01*
X4330Y2895D01*
X4328Y2901D01*
X4328Y2908D01*
X4328Y2914D01*
X4330Y2918D01*
X4332Y2922D01*
X4335Y2922D01*
X4337Y2922D01*
X4340Y2918D01*
X4339Y2940D01*
X4330D01*
G01X4316Y2911D02*
X4314Y2917D01*
X4312Y2920D01*
X4309Y2922D01*
X4307Y2920D01*
X4305Y2917D01*
X4304Y2912D01*
X4304Y2906D01*
X4304Y2901D01*
X4305Y2896D01*
X4307Y2892D01*
X4310Y2890D01*
X4312Y2892D01*
X4315Y2897D01*
X4316Y2904D01*
X4316Y2912D01*
X4316Y2923D01*
X4315Y2929D01*
X4313Y2935D01*
X4311Y2939D01*
X4308Y2940D01*
X4306Y2938D01*
X4304Y2934D01*
G01X4357Y2847D02*
X4356Y2849D01*
X4355Y2853D01*
X4354Y2859D01*
X4355Y2864D01*
X4356Y2868D01*
X4359Y2870D01*
X4368D01*
Y2820D01*
X4357D01*
X4354Y2823D01*
X4353Y2828D01*
X4352Y2834D01*
X4353Y2840D01*
X4355Y2845D01*
X4357Y2847D01*
X4368D01*
G01X4328Y2866D02*
X4330Y2868D01*
X4332Y2870D01*
X4335D01*
X4338Y2868D01*
X4340Y2863D01*
X4342Y2858D01*
X4343Y2850D01*
X4343Y2843D01*
X4343Y2835D01*
X4342Y2830D01*
X4340Y2825D01*
X4337Y2822D01*
X4335Y2820D01*
X4333D01*
X4330Y2822D01*
X4328Y2824D01*
X4327Y2828D01*
G01X4317Y2830D02*
X4315Y2824D01*
X4313Y2821D01*
X4310Y2820D01*
X4307Y2821D01*
X4304Y2825D01*
X4303Y2830D01*
X4302Y2835D01*
X4303Y2841D01*
X4305Y2845D01*
X4308Y2847D01*
X4311D01*
G01X4308D02*
X4306Y2849D01*
X4304Y2853D01*
X4303Y2858D01*
X4304Y2863D01*
X4306Y2868D01*
X4309Y2870D01*
X4312Y2869D01*
X4315Y2866D01*
G01X4292Y2828D02*
X4290Y2823D01*
X4288Y2821D01*
X4285Y2820D01*
X4282Y2822D01*
X4280Y2825D01*
X4278Y2831D01*
X4278Y2838D01*
X4278Y2844D01*
X4280Y2848D01*
X4282Y2852D01*
X4285Y2852D01*
X4287Y2852D01*
X4290Y2848D01*
X4289Y2870D01*
X4280D01*
G01X4367Y2960D02*
Y3010D01*
X4358D01*
X4356Y3008D01*
X4354Y3004D01*
X4353Y2998D01*
X4354Y2991D01*
X4356Y2987D01*
X4358Y2984D01*
X4367D01*
G01X4358D02*
X4353Y2960D01*
G01X4342Y2968D02*
X4340Y2963D01*
X4338Y2961D01*
X4335Y2960D01*
X4332Y2962D01*
X4330Y2965D01*
X4328Y2971D01*
X4328Y2978D01*
X4328Y2984D01*
X4330Y2988D01*
X4332Y2992D01*
X4335Y2992D01*
X4337Y2992D01*
X4340Y2988D01*
X4339Y3010D01*
X4330D01*
G01X4306Y2960D02*
Y3010D01*
X4318Y2974D01*
X4302D01*
G01X4367Y3100D02*
Y3150D01*
X4358D01*
X4356Y3148D01*
X4354Y3144D01*
X4353Y3138D01*
X4354Y3131D01*
X4356Y3127D01*
X4358Y3124D01*
X4367D01*
G01X4358D02*
X4353Y3100D01*
G01X4342Y3108D02*
X4340Y3103D01*
X4338Y3101D01*
X4335Y3100D01*
X4332Y3102D01*
X4330Y3105D01*
X4328Y3111D01*
X4328Y3118D01*
X4328Y3124D01*
X4330Y3128D01*
X4332Y3132D01*
X4335Y3133D01*
X4337Y3132D01*
X4340Y3128D01*
X4339Y3150D01*
X4330D01*
G01X4317Y3110D02*
X4315Y3104D01*
X4313Y3101D01*
X4310Y3100D01*
X4307Y3101D01*
X4304Y3105D01*
X4303Y3110D01*
X4302Y3115D01*
X4303Y3121D01*
X4305Y3125D01*
X4308Y3127D01*
X4311D01*
G01X4308D02*
X4306Y3129D01*
X4304Y3133D01*
X4303Y3138D01*
X4304Y3143D01*
X4306Y3148D01*
X4309Y3150D01*
X4312Y3149D01*
X4315Y3146D01*
G01X4367Y3170D02*
Y3220D01*
X4358D01*
X4356Y3218D01*
X4354Y3214D01*
X4353Y3208D01*
X4354Y3201D01*
X4356Y3197D01*
X4358Y3194D01*
X4367D01*
G01X4358D02*
X4353Y3170D01*
G01X4342Y3178D02*
X4340Y3173D01*
X4338Y3171D01*
X4335Y3170D01*
X4332Y3172D01*
X4330Y3175D01*
X4328Y3181D01*
X4328Y3188D01*
X4328Y3194D01*
X4330Y3198D01*
X4332Y3202D01*
X4335Y3202D01*
X4337Y3202D01*
X4340Y3198D01*
X4339Y3220D01*
X4330D01*
G01X4317Y3178D02*
X4315Y3173D01*
X4313Y3171D01*
X4310Y3170D01*
X4307Y3172D01*
X4305Y3175D01*
X4303Y3181D01*
X4303Y3188D01*
X4303Y3194D01*
X4305Y3198D01*
X4307Y3202D01*
X4310Y3202D01*
X4312Y3202D01*
X4315Y3198D01*
X4314Y3220D01*
X4305D01*
G01X4357Y3057D02*
X4356Y3059D01*
X4355Y3063D01*
X4354Y3069D01*
X4355Y3074D01*
X4356Y3078D01*
X4359Y3080D01*
X4368D01*
Y3030D01*
X4357D01*
X4354Y3033D01*
X4353Y3038D01*
X4352Y3044D01*
X4353Y3050D01*
X4355Y3055D01*
X4357Y3057D01*
X4368D01*
G01X4328Y3076D02*
X4330Y3078D01*
X4332Y3080D01*
X4335D01*
X4338Y3078D01*
X4340Y3073D01*
X4342Y3068D01*
X4343Y3060D01*
X4343Y3052D01*
X4343Y3045D01*
X4342Y3040D01*
X4340Y3035D01*
X4337Y3032D01*
X4335Y3030D01*
X4333D01*
X4330Y3032D01*
X4328Y3034D01*
X4327Y3038D01*
G01X4317Y3040D02*
X4315Y3034D01*
X4313Y3031D01*
X4310Y3030D01*
X4307Y3031D01*
X4304Y3035D01*
X4303Y3040D01*
X4302Y3045D01*
X4303Y3051D01*
X4305Y3055D01*
X4308Y3057D01*
X4311D01*
G01X4308D02*
X4306Y3059D01*
X4304Y3063D01*
X4303Y3068D01*
X4304Y3073D01*
X4306Y3078D01*
X4309Y3080D01*
X4312Y3079D01*
X4315Y3076D01*
G01X4281Y3030D02*
Y3080D01*
X4293Y3044D01*
X4277D01*
G01X4337Y3373D02*
X4339Y3374D01*
X4343Y3375D01*
X4349Y3376D01*
X4354Y3375D01*
X4358Y3374D01*
X4360Y3371D01*
Y3362D01*
X4310D01*
Y3373D01*
X4313Y3376D01*
X4318Y3377D01*
X4324Y3378D01*
X4330Y3377D01*
X4335Y3375D01*
X4337Y3373D01*
Y3362D01*
G01X4356Y3402D02*
X4358Y3400D01*
X4360Y3398D01*
Y3395D01*
X4358Y3392D01*
X4353Y3390D01*
X4348Y3388D01*
X4340Y3387D01*
X4333Y3387D01*
X4325Y3387D01*
X4320Y3388D01*
X4315Y3390D01*
X4312Y3393D01*
X4310Y3395D01*
Y3397D01*
X4312Y3400D01*
X4314Y3402D01*
X4318Y3403D01*
G01X4320Y3413D02*
X4314Y3415D01*
X4311Y3417D01*
X4310Y3420D01*
X4311Y3423D01*
X4315Y3426D01*
X4320Y3427D01*
X4325Y3428D01*
X4331Y3427D01*
X4335Y3425D01*
X4337Y3422D01*
Y3419D01*
G01Y3422D02*
X4339Y3424D01*
X4343Y3426D01*
X4348Y3427D01*
X4353Y3426D01*
X4358Y3424D01*
X4360Y3421D01*
X4359Y3418D01*
X4356Y3415D01*
G01X4320Y3438D02*
X4314Y3440D01*
X4311Y3442D01*
X4310Y3445D01*
X4311Y3448D01*
X4315Y3451D01*
X4320Y3452D01*
X4325Y3453D01*
X4331Y3452D01*
X4335Y3450D01*
X4337Y3447D01*
Y3444D01*
G01Y3447D02*
X4339Y3449D01*
X4343Y3451D01*
X4348Y3452D01*
X4353Y3451D01*
X4358Y3449D01*
X4360Y3446D01*
X4359Y3443D01*
X4356Y3440D01*
G01X4668Y355D02*
X4661D01*
Y340D01*
X4663Y335D01*
X4666Y332D01*
X4669Y330D01*
X4672Y332D01*
X4675Y335D01*
X4677Y340D01*
X4678Y346D01*
X4679Y352D01*
Y358D01*
X4678Y363D01*
X4677Y369D01*
X4675Y374D01*
X4673Y378D01*
X4670Y380D01*
X4668D01*
X4665Y378D01*
X4663Y375D01*
G01X4653Y330D02*
Y380D01*
X4637Y330D01*
Y380D01*
G01X4627Y330D02*
Y380D01*
X4621D01*
X4618Y378D01*
X4616Y374D01*
X4614Y369D01*
X4613Y363D01*
X4613Y355D01*
X4613Y347D01*
X4614Y341D01*
X4616Y336D01*
X4618Y332D01*
X4621Y330D01*
X4627D01*
G01X4602Y340D02*
X4600Y334D01*
X4598Y331D01*
X4595Y330D01*
X4592Y331D01*
X4589Y335D01*
X4588Y340D01*
X4587Y345D01*
X4588Y351D01*
X4590Y355D01*
X4593Y357D01*
X4596D01*
G01X4593D02*
X4591Y359D01*
X4589Y363D01*
X4588Y368D01*
X4589Y373D01*
X4591Y378D01*
X4594Y380D01*
X4597Y379D01*
X4600Y376D01*
G01X4637Y448D02*
X4635Y443D01*
X4633Y441D01*
X4630Y440D01*
X4627Y442D01*
X4625Y445D01*
X4623Y451D01*
X4623Y458D01*
X4623Y464D01*
X4625Y468D01*
X4627Y472D01*
X4630Y473D01*
X4632Y472D01*
X4635Y468D01*
X4634Y490D01*
X4625D01*
G01X4613D02*
X4605Y440D01*
X4597Y490D01*
G54D11*
G01X368Y910D02*
Y888D01*
X288Y808D01*
X82D01*
Y910D01*
G01Y1515D02*
Y1698D01*
G01Y2302D02*
Y2485D01*
G01Y3090D02*
Y3192D01*
X288D01*
X368Y3113D01*
Y3090D01*
G01X482Y1688D02*
X578D01*
G01Y1632D02*
X482D01*
G01Y1688D02*
G03Y1632I33J-27D01*
G01X360Y1698D02*
Y1518D01*
G01X560Y2240D02*
X440D01*
Y2420D01*
G01X368Y2485D02*
Y2298D01*
G01X440Y2420D02*
X545D01*
X560Y2405D01*
Y2240D01*
G01X620Y760D02*
X520D01*
Y660D01*
X620D01*
Y760D01*
G01Y660D02*
X520D01*
Y560D01*
X620D01*
Y660D01*
G01X578Y1688D02*
G02Y1632I-33J-27D01*
G01X530Y1680D02*
Y1640D01*
G01X802Y2652D02*
Y2748D01*
G01Y2652D02*
G03X858I28J33D01*
G01X802Y2748D02*
G02X858I28J-33D01*
G01X732Y2652D02*
Y2748D01*
G01X788D02*
Y2652D01*
G01X732D02*
G03X788I27J33D01*
G01X732Y2748D02*
G02X788I27J-33D01*
G01X740Y2700D02*
X780D01*
G01X765Y3222D02*
Y3058D01*
G01X675D02*
Y3222D01*
G01X765Y3058D02*
G02X675I-45J96D01*
G01X755Y3140D02*
X685D01*
G01X782Y3062D02*
Y3158D01*
G01X838D02*
G03X782I-27J-33D01*
G01X838Y3062D02*
G02X782I-27J33D01*
G01X830Y3110D02*
X790D01*
G01X765Y3222D02*
G03X675I-45J-96D01*
G01X948Y1203D02*
X852D01*
G01Y1258D02*
X948D01*
G01Y1203D02*
G03Y1258I-33J27D01*
G01X852Y1203D02*
G02Y1258I33J27D01*
G01X900Y1210D02*
Y1250D01*
G01X1002Y1688D02*
X1098D01*
G01Y1632D02*
X1002D01*
G01Y1688D02*
G03Y1632I33J-27D01*
G01X1098Y1688D02*
G02Y1632I-33J-27D01*
G01X1050Y1680D02*
Y1640D01*
G01X852Y2118D02*
X948D01*
G01Y2062D02*
X852D01*
G01Y2118D02*
G03Y2062I33J-28D01*
G01X948Y2118D02*
G02Y2062I-33J-28D01*
G01X900Y2110D02*
Y2070D01*
G01X858Y2748D02*
Y2652D01*
G01X810Y2700D02*
X850D01*
G01X838Y3158D02*
Y3062D01*
G01X1228Y1788D02*
Y1693D01*
G01X1172D02*
Y1788D01*
G01X1228Y1693D02*
G02X1172I-28J33D01*
G01X1242Y1688D02*
X1338D01*
G01Y1632D02*
X1242D01*
G01Y1688D02*
G03Y1632I33J-27D01*
G01X1338Y1688D02*
G02Y1632I-33J-27D01*
G01X1290Y1680D02*
Y1640D01*
G01X1172Y1552D02*
Y1648D01*
G01X1228D02*
Y1552D01*
G01X1172D02*
G03X1228I27J33D01*
G01X1172Y1648D02*
G02X1228I27J-33D01*
G01X1180Y1600D02*
X1220D01*
G01X1228Y1788D02*
G03X1172I-28J-33D01*
G01X1220Y1740D02*
X1180D01*
G01X1558Y1203D02*
X1463D01*
G01Y1258D02*
X1558D01*
G01Y1203D02*
G03Y1258I-33J27D01*
G01X1463Y1203D02*
G02Y1258I33J27D01*
G01X1510Y1210D02*
Y1250D01*
G01X1698Y1348D02*
X1602D01*
G01Y1402D02*
X1698D01*
G01Y1348D02*
G03Y1402I-33J28D01*
G01X1602Y1348D02*
G02Y1402I33J28D01*
G01X1650Y1355D02*
Y1395D01*
G01X1698Y1282D02*
X1602D01*
G01Y1338D02*
X1698D01*
G01Y1282D02*
G03Y1338I-33J28D01*
G01X1602Y1282D02*
G02Y1338I33J28D01*
G01X1650Y1290D02*
Y1330D01*
G01X1698Y1988D02*
X1602D01*
G01Y2042D02*
G03Y1988I33J-27D01*
G01X1698Y2042D02*
G02Y1988I-33J-27D01*
G01X1650Y2035D02*
Y1995D01*
G01X1602Y1978D02*
X1698D01*
G01Y1922D02*
X1602D01*
G01Y1978D02*
G03Y1922I33J-28D01*
G01X1698Y1978D02*
G02Y1922I-33J-28D01*
G01X1650Y1970D02*
Y1930D01*
G01X1602Y2042D02*
X1698D01*
G01X1658Y2978D02*
X1752D01*
X1762Y2968D01*
Y2932D01*
X1752Y2922D01*
X1658D01*
X1648Y2932D01*
Y2968D01*
X1658Y2978D01*
G01X1705D02*
G03Y2950I16J-14D01*
G01X1840Y2860D02*
Y2900D01*
G01X1898Y2852D02*
X1782D01*
Y2908D01*
X1898D01*
Y2852D01*
G01X1888Y2782D02*
X1792D01*
G01Y2838D02*
X1888D01*
G01Y2782D02*
G03Y2838I-33J27D01*
G01X1792Y2782D02*
G02Y2838I33J27D01*
G01X1840Y2790D02*
Y2830D01*
G01X1888Y2712D02*
X1792D01*
G01Y2768D02*
X1888D01*
G01Y2712D02*
G03Y2768I-33J28D01*
G01X1792Y2712D02*
G02Y2768I33J28D01*
G01X1840Y2720D02*
Y2760D01*
G01X1792Y2698D02*
X1888D01*
G01Y2642D02*
X1792D01*
G01Y2698D02*
G03Y2642I33J-28D01*
G01X1888Y2698D02*
G02Y2642I-33J-28D01*
G01X1840Y2690D02*
Y2650D01*
G01X1792Y3118D02*
X1888D01*
X1898Y3108D01*
Y3073D01*
X1888Y3062D01*
X1792D01*
X1782Y3073D01*
Y3108D01*
X1792Y3118D01*
G01X1840D02*
G03Y3090I16J-14D01*
G01D02*
G02Y3062I-16J-14D01*
G01X1705Y2950D02*
G02Y2922I-16J-14D01*
G01X1792Y3188D02*
X1888D01*
G01Y3133D02*
X1792D01*
G01Y3188D02*
G03Y3133I33J-27D01*
G01X1888Y3188D02*
G02Y3133I-33J-27D01*
G01X1840Y3180D02*
Y3140D01*
G01X1792Y3048D02*
X1888D01*
G01Y2992D02*
X1792D01*
G01Y3048D02*
G03Y2992I33J-27D01*
G01X1888Y3048D02*
G02Y2992I-33J-27D01*
G01X1840Y3040D02*
Y3000D01*
G01X1928Y3048D02*
X2022D01*
G01Y2992D02*
X1928D01*
G01Y3048D02*
G03Y2992I33J-27D01*
G01X1975Y3040D02*
Y3000D01*
G01X1792Y2978D02*
X1888D01*
G01Y2922D02*
X1792D01*
G01Y2978D02*
G03Y2922I33J-27D01*
G01X1888Y2978D02*
G02Y2922I-33J-27D01*
G01X1840Y2970D02*
Y2930D01*
G01X2062Y3048D02*
X2158D01*
G01Y2992D02*
X2062D01*
G01Y3048D02*
G03Y2992I33J-27D01*
G01X2158Y3048D02*
G02Y2992I-33J-27D01*
G01X2110Y3040D02*
Y3000D01*
G01X2022Y3048D02*
G02Y2992I-33J-27D01*
G01X2740Y140D02*
X2700D01*
G01X2748Y198D02*
Y82D01*
X2692D01*
Y198D01*
X2748D01*
G01X2810Y140D02*
X2770D01*
G01X2818Y198D02*
Y82D01*
X2762D01*
Y198D01*
X2818D01*
G01X2792Y2788D02*
X2888D01*
G01Y2732D02*
X2792D01*
G01Y2788D02*
G03Y2732I33J-27D01*
G01X2888Y2788D02*
G02Y2732I-33J-27D01*
G01X2840Y2780D02*
Y2740D01*
G01X2758Y2982D02*
X2662D01*
G01Y3038D02*
X2758D01*
G01Y2982D02*
G03Y3038I-33J28D01*
G01X2662Y2982D02*
G02Y3038I33J28D01*
G01X2710Y2990D02*
Y3030D01*
G01X2888Y2982D02*
X2792D01*
G01Y3038D02*
X2888D01*
G01Y2982D02*
G03Y3038I-33J28D01*
G01X2792Y2982D02*
G02Y3038I33J28D01*
G01X2840Y2990D02*
Y3030D01*
G01X3168Y3338D02*
Y3242D01*
G01X3113D02*
Y3338D01*
G01X3168D02*
G03X3113I-27J-33D01*
G01X3168Y3242D02*
G02X3113I-27J33D01*
G01X3160Y3290D02*
X3120D01*
G01X3800Y510D02*
X3700D01*
Y410D01*
X3800D01*
Y510D01*
G01Y410D02*
X3700D01*
Y310D01*
X3800D01*
Y410D01*
G01X3792Y2548D02*
X3908D01*
Y2492D01*
X3792D01*
Y2548D01*
G01Y2478D02*
X3908D01*
Y2422D01*
X3792D01*
Y2478D01*
G01X3638Y2312D02*
X3542D01*
G01Y2368D02*
X3638D01*
G01Y2312D02*
G03Y2368I-33J27D01*
G01X3542Y2312D02*
G02Y2368I33J27D01*
G01X3590Y2320D02*
Y2360D01*
G01X3638Y2492D02*
X3542D01*
G01Y2548D02*
X3638D01*
G01Y2492D02*
G03Y2548I-33J27D01*
G01X3542Y2492D02*
G02Y2548I33J27D01*
G01X3590Y2500D02*
Y2540D01*
G01X3672Y2548D02*
X3768D01*
G01Y2492D02*
X3672D01*
G01Y2548D02*
G03Y2492I33J-27D01*
G01X3768Y2548D02*
G02Y2492I-33J-27D01*
G01X3720Y2540D02*
Y2500D01*
G01X4118Y922D02*
X4022D01*
G01Y978D02*
X4118D01*
G01X4022Y922D02*
G02Y978I33J28D01*
G01X4070Y930D02*
Y970D01*
G01X4118Y2033D02*
X4022D01*
G01Y2088D02*
X4118D01*
G01X4022Y2033D02*
G02Y2088I33J27D01*
G01X4070Y2040D02*
Y2080D01*
G01X3850Y2540D02*
Y2500D01*
G01Y2470D02*
Y2430D01*
G01X4035Y3247D02*
X4096D01*
Y3202D01*
G01X4035Y3113D02*
X4096D01*
Y3158D01*
G01X4035Y3107D02*
X4096D01*
Y3062D01*
G01X4035Y2973D02*
X4096D01*
Y3018D01*
G01X4118Y922D02*
G03Y978I-33J28D01*
G01Y2033D02*
G03Y2088I-33J27D01*
G01X4248Y2843D02*
X4152D01*
G01Y2898D02*
X4248D01*
G01Y2843D02*
G03Y2898I-33J27D01*
G01X4152Y2843D02*
G02Y2898I33J27D01*
G01X4200Y2850D02*
Y2890D01*
G01Y2990D02*
Y3030D01*
G01X4258Y2982D02*
X4142D01*
Y3038D01*
X4258D01*
Y2982D01*
G01X4200Y3130D02*
Y3170D01*
G01X4258Y3122D02*
X4142D01*
Y3178D01*
X4258D01*
Y3122D01*
G01X4200Y2920D02*
Y2960D01*
G01X4258Y2912D02*
X4142D01*
Y2968D01*
X4258D01*
Y2912D01*
G01X4200Y3200D02*
Y3240D01*
G01X4258Y3192D02*
X4142D01*
Y3248D01*
X4258D01*
Y3192D01*
G01X4248Y3052D02*
X4152D01*
G01Y3108D02*
X4248D01*
G01Y3052D02*
G03Y3108I-33J27D01*
G01X4152Y3052D02*
G02Y3108I33J27D01*
G01X4200Y3060D02*
Y3100D01*
G01X4368Y3338D02*
Y3242D01*
G01X4312D02*
Y3338D01*
G01X4368D02*
G03X4312I-27J-33D01*
G01X4368Y3242D02*
G02X4312I-27J33D01*
G01X4360Y3290D02*
X4320D01*
G01X4560Y410D02*
X4460D01*
Y310D01*
X4560D01*
Y410D01*
G01Y510D02*
X4460D01*
Y410D01*
X4560D01*
Y510D01*
M02*
