G04 ================== begin FILE IDENTIFICATION RECORD ==================*
G04 Layout Name:  M:/QB3_V12/QB3_V12.brd*
G04 Film Name:    paste_bot*
G04 File Format:  Gerber RS274X*
G04 File Origin:  15.7-p007*
G04 Origin Date:  Wed Apr 18 17:00:50 2007*
G04 *
G04 Layer:  VIA CLASS/PASTEMASK_BOTTOM*
G04 Layer:  PIN/PASTEMASK_BOTTOM*
G04 *
G04 Offset:    (0.00 0.00)*
G04 Mirror:    No*
G04 Mode:      Positive*
G04 Rotation:  0*
G04 FullContactRelief:  No*
G04 UndefLineWidth:     0.00*
G04 ================== end FILE IDENTIFICATION RECORD ====================*
%FSLAX53Y53*MOIN*%
%IR0*IPPOS*OFA0.00000B0.00000*MIA0B0*SFA1.00000B1.00000*%
%ADD24R,.047X.106*%
%ADD10C,.035*%
%AMMACRO20*
21,1,.024,.024,0.0,0.0,45.*%
%ADD20MACRO20*%
%AMMACRO18*
21,1,.035,.035,0.0,0.0,45.*%
%ADD18MACRO18*%
%ADD11R,.035X.035*%
%ADD13R,.04X.025*%
%ADD19R,.025X.04*%
%ADD12R,.04X.018*%
%ADD22R,.018X.04*%
%ADD21R,.071X.047*%
%ADD14R,.047X.071*%
%ADD23R,.024X.059*%
%ADD15R,.04134X.02362*%
%ADD16R,.03937X.01181*%
%ADD17R,.03937X.01575*%
%LPD*%
G75*
G54D10*
X200Y400D03*
Y3590D03*
X4800Y400D03*
Y3600D03*
G54D11*
X190Y1415D03*
Y1350D03*
Y1285D03*
Y1480D03*
Y1545D03*
X250Y1415D03*
Y1350D03*
Y1285D03*
Y1480D03*
Y1545D03*
X665Y745D03*
X605D03*
X730Y1065D03*
X670D03*
X1020Y650D03*
X1080D03*
X1020Y775D03*
X1080D03*
X1020Y1070D03*
X1080D03*
X950Y2245D03*
X890D03*
X950Y2310D03*
X890D03*
X950Y2180D03*
X890D03*
X950Y2375D03*
X890D03*
X1260Y650D03*
X1320D03*
X1140D03*
X1200D03*
X1380D03*
Y935D03*
X1360Y2310D03*
X1420D03*
X1360Y2180D03*
X1420D03*
X1360Y2245D03*
X1420D03*
Y3900D03*
Y3840D03*
X1350Y3900D03*
Y3840D03*
X1280D03*
Y3900D03*
X1440Y650D03*
Y935D03*
X1630Y3460D03*
X1570D03*
X1630Y3260D03*
X1570D03*
X1630Y3770D03*
X1570D03*
X1630Y3690D03*
X1570D03*
X1630Y3600D03*
X1570D03*
X1630Y3530D03*
X1570D03*
X1490Y3900D03*
Y3840D03*
X1785Y650D03*
X1725D03*
X1785Y1110D03*
X1725D03*
X1785Y1035D03*
X1725D03*
X1785Y1270D03*
X1725D03*
X1785Y1505D03*
X1725D03*
X1785Y1440D03*
X1725D03*
X1855Y2215D03*
X1915D03*
X1855Y2475D03*
X1915D03*
X2220Y910D03*
Y970D03*
X2155D03*
Y910D03*
X2220Y1040D03*
Y1100D03*
X2155Y1040D03*
Y1100D03*
X2220Y1190D03*
X2160D03*
X2220Y1340D03*
X2160D03*
X2140Y2020D03*
X2080D03*
X2450D03*
X2510D03*
X2450Y2150D03*
X2510D03*
Y2280D03*
X2450D03*
Y2085D03*
X2510D03*
X2450Y2410D03*
X2510D03*
X2915Y2105D03*
X2855D03*
X2915Y2430D03*
X2855D03*
X3380Y590D03*
Y530D03*
X3770D03*
Y590D03*
X3840Y530D03*
Y590D03*
X3910Y530D03*
Y590D03*
X4050Y530D03*
Y590D03*
X3980Y530D03*
Y590D03*
X4120Y530D03*
Y590D03*
X4260D03*
Y530D03*
X4190Y590D03*
Y530D03*
X4330D03*
Y590D03*
X4765Y1025D03*
X4825D03*
X4935Y960D03*
X4875D03*
X4935Y895D03*
X4875D03*
X4935Y1310D03*
X4875D03*
X4935Y1190D03*
X4875D03*
X4765Y1125D03*
X4825D03*
X4765Y1490D03*
X4825D03*
X4935Y1740D03*
X4875D03*
X4935Y2100D03*
X4875D03*
X4765Y2045D03*
X4825D03*
X4765Y2290D03*
X4825D03*
X4765Y2490D03*
X4825D03*
G54D20*
X3515Y1329D03*
X3489Y1303D03*
X3460Y1384D03*
X3434Y1358D03*
X3378Y1414D03*
X3293Y1609D03*
X3267Y1635D03*
X3404Y1440D03*
X3348Y1496D03*
X3322Y1470D03*
X3404Y1720D03*
X3490Y1578D03*
X3515Y1552D03*
X3378Y1746D03*
X3460Y1776D03*
X3434Y1802D03*
X3516Y1832D03*
X3490Y1858D03*
X3629Y1273D03*
X3655Y1247D03*
X3767Y1412D03*
X3793Y1386D03*
X3684Y1329D03*
X3710Y1303D03*
X3602Y1690D03*
X3628Y1665D03*
X3633Y1505D03*
X3607Y1531D03*
X3671Y1543D03*
X3645Y1569D03*
X3708Y1582D03*
X3682Y1608D03*
X3527Y1615D03*
X3553Y1590D03*
X3565Y1653D03*
X3590Y1627D03*
X3573Y1831D03*
X3599Y1857D03*
X3657Y1859D03*
X3683Y1885D03*
X3712Y1804D03*
X3738Y1830D03*
X3907Y1551D03*
X3933Y1525D03*
X3824Y1692D03*
X3850Y1718D03*
X3879Y1637D03*
X3905Y1663D03*
X3851Y1495D03*
X3877Y1469D03*
G54D21*
X3500Y3543D03*
Y3657D03*
G54D12*
X665Y475D03*
Y445D03*
X605D03*
Y475D03*
X665Y640D03*
Y610D03*
X605D03*
Y640D03*
G54D22*
X3565Y530D03*
X3535D03*
Y590D03*
X3565D03*
G54D13*
X665Y510D03*
Y410D03*
X605D03*
Y510D03*
X665Y675D03*
Y575D03*
X605D03*
Y675D03*
G54D23*
X4407Y668D03*
X4333D03*
X4370Y752D03*
X4257Y668D03*
X4183D03*
X4220Y752D03*
G54D14*
X853Y3020D03*
X967D03*
X4927Y1600D03*
X4813D03*
G54D15*
X2622Y813D03*
Y603D03*
Y634D03*
Y666D03*
Y697D03*
Y1023D03*
Y1054D03*
Y1086D03*
Y844D03*
Y876D03*
Y907D03*
Y1117D03*
Y1233D03*
Y1264D03*
Y1296D03*
Y1327D03*
Y1443D03*
Y1474D03*
Y1506D03*
Y1537D03*
X2688Y813D03*
Y697D03*
Y666D03*
Y634D03*
Y603D03*
Y1086D03*
Y1054D03*
Y1023D03*
Y907D03*
Y876D03*
Y844D03*
Y1117D03*
Y1327D03*
Y1296D03*
Y1264D03*
Y1233D03*
Y1537D03*
Y1506D03*
Y1474D03*
Y1443D03*
G54D24*
X4708Y2390D03*
X4822D03*
G54D16*
X2540Y699D03*
Y680D03*
X2480Y601D03*
Y620D03*
X2540Y660D03*
Y640D03*
Y620D03*
Y601D03*
X2480Y640D03*
Y660D03*
Y680D03*
Y699D03*
X2540Y1100D03*
X2480Y1021D03*
Y1040D03*
X2540Y1080D03*
Y1060D03*
Y1040D03*
Y1021D03*
X2480Y1060D03*
Y1080D03*
Y1100D03*
X2540Y909D03*
Y890D03*
X2480Y811D03*
Y830D03*
X2540Y870D03*
Y850D03*
Y830D03*
Y811D03*
X2480Y850D03*
Y870D03*
Y890D03*
Y909D03*
X2540Y1119D03*
X2480D03*
X2540Y1329D03*
Y1310D03*
X2480Y1231D03*
Y1250D03*
X2540Y1290D03*
Y1270D03*
Y1250D03*
Y1231D03*
X2480Y1270D03*
Y1290D03*
Y1310D03*
Y1329D03*
X2540Y1537D03*
Y1517D03*
X2480Y1438D03*
Y1458D03*
X2540Y1497D03*
Y1478D03*
Y1458D03*
Y1438D03*
X2480Y1478D03*
Y1497D03*
Y1517D03*
Y1537D03*
G54D17*
X2540Y721D03*
Y579D03*
X2480D03*
Y721D03*
X2540Y789D03*
X2480D03*
X2540Y999D03*
X2480D03*
X2540Y931D03*
X2480D03*
X2540Y1141D03*
X2480D03*
X2540Y1351D03*
Y1209D03*
X2480D03*
Y1351D03*
X2540Y1558D03*
Y1417D03*
X2480D03*
Y1558D03*
G54D18*
X3171Y1391D03*
X3129Y1349D03*
X3221Y1341D03*
X3179Y1299D03*
X3331Y1231D03*
X3289Y1189D03*
X3381Y1181D03*
X3339Y1139D03*
G54D19*
X3500Y530D03*
Y590D03*
X3600Y530D03*
Y590D03*
M02*
