G04 ================== begin FILE IDENTIFICATION RECORD ==================*
G04 Layout Name:  M:/QB3_V12/QB3_V12.brd*
G04 Film Name:    silk_bot*
G04 File Format:  Gerber RS274X*
G04 File Origin:  15.7-p007*
G04 Origin Date:  Wed Apr 18 17:00:50 2007*
G04 *
G04 Layer:  REF DES/SILKSCREEN_BOTTOM*
G04 Layer:  PACKAGE GEOMETRY/SILKSCREEN_BOTTOM*
G04 Layer:  BOARD GEOMETRY/OUTLINE*
G04 Layer:  BOARD GEOMETRY/SILKSCREEN_BOTTOM*
G04 *
G04 Offset:    (0.00 0.00)*
G04 Mirror:    No*
G04 Mode:      Positive*
G04 Rotation:  0*
G04 FullContactRelief:  No*
G04 UndefLineWidth:     7.00*
G04 ================== end FILE IDENTIFICATION RECORD ====================*
%FSLAX53Y53*MOIN*%
%IR0*IPPOS*OFA0.00000B0.00000*MIA0B0*SFA1.00000B1.00000*%
%ADD10C,.007*%
%ADD11C,.006*%
%ADD12C,.008*%
%ADD13R,.038X.038*%
G75*
%LPD*%
G75*
G36*
G01X2735Y700D02*
G03I-5J0D01*
G37*
G36*
G01Y910D02*
G03I-5J0D01*
G37*
G36*
G01Y1120D02*
G03I-5J0D01*
G37*
G36*
G01Y1330D02*
G03I-5J0D01*
G37*
G36*
G01Y1540D02*
G03I-5J0D01*
G37*
G36*
G01X3407Y530D02*
G03I-27J0D01*
G37*
G36*
G01Y590D02*
G03I-27J0D01*
G37*
%LPC*%
G75*
G54D13*
X3380Y530D03*
Y590D03*
%LPD*%
G75*
G54D10*
G01X0Y0D02*
Y4000D01*
X5000D01*
Y0D01*
X0D01*
G54D11*
G01X137Y1440D02*
Y1390D01*
X123D01*
G01X112Y1398D02*
X110Y1393D01*
X108Y1391D01*
X105Y1390D01*
X102Y1392D01*
X100Y1395D01*
X98Y1401D01*
X98Y1408D01*
X98Y1414D01*
X100Y1418D01*
X102Y1422D01*
X105Y1422D01*
X107Y1422D01*
X110Y1418D01*
X109Y1440D01*
X100D01*
G01X137Y1380D02*
Y1330D01*
X123D01*
G01X111Y1351D02*
X109Y1357D01*
X107Y1360D01*
X104Y1362D01*
X102Y1360D01*
X100Y1357D01*
X99Y1352D01*
X99Y1346D01*
X99Y1341D01*
X100Y1336D01*
X102Y1332D01*
X105Y1330D01*
X107Y1332D01*
X110Y1337D01*
X111Y1344D01*
X111Y1352D01*
X111Y1363D01*
X110Y1369D01*
X108Y1375D01*
X106Y1379D01*
X103Y1380D01*
X101Y1378D01*
X99Y1374D01*
G01X127Y1287D02*
X126Y1289D01*
X125Y1293D01*
X124Y1299D01*
X125Y1304D01*
X126Y1308D01*
X129Y1310D01*
X138D01*
Y1260D01*
X127D01*
X124Y1263D01*
X123Y1268D01*
X122Y1274D01*
X123Y1280D01*
X125Y1285D01*
X127Y1287D01*
X138D01*
G01X98Y1306D02*
X100Y1308D01*
X102Y1310D01*
X105D01*
X108Y1308D01*
X110Y1303D01*
X112Y1298D01*
X113Y1290D01*
X113Y1282D01*
X113Y1275D01*
X112Y1270D01*
X110Y1265D01*
X107Y1262D01*
X105Y1260D01*
X103D01*
X100Y1262D01*
X98Y1264D01*
X97Y1268D01*
G01X80Y1260D02*
X78Y1261D01*
X75Y1263D01*
X73Y1268D01*
X73Y1273D01*
X73Y1279D01*
X75Y1284D01*
X78Y1287D01*
X82D01*
X84Y1288D01*
X85Y1292D01*
X86Y1298D01*
X85Y1304D01*
X83Y1308D01*
X80Y1310D01*
X77Y1308D01*
X75Y1304D01*
X74Y1298D01*
X75Y1292D01*
X76Y1288D01*
X78Y1287D01*
X82D01*
X85Y1284D01*
X87Y1279D01*
X87Y1273D01*
X87Y1268D01*
X85Y1263D01*
X82Y1261D01*
X80Y1260D01*
G01X61Y1302D02*
X59Y1307D01*
X57Y1309D01*
X54Y1310D01*
X51Y1308D01*
X49Y1304D01*
X48Y1299D01*
X48Y1294D01*
X50Y1290D01*
X56Y1282D01*
X59Y1276D01*
X61Y1268D01*
X62Y1260D01*
X48D01*
G01X137Y1505D02*
Y1455D01*
X123D01*
G01X106D02*
X105Y1466D01*
X104Y1475D01*
X103Y1483D01*
X101Y1492D01*
X98Y1505D01*
X112D01*
G01X127Y1552D02*
X126Y1554D01*
X125Y1558D01*
X124Y1564D01*
X125Y1569D01*
X126Y1572D01*
X129Y1575D01*
X138D01*
Y1525D01*
X127D01*
X124Y1528D01*
X123Y1533D01*
X122Y1539D01*
X123Y1545D01*
X125Y1550D01*
X127Y1552D01*
X138D01*
G01X98Y1571D02*
X100Y1573D01*
X102Y1575D01*
X105D01*
X108Y1572D01*
X110Y1568D01*
X112Y1563D01*
X113Y1555D01*
X113Y1548D01*
X113Y1540D01*
X112Y1535D01*
X110Y1530D01*
X107Y1527D01*
X105Y1525D01*
X103D01*
X100Y1527D01*
X98Y1529D01*
X97Y1532D01*
G01X81Y1525D02*
X80Y1536D01*
X79Y1545D01*
X78Y1553D01*
X76Y1562D01*
X73Y1575D01*
X87D01*
G01X55Y1525D02*
X53Y1526D01*
X50Y1528D01*
X48Y1532D01*
X48Y1538D01*
X48Y1544D01*
X50Y1549D01*
X53Y1552D01*
X57D01*
X59Y1553D01*
X60Y1558D01*
X61Y1563D01*
X60Y1569D01*
X58Y1573D01*
X55Y1575D01*
X52Y1573D01*
X50Y1569D01*
X49Y1563D01*
X50Y1558D01*
X51Y1553D01*
X53Y1552D01*
X57D01*
X60Y1549D01*
X62Y1544D01*
X62Y1538D01*
X62Y1532D01*
X60Y1528D01*
X57Y1526D01*
X55Y1525D01*
G01X807Y430D02*
Y480D01*
X798D01*
X796Y478D01*
X794Y474D01*
X793Y468D01*
X794Y461D01*
X796Y457D01*
X798Y454D01*
X807D01*
G01X798D02*
X793Y430D01*
G01X783D02*
Y480D01*
X767Y430D01*
Y480D01*
G01X756Y472D02*
X754Y477D01*
X752Y479D01*
X749Y480D01*
X746Y478D01*
X744Y474D01*
X743Y469D01*
X743Y464D01*
X745Y460D01*
X751Y452D01*
X754Y446D01*
X756Y438D01*
X757Y430D01*
X743D01*
G01X721D02*
Y480D01*
X733Y444D01*
X717D01*
G01X797Y747D02*
X796Y749D01*
X795Y753D01*
X794Y759D01*
X795Y764D01*
X796Y768D01*
X799Y770D01*
X808D01*
Y720D01*
X797D01*
X794Y723D01*
X793Y728D01*
X792Y734D01*
X793Y740D01*
X795Y745D01*
X797Y747D01*
X808D01*
G01X768Y766D02*
X770Y768D01*
X772Y770D01*
X775D01*
X778Y768D01*
X780Y763D01*
X782Y758D01*
X783Y750D01*
X783Y742D01*
X783Y735D01*
X782Y730D01*
X780Y725D01*
X777Y722D01*
X775Y720D01*
X773D01*
X770Y722D01*
X768Y724D01*
X767Y728D01*
G01X750Y720D02*
X748Y721D01*
X745Y723D01*
X743Y728D01*
X743Y733D01*
X743Y739D01*
X745Y744D01*
X748Y747D01*
X752D01*
X754Y748D01*
X755Y753D01*
X756Y758D01*
X755Y764D01*
X753Y768D01*
X750Y770D01*
X747Y768D01*
X745Y764D01*
X744Y758D01*
X745Y753D01*
X746Y748D01*
X748Y747D01*
X752D01*
X755Y744D01*
X757Y739D01*
X757Y733D01*
X757Y728D01*
X755Y723D01*
X752Y721D01*
X750Y720D01*
G01X725D02*
Y770D01*
X729Y760D01*
G01Y720D02*
X721D01*
G01X807Y590D02*
Y640D01*
X798D01*
X796Y638D01*
X794Y634D01*
X793Y628D01*
X794Y621D01*
X796Y617D01*
X798Y614D01*
X807D01*
G01X798D02*
X793Y590D01*
G01X783D02*
Y640D01*
X767Y590D01*
Y640D01*
G01X756Y632D02*
X754Y637D01*
X752Y639D01*
X749Y640D01*
X746Y638D01*
X744Y634D01*
X743Y629D01*
X743Y624D01*
X745Y620D01*
X751Y612D01*
X754Y606D01*
X756Y598D01*
X757Y590D01*
X743D01*
G01X732Y600D02*
X730Y594D01*
X728Y591D01*
X725Y590D01*
X722Y591D01*
X719Y595D01*
X718Y600D01*
X717Y605D01*
X718Y611D01*
X720Y615D01*
X723Y617D01*
X726D01*
G01X723D02*
X721Y619D01*
X719Y623D01*
X718Y628D01*
X719Y633D01*
X721Y638D01*
X724Y640D01*
X727Y639D01*
X730Y636D01*
G01X857Y1067D02*
X856Y1069D01*
X855Y1073D01*
X854Y1079D01*
X855Y1084D01*
X856Y1088D01*
X859Y1090D01*
X868D01*
Y1040D01*
X857D01*
X854Y1043D01*
X853Y1048D01*
X852Y1054D01*
X853Y1060D01*
X855Y1065D01*
X857Y1067D01*
X868D01*
G01X828Y1086D02*
X830Y1088D01*
X832Y1090D01*
X835D01*
X838Y1088D01*
X840Y1083D01*
X842Y1078D01*
X843Y1070D01*
X843Y1062D01*
X843Y1055D01*
X842Y1050D01*
X840Y1045D01*
X837Y1042D01*
X835Y1040D01*
X833D01*
X830Y1042D01*
X828Y1044D01*
X827Y1048D01*
G01X811Y1040D02*
X810Y1051D01*
X809Y1060D01*
X808Y1068D01*
X806Y1078D01*
X803Y1090D01*
X817D01*
G01X786Y1040D02*
X785Y1051D01*
X784Y1060D01*
X783Y1068D01*
X781Y1078D01*
X778Y1090D01*
X792D01*
G01X880Y2640D02*
Y2690D01*
X884Y2680D01*
G01Y2640D02*
X876D01*
G01X863Y2690D02*
X855Y2640D01*
X847Y2690D01*
G01X836Y2682D02*
X834Y2687D01*
X832Y2689D01*
X829Y2690D01*
X826Y2688D01*
X824Y2684D01*
X823Y2679D01*
X823Y2674D01*
X825Y2670D01*
X831Y2662D01*
X834Y2656D01*
X836Y2648D01*
X837Y2640D01*
X823D01*
G01X812Y2648D02*
X810Y2643D01*
X808Y2641D01*
X805Y2640D01*
X802Y2642D01*
X800Y2645D01*
X798Y2651D01*
X798Y2658D01*
X798Y2664D01*
X800Y2668D01*
X802Y2672D01*
X805Y2672D01*
X807Y2672D01*
X810Y2668D01*
X809Y2690D01*
X800D01*
G01X1077Y550D02*
Y600D01*
X1068D01*
X1066Y598D01*
X1064Y594D01*
X1063Y588D01*
X1064Y581D01*
X1066Y577D01*
X1068Y574D01*
X1077D01*
G01X1068D02*
X1063Y550D01*
G01X1041D02*
Y600D01*
X1053Y564D01*
X1037D01*
G01X1026Y571D02*
X1024Y577D01*
X1022Y580D01*
X1019Y582D01*
X1017Y580D01*
X1015Y577D01*
X1014Y572D01*
X1014Y566D01*
X1014Y561D01*
X1015Y556D01*
X1017Y552D01*
X1020Y550D01*
X1022Y552D01*
X1025Y557D01*
X1026Y564D01*
X1026Y572D01*
X1026Y583D01*
X1025Y589D01*
X1023Y595D01*
X1021Y599D01*
X1018Y600D01*
X1016Y598D01*
X1014Y594D01*
G01X1087Y2215D02*
Y2265D01*
X1078D01*
X1076Y2262D01*
X1074Y2259D01*
X1073Y2252D01*
X1074Y2246D01*
X1076Y2242D01*
X1078Y2239D01*
X1087D01*
G01X1078D02*
X1073Y2215D01*
G01X1061Y2257D02*
X1059Y2262D01*
X1057Y2264D01*
X1054Y2265D01*
X1051Y2263D01*
X1049Y2259D01*
X1048Y2254D01*
X1048Y2249D01*
X1050Y2245D01*
X1056Y2237D01*
X1059Y2231D01*
X1061Y2222D01*
X1062Y2215D01*
X1048D01*
G01X1030Y2265D02*
X1033Y2263D01*
X1035Y2259D01*
X1036Y2254D01*
X1037Y2248D01*
X1037Y2240D01*
X1037Y2232D01*
X1036Y2226D01*
X1035Y2221D01*
X1033Y2217D01*
X1030Y2215D01*
X1027Y2217D01*
X1025Y2221D01*
X1024Y2226D01*
X1023Y2232D01*
X1023Y2240D01*
X1023Y2248D01*
X1024Y2254D01*
X1025Y2259D01*
X1027Y2263D01*
X1030Y2265D01*
G01X1077Y2312D02*
X1076Y2314D01*
X1075Y2318D01*
X1074Y2324D01*
X1075Y2329D01*
X1076Y2332D01*
X1079Y2335D01*
X1088D01*
Y2285D01*
X1077D01*
X1074Y2288D01*
X1073Y2293D01*
X1072Y2299D01*
X1073Y2305D01*
X1075Y2310D01*
X1077Y2312D01*
X1088D01*
G01X1048Y2331D02*
X1050Y2333D01*
X1052Y2335D01*
X1055D01*
X1058Y2332D01*
X1060Y2328D01*
X1062Y2323D01*
X1063Y2315D01*
X1063Y2308D01*
X1063Y2300D01*
X1062Y2295D01*
X1060Y2290D01*
X1057Y2287D01*
X1055Y2285D01*
X1053D01*
X1050Y2287D01*
X1048Y2289D01*
X1047Y2292D01*
G01X1036Y2306D02*
X1034Y2312D01*
X1032Y2315D01*
X1029Y2317D01*
X1027Y2315D01*
X1025Y2312D01*
X1024Y2307D01*
X1024Y2301D01*
X1024Y2296D01*
X1025Y2291D01*
X1027Y2287D01*
X1030Y2285D01*
X1032Y2287D01*
X1035Y2292D01*
X1036Y2299D01*
X1036Y2308D01*
X1036Y2318D01*
X1035Y2324D01*
X1033Y2330D01*
X1031Y2334D01*
X1028Y2335D01*
X1026Y2333D01*
X1024Y2329D01*
G01X1006Y2285D02*
X1005Y2296D01*
X1004Y2305D01*
X1003Y2313D01*
X1001Y2323D01*
X998Y2335D01*
X1012D01*
G01X1077Y2177D02*
X1076Y2179D01*
X1075Y2183D01*
X1074Y2189D01*
X1075Y2194D01*
X1076Y2198D01*
X1079Y2200D01*
X1088D01*
Y2150D01*
X1077D01*
X1074Y2153D01*
X1073Y2158D01*
X1072Y2164D01*
X1073Y2170D01*
X1075Y2175D01*
X1077Y2177D01*
X1088D01*
G01X1048Y2196D02*
X1050Y2198D01*
X1052Y2200D01*
X1055D01*
X1058Y2198D01*
X1060Y2193D01*
X1062Y2188D01*
X1063Y2180D01*
X1063Y2172D01*
X1063Y2165D01*
X1062Y2160D01*
X1060Y2155D01*
X1057Y2152D01*
X1055Y2150D01*
X1053D01*
X1050Y2152D01*
X1048Y2154D01*
X1047Y2158D01*
G01X1031Y2150D02*
X1030Y2161D01*
X1029Y2170D01*
X1028Y2178D01*
X1026Y2188D01*
X1023Y2200D01*
X1037D01*
G01X1005D02*
X1008Y2198D01*
X1010Y2194D01*
X1011Y2189D01*
X1012Y2182D01*
X1012Y2175D01*
X1012Y2168D01*
X1011Y2161D01*
X1010Y2156D01*
X1008Y2152D01*
X1005Y2150D01*
X1002Y2152D01*
X1000Y2156D01*
X999Y2161D01*
X998Y2168D01*
X998Y2175D01*
X998Y2182D01*
X999Y2189D01*
X1000Y2194D01*
X1002Y2198D01*
X1005Y2200D01*
G01X1077Y2377D02*
X1076Y2379D01*
X1075Y2383D01*
X1074Y2389D01*
X1075Y2394D01*
X1076Y2398D01*
X1079Y2400D01*
X1088D01*
Y2350D01*
X1077D01*
X1074Y2353D01*
X1073Y2358D01*
X1072Y2364D01*
X1073Y2370D01*
X1075Y2375D01*
X1077Y2377D01*
X1088D01*
G01X1048Y2396D02*
X1050Y2398D01*
X1052Y2400D01*
X1055D01*
X1058Y2398D01*
X1060Y2393D01*
X1062Y2388D01*
X1063Y2380D01*
X1063Y2372D01*
X1063Y2365D01*
X1062Y2360D01*
X1060Y2355D01*
X1057Y2352D01*
X1055Y2350D01*
X1053D01*
X1050Y2352D01*
X1048Y2354D01*
X1047Y2358D01*
G01X1036Y2371D02*
X1034Y2377D01*
X1032Y2380D01*
X1029Y2382D01*
X1027Y2380D01*
X1025Y2377D01*
X1024Y2372D01*
X1024Y2366D01*
X1024Y2361D01*
X1025Y2356D01*
X1027Y2352D01*
X1030Y2350D01*
X1032Y2352D01*
X1035Y2357D01*
X1036Y2364D01*
X1036Y2372D01*
X1036Y2383D01*
X1035Y2389D01*
X1033Y2395D01*
X1031Y2399D01*
X1028Y2400D01*
X1026Y2398D01*
X1024Y2394D01*
G01X1011Y2356D02*
X1008Y2352D01*
X1006Y2350D01*
X1003Y2352D01*
X1001Y2357D01*
X999Y2364D01*
X998Y2372D01*
Y2381D01*
X999Y2388D01*
X1001Y2395D01*
X1003Y2398D01*
X1005Y2400D01*
X1008Y2398D01*
X1010Y2395D01*
X1011Y2390D01*
X1012Y2383D01*
X1011Y2378D01*
X1009Y2372D01*
X1007Y2368D01*
X1005Y2368D01*
X1002Y2369D01*
X1000Y2373D01*
X998Y2381D01*
G01X988Y2665D02*
X981D01*
Y2650D01*
X983Y2645D01*
X986Y2642D01*
X989Y2640D01*
X992Y2642D01*
X995Y2645D01*
X997Y2650D01*
X998Y2656D01*
X999Y2662D01*
Y2668D01*
X998Y2673D01*
X997Y2679D01*
X995Y2684D01*
X993Y2688D01*
X990Y2690D01*
X988D01*
X985Y2688D01*
X983Y2685D01*
G01X973Y2640D02*
Y2690D01*
X957Y2640D01*
Y2690D01*
G01X947Y2640D02*
Y2690D01*
X941D01*
X938Y2688D01*
X936Y2684D01*
X934Y2679D01*
X933Y2673D01*
X933Y2665D01*
X933Y2657D01*
X934Y2651D01*
X936Y2646D01*
X938Y2642D01*
X941Y2640D01*
X947D01*
G01X915D02*
Y2690D01*
X919Y2680D01*
G01Y2640D02*
X911D01*
G01X1077Y3000D02*
Y3050D01*
X1068D01*
X1066Y3048D01*
X1064Y3044D01*
X1063Y3038D01*
X1064Y3031D01*
X1066Y3027D01*
X1068Y3024D01*
X1077D01*
G01X1068D02*
X1063Y3000D01*
G01X1052Y3007D02*
X1049Y3002D01*
X1046Y3000D01*
X1044D01*
X1041Y3002D01*
X1039Y3007D01*
X1038Y3012D01*
X1039Y3018D01*
X1040Y3023D01*
X1043Y3027D01*
X1047Y3028D01*
X1050Y3032D01*
X1051Y3038D01*
X1050Y3043D01*
X1048Y3048D01*
X1046Y3050D01*
X1044D01*
X1041Y3048D01*
X1039Y3044D01*
G01X1020Y3000D02*
Y3050D01*
X1024Y3040D01*
G01Y3000D02*
X1016D01*
G01X1317Y577D02*
X1316Y579D01*
X1315Y583D01*
X1314Y589D01*
X1315Y594D01*
X1316Y598D01*
X1319Y600D01*
X1328D01*
Y550D01*
X1317D01*
X1314Y553D01*
X1313Y558D01*
X1312Y564D01*
X1313Y570D01*
X1315Y575D01*
X1317Y577D01*
X1328D01*
G01X1288Y596D02*
X1290Y598D01*
X1292Y600D01*
X1295D01*
X1298Y598D01*
X1300Y593D01*
X1302Y588D01*
X1303Y580D01*
X1303Y572D01*
X1303Y565D01*
X1302Y560D01*
X1300Y555D01*
X1297Y552D01*
X1295Y550D01*
X1293D01*
X1290Y552D01*
X1288Y554D01*
X1287Y558D01*
G01X1276Y556D02*
X1273Y552D01*
X1271Y550D01*
X1268Y552D01*
X1266Y557D01*
X1264Y564D01*
X1263Y572D01*
Y581D01*
X1264Y588D01*
X1266Y595D01*
X1268Y598D01*
X1270Y600D01*
X1273Y598D01*
X1275Y595D01*
X1276Y590D01*
X1277Y583D01*
X1276Y578D01*
X1274Y572D01*
X1272Y568D01*
X1270Y568D01*
X1267Y569D01*
X1265Y573D01*
X1263Y581D01*
G01X1252Y560D02*
X1250Y554D01*
X1248Y551D01*
X1245Y550D01*
X1242Y551D01*
X1239Y555D01*
X1238Y560D01*
X1237Y565D01*
X1238Y571D01*
X1240Y575D01*
X1243Y577D01*
X1246D01*
G01X1243D02*
X1241Y579D01*
X1239Y583D01*
X1238Y588D01*
X1239Y593D01*
X1241Y598D01*
X1244Y600D01*
X1247Y599D01*
X1250Y596D01*
G01X1197Y577D02*
X1196Y579D01*
X1195Y583D01*
X1194Y589D01*
X1195Y594D01*
X1196Y598D01*
X1199Y600D01*
X1208D01*
Y550D01*
X1197D01*
X1194Y553D01*
X1193Y558D01*
X1192Y564D01*
X1193Y570D01*
X1195Y575D01*
X1197Y577D01*
X1208D01*
G01X1168Y596D02*
X1170Y598D01*
X1172Y600D01*
X1175D01*
X1178Y598D01*
X1180Y593D01*
X1182Y588D01*
X1183Y580D01*
X1183Y572D01*
X1183Y565D01*
X1182Y560D01*
X1180Y555D01*
X1177Y552D01*
X1175Y550D01*
X1173D01*
X1170Y552D01*
X1168Y554D01*
X1167Y558D01*
G01X1156Y556D02*
X1153Y552D01*
X1151Y550D01*
X1148Y552D01*
X1146Y557D01*
X1144Y564D01*
X1143Y572D01*
Y581D01*
X1144Y588D01*
X1146Y595D01*
X1148Y598D01*
X1150Y600D01*
X1153Y598D01*
X1155Y595D01*
X1156Y590D01*
X1157Y583D01*
X1156Y578D01*
X1154Y572D01*
X1152Y568D01*
X1150Y568D01*
X1147Y569D01*
X1145Y573D01*
X1143Y581D01*
G01X1131Y592D02*
X1129Y597D01*
X1127Y599D01*
X1124Y600D01*
X1121Y598D01*
X1119Y594D01*
X1118Y589D01*
X1118Y584D01*
X1120Y580D01*
X1126Y572D01*
X1129Y566D01*
X1131Y558D01*
X1132Y550D01*
X1118D01*
G01X1207Y777D02*
X1206Y779D01*
X1205Y783D01*
X1204Y789D01*
X1205Y794D01*
X1206Y798D01*
X1209Y800D01*
X1218D01*
Y750D01*
X1207D01*
X1204Y753D01*
X1203Y758D01*
X1202Y764D01*
X1203Y770D01*
X1205Y775D01*
X1207Y777D01*
X1218D01*
G01X1178Y796D02*
X1180Y798D01*
X1182Y800D01*
X1185D01*
X1188Y798D01*
X1190Y793D01*
X1192Y788D01*
X1193Y780D01*
X1193Y772D01*
X1193Y765D01*
X1192Y760D01*
X1190Y755D01*
X1187Y752D01*
X1185Y750D01*
X1183D01*
X1180Y752D01*
X1178Y754D01*
X1177Y758D01*
G01X1166Y756D02*
X1163Y752D01*
X1161Y750D01*
X1158Y752D01*
X1156Y757D01*
X1154Y764D01*
X1153Y772D01*
Y781D01*
X1154Y788D01*
X1156Y795D01*
X1158Y798D01*
X1160Y800D01*
X1163Y798D01*
X1165Y795D01*
X1166Y790D01*
X1167Y783D01*
X1166Y778D01*
X1164Y772D01*
X1162Y768D01*
X1160Y768D01*
X1157Y769D01*
X1155Y773D01*
X1153Y781D01*
G01X1135Y750D02*
Y800D01*
X1139Y790D01*
G01Y750D02*
X1131D01*
G01X1207Y1072D02*
X1206Y1074D01*
X1205Y1078D01*
X1204Y1084D01*
X1205Y1089D01*
X1206Y1092D01*
X1209Y1095D01*
X1218D01*
Y1045D01*
X1207D01*
X1204Y1048D01*
X1203Y1053D01*
X1202Y1059D01*
X1203Y1065D01*
X1205Y1070D01*
X1207Y1072D01*
X1218D01*
G01X1178Y1091D02*
X1180Y1093D01*
X1182Y1095D01*
X1185D01*
X1188Y1092D01*
X1190Y1088D01*
X1192Y1083D01*
X1193Y1075D01*
X1193Y1068D01*
X1193Y1060D01*
X1192Y1055D01*
X1190Y1050D01*
X1187Y1047D01*
X1185Y1045D01*
X1183D01*
X1180Y1047D01*
X1178Y1049D01*
X1177Y1052D01*
G01X1166Y1051D02*
X1163Y1047D01*
X1161Y1045D01*
X1158Y1047D01*
X1156Y1052D01*
X1154Y1059D01*
X1153Y1067D01*
Y1076D01*
X1154Y1083D01*
X1156Y1090D01*
X1158Y1093D01*
X1160Y1095D01*
X1163Y1093D01*
X1165Y1090D01*
X1166Y1085D01*
X1167Y1078D01*
X1166Y1072D01*
X1164Y1067D01*
X1162Y1063D01*
X1160Y1062D01*
X1157Y1064D01*
X1155Y1068D01*
X1153Y1076D01*
G01X1135Y1095D02*
X1138Y1093D01*
X1140Y1089D01*
X1141Y1084D01*
X1142Y1078D01*
X1142Y1070D01*
X1142Y1062D01*
X1141Y1056D01*
X1140Y1051D01*
X1138Y1047D01*
X1135Y1045D01*
X1132Y1047D01*
X1130Y1051D01*
X1129Y1056D01*
X1128Y1062D01*
X1128Y1070D01*
X1128Y1078D01*
X1129Y1084D01*
X1130Y1089D01*
X1132Y1093D01*
X1135Y1095D01*
G01X1395Y3703D02*
X1445D01*
Y3712D01*
X1443Y3714D01*
X1439Y3716D01*
X1432Y3717D01*
X1426Y3716D01*
X1422Y3714D01*
X1419Y3712D01*
Y3703D01*
G01Y3712D02*
X1395Y3717D01*
G01X1437Y3729D02*
X1442Y3731D01*
X1444Y3733D01*
X1445Y3736D01*
X1443Y3739D01*
X1439Y3741D01*
X1434Y3742D01*
X1429Y3742D01*
X1425Y3740D01*
X1417Y3734D01*
X1411Y3731D01*
X1402Y3729D01*
X1395Y3728D01*
Y3742D01*
G01Y3759D02*
X1406Y3760D01*
X1415Y3761D01*
X1423Y3762D01*
X1432Y3764D01*
X1445Y3767D01*
Y3753D01*
G01X1320Y3703D02*
X1370D01*
Y3712D01*
X1368Y3714D01*
X1364Y3716D01*
X1358Y3717D01*
X1351Y3716D01*
X1347Y3714D01*
X1344Y3712D01*
Y3703D01*
G01Y3712D02*
X1320Y3717D01*
G01X1362Y3729D02*
X1367Y3731D01*
X1369Y3733D01*
X1370Y3736D01*
X1368Y3739D01*
X1364Y3741D01*
X1359Y3742D01*
X1354Y3742D01*
X1350Y3740D01*
X1342Y3734D01*
X1336Y3731D01*
X1328Y3729D01*
X1320Y3728D01*
Y3742D01*
G01X1341Y3754D02*
X1347Y3756D01*
X1350Y3758D01*
X1352Y3761D01*
X1350Y3763D01*
X1347Y3765D01*
X1342Y3766D01*
X1336Y3766D01*
X1331Y3766D01*
X1326Y3765D01*
X1322Y3763D01*
X1320Y3760D01*
X1322Y3758D01*
X1327Y3755D01*
X1334Y3754D01*
X1342Y3754D01*
X1353Y3754D01*
X1359Y3755D01*
X1365Y3757D01*
X1369Y3759D01*
X1370Y3762D01*
X1368Y3764D01*
X1364Y3766D01*
G01X1277Y3713D02*
X1279Y3714D01*
X1283Y3715D01*
X1289Y3716D01*
X1294Y3715D01*
X1298Y3714D01*
X1300Y3711D01*
Y3702D01*
X1250D01*
Y3713D01*
X1253Y3716D01*
X1258Y3717D01*
X1264Y3718D01*
X1270Y3717D01*
X1275Y3715D01*
X1277Y3713D01*
Y3702D01*
G01X1296Y3742D02*
X1298Y3740D01*
X1300Y3738D01*
Y3735D01*
X1298Y3732D01*
X1293Y3730D01*
X1288Y3728D01*
X1280Y3727D01*
X1272Y3727D01*
X1265Y3727D01*
X1260Y3728D01*
X1255Y3730D01*
X1252Y3733D01*
X1250Y3735D01*
Y3737D01*
X1252Y3740D01*
X1254Y3742D01*
X1258Y3743D01*
G01X1250Y3759D02*
X1261Y3760D01*
X1270Y3761D01*
X1278Y3762D01*
X1288Y3764D01*
X1300Y3767D01*
Y3753D01*
G01X1292Y3779D02*
X1297Y3781D01*
X1299Y3783D01*
X1300Y3786D01*
X1298Y3789D01*
X1294Y3791D01*
X1289Y3792D01*
X1284Y3792D01*
X1280Y3790D01*
X1272Y3784D01*
X1266Y3781D01*
X1258Y3779D01*
X1250Y3778D01*
Y3792D01*
G01X1567Y652D02*
X1566Y654D01*
X1565Y658D01*
X1564Y664D01*
X1565Y669D01*
X1566Y672D01*
X1569Y675D01*
X1578D01*
Y625D01*
X1567D01*
X1564Y628D01*
X1563Y633D01*
X1562Y639D01*
X1563Y645D01*
X1565Y650D01*
X1567Y652D01*
X1578D01*
G01X1538Y671D02*
X1540Y673D01*
X1542Y675D01*
X1545D01*
X1548Y672D01*
X1550Y668D01*
X1552Y663D01*
X1553Y655D01*
X1553Y648D01*
X1553Y640D01*
X1552Y635D01*
X1550Y630D01*
X1547Y627D01*
X1545Y625D01*
X1543D01*
X1540Y627D01*
X1538Y629D01*
X1537Y633D01*
G01X1526Y631D02*
X1523Y627D01*
X1521Y625D01*
X1518Y627D01*
X1516Y632D01*
X1514Y639D01*
X1513Y647D01*
Y656D01*
X1514Y663D01*
X1516Y670D01*
X1518Y673D01*
X1520Y675D01*
X1523Y673D01*
X1525Y670D01*
X1526Y665D01*
X1527Y658D01*
X1526Y652D01*
X1524Y647D01*
X1522Y643D01*
X1520Y642D01*
X1517Y644D01*
X1515Y648D01*
X1513Y656D01*
G01X1491Y625D02*
Y675D01*
X1503Y639D01*
X1487D01*
G01X1658Y1125D02*
X1651D01*
Y1110D01*
X1653Y1105D01*
X1656Y1102D01*
X1659Y1100D01*
X1662Y1102D01*
X1665Y1105D01*
X1667Y1110D01*
X1668Y1116D01*
X1669Y1122D01*
Y1128D01*
X1668Y1133D01*
X1667Y1139D01*
X1665Y1144D01*
X1663Y1148D01*
X1660Y1150D01*
X1658D01*
X1655Y1148D01*
X1653Y1145D01*
G01X1643Y1100D02*
Y1150D01*
X1627Y1100D01*
Y1150D01*
G01X1617Y1100D02*
Y1150D01*
X1611D01*
X1608Y1148D01*
X1606Y1144D01*
X1604Y1139D01*
X1603Y1133D01*
X1603Y1125D01*
X1603Y1117D01*
X1604Y1111D01*
X1606Y1106D01*
X1608Y1102D01*
X1611Y1100D01*
X1617D01*
G01X1591Y1142D02*
X1589Y1147D01*
X1587Y1149D01*
X1584Y1150D01*
X1581Y1148D01*
X1579Y1144D01*
X1578Y1139D01*
X1578Y1134D01*
X1580Y1130D01*
X1586Y1122D01*
X1589Y1116D01*
X1591Y1108D01*
X1592Y1100D01*
X1578D01*
G01X1567Y937D02*
X1566Y939D01*
X1565Y943D01*
X1564Y949D01*
X1565Y954D01*
X1566Y958D01*
X1569Y960D01*
X1578D01*
Y910D01*
X1567D01*
X1564Y913D01*
X1563Y918D01*
X1562Y924D01*
X1563Y930D01*
X1565Y935D01*
X1567Y937D01*
X1578D01*
G01X1538Y956D02*
X1540Y958D01*
X1542Y960D01*
X1545D01*
X1548Y958D01*
X1550Y953D01*
X1552Y948D01*
X1553Y940D01*
X1553Y932D01*
X1553Y925D01*
X1552Y920D01*
X1550Y915D01*
X1547Y912D01*
X1545Y910D01*
X1543D01*
X1540Y912D01*
X1538Y914D01*
X1537Y918D01*
G01X1526Y916D02*
X1523Y912D01*
X1521Y910D01*
X1518Y912D01*
X1516Y917D01*
X1514Y924D01*
X1513Y932D01*
Y941D01*
X1514Y948D01*
X1516Y955D01*
X1518Y958D01*
X1520Y960D01*
X1523Y958D01*
X1525Y955D01*
X1526Y950D01*
X1527Y943D01*
X1526Y938D01*
X1524Y932D01*
X1522Y928D01*
X1520Y928D01*
X1517Y929D01*
X1515Y933D01*
X1513Y941D01*
G01X1502Y918D02*
X1500Y913D01*
X1498Y911D01*
X1495Y910D01*
X1492Y912D01*
X1490Y915D01*
X1488Y921D01*
X1488Y928D01*
X1488Y934D01*
X1490Y938D01*
X1492Y942D01*
X1495Y942D01*
X1497Y942D01*
X1500Y938D01*
X1499Y960D01*
X1490D01*
G01X1656Y1432D02*
X1654Y1437D01*
X1652Y1439D01*
X1649Y1440D01*
X1646Y1438D01*
X1644Y1434D01*
X1643Y1429D01*
X1643Y1424D01*
X1645Y1420D01*
X1651Y1412D01*
X1654Y1406D01*
X1656Y1398D01*
X1657Y1390D01*
X1643D01*
G01X1633Y1440D02*
X1625Y1390D01*
X1617Y1440D01*
G01X1607Y1398D02*
X1605Y1393D01*
X1603Y1391D01*
X1600Y1390D01*
X1597Y1392D01*
X1595Y1395D01*
X1593Y1401D01*
X1593Y1408D01*
X1593Y1414D01*
X1595Y1418D01*
X1597Y1422D01*
X1600Y1422D01*
X1602Y1422D01*
X1605Y1418D01*
X1604Y1440D01*
X1595D01*
G01X1557Y2285D02*
Y2335D01*
X1548D01*
X1546Y2332D01*
X1544Y2329D01*
X1543Y2323D01*
X1544Y2316D01*
X1546Y2312D01*
X1548Y2309D01*
X1557D01*
G01X1548D02*
X1543Y2285D01*
G01X1531Y2327D02*
X1529Y2332D01*
X1527Y2334D01*
X1524Y2335D01*
X1521Y2333D01*
X1519Y2329D01*
X1518Y2324D01*
X1518Y2319D01*
X1520Y2315D01*
X1526Y2307D01*
X1529Y2301D01*
X1531Y2292D01*
X1532Y2285D01*
X1518D01*
G01X1500D02*
Y2335D01*
X1504Y2325D01*
G01Y2285D02*
X1496D01*
G01X1547Y2182D02*
X1546Y2184D01*
X1545Y2188D01*
X1544Y2194D01*
X1545Y2199D01*
X1546Y2202D01*
X1549Y2205D01*
X1558D01*
Y2155D01*
X1547D01*
X1544Y2158D01*
X1543Y2163D01*
X1542Y2169D01*
X1543Y2175D01*
X1545Y2180D01*
X1547Y2182D01*
X1558D01*
G01X1518Y2201D02*
X1520Y2203D01*
X1522Y2205D01*
X1525D01*
X1528Y2202D01*
X1530Y2198D01*
X1532Y2193D01*
X1533Y2185D01*
X1533Y2178D01*
X1533Y2170D01*
X1532Y2165D01*
X1530Y2160D01*
X1527Y2157D01*
X1525Y2155D01*
X1523D01*
X1520Y2157D01*
X1518Y2159D01*
X1517Y2162D01*
G01X1506Y2176D02*
X1504Y2182D01*
X1502Y2185D01*
X1499Y2187D01*
X1497Y2185D01*
X1495Y2182D01*
X1494Y2177D01*
X1494Y2171D01*
X1494Y2166D01*
X1495Y2161D01*
X1497Y2157D01*
X1500Y2155D01*
X1502Y2157D01*
X1505Y2162D01*
X1506Y2169D01*
X1506Y2178D01*
X1506Y2188D01*
X1505Y2194D01*
X1503Y2200D01*
X1501Y2204D01*
X1498Y2205D01*
X1496Y2203D01*
X1494Y2199D01*
G01X1475Y2155D02*
X1473Y2156D01*
X1470Y2158D01*
X1468Y2162D01*
X1468Y2168D01*
X1468Y2174D01*
X1470Y2179D01*
X1473Y2182D01*
X1477D01*
X1479Y2183D01*
X1480Y2188D01*
X1481Y2193D01*
X1480Y2199D01*
X1478Y2203D01*
X1475Y2205D01*
X1472Y2203D01*
X1470Y2199D01*
X1469Y2193D01*
X1470Y2188D01*
X1471Y2183D01*
X1473Y2182D01*
X1477D01*
X1480Y2179D01*
X1482Y2174D01*
X1482Y2168D01*
X1482Y2162D01*
X1480Y2158D01*
X1477Y2156D01*
X1475Y2155D01*
G01X1547Y2247D02*
X1546Y2249D01*
X1545Y2253D01*
X1544Y2259D01*
X1545Y2264D01*
X1546Y2268D01*
X1549Y2270D01*
X1558D01*
Y2220D01*
X1547D01*
X1544Y2223D01*
X1543Y2228D01*
X1542Y2234D01*
X1543Y2240D01*
X1545Y2245D01*
X1547Y2247D01*
X1558D01*
G01X1518Y2266D02*
X1520Y2268D01*
X1522Y2270D01*
X1525D01*
X1528Y2268D01*
X1530Y2263D01*
X1532Y2258D01*
X1533Y2250D01*
X1533Y2242D01*
X1533Y2235D01*
X1532Y2230D01*
X1530Y2225D01*
X1527Y2222D01*
X1525Y2220D01*
X1523D01*
X1520Y2222D01*
X1518Y2224D01*
X1517Y2228D01*
G01X1501Y2220D02*
X1500Y2231D01*
X1499Y2240D01*
X1498Y2248D01*
X1496Y2258D01*
X1493Y2270D01*
X1507D01*
G01X1475Y2220D02*
Y2270D01*
X1479Y2260D01*
G01Y2220D02*
X1471D01*
G01X1747Y3435D02*
Y3485D01*
X1738D01*
X1736Y3482D01*
X1734Y3479D01*
X1733Y3472D01*
X1734Y3466D01*
X1736Y3462D01*
X1738Y3459D01*
X1747D01*
G01X1738D02*
X1733Y3435D01*
G01X1721Y3477D02*
X1719Y3482D01*
X1717Y3484D01*
X1714Y3485D01*
X1711Y3483D01*
X1709Y3479D01*
X1708Y3474D01*
X1708Y3469D01*
X1710Y3465D01*
X1716Y3457D01*
X1719Y3451D01*
X1721Y3442D01*
X1722Y3435D01*
X1708D01*
G01X1696Y3477D02*
X1694Y3482D01*
X1692Y3484D01*
X1689Y3485D01*
X1686Y3483D01*
X1684Y3479D01*
X1683Y3474D01*
X1683Y3469D01*
X1685Y3465D01*
X1691Y3457D01*
X1694Y3451D01*
X1696Y3442D01*
X1697Y3435D01*
X1683D01*
G01X1767Y3532D02*
X1766Y3534D01*
X1765Y3538D01*
X1764Y3544D01*
X1765Y3549D01*
X1766Y3552D01*
X1769Y3555D01*
X1778D01*
Y3505D01*
X1767D01*
X1764Y3508D01*
X1763Y3513D01*
X1762Y3519D01*
X1763Y3525D01*
X1765Y3530D01*
X1767Y3532D01*
X1778D01*
G01X1738Y3551D02*
X1740Y3553D01*
X1742Y3555D01*
X1745D01*
X1748Y3552D01*
X1750Y3548D01*
X1752Y3543D01*
X1753Y3535D01*
X1753Y3528D01*
X1753Y3520D01*
X1752Y3515D01*
X1750Y3510D01*
X1747Y3507D01*
X1745Y3505D01*
X1743D01*
X1740Y3507D01*
X1738Y3509D01*
X1737Y3512D01*
G01X1721Y3505D02*
X1720Y3516D01*
X1719Y3525D01*
X1718Y3533D01*
X1716Y3542D01*
X1713Y3555D01*
X1727D01*
G01X1691Y3505D02*
Y3555D01*
X1703Y3519D01*
X1687D01*
G01X1757Y3257D02*
X1756Y3259D01*
X1755Y3263D01*
X1754Y3269D01*
X1755Y3274D01*
X1756Y3278D01*
X1759Y3280D01*
X1768D01*
Y3230D01*
X1757D01*
X1754Y3233D01*
X1753Y3238D01*
X1752Y3244D01*
X1753Y3250D01*
X1755Y3255D01*
X1757Y3257D01*
X1768D01*
G01X1728Y3276D02*
X1730Y3278D01*
X1732Y3280D01*
X1735D01*
X1738Y3278D01*
X1740Y3273D01*
X1742Y3268D01*
X1743Y3260D01*
X1743Y3252D01*
X1743Y3245D01*
X1742Y3240D01*
X1740Y3235D01*
X1737Y3232D01*
X1735Y3230D01*
X1733D01*
X1730Y3232D01*
X1728Y3234D01*
X1727Y3238D01*
G01X1711Y3230D02*
X1710Y3241D01*
X1709Y3250D01*
X1708Y3258D01*
X1706Y3268D01*
X1703Y3280D01*
X1717D01*
G01X1692Y3238D02*
X1690Y3233D01*
X1688Y3231D01*
X1685Y3230D01*
X1682Y3232D01*
X1680Y3235D01*
X1678Y3241D01*
X1678Y3248D01*
X1678Y3254D01*
X1680Y3258D01*
X1682Y3262D01*
X1685Y3262D01*
X1687Y3262D01*
X1690Y3258D01*
X1689Y3280D01*
X1680D01*
G01X1747Y3750D02*
Y3800D01*
X1738D01*
X1736Y3798D01*
X1734Y3794D01*
X1733Y3788D01*
X1734Y3781D01*
X1736Y3777D01*
X1738Y3774D01*
X1747D01*
G01X1738D02*
X1733Y3750D01*
G01X1721Y3792D02*
X1719Y3797D01*
X1717Y3799D01*
X1714Y3800D01*
X1711Y3798D01*
X1709Y3794D01*
X1708Y3789D01*
X1708Y3784D01*
X1710Y3780D01*
X1716Y3772D01*
X1719Y3766D01*
X1721Y3758D01*
X1722Y3750D01*
X1708D01*
G01X1697Y3760D02*
X1695Y3754D01*
X1693Y3751D01*
X1690Y3750D01*
X1687Y3751D01*
X1684Y3755D01*
X1683Y3760D01*
X1682Y3765D01*
X1683Y3771D01*
X1685Y3775D01*
X1688Y3777D01*
X1691D01*
G01X1688D02*
X1686Y3779D01*
X1684Y3783D01*
X1683Y3788D01*
X1684Y3793D01*
X1686Y3798D01*
X1689Y3800D01*
X1692Y3799D01*
X1695Y3796D01*
G01X1747Y3675D02*
Y3725D01*
X1738D01*
X1736Y3722D01*
X1734Y3719D01*
X1733Y3712D01*
X1734Y3706D01*
X1736Y3702D01*
X1738Y3699D01*
X1747D01*
G01X1738D02*
X1733Y3675D01*
G01X1721Y3717D02*
X1719Y3722D01*
X1717Y3724D01*
X1714Y3725D01*
X1711Y3723D01*
X1709Y3719D01*
X1708Y3714D01*
X1708Y3709D01*
X1710Y3705D01*
X1716Y3697D01*
X1719Y3691D01*
X1721Y3682D01*
X1722Y3675D01*
X1708D01*
G01X1686D02*
Y3725D01*
X1698Y3689D01*
X1682D01*
G01X1747Y3585D02*
Y3635D01*
X1738D01*
X1736Y3633D01*
X1734Y3629D01*
X1733Y3622D01*
X1734Y3616D01*
X1736Y3612D01*
X1738Y3609D01*
X1747D01*
G01X1738D02*
X1733Y3585D01*
G01X1721Y3627D02*
X1719Y3632D01*
X1717Y3634D01*
X1714Y3635D01*
X1711Y3633D01*
X1709Y3629D01*
X1708Y3624D01*
X1708Y3619D01*
X1710Y3615D01*
X1716Y3607D01*
X1719Y3601D01*
X1721Y3593D01*
X1722Y3585D01*
X1708D01*
G01X1697Y3593D02*
X1695Y3588D01*
X1693Y3586D01*
X1690Y3585D01*
X1687Y3587D01*
X1685Y3590D01*
X1683Y3596D01*
X1683Y3602D01*
X1683Y3609D01*
X1685Y3613D01*
X1687Y3617D01*
X1690Y3618D01*
X1692Y3617D01*
X1695Y3613D01*
X1694Y3635D01*
X1685D01*
G01X1497Y3713D02*
X1499Y3714D01*
X1503Y3715D01*
X1509Y3716D01*
X1514Y3715D01*
X1518Y3714D01*
X1520Y3711D01*
Y3702D01*
X1470D01*
Y3713D01*
X1473Y3716D01*
X1478Y3717D01*
X1484Y3718D01*
X1490Y3717D01*
X1495Y3715D01*
X1497Y3713D01*
Y3702D01*
G01X1516Y3742D02*
X1518Y3740D01*
X1520Y3738D01*
Y3735D01*
X1518Y3732D01*
X1513Y3730D01*
X1508Y3728D01*
X1500Y3727D01*
X1492Y3727D01*
X1485Y3727D01*
X1480Y3728D01*
X1475Y3730D01*
X1472Y3733D01*
X1470Y3735D01*
Y3737D01*
X1472Y3740D01*
X1474Y3742D01*
X1478Y3743D01*
G01X1470Y3759D02*
X1481Y3760D01*
X1490Y3761D01*
X1498Y3762D01*
X1508Y3764D01*
X1520Y3767D01*
Y3753D01*
G01X1480Y3778D02*
X1474Y3780D01*
X1471Y3782D01*
X1470Y3785D01*
X1471Y3788D01*
X1475Y3791D01*
X1480Y3792D01*
X1485Y3793D01*
X1491Y3792D01*
X1495Y3790D01*
X1497Y3787D01*
Y3784D01*
G01Y3787D02*
X1499Y3789D01*
X1503Y3791D01*
X1508Y3792D01*
X1513Y3791D01*
X1518Y3789D01*
X1520Y3786D01*
X1519Y3783D01*
X1516Y3780D01*
G01X1910Y654D02*
X1908Y657D01*
X1908Y661D01*
X1907Y667D01*
X1908Y672D01*
X1909Y675D01*
X1911Y678D01*
X1920D01*
Y628D01*
X1909D01*
X1907Y631D01*
X1906Y636D01*
X1905Y642D01*
X1906Y648D01*
X1908Y652D01*
X1910Y654D01*
X1920D01*
G01X1880Y673D02*
X1882Y676D01*
X1884Y678D01*
X1887D01*
X1890Y675D01*
X1892Y671D01*
X1894Y666D01*
X1896Y658D01*
X1896Y650D01*
X1895Y642D01*
X1894Y638D01*
X1892Y633D01*
X1890Y629D01*
X1888Y628D01*
X1885D01*
X1883Y629D01*
X1881Y632D01*
X1879Y635D01*
G01X1870D02*
X1868Y631D01*
X1866Y628D01*
X1862Y628D01*
X1860Y629D01*
X1857Y633D01*
X1856Y638D01*
X1855Y645D01*
X1856Y652D01*
X1858Y656D01*
X1860Y659D01*
X1862Y660D01*
X1864Y659D01*
X1868Y656D01*
X1866Y678D01*
X1858D01*
G01X1844Y669D02*
X1842Y674D01*
X1840Y677D01*
X1837Y678D01*
X1834Y676D01*
X1831Y672D01*
X1830Y667D01*
X1831Y662D01*
X1832Y658D01*
X1839Y649D01*
X1842Y643D01*
X1844Y635D01*
X1844Y628D01*
X1830D01*
G01X1912Y1117D02*
X1911Y1119D01*
X1910Y1123D01*
X1909Y1129D01*
X1910Y1134D01*
X1911Y1138D01*
X1914Y1140D01*
X1923D01*
Y1090D01*
X1912D01*
X1909Y1093D01*
X1908Y1098D01*
X1907Y1104D01*
X1908Y1110D01*
X1910Y1115D01*
X1912Y1117D01*
X1923D01*
G01X1883Y1136D02*
X1885Y1138D01*
X1887Y1140D01*
X1890D01*
X1893Y1138D01*
X1895Y1133D01*
X1897Y1128D01*
X1898Y1120D01*
X1898Y1112D01*
X1898Y1105D01*
X1897Y1100D01*
X1895Y1095D01*
X1892Y1092D01*
X1890Y1090D01*
X1888D01*
X1885Y1092D01*
X1883Y1094D01*
X1882Y1098D01*
G01X1872D02*
X1870Y1093D01*
X1868Y1091D01*
X1865Y1090D01*
X1862Y1092D01*
X1860Y1095D01*
X1858Y1101D01*
X1858Y1108D01*
X1858Y1114D01*
X1860Y1118D01*
X1862Y1122D01*
X1865Y1122D01*
X1867Y1122D01*
X1870Y1118D01*
X1869Y1140D01*
X1860D01*
G01X1840D02*
X1843Y1138D01*
X1845Y1134D01*
X1846Y1129D01*
X1847Y1122D01*
X1847Y1115D01*
X1847Y1108D01*
X1846Y1101D01*
X1845Y1096D01*
X1843Y1092D01*
X1840Y1090D01*
X1837Y1092D01*
X1835Y1096D01*
X1834Y1101D01*
X1833Y1108D01*
X1833Y1115D01*
X1833Y1122D01*
X1834Y1129D01*
X1835Y1134D01*
X1837Y1138D01*
X1840Y1140D01*
G01X1910Y1039D02*
X1908Y1042D01*
X1908Y1046D01*
X1907Y1052D01*
X1908Y1057D01*
X1909Y1060D01*
X1911Y1062D01*
X1920D01*
Y1012D01*
X1909D01*
X1907Y1016D01*
X1906Y1021D01*
X1905Y1027D01*
X1906Y1032D01*
X1908Y1038D01*
X1910Y1039D01*
X1920D01*
G01X1880Y1058D02*
X1882Y1061D01*
X1884Y1062D01*
X1887D01*
X1890Y1060D01*
X1892Y1056D01*
X1894Y1051D01*
X1896Y1042D01*
X1896Y1035D01*
X1895Y1028D01*
X1894Y1022D01*
X1892Y1018D01*
X1890Y1014D01*
X1888Y1012D01*
X1885D01*
X1883Y1014D01*
X1881Y1017D01*
X1879Y1020D01*
G01X1870D02*
X1868Y1016D01*
X1866Y1013D01*
X1862Y1012D01*
X1860Y1014D01*
X1857Y1018D01*
X1856Y1023D01*
X1855Y1030D01*
X1856Y1037D01*
X1858Y1041D01*
X1860Y1044D01*
X1862Y1045D01*
X1864Y1044D01*
X1868Y1041D01*
X1866Y1062D01*
X1858D01*
G01X1838Y1012D02*
Y1062D01*
X1842Y1052D01*
G01Y1012D02*
X1834D01*
G01X1915Y1444D02*
X1914Y1447D01*
X1912Y1451D01*
X1912Y1457D01*
X1912Y1462D01*
X1914Y1465D01*
X1916Y1468D01*
X1925D01*
Y1418D01*
X1914D01*
X1912Y1421D01*
X1910Y1426D01*
X1910Y1432D01*
X1910Y1438D01*
X1912Y1443D01*
X1915Y1444D01*
X1925D01*
G01X1885Y1463D02*
X1887Y1466D01*
X1890Y1468D01*
X1892D01*
X1895Y1465D01*
X1898Y1461D01*
X1899Y1456D01*
X1900Y1448D01*
X1901Y1440D01*
X1900Y1432D01*
X1899Y1428D01*
X1897Y1422D01*
X1895Y1419D01*
X1892Y1418D01*
X1890D01*
X1888Y1419D01*
X1886Y1422D01*
X1884Y1425D01*
G01X1864Y1418D02*
Y1468D01*
X1876Y1432D01*
X1859D01*
G01X1842Y1418D02*
X1840Y1418D01*
X1838Y1421D01*
X1836Y1425D01*
X1835Y1431D01*
X1836Y1437D01*
X1838Y1442D01*
X1841Y1444D01*
X1844D01*
X1846Y1446D01*
X1848Y1450D01*
X1848Y1456D01*
X1848Y1462D01*
X1845Y1466D01*
X1842Y1468D01*
X1840Y1466D01*
X1838Y1462D01*
X1836Y1456D01*
X1837Y1450D01*
X1839Y1446D01*
X1841Y1444D01*
X1844D01*
X1847Y1442D01*
X1849Y1437D01*
X1850Y1431D01*
X1849Y1425D01*
X1848Y1421D01*
X1845Y1418D01*
X1842Y1418D01*
G01X1915Y1274D02*
X1914Y1277D01*
X1912Y1281D01*
X1912Y1287D01*
X1912Y1292D01*
X1914Y1295D01*
X1916Y1298D01*
X1925D01*
Y1248D01*
X1914D01*
X1912Y1251D01*
X1910Y1256D01*
X1910Y1262D01*
X1910Y1268D01*
X1912Y1272D01*
X1915Y1274D01*
X1925D01*
G01X1885Y1293D02*
X1887Y1296D01*
X1890Y1298D01*
X1892D01*
X1895Y1295D01*
X1898Y1291D01*
X1899Y1286D01*
X1900Y1278D01*
X1901Y1270D01*
X1900Y1262D01*
X1899Y1258D01*
X1897Y1252D01*
X1895Y1249D01*
X1892Y1248D01*
X1890D01*
X1888Y1249D01*
X1886Y1252D01*
X1884Y1255D01*
G01X1864Y1248D02*
Y1298D01*
X1876Y1262D01*
X1859D01*
G01X1848Y1253D02*
X1846Y1249D01*
X1843Y1248D01*
X1840Y1249D01*
X1838Y1254D01*
X1836Y1262D01*
X1836Y1269D01*
Y1278D01*
X1836Y1286D01*
X1838Y1292D01*
X1840Y1296D01*
X1842Y1298D01*
X1845Y1296D01*
X1847Y1292D01*
X1848Y1288D01*
X1849Y1281D01*
X1848Y1275D01*
X1847Y1269D01*
X1845Y1266D01*
X1842Y1265D01*
X1840Y1267D01*
X1838Y1271D01*
X1836Y1278D01*
G01X1915Y1499D02*
X1914Y1502D01*
X1912Y1506D01*
X1912Y1512D01*
X1912Y1517D01*
X1914Y1520D01*
X1916Y1522D01*
X1925D01*
Y1472D01*
X1914D01*
X1912Y1476D01*
X1910Y1481D01*
X1910Y1487D01*
X1910Y1492D01*
X1912Y1498D01*
X1915Y1499D01*
X1925D01*
G01X1885Y1518D02*
X1887Y1521D01*
X1890Y1522D01*
X1892D01*
X1895Y1520D01*
X1898Y1516D01*
X1899Y1511D01*
X1900Y1502D01*
X1901Y1495D01*
X1900Y1488D01*
X1899Y1482D01*
X1897Y1478D01*
X1895Y1474D01*
X1892Y1472D01*
X1890D01*
X1888Y1474D01*
X1886Y1477D01*
X1884Y1480D01*
G01X1864Y1472D02*
Y1522D01*
X1876Y1487D01*
X1859D01*
G01X1843Y1472D02*
X1842Y1483D01*
X1842Y1492D01*
X1840Y1501D01*
X1838Y1510D01*
X1836Y1522D01*
X1849D01*
G01X2037Y2217D02*
X2036Y2219D01*
X2035Y2223D01*
X2034Y2229D01*
X2035Y2234D01*
X2036Y2238D01*
X2039Y2240D01*
X2048D01*
Y2190D01*
X2037D01*
X2034Y2193D01*
X2033Y2198D01*
X2032Y2204D01*
X2033Y2210D01*
X2035Y2215D01*
X2037Y2217D01*
X2048D01*
G01X2008Y2236D02*
X2010Y2238D01*
X2012Y2240D01*
X2015D01*
X2018Y2238D01*
X2020Y2233D01*
X2022Y2228D01*
X2023Y2220D01*
X2023Y2212D01*
X2023Y2205D01*
X2022Y2200D01*
X2020Y2195D01*
X2017Y2192D01*
X2015Y2190D01*
X2013D01*
X2010Y2192D01*
X2008Y2194D01*
X2007Y2198D01*
G01X1997D02*
X1995Y2193D01*
X1993Y2191D01*
X1990Y2190D01*
X1987Y2192D01*
X1985Y2195D01*
X1983Y2201D01*
X1983Y2208D01*
X1983Y2214D01*
X1985Y2218D01*
X1987Y2222D01*
X1990Y2222D01*
X1992Y2222D01*
X1995Y2218D01*
X1994Y2240D01*
X1985D01*
G01X1971Y2211D02*
X1969Y2217D01*
X1967Y2220D01*
X1964Y2222D01*
X1962Y2220D01*
X1960Y2217D01*
X1959Y2212D01*
X1959Y2206D01*
X1959Y2201D01*
X1960Y2196D01*
X1962Y2192D01*
X1965Y2190D01*
X1967Y2192D01*
X1970Y2197D01*
X1971Y2204D01*
X1971Y2212D01*
X1971Y2223D01*
X1970Y2229D01*
X1968Y2235D01*
X1966Y2239D01*
X1963Y2240D01*
X1961Y2238D01*
X1959Y2234D01*
G01X2027Y2450D02*
Y2500D01*
X2018D01*
X2016Y2498D01*
X2014Y2494D01*
X2013Y2488D01*
X2014Y2481D01*
X2016Y2477D01*
X2018Y2474D01*
X2027D01*
G01X2018D02*
X2013Y2450D01*
G01X1995D02*
Y2500D01*
X1999Y2490D01*
G01Y2450D02*
X1991D01*
G01X1977Y2458D02*
X1975Y2453D01*
X1973Y2451D01*
X1970Y2450D01*
X1967Y2452D01*
X1965Y2455D01*
X1963Y2461D01*
X1963Y2468D01*
X1963Y2474D01*
X1965Y2478D01*
X1967Y2482D01*
X1970Y2482D01*
X1972Y2482D01*
X1975Y2478D01*
X1974Y2500D01*
X1965D01*
G01X2307Y915D02*
Y965D01*
X2298D01*
X2296Y962D01*
X2294Y959D01*
X2293Y952D01*
X2294Y946D01*
X2296Y942D01*
X2298Y939D01*
X2307D01*
G01X2298D02*
X2293Y915D01*
G01X2275D02*
X2273Y916D01*
X2270Y918D01*
X2268Y922D01*
X2268Y928D01*
X2268Y934D01*
X2270Y939D01*
X2273Y942D01*
X2277D01*
X2279Y943D01*
X2280Y948D01*
X2281Y953D01*
X2280Y959D01*
X2278Y963D01*
X2275Y965D01*
X2272Y963D01*
X2270Y959D01*
X2269Y953D01*
X2270Y948D01*
X2271Y943D01*
X2273Y942D01*
X2277D01*
X2280Y939D01*
X2282Y934D01*
X2282Y928D01*
X2282Y922D01*
X2280Y918D01*
X2277Y916D01*
X2275Y915D01*
G01X2107D02*
Y965D01*
X2098D01*
X2096Y962D01*
X2094Y959D01*
X2093Y952D01*
X2094Y946D01*
X2096Y942D01*
X2098Y939D01*
X2107D01*
G01X2098D02*
X2093Y915D01*
G01X2081Y921D02*
X2078Y917D01*
X2076Y915D01*
X2073Y917D01*
X2071Y922D01*
X2069Y929D01*
X2068Y937D01*
Y946D01*
X2069Y953D01*
X2071Y960D01*
X2073Y963D01*
X2075Y965D01*
X2078Y963D01*
X2080Y960D01*
X2081Y955D01*
X2082Y948D01*
X2081Y942D01*
X2079Y937D01*
X2077Y933D01*
X2075Y932D01*
X2072Y934D01*
X2070Y938D01*
X2068Y946D01*
G01X2347Y1077D02*
X2346Y1079D01*
X2345Y1083D01*
X2344Y1089D01*
X2345Y1094D01*
X2346Y1098D01*
X2349Y1100D01*
X2358D01*
Y1050D01*
X2347D01*
X2344Y1053D01*
X2343Y1058D01*
X2342Y1064D01*
X2343Y1070D01*
X2345Y1075D01*
X2347Y1077D01*
X2358D01*
G01X2318Y1096D02*
X2320Y1098D01*
X2322Y1100D01*
X2325D01*
X2328Y1098D01*
X2330Y1093D01*
X2332Y1088D01*
X2333Y1080D01*
X2333Y1072D01*
X2333Y1065D01*
X2332Y1060D01*
X2330Y1055D01*
X2327Y1052D01*
X2325Y1050D01*
X2323D01*
X2320Y1052D01*
X2318Y1054D01*
X2317Y1058D01*
G01X2296Y1050D02*
Y1100D01*
X2308Y1064D01*
X2292D01*
G01X2281Y1071D02*
X2279Y1077D01*
X2277Y1080D01*
X2274Y1082D01*
X2272Y1080D01*
X2270Y1077D01*
X2269Y1072D01*
X2269Y1066D01*
X2269Y1061D01*
X2270Y1056D01*
X2272Y1052D01*
X2275Y1050D01*
X2277Y1052D01*
X2280Y1057D01*
X2281Y1064D01*
X2281Y1072D01*
X2281Y1083D01*
X2280Y1089D01*
X2278Y1095D01*
X2276Y1099D01*
X2273Y1100D01*
X2271Y1098D01*
X2269Y1094D01*
G01X2097Y1077D02*
X2096Y1079D01*
X2095Y1083D01*
X2094Y1089D01*
X2095Y1094D01*
X2096Y1098D01*
X2099Y1100D01*
X2108D01*
Y1050D01*
X2097D01*
X2094Y1053D01*
X2093Y1058D01*
X2092Y1064D01*
X2093Y1070D01*
X2095Y1075D01*
X2097Y1077D01*
X2108D01*
G01X2068Y1096D02*
X2070Y1098D01*
X2072Y1100D01*
X2075D01*
X2078Y1098D01*
X2080Y1093D01*
X2082Y1088D01*
X2083Y1080D01*
X2083Y1072D01*
X2083Y1065D01*
X2082Y1060D01*
X2080Y1055D01*
X2077Y1052D01*
X2075Y1050D01*
X2073D01*
X2070Y1052D01*
X2068Y1054D01*
X2067Y1058D01*
G01X2046Y1050D02*
Y1100D01*
X2058Y1064D01*
X2042D01*
G01X2032Y1058D02*
X2030Y1053D01*
X2028Y1051D01*
X2025Y1050D01*
X2022Y1052D01*
X2020Y1055D01*
X2018Y1061D01*
X2018Y1068D01*
X2018Y1074D01*
X2020Y1078D01*
X2022Y1082D01*
X2025Y1082D01*
X2027Y1082D01*
X2030Y1078D01*
X2029Y1100D01*
X2020D01*
G01X2347Y1192D02*
X2346Y1194D01*
X2345Y1198D01*
X2344Y1204D01*
X2345Y1209D01*
X2346Y1213D01*
X2349Y1215D01*
X2358D01*
Y1165D01*
X2347D01*
X2344Y1168D01*
X2343Y1173D01*
X2342Y1179D01*
X2343Y1185D01*
X2345Y1190D01*
X2347Y1192D01*
X2358D01*
G01X2318Y1211D02*
X2320Y1213D01*
X2322Y1215D01*
X2325D01*
X2328Y1213D01*
X2330Y1208D01*
X2332Y1203D01*
X2333Y1195D01*
X2333Y1188D01*
X2333Y1180D01*
X2332Y1175D01*
X2330Y1170D01*
X2327Y1167D01*
X2325Y1165D01*
X2323D01*
X2320Y1167D01*
X2318Y1169D01*
X2317Y1172D01*
G01X2307D02*
X2305Y1168D01*
X2303Y1166D01*
X2300Y1165D01*
X2297Y1167D01*
X2295Y1170D01*
X2293Y1176D01*
X2293Y1182D01*
X2293Y1189D01*
X2295Y1193D01*
X2297Y1197D01*
X2300Y1198D01*
X2302Y1197D01*
X2305Y1193D01*
X2304Y1215D01*
X2295D01*
G01X2282Y1175D02*
X2280Y1169D01*
X2278Y1166D01*
X2275Y1165D01*
X2272Y1166D01*
X2269Y1170D01*
X2268Y1175D01*
X2267Y1180D01*
X2268Y1186D01*
X2270Y1190D01*
X2273Y1192D01*
X2276D01*
G01X2273D02*
X2271Y1194D01*
X2269Y1198D01*
X2268Y1203D01*
X2269Y1208D01*
X2271Y1213D01*
X2274Y1215D01*
X2277Y1214D01*
X2280Y1211D01*
G01X2347Y1347D02*
X2346Y1349D01*
X2345Y1353D01*
X2344Y1359D01*
X2345Y1364D01*
X2346Y1368D01*
X2349Y1370D01*
X2358D01*
Y1320D01*
X2347D01*
X2344Y1323D01*
X2343Y1328D01*
X2342Y1334D01*
X2343Y1340D01*
X2345Y1345D01*
X2347Y1347D01*
X2358D01*
G01X2318Y1366D02*
X2320Y1368D01*
X2322Y1370D01*
X2325D01*
X2328Y1368D01*
X2330Y1363D01*
X2332Y1358D01*
X2333Y1350D01*
X2333Y1342D01*
X2333Y1335D01*
X2332Y1330D01*
X2330Y1325D01*
X2327Y1322D01*
X2325Y1320D01*
X2323D01*
X2320Y1322D01*
X2318Y1324D01*
X2317Y1328D01*
G01X2307D02*
X2305Y1323D01*
X2303Y1321D01*
X2300Y1320D01*
X2297Y1322D01*
X2295Y1325D01*
X2293Y1331D01*
X2293Y1338D01*
X2293Y1344D01*
X2295Y1348D01*
X2297Y1352D01*
X2300Y1352D01*
X2302Y1352D01*
X2305Y1348D01*
X2304Y1370D01*
X2295D01*
G01X2271Y1320D02*
Y1370D01*
X2283Y1334D01*
X2267D01*
G01X2247Y1995D02*
Y2045D01*
X2238D01*
X2236Y2042D01*
X2234Y2039D01*
X2233Y2033D01*
X2234Y2026D01*
X2236Y2022D01*
X2238Y2019D01*
X2247D01*
G01X2238D02*
X2233Y1995D01*
G01X2215D02*
Y2045D01*
X2219Y2035D01*
G01Y1995D02*
X2211D01*
G01X2186D02*
Y2045D01*
X2198Y2009D01*
X2182D01*
G01X2380Y613D02*
X2430D01*
Y622D01*
X2428Y624D01*
X2424Y626D01*
X2418Y627D01*
X2411Y626D01*
X2407Y624D01*
X2404Y622D01*
Y613D01*
G01Y622D02*
X2380Y627D01*
G01Y637D02*
X2430D01*
X2380Y653D01*
X2430D01*
G01X2380Y670D02*
X2430D01*
X2420Y666D01*
G01X2380D02*
Y674D01*
G01X2422Y689D02*
X2427Y691D01*
X2429Y693D01*
X2430Y696D01*
X2428Y699D01*
X2424Y701D01*
X2419Y702D01*
X2414Y702D01*
X2410Y700D01*
X2402Y694D01*
X2396Y691D01*
X2388Y689D01*
X2380Y688D01*
Y702D01*
G01Y1033D02*
X2430D01*
Y1042D01*
X2428Y1044D01*
X2424Y1046D01*
X2418Y1047D01*
X2411Y1046D01*
X2407Y1044D01*
X2404Y1042D01*
Y1033D01*
G01Y1042D02*
X2380Y1047D01*
G01Y1057D02*
X2430D01*
X2380Y1073D01*
X2430D01*
G01X2380Y1090D02*
X2430D01*
X2420Y1086D01*
G01X2380D02*
Y1094D01*
G01X2390Y1108D02*
X2384Y1110D01*
X2381Y1112D01*
X2380Y1115D01*
X2381Y1118D01*
X2385Y1121D01*
X2390Y1122D01*
X2395Y1123D01*
X2401Y1122D01*
X2405Y1120D01*
X2407Y1117D01*
Y1114D01*
G01Y1117D02*
X2409Y1119D01*
X2413Y1121D01*
X2418Y1122D01*
X2423Y1121D01*
X2428Y1119D01*
X2430Y1116D01*
X2429Y1113D01*
X2426Y1110D01*
G01X2380Y823D02*
X2430D01*
Y832D01*
X2428Y834D01*
X2424Y836D01*
X2418Y837D01*
X2411Y836D01*
X2407Y834D01*
X2404Y832D01*
Y823D01*
G01Y832D02*
X2380Y837D01*
G01Y847D02*
X2430D01*
X2380Y863D01*
X2430D01*
G01X2380Y880D02*
X2430D01*
X2420Y876D01*
G01X2380D02*
Y884D01*
G01Y905D02*
X2430D01*
X2420Y901D01*
G01X2380D02*
Y909D01*
G01Y1243D02*
X2430D01*
Y1252D01*
X2428Y1254D01*
X2424Y1256D01*
X2418Y1257D01*
X2411Y1256D01*
X2407Y1254D01*
X2404Y1252D01*
Y1243D01*
G01Y1252D02*
X2380Y1257D01*
G01Y1267D02*
X2430D01*
X2380Y1283D01*
X2430D01*
G01X2380Y1300D02*
X2430D01*
X2420Y1296D01*
G01X2380D02*
Y1304D01*
G01X2430Y1325D02*
X2428Y1322D01*
X2424Y1320D01*
X2419Y1319D01*
X2412Y1318D01*
X2405Y1318D01*
X2398Y1318D01*
X2391Y1319D01*
X2386Y1320D01*
X2382Y1322D01*
X2380Y1325D01*
X2382Y1328D01*
X2386Y1330D01*
X2391Y1331D01*
X2398Y1332D01*
X2405Y1332D01*
X2412Y1332D01*
X2419Y1331D01*
X2424Y1330D01*
X2428Y1328D01*
X2430Y1325D01*
G01X2380Y1453D02*
X2430D01*
Y1462D01*
X2428Y1464D01*
X2424Y1466D01*
X2418Y1467D01*
X2411Y1466D01*
X2407Y1464D01*
X2404Y1462D01*
Y1453D01*
G01Y1462D02*
X2380Y1467D01*
G01Y1477D02*
X2430D01*
X2380Y1493D01*
X2430D01*
G01X2386Y1504D02*
X2382Y1507D01*
X2380Y1509D01*
X2382Y1512D01*
X2387Y1514D01*
X2394Y1516D01*
X2402Y1517D01*
X2411D01*
X2418Y1516D01*
X2425Y1514D01*
X2428Y1512D01*
X2430Y1510D01*
X2428Y1507D01*
X2425Y1505D01*
X2420Y1504D01*
X2413Y1503D01*
X2408Y1504D01*
X2402Y1506D01*
X2398Y1508D01*
X2398Y1510D01*
X2399Y1513D01*
X2403Y1515D01*
X2411Y1517D01*
G01X2627Y1995D02*
Y2045D01*
X2618D01*
X2616Y2042D01*
X2614Y2039D01*
X2613Y2033D01*
X2614Y2026D01*
X2616Y2022D01*
X2618Y2019D01*
X2627D01*
G01X2618D02*
X2613Y1995D01*
G01X2595D02*
Y2045D01*
X2599Y2035D01*
G01Y1995D02*
X2591D01*
G01X2570D02*
X2568Y1996D01*
X2565Y1998D01*
X2563Y2002D01*
X2563Y2008D01*
X2563Y2014D01*
X2565Y2019D01*
X2568Y2022D01*
X2572D01*
X2574Y2023D01*
X2575Y2027D01*
X2576Y2033D01*
X2575Y2039D01*
X2573Y2043D01*
X2570Y2045D01*
X2567Y2043D01*
X2565Y2039D01*
X2564Y2033D01*
X2565Y2027D01*
X2566Y2023D01*
X2568Y2022D01*
X2572D01*
X2575Y2019D01*
X2577Y2014D01*
X2577Y2008D01*
X2577Y2002D01*
X2575Y1998D01*
X2572Y1996D01*
X2570Y1995D01*
G01X2627Y2120D02*
Y2170D01*
X2618D01*
X2616Y2168D01*
X2614Y2164D01*
X2613Y2158D01*
X2614Y2151D01*
X2616Y2147D01*
X2618Y2144D01*
X2627D01*
G01X2618D02*
X2613Y2120D01*
G01X2595D02*
Y2170D01*
X2599Y2160D01*
G01Y2120D02*
X2591D01*
G01X2576Y2162D02*
X2574Y2167D01*
X2572Y2169D01*
X2569Y2170D01*
X2566Y2168D01*
X2564Y2164D01*
X2563Y2159D01*
X2563Y2154D01*
X2565Y2150D01*
X2571Y2142D01*
X2574Y2136D01*
X2576Y2128D01*
X2577Y2120D01*
X2563D01*
G01X2627Y2250D02*
Y2300D01*
X2618D01*
X2616Y2298D01*
X2614Y2294D01*
X2613Y2288D01*
X2614Y2281D01*
X2616Y2277D01*
X2618Y2274D01*
X2627D01*
G01X2618D02*
X2613Y2250D01*
G01X2595D02*
Y2300D01*
X2599Y2290D01*
G01Y2250D02*
X2591D01*
G01X2577Y2260D02*
X2575Y2254D01*
X2573Y2251D01*
X2570Y2250D01*
X2567Y2251D01*
X2564Y2255D01*
X2563Y2260D01*
X2562Y2265D01*
X2563Y2271D01*
X2565Y2275D01*
X2568Y2277D01*
X2571D01*
G01X2568D02*
X2566Y2279D01*
X2564Y2283D01*
X2563Y2288D01*
X2564Y2293D01*
X2566Y2298D01*
X2569Y2300D01*
X2572Y2299D01*
X2575Y2296D01*
G01X2627Y2060D02*
Y2110D01*
X2618D01*
X2616Y2108D01*
X2614Y2104D01*
X2613Y2098D01*
X2614Y2091D01*
X2616Y2087D01*
X2618Y2084D01*
X2627D01*
G01X2618D02*
X2613Y2060D01*
G01X2595D02*
Y2110D01*
X2599Y2100D01*
G01Y2060D02*
X2591D01*
G01X2576Y2066D02*
X2573Y2062D01*
X2571Y2060D01*
X2568Y2062D01*
X2566Y2067D01*
X2564Y2074D01*
X2563Y2082D01*
Y2091D01*
X2564Y2098D01*
X2566Y2105D01*
X2568Y2108D01*
X2570Y2110D01*
X2573Y2108D01*
X2575Y2105D01*
X2576Y2100D01*
X2577Y2093D01*
X2576Y2088D01*
X2574Y2082D01*
X2572Y2078D01*
X2570Y2078D01*
X2567Y2079D01*
X2565Y2083D01*
X2563Y2091D01*
G01X2627Y2380D02*
Y2430D01*
X2618D01*
X2616Y2428D01*
X2614Y2424D01*
X2613Y2418D01*
X2614Y2411D01*
X2616Y2407D01*
X2618Y2404D01*
X2627D01*
G01X2618D02*
X2613Y2380D01*
G01X2595D02*
Y2430D01*
X2599Y2420D01*
G01Y2380D02*
X2591D01*
G01X2570D02*
Y2430D01*
X2574Y2420D01*
G01Y2380D02*
X2566D01*
G01X2803Y676D02*
X2805Y678D01*
X2807Y680D01*
X2810D01*
X2813Y678D01*
X2815Y673D01*
X2817Y668D01*
X2818Y660D01*
X2818Y652D01*
X2818Y645D01*
X2817Y640D01*
X2815Y635D01*
X2812Y632D01*
X2810Y630D01*
X2808D01*
X2805Y632D01*
X2803Y634D01*
X2802Y638D01*
G01X2793Y630D02*
Y680D01*
X2777Y630D01*
Y680D01*
G01X2767Y638D02*
X2765Y633D01*
X2763Y631D01*
X2760Y630D01*
X2757Y632D01*
X2755Y635D01*
X2753Y641D01*
X2753Y648D01*
X2753Y654D01*
X2755Y658D01*
X2757Y662D01*
X2760Y662D01*
X2762Y662D01*
X2765Y658D01*
X2764Y680D01*
X2755D01*
G01X2803Y1096D02*
X2805Y1098D01*
X2807Y1100D01*
X2810D01*
X2813Y1098D01*
X2815Y1093D01*
X2817Y1088D01*
X2818Y1080D01*
X2818Y1072D01*
X2818Y1065D01*
X2817Y1060D01*
X2815Y1055D01*
X2812Y1052D01*
X2810Y1050D01*
X2808D01*
X2805Y1052D01*
X2803Y1054D01*
X2802Y1058D01*
G01X2793Y1050D02*
Y1100D01*
X2777Y1050D01*
Y1100D01*
G01X2767Y1060D02*
X2765Y1054D01*
X2763Y1051D01*
X2760Y1050D01*
X2757Y1051D01*
X2754Y1055D01*
X2753Y1060D01*
X2752Y1065D01*
X2753Y1071D01*
X2755Y1075D01*
X2758Y1077D01*
X2761D01*
G01X2758D02*
X2756Y1079D01*
X2754Y1083D01*
X2753Y1088D01*
X2754Y1093D01*
X2756Y1098D01*
X2759Y1100D01*
X2762Y1099D01*
X2765Y1096D01*
G01X2803Y886D02*
X2805Y888D01*
X2807Y890D01*
X2810D01*
X2813Y888D01*
X2815Y883D01*
X2817Y878D01*
X2818Y870D01*
X2818Y862D01*
X2818Y855D01*
X2817Y850D01*
X2815Y845D01*
X2812Y842D01*
X2810Y840D01*
X2808D01*
X2805Y842D01*
X2803Y844D01*
X2802Y848D01*
G01X2793Y840D02*
Y890D01*
X2777Y840D01*
Y890D01*
G01X2756Y840D02*
Y890D01*
X2768Y854D01*
X2752D01*
G01X2803Y1306D02*
X2805Y1308D01*
X2807Y1310D01*
X2810D01*
X2813Y1308D01*
X2815Y1303D01*
X2817Y1298D01*
X2818Y1290D01*
X2818Y1282D01*
X2818Y1275D01*
X2817Y1270D01*
X2815Y1265D01*
X2812Y1262D01*
X2810Y1260D01*
X2808D01*
X2805Y1262D01*
X2803Y1264D01*
X2802Y1268D01*
G01X2793Y1260D02*
Y1310D01*
X2777Y1260D01*
Y1310D01*
G01X2766Y1302D02*
X2764Y1307D01*
X2762Y1309D01*
X2759Y1310D01*
X2756Y1308D01*
X2754Y1304D01*
X2753Y1299D01*
X2753Y1294D01*
X2755Y1290D01*
X2761Y1282D01*
X2764Y1276D01*
X2766Y1268D01*
X2767Y1260D01*
X2753D01*
G01X2803Y1506D02*
X2805Y1508D01*
X2807Y1510D01*
X2810D01*
X2813Y1508D01*
X2815Y1503D01*
X2817Y1498D01*
X2818Y1490D01*
X2818Y1482D01*
X2818Y1475D01*
X2817Y1470D01*
X2815Y1465D01*
X2812Y1462D01*
X2810Y1460D01*
X2808D01*
X2805Y1462D01*
X2803Y1464D01*
X2802Y1468D01*
G01X2793Y1460D02*
Y1510D01*
X2777Y1460D01*
Y1510D01*
G01X2760Y1460D02*
Y1510D01*
X2764Y1500D01*
G01Y1460D02*
X2756D01*
G01X2810Y3040D02*
Y3090D01*
X2814Y3080D01*
G01Y3040D02*
X2806D01*
G01X2793Y3090D02*
X2785Y3040D01*
X2777Y3090D01*
G01X2766Y3082D02*
X2764Y3087D01*
X2762Y3089D01*
X2759Y3090D01*
X2756Y3088D01*
X2754Y3084D01*
X2753Y3079D01*
X2753Y3074D01*
X2755Y3070D01*
X2761Y3062D01*
X2764Y3056D01*
X2766Y3048D01*
X2767Y3040D01*
X2753D01*
G01X2928Y3065D02*
X2921D01*
Y3050D01*
X2923Y3045D01*
X2926Y3042D01*
X2929Y3040D01*
X2932Y3042D01*
X2935Y3045D01*
X2937Y3050D01*
X2938Y3056D01*
X2939Y3062D01*
Y3068D01*
X2938Y3073D01*
X2937Y3079D01*
X2935Y3084D01*
X2933Y3088D01*
X2930Y3090D01*
X2928D01*
X2925Y3088D01*
X2923Y3085D01*
G01X2913Y3040D02*
Y3090D01*
X2897Y3040D01*
Y3090D01*
G01X2887Y3040D02*
Y3090D01*
X2881D01*
X2878Y3088D01*
X2876Y3084D01*
X2874Y3079D01*
X2873Y3073D01*
X2873Y3065D01*
X2873Y3057D01*
X2874Y3051D01*
X2876Y3046D01*
X2878Y3042D01*
X2881Y3040D01*
X2887D01*
G01X2862Y3050D02*
X2860Y3044D01*
X2858Y3041D01*
X2855Y3040D01*
X2852Y3041D01*
X2849Y3045D01*
X2848Y3050D01*
X2847Y3055D01*
X2848Y3061D01*
X2850Y3065D01*
X2853Y3067D01*
X2856D01*
G01X2853D02*
X2851Y3069D01*
X2849Y3073D01*
X2848Y3078D01*
X2849Y3083D01*
X2851Y3088D01*
X2854Y3090D01*
X2857Y3089D01*
X2860Y3086D01*
G01X3067Y1327D02*
X3066Y1329D01*
X3065Y1333D01*
X3064Y1339D01*
X3065Y1344D01*
X3066Y1348D01*
X3069Y1350D01*
X3078D01*
Y1300D01*
X3067D01*
X3064Y1303D01*
X3063Y1308D01*
X3062Y1314D01*
X3063Y1320D01*
X3065Y1325D01*
X3067Y1327D01*
X3078D01*
G01X3038Y1346D02*
X3040Y1348D01*
X3042Y1350D01*
X3045D01*
X3048Y1348D01*
X3050Y1343D01*
X3052Y1338D01*
X3053Y1330D01*
X3053Y1322D01*
X3053Y1315D01*
X3052Y1310D01*
X3050Y1305D01*
X3047Y1302D01*
X3045Y1300D01*
X3043D01*
X3040Y1302D01*
X3038Y1304D01*
X3037Y1308D01*
G01X3020Y1300D02*
Y1350D01*
X3024Y1340D01*
G01Y1300D02*
X3016D01*
G01X3127Y1267D02*
X3126Y1269D01*
X3125Y1273D01*
X3124Y1279D01*
X3125Y1284D01*
X3126Y1288D01*
X3129Y1290D01*
X3138D01*
Y1240D01*
X3127D01*
X3124Y1243D01*
X3123Y1248D01*
X3122Y1254D01*
X3123Y1260D01*
X3125Y1265D01*
X3127Y1267D01*
X3138D01*
G01X3098Y1286D02*
X3100Y1288D01*
X3102Y1290D01*
X3105D01*
X3108Y1288D01*
X3110Y1283D01*
X3112Y1278D01*
X3113Y1270D01*
X3113Y1262D01*
X3113Y1255D01*
X3112Y1250D01*
X3110Y1245D01*
X3107Y1242D01*
X3105Y1240D01*
X3103D01*
X3100Y1242D01*
X3098Y1244D01*
X3097Y1248D01*
G01X3086Y1282D02*
X3084Y1287D01*
X3082Y1289D01*
X3079Y1290D01*
X3076Y1288D01*
X3074Y1284D01*
X3073Y1279D01*
X3073Y1274D01*
X3075Y1270D01*
X3081Y1262D01*
X3084Y1256D01*
X3086Y1248D01*
X3087Y1240D01*
X3073D01*
G01X3227Y1167D02*
X3226Y1169D01*
X3225Y1173D01*
X3224Y1179D01*
X3225Y1184D01*
X3226Y1188D01*
X3229Y1190D01*
X3238D01*
Y1140D01*
X3227D01*
X3224Y1143D01*
X3223Y1148D01*
X3222Y1154D01*
X3223Y1160D01*
X3225Y1165D01*
X3227Y1167D01*
X3238D01*
G01X3198Y1186D02*
X3200Y1188D01*
X3202Y1190D01*
X3205D01*
X3208Y1188D01*
X3210Y1183D01*
X3212Y1178D01*
X3213Y1170D01*
X3213Y1162D01*
X3213Y1155D01*
X3212Y1150D01*
X3210Y1145D01*
X3207Y1142D01*
X3205Y1140D01*
X3203D01*
X3200Y1142D01*
X3198Y1144D01*
X3197Y1148D01*
G01X3187Y1150D02*
X3185Y1144D01*
X3183Y1141D01*
X3180Y1140D01*
X3177Y1141D01*
X3174Y1145D01*
X3173Y1150D01*
X3172Y1155D01*
X3173Y1161D01*
X3175Y1165D01*
X3178Y1167D01*
X3181D01*
G01X3178D02*
X3176Y1169D01*
X3174Y1173D01*
X3173Y1178D01*
X3174Y1183D01*
X3176Y1188D01*
X3179Y1190D01*
X3182Y1189D01*
X3185Y1186D01*
G01X3217Y1657D02*
X3216Y1659D01*
X3215Y1663D01*
X3214Y1669D01*
X3215Y1674D01*
X3216Y1678D01*
X3219Y1680D01*
X3228D01*
Y1630D01*
X3217D01*
X3214Y1633D01*
X3213Y1638D01*
X3212Y1644D01*
X3213Y1650D01*
X3215Y1655D01*
X3217Y1657D01*
X3228D01*
G01X3188Y1676D02*
X3190Y1678D01*
X3192Y1680D01*
X3195D01*
X3198Y1678D01*
X3200Y1673D01*
X3202Y1668D01*
X3203Y1660D01*
X3203Y1652D01*
X3203Y1645D01*
X3202Y1640D01*
X3200Y1635D01*
X3197Y1632D01*
X3195Y1630D01*
X3193D01*
X3190Y1632D01*
X3188Y1634D01*
X3187Y1638D01*
G01X3176Y1651D02*
X3174Y1657D01*
X3172Y1660D01*
X3169Y1662D01*
X3167Y1660D01*
X3165Y1657D01*
X3164Y1652D01*
X3164Y1646D01*
X3164Y1641D01*
X3165Y1636D01*
X3167Y1632D01*
X3170Y1630D01*
X3172Y1632D01*
X3175Y1637D01*
X3176Y1644D01*
X3176Y1652D01*
X3176Y1663D01*
X3175Y1669D01*
X3173Y1675D01*
X3171Y1679D01*
X3168Y1680D01*
X3166Y1678D01*
X3164Y1674D01*
G01X3277Y1457D02*
X3276Y1459D01*
X3275Y1463D01*
X3274Y1469D01*
X3275Y1474D01*
X3276Y1478D01*
X3279Y1480D01*
X3288D01*
Y1430D01*
X3277D01*
X3274Y1433D01*
X3273Y1438D01*
X3272Y1444D01*
X3273Y1450D01*
X3275Y1455D01*
X3277Y1457D01*
X3288D01*
G01X3248Y1476D02*
X3250Y1478D01*
X3252Y1480D01*
X3255D01*
X3258Y1478D01*
X3260Y1473D01*
X3262Y1468D01*
X3263Y1460D01*
X3263Y1453D01*
X3263Y1445D01*
X3262Y1440D01*
X3260Y1435D01*
X3257Y1432D01*
X3255Y1430D01*
X3253D01*
X3250Y1432D01*
X3248Y1434D01*
X3247Y1438D01*
G01X3230Y1430D02*
Y1480D01*
X3234Y1470D01*
G01Y1430D02*
X3226D01*
G01X3211Y1436D02*
X3208Y1432D01*
X3206Y1430D01*
X3203Y1432D01*
X3201Y1437D01*
X3199Y1444D01*
X3198Y1452D01*
Y1461D01*
X3199Y1468D01*
X3201Y1475D01*
X3203Y1478D01*
X3205Y1480D01*
X3208Y1478D01*
X3210Y1475D01*
X3211Y1470D01*
X3212Y1463D01*
X3211Y1458D01*
X3209Y1452D01*
X3207Y1448D01*
X3205Y1448D01*
X3202Y1449D01*
X3200Y1453D01*
X3198Y1461D01*
G01X3027Y2080D02*
Y2130D01*
X3018D01*
X3016Y2128D01*
X3014Y2124D01*
X3013Y2118D01*
X3014Y2111D01*
X3016Y2107D01*
X3018Y2104D01*
X3027D01*
G01X3018D02*
X3013Y2080D01*
G01X2995D02*
Y2130D01*
X2999Y2120D01*
G01Y2080D02*
X2991D01*
G01X2976Y2101D02*
X2974Y2107D01*
X2972Y2110D01*
X2969Y2112D01*
X2967Y2110D01*
X2965Y2107D01*
X2964Y2102D01*
X2964Y2096D01*
X2964Y2091D01*
X2965Y2086D01*
X2967Y2082D01*
X2970Y2080D01*
X2972Y2082D01*
X2975Y2087D01*
X2976Y2094D01*
X2976Y2102D01*
X2976Y2113D01*
X2975Y2119D01*
X2973Y2125D01*
X2971Y2129D01*
X2968Y2130D01*
X2966Y2128D01*
X2964Y2124D01*
G01X3027Y2405D02*
Y2455D01*
X3018D01*
X3016Y2452D01*
X3014Y2449D01*
X3013Y2442D01*
X3014Y2436D01*
X3016Y2432D01*
X3018Y2429D01*
X3027D01*
G01X3018D02*
X3013Y2405D01*
G01X2995D02*
Y2455D01*
X2999Y2445D01*
G01Y2405D02*
X2991D01*
G01X2971D02*
X2970Y2416D01*
X2969Y2425D01*
X2968Y2433D01*
X2966Y2442D01*
X2963Y2455D01*
X2977D01*
G01X3277Y1107D02*
X3276Y1109D01*
X3275Y1113D01*
X3274Y1119D01*
X3275Y1124D01*
X3276Y1128D01*
X3279Y1130D01*
X3288D01*
Y1080D01*
X3277D01*
X3274Y1083D01*
X3273Y1088D01*
X3272Y1094D01*
X3273Y1100D01*
X3275Y1105D01*
X3277Y1107D01*
X3288D01*
G01X3248Y1126D02*
X3250Y1128D01*
X3252Y1130D01*
X3255D01*
X3258Y1128D01*
X3260Y1123D01*
X3262Y1118D01*
X3263Y1110D01*
X3263Y1102D01*
X3263Y1095D01*
X3262Y1090D01*
X3260Y1085D01*
X3257Y1082D01*
X3255Y1080D01*
X3253D01*
X3250Y1082D01*
X3248Y1084D01*
X3247Y1088D01*
G01X3226Y1080D02*
Y1130D01*
X3238Y1094D01*
X3222D01*
G01X3457Y1257D02*
X3456Y1259D01*
X3455Y1263D01*
X3454Y1269D01*
X3455Y1274D01*
X3456Y1278D01*
X3459Y1280D01*
X3468D01*
Y1230D01*
X3457D01*
X3454Y1233D01*
X3453Y1238D01*
X3452Y1244D01*
X3453Y1250D01*
X3455Y1255D01*
X3457Y1257D01*
X3468D01*
G01X3428Y1276D02*
X3430Y1278D01*
X3432Y1280D01*
X3435D01*
X3438Y1278D01*
X3440Y1273D01*
X3442Y1268D01*
X3443Y1260D01*
X3443Y1252D01*
X3443Y1245D01*
X3442Y1240D01*
X3440Y1235D01*
X3437Y1232D01*
X3435Y1230D01*
X3433D01*
X3430Y1232D01*
X3428Y1234D01*
X3427Y1238D01*
G01X3416Y1272D02*
X3414Y1277D01*
X3412Y1279D01*
X3409Y1280D01*
X3406Y1278D01*
X3404Y1274D01*
X3403Y1269D01*
X3403Y1264D01*
X3405Y1260D01*
X3411Y1252D01*
X3414Y1246D01*
X3416Y1238D01*
X3417Y1230D01*
X3403D01*
G01X3391Y1272D02*
X3389Y1277D01*
X3387Y1279D01*
X3384Y1280D01*
X3381Y1278D01*
X3379Y1274D01*
X3378Y1269D01*
X3378Y1264D01*
X3380Y1260D01*
X3386Y1252D01*
X3389Y1246D01*
X3391Y1238D01*
X3392Y1230D01*
X3378D01*
G01X3387Y1317D02*
X3386Y1319D01*
X3385Y1323D01*
X3384Y1329D01*
X3385Y1334D01*
X3386Y1338D01*
X3389Y1340D01*
X3398D01*
Y1290D01*
X3387D01*
X3384Y1293D01*
X3383Y1298D01*
X3382Y1304D01*
X3383Y1310D01*
X3385Y1315D01*
X3387Y1317D01*
X3398D01*
G01X3358Y1336D02*
X3360Y1338D01*
X3362Y1340D01*
X3365D01*
X3368Y1338D01*
X3370Y1333D01*
X3372Y1328D01*
X3373Y1320D01*
X3373Y1312D01*
X3373Y1305D01*
X3372Y1300D01*
X3370Y1295D01*
X3367Y1292D01*
X3365Y1290D01*
X3363D01*
X3360Y1292D01*
X3358Y1294D01*
X3357Y1298D01*
G01X3346Y1332D02*
X3344Y1337D01*
X3342Y1339D01*
X3339Y1340D01*
X3336Y1338D01*
X3334Y1334D01*
X3333Y1329D01*
X3333Y1324D01*
X3335Y1320D01*
X3341Y1312D01*
X3344Y1306D01*
X3346Y1298D01*
X3347Y1290D01*
X3333D01*
G01X3315D02*
Y1340D01*
X3319Y1330D01*
G01Y1290D02*
X3311D01*
G01X3327Y1387D02*
X3326Y1389D01*
X3325Y1393D01*
X3324Y1399D01*
X3325Y1404D01*
X3326Y1408D01*
X3329Y1410D01*
X3338D01*
Y1360D01*
X3327D01*
X3324Y1363D01*
X3323Y1368D01*
X3322Y1374D01*
X3323Y1380D01*
X3325Y1385D01*
X3327Y1387D01*
X3338D01*
G01X3298Y1406D02*
X3300Y1408D01*
X3302Y1410D01*
X3305D01*
X3308Y1408D01*
X3310Y1403D01*
X3312Y1398D01*
X3313Y1390D01*
X3313Y1382D01*
X3313Y1375D01*
X3312Y1370D01*
X3310Y1365D01*
X3307Y1362D01*
X3305Y1360D01*
X3303D01*
X3300Y1362D01*
X3298Y1364D01*
X3297Y1368D01*
G01X3286Y1402D02*
X3284Y1407D01*
X3282Y1409D01*
X3279Y1410D01*
X3276Y1408D01*
X3274Y1404D01*
X3273Y1399D01*
X3273Y1394D01*
X3275Y1390D01*
X3281Y1382D01*
X3284Y1376D01*
X3286Y1368D01*
X3287Y1360D01*
X3273D01*
G01X3255Y1410D02*
X3258Y1408D01*
X3260Y1404D01*
X3261Y1399D01*
X3262Y1392D01*
X3262Y1385D01*
X3262Y1378D01*
X3261Y1371D01*
X3260Y1366D01*
X3258Y1362D01*
X3255Y1360D01*
X3252Y1362D01*
X3250Y1366D01*
X3249Y1371D01*
X3248Y1378D01*
X3248Y1385D01*
X3248Y1392D01*
X3249Y1399D01*
X3250Y1404D01*
X3252Y1408D01*
X3255Y1410D01*
G01X3437Y1587D02*
X3436Y1589D01*
X3435Y1593D01*
X3434Y1599D01*
X3435Y1604D01*
X3436Y1608D01*
X3439Y1610D01*
X3448D01*
Y1560D01*
X3437D01*
X3434Y1563D01*
X3433Y1568D01*
X3432Y1574D01*
X3433Y1580D01*
X3435Y1585D01*
X3437Y1587D01*
X3448D01*
G01X3408Y1606D02*
X3410Y1608D01*
X3412Y1610D01*
X3415D01*
X3418Y1608D01*
X3420Y1603D01*
X3422Y1598D01*
X3423Y1590D01*
X3423Y1582D01*
X3423Y1575D01*
X3422Y1570D01*
X3420Y1565D01*
X3417Y1562D01*
X3415Y1560D01*
X3413D01*
X3410Y1562D01*
X3408Y1564D01*
X3407Y1568D01*
G01X3390Y1560D02*
Y1610D01*
X3394Y1600D01*
G01Y1560D02*
X3386D01*
G01X3371Y1602D02*
X3369Y1607D01*
X3367Y1609D01*
X3364Y1610D01*
X3361Y1608D01*
X3359Y1604D01*
X3358Y1599D01*
X3358Y1594D01*
X3360Y1590D01*
X3366Y1582D01*
X3369Y1576D01*
X3371Y1568D01*
X3372Y1560D01*
X3358D01*
G01X3477Y1657D02*
X3476Y1659D01*
X3475Y1663D01*
X3474Y1669D01*
X3475Y1674D01*
X3476Y1678D01*
X3479Y1680D01*
X3488D01*
Y1630D01*
X3477D01*
X3474Y1633D01*
X3473Y1638D01*
X3472Y1644D01*
X3473Y1650D01*
X3475Y1655D01*
X3477Y1657D01*
X3488D01*
G01X3448Y1676D02*
X3450Y1678D01*
X3452Y1680D01*
X3455D01*
X3458Y1678D01*
X3460Y1673D01*
X3462Y1668D01*
X3463Y1660D01*
X3463Y1652D01*
X3463Y1645D01*
X3462Y1640D01*
X3460Y1635D01*
X3457Y1632D01*
X3455Y1630D01*
X3453D01*
X3450Y1632D01*
X3448Y1634D01*
X3447Y1638D01*
G01X3430Y1630D02*
Y1680D01*
X3434Y1670D01*
G01Y1630D02*
X3426D01*
G01X3405D02*
Y1680D01*
X3409Y1670D01*
G01Y1630D02*
X3401D01*
G01X3547Y1717D02*
X3546Y1719D01*
X3545Y1723D01*
X3544Y1729D01*
X3545Y1734D01*
X3546Y1738D01*
X3549Y1740D01*
X3558D01*
Y1690D01*
X3547D01*
X3544Y1693D01*
X3543Y1698D01*
X3542Y1704D01*
X3543Y1710D01*
X3545Y1715D01*
X3547Y1717D01*
X3558D01*
G01X3518Y1736D02*
X3520Y1738D01*
X3522Y1740D01*
X3525D01*
X3528Y1738D01*
X3530Y1733D01*
X3532Y1728D01*
X3533Y1720D01*
X3533Y1713D01*
X3533Y1705D01*
X3532Y1700D01*
X3530Y1695D01*
X3527Y1692D01*
X3525Y1690D01*
X3523D01*
X3520Y1692D01*
X3518Y1694D01*
X3517Y1698D01*
G01X3500Y1690D02*
Y1740D01*
X3504Y1730D01*
G01Y1690D02*
X3496D01*
G01X3475Y1740D02*
X3478Y1738D01*
X3480Y1734D01*
X3481Y1729D01*
X3482Y1723D01*
X3482Y1715D01*
X3482Y1708D01*
X3481Y1701D01*
X3480Y1696D01*
X3478Y1692D01*
X3475Y1690D01*
X3472Y1692D01*
X3470Y1696D01*
X3469Y1701D01*
X3468Y1708D01*
X3468Y1715D01*
X3468Y1723D01*
X3469Y1729D01*
X3470Y1734D01*
X3472Y1738D01*
X3475Y1740D01*
G01X3327Y1767D02*
X3326Y1769D01*
X3325Y1773D01*
X3324Y1779D01*
X3325Y1784D01*
X3326Y1788D01*
X3329Y1790D01*
X3338D01*
Y1740D01*
X3327D01*
X3324Y1743D01*
X3323Y1748D01*
X3322Y1754D01*
X3323Y1760D01*
X3325Y1765D01*
X3327Y1767D01*
X3338D01*
G01X3298Y1786D02*
X3300Y1788D01*
X3302Y1790D01*
X3305D01*
X3308Y1788D01*
X3310Y1783D01*
X3312Y1778D01*
X3313Y1770D01*
X3313Y1762D01*
X3313Y1755D01*
X3312Y1750D01*
X3310Y1745D01*
X3307Y1742D01*
X3305Y1740D01*
X3303D01*
X3300Y1742D01*
X3298Y1744D01*
X3297Y1748D01*
G01X3280Y1740D02*
Y1790D01*
X3284Y1780D01*
G01Y1740D02*
X3276D01*
G01X3255D02*
X3253Y1741D01*
X3250Y1743D01*
X3248Y1748D01*
X3248Y1753D01*
X3248Y1759D01*
X3250Y1764D01*
X3253Y1767D01*
X3257D01*
X3259Y1768D01*
X3260Y1772D01*
X3261Y1778D01*
X3260Y1784D01*
X3258Y1788D01*
X3255Y1790D01*
X3252Y1788D01*
X3250Y1784D01*
X3249Y1778D01*
X3250Y1772D01*
X3251Y1768D01*
X3253Y1767D01*
X3257D01*
X3260Y1764D01*
X3262Y1759D01*
X3262Y1753D01*
X3262Y1748D01*
X3260Y1743D01*
X3257Y1741D01*
X3255Y1740D01*
G01X3387Y1827D02*
X3386Y1829D01*
X3385Y1833D01*
X3384Y1839D01*
X3385Y1844D01*
X3386Y1848D01*
X3389Y1850D01*
X3398D01*
Y1800D01*
X3387D01*
X3384Y1803D01*
X3383Y1808D01*
X3382Y1814D01*
X3383Y1820D01*
X3385Y1825D01*
X3387Y1827D01*
X3398D01*
G01X3358Y1846D02*
X3360Y1848D01*
X3362Y1850D01*
X3365D01*
X3368Y1848D01*
X3370Y1843D01*
X3372Y1838D01*
X3373Y1830D01*
X3373Y1822D01*
X3373Y1815D01*
X3372Y1810D01*
X3370Y1805D01*
X3367Y1802D01*
X3365Y1800D01*
X3363D01*
X3360Y1802D01*
X3358Y1804D01*
X3357Y1808D01*
G01X3340Y1800D02*
Y1850D01*
X3344Y1840D01*
G01Y1800D02*
X3336D01*
G01X3316D02*
X3315Y1811D01*
X3314Y1820D01*
X3313Y1828D01*
X3311Y1838D01*
X3308Y1850D01*
X3322D01*
G01X3447Y1887D02*
X3446Y1889D01*
X3445Y1893D01*
X3444Y1899D01*
X3445Y1904D01*
X3446Y1908D01*
X3449Y1910D01*
X3458D01*
Y1860D01*
X3447D01*
X3444Y1863D01*
X3443Y1868D01*
X3442Y1874D01*
X3443Y1880D01*
X3445Y1885D01*
X3447Y1887D01*
X3458D01*
G01X3418Y1906D02*
X3420Y1908D01*
X3422Y1910D01*
X3425D01*
X3428Y1908D01*
X3430Y1903D01*
X3432Y1898D01*
X3433Y1890D01*
X3433Y1882D01*
X3433Y1875D01*
X3432Y1870D01*
X3430Y1865D01*
X3427Y1862D01*
X3425Y1860D01*
X3423D01*
X3420Y1862D01*
X3418Y1864D01*
X3417Y1868D01*
G01X3400Y1860D02*
Y1910D01*
X3404Y1900D01*
G01Y1860D02*
X3396D01*
G01X3381Y1881D02*
X3379Y1887D01*
X3377Y1890D01*
X3374Y1892D01*
X3372Y1890D01*
X3370Y1887D01*
X3369Y1882D01*
X3369Y1876D01*
X3369Y1871D01*
X3370Y1866D01*
X3372Y1862D01*
X3375Y1860D01*
X3377Y1862D01*
X3380Y1867D01*
X3381Y1874D01*
X3381Y1882D01*
X3381Y1893D01*
X3380Y1899D01*
X3378Y1905D01*
X3376Y1909D01*
X3373Y1910D01*
X3371Y1908D01*
X3369Y1904D01*
G01X3480Y3423D02*
X3530D01*
Y3432D01*
X3528Y3434D01*
X3524Y3436D01*
X3518Y3437D01*
X3511Y3436D01*
X3507Y3434D01*
X3504Y3432D01*
Y3423D01*
G01Y3432D02*
X3480Y3437D01*
G01X3487Y3448D02*
X3482Y3451D01*
X3480Y3454D01*
Y3456D01*
X3482Y3459D01*
X3487Y3461D01*
X3492Y3462D01*
X3498Y3461D01*
X3503Y3460D01*
X3507Y3457D01*
X3508Y3453D01*
X3512Y3450D01*
X3518Y3449D01*
X3523Y3450D01*
X3528Y3452D01*
X3530Y3454D01*
Y3456D01*
X3528Y3459D01*
X3524Y3461D01*
G01X3522Y3474D02*
X3527Y3476D01*
X3529Y3478D01*
X3530Y3481D01*
X3528Y3484D01*
X3524Y3486D01*
X3519Y3487D01*
X3514Y3487D01*
X3510Y3485D01*
X3502Y3479D01*
X3496Y3476D01*
X3488Y3474D01*
X3480Y3473D01*
Y3487D01*
G01X3790Y421D02*
X3792Y419D01*
X3794Y417D01*
Y414D01*
X3792Y411D01*
X3787Y409D01*
X3782Y407D01*
X3774Y406D01*
X3766Y406D01*
X3759Y406D01*
X3754Y407D01*
X3749Y409D01*
X3746Y412D01*
X3744Y414D01*
Y416D01*
X3746Y419D01*
X3748Y421D01*
X3752Y422D01*
G01X3754Y432D02*
X3748Y434D01*
X3745Y436D01*
X3744Y439D01*
X3745Y442D01*
X3749Y445D01*
X3754Y446D01*
X3759Y447D01*
X3765Y446D01*
X3769Y444D01*
X3771Y441D01*
Y438D01*
G01Y441D02*
X3773Y443D01*
X3777Y445D01*
X3782Y446D01*
X3787Y445D01*
X3792Y443D01*
X3794Y440D01*
X3793Y437D01*
X3790Y434D01*
G01X3744Y464D02*
X3745Y466D01*
X3747Y469D01*
X3752Y471D01*
X3757Y471D01*
X3763Y471D01*
X3768Y469D01*
X3771Y466D01*
Y462D01*
X3772Y460D01*
X3776Y459D01*
X3782Y458D01*
X3788Y459D01*
X3792Y461D01*
X3794Y464D01*
X3792Y467D01*
X3788Y469D01*
X3782Y470D01*
X3776Y469D01*
X3772Y468D01*
X3771Y466D01*
Y462D01*
X3768Y459D01*
X3763Y457D01*
X3757Y457D01*
X3752Y457D01*
X3747Y459D01*
X3745Y462D01*
X3744Y464D01*
G01X3858Y421D02*
X3860Y419D01*
X3862Y417D01*
Y414D01*
X3860Y411D01*
X3855Y409D01*
X3850Y407D01*
X3842Y406D01*
X3835Y406D01*
X3827Y406D01*
X3822Y407D01*
X3817Y409D01*
X3814Y412D01*
X3812Y414D01*
Y416D01*
X3814Y419D01*
X3816Y421D01*
X3820Y422D01*
G01X3822Y432D02*
X3816Y434D01*
X3813Y436D01*
X3812Y439D01*
X3813Y442D01*
X3817Y445D01*
X3822Y446D01*
X3827Y447D01*
X3833Y446D01*
X3837Y444D01*
X3839Y441D01*
Y438D01*
G01Y441D02*
X3841Y443D01*
X3845Y445D01*
X3850Y446D01*
X3855Y445D01*
X3860Y443D01*
X3862Y440D01*
X3861Y437D01*
X3858Y434D01*
G01X3812Y463D02*
X3823Y464D01*
X3832Y465D01*
X3840Y466D01*
X3850Y468D01*
X3862Y471D01*
Y457D01*
G01X3577Y640D02*
Y690D01*
X3568D01*
X3566Y688D01*
X3564Y684D01*
X3563Y678D01*
X3564Y671D01*
X3566Y667D01*
X3568Y664D01*
X3577D01*
G01X3568D02*
X3563Y640D01*
G01X3553D02*
Y690D01*
X3537Y640D01*
Y690D01*
G01X3520Y640D02*
Y690D01*
X3524Y680D01*
G01Y640D02*
X3516D01*
G01X3727Y1187D02*
X3726Y1189D01*
X3725Y1193D01*
X3724Y1199D01*
X3725Y1204D01*
X3726Y1208D01*
X3729Y1210D01*
X3738D01*
Y1160D01*
X3727D01*
X3724Y1163D01*
X3723Y1168D01*
X3722Y1174D01*
X3723Y1180D01*
X3725Y1185D01*
X3727Y1187D01*
X3738D01*
G01X3698Y1206D02*
X3700Y1208D01*
X3702Y1210D01*
X3705D01*
X3708Y1208D01*
X3710Y1203D01*
X3712Y1198D01*
X3713Y1190D01*
X3713Y1182D01*
X3713Y1175D01*
X3712Y1170D01*
X3710Y1165D01*
X3707Y1162D01*
X3705Y1160D01*
X3703D01*
X3700Y1162D01*
X3698Y1164D01*
X3697Y1168D01*
G01X3681Y1160D02*
X3680Y1171D01*
X3679Y1180D01*
X3678Y1188D01*
X3676Y1198D01*
X3673Y1210D01*
X3687D01*
G01X3827Y1257D02*
X3826Y1259D01*
X3825Y1263D01*
X3824Y1269D01*
X3825Y1274D01*
X3826Y1278D01*
X3829Y1280D01*
X3838D01*
Y1230D01*
X3827D01*
X3824Y1233D01*
X3823Y1238D01*
X3822Y1244D01*
X3823Y1250D01*
X3825Y1255D01*
X3827Y1257D01*
X3838D01*
G01X3798Y1276D02*
X3800Y1278D01*
X3802Y1280D01*
X3805D01*
X3808Y1278D01*
X3810Y1273D01*
X3812Y1268D01*
X3813Y1260D01*
X3813Y1252D01*
X3813Y1245D01*
X3812Y1240D01*
X3810Y1235D01*
X3807Y1232D01*
X3805Y1230D01*
X3803D01*
X3800Y1232D01*
X3798Y1234D01*
X3797Y1238D01*
G01X3786Y1272D02*
X3784Y1277D01*
X3782Y1279D01*
X3779Y1280D01*
X3776Y1278D01*
X3774Y1274D01*
X3773Y1269D01*
X3773Y1264D01*
X3775Y1260D01*
X3781Y1252D01*
X3784Y1246D01*
X3786Y1238D01*
X3787Y1230D01*
X3773D01*
G01X3762Y1240D02*
X3760Y1234D01*
X3758Y1231D01*
X3755Y1230D01*
X3752Y1231D01*
X3749Y1235D01*
X3748Y1240D01*
X3747Y1245D01*
X3748Y1251D01*
X3750Y1255D01*
X3753Y1257D01*
X3756D01*
G01X3753D02*
X3751Y1259D01*
X3749Y1263D01*
X3748Y1268D01*
X3749Y1273D01*
X3751Y1278D01*
X3754Y1280D01*
X3757Y1279D01*
X3760Y1276D01*
G01X3717Y1447D02*
X3716Y1449D01*
X3715Y1453D01*
X3714Y1459D01*
X3715Y1464D01*
X3716Y1468D01*
X3719Y1470D01*
X3728D01*
Y1420D01*
X3717D01*
X3714Y1423D01*
X3713Y1428D01*
X3712Y1434D01*
X3713Y1440D01*
X3715Y1445D01*
X3717Y1447D01*
X3728D01*
G01X3688Y1466D02*
X3690Y1468D01*
X3692Y1470D01*
X3695D01*
X3698Y1468D01*
X3700Y1463D01*
X3702Y1458D01*
X3703Y1450D01*
X3703Y1443D01*
X3703Y1435D01*
X3702Y1430D01*
X3700Y1425D01*
X3697Y1422D01*
X3695Y1420D01*
X3693D01*
X3690Y1422D01*
X3688Y1424D01*
X3687Y1428D01*
G01X3670Y1420D02*
Y1470D01*
X3674Y1460D01*
G01Y1420D02*
X3666D01*
G01X3652Y1428D02*
X3650Y1423D01*
X3648Y1421D01*
X3645Y1420D01*
X3642Y1422D01*
X3640Y1425D01*
X3638Y1431D01*
X3638Y1438D01*
X3638Y1444D01*
X3640Y1448D01*
X3642Y1452D01*
X3645Y1453D01*
X3647Y1452D01*
X3650Y1448D01*
X3649Y1470D01*
X3640D01*
G01X3787Y1507D02*
X3786Y1509D01*
X3785Y1513D01*
X3784Y1519D01*
X3785Y1524D01*
X3786Y1528D01*
X3789Y1530D01*
X3798D01*
Y1480D01*
X3787D01*
X3784Y1483D01*
X3783Y1488D01*
X3782Y1494D01*
X3783Y1500D01*
X3785Y1505D01*
X3787Y1507D01*
X3798D01*
G01X3758Y1526D02*
X3760Y1528D01*
X3762Y1530D01*
X3765D01*
X3768Y1528D01*
X3770Y1523D01*
X3772Y1518D01*
X3773Y1510D01*
X3773Y1502D01*
X3773Y1495D01*
X3772Y1490D01*
X3770Y1485D01*
X3767Y1482D01*
X3765Y1480D01*
X3763D01*
X3760Y1482D01*
X3758Y1484D01*
X3757Y1488D01*
G01X3740Y1480D02*
Y1530D01*
X3744Y1520D01*
G01Y1480D02*
X3736D01*
G01X3711D02*
Y1530D01*
X3723Y1494D01*
X3707D01*
G01X3827Y1567D02*
X3826Y1569D01*
X3825Y1573D01*
X3824Y1579D01*
X3825Y1584D01*
X3826Y1588D01*
X3829Y1590D01*
X3838D01*
Y1540D01*
X3827D01*
X3824Y1543D01*
X3823Y1548D01*
X3822Y1554D01*
X3823Y1560D01*
X3825Y1565D01*
X3827Y1567D01*
X3838D01*
G01X3798Y1586D02*
X3800Y1588D01*
X3802Y1590D01*
X3805D01*
X3808Y1588D01*
X3810Y1583D01*
X3812Y1578D01*
X3813Y1570D01*
X3813Y1562D01*
X3813Y1555D01*
X3812Y1550D01*
X3810Y1545D01*
X3807Y1542D01*
X3805Y1540D01*
X3803D01*
X3800Y1542D01*
X3798Y1544D01*
X3797Y1548D01*
G01X3780Y1540D02*
Y1590D01*
X3784Y1580D01*
G01Y1540D02*
X3776D01*
G01X3762Y1550D02*
X3760Y1544D01*
X3758Y1541D01*
X3755Y1540D01*
X3752Y1541D01*
X3749Y1545D01*
X3748Y1550D01*
X3747Y1555D01*
X3748Y1561D01*
X3750Y1565D01*
X3753Y1567D01*
X3756D01*
G01X3753D02*
X3751Y1569D01*
X3749Y1573D01*
X3748Y1578D01*
X3749Y1583D01*
X3751Y1588D01*
X3754Y1590D01*
X3757Y1589D01*
X3760Y1586D01*
G01X3597Y1777D02*
X3596Y1779D01*
X3595Y1783D01*
X3594Y1789D01*
X3595Y1794D01*
X3596Y1798D01*
X3599Y1800D01*
X3608D01*
Y1750D01*
X3597D01*
X3594Y1753D01*
X3593Y1758D01*
X3592Y1764D01*
X3593Y1770D01*
X3595Y1775D01*
X3597Y1777D01*
X3608D01*
G01X3568Y1796D02*
X3570Y1798D01*
X3572Y1800D01*
X3575D01*
X3578Y1798D01*
X3580Y1793D01*
X3582Y1788D01*
X3583Y1780D01*
X3583Y1772D01*
X3583Y1765D01*
X3582Y1760D01*
X3580Y1755D01*
X3577Y1752D01*
X3575Y1750D01*
X3573D01*
X3570Y1752D01*
X3568Y1754D01*
X3567Y1758D01*
G01X3556Y1756D02*
X3553Y1752D01*
X3551Y1750D01*
X3548Y1752D01*
X3546Y1757D01*
X3544Y1764D01*
X3543Y1772D01*
Y1781D01*
X3544Y1788D01*
X3546Y1795D01*
X3548Y1798D01*
X3550Y1800D01*
X3553Y1798D01*
X3555Y1795D01*
X3556Y1790D01*
X3557Y1783D01*
X3556Y1778D01*
X3554Y1772D01*
X3552Y1768D01*
X3550Y1768D01*
X3547Y1769D01*
X3545Y1773D01*
X3543Y1781D01*
G01X3607Y1917D02*
X3606Y1919D01*
X3605Y1923D01*
X3604Y1929D01*
X3605Y1934D01*
X3606Y1938D01*
X3609Y1940D01*
X3618D01*
Y1890D01*
X3607D01*
X3604Y1893D01*
X3603Y1898D01*
X3602Y1904D01*
X3603Y1910D01*
X3605Y1915D01*
X3607Y1917D01*
X3618D01*
G01X3578Y1936D02*
X3580Y1938D01*
X3582Y1940D01*
X3585D01*
X3588Y1938D01*
X3590Y1933D01*
X3592Y1928D01*
X3593Y1920D01*
X3593Y1912D01*
X3593Y1905D01*
X3592Y1900D01*
X3590Y1895D01*
X3587Y1892D01*
X3585Y1890D01*
X3583D01*
X3580Y1892D01*
X3578Y1894D01*
X3577Y1898D01*
G01X3567D02*
X3565Y1893D01*
X3563Y1891D01*
X3560Y1890D01*
X3557Y1892D01*
X3555Y1895D01*
X3553Y1901D01*
X3553Y1908D01*
X3553Y1914D01*
X3555Y1918D01*
X3557Y1922D01*
X3560Y1922D01*
X3562Y1922D01*
X3565Y1918D01*
X3564Y1940D01*
X3555D01*
G01X3797Y1917D02*
X3796Y1919D01*
X3795Y1923D01*
X3794Y1929D01*
X3795Y1934D01*
X3796Y1938D01*
X3799Y1940D01*
X3808D01*
Y1890D01*
X3797D01*
X3794Y1893D01*
X3793Y1898D01*
X3792Y1904D01*
X3793Y1910D01*
X3795Y1915D01*
X3797Y1917D01*
X3808D01*
G01X3768Y1936D02*
X3770Y1938D01*
X3772Y1940D01*
X3775D01*
X3778Y1938D01*
X3780Y1933D01*
X3782Y1928D01*
X3783Y1920D01*
X3783Y1912D01*
X3783Y1905D01*
X3782Y1900D01*
X3780Y1895D01*
X3777Y1892D01*
X3775Y1890D01*
X3773D01*
X3770Y1892D01*
X3768Y1894D01*
X3767Y1898D01*
G01X3756Y1932D02*
X3754Y1937D01*
X3752Y1939D01*
X3749Y1940D01*
X3746Y1938D01*
X3744Y1934D01*
X3743Y1929D01*
X3743Y1924D01*
X3745Y1920D01*
X3751Y1912D01*
X3754Y1906D01*
X3756Y1898D01*
X3757Y1890D01*
X3743D01*
G01X3731Y1896D02*
X3728Y1892D01*
X3726Y1890D01*
X3723Y1892D01*
X3721Y1897D01*
X3719Y1904D01*
X3718Y1912D01*
Y1921D01*
X3719Y1928D01*
X3721Y1935D01*
X3723Y1938D01*
X3725Y1940D01*
X3728Y1938D01*
X3730Y1935D01*
X3731Y1930D01*
X3732Y1923D01*
X3731Y1918D01*
X3729Y1912D01*
X3727Y1908D01*
X3725Y1908D01*
X3722Y1909D01*
X3720Y1913D01*
X3718Y1921D01*
G01X3857Y1847D02*
X3856Y1849D01*
X3855Y1853D01*
X3854Y1859D01*
X3855Y1864D01*
X3856Y1868D01*
X3859Y1870D01*
X3868D01*
Y1820D01*
X3857D01*
X3854Y1823D01*
X3853Y1828D01*
X3852Y1834D01*
X3853Y1840D01*
X3855Y1845D01*
X3857Y1847D01*
X3868D01*
G01X3828Y1866D02*
X3830Y1868D01*
X3832Y1870D01*
X3835D01*
X3838Y1868D01*
X3840Y1863D01*
X3842Y1858D01*
X3843Y1850D01*
X3843Y1842D01*
X3843Y1835D01*
X3842Y1830D01*
X3840Y1825D01*
X3837Y1822D01*
X3835Y1820D01*
X3833D01*
X3830Y1822D01*
X3828Y1824D01*
X3827Y1828D01*
G01X3816Y1862D02*
X3814Y1867D01*
X3812Y1869D01*
X3809Y1870D01*
X3806Y1868D01*
X3804Y1864D01*
X3803Y1859D01*
X3803Y1854D01*
X3805Y1850D01*
X3811Y1842D01*
X3814Y1836D01*
X3816Y1828D01*
X3817Y1820D01*
X3803D01*
G01X3785D02*
X3783Y1821D01*
X3780Y1823D01*
X3778Y1828D01*
X3778Y1833D01*
X3778Y1839D01*
X3780Y1844D01*
X3783Y1847D01*
X3787D01*
X3789Y1848D01*
X3790Y1852D01*
X3791Y1858D01*
X3790Y1864D01*
X3788Y1868D01*
X3785Y1870D01*
X3782Y1868D01*
X3780Y1864D01*
X3779Y1858D01*
X3780Y1852D01*
X3781Y1848D01*
X3783Y1847D01*
X3787D01*
X3790Y1844D01*
X3792Y1839D01*
X3792Y1833D01*
X3792Y1828D01*
X3790Y1823D01*
X3787Y1821D01*
X3785Y1820D01*
G01X3926Y422D02*
X3928Y420D01*
X3930Y418D01*
Y415D01*
X3928Y412D01*
X3923Y410D01*
X3918Y408D01*
X3910Y407D01*
X3903Y407D01*
X3895Y407D01*
X3890Y408D01*
X3885Y410D01*
X3882Y413D01*
X3880Y415D01*
Y417D01*
X3882Y420D01*
X3884Y422D01*
X3888Y423D01*
G01Y433D02*
X3883Y435D01*
X3881Y437D01*
X3880Y440D01*
X3882Y443D01*
X3885Y445D01*
X3891Y447D01*
X3898Y447D01*
X3904Y447D01*
X3908Y445D01*
X3912Y443D01*
X3912Y440D01*
X3912Y438D01*
X3908Y435D01*
X3930Y436D01*
Y445D01*
G01X4066Y422D02*
X4068Y420D01*
X4070Y418D01*
Y415D01*
X4068Y412D01*
X4063Y410D01*
X4058Y408D01*
X4050Y407D01*
X4043Y407D01*
X4035Y407D01*
X4030Y408D01*
X4025Y410D01*
X4022Y413D01*
X4020Y415D01*
Y417D01*
X4022Y420D01*
X4024Y422D01*
X4028Y423D01*
G01X4030Y433D02*
X4024Y435D01*
X4021Y437D01*
X4020Y440D01*
X4021Y443D01*
X4025Y446D01*
X4030Y447D01*
X4035Y448D01*
X4041Y447D01*
X4045Y445D01*
X4047Y442D01*
Y439D01*
G01Y442D02*
X4049Y444D01*
X4053Y446D01*
X4058Y447D01*
X4063Y446D01*
X4068Y444D01*
X4070Y441D01*
X4069Y438D01*
X4066Y435D01*
G01X3996Y422D02*
X3998Y420D01*
X4000Y418D01*
Y415D01*
X3998Y412D01*
X3993Y410D01*
X3988Y408D01*
X3980Y407D01*
X3972Y407D01*
X3965Y407D01*
X3960Y408D01*
X3955Y410D01*
X3952Y413D01*
X3950Y415D01*
Y417D01*
X3952Y420D01*
X3954Y422D01*
X3958Y423D01*
G01X3950Y444D02*
X4000D01*
X3964Y432D01*
Y448D01*
G01X4136Y422D02*
X4138Y420D01*
X4140Y418D01*
Y415D01*
X4138Y412D01*
X4133Y410D01*
X4128Y408D01*
X4120Y407D01*
X4112Y407D01*
X4105Y407D01*
X4100Y408D01*
X4095Y410D01*
X4092Y413D01*
X4090Y415D01*
Y417D01*
X4092Y420D01*
X4094Y422D01*
X4098Y423D01*
G01X4132Y434D02*
X4137Y436D01*
X4139Y438D01*
X4140Y441D01*
X4138Y444D01*
X4134Y446D01*
X4129Y447D01*
X4124Y447D01*
X4120Y445D01*
X4112Y439D01*
X4106Y436D01*
X4098Y434D01*
X4090Y433D01*
Y447D01*
G01X3977Y1417D02*
X3976Y1419D01*
X3975Y1423D01*
X3974Y1429D01*
X3975Y1434D01*
X3976Y1438D01*
X3979Y1440D01*
X3988D01*
Y1390D01*
X3977D01*
X3974Y1393D01*
X3973Y1398D01*
X3972Y1404D01*
X3973Y1410D01*
X3975Y1415D01*
X3977Y1417D01*
X3988D01*
G01X3948Y1436D02*
X3950Y1438D01*
X3952Y1440D01*
X3955D01*
X3958Y1438D01*
X3960Y1433D01*
X3962Y1428D01*
X3963Y1420D01*
X3963Y1412D01*
X3963Y1405D01*
X3962Y1400D01*
X3960Y1395D01*
X3957Y1392D01*
X3955Y1390D01*
X3953D01*
X3950Y1392D01*
X3948Y1394D01*
X3947Y1398D01*
G01X3936Y1432D02*
X3934Y1437D01*
X3932Y1439D01*
X3929Y1440D01*
X3926Y1438D01*
X3924Y1434D01*
X3923Y1429D01*
X3923Y1424D01*
X3925Y1420D01*
X3931Y1412D01*
X3934Y1406D01*
X3936Y1398D01*
X3937Y1390D01*
X3923D01*
G01X3912Y1398D02*
X3910Y1393D01*
X3908Y1391D01*
X3905Y1390D01*
X3902Y1392D01*
X3900Y1395D01*
X3898Y1401D01*
X3898Y1408D01*
X3898Y1414D01*
X3900Y1418D01*
X3902Y1422D01*
X3905Y1422D01*
X3907Y1422D01*
X3910Y1418D01*
X3909Y1440D01*
X3900D01*
G01X3897Y1337D02*
X3896Y1339D01*
X3895Y1343D01*
X3894Y1349D01*
X3895Y1354D01*
X3896Y1358D01*
X3899Y1360D01*
X3908D01*
Y1310D01*
X3897D01*
X3894Y1313D01*
X3893Y1318D01*
X3892Y1324D01*
X3893Y1330D01*
X3895Y1335D01*
X3897Y1337D01*
X3908D01*
G01X3868Y1356D02*
X3870Y1358D01*
X3872Y1360D01*
X3875D01*
X3878Y1358D01*
X3880Y1353D01*
X3882Y1348D01*
X3883Y1340D01*
X3883Y1332D01*
X3883Y1325D01*
X3882Y1320D01*
X3880Y1315D01*
X3877Y1312D01*
X3875Y1310D01*
X3873D01*
X3870Y1312D01*
X3868Y1314D01*
X3867Y1318D01*
G01X3856Y1352D02*
X3854Y1357D01*
X3852Y1359D01*
X3849Y1360D01*
X3846Y1358D01*
X3844Y1354D01*
X3843Y1349D01*
X3843Y1344D01*
X3845Y1340D01*
X3851Y1332D01*
X3854Y1326D01*
X3856Y1318D01*
X3857Y1310D01*
X3843D01*
G01X3821D02*
Y1360D01*
X3833Y1324D01*
X3817D01*
G01X4027Y1497D02*
X4026Y1499D01*
X4025Y1503D01*
X4024Y1509D01*
X4025Y1514D01*
X4026Y1518D01*
X4029Y1520D01*
X4038D01*
Y1470D01*
X4027D01*
X4024Y1473D01*
X4023Y1478D01*
X4022Y1484D01*
X4023Y1490D01*
X4025Y1495D01*
X4027Y1497D01*
X4038D01*
G01X3998Y1516D02*
X4000Y1518D01*
X4002Y1520D01*
X4005D01*
X4008Y1518D01*
X4010Y1513D01*
X4012Y1508D01*
X4013Y1500D01*
X4013Y1492D01*
X4013Y1485D01*
X4012Y1480D01*
X4010Y1475D01*
X4007Y1472D01*
X4005Y1470D01*
X4003D01*
X4000Y1472D01*
X3998Y1474D01*
X3997Y1478D01*
G01X3980Y1470D02*
X3978Y1471D01*
X3975Y1473D01*
X3973Y1478D01*
X3973Y1483D01*
X3973Y1489D01*
X3975Y1494D01*
X3978Y1497D01*
X3982D01*
X3984Y1498D01*
X3985Y1502D01*
X3986Y1508D01*
X3985Y1514D01*
X3983Y1518D01*
X3980Y1520D01*
X3977Y1518D01*
X3975Y1514D01*
X3974Y1508D01*
X3975Y1502D01*
X3976Y1498D01*
X3978Y1497D01*
X3982D01*
X3985Y1494D01*
X3987Y1489D01*
X3987Y1483D01*
X3987Y1478D01*
X3985Y1473D01*
X3982Y1471D01*
X3980Y1470D01*
G01X4027Y1687D02*
X4026Y1689D01*
X4025Y1693D01*
X4024Y1699D01*
X4025Y1704D01*
X4026Y1708D01*
X4029Y1710D01*
X4038D01*
Y1660D01*
X4027D01*
X4024Y1663D01*
X4023Y1668D01*
X4022Y1674D01*
X4023Y1680D01*
X4025Y1685D01*
X4027Y1687D01*
X4038D01*
G01X3998Y1706D02*
X4000Y1708D01*
X4002Y1710D01*
X4005D01*
X4008Y1708D01*
X4010Y1703D01*
X4012Y1698D01*
X4013Y1690D01*
X4013Y1682D01*
X4013Y1675D01*
X4012Y1670D01*
X4010Y1665D01*
X4007Y1662D01*
X4005Y1660D01*
X4003D01*
X4000Y1662D01*
X3998Y1664D01*
X3997Y1668D01*
G01X3986Y1702D02*
X3984Y1707D01*
X3982Y1709D01*
X3979Y1710D01*
X3976Y1708D01*
X3974Y1704D01*
X3973Y1699D01*
X3973Y1694D01*
X3975Y1690D01*
X3981Y1682D01*
X3984Y1676D01*
X3986Y1668D01*
X3987Y1660D01*
X3973D01*
G01X3961Y1681D02*
X3959Y1687D01*
X3957Y1690D01*
X3954Y1692D01*
X3952Y1690D01*
X3950Y1687D01*
X3949Y1682D01*
X3949Y1676D01*
X3949Y1671D01*
X3950Y1666D01*
X3952Y1662D01*
X3955Y1660D01*
X3957Y1662D01*
X3960Y1667D01*
X3961Y1674D01*
X3961Y1682D01*
X3961Y1693D01*
X3960Y1699D01*
X3958Y1705D01*
X3956Y1709D01*
X3953Y1710D01*
X3951Y1708D01*
X3949Y1704D01*
G01X3957Y1757D02*
X3956Y1759D01*
X3955Y1763D01*
X3954Y1769D01*
X3955Y1774D01*
X3956Y1778D01*
X3959Y1780D01*
X3968D01*
Y1730D01*
X3957D01*
X3954Y1733D01*
X3953Y1738D01*
X3952Y1744D01*
X3953Y1750D01*
X3955Y1755D01*
X3957Y1757D01*
X3968D01*
G01X3928Y1776D02*
X3930Y1778D01*
X3932Y1780D01*
X3935D01*
X3938Y1778D01*
X3940Y1773D01*
X3942Y1768D01*
X3943Y1760D01*
X3943Y1752D01*
X3943Y1745D01*
X3942Y1740D01*
X3940Y1735D01*
X3937Y1732D01*
X3935Y1730D01*
X3933D01*
X3930Y1732D01*
X3928Y1734D01*
X3927Y1738D01*
G01X3916Y1772D02*
X3914Y1777D01*
X3912Y1779D01*
X3909Y1780D01*
X3906Y1778D01*
X3904Y1774D01*
X3903Y1769D01*
X3903Y1764D01*
X3905Y1760D01*
X3911Y1752D01*
X3914Y1746D01*
X3916Y1738D01*
X3917Y1730D01*
X3903D01*
G01X3886D02*
X3885Y1741D01*
X3884Y1750D01*
X3883Y1758D01*
X3881Y1768D01*
X3878Y1780D01*
X3892D01*
G01X3890Y3050D02*
Y3100D01*
X3894Y3090D01*
G01Y3050D02*
X3886D01*
G01X3873Y3100D02*
X3865Y3050D01*
X3857Y3100D01*
G01X3840Y3050D02*
X3838Y3051D01*
X3835Y3053D01*
X3833Y3058D01*
X3833Y3063D01*
X3833Y3069D01*
X3835Y3074D01*
X3838Y3077D01*
X3842D01*
X3844Y3078D01*
X3845Y3082D01*
X3846Y3088D01*
X3845Y3094D01*
X3843Y3098D01*
X3840Y3100D01*
X3837Y3098D01*
X3835Y3094D01*
X3834Y3088D01*
X3835Y3082D01*
X3836Y3078D01*
X3838Y3077D01*
X3842D01*
X3845Y3074D01*
X3847Y3069D01*
X3847Y3063D01*
X3847Y3058D01*
X3845Y3053D01*
X3842Y3051D01*
X3840Y3050D01*
G01X4018Y3075D02*
X4011D01*
Y3060D01*
X4013Y3055D01*
X4016Y3052D01*
X4019Y3050D01*
X4022Y3052D01*
X4025Y3055D01*
X4027Y3060D01*
X4028Y3066D01*
X4029Y3073D01*
Y3078D01*
X4028Y3083D01*
X4027Y3089D01*
X4025Y3094D01*
X4023Y3098D01*
X4020Y3100D01*
X4018D01*
X4015Y3098D01*
X4013Y3095D01*
G01X4003Y3050D02*
Y3100D01*
X3987Y3050D01*
Y3100D01*
G01X3977Y3050D02*
Y3100D01*
X3971D01*
X3968Y3098D01*
X3966Y3094D01*
X3964Y3089D01*
X3963Y3083D01*
X3963Y3075D01*
X3963Y3067D01*
X3964Y3061D01*
X3966Y3056D01*
X3968Y3052D01*
X3971Y3050D01*
X3977D01*
G01X3941D02*
Y3100D01*
X3953Y3064D01*
X3937D01*
G01X4230Y408D02*
X4280D01*
Y417D01*
X4278Y419D01*
X4274Y421D01*
X4268Y422D01*
X4261Y421D01*
X4257Y419D01*
X4254Y417D01*
Y408D01*
G01Y417D02*
X4230Y422D01*
G01Y444D02*
X4280D01*
X4244Y432D01*
Y448D01*
G01X4236Y459D02*
X4232Y462D01*
X4230Y464D01*
X4232Y467D01*
X4237Y469D01*
X4244Y471D01*
X4252Y472D01*
X4261D01*
X4268Y471D01*
X4275Y469D01*
X4278Y467D01*
X4280Y465D01*
X4278Y462D01*
X4275Y460D01*
X4270Y459D01*
X4263Y458D01*
X4258Y459D01*
X4252Y461D01*
X4248Y463D01*
X4248Y465D01*
X4249Y468D01*
X4253Y470D01*
X4261Y472D01*
G01X4160Y408D02*
X4210D01*
Y417D01*
X4208Y419D01*
X4204Y421D01*
X4198Y422D01*
X4191Y421D01*
X4187Y419D01*
X4184Y417D01*
Y408D01*
G01Y417D02*
X4160Y422D01*
G01X4168Y433D02*
X4163Y435D01*
X4161Y437D01*
X4160Y440D01*
X4162Y443D01*
X4165Y445D01*
X4171Y447D01*
X4178Y447D01*
X4184Y447D01*
X4188Y445D01*
X4192Y443D01*
X4192Y440D01*
X4192Y438D01*
X4188Y435D01*
X4210Y436D01*
Y445D01*
G01Y465D02*
X4208Y462D01*
X4204Y460D01*
X4199Y459D01*
X4192Y458D01*
X4185Y458D01*
X4178Y458D01*
X4171Y459D01*
X4166Y460D01*
X4162Y462D01*
X4160Y465D01*
X4162Y468D01*
X4166Y470D01*
X4171Y471D01*
X4178Y472D01*
X4185Y472D01*
X4192Y472D01*
X4199Y471D01*
X4204Y470D01*
X4208Y468D01*
X4210Y465D01*
G01X4300Y408D02*
X4350D01*
Y417D01*
X4348Y419D01*
X4344Y421D01*
X4338Y422D01*
X4331Y421D01*
X4327Y419D01*
X4324Y417D01*
Y408D01*
G01Y417D02*
X4300Y422D01*
G01Y444D02*
X4350D01*
X4314Y432D01*
Y448D01*
G01X4300Y465D02*
X4301Y467D01*
X4303Y470D01*
X4308Y472D01*
X4313Y472D01*
X4319Y472D01*
X4324Y470D01*
X4327Y467D01*
Y463D01*
X4328Y461D01*
X4333Y460D01*
X4338Y459D01*
X4344Y460D01*
X4348Y462D01*
X4350Y465D01*
X4348Y468D01*
X4344Y470D01*
X4338Y471D01*
X4333Y470D01*
X4328Y469D01*
X4327Y467D01*
Y463D01*
X4324Y460D01*
X4319Y458D01*
X4313Y458D01*
X4308Y458D01*
X4303Y460D01*
X4301Y463D01*
X4300Y465D01*
G01X4380Y805D02*
X4383Y806D01*
X4385Y809D01*
X4387Y814D01*
X4388Y820D01*
X4389Y827D01*
Y833D01*
X4388Y840D01*
X4387Y846D01*
X4385Y851D01*
X4383Y854D01*
X4380Y855D01*
X4377Y854D01*
X4375Y851D01*
X4373Y846D01*
X4372Y840D01*
X4371Y833D01*
Y827D01*
X4372Y820D01*
X4373Y814D01*
X4375Y809D01*
X4377Y806D01*
X4380Y805D01*
G01X4377Y818D02*
X4373Y805D01*
G01X4362Y812D02*
X4360Y808D01*
X4358Y806D01*
X4355Y805D01*
X4352Y807D01*
X4350Y810D01*
X4348Y816D01*
X4348Y822D01*
X4348Y829D01*
X4350Y833D01*
X4352Y837D01*
X4355Y838D01*
X4357Y837D01*
X4360Y833D01*
X4359Y855D01*
X4350D01*
G01X4228Y805D02*
X4230Y806D01*
X4232Y809D01*
X4234Y814D01*
X4236Y820D01*
X4236Y827D01*
Y833D01*
X4236Y840D01*
X4234Y846D01*
X4232Y851D01*
X4230Y854D01*
X4228Y855D01*
X4225Y854D01*
X4222Y851D01*
X4220Y846D01*
X4219Y840D01*
X4218Y833D01*
Y827D01*
X4219Y820D01*
X4220Y814D01*
X4222Y809D01*
X4225Y806D01*
X4228Y805D01*
G01X4225Y818D02*
X4221Y805D01*
G01X4209Y826D02*
X4206Y832D01*
X4204Y835D01*
X4202Y837D01*
X4200Y835D01*
X4198Y832D01*
X4196Y827D01*
X4196Y821D01*
X4196Y816D01*
X4198Y811D01*
X4200Y807D01*
X4202Y805D01*
X4205Y807D01*
X4207Y812D01*
X4208Y819D01*
X4209Y828D01*
X4208Y838D01*
X4207Y844D01*
X4206Y850D01*
X4203Y854D01*
X4201Y855D01*
X4198Y853D01*
X4197Y849D01*
G01X4438Y2135D02*
X4431D01*
Y2120D01*
X4433Y2115D01*
X4436Y2112D01*
X4439Y2110D01*
X4442Y2112D01*
X4445Y2115D01*
X4447Y2120D01*
X4448Y2126D01*
X4449Y2132D01*
Y2138D01*
X4448Y2143D01*
X4447Y2149D01*
X4445Y2154D01*
X4443Y2158D01*
X4440Y2160D01*
X4438D01*
X4435Y2158D01*
X4433Y2155D01*
G01X4423Y2110D02*
Y2160D01*
X4407Y2110D01*
Y2160D01*
G01X4397Y2110D02*
Y2160D01*
X4391D01*
X4388Y2158D01*
X4386Y2154D01*
X4384Y2149D01*
X4383Y2143D01*
X4383Y2135D01*
X4383Y2127D01*
X4384Y2121D01*
X4386Y2116D01*
X4388Y2112D01*
X4391Y2110D01*
X4397D01*
G01X4372Y2118D02*
X4370Y2113D01*
X4368Y2111D01*
X4365Y2110D01*
X4362Y2112D01*
X4360Y2115D01*
X4358Y2121D01*
X4358Y2128D01*
X4358Y2134D01*
X4360Y2138D01*
X4362Y2142D01*
X4365Y2142D01*
X4367Y2142D01*
X4370Y2138D01*
X4369Y2160D01*
X4360D01*
G01X4437Y2312D02*
X4434Y2308D01*
X4431Y2305D01*
X4429D01*
X4426Y2308D01*
X4424Y2312D01*
X4423Y2318D01*
X4424Y2323D01*
X4425Y2328D01*
X4428Y2332D01*
X4432Y2333D01*
X4435Y2337D01*
X4436Y2343D01*
X4435Y2348D01*
X4433Y2352D01*
X4431Y2355D01*
X4429D01*
X4426Y2353D01*
X4424Y2349D01*
G01X4398Y2351D02*
X4400Y2353D01*
X4402Y2355D01*
X4405D01*
X4408Y2352D01*
X4410Y2348D01*
X4412Y2343D01*
X4413Y2335D01*
X4413Y2328D01*
X4413Y2320D01*
X4412Y2315D01*
X4410Y2310D01*
X4407Y2307D01*
X4405Y2305D01*
X4403D01*
X4400Y2307D01*
X4398Y2309D01*
X4397Y2312D01*
G01X4387Y2355D02*
Y2305D01*
X4373D01*
G01X4437Y2215D02*
X4435Y2209D01*
X4433Y2206D01*
X4430Y2205D01*
X4427Y2206D01*
X4424Y2210D01*
X4423Y2215D01*
X4422Y2220D01*
X4423Y2226D01*
X4425Y2230D01*
X4428Y2232D01*
X4431D01*
G01X4428D02*
X4426Y2234D01*
X4424Y2238D01*
X4423Y2243D01*
X4424Y2248D01*
X4426Y2252D01*
X4429Y2255D01*
X4432Y2254D01*
X4435Y2251D01*
G01X4413Y2255D02*
X4405Y2205D01*
X4397Y2255D01*
G01X4387Y2215D02*
X4385Y2209D01*
X4383Y2206D01*
X4380Y2205D01*
X4377Y2206D01*
X4374Y2210D01*
X4373Y2215D01*
X4372Y2220D01*
X4373Y2226D01*
X4375Y2230D01*
X4378Y2232D01*
X4381D01*
G01X4378D02*
X4376Y2234D01*
X4374Y2238D01*
X4373Y2243D01*
X4374Y2248D01*
X4376Y2252D01*
X4379Y2255D01*
X4382Y2254D01*
X4385Y2251D01*
G01X4437Y2412D02*
X4434Y2408D01*
X4431Y2405D01*
X4429D01*
X4426Y2408D01*
X4424Y2412D01*
X4423Y2418D01*
X4424Y2423D01*
X4425Y2428D01*
X4428Y2432D01*
X4432Y2433D01*
X4435Y2437D01*
X4436Y2442D01*
X4435Y2448D01*
X4433Y2452D01*
X4431Y2455D01*
X4429D01*
X4426Y2453D01*
X4424Y2449D01*
G01X4412Y2405D02*
Y2455D01*
X4406D01*
X4403Y2452D01*
X4401Y2449D01*
X4399Y2444D01*
X4398Y2438D01*
X4398Y2430D01*
X4398Y2422D01*
X4399Y2416D01*
X4401Y2411D01*
X4403Y2408D01*
X4406Y2405D01*
X4412D01*
G01X4388D02*
X4380Y2455D01*
X4372Y2405D01*
G01X4375Y2422D02*
X4385D01*
G01X4947Y1027D02*
X4946Y1029D01*
X4945Y1033D01*
X4944Y1039D01*
X4945Y1044D01*
X4946Y1048D01*
X4949Y1050D01*
X4958D01*
Y1000D01*
X4947D01*
X4944Y1003D01*
X4943Y1008D01*
X4942Y1014D01*
X4943Y1020D01*
X4945Y1025D01*
X4947Y1027D01*
X4958D01*
G01X4918Y1046D02*
X4920Y1048D01*
X4922Y1050D01*
X4925D01*
X4928Y1048D01*
X4930Y1043D01*
X4932Y1038D01*
X4933Y1030D01*
X4933Y1022D01*
X4933Y1015D01*
X4932Y1010D01*
X4930Y1005D01*
X4927Y1002D01*
X4925Y1000D01*
X4923D01*
X4920Y1002D01*
X4918Y1004D01*
X4917Y1008D01*
G01X4896Y1000D02*
Y1050D01*
X4908Y1014D01*
X4892D01*
G01X4871Y1000D02*
Y1050D01*
X4883Y1014D01*
X4867D01*
G01X4817Y957D02*
X4816Y959D01*
X4815Y963D01*
X4814Y969D01*
X4815Y974D01*
X4816Y978D01*
X4819Y980D01*
X4828D01*
Y930D01*
X4817D01*
X4814Y933D01*
X4813Y938D01*
X4812Y944D01*
X4813Y950D01*
X4815Y955D01*
X4817Y957D01*
X4828D01*
G01X4788Y976D02*
X4790Y978D01*
X4792Y980D01*
X4795D01*
X4798Y978D01*
X4800Y973D01*
X4802Y968D01*
X4803Y960D01*
X4803Y952D01*
X4803Y945D01*
X4802Y940D01*
X4800Y935D01*
X4797Y932D01*
X4795Y930D01*
X4793D01*
X4790Y932D01*
X4788Y934D01*
X4787Y938D01*
G01X4777Y940D02*
X4775Y934D01*
X4773Y931D01*
X4770Y930D01*
X4767Y931D01*
X4764Y935D01*
X4763Y940D01*
X4762Y945D01*
X4763Y951D01*
X4765Y955D01*
X4768Y957D01*
X4771D01*
G01X4768D02*
X4766Y959D01*
X4764Y963D01*
X4763Y968D01*
X4764Y973D01*
X4766Y978D01*
X4769Y980D01*
X4772Y979D01*
X4775Y976D01*
G01X4752Y938D02*
X4750Y933D01*
X4748Y931D01*
X4745Y930D01*
X4742Y932D01*
X4740Y935D01*
X4738Y941D01*
X4738Y948D01*
X4738Y954D01*
X4740Y958D01*
X4742Y962D01*
X4745Y962D01*
X4747Y962D01*
X4750Y958D01*
X4749Y980D01*
X4740D01*
G01X4817Y887D02*
X4816Y889D01*
X4815Y893D01*
X4814Y899D01*
X4815Y904D01*
X4816Y908D01*
X4819Y910D01*
X4828D01*
Y860D01*
X4817D01*
X4814Y863D01*
X4813Y868D01*
X4812Y874D01*
X4813Y880D01*
X4815Y885D01*
X4817Y887D01*
X4828D01*
G01X4788Y906D02*
X4790Y908D01*
X4792Y910D01*
X4795D01*
X4798Y908D01*
X4800Y903D01*
X4802Y898D01*
X4803Y890D01*
X4803Y883D01*
X4803Y875D01*
X4802Y870D01*
X4800Y865D01*
X4797Y862D01*
X4795Y860D01*
X4793D01*
X4790Y862D01*
X4788Y864D01*
X4787Y868D01*
G01X4777Y870D02*
X4775Y864D01*
X4773Y861D01*
X4770Y860D01*
X4767Y861D01*
X4764Y865D01*
X4763Y870D01*
X4762Y875D01*
X4763Y881D01*
X4765Y885D01*
X4768Y887D01*
X4771D01*
G01X4768D02*
X4766Y889D01*
X4764Y893D01*
X4763Y898D01*
X4764Y903D01*
X4766Y908D01*
X4769Y910D01*
X4772Y909D01*
X4775Y906D01*
G01X4745Y860D02*
X4743Y861D01*
X4740Y863D01*
X4738Y868D01*
X4738Y873D01*
X4738Y879D01*
X4740Y884D01*
X4743Y887D01*
X4747D01*
X4749Y888D01*
X4750Y893D01*
X4751Y898D01*
X4750Y904D01*
X4748Y908D01*
X4745Y910D01*
X4742Y908D01*
X4740Y904D01*
X4739Y898D01*
X4740Y893D01*
X4741Y888D01*
X4743Y887D01*
X4747D01*
X4750Y884D01*
X4752Y879D01*
X4752Y873D01*
X4752Y868D01*
X4750Y863D01*
X4747Y861D01*
X4745Y860D01*
G01X4947Y1117D02*
X4946Y1119D01*
X4945Y1123D01*
X4944Y1129D01*
X4945Y1134D01*
X4946Y1138D01*
X4949Y1140D01*
X4958D01*
Y1090D01*
X4947D01*
X4944Y1093D01*
X4943Y1098D01*
X4942Y1104D01*
X4943Y1110D01*
X4945Y1115D01*
X4947Y1117D01*
X4958D01*
G01X4918Y1136D02*
X4920Y1138D01*
X4922Y1140D01*
X4925D01*
X4928Y1138D01*
X4930Y1133D01*
X4932Y1128D01*
X4933Y1120D01*
X4933Y1112D01*
X4933Y1105D01*
X4932Y1100D01*
X4930Y1095D01*
X4927Y1092D01*
X4925Y1090D01*
X4923D01*
X4920Y1092D01*
X4918Y1094D01*
X4917Y1098D01*
G01X4896Y1090D02*
Y1140D01*
X4908Y1104D01*
X4892D01*
G01X4875Y1090D02*
Y1140D01*
X4879Y1130D01*
G01Y1090D02*
X4871D01*
G01X4817Y1317D02*
X4816Y1319D01*
X4815Y1323D01*
X4814Y1329D01*
X4815Y1334D01*
X4816Y1338D01*
X4819Y1340D01*
X4828D01*
Y1290D01*
X4817D01*
X4814Y1293D01*
X4813Y1298D01*
X4812Y1304D01*
X4813Y1310D01*
X4815Y1315D01*
X4817Y1317D01*
X4828D01*
G01X4788Y1336D02*
X4790Y1338D01*
X4792Y1340D01*
X4795D01*
X4798Y1338D01*
X4800Y1333D01*
X4802Y1328D01*
X4803Y1320D01*
X4803Y1312D01*
X4803Y1305D01*
X4802Y1300D01*
X4800Y1295D01*
X4797Y1292D01*
X4795Y1290D01*
X4793D01*
X4790Y1292D01*
X4788Y1294D01*
X4787Y1298D01*
G01X4777Y1300D02*
X4775Y1294D01*
X4773Y1291D01*
X4770Y1290D01*
X4767Y1291D01*
X4764Y1295D01*
X4763Y1300D01*
X4762Y1305D01*
X4763Y1311D01*
X4765Y1315D01*
X4768Y1317D01*
X4771D01*
G01X4768D02*
X4766Y1319D01*
X4764Y1323D01*
X4763Y1328D01*
X4764Y1333D01*
X4766Y1338D01*
X4769Y1340D01*
X4772Y1339D01*
X4775Y1336D01*
G01X4741Y1290D02*
Y1340D01*
X4753Y1304D01*
X4737D01*
G01X4817Y1197D02*
X4816Y1199D01*
X4815Y1203D01*
X4814Y1209D01*
X4815Y1214D01*
X4816Y1218D01*
X4819Y1220D01*
X4828D01*
Y1170D01*
X4817D01*
X4814Y1173D01*
X4813Y1178D01*
X4812Y1184D01*
X4813Y1190D01*
X4815Y1195D01*
X4817Y1197D01*
X4828D01*
G01X4788Y1216D02*
X4790Y1218D01*
X4792Y1220D01*
X4795D01*
X4798Y1218D01*
X4800Y1213D01*
X4802Y1208D01*
X4803Y1200D01*
X4803Y1193D01*
X4803Y1185D01*
X4802Y1180D01*
X4800Y1175D01*
X4797Y1172D01*
X4795Y1170D01*
X4793D01*
X4790Y1172D01*
X4788Y1174D01*
X4787Y1178D01*
G01X4777Y1180D02*
X4775Y1174D01*
X4773Y1171D01*
X4770Y1170D01*
X4767Y1171D01*
X4764Y1175D01*
X4763Y1180D01*
X4762Y1185D01*
X4763Y1191D01*
X4765Y1195D01*
X4768Y1197D01*
X4771D01*
G01X4768D02*
X4766Y1199D01*
X4764Y1203D01*
X4763Y1208D01*
X4764Y1213D01*
X4766Y1218D01*
X4769Y1220D01*
X4772Y1219D01*
X4775Y1216D01*
G01X4746Y1170D02*
X4745Y1181D01*
X4744Y1190D01*
X4743Y1198D01*
X4741Y1208D01*
X4738Y1220D01*
X4752D01*
G01X4743Y1616D02*
X4745Y1618D01*
X4747Y1620D01*
X4750D01*
X4753Y1618D01*
X4755Y1613D01*
X4757Y1608D01*
X4758Y1600D01*
X4758Y1592D01*
X4758Y1585D01*
X4757Y1580D01*
X4755Y1575D01*
X4752Y1572D01*
X4750Y1570D01*
X4748D01*
X4745Y1572D01*
X4743Y1574D01*
X4742Y1578D01*
G01X4731Y1591D02*
X4729Y1597D01*
X4727Y1600D01*
X4724Y1602D01*
X4722Y1600D01*
X4720Y1597D01*
X4719Y1592D01*
X4719Y1586D01*
X4719Y1581D01*
X4720Y1576D01*
X4722Y1572D01*
X4725Y1570D01*
X4727Y1572D01*
X4730Y1577D01*
X4731Y1584D01*
X4731Y1592D01*
X4731Y1603D01*
X4730Y1609D01*
X4728Y1615D01*
X4726Y1619D01*
X4723Y1620D01*
X4721Y1618D01*
X4719Y1614D01*
G01X4947Y1487D02*
X4946Y1489D01*
X4945Y1493D01*
X4944Y1499D01*
X4945Y1504D01*
X4946Y1508D01*
X4949Y1510D01*
X4958D01*
Y1460D01*
X4947D01*
X4944Y1463D01*
X4943Y1468D01*
X4942Y1474D01*
X4943Y1480D01*
X4945Y1485D01*
X4947Y1487D01*
X4958D01*
G01X4918Y1506D02*
X4920Y1508D01*
X4922Y1510D01*
X4925D01*
X4928Y1508D01*
X4930Y1503D01*
X4932Y1498D01*
X4933Y1490D01*
X4933Y1482D01*
X4933Y1475D01*
X4932Y1470D01*
X4930Y1465D01*
X4927Y1462D01*
X4925Y1460D01*
X4923D01*
X4920Y1462D01*
X4918Y1464D01*
X4917Y1468D01*
G01X4896Y1460D02*
Y1510D01*
X4908Y1474D01*
X4892D01*
G01X4882Y1470D02*
X4880Y1464D01*
X4878Y1461D01*
X4875Y1460D01*
X4872Y1461D01*
X4869Y1465D01*
X4868Y1470D01*
X4867Y1475D01*
X4868Y1481D01*
X4870Y1485D01*
X4873Y1487D01*
X4876D01*
G01X4873D02*
X4871Y1489D01*
X4869Y1493D01*
X4868Y1498D01*
X4869Y1503D01*
X4871Y1508D01*
X4874Y1510D01*
X4877Y1509D01*
X4880Y1506D01*
G01X4817Y1747D02*
X4816Y1749D01*
X4815Y1753D01*
X4814Y1759D01*
X4815Y1764D01*
X4816Y1768D01*
X4819Y1770D01*
X4828D01*
Y1720D01*
X4817D01*
X4814Y1723D01*
X4813Y1728D01*
X4812Y1734D01*
X4813Y1740D01*
X4815Y1745D01*
X4817Y1747D01*
X4828D01*
G01X4788Y1766D02*
X4790Y1768D01*
X4792Y1770D01*
X4795D01*
X4798Y1768D01*
X4800Y1763D01*
X4802Y1758D01*
X4803Y1750D01*
X4803Y1742D01*
X4803Y1735D01*
X4802Y1730D01*
X4800Y1725D01*
X4797Y1722D01*
X4795Y1720D01*
X4793D01*
X4790Y1722D01*
X4788Y1724D01*
X4787Y1728D01*
G01X4777Y1730D02*
X4775Y1724D01*
X4773Y1721D01*
X4770Y1720D01*
X4767Y1721D01*
X4764Y1725D01*
X4763Y1730D01*
X4762Y1735D01*
X4763Y1741D01*
X4765Y1745D01*
X4768Y1747D01*
X4771D01*
G01X4768D02*
X4766Y1749D01*
X4764Y1753D01*
X4763Y1758D01*
X4764Y1763D01*
X4766Y1768D01*
X4769Y1770D01*
X4772Y1769D01*
X4775Y1766D01*
G01X4751Y1741D02*
X4749Y1747D01*
X4747Y1750D01*
X4744Y1752D01*
X4742Y1750D01*
X4740Y1747D01*
X4739Y1742D01*
X4739Y1736D01*
X4739Y1731D01*
X4740Y1726D01*
X4742Y1722D01*
X4745Y1720D01*
X4747Y1722D01*
X4750Y1727D01*
X4751Y1734D01*
X4751Y1742D01*
X4751Y1753D01*
X4750Y1759D01*
X4748Y1765D01*
X4746Y1769D01*
X4743Y1770D01*
X4741Y1768D01*
X4739Y1764D01*
G01X4947Y2037D02*
X4946Y2039D01*
X4945Y2043D01*
X4944Y2049D01*
X4945Y2054D01*
X4946Y2058D01*
X4949Y2060D01*
X4958D01*
Y2010D01*
X4947D01*
X4944Y2013D01*
X4943Y2018D01*
X4942Y2024D01*
X4943Y2030D01*
X4945Y2035D01*
X4947Y2037D01*
X4958D01*
G01X4918Y2056D02*
X4920Y2058D01*
X4922Y2060D01*
X4925D01*
X4928Y2058D01*
X4930Y2053D01*
X4932Y2048D01*
X4933Y2040D01*
X4933Y2033D01*
X4933Y2025D01*
X4932Y2020D01*
X4930Y2015D01*
X4927Y2012D01*
X4925Y2010D01*
X4923D01*
X4920Y2012D01*
X4918Y2014D01*
X4917Y2018D01*
G01X4896Y2010D02*
Y2060D01*
X4908Y2024D01*
X4892D01*
G01X4875Y2060D02*
X4878Y2058D01*
X4880Y2054D01*
X4881Y2049D01*
X4882Y2042D01*
X4882Y2035D01*
X4882Y2027D01*
X4881Y2021D01*
X4880Y2016D01*
X4878Y2012D01*
X4875Y2010D01*
X4872Y2012D01*
X4870Y2016D01*
X4869Y2021D01*
X4868Y2027D01*
X4868Y2035D01*
X4868Y2042D01*
X4869Y2049D01*
X4870Y2054D01*
X4872Y2058D01*
X4875Y2060D01*
G01X4817Y2117D02*
X4816Y2119D01*
X4815Y2123D01*
X4814Y2129D01*
X4815Y2134D01*
X4816Y2138D01*
X4819Y2140D01*
X4828D01*
Y2090D01*
X4817D01*
X4814Y2093D01*
X4813Y2098D01*
X4812Y2104D01*
X4813Y2110D01*
X4815Y2115D01*
X4817Y2117D01*
X4828D01*
G01X4788Y2136D02*
X4790Y2138D01*
X4792Y2140D01*
X4795D01*
X4798Y2138D01*
X4800Y2133D01*
X4802Y2128D01*
X4803Y2120D01*
X4803Y2112D01*
X4803Y2105D01*
X4802Y2100D01*
X4800Y2095D01*
X4797Y2092D01*
X4795Y2090D01*
X4793D01*
X4790Y2092D01*
X4788Y2094D01*
X4787Y2098D01*
G01X4777Y2100D02*
X4775Y2094D01*
X4773Y2091D01*
X4770Y2090D01*
X4767Y2091D01*
X4764Y2095D01*
X4763Y2100D01*
X4762Y2105D01*
X4763Y2111D01*
X4765Y2115D01*
X4768Y2117D01*
X4771D01*
G01X4768D02*
X4766Y2119D01*
X4764Y2123D01*
X4763Y2128D01*
X4764Y2133D01*
X4766Y2138D01*
X4769Y2140D01*
X4772Y2139D01*
X4775Y2136D01*
G01X4752Y2100D02*
X4750Y2094D01*
X4748Y2091D01*
X4745Y2090D01*
X4742Y2091D01*
X4739Y2095D01*
X4738Y2100D01*
X4737Y2105D01*
X4738Y2111D01*
X4740Y2115D01*
X4743Y2117D01*
X4746D01*
G01X4743D02*
X4741Y2119D01*
X4739Y2123D01*
X4738Y2128D01*
X4739Y2133D01*
X4741Y2138D01*
X4744Y2140D01*
X4747Y2139D01*
X4750Y2136D01*
G01X4947Y2287D02*
X4946Y2289D01*
X4945Y2293D01*
X4944Y2299D01*
X4945Y2304D01*
X4946Y2308D01*
X4949Y2310D01*
X4958D01*
Y2260D01*
X4947D01*
X4944Y2263D01*
X4943Y2268D01*
X4942Y2274D01*
X4943Y2280D01*
X4945Y2285D01*
X4947Y2287D01*
X4958D01*
G01X4918Y2306D02*
X4920Y2308D01*
X4922Y2310D01*
X4925D01*
X4928Y2308D01*
X4930Y2303D01*
X4932Y2298D01*
X4933Y2290D01*
X4933Y2282D01*
X4933Y2275D01*
X4932Y2270D01*
X4930Y2265D01*
X4927Y2262D01*
X4925Y2260D01*
X4923D01*
X4920Y2262D01*
X4918Y2264D01*
X4917Y2268D01*
G01X4896Y2260D02*
Y2310D01*
X4908Y2274D01*
X4892D01*
G01X4881Y2302D02*
X4879Y2307D01*
X4877Y2309D01*
X4874Y2310D01*
X4871Y2308D01*
X4869Y2304D01*
X4868Y2299D01*
X4868Y2294D01*
X4870Y2290D01*
X4876Y2282D01*
X4879Y2276D01*
X4881Y2268D01*
X4882Y2260D01*
X4868D01*
G01X4943Y2416D02*
X4945Y2418D01*
X4947Y2420D01*
X4950D01*
X4953Y2418D01*
X4955Y2413D01*
X4957Y2408D01*
X4958Y2400D01*
X4958Y2392D01*
X4958Y2385D01*
X4957Y2380D01*
X4955Y2375D01*
X4952Y2372D01*
X4950Y2370D01*
X4948D01*
X4945Y2372D01*
X4943Y2374D01*
X4942Y2378D01*
G01X4926Y2370D02*
X4925Y2381D01*
X4924Y2390D01*
X4923Y2398D01*
X4921Y2408D01*
X4918Y2420D01*
X4932D01*
G01X4947Y2497D02*
X4946Y2499D01*
X4945Y2503D01*
X4944Y2509D01*
X4945Y2514D01*
X4946Y2518D01*
X4949Y2520D01*
X4958D01*
Y2470D01*
X4947D01*
X4944Y2473D01*
X4943Y2478D01*
X4942Y2484D01*
X4943Y2490D01*
X4945Y2495D01*
X4947Y2497D01*
X4958D01*
G01X4918Y2516D02*
X4920Y2518D01*
X4922Y2520D01*
X4925D01*
X4928Y2518D01*
X4930Y2513D01*
X4932Y2508D01*
X4933Y2500D01*
X4933Y2492D01*
X4933Y2485D01*
X4932Y2480D01*
X4930Y2475D01*
X4927Y2472D01*
X4925Y2470D01*
X4923D01*
X4920Y2472D01*
X4918Y2474D01*
X4917Y2478D01*
G01X4907Y2480D02*
X4905Y2474D01*
X4903Y2471D01*
X4900Y2470D01*
X4897Y2471D01*
X4894Y2475D01*
X4893Y2480D01*
X4892Y2485D01*
X4893Y2491D01*
X4895Y2495D01*
X4898Y2497D01*
X4901D01*
G01X4898D02*
X4896Y2499D01*
X4894Y2503D01*
X4893Y2508D01*
X4894Y2513D01*
X4896Y2518D01*
X4899Y2520D01*
X4902Y2519D01*
X4905Y2516D01*
G01X4881Y2476D02*
X4878Y2472D01*
X4876Y2470D01*
X4873Y2472D01*
X4871Y2477D01*
X4869Y2484D01*
X4868Y2492D01*
Y2501D01*
X4869Y2508D01*
X4871Y2515D01*
X4873Y2518D01*
X4875Y2520D01*
X4878Y2518D01*
X4880Y2515D01*
X4881Y2510D01*
X4882Y2503D01*
X4881Y2498D01*
X4879Y2492D01*
X4877Y2488D01*
X4875Y2488D01*
X4872Y2489D01*
X4870Y2493D01*
X4868Y2501D01*
G54D12*
G01X173Y1443D02*
X268D01*
X278Y1432D01*
Y1398D01*
X268Y1388D01*
X173D01*
X162Y1398D01*
Y1432D01*
X173Y1443D01*
G01Y1378D02*
X268D01*
X278Y1368D01*
Y1332D01*
X268Y1322D01*
X173D01*
X162Y1332D01*
Y1368D01*
X173Y1378D01*
G01Y1312D02*
X268D01*
G01Y1258D02*
X173D01*
G01Y1312D02*
G03Y1258I33J-28D01*
G01Y1508D02*
X268D01*
X278Y1498D01*
Y1463D01*
X268Y1453D01*
X173D01*
X162Y1463D01*
Y1498D01*
X173Y1508D01*
G01Y1572D02*
X268D01*
G01Y1518D02*
X173D01*
G01Y1572D02*
G03Y1518I33J-28D01*
G01X220Y1415D02*
G02Y1388I-16J-14D01*
G01Y1378D02*
G03Y1350I16J-14D01*
G01D02*
G02Y1322I-16J-14D01*
G01X268Y1312D02*
G02Y1258I-33J-28D01*
G01X220Y1305D02*
Y1265D01*
G01Y1443D02*
G03Y1415I16J-14D01*
G01Y1508D02*
G03Y1480I16J-14D01*
G01D02*
G02Y1453I-16J-14D01*
G01X268Y1572D02*
G02Y1518I-33J-28D01*
G01X220Y1565D02*
Y1525D01*
G01X575Y385D02*
X695D01*
Y520D01*
X680Y535D01*
X575D01*
Y385D01*
G01X588Y772D02*
X682D01*
G01Y718D02*
X588D01*
G01Y772D02*
G03Y718I33J-27D01*
G01X682Y772D02*
G02Y718I-33J-27D01*
G01X635Y765D02*
Y725D01*
G01X575Y550D02*
X695D01*
Y685D01*
X680Y700D01*
X575D01*
Y550D01*
G01X652Y1092D02*
X748D01*
G01Y1038D02*
X652D01*
G01Y1092D02*
G03Y1038I33J-28D01*
G01X748Y1092D02*
G02Y1038I-33J-28D01*
G01X700Y1085D02*
Y1045D01*
G01X900Y2630D02*
X800D01*
Y2530D01*
X900D01*
Y2630D01*
G01X1050Y630D02*
Y670D01*
G01X1108Y622D02*
X992D01*
Y678D01*
X1108D01*
Y622D01*
G01X1098Y748D02*
X1002D01*
G01Y802D02*
X1098D01*
G01Y748D02*
G03Y802I-33J27D01*
G01X1002Y748D02*
G02Y802I33J27D01*
G01X1050Y755D02*
Y795D01*
G01X1098Y1042D02*
X1002D01*
G01Y1098D02*
X1098D01*
G01Y1042D02*
G03Y1098I-33J28D01*
G01X1002Y1042D02*
G02Y1098I33J28D01*
G01X1050Y1050D02*
Y1090D01*
G01X920Y2265D02*
Y2225D01*
G01X862Y2272D02*
X978D01*
Y2218D01*
X862D01*
Y2272D01*
G01X968Y2282D02*
X872D01*
G01Y2338D02*
G03Y2282I33J-27D01*
G01X968Y2338D02*
G02Y2282I-33J-27D01*
G01X920Y2330D02*
Y2290D01*
G01X872Y2208D02*
X968D01*
G01Y2152D02*
X872D01*
G01Y2208D02*
G03Y2152I33J-27D01*
G01X968Y2208D02*
G02Y2152I-33J-27D01*
G01X920Y2200D02*
Y2160D01*
G01X1000Y2630D02*
X900D01*
Y2530D01*
X1000D01*
Y2630D01*
G01X872Y2338D02*
X968D01*
G01X872Y2402D02*
X968D01*
G01Y2348D02*
X872D01*
G01Y2402D02*
G03Y2348I33J-27D01*
G01X968Y2402D02*
G02Y2348I-33J-27D01*
G01X920Y2395D02*
Y2355D01*
G01X910Y2985D02*
Y3055D01*
G01X818Y3065D02*
Y2975D01*
X1002D01*
Y3065D01*
X818D01*
G01X1338Y622D02*
X1242D01*
G01Y678D02*
X1338D01*
G01Y622D02*
G03Y678I-33J27D01*
G01X1242Y622D02*
G02Y678I33J27D01*
G01X1290Y630D02*
Y670D01*
G01X1218Y622D02*
X1122D01*
G01Y678D02*
X1218D01*
G01Y622D02*
G03Y678I-33J27D01*
G01X1122Y622D02*
G02Y678I33J27D01*
G01X1170Y630D02*
Y670D01*
G01X1362Y678D02*
X1458D01*
G01Y622D02*
X1362D01*
G01Y678D02*
G03Y622I33J-27D01*
G01Y962D02*
X1458D01*
G01Y908D02*
X1362D01*
G01Y962D02*
G03Y908I33J-27D01*
G01X1390Y2290D02*
Y2330D01*
G01X1448Y2282D02*
X1332D01*
Y2338D01*
X1448D01*
Y2282D01*
G01X1438Y2152D02*
X1342D01*
G01Y2208D02*
X1438D01*
G01X1342Y2152D02*
G02Y2208I33J28D01*
G01X1390Y2160D02*
Y2200D01*
G01X1438Y2218D02*
X1342D01*
G01Y2272D02*
X1438D01*
G01X1342Y2218D02*
G02Y2272I33J27D01*
G01X1390Y2225D02*
Y2265D01*
G01X1400Y3870D02*
X1440D01*
G01X1392Y3812D02*
Y3928D01*
X1448D01*
Y3812D01*
X1392D01*
G01X1330Y3870D02*
X1370D01*
G01X1322Y3812D02*
Y3928D01*
X1378D01*
Y3812D01*
X1322D01*
G01X1308Y3918D02*
Y3823D01*
G01X1252D02*
Y3918D01*
G01X1308D02*
G03X1252I-28J-33D01*
G01X1308Y3823D02*
G02X1252I-28J33D01*
G01X1300Y3870D02*
X1260D01*
G01X1708Y678D02*
G03Y622I33J-27D01*
G01X1458Y678D02*
G02Y622I-33J-27D01*
G01X1410Y670D02*
Y630D01*
G01X1458Y962D02*
G02Y908I-33J-27D01*
G01X1410Y955D02*
Y915D01*
G01X1708Y1138D02*
G03Y1082I33J-27D01*
G01Y1062D02*
G03Y1008I33J-28D01*
G01X1675Y1375D02*
X1575D01*
Y1275D01*
X1675D01*
Y1375D01*
G01Y1275D02*
X1575D01*
Y1175D01*
X1675D01*
Y1275D01*
G01X1708Y1298D02*
G03Y1242I33J-28D01*
G01Y1532D02*
G03Y1478I33J-27D01*
G01Y1468D02*
G03Y1412I33J-28D01*
G01X1438Y2152D02*
G03Y2208I-33J28D01*
G01Y2218D02*
G03Y2272I-33J27D01*
G01X1600Y3480D02*
Y3440D01*
G01X1542Y3488D02*
X1658D01*
Y3432D01*
X1542D01*
Y3488D01*
G01X1648Y3502D02*
X1552D01*
G01Y3558D02*
G03Y3502I33J-27D01*
G01X1648Y3558D02*
G02Y3502I-33J-27D01*
G01X1552Y3288D02*
X1648D01*
G01Y3232D02*
X1552D01*
G01Y3288D02*
G03Y3232I33J-27D01*
G01X1648Y3288D02*
G02Y3232I-33J-27D01*
G01X1600Y3280D02*
Y3240D01*
G01Y3790D02*
Y3750D01*
G01X1542Y3798D02*
X1658D01*
Y3742D01*
X1542D01*
Y3798D01*
G01X1600Y3710D02*
Y3670D01*
G01X1542Y3718D02*
X1658D01*
Y3662D01*
X1542D01*
Y3718D01*
G01X1600Y3620D02*
Y3580D01*
G01X1542Y3628D02*
X1658D01*
Y3573D01*
X1542D01*
Y3628D01*
G01X1552Y3558D02*
X1648D01*
G01X1600Y3550D02*
Y3510D01*
G01X1463Y3823D02*
Y3918D01*
G01X1518D02*
Y3823D01*
G01X1463D02*
G03X1518I27J33D01*
G01X1463Y3918D02*
G02X1518I27J-33D01*
G01X1470Y3870D02*
X1510D01*
G01X1708Y678D02*
X1802D01*
G01Y622D02*
X1708D01*
G01X1802Y678D02*
G02Y622I-33J-27D01*
G01X1755Y670D02*
Y630D01*
G01X1802Y1082D02*
X1708D01*
G01X1802Y1138D02*
G02Y1082I-33J-27D01*
G01X1755Y1130D02*
Y1090D01*
G01X1708Y1062D02*
X1802D01*
G01Y1008D02*
X1708D01*
G01X1802Y1062D02*
G02Y1008I-33J-28D01*
G01X1755Y1055D02*
Y1015D01*
G01X1708Y1298D02*
X1802D01*
G01Y1242D02*
X1708D01*
G01X1802Y1298D02*
G02Y1242I-33J-28D01*
G01X1755Y1290D02*
Y1250D01*
G01X1708Y1138D02*
X1802D01*
G01X1708Y1532D02*
X1802D01*
G01Y1478D02*
X1708D01*
G01X1802Y1532D02*
G02Y1478I-33J-27D01*
G01X1755Y1525D02*
Y1485D01*
G01X1708Y1468D02*
X1802D01*
G01Y1412D02*
X1708D01*
G01X1802Y1468D02*
G02Y1412I-33J-28D01*
G01X1755Y1460D02*
Y1420D01*
G01X1932Y2188D02*
X1838D01*
G01Y2242D02*
X1932D01*
G01Y2188D02*
G03Y2242I-33J27D01*
G01X1838Y2188D02*
G02Y2242I33J27D01*
G01X1885Y2195D02*
Y2235D01*
G01Y2455D02*
Y2495D01*
G01X1943Y2448D02*
X1828D01*
Y2502D01*
X1943D01*
Y2448D01*
G01X2240Y940D02*
X2200D01*
G01X2248Y998D02*
Y883D01*
X2192D01*
Y998D01*
X2248D01*
G01X2135Y940D02*
X2175D01*
G01X2128Y883D02*
Y998D01*
X2182D01*
Y883D01*
X2128D01*
G01X2248Y1118D02*
Y1022D01*
G01X2192D02*
Y1118D01*
G01X2248Y1022D02*
G02X2192I-27J33D01*
G01X2240Y1070D02*
X2200D01*
G01X2182Y1118D02*
Y1022D01*
G01X2128D02*
Y1118D01*
G01X2182Y1022D02*
G02X2128I-27J33D01*
G01X2175Y1070D02*
X2135D01*
G01X2142Y1218D02*
X2238D01*
G01Y1162D02*
X2142D01*
G01Y1218D02*
G03Y1162I33J-28D01*
G01X2238Y1218D02*
G02Y1162I-33J-28D01*
G01X2190Y1210D02*
Y1170D01*
G01X2248Y1118D02*
G03X2192I-27J-33D01*
G01X2182D02*
G03X2128I-27J-33D01*
G01X2142Y1368D02*
X2238D01*
G01Y1312D02*
X2142D01*
G01Y1368D02*
G03Y1312I33J-27D01*
G01X2238Y1368D02*
G02Y1312I-33J-27D01*
G01X2190Y1360D02*
Y1320D01*
G01X2110Y2040D02*
Y2000D01*
G01X2052Y2047D02*
X2168D01*
Y1992D01*
X2052D01*
Y2047D01*
G01X2595Y795D02*
G03X2715I60J175D01*
G01Y925D01*
G01X2595Y795D02*
Y925D01*
G01Y585D02*
G03X2715I60J175D01*
G01Y715D01*
G01X2595D02*
G02X2715I60J-175D01*
G01X2595Y585D02*
Y715D01*
G01X2570Y560D02*
X2450D01*
Y740D01*
G01D02*
X2555D01*
X2570Y725D01*
Y560D01*
G01Y770D02*
X2450D01*
Y950D01*
G01D02*
X2555D01*
X2570Y935D01*
Y770D01*
G01X2595Y1005D02*
G03X2715I60J175D01*
G01Y1135D01*
G01X2595Y1005D02*
Y1135D01*
G01Y925D02*
G02X2715I60J-175D01*
G01X2570Y980D02*
X2450D01*
Y1160D01*
G01D02*
X2555D01*
X2570Y1145D01*
Y980D01*
G01X2595Y1135D02*
G02X2715I60J-175D01*
G01X2595Y1215D02*
G03X2715I60J175D01*
G01Y1345D01*
G01X2595D02*
G02X2715I60J-175D01*
G01X2595Y1215D02*
Y1345D01*
G01X2570Y1398D02*
X2450D01*
Y1578D01*
G01D02*
X2555D01*
X2570Y1562D01*
Y1398D01*
G01Y1190D02*
X2450D01*
Y1370D01*
G01D02*
X2555D01*
X2570Y1355D01*
Y1190D01*
G01X2595Y1425D02*
G03X2715I60J175D01*
G01Y1555D01*
G01X2595D02*
G02X2715I60J-175D01*
G01X2595Y1425D02*
Y1555D01*
G01X2480Y2000D02*
Y2040D01*
G01X2538Y1992D02*
X2422D01*
Y2047D01*
X2538D01*
Y1992D01*
G01X2480Y2130D02*
Y2170D01*
G01X2538Y2122D02*
X2422D01*
Y2178D01*
X2538D01*
Y2122D01*
G01X2480Y2300D02*
Y2260D01*
G01X2422Y2308D02*
X2538D01*
Y2252D01*
X2422D01*
Y2308D01*
G01X2480Y2065D02*
Y2105D01*
G01X2538Y2058D02*
X2422D01*
Y2112D01*
X2538D01*
Y2058D01*
G01X2480Y2390D02*
Y2430D01*
G01X2538Y2382D02*
X2422D01*
Y2438D01*
X2538D01*
Y2382D01*
G01X2885Y2125D02*
Y2085D01*
G01X2828Y2132D02*
X2942D01*
Y2078D01*
X2828D01*
Y2132D01*
G01X2885Y2450D02*
Y2410D01*
G01X2828Y2458D02*
X2942D01*
Y2402D01*
X2828D01*
Y2458D01*
G01X2840Y3020D02*
X2740D01*
Y2920D01*
X2840D01*
Y3020D01*
G01X2940D02*
X2840D01*
Y2920D01*
X2940D01*
Y3020D01*
G01X3573Y782D02*
X3568Y793D01*
X3564Y800D01*
X3559Y803D01*
X3554Y800D01*
X3551Y793D01*
X3548Y783D01*
X3547Y772D01*
X3548Y762D01*
X3551Y752D01*
X3555Y743D01*
X3559Y740D01*
X3565Y743D01*
X3569Y753D01*
X3572Y768D01*
X3573Y785D01*
X3571Y807D01*
X3569Y818D01*
X3566Y830D01*
X3561Y838D01*
X3557Y840D01*
X3552Y837D01*
X3549Y828D01*
G01X3525Y807D02*
X3505Y740D01*
G01Y807D02*
X3525Y740D01*
G01X3480Y807D02*
X3460Y740D01*
G01Y807D02*
X3480Y740D01*
G01X3434Y773D02*
X3416D01*
G01X3372Y740D02*
Y840D01*
X3397Y768D01*
X3363D01*
G01X3335Y740D02*
Y840D01*
X3343Y820D01*
G01Y740D02*
X3327D01*
G01X3305Y760D02*
X3301Y748D01*
X3295Y742D01*
X3289Y740D01*
X3284Y742D01*
X3279Y750D01*
X3275Y760D01*
X3275Y770D01*
X3276Y782D01*
X3281Y790D01*
X3285Y793D01*
X3291D01*
G01X3285D02*
X3281Y798D01*
X3278Y807D01*
X3277Y817D01*
X3278Y827D01*
X3281Y835D01*
X3287Y840D01*
X3293Y838D01*
X3299Y832D01*
G01X3260Y760D02*
X3256Y748D01*
X3250Y742D01*
X3244Y740D01*
X3239Y742D01*
X3234Y750D01*
X3230Y760D01*
X3230Y770D01*
X3231Y782D01*
X3236Y790D01*
X3240Y793D01*
X3246D01*
G01X3240D02*
X3236Y798D01*
X3233Y807D01*
X3232Y817D01*
X3233Y827D01*
X3236Y835D01*
X3242Y840D01*
X3248Y838D01*
X3254Y832D01*
G01X3215Y760D02*
X3211Y748D01*
X3205Y742D01*
X3199Y740D01*
X3194Y742D01*
X3189Y750D01*
X3185Y760D01*
X3185Y770D01*
X3186Y782D01*
X3191Y790D01*
X3195Y793D01*
X3201D01*
G01X3195D02*
X3191Y798D01*
X3188Y807D01*
X3187Y817D01*
X3188Y827D01*
X3191Y835D01*
X3197Y840D01*
X3203Y838D01*
X3209Y832D01*
G01X3168Y740D02*
Y840D01*
X3152D01*
X3146Y835D01*
X3143Y828D01*
X3142Y815D01*
X3143Y802D01*
X3147Y793D01*
X3152Y788D01*
X3168D01*
G01X3152D02*
X3142Y740D01*
G01X3119Y773D02*
X3101D01*
G01X3065Y840D02*
X3070Y837D01*
X3074Y828D01*
X3077Y818D01*
X3079Y805D01*
X3080Y790D01*
X3079Y775D01*
X3077Y762D01*
X3074Y752D01*
X3070Y743D01*
X3065Y740D01*
X3060Y743D01*
X3056Y752D01*
X3053Y762D01*
X3051Y775D01*
X3050Y790D01*
X3051Y805D01*
X3053Y818D01*
X3056Y828D01*
X3060Y837D01*
X3065Y840D01*
G01X3037Y740D02*
X3020Y840D01*
X3003Y740D01*
G01X3009Y775D02*
X3031D01*
G01X3097Y1356D02*
X3164Y1423D01*
G01X3203Y1384D02*
X3136Y1317D01*
G01X3097Y1356D02*
G03X3136Y1317I43J4D01*
G01X3164Y1423D02*
G02X3203Y1384I-4J-43D01*
G01X3136D02*
X3164Y1356D01*
G01X3147Y1306D02*
X3214Y1373D01*
G01X3253Y1334D02*
X3186Y1267D01*
G01X3147Y1306D02*
G03X3186Y1267I43J4D01*
G01Y1334D02*
X3214Y1306D01*
G01X3475Y620D02*
Y500D01*
X3610D01*
X3625Y515D01*
Y620D01*
X3475D01*
G01X3486Y1332D02*
X3518Y1300D01*
G01X3465Y1310D02*
G03X3496Y1279I29J-2D01*
G01X3508Y1353D02*
X3465Y1310D01*
G01X3496Y1279D02*
X3539Y1322D01*
G01X3431Y1387D02*
X3463Y1355D01*
G01X3453Y1408D02*
G02X3484Y1377I2J-29D01*
G01X3410Y1365D02*
G03X3441Y1334I29J-2D01*
G01X3453Y1408D02*
X3410Y1365D01*
G01X3441Y1334D02*
X3484Y1377D01*
G01X3354Y1421D02*
G03X3385Y1390I29J-2D01*
G01D02*
X3428Y1433D01*
G01X3214Y1373D02*
G02X3253Y1334I-4J-43D01*
G01X3257Y1196D02*
X3324Y1263D01*
G01X3363Y1224D02*
X3296Y1157D01*
G01X3257Y1196D02*
G03X3296Y1157I43J4D01*
G01X3324Y1263D02*
G02X3363Y1224I-4J-43D01*
G01X3296D02*
X3324Y1196D01*
G01X3307Y1146D02*
X3374Y1213D01*
G01X3413Y1174D02*
X3346Y1107D01*
G01X3307Y1146D02*
G03X3346Y1107I43J4D01*
G01X3374Y1213D02*
G02X3413Y1174I-4J-43D01*
G01X3346D02*
X3374Y1146D01*
G01X3296Y1638D02*
X3264Y1606D01*
G01X3317Y1616D02*
G02X3286Y1585I-29J-2D01*
G01X3274Y1659D02*
G03X3243Y1628I-2J-29D01*
G01X3317Y1616D02*
X3274Y1659D01*
G01X3243Y1628D02*
X3286Y1585D01*
G01X3375Y1443D02*
X3407Y1411D01*
G01X3397Y1464D02*
G02X3428Y1433I2J-29D01*
G01X3397Y1464D02*
X3354Y1421D01*
G01X3319Y1499D02*
X3351Y1467D01*
G01X3341Y1520D02*
G02X3372Y1489I2J-29D01*
G01X3298Y1477D02*
G03X3329Y1446I29J-2D01*
G01X3341Y1520D02*
X3298Y1477D01*
G01X3329Y1446D02*
X3372Y1489D01*
G01X3428Y1727D02*
G02X3397Y1696I-29J-2D01*
G01X3354Y1739D02*
X3397Y1696D01*
G01X3487Y1549D02*
X3518Y1581D01*
G01X3466Y1571D02*
G02X3497Y1602I29J2D01*
G01X3466Y1571D02*
X3508Y1528D01*
G01X3539Y1559D02*
X3497Y1602D01*
G01X3503Y1608D02*
G02X3534Y1639I29J2D01*
G01X3503Y1608D02*
X3546Y1566D01*
G01X3407Y1749D02*
X3375Y1717D01*
G01X3385Y1770D02*
G03X3354Y1739I-2J-29D01*
G01X3428Y1727D02*
X3385Y1770D01*
G01X3463Y1805D02*
X3431Y1773D01*
G01X3484Y1783D02*
G02X3453Y1752I-29J-2D01*
G01X3441Y1826D02*
G03X3410Y1795I-2J-29D01*
G01X3484Y1783D02*
X3441Y1826D01*
G01X3410Y1795D02*
X3453Y1752D01*
G01X3519Y1861D02*
X3487Y1829D01*
G01X3497Y1882D02*
G03X3466Y1851I-2J-29D01*
G01X3540Y1839D02*
X3497Y1882D01*
G01X3466Y1851D02*
X3509Y1808D01*
G01X3535Y3600D02*
X3465D01*
G01X3455Y3508D02*
X3545D01*
Y3692D01*
X3455D01*
Y3508D01*
G01X3798Y512D02*
G02X3742I-27J33D01*
G01X3798Y608D02*
Y512D01*
G01X3742D02*
Y608D01*
G01X3798D02*
G03X3742I-27J-33D01*
G01X3790Y560D02*
X3750D01*
G01X3626Y1244D02*
X3658Y1276D01*
G01X3605Y1266D02*
G02X3636Y1297I29J2D01*
G01X3648Y1223D02*
G03X3679Y1254I2J29D01*
G01X3605Y1266D02*
X3648Y1223D01*
G01X3679Y1254D02*
X3636Y1297D01*
G01X3764Y1383D02*
X3796Y1415D01*
G01X3786Y1362D02*
G03X3817Y1393I2J29D01*
G01X3743Y1405D02*
X3786Y1362D01*
G01X3681Y1300D02*
X3713Y1332D01*
G01X3660Y1322D02*
G02X3691Y1353I29J2D01*
G01X3703Y1279D02*
G03X3734Y1310I2J29D01*
G01X3660Y1322D02*
X3703Y1279D01*
G01X3734Y1310D02*
X3691Y1353D01*
G01X3508D02*
G02X3539Y1322I2J-29D01*
G01X3599Y1662D02*
X3631Y1693D01*
G01X3578Y1683D02*
G02X3609Y1714I29J2D01*
G01X3621Y1641D02*
G03X3652Y1672I2J29D01*
G01X3578Y1683D02*
X3621Y1641D01*
G01X3652Y1672D02*
X3609Y1714D01*
G01X3831Y1668D02*
G02X3800Y1699I-2J29D01*
G01X3843Y1742D02*
X3800Y1699D01*
G01X3743Y1405D02*
G02X3774Y1436I29J2D01*
G01X3817Y1393D02*
X3774Y1436D01*
G01X3636Y1534D02*
X3604Y1502D01*
G01X3657Y1512D02*
G02X3626Y1481I-29J-2D01*
G01X3614Y1555D02*
G03X3583Y1524I-2J-29D01*
G01X3657Y1512D02*
X3614Y1555D01*
G01X3583Y1524D02*
X3626Y1481D01*
G01X3674Y1572D02*
X3642Y1540D01*
G01X3695Y1550D02*
G02X3664Y1519I-29J-2D01*
G01X3652Y1593D02*
G03X3621Y1562I-2J-29D01*
G01X3695Y1550D02*
X3652Y1593D01*
G01X3621Y1562D02*
X3664Y1519D01*
G01X3711Y1611D02*
X3679Y1579D01*
G01X3732Y1589D02*
G02X3701Y1558I-29J-2D01*
G01X3689Y1632D02*
G03X3658Y1601I-2J-29D01*
G01X3732Y1589D02*
X3689Y1632D01*
G01X3658Y1601D02*
X3701Y1558D01*
G01X3508Y1528D02*
G03X3539Y1559I2J29D01*
G01X3524Y1587D02*
X3556Y1618D01*
G01X3546Y1566D02*
G03X3577Y1597I2J29D01*
G01D02*
X3534Y1639D01*
G01X3562Y1624D02*
X3593Y1656D01*
G01X3541Y1646D02*
G02X3572Y1677I29J2D01*
G01X3583Y1603D02*
G03X3614Y1634I2J29D01*
G01X3541Y1646D02*
X3583Y1603D01*
G01X3614Y1634D02*
X3572Y1677D01*
G01X3602Y1828D02*
X3570Y1860D01*
G01X3580Y1807D02*
G02X3549Y1838I-2J29D01*
G01X3623Y1850D02*
G03X3592Y1881I-29J2D01*
G01X3580Y1807D02*
X3623Y1850D01*
G01X3592Y1881D02*
X3549Y1838D01*
G01X3686Y1856D02*
X3654Y1888D01*
G01X3664Y1835D02*
G02X3633Y1866I-2J29D01*
G01X3707Y1878D02*
G03X3676Y1909I-29J2D01*
G01X3664Y1835D02*
X3707Y1878D01*
G01X3676Y1909D02*
X3633Y1866D01*
G01X3741Y1801D02*
X3709Y1833D01*
G01X3719Y1780D02*
G02X3688Y1811I-2J29D01*
G01X3762Y1823D02*
G03X3731Y1854I-29J2D01*
G01X3719Y1780D02*
X3762Y1823D01*
G01X3731Y1854D02*
X3688Y1811D01*
G01X3540Y1839D02*
G02X3509Y1808I-29J-2D01*
G01X3868Y512D02*
G02X3812I-28J33D01*
G01X3938D02*
G02X3883I-27J33D01*
G01X4077D02*
G02X4022I-27J33D01*
G01X4008D02*
G02X3952I-28J33D01*
G01X3868Y608D02*
Y512D01*
G01X3812D02*
Y608D01*
G01X3868D02*
G03X3812I-28J-33D01*
G01X3860Y560D02*
X3820D01*
G01X3938Y608D02*
Y512D01*
G01X3883D02*
Y608D01*
G01X3938D02*
G03X3883I-27J-33D01*
G01X3930Y560D02*
X3890D01*
G01X4077Y608D02*
Y512D01*
G01X4022D02*
Y608D01*
G01X4077D02*
G03X4022I-27J-33D01*
G01X4070Y560D02*
X4030D01*
G01X4008Y608D02*
Y512D01*
G01X3952D02*
Y608D01*
G01X4008D02*
G03X3952I-28J-33D01*
G01X4000Y560D02*
X3960D01*
G01X4093Y512D02*
Y608D01*
G01X4148D02*
G03X4093I-27J-33D01*
G01X4148Y512D02*
G02X4093I-27J33D01*
G01X4140Y560D02*
X4100D01*
G01X3904Y1522D02*
X3936Y1554D01*
G01X3883Y1544D02*
G02X3914Y1575I29J2D01*
G01X3926Y1501D02*
G03X3957Y1532I2J29D01*
G01X3883Y1544D02*
X3926Y1501D01*
G01X3957Y1532D02*
X3914Y1575D01*
G01X3853Y1689D02*
X3821Y1721D01*
G01X3831Y1668D02*
X3874Y1711D01*
G01X3908Y1634D02*
X3876Y1666D01*
G01X3886Y1613D02*
G02X3855Y1644I-2J29D01*
G01X3929Y1656D02*
G03X3898Y1687I-29J2D01*
G01X3886Y1613D02*
X3929Y1656D01*
G01X3898Y1687D02*
X3855Y1644D01*
G01X3848Y1466D02*
X3880Y1498D01*
G01X3827Y1488D02*
G02X3858Y1519I29J2D01*
G01X3870Y1445D02*
G03X3901Y1476I2J29D01*
G01X3827Y1488D02*
X3870Y1445D01*
G01X3901Y1476D02*
X3858Y1519D01*
G01X3874Y1711D02*
G03X3843Y1742I-29J2D01*
G01X3930Y3030D02*
X3830D01*
Y2930D01*
X3930D01*
Y3030D01*
G01X4030D02*
X3930D01*
Y2930D01*
X4030D01*
Y3030D01*
G01X4232Y503D02*
Y618D01*
X4288D01*
Y503D01*
X4232D01*
G01X4162D02*
Y618D01*
X4218D01*
Y503D01*
X4162D01*
G01X4358Y618D02*
Y503D01*
X4302D01*
Y618D01*
X4358D01*
G01X4240Y560D02*
X4280D01*
G01X4170D02*
X4210D01*
G01X4350D02*
X4310D01*
G01X4148Y608D02*
Y512D01*
G01X4303Y684D02*
Y746D01*
X4348D01*
G01X4437Y684D02*
Y746D01*
X4392D01*
G01X4153Y684D02*
Y746D01*
X4198D01*
G01X4287Y684D02*
Y746D01*
X4242D01*
G01X4350Y2175D02*
X4250D01*
Y2075D01*
X4350D01*
Y2175D01*
G01Y2375D02*
X4250D01*
Y2275D01*
X4350D01*
Y2375D01*
G01Y2275D02*
X4250D01*
Y2175D01*
X4350D01*
Y2275D01*
G01Y2475D02*
X4250D01*
Y2375D01*
X4350D01*
Y2475D01*
G01X4848Y2328D02*
X4682D01*
G01Y2452D02*
X4848D01*
G01X4682Y2328D02*
G02Y2452I190J62D01*
G01X4842Y998D02*
X4748D01*
G01Y1052D02*
X4842D01*
G01Y998D02*
G03Y1052I-33J27D01*
G01X4748Y998D02*
G02Y1052I33J27D01*
G01X4795Y1005D02*
Y1045D01*
G01X4858Y988D02*
X4952D01*
G01Y932D02*
X4858D01*
G01Y988D02*
G03Y932I33J-28D01*
G01X4952Y988D02*
G02Y932I-33J-28D01*
G01X4905Y980D02*
Y940D01*
G01X4858Y922D02*
X4952D01*
G01Y868D02*
X4858D01*
G01Y922D02*
G03Y868I33J-27D01*
G01X4952Y922D02*
G02Y868I-33J-27D01*
G01X4905Y915D02*
Y875D01*
G01X4842Y1098D02*
X4748D01*
G01X4842D02*
G03Y1152I-33J28D01*
G01X4748Y1098D02*
G02Y1152I33J28D01*
G01X4858Y1338D02*
X4952D01*
G01Y1282D02*
X4858D01*
G01Y1338D02*
G03Y1282I33J-28D01*
G01X4952Y1338D02*
G02Y1282I-33J-28D01*
G01X4905Y1330D02*
Y1290D01*
G01X4858Y1218D02*
X4952D01*
G01Y1162D02*
X4858D01*
G01Y1218D02*
G03Y1162I33J-28D01*
G01X4952Y1218D02*
G02Y1162I-33J-28D01*
G01X4905Y1210D02*
Y1170D01*
G01X4748Y1152D02*
X4842D01*
G01X4795Y1105D02*
Y1145D01*
G01X4788Y1645D02*
X4952D01*
G01Y1555D02*
X4788D01*
G01Y1645D02*
G03Y1555I96J-45D01*
G01X4952Y1645D02*
G02Y1555I-96J-45D01*
G01X4870Y1635D02*
Y1565D01*
G01X4842Y1463D02*
X4748D01*
G01Y1518D02*
X4842D01*
G01Y1463D02*
G03Y1518I-33J27D01*
G01X4748Y1463D02*
G02Y1518I33J27D01*
G01X4795Y1470D02*
Y1510D01*
G01X4858Y1768D02*
X4952D01*
G01Y1713D02*
X4858D01*
G01Y1768D02*
G03Y1713I33J-28D01*
G01X4952Y1768D02*
G02Y1713I-33J-28D01*
G01X4905Y1760D02*
Y1720D01*
G01X4858Y2128D02*
X4952D01*
G01Y2073D02*
X4858D01*
G01Y2128D02*
G03Y2073I33J-27D01*
G01X4952Y2128D02*
G02Y2073I-33J-27D01*
G01X4905Y2120D02*
Y2080D01*
G01X4842Y2018D02*
X4748D01*
G01Y2073D02*
X4842D01*
G01Y2018D02*
G03Y2073I-33J27D01*
G01X4748Y2018D02*
G02Y2073I33J27D01*
G01X4795Y2025D02*
Y2065D01*
G01X4842Y2262D02*
X4748D01*
G01X4842D02*
G03Y2318I-33J27D01*
G01X4748Y2262D02*
G02Y2318I33J27D01*
G01X4795Y2270D02*
Y2310D01*
G01X4848Y2328D02*
G03Y2452I-190J62D01*
G01X4765Y2340D02*
Y2440D01*
G01X4842Y2462D02*
X4748D01*
G01Y2518D02*
X4842D01*
G01Y2462D02*
G03Y2518I-33J28D01*
G01X4748Y2462D02*
G02Y2518I33J28D01*
G01X4795Y2470D02*
Y2510D01*
G01X4748Y2318D02*
X4842D01*
M02*
