%MOIN*%
%ADD17C,0.0220*%
%ADD18C,0.0060*%
%ADD19C,0.0045*%
%ADD20C,0.0080*%
%ADD21C,0.0120*%
%ADD22C,0.0220*%
%ADD23R,0.0570X0.0120*%
%ADD24R,0.0250X0.1000*%
%ADD25R,0.0250X0.1850*%
%ADD26C,0.0250*%
%ADD27C,0.0200*%
%ADD28C,0.0110*%
%ADD29C,0.0160*%
%ADD30R,0.0895X0.0110*%
%ADD31R,0.0170X0.1000*%
%ADD32R,0.0170X0.1850*%
%ADD33C,0.0170*%
%ASAXBY*%
%FSLAX04Y04*%
%IPPOS*%
%LNGE-FS*%
%SFA1.0000B1.0000*%
%LPD*%
G36*
G01X19265Y9701D02*
G01X19405Y9701D01*
G01X19405Y9591*
G01X19265Y9591*
G01X19265Y9701*
G37*
G36*
G01X19265Y15212D02*
G01X19405Y15212D01*
G01X19405Y15102*
G01X19265Y15102*
G01X19265Y15212*
G37*
G36*
G01X19265Y15016D02*
G01X19405Y15016D01*
G01X19405Y14906*
G01X19265Y14906*
G01X19265Y15016*
G37*
G36*
G01X18450Y15299D02*
G01X18310Y15299D01*
G01X18310Y15409*
G01X18450Y15409*
G01X18450Y15299*
G37*
G36*
G01X19265Y14622D02*
G01X19405Y14622D01*
G01X19405Y14512*
G01X19265Y14512*
G01X19265Y14622*
G37*
G36*
G01X19265Y14425D02*
G01X19405Y14425D01*
G01X19405Y14315*
G01X19265Y14315*
G01X19265Y14425*
G37*
G36*
G01X19265Y14031D02*
G01X19405Y14031D01*
G01X19405Y13921*
G01X19265Y13921*
G01X19265Y14031*
G37*
G36*
G01X19265Y13835D02*
G01X19405Y13835D01*
G01X19405Y13725*
G01X19265Y13725*
G01X19265Y13835*
G37*
G36*
G01X19265Y13441D02*
G01X19405Y13441D01*
G01X19405Y13331*
G01X19265Y13331*
G01X19265Y13441*
G37*
G36*
G01X19265Y13244D02*
G01X19405Y13244D01*
G01X19405Y13134*
G01X19265Y13134*
G01X19265Y13244*
G37*
G36*
G01X19265Y12850D02*
G01X19405Y12850D01*
G01X19405Y12740*
G01X19265Y12740*
G01X19265Y12850*
G37*
G36*
G01X19265Y12653D02*
G01X19405Y12653D01*
G01X19405Y12543*
G01X19265Y12543*
G01X19265Y12653*
G37*
G36*
G01X19265Y12260D02*
G01X19405Y12260D01*
G01X19405Y12150*
G01X19265Y12150*
G01X19265Y12260*
G37*
G36*
G01X19265Y12063D02*
G01X19405Y12063D01*
G01X19405Y11953*
G01X19265Y11953*
G01X19265Y12063*
G37*
G36*
G01X19265Y11669D02*
G01X19405Y11669D01*
G01X19405Y11559*
G01X19265Y11559*
G01X19265Y11669*
G37*
G36*
G01X19265Y11472D02*
G01X19405Y11472D01*
G01X19405Y11362*
G01X19265Y11362*
G01X19265Y11472*
G37*
G36*
G01X19265Y11079D02*
G01X19405Y11079D01*
G01X19405Y10969*
G01X19265Y10969*
G01X19265Y11079*
G37*
G36*
G01X19265Y10882D02*
G01X19405Y10882D01*
G01X19405Y10772*
G01X19265Y10772*
G01X19265Y10882*
G37*
G36*
G01X19265Y10488D02*
G01X19405Y10488D01*
G01X19405Y10378*
G01X19265Y10378*
G01X19265Y10488*
G37*
G36*
G01X19265Y10291D02*
G01X19405Y10291D01*
G01X19405Y10181*
G01X19265Y10181*
G01X19265Y10291*
G37*
G36*
G01X19265Y9898D02*
G01X19405Y9898D01*
G01X19405Y9788*
G01X19265Y9788*
G01X19265Y9898*
G37*
G36*
G01X18450Y10181D02*
G01X18310Y10181D01*
G01X18310Y10291*
G01X18450Y10291*
G01X18450Y10181*
G37*
G36*
G01X18450Y14709D02*
G01X18310Y14709D01*
G01X18310Y14789D01*
G75*
G02X18340Y14819I30J0D01*
G01X18450Y14819*
G01X18450Y14709*
G37*
G36*
G01X18450Y14118D02*
G01X18310Y14118D01*
G01X18310Y14198D01*
G75*
G02X18340Y14228I30J0D01*
G01X18450Y14228*
G01X18450Y14118*
G37*
G36*
G01X18450Y13528D02*
G01X18310Y13528D01*
G01X18310Y13608D01*
G75*
G02X18340Y13638I30J0D01*
G01X18450Y13638*
G01X18450Y13528*
G37*
G36*
G01X18450Y12937D02*
G01X18310Y12937D01*
G01X18310Y13017D01*
G75*
G02X18340Y13047I30J0D01*
G01X18450Y13047*
G01X18450Y12937*
G37*
G36*
G01X18450Y12347D02*
G01X18310Y12347D01*
G01X18310Y12427D01*
G75*
G02X18340Y12457I30J0D01*
G01X18450Y12457*
G01X18450Y12347*
G37*
G36*
G01X18450Y11756D02*
G01X18310Y11756D01*
G01X18310Y11836D01*
G75*
G02X18340Y11866I30J0D01*
G01X18450Y11866*
G01X18450Y11756*
G37*
G36*
G01X18450Y11165D02*
G01X18310Y11165D01*
G01X18310Y11245D01*
G75*
G02X18340Y11275I30J0D01*
G01X18450Y11275*
G01X18450Y11165*
G37*
G36*
G01X18450Y10575D02*
G01X18310Y10575D01*
G01X18310Y10655D01*
G75*
G02X18340Y10685I30J0D01*
G01X18450Y10685*
G01X18450Y10575*
G37*
G36*
G01X18450Y9984D02*
G01X18310Y9984D01*
G01X18310Y10064D01*
G75*
G02X18340Y10094I30J0D01*
G01X18450Y10094*
G01X18450Y9984*
G37*
G36*
G01X19265Y22497D02*
G01X19405Y22497D01*
G01X19405Y22387*
G01X19265Y22387*
G01X19265Y22497*
G37*
G36*
G01X19265Y22300D02*
G01X19405Y22300D01*
G01X19405Y22190*
G01X19265Y22190*
G01X19265Y22300*
G37*
G36*
G01X18450Y22584D02*
G01X18310Y22584D01*
G01X18310Y22664D01*
G75*
G02X18340Y22694I30J0D01*
G01X18450Y22694*
G01X18450Y22584*
G37*
G36*
G01X19265Y23087D02*
G01X19405Y23087D01*
G01X19405Y22977*
G01X19265Y22977*
G01X19265Y23087*
G37*
G36*
G01X19265Y22891D02*
G01X19405Y22891D01*
G01X19405Y22781*
G01X19265Y22781*
G01X19265Y22891*
G37*
G36*
G01X19265Y23284D02*
G01X19405Y23284D01*
G01X19405Y23174*
G01X19265Y23174*
G01X19265Y23284*
G37*
G36*
G01X19265Y21906D02*
G01X19405Y21906D01*
G01X19405Y21796*
G01X19265Y21796*
G01X19265Y21906*
G37*
G36*
G01X19265Y21710D02*
G01X19405Y21710D01*
G01X19405Y21600*
G01X19265Y21600*
G01X19265Y21710*
G37*
G36*
G01X18450Y21993D02*
G01X18310Y21993D01*
G01X18310Y22073D01*
G75*
G02X18340Y22103I30J0D01*
G01X18450Y22103*
G01X18450Y21993*
G37*
G36*
G01X19265Y21316D02*
G01X19405Y21316D01*
G01X19405Y21206*
G01X19265Y21206*
G01X19265Y21316*
G37*
G36*
G01X19265Y21119D02*
G01X19405Y21119D01*
G01X19405Y21009*
G01X19265Y21009*
G01X19265Y21119*
G37*
G36*
G01X18450Y21403D02*
G01X18310Y21403D01*
G01X18310Y21483D01*
G75*
G02X18340Y21513I30J0D01*
G01X18450Y21513*
G01X18450Y21403*
G37*
G36*
G01X19265Y20725D02*
G01X19405Y20725D01*
G01X19405Y20615*
G01X19265Y20615*
G01X19265Y20725*
G37*
G36*
G01X19265Y20528D02*
G01X19405Y20528D01*
G01X19405Y20418*
G01X19265Y20418*
G01X19265Y20528*
G37*
G36*
G01X18450Y20812D02*
G01X18310Y20812D01*
G01X18310Y20892D01*
G75*
G02X18340Y20922I30J0D01*
G01X18450Y20922*
G01X18450Y20812*
G37*
G36*
G01X19265Y20135D02*
G01X19405Y20135D01*
G01X19405Y20025*
G01X19265Y20025*
G01X19265Y20135*
G37*
G36*
G01X19265Y19938D02*
G01X19405Y19938D01*
G01X19405Y19828*
G01X19265Y19828*
G01X19265Y19938*
G37*
G36*
G01X18450Y20222D02*
G01X18310Y20222D01*
G01X18310Y20302D01*
G75*
G02X18340Y20332I30J0D01*
G01X18450Y20332*
G01X18450Y20222*
G37*
G36*
G01X19265Y19544D02*
G01X19405Y19544D01*
G01X19405Y19434*
G01X19265Y19434*
G01X19265Y19544*
G37*
G36*
G01X19265Y19347D02*
G01X19405Y19347D01*
G01X19405Y19237*
G01X19265Y19237*
G01X19265Y19347*
G37*
G36*
G01X18450Y19631D02*
G01X18310Y19631D01*
G01X18310Y19711D01*
G75*
G02X18340Y19741I30J0D01*
G01X18450Y19741*
G01X18450Y19631*
G37*
G36*
G01X19265Y18954D02*
G01X19405Y18954D01*
G01X19405Y18844*
G01X19265Y18844*
G01X19265Y18954*
G37*
G36*
G01X19265Y18757D02*
G01X19405Y18757D01*
G01X19405Y18647*
G01X19265Y18647*
G01X19265Y18757*
G37*
G36*
G01X18450Y19040D02*
G01X18310Y19040D01*
G01X18310Y19120D01*
G75*
G02X18340Y19150I30J0D01*
G01X18450Y19150*
G01X18450Y19040*
G37*
G36*
G01X19265Y18363D02*
G01X19405Y18363D01*
G01X19405Y18253*
G01X19265Y18253*
G01X19265Y18363*
G37*
G36*
G01X19265Y18166D02*
G01X19405Y18166D01*
G01X19405Y18056*
G01X19265Y18056*
G01X19265Y18166*
G37*
G36*
G01X18450Y18450D02*
G01X18310Y18450D01*
G01X18310Y18530D01*
G75*
G02X18340Y18560I30J0D01*
G01X18450Y18560*
G01X18450Y18450*
G37*
G36*
G01X19265Y17773D02*
G01X19405Y17773D01*
G01X19405Y17663*
G01X19265Y17663*
G01X19265Y17773*
G37*
G36*
G01X19265Y17576D02*
G01X19405Y17576D01*
G01X19405Y17466*
G01X19265Y17466*
G01X19265Y17576*
G37*
G36*
G01X18450Y17859D02*
G01X18310Y17859D01*
G01X18310Y17939D01*
G75*
G02X18340Y17969I30J0D01*
G01X18450Y17969*
G01X18450Y17859*
G37*
G36*
G01X19265Y7140D02*
G01X19405Y7140D01*
G01X19405Y7030*
G01X19265Y7030*
G01X19265Y7140*
G37*
G36*
G01X19265Y7336D02*
G01X19405Y7336D01*
G01X19405Y7226*
G01X19265Y7226*
G01X19265Y7336*
G37*
G36*
G01X17010Y7140D02*
G01X17150Y7140D01*
G01X17150Y7030*
G01X17010Y7030*
G01X17010Y7140*
G37*
G36*
G01X17010Y7336D02*
G01X17150Y7336D01*
G01X17150Y7226*
G01X17010Y7226*
G01X17010Y7336*
G37*
G36*
G01X16195Y6045D02*
G01X16055Y6045D01*
G01X16055Y6155*
G01X16195Y6155*
G01X16195Y6045*
G37*
G36*
G01X16195Y5848D02*
G01X16055Y5848D01*
G01X16055Y5958*
G01X16195Y5958*
G01X16195Y5848*
G37*
G36*
G01X17010Y6549D02*
G01X17150Y6549D01*
G01X17150Y6439*
G01X17010Y6439*
G01X17010Y6549*
G37*
G36*
G01X17010Y6746D02*
G01X17150Y6746D01*
G01X17150Y6636*
G01X17010Y6636*
G01X17010Y6746*
G37*
G36*
G01X17010Y5958D02*
G01X17150Y5958D01*
G01X17150Y5848*
G01X17010Y5848*
G01X17010Y5958*
G37*
G36*
G01X17010Y6155D02*
G01X17150Y6155D01*
G01X17150Y6045*
G01X17010Y6045*
G01X17010Y6155*
G37*
G36*
G01X18450Y6045D02*
G01X18310Y6045D01*
G01X18310Y6155*
G01X18450Y6155*
G01X18450Y6045*
G37*
G36*
G01X18450Y5848D02*
G01X18310Y5848D01*
G01X18310Y5958*
G01X18450Y5958*
G01X18450Y5848*
G37*
G36*
G01X19265Y6549D02*
G01X19405Y6549D01*
G01X19405Y6439*
G01X19265Y6439*
G01X19265Y6549*
G37*
G36*
G01X19265Y6746D02*
G01X19405Y6746D01*
G01X19405Y6636*
G01X19265Y6636*
G01X19265Y6746*
G37*
G36*
G01X19265Y5958D02*
G01X19405Y5958D01*
G01X19405Y5848*
G01X19265Y5848*
G01X19265Y5958*
G37*
G36*
G01X19265Y6155D02*
G01X19405Y6155D01*
G01X19405Y6045*
G01X19265Y6045*
G01X19265Y6155*
G37*
G36*
G01X16195Y5454D02*
G01X16055Y5454D01*
G01X16055Y5564*
G01X16195Y5564*
G01X16195Y5454*
G37*
G36*
G01X16195Y5257D02*
G01X16055Y5257D01*
G01X16055Y5367*
G01X16195Y5367*
G01X16195Y5257*
G37*
G36*
G01X17010Y5367D02*
G01X17150Y5367D01*
G01X17150Y5257*
G01X17010Y5257*
G01X17010Y5367*
G37*
G36*
G01X17010Y5564D02*
G01X17150Y5564D01*
G01X17150Y5454*
G01X17010Y5454*
G01X17010Y5564*
G37*
G36*
G01X18450Y5454D02*
G01X18310Y5454D01*
G01X18310Y5564*
G01X18450Y5564*
G01X18450Y5454*
G37*
G36*
G01X18450Y5257D02*
G01X18310Y5257D01*
G01X18310Y5367*
G01X18450Y5367*
G01X18450Y5257*
G37*
G36*
G01X19265Y5367D02*
G01X19405Y5367D01*
G01X19405Y5257*
G01X19265Y5257*
G01X19265Y5367*
G37*
G36*
G01X19265Y5564D02*
G01X19405Y5564D01*
G01X19405Y5454*
G01X19265Y5454*
G01X19265Y5564*
G37*
G36*
G01X16195Y4864D02*
G01X16055Y4864D01*
G01X16055Y4974*
G01X16195Y4974*
G01X16195Y4864*
G37*
G36*
G01X16195Y4667D02*
G01X16055Y4667D01*
G01X16055Y4777*
G01X16195Y4777*
G01X16195Y4667*
G37*
G36*
G01X17010Y4777D02*
G01X17150Y4777D01*
G01X17150Y4667*
G01X17010Y4667*
G01X17010Y4777*
G37*
G36*
G01X17010Y4974D02*
G01X17150Y4974D01*
G01X17150Y4864*
G01X17010Y4864*
G01X17010Y4974*
G37*
G36*
G01X18450Y4864D02*
G01X18310Y4864D01*
G01X18310Y4974*
G01X18450Y4974*
G01X18450Y4864*
G37*
G36*
G01X18450Y4667D02*
G01X18310Y4667D01*
G01X18310Y4777*
G01X18450Y4777*
G01X18450Y4667*
G37*
G36*
G01X19265Y4777D02*
G01X19405Y4777D01*
G01X19405Y4667*
G01X19265Y4667*
G01X19265Y4777*
G37*
G36*
G01X19265Y4974D02*
G01X19405Y4974D01*
G01X19405Y4864*
G01X19265Y4864*
G01X19265Y4974*
G37*
G36*
G01X16195Y4076D02*
G01X16055Y4076D01*
G01X16055Y4186*
G01X16195Y4186*
G01X16195Y4076*
G37*
G36*
G01X16195Y4273D02*
G01X16055Y4273D01*
G01X16055Y4383*
G01X16195Y4383*
G01X16195Y4273*
G37*
G36*
G01X17010Y4383D02*
G01X17150Y4383D01*
G01X17150Y4273*
G01X17010Y4273*
G01X17010Y4383*
G37*
G36*
G01X17010Y4186D02*
G01X17150Y4186D01*
G01X17150Y4076*
G01X17010Y4076*
G01X17010Y4186*
G37*
G36*
G01X18450Y4076D02*
G01X18310Y4076D01*
G01X18310Y4186*
G01X18450Y4186*
G01X18450Y4076*
G37*
G36*
G01X18450Y4273D02*
G01X18310Y4273D01*
G01X18310Y4383*
G01X18450Y4383*
G01X18450Y4273*
G37*
G36*
G01X19265Y4383D02*
G01X19405Y4383D01*
G01X19405Y4273*
G01X19265Y4273*
G01X19265Y4383*
G37*
G36*
G01X19265Y4186D02*
G01X19405Y4186D01*
G01X19405Y4076*
G01X19265Y4076*
G01X19265Y4186*
G37*
G36*
G01X16196Y3682D02*
G01X16056Y3682D01*
G01X16056Y3792*
G01X16196Y3792*
G01X16196Y3682*
G37*
G36*
G01X16196Y3485D02*
G01X16056Y3485D01*
G01X16056Y3595*
G01X16196Y3595*
G01X16196Y3485*
G37*
G36*
G01X17011Y3595D02*
G01X17151Y3595D01*
G01X17151Y3485*
G01X17011Y3485*
G01X17011Y3595*
G37*
G36*
G01X17011Y3792D02*
G01X17151Y3792D01*
G01X17151Y3682*
G01X17011Y3682*
G01X17011Y3792*
G37*
G36*
G01X18451Y3682D02*
G01X18311Y3682D01*
G01X18311Y3792*
G01X18451Y3792*
G01X18451Y3682*
G37*
G36*
G01X18451Y3485D02*
G01X18311Y3485D01*
G01X18311Y3595*
G01X18451Y3595*
G01X18451Y3485*
G37*
G36*
G01X19266Y3595D02*
G01X19406Y3595D01*
G01X19406Y3485*
G01X19266Y3485*
G01X19266Y3595*
G37*
G36*
G01X19266Y3792D02*
G01X19406Y3792D01*
G01X19406Y3682*
G01X19266Y3682*
G01X19266Y3792*
G37*
G36*
G01X16195Y3092D02*
G01X16055Y3092D01*
G01X16055Y3202*
G01X16195Y3202*
G01X16195Y3092*
G37*
G36*
G01X16195Y2895D02*
G01X16055Y2895D01*
G01X16055Y3005*
G01X16195Y3005*
G01X16195Y2895*
G37*
G36*
G01X17010Y3005D02*
G01X17150Y3005D01*
G01X17150Y2895*
G01X17010Y2895*
G01X17010Y3005*
G37*
G36*
G01X17010Y3202D02*
G01X17150Y3202D01*
G01X17150Y3092*
G01X17010Y3092*
G01X17010Y3202*
G37*
G36*
G01X18450Y3092D02*
G01X18310Y3092D01*
G01X18310Y3202*
G01X18450Y3202*
G01X18450Y3092*
G37*
G36*
G01X18450Y2895D02*
G01X18310Y2895D01*
G01X18310Y3005*
G01X18450Y3005*
G01X18450Y2895*
G37*
G36*
G01X19265Y3005D02*
G01X19405Y3005D01*
G01X19405Y2895*
G01X19265Y2895*
G01X19265Y3005*
G37*
G36*
G01X19265Y3202D02*
G01X19405Y3202D01*
G01X19405Y3092*
G01X19265Y3092*
G01X19265Y3202*
G37*
G36*
G01X16195Y2501D02*
G01X16055Y2501D01*
G01X16055Y2611*
G01X16195Y2611*
G01X16195Y2501*
G37*
G36*
G01X16195Y2304D02*
G01X16055Y2304D01*
G01X16055Y2414*
G01X16195Y2414*
G01X16195Y2304*
G37*
G36*
G01X17010Y2414D02*
G01X17150Y2414D01*
G01X17150Y2304*
G01X17010Y2304*
G01X17010Y2414*
G37*
G36*
G01X17010Y2611D02*
G01X17150Y2611D01*
G01X17150Y2501*
G01X17010Y2501*
G01X17010Y2611*
G37*
G36*
G01X18450Y2501D02*
G01X18310Y2501D01*
G01X18310Y2611*
G01X18450Y2611*
G01X18450Y2501*
G37*
G36*
G01X18450Y2304D02*
G01X18310Y2304D01*
G01X18310Y2414*
G01X18450Y2414*
G01X18450Y2304*
G37*
G36*
G01X19265Y2414D02*
G01X19405Y2414D01*
G01X19405Y2304*
G01X19265Y2304*
G01X19265Y2414*
G37*
G36*
G01X19265Y2611D02*
G01X19405Y2611D01*
G01X19405Y2501*
G01X19265Y2501*
G01X19265Y2611*
G37*
G36*
G01X16195Y10094D02*
G01X16155Y10094D01*
G75*
G03X16076Y10031I0J-80D01*
G02X16065Y9999I-147J32D01*
G03X16074Y9984I9J-4D01*
G01X16195Y9984*
G01X16195Y10094*
G37*
G36*
G01X16195Y10685D02*
G01X16155Y10685D01*
G75*
G03X16076Y10622I0J-80D01*
G02X16065Y10589I-147J32D01*
G03X16074Y10575I9J-4D01*
G01X16195Y10575*
G01X16195Y10685*
G37*
G36*
G01X16195Y11275D02*
G01X16155Y11275D01*
G75*
G03X16076Y11212I0J-80D01*
G02X16065Y11180I-147J32D01*
G03X16074Y11165I9J-4D01*
G01X16195Y11165*
G01X16195Y11275*
G37*
G36*
G01X16195Y11866D02*
G01X16155Y11866D01*
G75*
G03X16076Y11803I0J-80D01*
G02X16065Y11770I-147J32D01*
G03X16074Y11756I9J-4D01*
G01X16195Y11756*
G01X16195Y11866*
G37*
G36*
G01X16195Y12457D02*
G01X16155Y12457D01*
G75*
G03X16076Y12394I0J-80D01*
G02X16065Y12361I-147J32D01*
G03X16074Y12347I9J-4D01*
G01X16195Y12347*
G01X16195Y12457*
G37*
G36*
G01X16195Y13047D02*
G01X16155Y13047D01*
G75*
G03X16076Y12984I0J-80D01*
G02X16065Y12951I-147J32D01*
G03X16074Y12937I9J-4D01*
G01X16195Y12937*
G01X16195Y13047*
G37*
G36*
G01X16195Y13638D02*
G01X16155Y13638D01*
G75*
G03X16076Y13575I0J-80D01*
G02X16065Y13542I-147J32D01*
G03X16074Y13528I9J-4D01*
G01X16195Y13528*
G01X16195Y13638*
G37*
G36*
G01X16195Y14228D02*
G01X16155Y14228D01*
G75*
G03X16076Y14165I0J-80D01*
G02X16065Y14133I-147J32D01*
G03X16074Y14118I9J-4D01*
G01X16195Y14118*
G01X16195Y14228*
G37*
G36*
G01X16195Y14819D02*
G01X16155Y14819D01*
G75*
G03X16076Y14756I0J-80D01*
G02X16065Y14723I-147J32D01*
G03X16074Y14709I9J-4D01*
G01X16195Y14709*
G01X16195Y14819*
G37*
G36*
G01X16195Y17969D02*
G01X16155Y17969D01*
G75*
G03X16076Y17906I0J-80D01*
G02X16065Y17874I-147J32D01*
G03X16074Y17859I9J-4D01*
G01X16195Y17859*
G01X16195Y17969*
G37*
G36*
G01X16195Y18560D02*
G01X16155Y18560D01*
G75*
G03X16076Y18497I0J-80D01*
G02X16065Y18464I-147J32D01*
G03X16074Y18450I9J-4D01*
G01X16195Y18450*
G01X16195Y18560*
G37*
G36*
G01X16195Y19150D02*
G01X16155Y19150D01*
G75*
G03X16076Y19087I0J-80D01*
G02X16065Y19055I-147J32D01*
G03X16074Y19040I9J-4D01*
G01X16195Y19040*
G01X16195Y19150*
G37*
G36*
G01X16195Y19741D02*
G01X16155Y19741D01*
G75*
G03X16076Y19678I0J-80D01*
G02X16065Y19645I-147J32D01*
G03X16074Y19631I9J-4D01*
G01X16195Y19631*
G01X16195Y19741*
G37*
G36*
G01X16195Y20332D02*
G01X16155Y20332D01*
G75*
G03X16076Y20269I0J-80D01*
G02X16065Y20236I-147J32D01*
G03X16074Y20222I9J-4D01*
G01X16195Y20222*
G01X16195Y20332*
G37*
G36*
G01X16195Y20922D02*
G01X16155Y20922D01*
G75*
G03X16076Y20859I0J-80D01*
G02X16065Y20826I-147J32D01*
G03X16074Y20812I9J-4D01*
G01X16195Y20812*
G01X16195Y20922*
G37*
G36*
G01X16195Y21513D02*
G01X16155Y21513D01*
G75*
G03X16076Y21450I0J-80D01*
G02X16065Y21417I-147J32D01*
G03X16074Y21403I9J-4D01*
G01X16195Y21403*
G01X16195Y21513*
G37*
G36*
G01X16195Y22103D02*
G01X16155Y22103D01*
G75*
G03X16076Y22040I0J-80D01*
G02X16065Y22008I-147J32D01*
G03X16074Y21993I9J-4D01*
G01X16195Y21993*
G01X16195Y22103*
G37*
G36*
G01X16195Y22694D02*
G01X16155Y22694D01*
G75*
G03X16076Y22631I0J-80D01*
G02X16065Y22598I-147J32D01*
G03X16074Y22584I9J-4D01*
G01X16195Y22584*
G01X16195Y22694*
G37*
G36*
G01X17010Y23087D02*
G01X17150Y23087D01*
G01X17150Y22977*
G01X17010Y22977*
G01X17010Y23087*
G37*
G36*
G01X16195Y23174D02*
G01X16055Y23174D01*
G01X16055Y23284*
G01X16195Y23284*
G01X16195Y23174*
G37*
G36*
G01X17010Y22891D02*
G01X17150Y22891D01*
G01X17150Y22781*
G01X17010Y22781*
G01X17010Y22891*
G37*
G36*
G01X17010Y22497D02*
G01X17150Y22497D01*
G01X17150Y22387*
G01X17010Y22387*
G01X17010Y22497*
G37*
G36*
G01X17010Y22300D02*
G01X17150Y22300D01*
G01X17150Y22190*
G01X17010Y22190*
G01X17010Y22300*
G37*
G36*
G01X17010Y21906D02*
G01X17150Y21906D01*
G01X17150Y21796*
G01X17010Y21796*
G01X17010Y21906*
G37*
G36*
G01X17010Y21710D02*
G01X17150Y21710D01*
G01X17150Y21600*
G01X17010Y21600*
G01X17010Y21710*
G37*
G36*
G01X17010Y21316D02*
G01X17150Y21316D01*
G01X17150Y21206*
G01X17010Y21206*
G01X17010Y21316*
G37*
G36*
G01X17010Y21119D02*
G01X17150Y21119D01*
G01X17150Y21009*
G01X17010Y21009*
G01X17010Y21119*
G37*
G36*
G01X17010Y20725D02*
G01X17150Y20725D01*
G01X17150Y20615*
G01X17010Y20615*
G01X17010Y20725*
G37*
G36*
G01X17010Y20528D02*
G01X17150Y20528D01*
G01X17150Y20418*
G01X17010Y20418*
G01X17010Y20528*
G37*
G36*
G01X17010Y20135D02*
G01X17150Y20135D01*
G01X17150Y20025*
G01X17010Y20025*
G01X17010Y20135*
G37*
G36*
G01X17010Y19938D02*
G01X17150Y19938D01*
G01X17150Y19828*
G01X17010Y19828*
G01X17010Y19938*
G37*
G36*
G01X17010Y19544D02*
G01X17150Y19544D01*
G01X17150Y19434*
G01X17010Y19434*
G01X17010Y19544*
G37*
G36*
G01X17010Y19347D02*
G01X17150Y19347D01*
G01X17150Y19237*
G01X17010Y19237*
G01X17010Y19347*
G37*
G36*
G01X17010Y18954D02*
G01X17150Y18954D01*
G01X17150Y18844*
G01X17010Y18844*
G01X17010Y18954*
G37*
G36*
G01X17010Y18757D02*
G01X17150Y18757D01*
G01X17150Y18647*
G01X17010Y18647*
G01X17010Y18757*
G37*
G36*
G01X17010Y18363D02*
G01X17150Y18363D01*
G01X17150Y18253*
G01X17010Y18253*
G01X17010Y18363*
G37*
G36*
G01X17010Y18166D02*
G01X17150Y18166D01*
G01X17150Y18056*
G01X17010Y18056*
G01X17010Y18166*
G37*
G36*
G01X17010Y17773D02*
G01X17150Y17773D01*
G01X17150Y17663*
G01X17010Y17663*
G01X17010Y17773*
G37*
G36*
G01X17010Y17576D02*
G01X17150Y17576D01*
G01X17150Y17466*
G01X17010Y17466*
G01X17010Y17576*
G37*
G36*
G01X17010Y15212D02*
G01X17150Y15212D01*
G01X17150Y15102*
G01X17010Y15102*
G01X17010Y15212*
G37*
G36*
G01X17010Y15016D02*
G01X17150Y15016D01*
G01X17150Y14906*
G01X17010Y14906*
G01X17010Y15016*
G37*
G36*
G01X17010Y14622D02*
G01X17150Y14622D01*
G01X17150Y14512*
G01X17010Y14512*
G01X17010Y14622*
G37*
G36*
G01X17010Y14425D02*
G01X17150Y14425D01*
G01X17150Y14315*
G01X17010Y14315*
G01X17010Y14425*
G37*
G36*
G01X17010Y14031D02*
G01X17150Y14031D01*
G01X17150Y13921*
G01X17010Y13921*
G01X17010Y14031*
G37*
G36*
G01X17010Y13835D02*
G01X17150Y13835D01*
G01X17150Y13725*
G01X17010Y13725*
G01X17010Y13835*
G37*
G36*
G01X17010Y13441D02*
G01X17150Y13441D01*
G01X17150Y13331*
G01X17010Y13331*
G01X17010Y13441*
G37*
G36*
G01X17010Y13244D02*
G01X17150Y13244D01*
G01X17150Y13134*
G01X17010Y13134*
G01X17010Y13244*
G37*
G36*
G01X17010Y12850D02*
G01X17150Y12850D01*
G01X17150Y12740*
G01X17010Y12740*
G01X17010Y12850*
G37*
G36*
G01X17010Y12653D02*
G01X17150Y12653D01*
G01X17150Y12543*
G01X17010Y12543*
G01X17010Y12653*
G37*
G36*
G01X17010Y12260D02*
G01X17150Y12260D01*
G01X17150Y12150*
G01X17010Y12150*
G01X17010Y12260*
G37*
G36*
G01X17010Y12063D02*
G01X17150Y12063D01*
G01X17150Y11953*
G01X17010Y11953*
G01X17010Y12063*
G37*
G36*
G01X17010Y11669D02*
G01X17150Y11669D01*
G01X17150Y11559*
G01X17010Y11559*
G01X17010Y11669*
G37*
G36*
G01X17010Y11472D02*
G01X17150Y11472D01*
G01X17150Y11362*
G01X17010Y11362*
G01X17010Y11472*
G37*
G36*
G01X17010Y11079D02*
G01X17150Y11079D01*
G01X17150Y10969*
G01X17010Y10969*
G01X17010Y11079*
G37*
G36*
G01X17010Y10882D02*
G01X17150Y10882D01*
G01X17150Y10772*
G01X17010Y10772*
G01X17010Y10882*
G37*
G36*
G01X17010Y10488D02*
G01X17150Y10488D01*
G01X17150Y10378*
G01X17010Y10378*
G01X17010Y10488*
G37*
G36*
G01X17010Y10291D02*
G01X17150Y10291D01*
G01X17150Y10181*
G01X17010Y10181*
G01X17010Y10291*
G37*
G36*
G01X17010Y9898D02*
G01X17150Y9898D01*
G01X17150Y9788*
G01X17010Y9788*
G01X17010Y9898*
G37*
G36*
G01X17010Y9701D02*
G01X17150Y9701D01*
G01X17150Y9591*
G01X17010Y9591*
G01X17010Y9701*
G37*
G36*
G01X16195Y15299D02*
G01X16055Y15299D01*
G01X16055Y15409*
G01X16195Y15409*
G01X16195Y15299*
G37*
G36*
G01X18450Y1910D02*
G01X18310Y1910D01*
G01X18310Y2020*
G01X18450Y2020*
G01X18450Y1910*
G37*
G36*
G01X18450Y1713D02*
G01X18310Y1713D01*
G01X18310Y1823*
G01X18450Y1823*
G01X18450Y1713*
G37*
G36*
G01X16195Y1910D02*
G01X16055Y1910D01*
G01X16055Y2020*
G01X16195Y2020*
G01X16195Y1910*
G37*
G36*
G01X16195Y1713D02*
G01X16055Y1713D01*
G01X16055Y1823*
G01X16195Y1823*
G01X16195Y1713*
G37*
G36*
G01X17010Y1823D02*
G01X17150Y1823D01*
G01X17150Y1713*
G01X17010Y1713*
G01X17010Y1823*
G37*
G36*
G01X17010Y2020D02*
G01X17150Y2020D01*
G01X17150Y1910*
G01X17010Y1910*
G01X17010Y2020*
G37*
G36*
G01X19265Y1823D02*
G01X19405Y1823D01*
G01X19405Y1713*
G01X19265Y1713*
G01X19265Y1823*
G37*
G36*
G01X19265Y2020D02*
G01X19405Y2020D01*
G01X19405Y1910*
G01X19265Y1910*
G01X19265Y2020*
G37*
%ASAXBY*%
%FSLAX04Y04*%
%IPPOS*%
%LNGE-FS*%
%SFA1.0000B1.0000*%
%LPD*%
D20*
G01X15906Y882D02*
G75*
G03X15573Y664I-96J-218D01*
G03X15906Y882I238J0D01*
G01X18906Y986D02*
G75*
G03X18434Y664I-126J-322D01*
G03X18906Y986I346J0D01*
G01X19460Y1187D02*
G75*
G03X19145Y980I-90J-206D01*
G03X19460Y1187I225J0D01*
G01X755Y1205D02*
G75*
G03X421Y987I-96J-218D01*
G03X755Y1205I238D01*
G01X1646Y1310D02*
G75*
G03X1174Y987I-126J-322D01*
G03X1646Y1310I346D01*
G01X17845Y2180D02*
G01X17615D01*
G75*
G03X17515Y2080J-100D01*
G01Y820*
G75*
G03X17615Y720I100D01*
G01X17845*
G75*
G03X17945Y820J100D01*
G01Y2080*
G75*
G03X17845Y2180I-100D01*
G01Y4530D02*
G01X17615D01*
G75*
G03X17515Y4430J-100D01*
G01Y2320*
G75*
G03X17615Y2220I100D01*
G01X17845*
G75*
G03X17945Y2320J100D01*
G01Y4430*
G75*
G03X17845Y4530I-100D01*
G01X1525Y7294D02*
G75*
G03X1596Y6880I40J-206D01*
G01X1601*
G01X1607Y6875*
G75*
G03X1615Y6866I193J193D01*
G03X1525Y6703I120J-173D01*
G03X1596Y6289I40J-206D01*
G01X1601*
G01X1607Y6284*
G75*
G03X1799Y6204I193J193D01*
G01X3843*
G75*
G03X3858Y6202I24J120D01*
G01X3884Y6175*
G75*
G03X4234Y6389I152J145D01*
G03X4289Y6802I54J203D01*
G03X4202Y6783I0J-210D01*
G03X4234Y6980I-166J129D01*
G03X4289Y7393I54J203D01*
G03X4143Y7334I0J-210D01*
G01X4119Y7311*
G01X4117*
G01X1997*
G75*
G02X1966Y7317I0J78D01*
G01X1944Y7327*
G01X1930Y7361*
G75*
G03X1525Y7294I-195J-77D01*
G01X17080Y7566D02*
G01X16125D01*
G75*
G03X16025Y7466J-100D01*
G01Y7432*
G75*
G03X16002Y7421I30J-95D01*
G01X15925*
G75*
G03X15751Y7379I0J-380D01*
G01X15750*
G01X15739Y7383*
G75*
G03X15675Y6973I-64J-200D01*
G03X15731Y6980I0J210D01*
G03X15757Y6792I198J-69D01*
G03X15751Y6789I168J-341D01*
G01X15750*
G01X15739Y6792*
G75*
G03X15675Y6382I-64J-200D01*
G03X15731Y6390I0J210D01*
G03X15955Y6112I198J-69D01*
G01Y1713*
G75*
G03X16025Y1618I100J0D01*
G01Y1583*
G75*
G03X16125Y1483I100J0D01*
G01X17080*
G75*
G03X17180Y1583J100D01*
G01Y1618*
G75*
G03X17250Y1713I-30J95D01*
G01Y3475*
G75*
G03X17251Y3485I-100J10D01*
G01Y3595*
G75*
G03X17250Y3605I-100J0D01*
G01Y3672*
G75*
G03X17251Y3682I-99J10D01*
G01Y3792*
G75*
G03X17250Y3802I-100J0D01*
G01Y7336*
G75*
G03X17180Y7432I-100J0D01*
G01Y7466*
G75*
G03X17080Y7566I-100J0D01*
G01X17845Y8530D02*
G01X17615D01*
G75*
G03X17515Y8430J-100D01*
G01Y7170*
G75*
G03X17615Y7070I100D01*
G01X17715*
G01Y7030*
G01X17615*
G75*
G03X17515Y6930J-100D01*
G01Y4820*
G75*
G03X17615Y4720I100D01*
G01X17845*
G75*
G03X17945Y4820J100D01*
G01Y6530*
G75*
G03X18053Y6483I136J160D01*
G03X18210Y6291I210J11D01*
G01Y1713*
G75*
G03X18280Y1618I100J0D01*
G01Y1583*
G75*
G03X18380Y1483I100J0D01*
G01X19335*
G75*
G03X19435Y1583J100D01*
G01Y1618*
G75*
G03X19505Y1713I-30J95D01*
G01Y3475*
G75*
G03X19506Y3485I-100J10D01*
G01Y3595*
G75*
G03X19505Y3605I-100J0D01*
G01Y3672*
G75*
G03X19506Y3682I-100J10D01*
G01Y3792*
G75*
G03X19505Y3802I-100J0D01*
G01Y7336*
G75*
G03X19435Y7432I-100J0D01*
G01Y7466*
G75*
G03X19335Y7566I-100J0D01*
G01X18380*
G75*
G03X18280Y7466J-100D01*
G01Y7432*
G75*
G03X18257Y7421I30J-95D01*
G01X18238*
G01X18229Y7430*
G75*
G03X17945Y7442I-148J-148D01*
G01Y8430*
G75*
G03X17845Y8530I-100D01*
G01X3158Y9325D02*
G01X1672D01*
G75*
G03Y8905I0J-210D01*
G01X3158*
G75*
G03Y9325I0J210D01*
G01X1551Y15173D02*
G75*
G03X1565Y14754I13J-210D01*
G01X1601*
G01X1607Y14748*
G75*
G03X1627Y14730I193J193D01*
G03X1551Y14583I134J-162D01*
G03X1565Y14163I13J-210D01*
G01X1601*
G01X1607Y14158*
G75*
G03X1627Y14139I193J193D01*
G03X1551Y13992I134J-162D01*
G03X1565Y13573I13J-210D01*
G01X1601*
G01X1607Y13567*
G75*
G03X1627Y13549I193J193D01*
G03X1551Y13402I134J-162D01*
G03X1565Y12982I13J-210D01*
G01X1601*
G01X1607Y12977*
G75*
G03X1627Y12958I193J193D01*
G03X1551Y12811I134J-162D01*
G03X1565Y12391I13J-210D01*
G01X1601*
G01X1607Y12386*
G75*
G03X1627Y12367I193J193D01*
G03X1551Y12220I134J-162D01*
G03X1565Y11801I13J-210D01*
G01X1601*
G01X1607Y11796*
G75*
G03X1627Y11777I193J193D01*
G03X1551Y11630I134J-162D01*
G03X1565Y11210I13J-210D01*
G01X1601*
G01X1607Y11205*
G75*
G03X1627Y11186I193J193D01*
G03X1551Y11039I134J-162D01*
G03X1565Y10620I13J-210D01*
G01X1601*
G01X1607Y10615*
G75*
G03X1627Y10596I193J193D01*
G03X1551Y10449I134J-162D01*
G03X1565Y10029I13J-210D01*
G01X1601*
G01X1607Y10024*
G75*
G03X1627Y10005I193J193D01*
G03X1551Y9858I134J-162D01*
G03X1565Y9439I13J-210D01*
G01X1601*
G01X1607Y9433*
G75*
G03X1799Y9354I193J193D01*
G01X3859*
G01X3884Y9327*
G75*
G03X4234Y9541I152J145D01*
G03X4289Y9954I54J203D01*
G03X4202Y9935I0J-210D01*
G03X4234Y10131I-166J128D01*
G03X4289Y10544I54J203D01*
G03X4202Y10525I0J-210D01*
G03X4234Y10722I-166J128D01*
G03X4289Y11135I54J203D01*
G03X4202Y11116I0J-210D01*
G03X4234Y11312I-166J128D01*
G03X4289Y11725I54J203D01*
G03X4202Y11706I0J-210D01*
G03X4234Y11903I-166J128D01*
G03X4289Y12316I54J203D01*
G03X4202Y12297I0J-210D01*
G03X4234Y12494I-166J128D01*
G03X4289Y12906I54J203D01*
G03X4202Y12888I0J-210D01*
G03X4234Y13084I-166J128D01*
G03X4289Y13497I54J203D01*
G03X4202Y13478I0J-210D01*
G03X4234Y13675I-166J128D01*
G03X4289Y14088I54J203D01*
G03X4202Y14069I0J-210D01*
G03X4234Y14265I-166J128D01*
G03X4289Y14678I54J203D01*
G03X4202Y14659I0J-210D01*
G03X4234Y14856I-166J128D01*
G03X4289Y15269I54J203D01*
G03X4143Y15210I0J-210D01*
G01X4117Y15185*
G01X2023*
G75*
G02X1992Y15191I0J77D01*
G01X1970Y15201*
G01X1956Y15235*
G75*
G03X1551Y15173I-195J-77D01*
G01X17945Y16570D02*
G01Y17557D01*
G75*
G03X18053Y17509I136J160D01*
G03X18283Y17312I210J11D01*
G03X18380Y17236I97J24D01*
G01X19335*
G75*
G03X19375Y17244J100D01*
G01Y16796*
G75*
G02X19373Y16764I-220J0D01*
G01X19336Y16510*
G75*
G03X19330Y16427I574J-83D01*
G01Y15993*
G01X19320Y15971*
G75*
G03X19334Y15768I190J-89D01*
G01X19348Y15747*
G01X19364Y15635*
G75*
G03X19335Y15639I-29J-96D01*
G01X18380*
G75*
G03X18280Y15539J-100D01*
G01Y15505*
G75*
G03X18210Y15409I30J-95D01*
G01Y15323*
G75*
G03X17945Y15318I-129J-165D01*
G01Y16305*
G75*
G03X17845Y16405I-100D01*
G01X17745*
G01Y16470*
G01X17845*
G75*
G03X17945Y16570J100D01*
G01X1551Y23048D02*
G75*
G03X1565Y22629I13J-210D01*
G01X1601*
G01X1607Y22623*
G75*
G03X1627Y22605I193J193D01*
G03X1551Y22458I134J-162D01*
G03X1565Y22038I13J-210D01*
G01X1601*
G01X1607Y22033*
G75*
G03X1627Y22014I193J193D01*
G03X1551Y21867I134J-162D01*
G03X1565Y21448I13J-210D01*
G01X1601*
G01X1607Y21442*
G75*
G03X1627Y21424I193J193D01*
G03X1551Y21277I134J-162D01*
G03X1565Y20857I13J-210D01*
G01X1601*
G01X1607Y20852*
G75*
G03X1627Y20833I193J193D01*
G03X1551Y20686I134J-162D01*
G03X1565Y20266I13J-210D01*
G01X1601*
G01X1607Y20261*
G75*
G03X1627Y20242I193J193D01*
G03X1551Y20095I134J-162D01*
G03X1565Y19676I13J-210D01*
G01X1601*
G01X1607Y19671*
G75*
G03X1627Y19652I193J193D01*
G03X1551Y19505I134J-162D01*
G03X1565Y19085I13J-210D01*
G01X1601*
G01X1607Y19080*
G75*
G03X1627Y19061I193J193D01*
G03X1551Y18914I134J-162D01*
G03X1565Y18495I13J-210D01*
G01X1601*
G01X1607Y18490*
G75*
G03X1627Y18471I193J193D01*
G03X1551Y18324I134J-162D01*
G03X1565Y17904I13J-210D01*
G01X1601*
G01X1607Y17899*
G75*
G03X1627Y17880I193J193D01*
G03X1551Y17733I134J-162D01*
G03X1565Y17314I13J-210D01*
G01X1601*
G01X1607Y17308*
G75*
G03X1712Y17243I193J193D01*
G01X1672*
G75*
G03Y16823I0J-210D01*
G01X3158*
G75*
G03X3234Y17229I0J210D01*
G01X3859*
G01X3884Y17202*
G75*
G03X4234Y17416I152J145D01*
G03X4289Y17829I54J203D01*
G03X4202Y17810I0J-210D01*
G03X4234Y18006I-166J128D01*
G03X4289Y18419I54J203D01*
G03X4202Y18400I0J-210D01*
G03X4234Y18597I-166J128D01*
G03X4289Y19010I54J203D01*
G03X4202Y18991I0J-210D01*
G03X4234Y19187I-166J128D01*
G03X4289Y19600I54J203D01*
G03X4202Y19581I0J-210D01*
G03X4234Y19778I-166J128D01*
G03X4289Y20191I54J203D01*
G03X4202Y20172I0J-210D01*
G03X4234Y20369I-166J128D01*
G03X4289Y20781I54J203D01*
G03X4202Y20763I0J-210D01*
G03X4234Y20959I-166J128D01*
G03X4289Y21372I54J203D01*
G03X4202Y21353I0J-210D01*
G03X4234Y21550I-166J128D01*
G03X4289Y21963I54J203D01*
G03X4202Y21944I0J-210D01*
G03X4234Y22140I-166J128D01*
G03X4289Y22553I54J203D01*
G03X4202Y22534I0J-210D01*
G03X4234Y22731I-166J128D01*
G03X4289Y23144I54J203D01*
G03X4143Y23085I0J-210D01*
G01X4117Y23060*
G01X2023*
G75*
G02X1992Y23066I0J77D01*
G01X1970Y23076*
G01X1956Y23110*
G75*
G03X1551Y23048I-195J-77D01*
G01X17845Y24280D02*
G01X17615D01*
G75*
G03X17515Y24180J-100D01*
G01Y23673*
G75*
G03X17113Y23588I-192J-85D01*
G01Y23509*
G75*
G03X17080Y23514I-33J-94D01*
G01X16125*
G75*
G03X16025Y23414J-100D01*
G01Y23380*
G75*
G03X15955Y23284I30J-95D01*
G01Y23172*
G01X15925*
G75*
G03X15751Y23130I0J-380D01*
G01X15739Y23134*
G75*
G03X15728Y23137I-43J-133D01*
G03X15675Y22724I-53J-203D01*
G03X15731Y22731I0J210D01*
G03X15757Y22543I198J-69D01*
G03X15751Y22540I168J-341D01*
G01X15739Y22543*
G75*
G03X15728Y22546I-43J-133D01*
G03X15675Y22133I-53J-203D01*
G03X15731Y22141I0J210D01*
G03X15757Y21952I198J-69D01*
G03X15751Y21949I168J-341D01*
G01X15739Y21953*
G75*
G03X15728Y21956I-43J-133D01*
G03X15675Y21543I-53J-203D01*
G03X15731Y21550I0J210D01*
G03X15757Y21362I198J-69D01*
G03X15751Y21359I168J-341D01*
G01X15739Y21362*
G75*
G03X15728Y21365I-43J-133D01*
G03X15675Y20952I-53J-203D01*
G03X15731Y20960I0J210D01*
G03X15757Y20771I198J-69D01*
G03X15751Y20768I168J-341D01*
G01X15739Y20771*
G75*
G03X15728Y20775I-43J-133D01*
G03X15675Y20361I-53J-203D01*
G03X15731Y20369I0J210D01*
G03X15757Y20181I198J-69D01*
G03X15751Y20178I168J-341D01*
G01X15739Y20181*
G75*
G03X15728Y20184I-43J-133D01*
G03X15675Y19771I-53J-203D01*
G03X15731Y19779I0J210D01*
G03X15757Y19590I198J-69D01*
G03X15751Y19587I168J-341D01*
G01X15739Y19590*
G75*
G03X15728Y19594I-43J-133D01*
G03X15675Y19180I-53J-203D01*
G03X15731Y19188I0J210D01*
G03X15757Y19000I198J-69D01*
G03X15751Y18996I168J-341D01*
G01X15739Y19000*
G75*
G03X15728Y19003I-43J-133D01*
G03X15675Y18590I-53J-203D01*
G03X15731Y18597I0J210D01*
G03X15757Y18409I198J-69D01*
G03X15751Y18406I168J-341D01*
G01X15739Y18409*
G75*
G03X15728Y18412I-43J-133D01*
G03X15675Y17999I-53J-203D01*
G03X15731Y18007I0J210D01*
G03X15757Y17818I198J-69D01*
G03X15751Y17815I168J-341D01*
G01X15739Y17819*
G75*
G03X15728Y17822I-43J-133D01*
G03X15675Y17409I-53J-203D01*
G03X15731Y17416I0J210D01*
G03X16108Y17237I198J-69D01*
G03X16125Y17236I17J99D01*
G01X17080*
G75*
G03X17113Y17241J100D01*
G01Y15634*
G75*
G03X17080Y15639I-33J-94D01*
G01X16125*
G75*
G03X16025Y15539J-100D01*
G01Y15505*
G75*
G03X15955Y15409I30J-95D01*
G01Y15297*
G01X15925*
G75*
G03X15751Y15255I0J-380D01*
G01X15739Y15259*
G75*
G03X15728Y15262I-43J-133D01*
G03X15675Y14849I-53J-203D01*
G03X15731Y14856I0J210D01*
G03X15757Y14668I198J-69D01*
G03X15751Y14665I168J-341D01*
G01X15739Y14668*
G75*
G03X15728Y14671I-43J-133D01*
G03X15675Y14258I-53J-203D01*
G03X15731Y14266I0J210D01*
G03X15757Y14077I198J-69D01*
G03X15751Y14074I168J-341D01*
G01X15739Y14078*
G75*
G03X15728Y14081I-43J-133D01*
G03X15675Y13668I-53J-203D01*
G03X15731Y13675I0J210D01*
G03X15757Y13487I198J-69D01*
G03X15751Y13484I168J-341D01*
G01X15739Y13487*
G75*
G03X15728Y13490I-43J-133D01*
G03X15675Y13077I-53J-203D01*
G03X15731Y13085I0J210D01*
G03X15757Y12896I198J-69D01*
G03X15751Y12893I168J-341D01*
G01X15739Y12896*
G75*
G03X15728Y12900I-43J-133D01*
G03X15675Y12486I-53J-203D01*
G03X15731Y12494I0J210D01*
G03X15757Y12306I198J-69D01*
G03X15751Y12303I168J-341D01*
G01X15739Y12306*
G75*
G03X15728Y12309I-43J-133D01*
G03X15675Y11896I-53J-203D01*
G03X15731Y11904I0J210D01*
G03X15757Y11715I198J-69D01*
G03X15751Y11712I168J-341D01*
G01X15739Y11715*
G75*
G03X15728Y11719I-43J-133D01*
G03X15675Y11305I-53J-203D01*
G03X15731Y11313I0J210D01*
G03X15757Y11125I198J-69D01*
G03X15751Y11121I168J-341D01*
G01X15739Y11125*
G75*
G03X15728Y11128I-43J-133D01*
G03X15675Y10715I-53J-203D01*
G03X15731Y10722I0J210D01*
G03X15757Y10534I198J-69D01*
G03X15751Y10531I168J-341D01*
G01X15739Y10534*
G75*
G03X15728Y10537I-43J-133D01*
G03X15675Y10124I-53J-203D01*
G03X15731Y10132I0J210D01*
G03X15757Y9943I198J-69D01*
G03X15751Y9940I168J-341D01*
G01X15739Y9944*
G75*
G03X15728Y9947I-43J-133D01*
G03X15675Y9534I-53J-203D01*
G03X15731Y9541I0J210D01*
G03X16108Y9362I198J-69D01*
G03X16125Y9361I17J99D01*
G01X17080*
G75*
G03X17113Y9366J100D01*
G01Y9115*
G75*
G03X17515Y9031I210D01*
G01Y8695*
G75*
G03X17615Y8595I100D01*
G01X17845*
G75*
G03X17945Y8695J100D01*
G01Y9682*
G75*
G03X18053Y9634I136J160D01*
G03X18283Y9437I210J11D01*
G03X18380Y9361I97J24D01*
G01X19335*
G75*
G03X19375Y9369J100D01*
G01Y8862*
G75*
G02X19371Y8819I-220J0D01*
G01X19341Y8674*
G75*
G03X19330Y8559I569J-114D01*
G01Y8121*
G01X19320Y8099*
G75*
G03X19720Y8010I190J-89D01*
G03X19700Y8099I-210D01*
G01X19690Y8121*
G01Y8559*
G75*
G02X19694Y8603I220J0D01*
G01X19724Y8748*
G75*
G03X19735Y8862I-569J114D01*
G01Y15541*
G75*
G03X19729Y15623I-580J0D01*
G01X19704Y15798*
G01X19711Y15822*
G75*
G03X19700Y15971I-201J61D01*
G01X19690Y15993*
G01Y16427*
G75*
G02X19692Y16458I220J0D01*
G01X19729Y16713*
G75*
G03X19735Y16796I-574J83D01*
G01Y23299*
G75*
G03X19726Y23400I-580D01*
G01X19707Y23511*
G01X19713Y23534*
G75*
G03X19300Y23588I-203J54D01*
G03X19314Y23514I210J0D01*
G01X18380*
G75*
G03X18283Y23438J-100D01*
G03X18053Y23241I-20J-209D01*
G03X17945Y23193I27J-208D01*
G01Y24180*
G75*
G03X17845Y24280I-100D01*
G01X1361Y23705D02*
G01X925D01*
G75*
G02X794Y23728J390D01*
G01X648Y23780*
G75*
G03X340Y23593I-98J-186D01*
G03X480Y23394I210J-1D01*
G01X654Y23332*
G75*
G03X925Y23285I271J763D01*
G01X2812*
G75*
G03X3136Y23353I0J810D01*
G01X3242Y23399*
G75*
G03X3074Y23784I-84J192D01*
G01X2968Y23738*
G75*
G02X2812Y23705I-156J357D01*
G01X1679*
G75*
G03X1866Y24012I-159J307D01*
G03X1174I-346D01*
G03X1361Y23705I346D01*
G01X19523Y24554D02*
G75*
G03X19189Y24336I-96J-218D01*
G03X19523Y24554I238J0D01*
G01X15985Y24565D02*
G75*
G03X15670Y24359I-90J-206D01*
G03X15985Y24565I225J0D01*
G01X3747Y24599D02*
G75*
G03X3413Y24381I-96J-218D01*
G03X3747Y24599I238D01*
G01X18906Y24658D02*
G75*
G03X18434Y24336I-126J-322D01*
G03X18906Y24658I346J0D01*
G01X19700Y24840D02*
G75*
G02X19840Y24700J-140D01*
G01Y300*
G75*
G02X19700Y160I-140D01*
G01X300*
G75*
G02X160Y300J140D01*
G01Y24700*
G75*
G02X300Y24840I140D01*
G01X19700*
%ASAXBY*%
%FSLAX04Y04*%
%IPPOS*%
%LNGP-FS*%
%SFA1.0000B1.0000*%
%LPD*%
D20*
G01X18200Y15330D02*
G01X18210D01*
G01X17945D02*
G01X17961D01*
G01X17945Y15400D02*
G01X18210D01*
G01X17945Y15470D02*
G01X18231D01*
G01X17945Y15540D02*
G01X18280D01*
G01X17945Y15610D02*
G01X18309D01*
G01X17945Y15680D02*
G01X19357D01*
G01X17945Y15750D02*
G01X19346D01*
G01X17945Y15820D02*
G01X19310D01*
G01X17945Y15890D02*
G01X19300D01*
G01X17945Y15960D02*
G01X19315D01*
G01X17945Y16030D02*
G01X19330D01*
G01X17945Y16100D02*
G01X19330D01*
G01X17945Y16170D02*
G01X19330D01*
G01X17945Y16240D02*
G01X19330D01*
G01X17945Y16310D02*
G01X19330D01*
G01X17911Y16380D02*
G01X19330D01*
G01X17745Y16450D02*
G01X19330D01*
G01X17932Y16520D02*
G01X19337D01*
G01X17945Y16590D02*
G01X19348D01*
G01X17945Y16660D02*
G01X19358D01*
G01X17945Y16730D02*
G01X19368D01*
G01X17945Y16800D02*
G01X19375D01*
G01X17945Y16870D02*
G01X19375D01*
G01X17945Y16940D02*
G01X19375D01*
G01X17945Y17010D02*
G01X19375D01*
G01X17945Y17080D02*
G01X19375D01*
G01X17945Y17150D02*
G01X19375D01*
G01X17945Y17220D02*
G01X19375D01*
G01X17945Y17290D02*
G01X18291D01*
G01X17945Y17360D02*
G01X18128D01*
G01X17945Y17430D02*
G01X18074D01*
G01X17945Y17500D02*
G01X18054D01*
G01X193Y210D02*
G01X19807D01*
G01X161Y280D02*
G01X19839D01*
G01X18926Y350D02*
G01X19840D01*
G01X160D02*
G01X18634D01*
G01X19026Y420D02*
G01X19840D01*
G01X160D02*
G01X18534D01*
G01X15973Y490D02*
G01X18481D01*
G01X19079D02*
G01X19840D01*
G01X160D02*
G01X15648D01*
G01X16025Y560D02*
G01X18450D01*
G01X19110D02*
G01X19840D01*
G01X160D02*
G01X15596D01*
G01X16046Y630D02*
G01X18436D01*
G01X19124D02*
G01X19840D01*
G01X160D02*
G01X15575D01*
G01X16046Y700D02*
G01X18436D01*
G01X1713D02*
G01X15575D01*
G01X19124D02*
G01X19840D01*
G01X160D02*
G01X1327D01*
G01X16024Y770D02*
G01X17528D01*
G01X17932D02*
G01X18451D01*
G01X1789D02*
G01X15598D01*
G01X19109D02*
G01X19290D01*
G01X756D02*
G01X1251D01*
G01X19449D02*
G01X19840D01*
G01X160D02*
G01X563D01*
G01X15971Y840D02*
G01X17515D01*
G01X17945D02*
G01X18482D01*
G01X1833D02*
G01X15651D01*
G01X19078D02*
G01X19194D01*
G01X846D02*
G01X1207D01*
G01X19546D02*
G01X19840D01*
G01X160D02*
G01X472D01*
G01X17945Y910D02*
G01X18537D01*
G01X1857D02*
G01X17515D01*
G01X19023D02*
G01X19156D01*
G01X884D02*
G01X1183D01*
G01X19584D02*
G01X19840D01*
G01X160D02*
G01X434D01*
G01X17945Y980D02*
G01X18640D01*
G01X1866D02*
G01X17515D01*
G01X18920D02*
G01X19145D01*
G01X897D02*
G01X1174D01*
G01X19595D02*
G01X19840D01*
G01X160D02*
G01X421D01*
G01X1860Y1050D02*
G01X17515D01*
G01X17945D02*
G01X19156D01*
G01X889D02*
G01X1180D01*
G01X19584D02*
G01X19840D01*
G01X160D02*
G01X430D01*
G01X1840Y1120D02*
G01X17515D01*
G01X17945D02*
G01X19193D01*
G01X857D02*
G01X1200D01*
G01X19546D02*
G01X19840D01*
G01X160D02*
G01X461D01*
G01X1801Y1190D02*
G01X17515D01*
G01X17945D02*
G01X19288D01*
G01X784D02*
G01X1239D01*
G01X19452D02*
G01X19840D01*
G01X160D02*
G01X534D01*
G01X1733Y1260D02*
G01X17515D01*
G01X17945D02*
G01X19840D01*
G01X160D02*
G01X1307D01*
G01X1569Y1330D02*
G01X17515D01*
G01X17945D02*
G01X19840D01*
G01X160D02*
G01X1471D01*
G01X17945Y1400D02*
G01X19840D01*
G01X160D02*
G01X17515D01*
G01X17945Y1470D02*
G01X19840D01*
G01X160D02*
G01X17515D01*
G01X17945Y1540D02*
G01X18290D01*
G01X17170D02*
G01X17515D01*
G01X19425D02*
G01X19840D01*
G01X160D02*
G01X16035D01*
G01X17945Y1610D02*
G01X18280D01*
G01X17180D02*
G01X17515D01*
G01X19435D02*
G01X19840D01*
G01X160D02*
G01X16025D01*
G01X17945Y1680D02*
G01X18216D01*
G01X17244D02*
G01X17515D01*
G01X19499D02*
G01X19840D01*
G01X160D02*
G01X15961D01*
G01X17945Y1750D02*
G01X18210D01*
G01X17250D02*
G01X17515D01*
G01X19505D02*
G01X19840D01*
G01X160D02*
G01X15955D01*
G01X17945Y1820D02*
G01X18210D01*
G01X17250D02*
G01X17515D01*
G01X19505D02*
G01X19840D01*
G01X160D02*
G01X15955D01*
G01X17945Y1890D02*
G01X18210D01*
G01X17250D02*
G01X17515D01*
G01X19505D02*
G01X19840D01*
G01X160D02*
G01X15955D01*
G01X17945Y1960D02*
G01X18210D01*
G01X17250D02*
G01X17515D01*
G01X19505D02*
G01X19840D01*
G01X160D02*
G01X15955D01*
G01X17945Y2030D02*
G01X18210D01*
G01X17250D02*
G01X17515D01*
G01X19505D02*
G01X19840D01*
G01X160D02*
G01X15955D01*
G01X17943Y2100D02*
G01X18210D01*
G01X17250D02*
G01X17517D01*
G01X19505D02*
G01X19840D01*
G01X160D02*
G01X15955D01*
G01X17889Y2170D02*
G01X18210D01*
G01X17250D02*
G01X17571D01*
G01X19505D02*
G01X19840D01*
G01X160D02*
G01X15955D01*
G01X17905Y2240D02*
G01X18210D01*
G01X17250D02*
G01X17555D01*
G01X19505D02*
G01X19840D01*
G01X160D02*
G01X15955D01*
G01X17944Y2310D02*
G01X18210D01*
G01X17250D02*
G01X17516D01*
G01X19505D02*
G01X19840D01*
G01X160D02*
G01X15955D01*
G01X17945Y2380D02*
G01X18210D01*
G01X17250D02*
G01X17515D01*
G01X19505D02*
G01X19840D01*
G01X160D02*
G01X15955D01*
G01X17945Y2450D02*
G01X18210D01*
G01X17250D02*
G01X17515D01*
G01X19505D02*
G01X19840D01*
G01X160D02*
G01X15955D01*
G01X17945Y2520D02*
G01X18210D01*
G01X17250D02*
G01X17515D01*
G01X19505D02*
G01X19840D01*
G01X160D02*
G01X15955D01*
G01X17945Y2590D02*
G01X18210D01*
G01X17250D02*
G01X17515D01*
G01X19505D02*
G01X19840D01*
G01X160D02*
G01X15955D01*
G01X17945Y2660D02*
G01X18210D01*
G01X17250D02*
G01X17515D01*
G01X19505D02*
G01X19840D01*
G01X160D02*
G01X15955D01*
G01X17945Y2730D02*
G01X18210D01*
G01X17250D02*
G01X17515D01*
G01X19505D02*
G01X19840D01*
G01X160D02*
G01X15955D01*
G01X17945Y2800D02*
G01X18210D01*
G01X17250D02*
G01X17515D01*
G01X19505D02*
G01X19840D01*
G01X160D02*
G01X15955D01*
G01X17945Y2870D02*
G01X18210D01*
G01X17250D02*
G01X17515D01*
G01X19505D02*
G01X19840D01*
G01X160D02*
G01X15955D01*
G01X17945Y2940D02*
G01X18210D01*
G01X17250D02*
G01X17515D01*
G01X19505D02*
G01X19840D01*
G01X160D02*
G01X15955D01*
G01X17945Y3010D02*
G01X18210D01*
G01X17250D02*
G01X17515D01*
G01X19505D02*
G01X19840D01*
G01X160D02*
G01X15955D01*
G01X17945Y3080D02*
G01X18210D01*
G01X17250D02*
G01X17515D01*
G01X19505D02*
G01X19840D01*
G01X160D02*
G01X15955D01*
G01X17945Y3150D02*
G01X18210D01*
G01X17250D02*
G01X17515D01*
G01X19505D02*
G01X19840D01*
G01X160D02*
G01X15955D01*
G01X17945Y3220D02*
G01X18210D01*
G01X17250D02*
G01X17515D01*
G01X19505D02*
G01X19840D01*
G01X160D02*
G01X15955D01*
G01X17945Y3290D02*
G01X18210D01*
G01X17250D02*
G01X17515D01*
G01X19505D02*
G01X19840D01*
G01X160D02*
G01X15955D01*
G01X17945Y3360D02*
G01X18210D01*
G01X17250D02*
G01X17515D01*
G01X19505D02*
G01X19840D01*
G01X160D02*
G01X15955D01*
G01X17945Y3430D02*
G01X18210D01*
G01X17250D02*
G01X17515D01*
G01X19505D02*
G01X19840D01*
G01X160D02*
G01X15955D01*
G01X17945Y3500D02*
G01X18210D01*
G01X17251D02*
G01X17515D01*
G01X19506D02*
G01X19840D01*
G01X160D02*
G01X15955D01*
G01X17945Y3570D02*
G01X18210D01*
G01X17251D02*
G01X17515D01*
G01X19506D02*
G01X19840D01*
G01X160D02*
G01X15955D01*
G01X17945Y3640D02*
G01X18210D01*
G01X17250D02*
G01X17515D01*
G01X19505D02*
G01X19840D01*
G01X160D02*
G01X15955D01*
G01X17945Y3710D02*
G01X18210D01*
G01X17251D02*
G01X17515D01*
G01X19506D02*
G01X19840D01*
G01X160D02*
G01X15955D01*
G01X17945Y3780D02*
G01X18210D01*
G01X17251D02*
G01X17515D01*
G01X19506D02*
G01X19840D01*
G01X160D02*
G01X15955D01*
G01X17945Y3850D02*
G01X18210D01*
G01X17250D02*
G01X17515D01*
G01X19505D02*
G01X19840D01*
G01X160D02*
G01X15955D01*
G01X17945Y3920D02*
G01X18210D01*
G01X17250D02*
G01X17515D01*
G01X19505D02*
G01X19840D01*
G01X160D02*
G01X15955D01*
G01X17945Y3990D02*
G01X18210D01*
G01X17250D02*
G01X17515D01*
G01X19505D02*
G01X19840D01*
G01X160D02*
G01X15955D01*
G01X17945Y4060D02*
G01X18210D01*
G01X17250D02*
G01X17515D01*
G01X19505D02*
G01X19840D01*
G01X160D02*
G01X15955D01*
G01X17945Y4130D02*
G01X18210D01*
G01X17250D02*
G01X17515D01*
G01X19505D02*
G01X19840D01*
G01X160D02*
G01X15955D01*
G01X17945Y4200D02*
G01X18210D01*
G01X17250D02*
G01X17515D01*
G01X19505D02*
G01X19840D01*
G01X160D02*
G01X15955D01*
G01X17945Y4270D02*
G01X18210D01*
G01X17250D02*
G01X17515D01*
G01X19505D02*
G01X19840D01*
G01X160D02*
G01X15955D01*
G01X17945Y4340D02*
G01X18210D01*
G01X17250D02*
G01X17515D01*
G01X19505D02*
G01X19840D01*
G01X160D02*
G01X15955D01*
G01X17945Y4410D02*
G01X18210D01*
G01X17250D02*
G01X17515D01*
G01X19505D02*
G01X19840D01*
G01X160D02*
G01X15955D01*
G01X17932Y4480D02*
G01X18210D01*
G01X17250D02*
G01X17528D01*
G01X19505D02*
G01X19840D01*
G01X160D02*
G01X15955D01*
G01X17250Y4550D02*
G01X18210D01*
G01X19505D02*
G01X19840D01*
G01X160D02*
G01X15955D01*
G01X17250Y4620D02*
G01X18210D01*
G01X19505D02*
G01X19840D01*
G01X160D02*
G01X15955D01*
G01X17250Y4690D02*
G01X18210D01*
G01X19505D02*
G01X19840D01*
G01X160D02*
G01X15955D01*
G01X17925Y4760D02*
G01X18210D01*
G01X17250D02*
G01X17535D01*
G01X19505D02*
G01X19840D01*
G01X160D02*
G01X15955D01*
G01X17945Y4830D02*
G01X18210D01*
G01X17250D02*
G01X17515D01*
G01X19505D02*
G01X19840D01*
G01X160D02*
G01X15955D01*
G01X17945Y4900D02*
G01X18210D01*
G01X17250D02*
G01X17515D01*
G01X19505D02*
G01X19840D01*
G01X160D02*
G01X15955D01*
G01X17945Y4970D02*
G01X18210D01*
G01X17250D02*
G01X17515D01*
G01X19505D02*
G01X19840D01*
G01X160D02*
G01X15955D01*
G01X17945Y5040D02*
G01X18210D01*
G01X17250D02*
G01X17515D01*
G01X19505D02*
G01X19840D01*
G01X160D02*
G01X15955D01*
G01X17945Y5110D02*
G01X18210D01*
G01X17250D02*
G01X17515D01*
G01X19505D02*
G01X19840D01*
G01X160D02*
G01X15955D01*
G01X17945Y5180D02*
G01X18210D01*
G01X17250D02*
G01X17515D01*
G01X19505D02*
G01X19840D01*
G01X160D02*
G01X15955D01*
G01X17945Y5250D02*
G01X18210D01*
G01X17250D02*
G01X17515D01*
G01X19505D02*
G01X19840D01*
G01X160D02*
G01X15955D01*
G01X17945Y5320D02*
G01X18210D01*
G01X17250D02*
G01X17515D01*
G01X19505D02*
G01X19840D01*
G01X160D02*
G01X15955D01*
G01X17945Y5390D02*
G01X18210D01*
G01X17250D02*
G01X17515D01*
G01X19505D02*
G01X19840D01*
G01X160D02*
G01X15955D01*
G01X17945Y5460D02*
G01X18210D01*
G01X17250D02*
G01X17515D01*
G01X19505D02*
G01X19840D01*
G01X160D02*
G01X15955D01*
G01X17945Y5530D02*
G01X18210D01*
G01X17250D02*
G01X17515D01*
G01X19505D02*
G01X19840D01*
G01X160D02*
G01X15955D01*
G01X17945Y5600D02*
G01X18210D01*
G01X17250D02*
G01X17515D01*
G01X19505D02*
G01X19840D01*
G01X160D02*
G01X15955D01*
G01X17945Y5670D02*
G01X18210D01*
G01X17250D02*
G01X17515D01*
G01X19505D02*
G01X19840D01*
G01X160D02*
G01X15955D01*
G01X17945Y5740D02*
G01X18210D01*
G01X17250D02*
G01X17515D01*
G01X19505D02*
G01X19840D01*
G01X160D02*
G01X15955D01*
G01X17945Y5810D02*
G01X18210D01*
G01X17250D02*
G01X17515D01*
G01X19505D02*
G01X19840D01*
G01X160D02*
G01X15955D01*
G01X17945Y5880D02*
G01X18210D01*
G01X17250D02*
G01X17515D01*
G01X19505D02*
G01X19840D01*
G01X160D02*
G01X15955D01*
G01X17945Y5950D02*
G01X18210D01*
G01X17250D02*
G01X17515D01*
G01X19505D02*
G01X19840D01*
G01X160D02*
G01X15955D01*
G01X17945Y6020D02*
G01X18210D01*
G01X17250D02*
G01X17515D01*
G01X19505D02*
G01X19840D01*
G01X160D02*
G01X15955D01*
G01X17945Y6090D02*
G01X18210D01*
G01X17250D02*
G01X17515D01*
G01X19505D02*
G01X19840D01*
G01X160D02*
G01X15955D01*
G01X17250Y6160D02*
G01X17515D01*
G01X17945D02*
G01X18210D01*
G01X4171D02*
G01X15795D01*
G01X19505D02*
G01X19840D01*
G01X160D02*
G01X3901D01*
G01X17250Y6230D02*
G01X17515D01*
G01X17945D02*
G01X18210D01*
G01X4225D02*
G01X15740D01*
G01X19505D02*
G01X19840D01*
G01X160D02*
G01X1683D01*
G01X17250Y6300D02*
G01X17515D01*
G01X17945D02*
G01X18182D01*
G01X4245D02*
G01X15721D01*
G01X19505D02*
G01X19840D01*
G01X160D02*
G01X1491D01*
G01X17250Y6370D02*
G01X17515D01*
G01X17945D02*
G01X18093D01*
G01X4240D02*
G01X15726D01*
G01X19505D02*
G01X19840D01*
G01X160D02*
G01X1397D01*
G01X17250Y6440D02*
G01X17515D01*
G01X17945D02*
G01X18060D01*
G01X4434D02*
G01X15530D01*
G01X19505D02*
G01X19840D01*
G01X160D02*
G01X1362D01*
G01X17250Y6510D02*
G01X17515D01*
G01X17945D02*
G01X17974D01*
G01X4482D02*
G01X15482D01*
G01X19505D02*
G01X19840D01*
G01X160D02*
G01X1355D01*
G01X17250Y6580D02*
G01X17515D01*
G01X4498D02*
G01X15465D01*
G01X19505D02*
G01X19840D01*
G01X160D02*
G01X1372D01*
G01X17250Y6650D02*
G01X17515D01*
G01X4490D02*
G01X15473D01*
G01X19505D02*
G01X19840D01*
G01X160D02*
G01X1421D01*
G01X17250Y6720D02*
G01X17515D01*
G01X4455D02*
G01X15509D01*
G01X19505D02*
G01X19840D01*
G01X160D02*
G01X1527D01*
G01X15745Y6790D02*
G01X15754D01*
G01X4358D02*
G01X15605D01*
G01X17250D02*
G01X17515D01*
G01X4207D02*
G01X4219D01*
G01X19505D02*
G01X19840D01*
G01X160D02*
G01X1548D01*
G01X17250Y6860D02*
G01X17515D01*
G01X4239D02*
G01X15726D01*
G01X19505D02*
G01X19840D01*
G01X160D02*
G01X1607D01*
G01X17250Y6930D02*
G01X17515D01*
G01X4245D02*
G01X15721D01*
G01X19505D02*
G01X19840D01*
G01X160D02*
G01X1426D01*
G01X17250Y7000D02*
G01X17544D01*
G01X4392D02*
G01X15571D01*
G01X19505D02*
G01X19840D01*
G01X160D02*
G01X1374D01*
G01X17250Y7070D02*
G01X17615D01*
G01X4466D02*
G01X15498D01*
G01X19505D02*
G01X19840D01*
G01X160D02*
G01X1355D01*
G01X17250Y7140D02*
G01X17520D01*
G01X4494D02*
G01X15469D01*
G01X19505D02*
G01X19840D01*
G01X160D02*
G01X1361D01*
G01X17250Y7210D02*
G01X17515D01*
G01X4497D02*
G01X15467D01*
G01X19505D02*
G01X19840D01*
G01X160D02*
G01X1394D01*
G01X17250Y7280D02*
G01X17515D01*
G01X4475D02*
G01X15489D01*
G01X19505D02*
G01X19840D01*
G01X160D02*
G01X1481D01*
G01X4415Y7350D02*
G01X15548D01*
G01X17249D02*
G01X17515D01*
G01X1935D02*
G01X4162D01*
G01X19504D02*
G01X19840D01*
G01X160D02*
G01X1535D01*
G01X17205Y7420D02*
G01X17515D01*
G01X1895D02*
G01X15892D01*
G01X19460D02*
G01X19840D01*
G01X160D02*
G01X1575D01*
G01X17945Y7490D02*
G01X18056D01*
G01X17177D02*
G01X17515D01*
G01X18105D02*
G01X18283D01*
G01X1778D02*
G01X16028D01*
G01X19432D02*
G01X19840D01*
G01X160D02*
G01X1692D01*
G01X17945Y7560D02*
G01X18345D01*
G01X17115D02*
G01X17515D01*
G01X19370D02*
G01X19840D01*
G01X160D02*
G01X16090D01*
G01X17945Y7630D02*
G01X19840D01*
G01X160D02*
G01X17515D01*
G01X17945Y7700D02*
G01X19840D01*
G01X160D02*
G01X17515D01*
G01X17945Y7770D02*
G01X19840D01*
G01X160D02*
G01X17515D01*
G01X17945Y7840D02*
G01X19386D01*
G01X19634D02*
G01X19840D01*
G01X160D02*
G01X17515D01*
G01X17945Y7910D02*
G01X19325D01*
G01X19695D02*
G01X19840D01*
G01X160D02*
G01X17515D01*
G01X17945Y7980D02*
G01X19302D01*
G01X19718D02*
G01X19840D01*
G01X160D02*
G01X17515D01*
G01X17945Y8050D02*
G01X19304D01*
G01X19716D02*
G01X19840D01*
G01X160D02*
G01X17515D01*
G01X17945Y8120D02*
G01X19330D01*
G01X19690D02*
G01X19840D01*
G01X160D02*
G01X17515D01*
G01X17945Y8190D02*
G01X19330D01*
G01X19690D02*
G01X19840D01*
G01X160D02*
G01X17515D01*
G01X17945Y8260D02*
G01X19330D01*
G01X19690D02*
G01X19840D01*
G01X160D02*
G01X17515D01*
G01X17945Y8330D02*
G01X19330D01*
G01X19690D02*
G01X19840D01*
G01X160D02*
G01X17515D01*
G01X17945Y8400D02*
G01X19330D01*
G01X19690D02*
G01X19840D01*
G01X160D02*
G01X17515D01*
G01X17937Y8470D02*
G01X19330D01*
G01X19690D02*
G01X19840D01*
G01X160D02*
G01X17523D01*
G01X19690Y8540D02*
G01X19840D01*
G01X160D02*
G01X19330D01*
G01X17898Y8610D02*
G01X19332D01*
G01X19696D02*
G01X19840D01*
G01X160D02*
G01X17562D01*
G01X17944Y8680D02*
G01X19343D01*
G01X19710D02*
G01X19840D01*
G01X160D02*
G01X17516D01*
G01X17945Y8750D02*
G01X19357D01*
G01X19724D02*
G01X19840D01*
G01X160D02*
G01X17515D01*
G01X17945Y8820D02*
G01X19371D01*
G01X19733D02*
G01X19840D01*
G01X160D02*
G01X17515D01*
G01X17945Y8890D02*
G01X19375D01*
G01X19735D02*
G01X19840D01*
G01X160D02*
G01X17515D01*
G01X17464Y8960D02*
G01X17515D01*
G01X17945D02*
G01X19375D01*
G01X3300D02*
G01X17181D01*
G01X19735D02*
G01X19840D01*
G01X160D02*
G01X1531D01*
G01X17945Y9030D02*
G01X19375D01*
G01X3350D02*
G01X17131D01*
G01X19735D02*
G01X19840D01*
G01X160D02*
G01X1480D01*
G01X17945Y9100D02*
G01X19375D01*
G01X3368D02*
G01X17113D01*
G01X19735D02*
G01X19840D01*
G01X160D02*
G01X1463D01*
G01X17945Y9170D02*
G01X19375D01*
G01X3361D02*
G01X17113D01*
G01X19735D02*
G01X19840D01*
G01X160D02*
G01X1469D01*
G01X17945Y9240D02*
G01X19375D01*
G01X3327D02*
G01X17113D01*
G01X19735D02*
G01X19840D01*
G01X160D02*
G01X1503D01*
G01X16063Y9310D02*
G01X17113D01*
G01X4168D02*
G01X15797D01*
G01X17945D02*
G01X19375D01*
G01X3237D02*
G01X3903D01*
G01X19735D02*
G01X19840D01*
G01X160D02*
G01X1594D01*
G01X17945Y9380D02*
G01X18321D01*
G01X4224D02*
G01X15741D01*
G01X19735D02*
G01X19840D01*
G01X160D02*
G01X1682D01*
G01X17945Y9450D02*
G01X18187D01*
G01X4244D02*
G01X15721D01*
G01X19735D02*
G01X19840D01*
G01X160D02*
G01X1497D01*
G01X17945Y9520D02*
G01X18095D01*
G01X4240D02*
G01X15725D01*
G01X19735D02*
G01X19840D01*
G01X160D02*
G01X1399D01*
G01X17945Y9590D02*
G01X18060D01*
G01X4432D02*
G01X15532D01*
G01X19735D02*
G01X19840D01*
G01X160D02*
G01X1363D01*
G01X17945Y9660D02*
G01X17977D01*
G01X4481D02*
G01X15482D01*
G01X19735D02*
G01X19840D01*
G01X160D02*
G01X1355D01*
G01X4498Y9730D02*
G01X15465D01*
G01X19735D02*
G01X19840D01*
G01X160D02*
G01X1371D01*
G01X4491Y9800D02*
G01X15473D01*
G01X19735D02*
G01X19840D01*
G01X160D02*
G01X1419D01*
G01X4456Y9870D02*
G01X15507D01*
G01X19735D02*
G01X19840D01*
G01X160D02*
G01X1553D01*
G01X4363Y9940D02*
G01X15601D01*
G01X4206D02*
G01X4214D01*
G01X19735D02*
G01X19840D01*
G01X160D02*
G01X1574D01*
G01X4239Y10010D02*
G01X15727D01*
G01X19735D02*
G01X19840D01*
G01X160D02*
G01X1622D01*
G01X4245Y10080D02*
G01X15720D01*
G01X19735D02*
G01X19840D01*
G01X160D02*
G01X1428D01*
G01X4390Y10150D02*
G01X15574D01*
G01X19735D02*
G01X19840D01*
G01X160D02*
G01X1375D01*
G01X4465Y10220D02*
G01X15499D01*
G01X19735D02*
G01X19840D01*
G01X160D02*
G01X1356D01*
G01X4494Y10290D02*
G01X15470D01*
G01X19735D02*
G01X19840D01*
G01X160D02*
G01X1361D01*
G01X4497Y10360D02*
G01X15467D01*
G01X19735D02*
G01X19840D01*
G01X160D02*
G01X1393D01*
G01X4476Y10430D02*
G01X15488D01*
G01X19735D02*
G01X19840D01*
G01X160D02*
G01X1477D01*
G01X4418Y10500D02*
G01X15546D01*
G01X19735D02*
G01X19840D01*
G01X160D02*
G01X1562D01*
G01X4228Y10570D02*
G01X15737D01*
G01X19735D02*
G01X19840D01*
G01X160D02*
G01X1601D01*
G01X4245Y10640D02*
G01X15720D01*
G01X19735D02*
G01X19840D01*
G01X160D02*
G01X1475D01*
G01X4238Y10710D02*
G01X15727D01*
G01X19735D02*
G01X19840D01*
G01X160D02*
G01X1392D01*
G01X4441Y10780D02*
G01X15523D01*
G01X19735D02*
G01X19840D01*
G01X160D02*
G01X1361D01*
G01X4485Y10850D02*
G01X15479D01*
G01X19735D02*
G01X19840D01*
G01X160D02*
G01X1356D01*
G01X4499Y10920D02*
G01X15465D01*
G01X19735D02*
G01X19840D01*
G01X160D02*
G01X1375D01*
G01X4488Y10990D02*
G01X15475D01*
G01X19735D02*
G01X19840D01*
G01X160D02*
G01X1429D01*
G01X4449Y11060D02*
G01X15514D01*
G01X19735D02*
G01X19840D01*
G01X160D02*
G01X1554D01*
G01X4333Y11130D02*
G01X15631D01*
G01X15719D02*
G01X15754D01*
G01X4212D02*
G01X4244D01*
G01X19735D02*
G01X19840D01*
G01X160D02*
G01X1579D01*
G01X4241Y11200D02*
G01X15725D01*
G01X19735D02*
G01X19840D01*
G01X160D02*
G01X1612D01*
G01X4244Y11270D02*
G01X15721D01*
G01X19735D02*
G01X19840D01*
G01X160D02*
G01X1418D01*
G01X4404Y11340D02*
G01X15559D01*
G01X19735D02*
G01X19840D01*
G01X160D02*
G01X1371D01*
G01X4470Y11410D02*
G01X15493D01*
G01X19735D02*
G01X19840D01*
G01X160D02*
G01X1355D01*
G01X4496Y11480D02*
G01X15468D01*
G01X19735D02*
G01X19840D01*
G01X160D02*
G01X1363D01*
G01X4496Y11550D02*
G01X15468D01*
G01X19735D02*
G01X19840D01*
G01X160D02*
G01X1399D01*
G01X4471Y11620D02*
G01X15493D01*
G01X19735D02*
G01X19840D01*
G01X160D02*
G01X1500D01*
G01X4405Y11690D02*
G01X15558D01*
G01X19735D02*
G01X19840D01*
G01X160D02*
G01X1565D01*
G01X4232Y11760D02*
G01X15734D01*
G01X19735D02*
G01X19840D01*
G01X160D02*
G01X1609D01*
G01X4246Y11830D02*
G01X15720D01*
G01X19735D02*
G01X19840D01*
G01X160D02*
G01X1458D01*
G01X4330Y11900D02*
G01X15634D01*
G01X15717D02*
G01X15730D01*
G01X4235D02*
G01X4247D01*
G01X19735D02*
G01X19840D01*
G01X160D02*
G01X1386D01*
G01X4449Y11970D02*
G01X15515D01*
G01X19735D02*
G01X19840D01*
G01X160D02*
G01X1359D01*
G01X4488Y12040D02*
G01X15476D01*
G01X19735D02*
G01X19840D01*
G01X160D02*
G01X1357D01*
G01X4499Y12110D02*
G01X15465D01*
G01X19735D02*
G01X19840D01*
G01X160D02*
G01X1380D01*
G01X4485Y12180D02*
G01X15479D01*
G01X19735D02*
G01X19840D01*
G01X160D02*
G01X1440D01*
G01X4441Y12250D02*
G01X15522D01*
G01X19735D02*
G01X19840D01*
G01X160D02*
G01X1556D01*
G01X4217Y12320D02*
G01X15748D01*
G01X19735D02*
G01X19840D01*
G01X160D02*
G01X1585D01*
G01X4243Y12390D02*
G01X15723D01*
G01X19735D02*
G01X19840D01*
G01X160D02*
G01X1603D01*
G01X4243Y12460D02*
G01X15723D01*
G01X19735D02*
G01X19840D01*
G01X160D02*
G01X1409D01*
G01X4417Y12530D02*
G01X15547D01*
G01X19735D02*
G01X19840D01*
G01X160D02*
G01X1367D01*
G01X4475Y12600D02*
G01X15488D01*
G01X19735D02*
G01X19840D01*
G01X160D02*
G01X1355D01*
G01X4497Y12670D02*
G01X15467D01*
G01X19735D02*
G01X19840D01*
G01X160D02*
G01X1366D01*
G01X4494Y12740D02*
G01X15470D01*
G01X19735D02*
G01X19840D01*
G01X160D02*
G01X1407D01*
G01X4465Y12810D02*
G01X15498D01*
G01X19735D02*
G01X19840D01*
G01X160D02*
G01X1540D01*
G01X4391Y12880D02*
G01X15573D01*
G01X19735D02*
G01X19840D01*
G01X160D02*
G01X1568D01*
G01X4235Y12950D02*
G01X15730D01*
G01X19735D02*
G01X19840D01*
G01X160D02*
G01X1618D01*
G01X4246Y13020D02*
G01X15720D01*
G01X19735D02*
G01X19840D01*
G01X160D02*
G01X1444D01*
G01X4362Y13090D02*
G01X15602D01*
G01X19735D02*
G01X19840D01*
G01X160D02*
G01X1381D01*
G01X4456Y13160D02*
G01X15508D01*
G01X19735D02*
G01X19840D01*
G01X160D02*
G01X1357D01*
G01X4491Y13230D02*
G01X15473D01*
G01X19735D02*
G01X19840D01*
G01X160D02*
G01X1358D01*
G01X4498Y13300D02*
G01X15465D01*
G01X19735D02*
G01X19840D01*
G01X160D02*
G01X1385D01*
G01X4482Y13370D02*
G01X15482D01*
G01X19735D02*
G01X19840D01*
G01X160D02*
G01X1453D01*
G01X4432Y13440D02*
G01X15531D01*
G01X19735D02*
G01X19840D01*
G01X160D02*
G01X1558D01*
G01X4222Y13510D02*
G01X15743D01*
G01X19735D02*
G01X19840D01*
G01X160D02*
G01X1591D01*
G01X4244Y13580D02*
G01X15721D01*
G01X19735D02*
G01X19840D01*
G01X160D02*
G01X1509D01*
G01X4241Y13650D02*
G01X15724D01*
G01X19735D02*
G01X19840D01*
G01X160D02*
G01X1402D01*
G01X4428Y13720D02*
G01X15536D01*
G01X19735D02*
G01X19840D01*
G01X160D02*
G01X1364D01*
G01X4480Y13790D02*
G01X15484D01*
G01X19735D02*
G01X19840D01*
G01X160D02*
G01X1355D01*
G01X4498Y13860D02*
G01X15466D01*
G01X19735D02*
G01X19840D01*
G01X160D02*
G01X1369D01*
G01X4492Y13930D02*
G01X15472D01*
G01X19735D02*
G01X19840D01*
G01X160D02*
G01X1415D01*
G01X4459Y14000D02*
G01X15504D01*
G01X19735D02*
G01X19840D01*
G01X160D02*
G01X1552D01*
G01X4373Y14070D02*
G01X15591D01*
G01X19735D02*
G01X19840D01*
G01X160D02*
G01X1573D01*
G01X4238Y14140D02*
G01X15728D01*
G01X19735D02*
G01X19840D01*
G01X160D02*
G01X1626D01*
G01X4245Y14210D02*
G01X15720D01*
G01X19735D02*
G01X19840D01*
G01X160D02*
G01X1432D01*
G01X4382Y14280D02*
G01X15582D01*
G01X19735D02*
G01X19840D01*
G01X160D02*
G01X1376D01*
G01X4462Y14350D02*
G01X15501D01*
G01X19735D02*
G01X19840D01*
G01X160D02*
G01X1356D01*
G01X4493Y14420D02*
G01X15471D01*
G01X19735D02*
G01X19840D01*
G01X160D02*
G01X1360D01*
G01X4498Y14490D02*
G01X15466D01*
G01X19735D02*
G01X19840D01*
G01X160D02*
G01X1390D01*
G01X4477Y14560D02*
G01X15486D01*
G01X19735D02*
G01X19840D01*
G01X160D02*
G01X1469D01*
G01X4422Y14630D02*
G01X15541D01*
G01X19735D02*
G01X19840D01*
G01X160D02*
G01X1560D01*
G01X4226Y14700D02*
G01X15739D01*
G01X19735D02*
G01X19840D01*
G01X160D02*
G01X1598D01*
G01X4245Y14770D02*
G01X15721D01*
G01X19735D02*
G01X19840D01*
G01X160D02*
G01X1483D01*
G01X4239Y14840D02*
G01X15726D01*
G01X19735D02*
G01X19840D01*
G01X160D02*
G01X1395D01*
G01X4437Y14910D02*
G01X15527D01*
G01X19735D02*
G01X19840D01*
G01X160D02*
G01X1362D01*
G01X4483Y14980D02*
G01X15480D01*
G01X19735D02*
G01X19840D01*
G01X160D02*
G01X1355D01*
G01X4498Y15050D02*
G01X15465D01*
G01X19735D02*
G01X19840D01*
G01X160D02*
G01X1373D01*
G01X4489Y15120D02*
G01X15474D01*
G01X19735D02*
G01X19840D01*
G01X160D02*
G01X1424D01*
G01X4452Y15190D02*
G01X15511D01*
G01X1995D02*
G01X4122D01*
G01X19735D02*
G01X19840D01*
G01X160D02*
G01X1553D01*
G01X4348Y15260D02*
G01X15616D01*
G01X15735D02*
G01X15761D01*
G01X1944D02*
G01X4229D01*
G01X19735D02*
G01X19840D01*
G01X160D02*
G01X1577D01*
G01X1882Y15330D02*
G01X15955D01*
G01X19735D02*
G01X19840D01*
G01X160D02*
G01X1640D01*
G01X19735Y15400D02*
G01X19840D01*
G01X160D02*
G01X15955D01*
G01X19735Y15470D02*
G01X19840D01*
G01X160D02*
G01X15976D01*
G01X19735Y15540D02*
G01X19840D01*
G01X160D02*
G01X16025D01*
G01X19731Y15610D02*
G01X19840D01*
G01X160D02*
G01X16054D01*
G01X19721Y15680D02*
G01X19840D01*
G01X160D02*
G01X17113D01*
G01X19711Y15750D02*
G01X19840D01*
G01X160D02*
G01X17113D01*
G01X19710Y15820D02*
G01X19840D01*
G01X160D02*
G01X17113D01*
G01X19720Y15890D02*
G01X19840D01*
G01X160D02*
G01X17113D01*
G01X19705Y15960D02*
G01X19840D01*
G01X160D02*
G01X17113D01*
G01X19690Y16030D02*
G01X19840D01*
G01X160D02*
G01X17113D01*
G01X19690Y16100D02*
G01X19840D01*
G01X160D02*
G01X17113D01*
G01X19690Y16170D02*
G01X19840D01*
G01X160D02*
G01X17113D01*
G01X19690Y16240D02*
G01X19840D01*
G01X160D02*
G01X17113D01*
G01X19690Y16310D02*
G01X19840D01*
G01X160D02*
G01X17113D01*
G01X19690Y16380D02*
G01X19840D01*
G01X160D02*
G01X17113D01*
G01X19691Y16450D02*
G01X19840D01*
G01X160D02*
G01X17113D01*
G01X19701Y16520D02*
G01X19840D01*
G01X160D02*
G01X17113D01*
G01X19711Y16590D02*
G01X19840D01*
G01X160D02*
G01X17113D01*
G01X19721Y16660D02*
G01X19840D01*
G01X160D02*
G01X17113D01*
G01X19731Y16730D02*
G01X19840D01*
G01X160D02*
G01X17113D01*
G01X19735Y16800D02*
G01X19840D01*
G01X160D02*
G01X17113D01*
G01X3291Y16870D02*
G01X17113D01*
G01X19735D02*
G01X19840D01*
G01X160D02*
G01X1540D01*
G01X3347Y16940D02*
G01X17113D01*
G01X19735D02*
G01X19840D01*
G01X160D02*
G01X1484D01*
G01X3367Y17010D02*
G01X17113D01*
G01X19735D02*
G01X19840D01*
G01X160D02*
G01X1463D01*
G01X3363Y17080D02*
G01X17113D01*
G01X19735D02*
G01X19840D01*
G01X160D02*
G01X1468D01*
G01X4107Y17150D02*
G01X15859D01*
G01X16001D02*
G01X17113D01*
G01X3333D02*
G01X3965D01*
G01X19735D02*
G01X19840D01*
G01X160D02*
G01X1498D01*
G01X4202Y17220D02*
G01X15763D01*
G01X16097D02*
G01X17113D01*
G01X3254D02*
G01X3867D01*
G01X19735D02*
G01X19840D01*
G01X160D02*
G01X1577D01*
G01X4237Y17290D02*
G01X15728D01*
G01X19735D02*
G01X19840D01*
G01X160D02*
G01X1627D01*
G01X4245Y17360D02*
G01X15720D01*
G01X19735D02*
G01X19840D01*
G01X160D02*
G01X1433D01*
G01X4381Y17430D02*
G01X15583D01*
G01X19735D02*
G01X19840D01*
G01X160D02*
G01X1377D01*
G01X4462Y17500D02*
G01X15502D01*
G01X19735D02*
G01X19840D01*
G01X160D02*
G01X1356D01*
G01X4493Y17570D02*
G01X15471D01*
G01X19735D02*
G01X19840D01*
G01X160D02*
G01X1360D01*
G01X4498Y17640D02*
G01X15466D01*
G01X19735D02*
G01X19840D01*
G01X160D02*
G01X1390D01*
G01X4478Y17710D02*
G01X15486D01*
G01X19735D02*
G01X19840D01*
G01X160D02*
G01X1468D01*
G01X4423Y17780D02*
G01X15541D01*
G01X19735D02*
G01X19840D01*
G01X160D02*
G01X1560D01*
G01X4226Y17850D02*
G01X15739D01*
G01X19735D02*
G01X19840D01*
G01X160D02*
G01X1597D01*
G01X4245Y17920D02*
G01X15721D01*
G01X19735D02*
G01X19840D01*
G01X160D02*
G01X1485D01*
G01X4239Y17990D02*
G01X15726D01*
G01X19735D02*
G01X19840D01*
G01X160D02*
G01X1395D01*
G01X4436Y18060D02*
G01X15527D01*
G01X19735D02*
G01X19840D01*
G01X160D02*
G01X1362D01*
G01X4483Y18130D02*
G01X15481D01*
G01X19735D02*
G01X19840D01*
G01X160D02*
G01X1355D01*
G01X4498Y18200D02*
G01X15465D01*
G01X19735D02*
G01X19840D01*
G01X160D02*
G01X1373D01*
G01X4490Y18270D02*
G01X15474D01*
G01X19735D02*
G01X19840D01*
G01X160D02*
G01X1424D01*
G01X4453Y18340D02*
G01X15511D01*
G01X19735D02*
G01X19840D01*
G01X160D02*
G01X1553D01*
G01X4350Y18410D02*
G01X15614D01*
G01X15737D02*
G01X15757D01*
G01X4209D02*
G01X4227D01*
G01X19735D02*
G01X19840D01*
G01X160D02*
G01X1577D01*
G01X4240Y18480D02*
G01X15726D01*
G01X19735D02*
G01X19840D01*
G01X160D02*
G01X1617D01*
G01X4244Y18550D02*
G01X15721D01*
G01X19735D02*
G01X19840D01*
G01X160D02*
G01X1423D01*
G01X4397Y18620D02*
G01X15566D01*
G01X19735D02*
G01X19840D01*
G01X160D02*
G01X1372D01*
G01X4468Y18690D02*
G01X15496D01*
G01X19735D02*
G01X19840D01*
G01X160D02*
G01X1355D01*
G01X4495Y18760D02*
G01X15469D01*
G01X19735D02*
G01X19840D01*
G01X160D02*
G01X1362D01*
G01X4496Y18830D02*
G01X15467D01*
G01X19735D02*
G01X19840D01*
G01X160D02*
G01X1396D01*
G01X4473Y18900D02*
G01X15490D01*
G01X19735D02*
G01X19840D01*
G01X160D02*
G01X1487D01*
G01X4412Y18970D02*
G01X15552D01*
G01X19735D02*
G01X19840D01*
G01X160D02*
G01X1563D01*
G01X4230Y19040D02*
G01X15735D01*
G01X19735D02*
G01X19840D01*
G01X160D02*
G01X1605D01*
G01X4245Y19110D02*
G01X15720D01*
G01X19735D02*
G01X19840D01*
G01X160D02*
G01X1466D01*
G01X4237Y19180D02*
G01X15729D01*
G01X19735D02*
G01X19840D01*
G01X160D02*
G01X1389D01*
G01X4445Y19250D02*
G01X15519D01*
G01X19735D02*
G01X19840D01*
G01X160D02*
G01X1360D01*
G01X4487Y19320D02*
G01X15477D01*
G01X19735D02*
G01X19840D01*
G01X160D02*
G01X1356D01*
G01X4499Y19390D02*
G01X15465D01*
G01X19735D02*
G01X19840D01*
G01X160D02*
G01X1377D01*
G01X4487Y19460D02*
G01X15477D01*
G01X19735D02*
G01X19840D01*
G01X160D02*
G01X1434D01*
G01X4445Y19530D02*
G01X15518D01*
G01X19735D02*
G01X19840D01*
G01X160D02*
G01X1555D01*
G01X4300Y19600D02*
G01X15664D01*
G01X15686D02*
G01X15751D01*
G01X4215D02*
G01X4277D01*
G01X19735D02*
G01X19840D01*
G01X160D02*
G01X1582D01*
G01X4242Y19670D02*
G01X15724D01*
G01X19735D02*
G01X19840D01*
G01X160D02*
G01X1607D01*
G01X4243Y19740D02*
G01X15722D01*
G01X19735D02*
G01X19840D01*
G01X160D02*
G01X1414D01*
G01X4411Y19810D02*
G01X15553D01*
G01X19735D02*
G01X19840D01*
G01X160D02*
G01X1369D01*
G01X4473Y19880D02*
G01X15491D01*
G01X19735D02*
G01X19840D01*
G01X160D02*
G01X1355D01*
G01X4496Y19950D02*
G01X15467D01*
G01X19735D02*
G01X19840D01*
G01X160D02*
G01X1365D01*
G01X4495Y20020D02*
G01X15469D01*
G01X19735D02*
G01X19840D01*
G01X160D02*
G01X1403D01*
G01X4468Y20090D02*
G01X15496D01*
G01X19735D02*
G01X19840D01*
G01X160D02*
G01X1515D01*
G01X4398Y20160D02*
G01X15565D01*
G01X19735D02*
G01X19840D01*
G01X160D02*
G01X1566D01*
G01X4233Y20230D02*
G01X15732D01*
G01X19735D02*
G01X19840D01*
G01X160D02*
G01X1613D01*
G01X4246Y20300D02*
G01X15720D01*
G01X19735D02*
G01X19840D01*
G01X160D02*
G01X1451D01*
G01X4348Y20370D02*
G01X15616D01*
G01X19735D02*
G01X19840D01*
G01X160D02*
G01X1384D01*
G01X4452Y20440D02*
G01X15511D01*
G01X19735D02*
G01X19840D01*
G01X160D02*
G01X1358D01*
G01X4489Y20510D02*
G01X15474D01*
G01X19735D02*
G01X19840D01*
G01X160D02*
G01X1357D01*
G01X4498Y20580D02*
G01X15465D01*
G01X19735D02*
G01X19840D01*
G01X160D02*
G01X1382D01*
G01X4483Y20650D02*
G01X15480D01*
G01X19735D02*
G01X19840D01*
G01X160D02*
G01X1446D01*
G01X4437Y20720D02*
G01X15527D01*
G01X19735D02*
G01X19840D01*
G01X160D02*
G01X1557D01*
G01X4220Y20790D02*
G01X15746D01*
G01X19735D02*
G01X19840D01*
G01X160D02*
G01X1588D01*
G01X4243Y20860D02*
G01X15722D01*
G01X19735D02*
G01X19840D01*
G01X160D02*
G01X1529D01*
G01X4242Y20930D02*
G01X15723D01*
G01X19735D02*
G01X19840D01*
G01X160D02*
G01X1405D01*
G01X4422Y21000D02*
G01X15541D01*
G01X19735D02*
G01X19840D01*
G01X160D02*
G01X1366D01*
G01X4477Y21070D02*
G01X15486D01*
G01X19735D02*
G01X19840D01*
G01X160D02*
G01X1355D01*
G01X4498Y21140D02*
G01X15466D01*
G01X19735D02*
G01X19840D01*
G01X160D02*
G01X1368D01*
G01X4493Y21210D02*
G01X15471D01*
G01X19735D02*
G01X19840D01*
G01X160D02*
G01X1411D01*
G01X4462Y21280D02*
G01X15501D01*
G01X19735D02*
G01X19840D01*
G01X160D02*
G01X1552D01*
G01X4382Y21350D02*
G01X15582D01*
G01X19735D02*
G01X19840D01*
G01X160D02*
G01X1570D01*
G01X4236Y21420D02*
G01X15729D01*
G01X19735D02*
G01X19840D01*
G01X160D02*
G01X1623D01*
G01X4245Y21490D02*
G01X15720D01*
G01X19735D02*
G01X19840D01*
G01X160D02*
G01X1438D01*
G01X4373Y21560D02*
G01X15591D01*
G01X19735D02*
G01X19840D01*
G01X160D02*
G01X1379D01*
G01X4459Y21630D02*
G01X15504D01*
G01X19735D02*
G01X19840D01*
G01X160D02*
G01X1356D01*
G01X4492Y21700D02*
G01X15472D01*
G01X19735D02*
G01X19840D01*
G01X160D02*
G01X1359D01*
G01X4498Y21770D02*
G01X15466D01*
G01X19735D02*
G01X19840D01*
G01X160D02*
G01X1387D01*
G01X4480Y21840D02*
G01X15484D01*
G01X19735D02*
G01X19840D01*
G01X160D02*
G01X1461D01*
G01X4428Y21910D02*
G01X15536D01*
G01X19735D02*
G01X19840D01*
G01X160D02*
G01X1559D01*
G01X4224Y21980D02*
G01X15741D01*
G01X19735D02*
G01X19840D01*
G01X160D02*
G01X1594D01*
G01X4244Y22050D02*
G01X15721D01*
G01X19735D02*
G01X19840D01*
G01X160D02*
G01X1495D01*
G01X4240Y22120D02*
G01X15725D01*
G01X19735D02*
G01X19840D01*
G01X160D02*
G01X1398D01*
G01X4432Y22190D02*
G01X15531D01*
G01X19735D02*
G01X19840D01*
G01X160D02*
G01X1363D01*
G01X4482Y22260D02*
G01X15482D01*
G01X19735D02*
G01X19840D01*
G01X160D02*
G01X1355D01*
G01X4498Y22330D02*
G01X15465D01*
G01X19735D02*
G01X19840D01*
G01X160D02*
G01X1371D01*
G01X4491Y22400D02*
G01X15473D01*
G01X19735D02*
G01X19840D01*
G01X160D02*
G01X1420D01*
G01X4456Y22470D02*
G01X15508D01*
G01X19735D02*
G01X19840D01*
G01X160D02*
G01X1553D01*
G01X4362Y22540D02*
G01X15602D01*
G01X15749D02*
G01X15752D01*
G01X4206D02*
G01X4216D01*
G01X19735D02*
G01X19840D01*
G01X160D02*
G01X1575D01*
G01X4239Y22610D02*
G01X15726D01*
G01X19735D02*
G01X19840D01*
G01X160D02*
G01X1621D01*
G01X4245Y22680D02*
G01X15721D01*
G01X19735D02*
G01X19840D01*
G01X160D02*
G01X1427D01*
G01X4391Y22750D02*
G01X15573D01*
G01X19735D02*
G01X19840D01*
G01X160D02*
G01X1374D01*
G01X4465Y22820D02*
G01X15498D01*
G01X19735D02*
G01X19840D01*
G01X160D02*
G01X1355D01*
G01X4494Y22890D02*
G01X15470D01*
G01X19735D02*
G01X19840D01*
G01X160D02*
G01X1361D01*
G01X4497Y22960D02*
G01X15467D01*
G01X19735D02*
G01X19840D01*
G01X160D02*
G01X1393D01*
G01X4475Y23030D02*
G01X15488D01*
G01X19735D02*
G01X19840D01*
G01X160D02*
G01X1478D01*
G01X4417Y23100D02*
G01X15547D01*
G01X1960D02*
G01X4161D01*
G01X19735D02*
G01X19840D01*
G01X160D02*
G01X1562D01*
G01X1920Y23170D02*
G01X15882D01*
G01X19735D02*
G01X19840D01*
G01X160D02*
G01X1602D01*
G01X17945Y23240D02*
G01X18048D01*
G01X1797D02*
G01X15955D01*
G01X19735D02*
G01X19840D01*
G01X160D02*
G01X1725D01*
G01X17945Y23310D02*
G01X18069D01*
G01X3011D02*
G01X15958D01*
G01X19735D02*
G01X19840D01*
G01X160D02*
G01X726D01*
G01X17945Y23380D02*
G01X18117D01*
G01X3198D02*
G01X16025D01*
G01X19729D02*
G01X19840D01*
G01X160D02*
G01X518D01*
G01X17945Y23450D02*
G01X18287D01*
G01X3313D02*
G01X16032D01*
G01X19717D02*
G01X19840D01*
G01X160D02*
G01X395D01*
G01X17945Y23520D02*
G01X19311D01*
G01X3356D02*
G01X17113D01*
G01X19709D02*
G01X19840D01*
G01X160D02*
G01X353D01*
G01X17945Y23590D02*
G01X19300D01*
G01X3368D02*
G01X17113D01*
G01X19720D02*
G01X19840D01*
G01X160D02*
G01X340D01*
G01X17945Y23660D02*
G01X19313D01*
G01X3357D02*
G01X17125D01*
G01X19707D02*
G01X19840D01*
G01X160D02*
G01X351D01*
G01X3316Y23730D02*
G01X17168D01*
G01X17478D02*
G01X17515D01*
G01X1720D02*
G01X2949D01*
G01X17945D02*
G01X19355D01*
G01X788D02*
G01X1320D01*
G01X19665D02*
G01X19840D01*
G01X160D02*
G01X390D01*
G01X1793Y23800D02*
G01X3132D01*
G01X3185D02*
G01X17515D01*
G01X591D02*
G01X1247D01*
G01X17945D02*
G01X19840D01*
G01X160D02*
G01X509D01*
G01X1835Y23870D02*
G01X17515D01*
G01X17945D02*
G01X19840D01*
G01X160D02*
G01X1205D01*
G01X1858Y23940D02*
G01X17515D01*
G01X17945D02*
G01X19840D01*
G01X160D02*
G01X1182D01*
G01X17945Y24010D02*
G01X18665D01*
G01X1866D02*
G01X17515D01*
G01X18895D02*
G01X19840D01*
G01X160D02*
G01X1174D01*
G01X17945Y24080D02*
G01X18548D01*
G01X1859D02*
G01X17515D01*
G01X19012D02*
G01X19840D01*
G01X160D02*
G01X1181D01*
G01X15977Y24150D02*
G01X17515D01*
G01X17945D02*
G01X18488D01*
G01X3707D02*
G01X15812D01*
G01X19072D02*
G01X19279D01*
G01X1838D02*
G01X3596D01*
G01X19575D02*
G01X19840D01*
G01X160D02*
G01X1202D01*
G01X16071Y24220D02*
G01X17523D01*
G01X17937D02*
G01X18454D01*
G01X3826D02*
G01X15718D01*
G01X19106D02*
G01X19220D01*
G01X1797D02*
G01X3476D01*
G01X19635D02*
G01X19840D01*
G01X160D02*
G01X1243D01*
G01X16109Y24290D02*
G01X18437D01*
G01X3871D02*
G01X15681D01*
G01X19123D02*
G01X19194D01*
G01X1727D02*
G01X3432D01*
G01X19661D02*
G01X19840D01*
G01X160D02*
G01X1313D01*
G01X16120Y24360D02*
G01X18435D01*
G01X19125D02*
G01X19190D01*
G01X3888D02*
G01X15670D01*
G01X19664D02*
G01X19840D01*
G01X160D02*
G01X3414D01*
G01X16108Y24430D02*
G01X18447D01*
G01X19113D02*
G01X19208D01*
G01X3884D02*
G01X15681D01*
G01X19646D02*
G01X19840D01*
G01X160D02*
G01X3418D01*
G01X16070Y24500D02*
G01X18475D01*
G01X19085D02*
G01X19254D01*
G01X3858D02*
G01X15719D01*
G01X19600D02*
G01X19840D01*
G01X160D02*
G01X3445D01*
G01X15974Y24570D02*
G01X18525D01*
G01X19035D02*
G01X19382D01*
G01X3797D02*
G01X15816D01*
G01X19472D02*
G01X19840D01*
G01X160D02*
G01X3506D01*
G01X18946Y24640D02*
G01X19840D01*
G01X160D02*
G01X18614D01*
G01X160Y24710D02*
G01X19840D01*
G01X185Y24780D02*
G01X19815D01*
%ASAXBY*%
%FSLAX04Y04*%
%IPPOS*%
%LNLND-FS*%
%SFA1.0000B1.0000*%
%LPD*%
D30*
G01X16603Y4919D03*
G01Y4722D03*
G01X16602Y5509D03*
G01Y5312D03*
G01X16603Y6100D03*
G01Y5903D03*
G01X16602Y6691D03*
G01Y6494D03*
G01X16603Y7281D03*
G01Y7085D03*
G01X18858Y23229D03*
G01Y23032D03*
G01Y22836D03*
G01X16603Y23229D03*
G01Y23032D03*
G01Y22836D03*
D31*
G01X17730Y23550D03*
D30*
G01X18858Y21458D03*
G01Y21655D03*
G01Y22639D03*
G01Y22442D03*
G01Y22245D03*
G01Y22048D03*
G01Y21851D03*
G01Y20867D03*
G01Y20670D03*
G01Y20473D03*
G01Y20277D03*
G01Y21261D03*
G01Y21064D03*
G01Y18899D03*
G01Y20080D03*
G01Y19686D03*
G01Y19489D03*
G01Y19292D03*
G01Y19095D03*
G01Y19883D03*
G01Y18308D03*
G01Y18505D03*
G01Y18111D03*
G01Y17914D03*
G01Y17718D03*
G01Y18702D03*
G01Y17521D03*
G01Y15157D03*
G01Y15354D03*
G01Y13780D03*
G01Y13976D03*
G01Y14370D03*
G01Y14567D03*
G01Y14764D03*
G01Y14961D03*
G01Y14173D03*
G01Y13386D03*
G01Y13583D03*
G01Y12598D03*
G01Y12795D03*
G01Y13189D03*
G01Y12992D03*
G01Y10039D03*
G01Y11220D03*
G01Y11811D03*
G01Y12008D03*
G01Y11417D03*
G01Y11614D03*
G01Y12205D03*
G01Y12402D03*
G01Y10236D03*
G01Y10827D03*
G01Y11024D03*
G01Y10630D03*
G01Y10433D03*
G01Y9843D03*
G01Y9646D03*
D31*
G01X17730Y17200D03*
D30*
G01X16603Y21655D03*
G01Y20867D03*
G01Y20670D03*
G01Y20473D03*
G01Y20277D03*
G01Y21458D03*
G01Y21261D03*
G01Y21064D03*
G01Y22639D03*
G01Y22442D03*
G01Y22245D03*
G01Y22048D03*
G01Y21851D03*
D32*
G01X17730Y21625D03*
D30*
G01X16603Y18308D03*
G01Y18505D03*
G01Y18111D03*
G01Y17914D03*
G01Y17718D03*
G01Y20080D03*
G01Y19489D03*
G01Y19292D03*
G01Y19095D03*
G01Y18899D03*
G01Y18702D03*
G01Y19883D03*
G01Y19686D03*
D32*
G01X17730Y19125D03*
D30*
G01X16603Y15157D03*
G01Y17521D03*
G01Y15354D03*
D31*
G01X17730Y15675D03*
D30*
G01X16603Y13386D03*
G01Y13583D03*
G01Y12598D03*
G01Y12795D03*
G01Y13189D03*
G01Y12992D03*
G01Y13780D03*
G01Y13976D03*
G01Y14370D03*
G01Y14567D03*
G01Y14764D03*
G01Y14961D03*
G01Y14173D03*
D32*
G01X17730Y13750D03*
D30*
G01X16603Y10039D03*
G01Y10236D03*
G01Y11811D03*
G01Y12008D03*
G01Y10827D03*
G01Y11024D03*
G01Y11220D03*
G01Y11417D03*
G01Y11614D03*
G01Y10630D03*
G01Y10433D03*
G01Y12205D03*
G01Y12402D03*
D32*
G01X17730Y11250D03*
D30*
G01X16603Y9843D03*
G01Y9646D03*
D31*
G01X17730Y9325D03*
D30*
G01X18858Y1965D03*
G01Y1768D03*
D31*
G01X17730Y7800D03*
D32*
G01Y5875D03*
G01Y3375D03*
D31*
G01Y1450D03*
D30*
G01X18858Y2556D03*
G01Y2359D03*
G01Y3147D03*
G01Y2950D03*
G01X18858Y3737D03*
G01Y3540D03*
G01X18858Y4328D03*
G01Y4131D03*
G01Y4919D03*
G01Y4722D03*
G01Y5509D03*
G01Y5312D03*
G01Y6100D03*
G01Y5903D03*
G01Y6691D03*
G01Y6494D03*
G01Y7281D03*
G01Y7085D03*
G01X16603Y1965D03*
G01Y1768D03*
G01Y2556D03*
G01Y2359D03*
G01Y3147D03*
G01Y2950D03*
G01Y3737D03*
G01Y3540D03*
G01Y4328D03*
G01Y4131D03*
%ASAXBY*%
%FSLAX04Y04*%
%IPPOS*%
%LNPAD-CM*%
%SFA1.0000B1.0000*%
%LPD*%
D17*
G01X1565Y13783D03*
G01X4036Y13607D03*
G01X15930D03*
G01X18263Y13780D03*
G01X4289Y13878D03*
G01X15675D03*
G01X18081Y13976D03*
G01X1565Y14373D03*
G01X4036Y14197D03*
G01X15930D03*
G01X18263Y14370D03*
G01X4289Y14468D03*
G01X15675D03*
G01X18081Y14567D03*
G01X1565Y14964D03*
G01X4036Y14788D03*
G01X15930D03*
G01X18263Y14961D03*
G01X4289Y15059D03*
G01X15675D03*
G01X18081Y15157D03*
G01X1565Y17524D03*
G01X4036Y17348D03*
G01X15930D03*
G01X18263Y17521D03*
G01X4289Y17619D03*
G01X15675D03*
G01X18081Y17718D03*
G01X1565Y18114D03*
G01X4036Y17938D03*
G01X15930D03*
G01X18263Y18111D03*
G01X4289Y18209D03*
G01X15675D03*
G01X18081Y18308D03*
G01X1565Y18705D03*
G01X4036Y18529D03*
G01X15930D03*
G01X18263Y18702D03*
G01X4289Y18800D03*
G01X15675D03*
G01X18081Y18899D03*
G01X1565Y19295D03*
G01X4036Y19119D03*
G01X15930D03*
G01X18263Y19292D03*
G01X4289Y19390D03*
G01X15675D03*
G01X18081Y19489D03*
G01X1565Y19886D03*
G01X4036Y19710D03*
G01X15930D03*
G01X18263Y19883D03*
G01X4289Y19981D03*
G01X15675D03*
G01X18081Y20080D03*
G01X1565Y20476D03*
G01X4036Y20300D03*
G01X15930D03*
G01X18263Y20473D03*
G01X4289Y20571D03*
G01X15675D03*
G01X18081Y20670D03*
G01X1565Y21067D03*
G01X4036Y20891D03*
G01X15930D03*
G01X18263Y21064D03*
G01X4289Y21162D03*
G01X15675D03*
G01X18081Y21261D03*
G01X1565Y21658D03*
G01X4036Y21482D03*
G01X15930D03*
G01X18263Y21655D03*
G01X4289Y21753D03*
G01X15675D03*
G01X18081Y21851D03*
G01X1565Y22248D03*
G01X4036Y22072D03*
G01X15930D03*
G01X18263Y22245D03*
G01X4289Y22343D03*
G01X15675D03*
G01X18081Y22442D03*
G01X1565Y22839D03*
G01X4036Y22663D03*
G01X15930D03*
G01X18263Y22836D03*
G01X4289Y22934D03*
G01X15675D03*
G01X1761Y23033D03*
G01X18081Y23032D03*
G01X230Y16438D03*
G01X18623Y16440D03*
G01X19770Y24170D03*
G01Y6471D03*
G01Y4531D03*
G01Y2412D03*
G01X19447Y230D03*
G01X17742D03*
G01X15692D03*
G01X19447Y24770D03*
G01X17742D03*
G01X15692D03*
G01X18758Y8565D03*
G01X230Y12398D03*
G01Y20509D03*
G01Y24391D03*
G01Y4527D03*
G01Y484D03*
G01X2316Y230D03*
G01X4369D03*
G01X2316Y24770D03*
G01X4369D03*
G01X1761Y22443D03*
G01Y21852D03*
G01Y21261D03*
G01Y20671D03*
G01Y20080D03*
G01Y19490D03*
G01Y18899D03*
G01Y18309D03*
G01Y17718D03*
G01Y15158D03*
G01Y14568D03*
G01Y13977D03*
G01Y13386D03*
G01Y12796D03*
G01Y12205D03*
G01Y11615D03*
G01Y11024D03*
G01Y10434D03*
G01Y9843D03*
G01X1565Y6497D03*
G01X4036Y6321D03*
G01X15930D03*
G01X18263Y6494D03*
G01X4289Y6592D03*
G01X15675D03*
G01X1565Y7088D03*
G01X1735Y7284D03*
G01X4036Y6912D03*
G01X15930D03*
G01X18263Y7085D03*
G01X4289Y7183D03*
G01X15675D03*
G01X18081Y7281D03*
G01X1735Y6694D03*
G01X18081Y6691D03*
G01X19510Y23588D03*
G01X1565Y9649D03*
G01X4036Y9473D03*
G01X15930D03*
G01X18263Y9646D03*
G01X4289Y9744D03*
G01X15675D03*
G01X18081Y9843D03*
G01X18263Y23229D03*
G01X17323Y23588D03*
G01X1672Y9115D03*
G01X3158D03*
G01X17323D03*
G01X1672Y17033D03*
G01X3158D03*
G01X17323D03*
G01X17730Y8565D03*
G01X3158D03*
G01X19510Y8010D03*
G01X550Y23594D03*
G01X3158Y23592D03*
G01Y16440D03*
G01X17730D03*
G01X19510Y15882D03*
G01X19770Y8565D03*
G01Y16442D03*
G01X230Y8563D03*
G01X838Y16438D03*
G01X1565Y10239D03*
G01X4036Y10063D03*
G01X15930D03*
G01X18263Y10236D03*
G01X4289Y10334D03*
G01X15675D03*
G01X18081Y10433D03*
G01X1565Y10830D03*
G01X4036Y10654D03*
G01X15930D03*
G01X18263Y10827D03*
G01X4289Y10925D03*
G01X15675D03*
G01X18081Y11024D03*
G01X1565Y11420D03*
G01X4036Y11244D03*
G01X15930D03*
G01X18263Y11417D03*
G01X4289Y11515D03*
G01X15675D03*
G01X18081Y11614D03*
G01X1565Y12011D03*
G01X4036Y11835D03*
G01X15930D03*
G01X18263Y12008D03*
G01X4289Y12106D03*
G01X15675D03*
G01X18081Y12205D03*
G01X1565Y12601D03*
G01X4036Y12425D03*
G01X15930D03*
G01X18263Y12598D03*
G01X4289Y12696D03*
G01X15675D03*
G01X18081Y12795D03*
G01X1565Y13192D03*
G01X4036Y13016D03*
G01X15930D03*
G01X18263Y13189D03*
G01X4289Y13287D03*
G01X15675D03*
G01X18081Y13386D03*
%ASAXBY*%
%FSLAX04Y04*%
%IPPOS*%
%LNTEA-FS*%
%SFA1.0000B1.0000*%
%LPD*%
D18*
G01X19415Y15379D02*
G75*
G03X19505Y15469J90D01*
G01X19415Y15329D02*
G75*
G02X19505Y15239J-90D01*
G01X19415Y10064D02*
G75*
G03X19505Y10154J90D01*
G01X19415Y10014D02*
G75*
G02X19505Y9924J-90D01*
G01X19415Y10655D02*
G75*
G03X19505Y10745J90D01*
G01X19415Y10605D02*
G75*
G02X19505Y10515J-90D01*
G01X19415Y11245D02*
G75*
G03X19505Y11335J90D01*
G01X19415Y11195D02*
G75*
G02X19505Y11105J-90D01*
G01X19415Y11836D02*
G75*
G03X19505Y11926J90D01*
G01X19415Y11786D02*
G75*
G02X19505Y11696J-90D01*
G01X19415Y12427D02*
G75*
G03X19505Y12517J90D01*
G01X19415Y12377D02*
G75*
G02X19505Y12287J-90D01*
G01X19415Y13017D02*
G75*
G03X19505Y13107J90D01*
G01X19415Y12967D02*
G75*
G02X19505Y12877J-90D01*
G01X19415Y13608D02*
G75*
G03X19505Y13698J90D01*
G01X19415Y13558D02*
G75*
G02X19505Y13468J-90D01*
G01X19415Y14198D02*
G75*
G03X19505Y14288J90D01*
G01X19415Y14148D02*
G75*
G02X19505Y14058J-90D01*
G01X19415Y14789D02*
G75*
G03X19505Y14879J90D01*
G01X19415Y14739D02*
G75*
G02X19505Y14649J-90D01*
G01X19415Y17939D02*
G75*
G03X19505Y18029J90D01*
G01X19415Y17889D02*
G75*
G02X19505Y17799J-90D01*
G01X19415Y18530D02*
G75*
G03X19505Y18620J90D01*
G01X19415Y18480D02*
G75*
G02X19505Y18390J-90D01*
G01X19415Y19120D02*
G75*
G03X19505Y19210J90D01*
G01X19415Y19070D02*
G75*
G02X19505Y18980J-90D01*
G01X19415Y19711D02*
G75*
G03X19505Y19801J90D01*
G01X19415Y19661D02*
G75*
G02X19505Y19571J-90D01*
G01X19415Y20302D02*
G75*
G03X19505Y20392J90D01*
G01X19415Y20252D02*
G75*
G02X19505Y20162J-90D01*
G01X19415Y20892D02*
G75*
G03X19505Y20982J90D01*
G01X19415Y20842D02*
G75*
G02X19505Y20752J-90D01*
G01X19415Y21483D02*
G75*
G03X19505Y21573J90D01*
G01X19415Y21433D02*
G75*
G02X19505Y21343J-90D01*
G01X19415Y22073D02*
G75*
G03X19505Y22163J90D01*
G01X19415Y22023D02*
G75*
G02X19505Y21933J-90D01*
G01X17153Y23254D02*
G75*
G03X17243Y23344I0J90D01*
G01X17153Y23204D02*
G75*
G02X17243Y23114I0J-90D01*
G01X19415Y22664D02*
G75*
G03X19505Y22754J90D01*
G01X19415Y22614D02*
G75*
G02X19505Y22524J-90D01*
G01X17153Y22664D02*
G75*
G03X17243Y22754I0J90D01*
G01X17153Y22614D02*
G75*
G02X17243Y22524I0J-90D01*
G01X17153Y22073D02*
G75*
G03X17243Y22163I0J90D01*
G01X17153Y22023D02*
G75*
G02X17243Y21933I0J-90D01*
G01X17153Y21483D02*
G75*
G03X17243Y21573I0J90D01*
G01X17153Y21433D02*
G75*
G02X17243Y21343I0J-90D01*
G01X17153Y20892D02*
G75*
G03X17243Y20982I0J90D01*
G01X17153Y20842D02*
G75*
G02X17243Y20752I0J-90D01*
G01X17153Y20302D02*
G75*
G03X17243Y20392I0J90D01*
G01X17153Y20252D02*
G75*
G02X17243Y20162I0J-90D01*
G01X17153Y19711D02*
G75*
G03X17243Y19801I0J90D01*
G01X17153Y19661D02*
G75*
G02X17243Y19571I0J-90D01*
G01X17153Y19120D02*
G75*
G03X17243Y19210I0J90D01*
G01X17153Y19070D02*
G75*
G02X17243Y18980I0J-90D01*
G01X17153Y18530D02*
G75*
G03X17243Y18620I0J90D01*
G01X17153Y18480D02*
G75*
G02X17243Y18390I0J-90D01*
G01X17153Y17939D02*
G75*
G03X17243Y18029I0J90D01*
G01X17153Y17889D02*
G75*
G02X17243Y17799I0J-90D01*
G01X17153Y15379D02*
G75*
G03X17243Y15469I0J90D01*
G01X17153Y15329D02*
G75*
G02X17243Y15239I0J-90D01*
G01X17153Y14789D02*
G75*
G03X17243Y14879I0J90D01*
G01X17153Y14739D02*
G75*
G02X17243Y14649I0J-90D01*
G01X17153Y14198D02*
G75*
G03X17243Y14288I0J90D01*
G01X17153Y14148D02*
G75*
G02X17243Y14058I0J-90D01*
G01X17153Y13608D02*
G75*
G03X17243Y13698I0J90D01*
G01X17153Y13558D02*
G75*
G02X17243Y13468I0J-90D01*
G01X17153Y13017D02*
G75*
G03X17243Y13107I0J90D01*
G01X17153Y12967D02*
G75*
G02X17243Y12877I0J-90D01*
G01X17153Y12427D02*
G75*
G03X17243Y12517I0J90D01*
G01X17153Y12377D02*
G75*
G02X17243Y12287I0J-90D01*
G01X17153Y11836D02*
G75*
G03X17243Y11926I0J90D01*
G01X17153Y11786D02*
G75*
G02X17243Y11696I0J-90D01*
G01X17153Y11245D02*
G75*
G03X17243Y11335I0J90D01*
G01X17153Y11195D02*
G75*
G02X17243Y11105I0J-90D01*
G01X17153Y10655D02*
G75*
G03X17243Y10745I0J90D01*
G01X17153Y10605D02*
G75*
G02X17243Y10515I0J-90D01*
G01X17153Y10064D02*
G75*
G03X17243Y10154I0J90D01*
G01X17153Y10014D02*
G75*
G02X17243Y9924I0J-90D01*
D28*
G01X18302Y23190D02*
G01X18309Y23197D01*
G75*
G02X18386Y23229I78J-78D01*
G01X18302Y23268D02*
G01X18309Y23262D01*
G75*
G03X18386Y23229I78J78D01*
D29*
G01X19485Y23571D02*
G01X19508Y23539D01*
G75*
G02X19527Y23495I-90J-63D01*
G01X19539Y23581D02*
G01X19529Y23542D01*
G75*
G03X19527Y23495I106J-28D01*
G01X19537Y15895D02*
G01X19520Y15931D01*
G75*
G02X19510Y15978I100J46D01*
G01X19483Y15895D02*
G01X19500Y15931D01*
G75*
G03X19510Y15978I-100J46D01*
G01X19485Y15866D02*
G01X19507Y15833D01*
G75*
G02X19524Y15788I-92J-60D01*
G01X19539Y15874D02*
G01X19527Y15836D01*
G75*
G03X19524Y15788I105J-32D01*
G01X19537Y8022D02*
G01X19520Y8059D01*
G75*
G02X19510Y8105I100J46D01*
G01X19483Y8022D02*
G01X19500Y8059D01*
G75*
G03X19510Y8105I-100J46D01*
D28*
G01X15985Y13016D02*
G01Y13025D01*
G75*
G02X16018Y13103I110J0D01*
G01X15930Y13071D02*
G01X15940D01*
G75*
G03X16018Y13103I0J110D01*
D19*
G01X4228Y13941D02*
G01X4198Y13912D01*
G75*
G02X4119Y13881I-76J79D01*
G01X4226Y13817D02*
G01X4197Y13847D01*
G75*
G03X4119Y13881I-79J-76D01*
G01X3975Y13670D02*
G01X3945Y13641D01*
G75*
G02X3866Y13610I-76J79D01*
G01X3972Y13546D02*
G01X3943Y13576D01*
G75*
G03X3866Y13610I-79J-76D01*
D20*
G01X18130Y13927D02*
G01X18147Y13944D01*
G75*
G02X18225Y13976I78J-78D01*
G01X18130Y14026D02*
G01X18147Y14009D01*
G75*
G03X18225Y13976I78J78D01*
D28*
G01X18302Y13741D02*
G01X18309Y13747D01*
G75*
G02X18386Y13780I78J-78D01*
G01X18302Y13818D02*
G01X18309Y13812D01*
G75*
G03X18386Y13780I78J78D01*
D20*
G01X18410Y13991D02*
G01X18389Y13982D01*
G75*
G02X18365Y13976I-24J51D01*
G01X18410Y13961D02*
G01X18389Y13971D01*
G75*
G03X18365Y13976I-24J-51D01*
G01X16155Y13991D02*
G01X16134Y13982D01*
G75*
G02X16110Y13976I-24J51D01*
G01X16155Y13961D02*
G01X16134Y13971D01*
G75*
G03X16110Y13976I-24J-51D01*
G01X15742Y13856D02*
G01X15750Y13880D01*
G75*
G02X15804Y13944I105J-34D01*
G01X15697D02*
G01X15720Y13937D01*
G75*
G03X15804Y13944I34J105D01*
D28*
G01X15985Y13607D02*
G01Y13616D01*
G75*
G02X16018Y13694I110J0D01*
G01X15930Y13662D02*
G01X15940D01*
G75*
G03X16018Y13694I0J110D01*
D19*
G01X4228Y14531D02*
G01X4198Y14502D01*
G75*
G02X4119Y14471I-76J79D01*
G01X4226Y14407D02*
G01X4197Y14438D01*
G75*
G03X4119Y14471I-79J-76D01*
G01X3975Y14260D02*
G01X3945Y14231D01*
G75*
G02X3866Y14201I-76J79D01*
G01X3972Y14136D02*
G01X3943Y14167D01*
G75*
G03X3866Y14201I-79J-76D01*
D20*
G01X18130Y14517D02*
G01X18147Y14535D01*
G75*
G02X18225Y14567I78J-78D01*
G01X18130Y14616D02*
G01X18147Y14599D01*
G75*
G03X18225Y14567I78J78D01*
D28*
G01X18302Y14331D02*
G01X18309Y14338D01*
G75*
G02X18386Y14370I78J-78D01*
G01X18302Y14409D02*
G01X18309Y14402D01*
G75*
G03X18386Y14370I78J78D01*
D20*
G01X18410Y14582D02*
G01X18389Y14572D01*
G75*
G02X18365Y14567I-24J51D01*
G01X18410Y14552D02*
G01X18389Y14562D01*
G75*
G03X18365Y14567I-24J-51D01*
G01X16155Y14582D02*
G01X16134Y14572D01*
G75*
G02X16110Y14567I-24J51D01*
G01X16155Y14552D02*
G01X16134Y14562D01*
G75*
G03X16110Y14567I-24J-51D01*
G01X15742Y14447D02*
G01X15750Y14470D01*
G75*
G02X15804Y14534I105J-34D01*
G01X15697D02*
G01X15720Y14527D01*
G75*
G03X15804Y14534I34J105D01*
D28*
G01X15985Y14197D02*
G01Y14207D01*
G75*
G02X16018Y14284I110J0D01*
G01X15930Y14252D02*
G01X15940D01*
G75*
G03X16018Y14284I0J110D01*
D19*
G01X4228Y15122D02*
G01X4198Y15093D01*
G75*
G02X4119Y15062I-76J79D01*
G01X4226Y14998D02*
G01X4197Y15028D01*
G75*
G03X4119Y15062I-79J-76D01*
G01X3975Y14851D02*
G01X3945Y14822D01*
G75*
G02X3866Y14791I-76J79D01*
G01X3972Y14727D02*
G01X3943Y14757D01*
G75*
G03X3866Y14791I-79J-76D01*
D20*
G01X18130Y15108D02*
G01X18147Y15125D01*
G75*
G02X18225Y15157I78J-78D01*
G01X18130Y15207D02*
G01X18147Y15190D01*
G75*
G03X18225Y15157I78J78D01*
D28*
G01X18302Y14922D02*
G01X18309Y14928D01*
G75*
G02X18386Y14961I78J-78D01*
G01X18302Y15000D02*
G01X18309Y14993D01*
G75*
G03X18386Y14961I78J78D01*
D20*
G01X18410Y15172D02*
G01X18389Y15163D01*
G75*
G02X18365Y15157I-24J51D01*
G01X18410Y15142D02*
G01X18389Y15152D01*
G75*
G03X18365Y15157I-24J-51D01*
G01X16155Y15172D02*
G01X16134Y15163D01*
G75*
G02X16110Y15157I-24J51D01*
G01X16155Y15142D02*
G01X16134Y15152D01*
G75*
G03X16110Y15157I-24J-51D01*
G01X15742Y15037D02*
G01X15750Y15061D01*
G75*
G02X15804Y15125I105J-34D01*
G01X15697D02*
G01X15720Y15118D01*
G75*
G03X15804Y15125I34J105D01*
D28*
G01X15985Y14788D02*
G01Y14797D01*
G75*
G02X16018Y14875I110J0D01*
G01X15930Y14843D02*
G01X15940D01*
G75*
G03X16018Y14875I0J110D01*
D19*
G01X4228Y17682D02*
G01X4198Y17653D01*
G75*
G02X4119Y17622I-76J79D01*
G01X4226Y17558D02*
G01X4197Y17588D01*
G75*
G03X4119Y17622I-79J-76D01*
G01X3975Y17411D02*
G01X3945Y17382D01*
G75*
G02X3866Y17351I-76J79D01*
G01X3972Y17287D02*
G01X3943Y17317D01*
G75*
G03X3866Y17351I-79J-76D01*
D20*
G01X18130Y17668D02*
G01X18147Y17685D01*
G75*
G02X18225Y17718I78J-78D01*
G01X18130Y17767D02*
G01X18147Y17750D01*
G75*
G03X18225Y17718I78J78D01*
D28*
G01X18302Y17482D02*
G01X18309Y17488D01*
G75*
G02X18386Y17521I78J-78D01*
G01X18302Y17560D02*
G01X18309Y17553D01*
G75*
G03X18386Y17521I78J78D01*
D20*
G01X18410Y17733D02*
G01X18389Y17723D01*
G75*
G02X18365Y17718I-24J51D01*
G01X18410Y17703D02*
G01X18389Y17712D01*
G75*
G03X18365Y17718I-24J-51D01*
G01X16155Y17733D02*
G01X16134Y17723D01*
G75*
G02X16110Y17718I-24J51D01*
G01X16155Y17703D02*
G01X16134Y17712D01*
G75*
G03X16110Y17718I-24J-51D01*
G01X15742Y17597D02*
G01X15750Y17621D01*
G75*
G02X15804Y17685I105J-34D01*
G01X15697D02*
G01X15720Y17678D01*
G75*
G03X15804Y17685I34J105D01*
D28*
G01X15985Y17348D02*
G01Y17357D01*
G75*
G02X16018Y17435I110J0D01*
G01X15930Y17403D02*
G01X15940D01*
G75*
G03X16018Y17435I0J110D01*
D19*
G01X4228Y18272D02*
G01X4198Y18243D01*
G75*
G02X4119Y18213I-76J79D01*
G01X4226Y18149D02*
G01X4197Y18179D01*
G75*
G03X4119Y18213I-79J-76D01*
G01X3975Y18001D02*
G01X3945Y17972D01*
G75*
G02X3866Y17942I-76J79D01*
G01X3972Y17878D02*
G01X3943Y17908D01*
G75*
G03X3866Y17942I-79J-76D01*
D20*
G01X18130Y18259D02*
G01X18147Y18276D01*
G75*
G02X18225Y18308I78J-78D01*
G01X18130Y18358D02*
G01X18147Y18340D01*
G75*
G03X18225Y18308I78J78D01*
D28*
G01X18302Y18072D02*
G01X18309Y18079D01*
G75*
G02X18386Y18111I78J-78D01*
G01X18302Y18150D02*
G01X18309Y18143D01*
G75*
G03X18386Y18111I78J78D01*
D20*
G01X18410Y18323D02*
G01X18389Y18313D01*
G75*
G02X18365Y18308I-24J51D01*
G01X18410Y18293D02*
G01X18389Y18303D01*
G75*
G03X18365Y18308I-24J-51D01*
G01X16155Y18323D02*
G01X16134Y18313D01*
G75*
G02X16110Y18308I-24J51D01*
G01X16155Y18293D02*
G01X16134Y18303D01*
G75*
G03X16110Y18308I-24J-51D01*
G01X15742Y18188D02*
G01X15750Y18211D01*
G75*
G02X15804Y18275I105J-34D01*
G01X15697D02*
G01X15720Y18268D01*
G75*
G03X15804Y18275I34J105D01*
D28*
G01X15985Y17938D02*
G01Y17948D01*
G75*
G02X16018Y18025I110J0D01*
G01X15930Y17993D02*
G01X15940D01*
G75*
G03X16018Y18025I0J110D01*
D19*
G01X4228Y18863D02*
G01X4198Y18834D01*
G75*
G02X4119Y18803I-76J79D01*
G01X4226Y18739D02*
G01X4197Y18769D01*
G75*
G03X4119Y18803I-79J-76D01*
G01X3975Y18592D02*
G01X3945Y18563D01*
G75*
G02X3866Y18532I-76J79D01*
G01X3972Y18468D02*
G01X3943Y18498D01*
G75*
G03X3866Y18532I-79J-76D01*
D20*
G01X18130Y18849D02*
G01X18147Y18866D01*
G75*
G02X18225Y18899I78J-78D01*
G01X18130Y18948D02*
G01X18147Y18931D01*
G75*
G03X18225Y18899I78J78D01*
D28*
G01X18302Y18663D02*
G01X18309Y18670D01*
G75*
G02X18386Y18702I78J-78D01*
G01X18302Y18741D02*
G01X18309Y18734D01*
G75*
G03X18386Y18702I78J78D01*
D20*
G01X18410Y18914D02*
G01X18389Y18904D01*
G75*
G02X18365Y18899I-24J51D01*
G01X18410Y18884D02*
G01X18389Y18893D01*
G75*
G03X18365Y18899I-24J-51D01*
G01X16155Y18914D02*
G01X16134Y18904D01*
G75*
G02X16110Y18899I-24J51D01*
G01X16155Y18884D02*
G01X16134Y18893D01*
G75*
G03X16110Y18899I-24J-51D01*
G01X15742Y18778D02*
G01X15750Y18802D01*
G75*
G02X15804Y18866I105J-34D01*
G01X15697D02*
G01X15720Y18859D01*
G75*
G03X15804Y18866I34J105D01*
D28*
G01X15985Y18529D02*
G01Y18538D01*
G75*
G02X16018Y18616I110J0D01*
G01X15930Y18584D02*
G01X15940D01*
G75*
G03X16018Y18616I0J110D01*
D19*
G01X4228Y19453D02*
G01X4198Y19424D01*
G75*
G02X4119Y19394I-76J79D01*
G01X4226Y19330D02*
G01X4197Y19360D01*
G75*
G03X4119Y19394I-79J-76D01*
G01X3975Y19182D02*
G01X3945Y19153D01*
G75*
G02X3866Y19123I-76J79D01*
G01X3972Y19059D02*
G01X3943Y19089D01*
G75*
G03X3866Y19123I-79J-76D01*
D20*
G01X18130Y19440D02*
G01X18147Y19457D01*
G75*
G02X18225Y19489I78J-78D01*
G01X18130Y19539D02*
G01X18147Y19521D01*
G75*
G03X18225Y19489I78J78D01*
D28*
G01X18302Y19253D02*
G01X18309Y19260D01*
G75*
G02X18386Y19292I78J-78D01*
G01X18302Y19331D02*
G01X18309Y19325D01*
G75*
G03X18386Y19292I78J78D01*
D20*
G01X18410Y19504D02*
G01X18389Y19494D01*
G75*
G02X18365Y19489I-24J51D01*
G01X18410Y19474D02*
G01X18389Y19484D01*
G75*
G03X18365Y19489I-24J-51D01*
G01X16155Y19504D02*
G01X16134Y19494D01*
G75*
G02X16110Y19489I-24J51D01*
G01X16155Y19474D02*
G01X16134Y19484D01*
G75*
G03X16110Y19489I-24J-51D01*
G01X15742Y19369D02*
G01X15750Y19392D01*
G75*
G02X15804Y19457I105J-34D01*
G01X15697D02*
G01X15720Y19450D01*
G75*
G03X15804Y19457I34J105D01*
D28*
G01X15985Y19119D02*
G01Y19129D01*
G75*
G02X16018Y19207I110J0D01*
G01X15930Y19174D02*
G01X15940D01*
G75*
G03X16018Y19207I0J110D01*
D19*
G01X4228Y20044D02*
G01X4198Y20015D01*
G75*
G02X4119Y19984I-76J79D01*
G01X4226Y19920D02*
G01X4197Y19950D01*
G75*
G03X4119Y19984I-79J-76D01*
G01X3975Y19773D02*
G01X3945Y19744D01*
G75*
G02X3866Y19713I-76J79D01*
G01X3972Y19649D02*
G01X3943Y19680D01*
G75*
G03X3866Y19713I-79J-76D01*
D20*
G01X18130Y20030D02*
G01X18147Y20048D01*
G75*
G02X18225Y20080I78J-78D01*
G01X18130Y20129D02*
G01X18147Y20112D01*
G75*
G03X18225Y20080I78J78D01*
D28*
G01X18302Y19844D02*
G01X18309Y19851D01*
G75*
G02X18386Y19883I78J-78D01*
G01X18302Y19922D02*
G01X18309Y19915D01*
G75*
G03X18386Y19883I78J78D01*
D20*
G01X18410Y20095D02*
G01X18389Y20085D01*
G75*
G02X18365Y20080I-24J51D01*
G01X18410Y20065D02*
G01X18389Y20074D01*
G75*
G03X18365Y20080I-24J-51D01*
G01X16155Y20095D02*
G01X16134Y20085D01*
G75*
G02X16110Y20080I-24J51D01*
G01X16155Y20065D02*
G01X16134Y20074D01*
G75*
G03X16110Y20080I-24J-51D01*
G01X15742Y19960D02*
G01X15750Y19983D01*
G75*
G02X15804Y20047I105J-34D01*
G01X15697D02*
G01X15720Y20040D01*
G75*
G03X15804Y20047I34J105D01*
D28*
G01X15985Y19710D02*
G01Y19719D01*
G75*
G02X16018Y19797I110J0D01*
G01X15930Y19765D02*
G01X15940D01*
G75*
G03X16018Y19797I0J110D01*
D19*
G01X4228Y20635D02*
G01X4198Y20605D01*
G75*
G02X4119Y20575I-76J79D01*
G01X4226Y20511D02*
G01X4197Y20541D01*
G75*
G03X4119Y20575I-79J-76D01*
G01X3975Y20364D02*
G01X3945Y20335D01*
G75*
G02X3866Y20304I-76J79D01*
G01X3972Y20240D02*
G01X3943Y20270D01*
G75*
G03X3866Y20304I-79J-76D01*
D20*
G01X18130Y20621D02*
G01X18147Y20638D01*
G75*
G02X18225Y20670I78J-78D01*
G01X18130Y20720D02*
G01X18147Y20702D01*
G75*
G03X18225Y20670I78J78D01*
D28*
G01X18302Y20435D02*
G01X18309Y20441D01*
G75*
G02X18386Y20473I78J-78D01*
G01X18302Y20512D02*
G01X18309Y20506D01*
G75*
G03X18386Y20473I78J78D01*
D20*
G01X18410Y20685D02*
G01X18389Y20676D01*
G75*
G02X18365Y20670I-24J51D01*
G01X18410Y20655D02*
G01X18389Y20665D01*
G75*
G03X18365Y20670I-24J-51D01*
G01X16155Y20685D02*
G01X16134Y20676D01*
G75*
G02X16110Y20670I-24J51D01*
G01X16155Y20655D02*
G01X16134Y20665D01*
G75*
G03X16110Y20670I-24J-51D01*
G01X15742Y20550D02*
G01X15750Y20573D01*
G75*
G02X15804Y20638I105J-34D01*
G01X15697D02*
G01X15720Y20631D01*
G75*
G03X15804Y20638I34J105D01*
D28*
G01X15985Y20300D02*
G01Y20310D01*
G75*
G02X16018Y20388I110J0D01*
G01X15930Y20355D02*
G01X15940D01*
G75*
G03X16018Y20388I0J110D01*
D19*
G01X4228Y21225D02*
G01X4198Y21196D01*
G75*
G02X4119Y21165I-76J79D01*
G01X4226Y21101D02*
G01X4197Y21132D01*
G75*
G03X4119Y21165I-79J-76D01*
G01X3975Y20954D02*
G01X3945Y20925D01*
G75*
G02X3866Y20894I-76J79D01*
G01X3972Y20830D02*
G01X3943Y20861D01*
G75*
G03X3866Y20894I-79J-76D01*
D20*
G01X18130Y21211D02*
G01X18147Y21229D01*
G75*
G02X18225Y21261I78J-78D01*
G01X18130Y21310D02*
G01X18147Y21293D01*
G75*
G03X18225Y21261I78J78D01*
D28*
G01X18302Y21025D02*
G01X18309Y21032D01*
G75*
G02X18386Y21064I78J-78D01*
G01X18302Y21103D02*
G01X18309Y21096D01*
G75*
G03X18386Y21064I78J78D01*
D20*
G01X18410Y21276D02*
G01X18389Y21266D01*
G75*
G02X18365Y21261I-24J51D01*
G01X18410Y21246D02*
G01X18389Y21256D01*
G75*
G03X18365Y21261I-24J-51D01*
G01X16155Y21276D02*
G01X16134Y21266D01*
G75*
G02X16110Y21261I-24J51D01*
G01X16155Y21246D02*
G01X16134Y21256D01*
G75*
G03X16110Y21261I-24J-51D01*
G01X15742Y21141D02*
G01X15750Y21164D01*
G75*
G02X15804Y21228I105J-34D01*
G01X15697D02*
G01X15720Y21221D01*
G75*
G03X15804Y21228I34J105D01*
D28*
G01X15985Y20891D02*
G01Y20900D01*
G75*
G02X16018Y20978I110J0D01*
G01X15930Y20946D02*
G01X15940D01*
G75*
G03X16018Y20978I0J110D01*
D19*
G01X4228Y21816D02*
G01X4198Y21787D01*
G75*
G02X4119Y21756I-76J79D01*
G01X4226Y21692D02*
G01X4197Y21722D01*
G75*
G03X4119Y21756I-79J-76D01*
G01X3975Y21545D02*
G01X3945Y21516D01*
G75*
G02X3866Y21485I-76J79D01*
G01X3972Y21421D02*
G01X3943Y21451D01*
G75*
G03X3866Y21485I-79J-76D01*
D20*
G01X18130Y21802D02*
G01X18147Y21819D01*
G75*
G02X18225Y21851I78J-78D01*
G01X18130Y21901D02*
G01X18147Y21884D01*
G75*
G03X18225Y21851I78J78D01*
D28*
G01X18302Y21616D02*
G01X18309Y21622D01*
G75*
G02X18386Y21655I78J-78D01*
G01X18302Y21693D02*
G01X18309Y21687D01*
G75*
G03X18386Y21655I78J78D01*
D20*
G01X18410Y21866D02*
G01X18389Y21857D01*
G75*
G02X18365Y21851I-24J51D01*
G01X18410Y21836D02*
G01X18389Y21846D01*
G75*
G03X18365Y21851I-24J-51D01*
G01X16155Y21866D02*
G01X16134Y21857D01*
G75*
G02X16110Y21851I-24J51D01*
G01X16155Y21836D02*
G01X16134Y21846D01*
G75*
G03X16110Y21851I-24J-51D01*
G01X15742Y21731D02*
G01X15750Y21755D01*
G75*
G02X15804Y21819I105J-34D01*
G01X15697D02*
G01X15720Y21812D01*
G75*
G03X15804Y21819I34J105D01*
D28*
G01X15985Y21482D02*
G01Y21491D01*
G75*
G02X16018Y21569I110J0D01*
G01X15930Y21537D02*
G01X15940D01*
G75*
G03X16018Y21569I0J110D01*
D19*
G01X4228Y22406D02*
G01X4198Y22377D01*
G75*
G02X4119Y22346I-76J79D01*
G01X4226Y22282D02*
G01X4197Y22313D01*
G75*
G03X4119Y22346I-79J-76D01*
G01X3975Y22135D02*
G01X3945Y22106D01*
G75*
G02X3866Y22076I-76J79D01*
G01X3972Y22011D02*
G01X3943Y22042D01*
G75*
G03X3866Y22076I-79J-76D01*
D20*
G01X18130Y22392D02*
G01X18147Y22410D01*
G75*
G02X18225Y22442I78J-78D01*
G01X18130Y22491D02*
G01X18147Y22474D01*
G75*
G03X18225Y22442I78J78D01*
D28*
G01X18302Y22206D02*
G01X18309Y22213D01*
G75*
G02X18386Y22245I78J-78D01*
G01X18302Y22284D02*
G01X18309Y22277D01*
G75*
G03X18386Y22245I78J78D01*
D20*
G01X18410Y22457D02*
G01X18389Y22447D01*
G75*
G02X18365Y22442I-24J51D01*
G01X18410Y22427D02*
G01X18389Y22437D01*
G75*
G03X18365Y22442I-24J-51D01*
G01X16155Y22457D02*
G01X16134Y22447D01*
G75*
G02X16110Y22442I-24J51D01*
G01X16155Y22427D02*
G01X16134Y22437D01*
G75*
G03X16110Y22442I-24J-51D01*
G01X15742Y22322D02*
G01X15750Y22345D01*
G75*
G02X15804Y22409I105J-34D01*
G01X15697D02*
G01X15720Y22402D01*
G75*
G03X15804Y22409I34J105D01*
D28*
G01X15985Y22072D02*
G01Y22082D01*
G75*
G02X16018Y22159I110J0D01*
G01X15930Y22127D02*
G01X15940D01*
G75*
G03X16018Y22159I0J110D01*
D19*
G01X1793Y22952D02*
G01X1832Y22967D01*
G75*
G02X1916Y22966I40J-102D01*
G01X1842Y23065D02*
G01X1858Y23026D01*
G75*
G03X1916Y22966I102J40D01*
G01X1565Y22751D02*
G01X1607D01*
G75*
G02X1684Y22719I0J-110D01*
G01X1652Y22839D02*
G01Y22797D01*
G75*
G03X1684Y22719I110J0D01*
G01X4228Y22997D02*
G01X4198Y22968D01*
G75*
G02X4119Y22937I-76J79D01*
G01X4226Y22873D02*
G01X4197Y22903D01*
G75*
G03X4119Y22937I-79J-76D01*
G01X3975Y22726D02*
G01X3945Y22697D01*
G75*
G02X3866Y22666I-76J79D01*
G01X3972Y22602D02*
G01X3943Y22632D01*
G75*
G03X3866Y22666I-79J-76D01*
D20*
G01X18130Y22983D02*
G01X18147Y23000D01*
G75*
G02X18225Y23032I78J-78D01*
G01X18130Y23082D02*
G01X18147Y23065D01*
G75*
G03X18225Y23032I78J78D01*
D28*
G01X18302Y22797D02*
G01X18309Y22803D01*
G75*
G02X18386Y22836I78J-78D01*
G01X18302Y22875D02*
G01X18309Y22868D01*
G75*
G03X18386Y22836I78J78D01*
D20*
G01X18410Y23047D02*
G01X18389Y23038D01*
G75*
G02X18365Y23032I-24J51D01*
G01X18410Y23017D02*
G01X18389Y23027D01*
G75*
G03X18365Y23032I-24J-51D01*
G01X16155Y23047D02*
G01X16134Y23038D01*
G75*
G02X16110Y23032I-24J51D01*
G01X16155Y23017D02*
G01X16134Y23027D01*
G75*
G03X16110Y23032I-24J-51D01*
G01X15742Y22912D02*
G01X15750Y22936D01*
G75*
G02X15804Y23000I105J-34D01*
G01X15697D02*
G01X15720Y22993D01*
G75*
G03X15804Y23000I34J105D01*
D28*
G01X15985Y22663D02*
G01Y22672D01*
G75*
G02X16018Y22750I110J0D01*
G01X15930Y22718D02*
G01X15940D01*
G75*
G03X16018Y22750I0J110D01*
D19*
G01X1565Y22161D02*
G01X1607D01*
G75*
G02X1684Y22128I0J-110D01*
G01X1652Y22248D02*
G01Y22206D01*
G75*
G03X1684Y22128I110J0D01*
G01X1565Y21570D02*
G01X1607D01*
G75*
G02X1684Y21538I0J-110D01*
G01X1652Y21658D02*
G01Y21616D01*
G75*
G03X1684Y21538I110J0D01*
G01X1565Y20979D02*
G01X1607D01*
G75*
G02X1684Y20947I0J-110D01*
G01X1652Y21067D02*
G01Y21025D01*
G75*
G03X1684Y20947I110J0D01*
G01X1565Y20389D02*
G01X1607D01*
G75*
G02X1684Y20357I0J-110D01*
G01X1652Y20476D02*
G01Y20434D01*
G75*
G03X1684Y20357I110J0D01*
G01X1565Y19798D02*
G01X1607D01*
G75*
G02X1684Y19766I0J-110D01*
G01X1652Y19886D02*
G01Y19844D01*
G75*
G03X1684Y19766I110J0D01*
G01X1565Y19208D02*
G01X1607D01*
G75*
G02X1684Y19176I0J-110D01*
G01X1652Y19295D02*
G01Y19253D01*
G75*
G03X1684Y19176I110J0D01*
G01X1565Y18617D02*
G01X1607D01*
G75*
G02X1684Y18585I0J-110D01*
G01X1652Y18705D02*
G01Y18663D01*
G75*
G03X1684Y18585I110J0D01*
G01X1565Y18027D02*
G01X1607D01*
G75*
G02X1684Y17994I0J-110D01*
G01X1652Y18114D02*
G01Y18072D01*
G75*
G03X1684Y17994I110J0D01*
G01X1565Y17436D02*
G01X1607D01*
G75*
G02X1684Y17404I0J-110D01*
G01X1652Y17524D02*
G01Y17482D01*
G75*
G03X1684Y17404I110J0D01*
G01X1565Y14876D02*
G01X1607D01*
G75*
G02X1684Y14844I0J-110D01*
G01X1652Y14964D02*
G01Y14922D01*
G75*
G03X1684Y14844I110J0D01*
G01X1565Y14286D02*
G01X1607D01*
G75*
G02X1684Y14253I0J-110D01*
G01X1652Y14373D02*
G01Y14331D01*
G75*
G03X1684Y14253I110J0D01*
G01X1565Y13695D02*
G01X1607D01*
G75*
G02X1684Y13663I0J-110D01*
G01X1652Y13783D02*
G01Y13741D01*
G75*
G03X1684Y13663I110J0D01*
G01X1565Y13104D02*
G01X1607D01*
G75*
G02X1684Y13072I0J-110D01*
G01X1652Y13192D02*
G01Y13150D01*
G75*
G03X1684Y13072I110J0D01*
G01X1565Y12514D02*
G01X1607D01*
G75*
G02X1684Y12482I0J-110D01*
G01X1652Y12601D02*
G01Y12559D01*
G75*
G03X1684Y12482I110J0D01*
G01X1565Y11923D02*
G01X1607D01*
G75*
G02X1684Y11891I0J-110D01*
G01X1652Y12011D02*
G01Y11969D01*
G75*
G03X1684Y11891I110J0D01*
G01X1565Y11333D02*
G01X1607D01*
G75*
G02X1684Y11301I0J-110D01*
G01X1652Y11420D02*
G01Y11378D01*
G75*
G03X1684Y11301I110J0D01*
G01X1565Y10742D02*
G01X1607D01*
G75*
G02X1684Y10710I0J-110D01*
G01X1652Y10830D02*
G01Y10788D01*
G75*
G03X1684Y10710I110J0D01*
G01X1565Y10152D02*
G01X1607D01*
G75*
G02X1684Y10119I0J-110D01*
G01X1652Y10239D02*
G01Y10197D01*
G75*
G03X1684Y10119I110J0D01*
G01X1565Y9561D02*
G01X1607D01*
G75*
G02X1684Y9529I0J-110D01*
G01X1652Y9649D02*
G01Y9607D01*
G75*
G03X1684Y9529I110J0D01*
G01X1767Y7203D02*
G01X1806Y7218D01*
G75*
G02X1890Y7217I40J-102D01*
G01X1816Y7316D02*
G01X1832Y7277D01*
G75*
G03X1890Y7217I102J40D01*
G01X1565Y7002D02*
G01X1607D01*
G75*
G02X1684Y6970I0J-110D01*
G01X1652Y7090D02*
G01Y7048D01*
G75*
G03X1684Y6970I110J0D01*
G01X1767Y6612D02*
G01X1806Y6628D01*
G75*
G02X1890Y6626I40J-102D01*
G01X1816Y6726D02*
G01X1832Y6687D01*
G75*
G03X1890Y6626I102J40D01*
G01X1565Y6412D02*
G01X1607D01*
G75*
G02X1684Y6379I0J-110D01*
G01X1652Y6499D02*
G01Y6457D01*
G75*
G03X1684Y6379I110J0D01*
G01X1793Y22361D02*
G01X1832Y22377D01*
G75*
G02X1916Y22375I40J-102D01*
G01X1842Y22475D02*
G01X1858Y22436D01*
G75*
G03X1916Y22375I102J40D01*
G01X1793Y21771D02*
G01X1832Y21786D01*
G75*
G02X1916Y21784I40J-102D01*
G01X1842Y21884D02*
G01X1858Y21845D01*
G75*
G03X1916Y21784I102J40D01*
G01X1793Y21180D02*
G01X1832Y21195D01*
G75*
G02X1916Y21194I40J-102D01*
G01X1842Y21294D02*
G01X1858Y21255D01*
G75*
G03X1916Y21194I102J40D01*
G01X1793Y20590D02*
G01X1832Y20605D01*
G75*
G02X1916Y20603I40J-102D01*
G01X1842Y20703D02*
G01X1858Y20664D01*
G75*
G03X1916Y20603I102J40D01*
G01X1793Y19999D02*
G01X1832Y20014D01*
G75*
G02X1916Y20013I40J-102D01*
G01X1842Y20112D02*
G01X1858Y20073D01*
G75*
G03X1916Y20013I102J40D01*
G01X1793Y19408D02*
G01X1832Y19424D01*
G75*
G02X1916Y19422I40J-102D01*
G01X1842Y19522D02*
G01X1858Y19483D01*
G75*
G03X1916Y19422I102J40D01*
G01X1793Y18818D02*
G01X1832Y18833D01*
G75*
G02X1916Y18832I40J-102D01*
G01X1842Y18931D02*
G01X1858Y18892D01*
G75*
G03X1916Y18832I102J40D01*
G01X1793Y18227D02*
G01X1832Y18243D01*
G75*
G02X1916Y18241I40J-102D01*
G01X1842Y18341D02*
G01X1858Y18302D01*
G75*
G03X1916Y18241I102J40D01*
G01X1793Y17637D02*
G01X1832Y17652D01*
G75*
G02X1916Y17651I40J-102D01*
G01X1842Y17750D02*
G01X1858Y17711D01*
G75*
G03X1916Y17651I102J40D01*
G01X1793Y15077D02*
G01X1832Y15092D01*
G75*
G02X1916Y15091I40J-102D01*
G01X1842Y15190D02*
G01X1858Y15151D01*
G75*
G03X1916Y15091I102J40D01*
G01X1793Y14486D02*
G01X1832Y14502D01*
G75*
G02X1916Y14500I40J-102D01*
G01X1842Y14600D02*
G01X1858Y14561D01*
G75*
G03X1916Y14500I102J40D01*
G01X1793Y13896D02*
G01X1832Y13911D01*
G75*
G02X1916Y13909I40J-102D01*
G01X1842Y14009D02*
G01X1858Y13970D01*
G75*
G03X1916Y13909I102J40D01*
G01X1793Y13305D02*
G01X1832Y13320D01*
G75*
G02X1916Y13319I40J-102D01*
G01X1842Y13419D02*
G01X1858Y13380D01*
G75*
G03X1916Y13319I102J40D01*
G01X1793Y12715D02*
G01X1832Y12730D01*
G75*
G02X1916Y12728I40J-102D01*
G01X1842Y12828D02*
G01X1858Y12789D01*
G75*
G03X1916Y12728I102J40D01*
G01X1793Y12124D02*
G01X1832Y12139D01*
G75*
G02X1916Y12138I40J-102D01*
G01X1842Y12237D02*
G01X1858Y12198D01*
G75*
G03X1916Y12138I102J40D01*
G01X1793Y11533D02*
G01X1832Y11549D01*
G75*
G02X1916Y11547I40J-102D01*
G01X1842Y11647D02*
G01X1858Y11608D01*
G75*
G03X1916Y11547I102J40D01*
G01X1793Y10943D02*
G01X1832Y10958D01*
G75*
G02X1916Y10957I40J-102D01*
G01X1842Y11056D02*
G01X1858Y11017D01*
G75*
G03X1916Y10957I102J40D01*
G01X1793Y10352D02*
G01X1832Y10368D01*
G75*
G02X1916Y10366I40J-102D01*
G01X1842Y10466D02*
G01X1858Y10427D01*
G75*
G03X1916Y10366I102J40D01*
G01X1793Y9762D02*
G01X1832Y9777D01*
G75*
G02X1916Y9776I40J-102D01*
G01X1842Y9875D02*
G01X1858Y9836D01*
G75*
G03X1916Y9776I102J40D01*
G01X4228Y9807D02*
G01X4198Y9778D01*
G75*
G02X4119Y9747I-76J79D01*
G01X4226Y9683D02*
G01X4197Y9713D01*
G75*
G03X4119Y9747I-79J-76D01*
G01X3975Y9536D02*
G01X3945Y9507D01*
G75*
G02X3866Y9476I-76J79D01*
G01X3972Y9412D02*
G01X3943Y9442D01*
G75*
G03X3866Y9476I-79J-76D01*
G01X4228Y7246D02*
G01X4198Y7217D01*
G75*
G02X4119Y7186I-76J79D01*
G01X4226Y7122D02*
G01X4197Y7152D01*
G75*
G03X4119Y7186I-79J-76D01*
G01X3975Y6975D02*
G01X3945Y6946D01*
G75*
G02X3866Y6915I-76J79D01*
G01X3972Y6851D02*
G01X3943Y6881D01*
G75*
G03X3866Y6915I-79J-76D01*
G01X4228Y6655D02*
G01X4198Y6626D01*
G75*
G02X4119Y6595I-76J79D01*
G01X4226Y6531D02*
G01X4197Y6561D01*
G75*
G03X4119Y6595I-79J-76D01*
G01X3975Y6384D02*
G01X3945Y6355D01*
G75*
G02X3866Y6324I-76J79D01*
G01X3972Y6260D02*
G01X3943Y6291D01*
G75*
G03X3866Y6324I-79J-76D01*
D20*
G01X15742Y7161D02*
G01X15749Y7184D01*
G75*
G02X15804Y7249I105J-34D01*
G01X15696D02*
G01X15720Y7242D01*
G75*
G03X15804Y7249I34J105D01*
G01X15742Y6571D02*
G01X15749Y6594D01*
G75*
G02X15804Y6658I105J-34D01*
G01X15696D02*
G01X15720Y6651D01*
G75*
G03X15804Y6658I34J105D01*
G01X18130Y6641D02*
G01X18147Y6659D01*
G75*
G02X18225Y6691I78J-78D01*
G01X18130Y6740D02*
G01X18147Y6723D01*
G75*
G03X18225Y6691I78J78D01*
G01X18130Y7232D02*
G01X18147Y7249D01*
G75*
G02X18225Y7281I78J-78D01*
G01X18130Y7331D02*
G01X18147Y7314D01*
G75*
G03X18225Y7281I78J78D01*
D28*
G01X15985Y6912D02*
G01Y6921D01*
G75*
G02X16017Y6999I110J0D01*
G01X15930Y6967D02*
G01X15939D01*
G75*
G03X16017Y6999I0J110D01*
G01X15985Y6321D02*
G01Y6330D01*
G75*
G02X16017Y6408I110J0D01*
G01X15930Y6376D02*
G01X15939D01*
G75*
G03X16017Y6408I0J110D01*
G01X18302Y6455D02*
G01X18309Y6462D01*
G75*
G02X18386Y6494I78J-78D01*
G01X18302Y6533D02*
G01X18309Y6526D01*
G75*
G03X18386Y6494I78J78D01*
G01X18302Y7046D02*
G01X18309Y7052D01*
G75*
G02X18386Y7085I78J-78D01*
G01X18302Y7123D02*
G01X18309Y7117D01*
G75*
G03X18386Y7085I78J78D01*
D20*
G01X18410Y7296D02*
G01X18389Y7287D01*
G75*
G02X18365Y7281I-24J51D01*
G01X18410Y7266D02*
G01X18389Y7276D01*
G75*
G03X18365Y7281I-24J-51D01*
G01X18410Y6706D02*
G01X18389Y6696D01*
G75*
G02X18365Y6691I-24J51D01*
G01X18410Y6676D02*
G01X18389Y6685D01*
G75*
G03X18365Y6691I-24J-51D01*
G01X18130Y9793D02*
G01X18147Y9810D01*
G75*
G02X18225Y9843I78J-78D01*
G01X18130Y9892D02*
G01X18147Y9875D01*
G75*
G03X18225Y9843I78J78D01*
D28*
G01X18302Y9607D02*
G01X18309Y9613D01*
G75*
G02X18386Y9646I78J-78D01*
G01X18302Y9685D02*
G01X18309Y9678D01*
G75*
G03X18386Y9646I78J78D01*
D20*
G01X18410Y9858D02*
G01X18389Y9848D01*
G75*
G02X18365Y9843I-24J51D01*
G01X18410Y9828D02*
G01X18389Y9837D01*
G75*
G03X18365Y9843I-24J-51D01*
G01X16155Y6706D02*
G01X16134Y6696D01*
G75*
G02X16110Y6691I-24J51D01*
G01X16155Y6676D02*
G01X16134Y6685D01*
G75*
G03X16110Y6691I-24J-51D01*
G01X16155Y7296D02*
G01X16134Y7287D01*
G75*
G02X16110Y7281I-24J51D01*
G01X16155Y7266D02*
G01X16134Y7276D01*
G75*
G03X16110Y7281I-24J-51D01*
G01X16155Y9858D02*
G01X16134Y9848D01*
G75*
G02X16110Y9843I-24J51D01*
G01X16155Y9828D02*
G01X16134Y9837D01*
G75*
G03X16110Y9843I-24J-51D01*
G01X15742Y9722D02*
G01X15750Y9746D01*
G75*
G02X15804Y9810I105J-34D01*
G01X15697D02*
G01X15720Y9803D01*
G75*
G03X15804Y9810I34J105D01*
D28*
G01X15985Y9473D02*
G01Y9482D01*
G75*
G02X16018Y9560I110J0D01*
G01X15930Y9528D02*
G01X15940D01*
G75*
G03X16018Y9560I0J110D01*
D19*
G01X4228Y10397D02*
G01X4198Y10368D01*
G75*
G02X4119Y10338I-76J79D01*
G01X4226Y10274D02*
G01X4197Y10304D01*
G75*
G03X4119Y10338I-79J-76D01*
G01X3975Y10126D02*
G01X3945Y10097D01*
G75*
G02X3866Y10067I-76J79D01*
G01X3972Y10003D02*
G01X3943Y10033D01*
G75*
G03X3866Y10067I-79J-76D01*
D20*
G01X18130Y10384D02*
G01X18147Y10401D01*
G75*
G02X18225Y10433I78J-78D01*
G01X18130Y10483D02*
G01X18147Y10465D01*
G75*
G03X18225Y10433I78J78D01*
D28*
G01X18302Y10197D02*
G01X18309Y10204D01*
G75*
G02X18386Y10236I78J-78D01*
G01X18302Y10275D02*
G01X18309Y10268D01*
G75*
G03X18386Y10236I78J78D01*
D20*
G01X18410Y10448D02*
G01X18389Y10438D01*
G75*
G02X18365Y10433I-24J51D01*
G01X18410Y10418D02*
G01X18389Y10428D01*
G75*
G03X18365Y10433I-24J-51D01*
G01X16155Y10448D02*
G01X16134Y10438D01*
G75*
G02X16110Y10433I-24J51D01*
G01X16155Y10418D02*
G01X16134Y10428D01*
G75*
G03X16110Y10433I-24J-51D01*
G01X15742Y10313D02*
G01X15750Y10336D01*
G75*
G02X15804Y10400I105J-34D01*
G01X15697D02*
G01X15720Y10393D01*
G75*
G03X15804Y10400I34J105D01*
D28*
G01X15985Y10063D02*
G01Y10073D01*
G75*
G02X16018Y10150I110J0D01*
G01X15930Y10118D02*
G01X15940D01*
G75*
G03X16018Y10150I0J110D01*
D19*
G01X4228Y10988D02*
G01X4198Y10959D01*
G75*
G02X4119Y10928I-76J79D01*
G01X4226Y10864D02*
G01X4197Y10894D01*
G75*
G03X4119Y10928I-79J-76D01*
G01X3975Y10717D02*
G01X3945Y10688D01*
G75*
G02X3866Y10657I-76J79D01*
G01X3972Y10593D02*
G01X3943Y10623D01*
G75*
G03X3866Y10657I-79J-76D01*
D20*
G01X18130Y10974D02*
G01X18147Y10991D01*
G75*
G02X18225Y11024I78J-78D01*
G01X18130Y11073D02*
G01X18147Y11056D01*
G75*
G03X18225Y11024I78J78D01*
D28*
G01X18302Y10788D02*
G01X18309Y10795D01*
G75*
G02X18386Y10827I78J-78D01*
G01X18302Y10866D02*
G01X18309Y10859D01*
G75*
G03X18386Y10827I78J78D01*
D20*
G01X18410Y11039D02*
G01X18389Y11029D01*
G75*
G02X18365Y11024I-24J51D01*
G01X18410Y11009D02*
G01X18389Y11018D01*
G75*
G03X18365Y11024I-24J-51D01*
G01X16155Y11039D02*
G01X16134Y11029D01*
G75*
G02X16110Y11024I-24J51D01*
G01X16155Y11009D02*
G01X16134Y11018D01*
G75*
G03X16110Y11024I-24J-51D01*
G01X15742Y10903D02*
G01X15750Y10927D01*
G75*
G02X15804Y10991I105J-34D01*
G01X15697D02*
G01X15720Y10984D01*
G75*
G03X15804Y10991I34J105D01*
D28*
G01X15985Y10654D02*
G01Y10663D01*
G75*
G02X16018Y10741I110J0D01*
G01X15930Y10709D02*
G01X15940D01*
G75*
G03X16018Y10741I0J110D01*
D19*
G01X4228Y11578D02*
G01X4198Y11549D01*
G75*
G02X4119Y11519I-76J79D01*
G01X4226Y11455D02*
G01X4197Y11485D01*
G75*
G03X4119Y11519I-79J-76D01*
G01X3975Y11307D02*
G01X3945Y11278D01*
G75*
G02X3866Y11248I-76J79D01*
G01X3972Y11184D02*
G01X3943Y11214D01*
G75*
G03X3866Y11248I-79J-76D01*
D20*
G01X18130Y11565D02*
G01X18147Y11582D01*
G75*
G02X18225Y11614I78J-78D01*
G01X18130Y11664D02*
G01X18147Y11646D01*
G75*
G03X18225Y11614I78J78D01*
D28*
G01X18302Y11378D02*
G01X18309Y11385D01*
G75*
G02X18386Y11417I78J-78D01*
G01X18302Y11456D02*
G01X18309Y11450D01*
G75*
G03X18386Y11417I78J78D01*
D20*
G01X18410Y11629D02*
G01X18389Y11619D01*
G75*
G02X18365Y11614I-24J51D01*
G01X18410Y11599D02*
G01X18389Y11609D01*
G75*
G03X18365Y11614I-24J-51D01*
G01X16155Y11629D02*
G01X16134Y11619D01*
G75*
G02X16110Y11614I-24J51D01*
G01X16155Y11599D02*
G01X16134Y11609D01*
G75*
G03X16110Y11614I-24J-51D01*
G01X15742Y11494D02*
G01X15750Y11517D01*
G75*
G02X15804Y11582I105J-34D01*
G01X15697D02*
G01X15720Y11575D01*
G75*
G03X15804Y11582I34J105D01*
D28*
G01X15985Y11244D02*
G01Y11254D01*
G75*
G02X16018Y11332I110J0D01*
G01X15930Y11299D02*
G01X15940D01*
G75*
G03X16018Y11332I0J110D01*
D19*
G01X4228Y12169D02*
G01X4198Y12140D01*
G75*
G02X4119Y12109I-76J79D01*
G01X4226Y12045D02*
G01X4197Y12075D01*
G75*
G03X4119Y12109I-79J-76D01*
G01X3975Y11898D02*
G01X3945Y11869D01*
G75*
G02X3866Y11838I-76J79D01*
G01X3972Y11774D02*
G01X3943Y11805D01*
G75*
G03X3866Y11838I-79J-76D01*
D20*
G01X18130Y12155D02*
G01X18147Y12173D01*
G75*
G02X18225Y12205I78J-78D01*
G01X18130Y12254D02*
G01X18147Y12237D01*
G75*
G03X18225Y12205I78J78D01*
D28*
G01X18302Y11969D02*
G01X18309Y11976D01*
G75*
G02X18386Y12008I78J-78D01*
G01X18302Y12047D02*
G01X18309Y12040D01*
G75*
G03X18386Y12008I78J78D01*
D20*
G01X18410Y12220D02*
G01X18389Y12210D01*
G75*
G02X18365Y12205I-24J51D01*
G01X18410Y12190D02*
G01X18389Y12199D01*
G75*
G03X18365Y12205I-24J-51D01*
G01X16155Y12220D02*
G01X16134Y12210D01*
G75*
G02X16110Y12205I-24J51D01*
G01X16155Y12190D02*
G01X16134Y12199D01*
G75*
G03X16110Y12205I-24J-51D01*
G01X15742Y12085D02*
G01X15750Y12108D01*
G75*
G02X15804Y12172I105J-34D01*
G01X15697D02*
G01X15720Y12165D01*
G75*
G03X15804Y12172I34J105D01*
D28*
G01X15985Y11835D02*
G01Y11844D01*
G75*
G02X16018Y11922I110J0D01*
G01X15930Y11890D02*
G01X15940D01*
G75*
G03X16018Y11922I0J110D01*
D19*
G01X4228Y12760D02*
G01X4198Y12730D01*
G75*
G02X4119Y12700I-76J79D01*
G01X4226Y12636D02*
G01X4197Y12666D01*
G75*
G03X4119Y12700I-79J-76D01*
G01X3975Y12489D02*
G01X3945Y12460D01*
G75*
G02X3866Y12429I-76J79D01*
G01X3972Y12365D02*
G01X3943Y12395D01*
G75*
G03X3866Y12429I-79J-76D01*
D20*
G01X18130Y12746D02*
G01X18147Y12763D01*
G75*
G02X18225Y12795I78J-78D01*
G01X18130Y12845D02*
G01X18147Y12827D01*
G75*
G03X18225Y12795I78J78D01*
D28*
G01X18302Y12560D02*
G01X18309Y12566D01*
G75*
G02X18386Y12598I78J-78D01*
G01X18302Y12637D02*
G01X18309Y12631D01*
G75*
G03X18386Y12598I78J78D01*
D20*
G01X18410Y12810D02*
G01X18389Y12801D01*
G75*
G02X18365Y12795I-24J51D01*
G01X18410Y12780D02*
G01X18389Y12790D01*
G75*
G03X18365Y12795I-24J-51D01*
G01X16155Y12810D02*
G01X16134Y12801D01*
G75*
G02X16110Y12795I-24J51D01*
G01X16155Y12780D02*
G01X16134Y12790D01*
G75*
G03X16110Y12795I-24J-51D01*
G01X15742Y12675D02*
G01X15750Y12698D01*
G75*
G02X15804Y12763I105J-34D01*
G01X15697D02*
G01X15720Y12756D01*
G75*
G03X15804Y12763I34J105D01*
D28*
G01X15985Y12425D02*
G01Y12435D01*
G75*
G02X16018Y12513I110J0D01*
G01X15930Y12480D02*
G01X15940D01*
G75*
G03X16018Y12513I0J110D01*
D19*
G01X4228Y13350D02*
G01X4198Y13321D01*
G75*
G02X4119Y13290I-76J79D01*
G01X4226Y13226D02*
G01X4197Y13257D01*
G75*
G03X4119Y13290I-79J-76D01*
G01X3975Y13079D02*
G01X3945Y13050D01*
G75*
G02X3866Y13019I-76J79D01*
G01X3972Y12955D02*
G01X3943Y12986D01*
G75*
G03X3866Y13019I-79J-76D01*
D20*
G01X18130Y13336D02*
G01X18147Y13354D01*
G75*
G02X18225Y13386I78J-78D01*
G01X18130Y13435D02*
G01X18147Y13418D01*
G75*
G03X18225Y13386I78J78D01*
D28*
G01X18302Y13150D02*
G01X18309Y13157D01*
G75*
G02X18386Y13189I78J-78D01*
G01X18302Y13228D02*
G01X18309Y13221D01*
G75*
G03X18386Y13189I78J78D01*
D20*
G01X18410Y13401D02*
G01X18389Y13391D01*
G75*
G02X18365Y13386I-24J51D01*
G01X18410Y13371D02*
G01X18389Y13381D01*
G75*
G03X18365Y13386I-24J-51D01*
G01X16155Y13401D02*
G01X16134Y13391D01*
G75*
G02X16110Y13386I-24J51D01*
G01X16155Y13371D02*
G01X16134Y13381D01*
G75*
G03X16110Y13386I-24J-51D01*
G01X15742Y13266D02*
G01X15750Y13289D01*
G75*
G02X15804Y13353I105J-34D01*
G01X15697D02*
G01X15720Y13346D01*
G75*
G03X15804Y13353I34J105D01*
%ASAXBY*%
%FSLAX04Y04*%
%IPPOS*%
%LNTIE-FS*%
%SFA1.0000B1.0000*%
%LPD*%
D18*
G01X17785Y822D02*
G75*
G03X17935I75J0D01*
G01X17675D02*
G75*
G02X17525I-75J0D01*
G01X17785Y2079D02*
G75*
G02X17935I75J0D01*
G01X17675D02*
G75*
G03X17525I-75J0D01*
G01X17785Y2317D02*
G75*
G03X17935I75J0D01*
G01X17675D02*
G75*
G02X17525I-75J0D01*
G01X17785Y4429D02*
G75*
G02X17935I75J0D01*
G01X17675D02*
G75*
G03X17525I-75J0D01*
G01X17785Y4821D02*
G75*
G03X17935I75J0D01*
G01X17675D02*
G75*
G02X17525I-75J0D01*
G01X17675Y6932D02*
G75*
G03X17525I-75J0D01*
G01X17675Y7168D02*
G75*
G02X17525I-75J0D01*
G01X17785Y8698D02*
G75*
G03X17935I75J0D01*
G01X17675D02*
G75*
G02X17525I-75J0D01*
G01X17785Y8432D02*
G75*
G02X17935I75J0D01*
G01X17785Y16568D02*
G75*
G03X17935I75J0D01*
G01X17785Y16307D02*
G75*
G02X17935I75J0D01*
G01X17675Y8432D02*
G75*
G03X17525I-75J0D01*
G01X17785Y24182D02*
G75*
G02X17935I75J0D01*
G01X17675D02*
G75*
G03X17525I-75J0D01*
D33*
G01X17730Y24321D02*
G01Y538D01*
%ASAXBY*%
%FSLAX04Y04*%
%IPPOS*%
%LNTRA-FS*%
%SFA1.0000B1.0000*%
%LPD*%
D28*
G01X18858Y15354D02*
G01X19560D01*
G01X18858Y10039D02*
G01X19560D01*
G01X18858Y10630D02*
G01X19560D01*
G01X18858Y11220D02*
G01X19560D01*
G01X18858Y11811D02*
G01X19560D01*
G01X18858Y12402D02*
G01X19560D01*
G01X18858Y12992D02*
G01X19560D01*
G01X18858Y13583D02*
G01X19560D01*
G01X18858Y14173D02*
G01X19560D01*
G01X18858Y14764D02*
G01X19560D01*
G01X18858Y17914D02*
G01X19560D01*
G01X18858Y18505D02*
G01X19560D01*
G01X18858Y19095D02*
G01X19560D01*
G01X18858Y19686D02*
G01X19560D01*
G01X18858Y20277D02*
G01X19560D01*
G01X18858Y20867D02*
G01X19560D01*
G01X18858Y21458D02*
G01X19560D01*
G01X18858Y22048D02*
G01X19560D01*
D19*
G01X1761Y9843D02*
G01X1944Y9764D01*
G75*
G03X2023Y9747I80J183D01*
G01X4118*
G01X4119*
G01X4289Y9744*
G01X1761Y10434D02*
G01X1944Y10354D01*
G75*
G03X2023Y10338I80J183D01*
G01X4118*
G01X4119*
G01X4289Y10334*
G01X1761Y11024D02*
G01X1944Y10945D01*
G75*
G03X2023Y10928I80J183D01*
G01X4118*
G01X4119*
G01X4289Y10925*
G01X1761Y11615D02*
G01X1944Y11535D01*
G75*
G03X2023Y11519I80J183D01*
G01X4118*
G01X4119*
G01X4289Y11515*
G01X1761Y12205D02*
G01X1944Y12126D01*
G75*
G03X2023Y12109I80J183D01*
G01X4118*
G01X4119*
G01X4289Y12106*
G01X1761Y12796D02*
G01X1944Y12716D01*
G75*
G03X2023Y12700I80J183D01*
G01X4118*
G01X4119*
G01X4289Y12696*
G01X1761Y13386D02*
G01X1944Y13307D01*
G75*
G03X2023Y13290I80J183D01*
G01X4118*
G01X4119*
G01X4289Y13287*
G01X1761Y13977D02*
G01X1944Y13898D01*
G75*
G03X2023Y13881I80J183D01*
G01X4118*
G01X4119*
G01X4289Y13878*
G01X1761Y14568D02*
G01X1944Y14488D01*
G75*
G03X2023Y14471I80J183D01*
G01X4118*
G01X4119*
G01X4289Y14468*
G01X1761Y15158D02*
G01X1944Y15079D01*
G75*
G03X2023Y15062I80J183D01*
G01X4118*
G01X4119*
G01X4289Y15059*
G01X1761Y17718D02*
G01X1944Y17639D01*
G75*
G03X2023Y17622I80J183D01*
G01X4118*
G01X4119*
G01X4289Y17619*
G01X1761Y18309D02*
G01X1944Y18229D01*
G75*
G03X2023Y18213I80J183D01*
G01X4118*
G01X4119*
G01X4289Y18209*
G01X1761Y18899D02*
G01X1944Y18820D01*
G75*
G03X2023Y18803I80J183D01*
G01X4118*
G01X4119*
G01X4289Y18800*
G01X1761Y19490D02*
G01X1944Y19410D01*
G75*
G03X2023Y19394I80J183D01*
G01X4118*
G01X4119*
G01X4289Y19390*
G01X1761Y20080D02*
G01X1944Y20001D01*
G75*
G03X2023Y19984I80J183D01*
G01X4118*
G01X4119*
G01X4289Y19981*
G01X1761Y20671D02*
G01X1944Y20591D01*
G75*
G03X2023Y20575I80J183D01*
G01X4118*
G01X4119*
G01X4289Y20571*
G01X1761Y21261D02*
G01X1944Y21182D01*
G75*
G03X2023Y21165I80J183D01*
G01X4118*
G01X4119*
G01X4289Y21162*
G01X1761Y21852D02*
G01X1944Y21773D01*
G75*
G03X2023Y21756I80J183D01*
G01X4118*
G01X4119*
G01X4289Y21753*
G01X1761Y22443D02*
G01X1944Y22363D01*
G75*
G03X2023Y22346I80J183D01*
G01X4118*
G01X4119*
G01X4289Y22343*
G01X1735Y6694D02*
G01X1918Y6614D01*
G75*
G03X1997Y6598I80J183D01*
G01X4118*
G01X4119*
G01X4289Y6594*
G01X1565Y6499D02*
G01X1693Y6371D01*
G75*
G03X1799Y6327I106J106D01*
G01X4036*
G01X1735Y7284D02*
G01X1918Y7205D01*
G75*
G03X1997Y7188I80J183D01*
G01X4118*
G01X4119*
G01X4289Y7185*
G01X1565Y7090D02*
G01X1693Y6961D01*
G75*
G03X1799Y6917I106J106D01*
G01X4036*
G01X1565Y9649D02*
G01X1693Y9520D01*
G75*
G03X1799Y9476I106J106D01*
G01X4036*
G01X1565Y10239D02*
G01X1693Y10111D01*
G75*
G03X1799Y10067I106J106D01*
G01X4036*
G01X1565Y10830D02*
G01X1693Y10701D01*
G75*
G03X1799Y10657I106J106D01*
G01X4036*
G01X1565Y11420D02*
G01X1693Y11292D01*
G75*
G03X1799Y11248I106J106D01*
G01X4036*
G01X1565Y12011D02*
G01X1693Y11882D01*
G75*
G03X1799Y11838I106J106D01*
G01X4036*
G01X1565Y12601D02*
G01X1693Y12473D01*
G75*
G03X1799Y12429I106J106D01*
G01X4036*
G01X1565Y13192D02*
G01X1693Y13063D01*
G75*
G03X1799Y13019I106J106D01*
G01X4036*
G01X1565Y13783D02*
G01X1693Y13654D01*
G75*
G03X1799Y13610I106J106D01*
G01X4036*
G01X1565Y14373D02*
G01X1693Y14244D01*
G75*
G03X1799Y14201I106J106D01*
G01X4036*
G01X1565Y14964D02*
G01X1693Y14835D01*
G75*
G03X1799Y14791I106J106D01*
G01X4036*
G01X1565Y17524D02*
G01X1693Y17395D01*
G75*
G03X1799Y17351I106J106D01*
G01X4036*
G01X1565Y18114D02*
G01X1693Y17986D01*
G75*
G03X1799Y17942I106J106D01*
G01X4036*
G01X1565Y18705D02*
G01X1693Y18576D01*
G75*
G03X1799Y18532I106J106D01*
G01X4036*
G01X1565Y19295D02*
G01X1693Y19167D01*
G75*
G03X1799Y19123I106J106D01*
G01X4036*
G01X1565Y19886D02*
G01X1693Y19757D01*
G75*
G03X1799Y19713I106J106D01*
G01X4036*
G01X1565Y20476D02*
G01X1693Y20348D01*
G75*
G03X1799Y20304I106J106D01*
G01X4036*
G01X1565Y21067D02*
G01X1693Y20938D01*
G75*
G03X1799Y20894I106J106D01*
G01X4036*
G01X1565Y21658D02*
G01X1693Y21529D01*
G75*
G03X1799Y21485I106J106D01*
G01X4036*
G01X1565Y22248D02*
G01X1693Y22119D01*
G75*
G03X1799Y22076I106J106D01*
G01X4036*
G01X1761Y23033D02*
G01X1944Y22954D01*
G75*
G03X2023Y22937I80J183D01*
G01X4118*
G01X4119*
G01X4289Y22934*
G01X1565Y22839D02*
G01X1693Y22710D01*
G75*
G03X1799Y22666I106J106D01*
G01X4036*
D20*
G01X18081Y23032D02*
G01X18858D01*
G01X16603D02*
G01X16551D01*
G01X15925*
G75*
G03X15815Y23006I0J-240D01*
G01X15675Y22934*
D28*
G01X18263Y22836D02*
G01X18858D01*
G01X16603D02*
G01X16152D01*
G75*
G03X16068Y22800I0J-120D01*
G01X15930Y22663*
D20*
G01X18081Y22442D02*
G01X18858D01*
G01X16603D02*
G01X16551D01*
G01X15925*
G75*
G03X15815Y22415I0J-240D01*
G01X15675Y22343*
D28*
G01X18263Y22245D02*
G01X18858D01*
G01X16603D02*
G01X16152D01*
G75*
G03X16068Y22210I0J-120D01*
G01X15930Y22072*
D20*
G01X18081Y21851D02*
G01X18858D01*
G01X16603D02*
G01X16551D01*
G01X15925*
G75*
G03X15815Y21825I0J-240D01*
G01X15675Y21753*
D28*
G01X18263Y21655D02*
G01X18858D01*
G01X16603D02*
G01X16152D01*
G75*
G03X16068Y21619I0J-120D01*
G01X15930Y21482*
D20*
G01X18081Y21261D02*
G01X18858D01*
G01X16603D02*
G01X16551D01*
G01X15925*
G75*
G03X15815Y21234I0J-240D01*
G01X15675Y21162*
D28*
G01X18263Y21064D02*
G01X18858D01*
G01X16603D02*
G01X16152D01*
G75*
G03X16068Y21029I0J-120D01*
G01X15930Y20891*
D20*
G01X18081Y20670D02*
G01X18858D01*
G01X16603D02*
G01X16551D01*
G01X15925*
G75*
G03X15815Y20644I0J-240D01*
G01X15675Y20571*
D28*
G01X18263Y20473D02*
G01X18858D01*
G01X16603D02*
G01X16152D01*
G75*
G03X16068Y20438I0J-120D01*
G01X15930Y20300*
D20*
G01X18081Y20080D02*
G01X18858D01*
G01X16603D02*
G01X16551D01*
G01X15925*
G75*
G03X15815Y20053I0J-240D01*
G01X15675Y19981*
D28*
G01X18263Y19883D02*
G01X18858D01*
G01X16603D02*
G01X16152D01*
G75*
G03X16068Y19848I0J-120D01*
G01X15930Y19710*
D20*
G01X18081Y19489D02*
G01X18858D01*
G01X16603D02*
G01X16551D01*
G01X15925*
G75*
G03X15815Y19463I0J-240D01*
G01X15675Y19390*
D28*
G01X18263Y19292D02*
G01X18858D01*
G01X16603D02*
G01X16152D01*
G75*
G03X16068Y19257I0J-120D01*
G01X15930Y19119*
D20*
G01X18081Y18899D02*
G01X18858D01*
G01X16603D02*
G01X16551D01*
G01X15925*
G75*
G03X15815Y18872I0J-240D01*
G01X15675Y18800*
D28*
G01X18263Y18702D02*
G01X18858D01*
G01X16603D02*
G01X16152D01*
G75*
G03X16068Y18667I0J-120D01*
G01X15930Y18529*
D20*
G01X18081Y18308D02*
G01X18858D01*
G01X16603D02*
G01X16551D01*
G01X15925*
G75*
G03X15815Y18281I0J-240D01*
G01X15675Y18209*
D28*
G01X18263Y18111D02*
G01X18858D01*
G01X16603D02*
G01X16152D01*
G75*
G03X16068Y18076I0J-120D01*
G01X15930Y17938*
D20*
G01X18081Y17718D02*
G01X18858D01*
G01X16603D02*
G01X16551D01*
G01X15925*
G75*
G03X15815Y17691I0J-240D01*
G01X15675Y17619*
D28*
G01X18263Y17521D02*
G01X18858D01*
G01X16603D02*
G01X16152D01*
G75*
G03X16068Y17485I0J-120D01*
G01X15930Y17348*
D20*
G01X18081Y15157D02*
G01X18858D01*
G01X16603D02*
G01X16551D01*
G01X15925*
G75*
G03X15815Y15131I0J-240D01*
G01X15675Y15059*
D28*
G01X18263Y14961D02*
G01X18858D01*
G01X16603D02*
G01X16152D01*
G75*
G03X16068Y14925I0J-120D01*
G01X15930Y14788*
D20*
G01X18081Y14567D02*
G01X18858D01*
G01X16603D02*
G01X16551D01*
G01X15925*
G75*
G03X15815Y14540I0J-240D01*
G01X15675Y14468*
D28*
G01X18263Y14370D02*
G01X18858D01*
G01X16603D02*
G01X16152D01*
G75*
G03X16068Y14335I0J-120D01*
G01X15930Y14197*
D20*
G01X18081Y13976D02*
G01X18858D01*
G01X16603D02*
G01X16551D01*
G01X15925*
G75*
G03X15815Y13950I0J-240D01*
G01X15675Y13878*
D28*
G01X18263Y13780D02*
G01X18858D01*
G01X16603D02*
G01X16152D01*
G75*
G03X16068Y13744I0J-120D01*
G01X15930Y13607*
D20*
G01X18081Y13386D02*
G01X18858D01*
G01X16603D02*
G01X16551D01*
G01X15925*
G75*
G03X15815Y13359I0J-240D01*
G01X15675Y13287*
D28*
G01X18263Y13189D02*
G01X18858D01*
G01X16603D02*
G01X16152D01*
G75*
G03X16068Y13154I0J-120D01*
G01X15930Y13016*
D20*
G01X18081Y12795D02*
G01X18858D01*
G01X16603D02*
G01X16551D01*
G01X15925*
G75*
G03X15815Y12769I0J-240D01*
G01X15675Y12696*
D28*
G01X18263Y12598D02*
G01X18858D01*
G01X16603D02*
G01X16152D01*
G75*
G03X16068Y12563I0J-120D01*
G01X15930Y12425*
D20*
G01X18081Y12205D02*
G01X18858D01*
G01X16603D02*
G01X16551D01*
G01X15925*
G75*
G03X15815Y12178I0J-240D01*
G01X15675Y12106*
D28*
G01X18263Y12008D02*
G01X18858D01*
G01X16603D02*
G01X16152D01*
G75*
G03X16068Y11973I0J-120D01*
G01X15930Y11835*
D20*
G01X18081Y11614D02*
G01X18858D01*
G01X16603D02*
G01X16551D01*
G01X15925*
G75*
G03X15815Y11588I0J-240D01*
G01X15675Y11515*
D28*
G01X18263Y11417D02*
G01X18858D01*
G01X16603D02*
G01X16152D01*
G75*
G03X16068Y11382I0J-120D01*
G01X15930Y11244*
D20*
G01X18081Y11024D02*
G01X18858D01*
G01X16603D02*
G01X16551D01*
G01X15925*
G75*
G03X15815Y10997I0J-240D01*
G01X15675Y10925*
D28*
G01X18263Y10827D02*
G01X18858D01*
G01X16603D02*
G01X16152D01*
G75*
G03X16068Y10792I0J-120D01*
G01X15930Y10654*
D20*
G01X18081Y10433D02*
G01X18858D01*
G01X16603D02*
G01X16551D01*
G01X15925*
G75*
G03X15815Y10406I0J-240D01*
G01X15675Y10334*
D28*
G01X18263Y10236D02*
G01X18858D01*
G01X16603D02*
G01X16152D01*
G75*
G03X16068Y10201I0J-120D01*
G01X15930Y10063*
D29*
G01X19510Y15882D02*
G01Y15978D01*
G01Y16427*
G75*
G02X19514Y16484I400J0D01*
G01X19551Y16738*
G75*
G03X19555Y16796I-396J57D01*
G01Y23299*
G75*
G03X19549Y23369I-400D01*
G01X19527Y23495*
G01X19510Y23588*
D22*
G01X550Y23592D02*
G01X724Y23530D01*
G75*
G03X925Y23495I201J565D01*
G01X2812*
G75*
G03X3052Y23545I0J600D01*
G01X3158Y23592*
G01X1672Y17033D02*
G01X3158D01*
G01X1672Y9115D02*
G01X3158D01*
D28*
G01X16602Y7085D02*
G01X16152D01*
G75*
G03X16068Y7049I0J-120D01*
G01X16017Y6999*
G01X15930Y6912*
G01X18263Y23229D02*
G01X18858D01*
D20*
G01X18081Y9843D02*
G01X18858D01*
G01X16603D02*
G01X16551D01*
G01X15925*
G75*
G03X15815Y9816I0J-240D01*
G01X15675Y9744*
D28*
G01X18263Y9646D02*
G01X18858D01*
G01X16603D02*
G01X16152D01*
G75*
G03X16068Y9610I0J-120D01*
G01X15930Y9473*
G01X18858Y22639D02*
G01X19560D01*
D29*
G01X19510Y8010D02*
G01Y8105D01*
G01Y8559*
G75*
G02X19518Y8638I400J0D01*
G01X19547Y8784*
G75*
G03X19555Y8862I-392J79D01*
G01Y15541*
G75*
G03X19551Y15598I-400J0D01*
G01X19524Y15788*
G01X19510Y15882*
D22*
G01X17323Y23588D02*
G01Y9115D01*
D28*
G01X16603Y23229D02*
G01X17323D01*
G01X16603Y22639D02*
G01X17323D01*
G01X16603Y22048D02*
G01X17323D01*
G01X16603Y21458D02*
G01X17323D01*
G01X16603Y20867D02*
G01X17323D01*
G01X16603Y20277D02*
G01X17323D01*
G01X16603Y19686D02*
G01X17323D01*
G01X16603Y19095D02*
G01X17323D01*
G01X16603Y18505D02*
G01X17323D01*
G01X16603Y17914D02*
G01X17323D01*
G01X16603Y15354D02*
G01X17323D01*
G01X16603Y14764D02*
G01X17323D01*
G01X16603Y14173D02*
G01X17323D01*
G01X16603Y13583D02*
G01X17323D01*
G01X16603Y12992D02*
G01X17323D01*
G01X16603Y12402D02*
G01X17323D01*
G01X16603Y11811D02*
G01X17323D01*
G01X16603Y11220D02*
G01X17323D01*
G01X16603Y10630D02*
G01X17323D01*
G01X16603Y10039D02*
G01X17323D01*
D20*
G01X18081Y6691D02*
G01X18225D01*
G01X18806*
G01X18858*
G01X18081Y7281D02*
G01X18225D01*
G01X18806*
G01X18858*
G01X16602D02*
G01X16551D01*
G01X15925*
G75*
G03X15815Y7255I0J-240D01*
G01X15804Y7249*
G01X15675Y7183*
D28*
G01X18263Y7085D02*
G01X18386D01*
G01X18858*
D20*
G01X16602Y6691D02*
G01X16550D01*
G01X15925*
G75*
G03X15815Y6664I0J-240D01*
G01X15804Y6658*
G01X15675Y6592*
D28*
G01X18263Y6494D02*
G01X18386D01*
G01X18858*
G01X16602D02*
G01X16152D01*
G75*
G03X16068Y6459I0J-120D01*
G01X16017Y6408*
G01X15930Y6321*
D27*
G01X15895Y24359D03*
G01X19370Y980D03*
D20*
G01X22887Y14881D02*
G01X23007Y15196*
G01Y14881D01*
G01X22902Y15196D02*
G01X23112D01*
G01X23127Y14881D02*
G01X23187Y15196*
G01Y14881D01*
G01Y15196D02*
G01X23322D01*
G01X23367Y15181*
G01X23382Y15166*
G01X23397Y15136*
G01Y15106*
G01X23382Y15076*
G01X23367Y15061*
G01X23322Y15046*
G01X23187*
G01X23292D02*
G01X23397Y14881D01*
G01X23442D02*
G01X23577Y15196*
G01X23457Y14881D01*
G01X23577Y15196D02*
G01X23697Y14881D01*
G01X23502Y14986D02*
G01X23652D01*
G01X23712Y14881D02*
G01X23982Y15121*
G01X23967Y15151D01*
G01X23937Y15181*
G01X23907Y15196*
G01X23847*
G01X23817Y15181*
G01X23787Y15151*
G01X23772Y15121*
G01X23757Y15076*
G01Y15001*
G01X23772Y14956*
G01X23787Y14926*
G01X23817Y14896*
G01X23847Y14881*
G01X23907*
G01X23937Y14896*
G01X23967Y14926*
G01X23982Y14956*
G01X24027Y14881D02*
G01X24087Y15196*
G01Y14881D01*
G01Y15196D02*
G01X24282D01*
G01X24087Y15046D02*
G01X24207D01*
G01X24087Y14881D02*
G01X24282D01*
G01X24312D02*
G01X24567Y15151*
G01X24537Y15181D01*
G01X24492Y15196*
G01X24432*
G01X24387Y15181*
G01X24357Y15151*
G01Y15121*
G01X24372Y15091*
G01X24387Y15076*
G01X24417Y15061*
G01X24507Y15031*
G01X24537Y15016*
G01X24552Y15001*
G01X24567Y14971*
G01Y14926*
G01X24537Y14896*
G01X24492Y14881*
G01X24432*
G01X24387Y14896*
G01X24357Y14926*
G01X24612Y14881D02*
G01X24927*
G01X24987Y15196*
G01Y14881D01*
G01Y15196D02*
G01X25182D01*
G01X24987Y15046D02*
G01X25107D01*
G01X25197Y14881D02*
G01X25332Y15196*
G01X25212Y14881D01*
G01X25332Y15196D02*
G01X25452Y14881D01*
G01X25257Y14986D02*
G01X25407D01*
G01X25467Y14881D02*
G01X25527Y15196*
G01Y14881D01*
G01Y15196D02*
G01X25662D01*
G01X25707Y15181*
G01X25722Y15166*
G01X25737Y15136*
G01Y15106*
G01X25722Y15076*
G01X25707Y15061*
G01X25662Y15046*
G01X25527*
G01X25632D02*
G01X25737Y14881D01*
G01X25782D02*
G01X26097*
G01X26352Y15151*
G01X26322Y15181D01*
G01X26277Y15196*
G01X26217*
G01X26172Y15181*
G01X26142Y15151*
G01Y15121*
G01X26157Y15091*
G01X26172Y15076*
G01X26202Y15061*
G01X26292Y15031*
G01X26322Y15016*
G01X26337Y15001*
G01X26352Y14971*
G01Y14926*
G01X26322Y14896*
G01X26277Y14881*
G01X26217*
G01X26172Y14896*
G01X26142Y14926*
G01X26397Y14881D02*
G01X26457Y15196*
G01Y14881D01*
G01X26517D02*
G01X26577Y15196*
G01Y14881D01*
G01Y15196D02*
G01X26682D01*
G01X26727Y15181*
G01X26757Y15151*
G01X26772Y15121*
G01X26787Y15076*
G01Y15001*
G01X26772Y14956*
G01X26757Y14926*
G01X26727Y14896*
G01X26682Y14881*
G01X26577*
G01X26832D02*
G01X26892Y15196*
G01Y14881D01*
G01Y15196D02*
G01X27087D01*
G01X26892Y15046D02*
G01X27012D01*
G01X26892Y14881D02*
G01X27087D01*
G01X27117D02*
M02*
