%MOIN*%
%ADD17C,0.0220*%
%ADD18C,0.0060*%
%ADD19C,0.0045*%
%ADD20C,0.0080*%
%ADD21C,0.0120*%
%ADD22C,0.0220*%
%ADD23R,0.0570X0.0120*%
%ADD24R,0.0250X0.1000*%
%ADD25R,0.0250X0.1850*%
%ADD26C,0.0250*%
%ADD27C,0.0200*%
%ASAXBY*%
%FSLAX04Y04*%
%IPPOS*%
%LNTIE-NS*%
%SFA1.0000B1.0000*%
%LPD*%
G36*
G01X4251Y22640D02*
G75*
G03X4112Y22584I0J-200D01*
G01X4112Y22742*
G75*
G03X4251Y22685I139J144D01*
G01X4251Y22640*
G37*
G36*
G01X4533Y22942D02*
G75*
G03X4375Y22866I0J-200D01*
G01X4353Y23023*
G75*
G03X4484Y22986I117J162D01*
G01X4533Y22942*
G37*
G36*
G01X18047Y22858D02*
G75*
G03X18186Y22915I0J200D01*
G01X18186Y22757*
G75*
G03X18047Y22813I-139J-144D01*
G01X18047Y22858*
G37*
G36*
G01X17865Y23055D02*
G75*
G03X18004Y23111I0J200D01*
G01X18004Y22954*
G75*
G03X17865Y23010I-139J-144D01*
G01X17865Y23055*
G37*
G36*
G01X15714Y22685D02*
G75*
G03X15853Y22742I0J200D01*
G01X15853Y22584*
G75*
G03X15714Y22640I-139J-144D01*
G01X15714Y22685*
G37*
G36*
G01X15481Y22986D02*
G75*
G03X15611Y23023I14J200D01*
G01X15588Y22866*
G75*
G03X15431Y22942I-157J-123D01*
G01X15481Y22986*
G37*
G36*
G01X4251Y22050D02*
G75*
G03X4112Y21993I0J-200D01*
G01X4112Y22151*
G75*
G03X4251Y22095I139J144D01*
G01X4251Y22050*
G37*
G36*
G01X4533Y22352D02*
G75*
G03X4375Y22275I0J-200D01*
G01X4353Y22432*
G75*
G03X4484Y22395I117J162D01*
G01X4533Y22352*
G37*
G36*
G01X18047Y22268D02*
G75*
G03X18186Y22324I0J200D01*
G01X18186Y22166*
G75*
G03X18047Y22223I-139J-144D01*
G01X18047Y22268*
G37*
G36*
G01X17865Y22464D02*
G75*
G03X18004Y22521I0J200D01*
G01X18004Y22363*
G75*
G03X17865Y22419I-139J-144D01*
G01X17865Y22464*
G37*
G36*
G01X15714Y22095D02*
G75*
G03X15853Y22151I0J200D01*
G01X15853Y21993*
G75*
G03X15714Y22050I-139J-144D01*
G01X15714Y22095*
G37*
G36*
G01X15481Y22396D02*
G75*
G03X15611Y22433I14J200D01*
G01X15588Y22275*
G75*
G03X15431Y22352I-157J-123D01*
G01X15481Y22396*
G37*
G36*
G01X4251Y21459D02*
G75*
G03X4112Y21403I0J-200D01*
G01X4112Y21560*
G75*
G03X4251Y21504I139J144D01*
G01X4251Y21459*
G37*
G36*
G01X4533Y21761D02*
G75*
G03X4375Y21685I0J-200D01*
G01X4353Y21842*
G75*
G03X4484Y21805I117J162D01*
G01X4533Y21761*
G37*
G36*
G01X18047Y21677D02*
G75*
G03X18186Y21733I0J200D01*
G01X18186Y21576*
G75*
G03X18047Y21632I-139J-144D01*
G01X18047Y21677*
G37*
G36*
G01X17865Y21874D02*
G75*
G03X18004Y21930I0J200D01*
G01X18004Y21772*
G75*
G03X17865Y21829I-139J-144D01*
G01X17865Y21874*
G37*
G36*
G01X15714Y21504D02*
G75*
G03X15853Y21560I0J200D01*
G01X15853Y21403*
G75*
G03X15714Y21459I-139J-144D01*
G01X15714Y21504*
G37*
G36*
G01X15481Y21805D02*
G75*
G03X15611Y21842I14J200D01*
G01X15588Y21685*
G75*
G03X15431Y21761I-157J-123D01*
G01X15481Y21805*
G37*
G36*
G01X4251Y20868D02*
G75*
G03X4112Y20812I0J-200D01*
G01X4112Y20970*
G75*
G03X4251Y20913I139J144D01*
G01X4251Y20868*
G37*
G36*
G01X4533Y21171D02*
G75*
G03X4375Y21094I0J-200D01*
G01X4353Y21251*
G75*
G03X4484Y21214I117J162D01*
G01X4533Y21171*
G37*
G36*
G01X18047Y21086D02*
G75*
G03X18186Y21143I0J200D01*
G01X18186Y20985*
G75*
G03X18047Y21041I-139J-144D01*
G01X18047Y21086*
G37*
G36*
G01X17865Y21283D02*
G75*
G03X18004Y21340I0J200D01*
G01X18004Y21182*
G75*
G03X17865Y21238I-139J-144D01*
G01X17865Y21283*
G37*
G36*
G01X15714Y20913D02*
G75*
G03X15853Y20970I0J200D01*
G01X15853Y20812*
G75*
G03X15714Y20868I-139J-144D01*
G01X15714Y20913*
G37*
G36*
G01X15481Y21215D02*
G75*
G03X15611Y21251I14J200D01*
G01X15588Y21094*
G75*
G03X15431Y21171I-157J-123D01*
G01X15481Y21215*
G37*
G36*
G01X4251Y20278D02*
G75*
G03X4112Y20221I0J-200D01*
G01X4112Y20379*
G75*
G03X4251Y20323I139J144D01*
G01X4251Y20278*
G37*
G36*
G01X4533Y20580D02*
G75*
G03X4375Y20504I0J-200D01*
G01X4353Y20661*
G75*
G03X4484Y20624I117J162D01*
G01X4533Y20580*
G37*
G36*
G01X18047Y20496D02*
G75*
G03X18186Y20552I0J200D01*
G01X18186Y20394*
G75*
G03X18047Y20451I-139J-144D01*
G01X18047Y20496*
G37*
G36*
G01X17865Y20693D02*
G75*
G03X18004Y20749I0J200D01*
G01X18004Y20591*
G75*
G03X17865Y20648I-139J-144D01*
G01X17865Y20693*
G37*
G36*
G01X15714Y20323D02*
G75*
G03X15853Y20379I0J200D01*
G01X15853Y20221*
G75*
G03X15714Y20278I-139J-144D01*
G01X15714Y20323*
G37*
G36*
G01X15481Y20624D02*
G75*
G03X15611Y20661I14J200D01*
G01X15588Y20504*
G75*
G03X15431Y20580I-157J-123D01*
G01X15481Y20624*
G37*
G36*
G01X4251Y19687D02*
G75*
G03X4112Y19631I0J-200D01*
G01X4112Y19789*
G75*
G03X4251Y19732I139J144D01*
G01X4251Y19687*
G37*
G36*
G01X4533Y19990D02*
G75*
G03X4375Y19913I0J-200D01*
G01X4353Y20070*
G75*
G03X4484Y20033I117J162D01*
G01X4533Y19990*
G37*
G36*
G01X18047Y19905D02*
G75*
G03X18186Y19962I0J200D01*
G01X18186Y19804*
G75*
G03X18047Y19860I-139J-144D01*
G01X18047Y19905*
G37*
G36*
G01X17865Y20102D02*
G75*
G03X18004Y20159I0J200D01*
G01X18004Y20001*
G75*
G03X17865Y20057I-139J-144D01*
G01X17865Y20102*
G37*
G36*
G01X15714Y19732D02*
G75*
G03X15853Y19789I0J200D01*
G01X15853Y19631*
G75*
G03X15714Y19687I-139J-144D01*
G01X15714Y19732*
G37*
G36*
G01X15481Y20033D02*
G75*
G03X15611Y20070I14J200D01*
G01X15588Y19913*
G75*
G03X15431Y19990I-157J-123D01*
G01X15481Y20033*
G37*
G36*
G01X4251Y19097D02*
G75*
G03X4112Y19040I0J-200D01*
G01X4112Y19198*
G75*
G03X4251Y19142I139J144D01*
G01X4251Y19097*
G37*
G36*
G01X4533Y19399D02*
G75*
G03X4375Y19322I0J-200D01*
G01X4353Y19480*
G75*
G03X4484Y19443I117J162D01*
G01X4533Y19399*
G37*
G36*
G01X18047Y19315D02*
G75*
G03X18186Y19371I0J200D01*
G01X18186Y19213*
G75*
G03X18047Y19270I-139J-144D01*
G01X18047Y19315*
G37*
G36*
G01X17865Y19512D02*
G75*
G03X18004Y19568I0J200D01*
G01X18004Y19410*
G75*
G03X17865Y19467I-139J-144D01*
G01X17865Y19512*
G37*
G36*
G01X15714Y19142D02*
G75*
G03X15853Y19198I0J200D01*
G01X15853Y19040*
G75*
G03X15714Y19097I-139J-144D01*
G01X15714Y19142*
G37*
G36*
G01X15481Y19443D02*
G75*
G03X15611Y19480I14J200D01*
G01X15588Y19322*
G75*
G03X15431Y19399I-157J-123D01*
G01X15481Y19443*
G37*
G36*
G01X4251Y18506D02*
G75*
G03X4112Y18450I0J-200D01*
G01X4112Y18608*
G75*
G03X4251Y18551I139J144D01*
G01X4251Y18506*
G37*
G36*
G01X4533Y18809D02*
G75*
G03X4375Y18732I0J-200D01*
G01X4353Y18889*
G75*
G03X4484Y18852I117J162D01*
G01X4533Y18809*
G37*
G36*
G01X18047Y18724D02*
G75*
G03X18186Y18781I0J200D01*
G01X18186Y18623*
G75*
G03X18047Y18679I-139J-144D01*
G01X18047Y18724*
G37*
G36*
G01X17865Y18921D02*
G75*
G03X18004Y18978I0J200D01*
G01X18004Y18820*
G75*
G03X17865Y18876I-139J-144D01*
G01X17865Y18921*
G37*
G36*
G01X15714Y18551D02*
G75*
G03X15853Y18608I0J200D01*
G01X15853Y18450*
G75*
G03X15714Y18506I-139J-144D01*
G01X15714Y18551*
G37*
G36*
G01X15481Y18852D02*
G75*
G03X15611Y18889I14J200D01*
G01X15588Y18732*
G75*
G03X15431Y18809I-157J-123D01*
G01X15481Y18852*
G37*
G36*
G01X4251Y17916D02*
G75*
G03X4112Y17859I0J-200D01*
G01X4112Y18017*
G75*
G03X4251Y17961I139J144D01*
G01X4251Y17916*
G37*
G36*
G01X4533Y18218D02*
G75*
G03X4375Y18141I0J-200D01*
G01X4353Y18299*
G75*
G03X4484Y18262I117J162D01*
G01X4533Y18218*
G37*
G36*
G01X18047Y18134D02*
G75*
G03X18186Y18190I0J200D01*
G01X18186Y18032*
G75*
G03X18047Y18089I-139J-144D01*
G01X18047Y18134*
G37*
G36*
G01X17865Y18331D02*
G75*
G03X18004Y18387I0J200D01*
G01X18004Y18229*
G75*
G03X17865Y18286I-139J-144D01*
G01X17865Y18331*
G37*
G36*
G01X15714Y17961D02*
G75*
G03X15853Y18017I0J200D01*
G01X15853Y17859*
G75*
G03X15714Y17916I-139J-144D01*
G01X15714Y17961*
G37*
G36*
G01X15481Y18262D02*
G75*
G03X15611Y18299I14J200D01*
G01X15588Y18141*
G75*
G03X15431Y18218I-157J-123D01*
G01X15481Y18262*
G37*
G36*
G01X4251Y17325D02*
G75*
G03X4112Y17269I0J-200D01*
G01X4112Y17427*
G75*
G03X4251Y17370I139J144D01*
G01X4251Y17325*
G37*
G36*
G01X4533Y17627D02*
G75*
G03X4375Y17551I0J-200D01*
G01X4353Y17708*
G75*
G03X4484Y17671I117J162D01*
G01X4533Y17627*
G37*
G36*
G01X18047Y17543D02*
G75*
G03X18186Y17600I0J200D01*
G01X18186Y17442*
G75*
G03X18047Y17498I-139J-144D01*
G01X18047Y17543*
G37*
G36*
G01X17865Y17740D02*
G75*
G03X18004Y17796I0J200D01*
G01X18004Y17639*
G75*
G03X17865Y17695I-139J-144D01*
G01X17865Y17740*
G37*
G36*
G01X15714Y17370D02*
G75*
G03X15853Y17427I0J200D01*
G01X15853Y17269*
G75*
G03X15714Y17325I-139J-144D01*
G01X15714Y17370*
G37*
G36*
G01X15481Y17671D02*
G75*
G03X15611Y17708I14J200D01*
G01X15588Y17551*
G75*
G03X15431Y17627I-157J-123D01*
G01X15481Y17671*
G37*
G36*
G01X4251Y14765D02*
G75*
G03X4112Y14709I0J-200D01*
G01X4112Y14867*
G75*
G03X4251Y14810I139J144D01*
G01X4251Y14765*
G37*
G36*
G01X4533Y15067D02*
G75*
G03X4375Y14991I0J-200D01*
G01X4353Y15148*
G75*
G03X4484Y15111I117J162D01*
G01X4533Y15067*
G37*
G36*
G01X18047Y14983D02*
G75*
G03X18186Y15040I0J200D01*
G01X18186Y14882*
G75*
G03X18047Y14938I-139J-144D01*
G01X18047Y14983*
G37*
G36*
G01X17865Y15180D02*
G75*
G03X18004Y15236I0J200D01*
G01X18004Y15079*
G75*
G03X17865Y15135I-139J-144D01*
G01X17865Y15180*
G37*
G36*
G01X15714Y14810D02*
G75*
G03X15853Y14867I0J200D01*
G01X15853Y14709*
G75*
G03X15714Y14765I-139J-144D01*
G01X15714Y14810*
G37*
G36*
G01X15481Y15111D02*
G75*
G03X15611Y15148I14J200D01*
G01X15588Y14991*
G75*
G03X15431Y15067I-157J-123D01*
G01X15481Y15111*
G37*
G36*
G01X4251Y14175D02*
G75*
G03X4112Y14118I0J-200D01*
G01X4112Y14276*
G75*
G03X4251Y14220I139J144D01*
G01X4251Y14175*
G37*
G36*
G01X4533Y14477D02*
G75*
G03X4375Y14400I0J-200D01*
G01X4353Y14557*
G75*
G03X4484Y14520I117J162D01*
G01X4533Y14477*
G37*
G36*
G01X18047Y14393D02*
G75*
G03X18186Y14449I0J200D01*
G01X18186Y14291*
G75*
G03X18047Y14348I-139J-144D01*
G01X18047Y14393*
G37*
G36*
G01X17865Y14589D02*
G75*
G03X18004Y14646I0J200D01*
G01X18004Y14488*
G75*
G03X17865Y14544I-139J-144D01*
G01X17865Y14589*
G37*
G36*
G01X15714Y14220D02*
G75*
G03X15853Y14276I0J200D01*
G01X15853Y14118*
G75*
G03X15714Y14175I-139J-144D01*
G01X15714Y14220*
G37*
G36*
G01X15481Y14521D02*
G75*
G03X15611Y14558I14J200D01*
G01X15588Y14400*
G75*
G03X15431Y14477I-157J-123D01*
G01X15481Y14521*
G37*
G36*
G01X4251Y13584D02*
G75*
G03X4112Y13528I0J-200D01*
G01X4112Y13685*
G75*
G03X4251Y13629I139J144D01*
G01X4251Y13584*
G37*
G36*
G01X4533Y13886D02*
G75*
G03X4375Y13810I0J-200D01*
G01X4353Y13967*
G75*
G03X4484Y13930I117J162D01*
G01X4533Y13886*
G37*
G36*
G01X18047Y13802D02*
G75*
G03X18186Y13858I0J200D01*
G01X18186Y13701*
G75*
G03X18047Y13757I-139J-144D01*
G01X18047Y13802*
G37*
G36*
G01X17865Y13999D02*
G75*
G03X18004Y14055I0J200D01*
G01X18004Y13897*
G75*
G03X17865Y13954I-139J-144D01*
G01X17865Y13999*
G37*
G36*
G01X15714Y13629D02*
G75*
G03X15853Y13685I0J200D01*
G01X15853Y13528*
G75*
G03X15714Y13584I-139J-144D01*
G01X15714Y13629*
G37*
G36*
G01X15481Y13930D02*
G75*
G03X15611Y13967I14J200D01*
G01X15588Y13810*
G75*
G03X15431Y13886I-157J-123D01*
G01X15481Y13930*
G37*
G36*
G01X4251Y12993D02*
G75*
G03X4112Y12937I0J-200D01*
G01X4112Y13095*
G75*
G03X4251Y13038I139J144D01*
G01X4251Y12993*
G37*
G36*
G01X4533Y13296D02*
G75*
G03X4375Y13219I0J-200D01*
G01X4353Y13376*
G75*
G03X4484Y13339I117J162D01*
G01X4533Y13296*
G37*
G36*
G01X18047Y13211D02*
G75*
G03X18186Y13268I0J200D01*
G01X18186Y13110*
G75*
G03X18047Y13166I-139J-144D01*
G01X18047Y13211*
G37*
G36*
G01X17865Y13408D02*
G75*
G03X18004Y13465I0J200D01*
G01X18004Y13307*
G75*
G03X17865Y13363I-139J-144D01*
G01X17865Y13408*
G37*
G36*
G01X15714Y13038D02*
G75*
G03X15853Y13095I0J200D01*
G01X15853Y12937*
G75*
G03X15714Y12993I-139J-144D01*
G01X15714Y13038*
G37*
G36*
G01X15481Y13340D02*
G75*
G03X15611Y13376I14J200D01*
G01X15588Y13219*
G75*
G03X15431Y13296I-157J-123D01*
G01X15481Y13340*
G37*
G36*
G01X4251Y12403D02*
G75*
G03X4112Y12346I0J-200D01*
G01X4112Y12504*
G75*
G03X4251Y12448I139J144D01*
G01X4251Y12403*
G37*
G36*
G01X4533Y12705D02*
G75*
G03X4375Y12629I0J-200D01*
G01X4353Y12786*
G75*
G03X4484Y12749I117J162D01*
G01X4533Y12705*
G37*
G36*
G01X18047Y12621D02*
G75*
G03X18186Y12677I0J200D01*
G01X18186Y12519*
G75*
G03X18047Y12576I-139J-144D01*
G01X18047Y12621*
G37*
G36*
G01X17865Y12818D02*
G75*
G03X18004Y12874I0J200D01*
G01X18004Y12716*
G75*
G03X17865Y12773I-139J-144D01*
G01X17865Y12818*
G37*
G36*
G01X15714Y12448D02*
G75*
G03X15853Y12504I0J200D01*
G01X15853Y12346*
G75*
G03X15714Y12403I-139J-144D01*
G01X15714Y12448*
G37*
G36*
G01X15481Y12749D02*
G75*
G03X15611Y12786I14J200D01*
G01X15588Y12629*
G75*
G03X15431Y12705I-157J-123D01*
G01X15481Y12749*
G37*
G36*
G01X4251Y11812D02*
G75*
G03X4112Y11756I0J-200D01*
G01X4112Y11914*
G75*
G03X4251Y11857I139J144D01*
G01X4251Y11812*
G37*
G36*
G01X4533Y12115D02*
G75*
G03X4375Y12038I0J-200D01*
G01X4353Y12195*
G75*
G03X4484Y12158I117J162D01*
G01X4533Y12115*
G37*
G36*
G01X18047Y12030D02*
G75*
G03X18186Y12087I0J200D01*
G01X18186Y11929*
G75*
G03X18047Y11985I-139J-144D01*
G01X18047Y12030*
G37*
G36*
G01X17865Y12227D02*
G75*
G03X18004Y12284I0J200D01*
G01X18004Y12126*
G75*
G03X17865Y12182I-139J-144D01*
G01X17865Y12227*
G37*
G36*
G01X15714Y11857D02*
G75*
G03X15853Y11914I0J200D01*
G01X15853Y11756*
G75*
G03X15714Y11812I-139J-144D01*
G01X15714Y11857*
G37*
G36*
G01X15481Y12158D02*
G75*
G03X15611Y12195I14J200D01*
G01X15588Y12038*
G75*
G03X15431Y12115I-157J-123D01*
G01X15481Y12158*
G37*
G36*
G01X4251Y11222D02*
G75*
G03X4112Y11165I0J-200D01*
G01X4112Y11323*
G75*
G03X4251Y11267I139J144D01*
G01X4251Y11222*
G37*
G36*
G01X4533Y11524D02*
G75*
G03X4375Y11447I0J-200D01*
G01X4353Y11605*
G75*
G03X4484Y11568I117J162D01*
G01X4533Y11524*
G37*
G36*
G01X18047Y11440D02*
G75*
G03X18186Y11496I0J200D01*
G01X18186Y11338*
G75*
G03X18047Y11395I-139J-144D01*
G01X18047Y11440*
G37*
G36*
G01X17865Y11637D02*
G75*
G03X18004Y11693I0J200D01*
G01X18004Y11535*
G75*
G03X17865Y11592I-139J-144D01*
G01X17865Y11637*
G37*
G36*
G01X15714Y11267D02*
G75*
G03X15853Y11323I0J200D01*
G01X15853Y11165*
G75*
G03X15714Y11222I-139J-144D01*
G01X15714Y11267*
G37*
G36*
G01X15481Y11568D02*
G75*
G03X15611Y11605I14J200D01*
G01X15588Y11447*
G75*
G03X15431Y11524I-157J-123D01*
G01X15481Y11568*
G37*
G36*
G01X4251Y10631D02*
G75*
G03X4112Y10575I0J-200D01*
G01X4112Y10733*
G75*
G03X4251Y10676I139J144D01*
G01X4251Y10631*
G37*
G36*
G01X4533Y10934D02*
G75*
G03X4375Y10857I0J-200D01*
G01X4353Y11014*
G75*
G03X4484Y10977I117J162D01*
G01X4533Y10934*
G37*
G36*
G01X18047Y10849D02*
G75*
G03X18186Y10906I0J200D01*
G01X18186Y10748*
G75*
G03X18047Y10804I-139J-144D01*
G01X18047Y10849*
G37*
G36*
G01X17865Y11046D02*
G75*
G03X18004Y11103I0J200D01*
G01X18004Y10945*
G75*
G03X17865Y11001I-139J-144D01*
G01X17865Y11046*
G37*
G36*
G01X15714Y10676D02*
G75*
G03X15853Y10733I0J200D01*
G01X15853Y10575*
G75*
G03X15714Y10631I-139J-144D01*
G01X15714Y10676*
G37*
G36*
G01X15481Y10977D02*
G75*
G03X15611Y11014I14J200D01*
G01X15588Y10857*
G75*
G03X15431Y10934I-157J-123D01*
G01X15481Y10977*
G37*
G36*
G01X4251Y10041D02*
G75*
G03X4112Y9984I0J-200D01*
G01X4112Y10142*
G75*
G03X4251Y10086I139J144D01*
G01X4251Y10041*
G37*
G36*
G01X4533Y10343D02*
G75*
G03X4375Y10266I0J-200D01*
G01X4353Y10424*
G75*
G03X4484Y10387I117J162D01*
G01X4533Y10343*
G37*
G36*
G01X18047Y10259D02*
G75*
G03X18186Y10315I0J200D01*
G01X18186Y10157*
G75*
G03X18047Y10214I-139J-144D01*
G01X18047Y10259*
G37*
G36*
G01X17865Y10456D02*
G75*
G03X18004Y10512I0J200D01*
G01X18004Y10354*
G75*
G03X17865Y10411I-139J-144D01*
G01X17865Y10456*
G37*
G36*
G01X15714Y10086D02*
G75*
G03X15853Y10142I0J200D01*
G01X15853Y9984*
G75*
G03X15714Y10041I-139J-144D01*
G01X15714Y10086*
G37*
G36*
G01X15481Y10387D02*
G75*
G03X15611Y10424I14J200D01*
G01X15588Y10266*
G75*
G03X15431Y10343I-157J-123D01*
G01X15481Y10387*
G37*
G36*
G01X4251Y9450D02*
G75*
G03X4112Y9394I0J-200D01*
G01X4112Y9552*
G75*
G03X4251Y9495I139J144D01*
G01X4251Y9450*
G37*
G36*
G01X4533Y9752D02*
G75*
G03X4375Y9676I0J-200D01*
G01X4353Y9833*
G75*
G03X4484Y9796I117J162D01*
G01X4533Y9752*
G37*
G36*
G01X4251Y6298D02*
G75*
G03X4112Y6242I0J-200D01*
G01X4112Y6400*
G75*
G03X4251Y6343I139J144D01*
G01X4251Y6298*
G37*
G36*
G01X4533Y6601D02*
G75*
G03X4375Y6524I0J-200D01*
G01X4353Y6681*
G75*
G03X4483Y6645I116J163D01*
G01X4533Y6601*
G37*
G36*
G01X4251Y6889D02*
G75*
G03X4112Y6833I0J-200D01*
G01X4112Y6990*
G75*
G03X4251Y6934I139J144D01*
G01X4251Y6889*
G37*
G36*
G01X4533Y7191D02*
G75*
G03X4375Y7115I0J-200D01*
G01X4353Y7272*
G75*
G03X4483Y7235I116J163D01*
G01X4533Y7191*
G37*
G36*
G01X15714Y6343D02*
G75*
G03X15853Y6400I0J200D01*
G01X15853Y6242*
G75*
G03X15714Y6298I-139J-144D01*
G01X15714Y6343*
G37*
G36*
G01X18047Y6516D02*
G75*
G03X18186Y6573I0J200D01*
G01X18186Y6415*
G75*
G03X18047Y6471I-139J-144D01*
G01X18047Y6516*
G37*
G36*
G01X15482Y6645D02*
G75*
G03X15611Y6681I13J200D01*
G01X15588Y6524*
G75*
G03X15431Y6601I-157J-123D01*
G01X15482Y6645*
G37*
G36*
G01X15714Y6934D02*
G75*
G03X15853Y6990I0J200D01*
G01X15853Y6833*
G75*
G03X15714Y6889I-139J-144D01*
G01X15714Y6934*
G37*
G36*
G01X18047Y7107D02*
G75*
G03X18186Y7164I0J200D01*
G01X18186Y7006*
G75*
G03X18047Y7062I-139J-144D01*
G01X18047Y7107*
G37*
G36*
G01X15482Y7236D02*
G75*
G03X15611Y7272I13J200D01*
G01X15588Y7115*
G75*
G03X15431Y7191I-157J-123D01*
G01X15482Y7236*
G37*
G36*
G01X17865Y7304D02*
G75*
G03X18004Y7360I0J200D01*
G01X18004Y7202*
G75*
G03X17865Y7259I-139J-144D01*
G01X17865Y7304*
G37*
G36*
G01X17865Y6713D02*
G75*
G03X18004Y6770I0J200D01*
G01X18004Y6612*
G75*
G03X17865Y6668I-139J-144D01*
G01X17865Y6713*
G37*
G36*
G01X18047Y9668D02*
G75*
G03X18186Y9725I0J200D01*
G01X18186Y9567*
G75*
G03X18047Y9623I-139J-144D01*
G01X18047Y9668*
G37*
G36*
G01X17865Y9865D02*
G75*
G03X18004Y9921I0J200D01*
G01X18004Y9764*
G75*
G03X17865Y9820I-139J-144D01*
G01X17865Y9865*
G37*
G36*
G01X15714Y9495D02*
G75*
G03X15853Y9552I0J200D01*
G01X15853Y9394*
G75*
G03X15714Y9450I-139J-144D01*
G01X15714Y9495*
G37*
G36*
G01X15481Y9796D02*
G75*
G03X15611Y9833I14J200D01*
G01X15588Y9676*
G75*
G03X15431Y9752I-157J-123D01*
G01X15481Y9796*
G37*
G36*
G01X3290Y22306D02*
G01X3140Y22306D01*
G01X3140Y22186*
G01X3290Y22186*
G01X3290Y22306*
G37*
G36*
G01X3780Y22699D02*
G01X3872Y22699D01*
G75*
G02X3887Y22682I0J-15D01*
G03X3902Y22594I149J-20D01*
G02X3893Y22579I-9J-5D01*
G01X3780Y22579*
G01X3780Y22699*
G37*
G36*
G01X3290Y23093D02*
G01X3140Y23093D01*
G01X3140Y22973*
G01X3290Y22973*
G01X3290Y23093*
G37*
G36*
G01X3290Y22896D02*
G01X3140Y22896D01*
G01X3140Y22776*
G01X3290Y22776*
G01X3290Y22896*
G37*
G36*
G01X3290Y23290D02*
G01X3140Y23290D01*
G01X3140Y23170*
G01X3290Y23170*
G01X3290Y23290*
G37*
G36*
G01X3780Y15295D02*
G01X3930Y15295D01*
G01X3930Y15415*
G01X3780Y15415*
G01X3780Y15295*
G37*
G36*
G01X860Y7344D02*
G01X710Y7344D01*
G01X710Y7224*
G01X860Y7224*
G01X860Y7344*
G37*
G36*
G01X860Y7148D02*
G01X710Y7148D01*
G01X710Y7028*
G01X860Y7028*
G01X860Y7148*
G37*
G36*
G01X3290Y7344D02*
G01X3140Y7344D01*
G01X3140Y7224*
G01X3290Y7224*
G01X3290Y7344*
G37*
G36*
G01X3290Y7148D02*
G01X3140Y7148D01*
G01X3140Y7028*
G01X3290Y7028*
G01X3290Y7148*
G37*
G36*
G01X3290Y6754D02*
G01X3140Y6754D01*
G01X3140Y6634*
G01X3290Y6634*
G01X3290Y6754*
G37*
G36*
G01X3290Y6557D02*
G01X3140Y6557D01*
G01X3140Y6437*
G01X3290Y6437*
G01X3290Y6557*
G37*
G36*
G01X860Y6754D02*
G01X710Y6754D01*
G01X710Y6634*
G01X860Y6634*
G01X860Y6754*
G37*
G36*
G01X860Y6557D02*
G01X710Y6557D01*
G01X710Y6437*
G01X860Y6437*
G01X860Y6557*
G37*
G36*
G01X3290Y6163D02*
G01X3140Y6163D01*
G01X3140Y6043*
G01X3290Y6043*
G01X3290Y6163*
G37*
G36*
G01X3290Y5966D02*
G01X3140Y5966D01*
G01X3140Y5846*
G01X3290Y5846*
G01X3290Y5966*
G37*
G36*
G01X860Y6163D02*
G01X710Y6163D01*
G01X710Y6043*
G01X860Y6043*
G01X860Y6163*
G37*
G36*
G01X860Y5966D02*
G01X710Y5966D01*
G01X710Y5846*
G01X860Y5846*
G01X860Y5966*
G37*
G36*
G01X1350Y5846D02*
G01X1500Y5846D01*
G01X1500Y5966*
G01X1350Y5966*
G01X1350Y5846*
G37*
G36*
G01X1350Y6043D02*
G01X1500Y6043D01*
G01X1500Y6163*
G01X1350Y6163*
G01X1350Y6043*
G37*
G36*
G01X3780Y5846D02*
G01X3930Y5846D01*
G01X3930Y5966*
G01X3780Y5966*
G01X3780Y5846*
G37*
G36*
G01X3780Y6043D02*
G01X3930Y6043D01*
G01X3930Y6163*
G01X3780Y6163*
G01X3780Y6043*
G37*
G36*
G01X3290Y5572D02*
G01X3140Y5572D01*
G01X3140Y5452*
G01X3290Y5452*
G01X3290Y5572*
G37*
G36*
G01X3290Y5375D02*
G01X3140Y5375D01*
G01X3140Y5255*
G01X3290Y5255*
G01X3290Y5375*
G37*
G36*
G01X860Y5572D02*
G01X710Y5572D01*
G01X710Y5452*
G01X860Y5452*
G01X860Y5572*
G37*
G36*
G01X860Y5375D02*
G01X710Y5375D01*
G01X710Y5255*
G01X860Y5255*
G01X860Y5375*
G37*
G36*
G01X1350Y5255D02*
G01X1500Y5255D01*
G01X1500Y5375*
G01X1350Y5375*
G01X1350Y5255*
G37*
G36*
G01X1350Y5452D02*
G01X1500Y5452D01*
G01X1500Y5572*
G01X1350Y5572*
G01X1350Y5452*
G37*
G36*
G01X3780Y5255D02*
G01X3930Y5255D01*
G01X3930Y5375*
G01X3780Y5375*
G01X3780Y5255*
G37*
G36*
G01X3780Y5452D02*
G01X3930Y5452D01*
G01X3930Y5572*
G01X3780Y5572*
G01X3780Y5452*
G37*
G36*
G01X3290Y4982D02*
G01X3140Y4982D01*
G01X3140Y4862*
G01X3290Y4862*
G01X3290Y4982*
G37*
G36*
G01X3290Y4785D02*
G01X3140Y4785D01*
G01X3140Y4665*
G01X3290Y4665*
G01X3290Y4785*
G37*
G36*
G01X860Y4982D02*
G01X710Y4982D01*
G01X710Y4862*
G01X860Y4862*
G01X860Y4982*
G37*
G36*
G01X860Y4785D02*
G01X710Y4785D01*
G01X710Y4665*
G01X860Y4665*
G01X860Y4785*
G37*
G36*
G01X1350Y4665D02*
G01X1500Y4665D01*
G01X1500Y4785*
G01X1350Y4785*
G01X1350Y4665*
G37*
G36*
G01X1350Y4862D02*
G01X1500Y4862D01*
G01X1500Y4982*
G01X1350Y4982*
G01X1350Y4862*
G37*
G36*
G01X3780Y4665D02*
G01X3930Y4665D01*
G01X3930Y4785*
G01X3780Y4785*
G01X3780Y4665*
G37*
G36*
G01X3780Y4862D02*
G01X3930Y4862D01*
G01X3930Y4982*
G01X3780Y4982*
G01X3780Y4862*
G37*
G36*
G01X3290Y4391D02*
G01X3140Y4391D01*
G01X3140Y4271*
G01X3290Y4271*
G01X3290Y4391*
G37*
G36*
G01X3290Y4194D02*
G01X3140Y4194D01*
G01X3140Y4074*
G01X3290Y4074*
G01X3290Y4194*
G37*
G36*
G01X860Y4391D02*
G01X710Y4391D01*
G01X710Y4271*
G01X860Y4271*
G01X860Y4391*
G37*
G36*
G01X860Y4194D02*
G01X710Y4194D01*
G01X710Y4074*
G01X860Y4074*
G01X860Y4194*
G37*
G36*
G01X1350Y4074D02*
G01X1500Y4074D01*
G01X1500Y4194*
G01X1350Y4194*
G01X1350Y4074*
G37*
G36*
G01X1350Y4271D02*
G01X1500Y4271D01*
G01X1500Y4391*
G01X1350Y4391*
G01X1350Y4271*
G37*
G36*
G01X3780Y4074D02*
G01X3930Y4074D01*
G01X3930Y4194*
G01X3780Y4194*
G01X3780Y4074*
G37*
G36*
G01X3780Y4271D02*
G01X3930Y4271D01*
G01X3930Y4391*
G01X3780Y4391*
G01X3780Y4271*
G37*
G36*
G01X3290Y3800D02*
G01X3140Y3800D01*
G01X3140Y3680*
G01X3290Y3680*
G01X3290Y3800*
G37*
G36*
G01X3290Y3603D02*
G01X3140Y3603D01*
G01X3140Y3483*
G01X3290Y3483*
G01X3290Y3603*
G37*
G36*
G01X860Y3800D02*
G01X710Y3800D01*
G01X710Y3680*
G01X860Y3680*
G01X860Y3800*
G37*
G36*
G01X860Y3603D02*
G01X710Y3603D01*
G01X710Y3483*
G01X860Y3483*
G01X860Y3603*
G37*
G36*
G01X1350Y3483D02*
G01X1500Y3483D01*
G01X1500Y3603*
G01X1350Y3603*
G01X1350Y3483*
G37*
G36*
G01X1350Y3680D02*
G01X1500Y3680D01*
G01X1500Y3800*
G01X1350Y3800*
G01X1350Y3680*
G37*
G36*
G01X3780Y3483D02*
G01X3930Y3483D01*
G01X3930Y3603*
G01X3780Y3603*
G01X3780Y3483*
G37*
G36*
G01X3780Y3680D02*
G01X3930Y3680D01*
G01X3930Y3800*
G01X3780Y3800*
G01X3780Y3680*
G37*
G36*
G01X3290Y3210D02*
G01X3140Y3210D01*
G01X3140Y3090*
G01X3290Y3090*
G01X3290Y3210*
G37*
G36*
G01X3290Y3013D02*
G01X3140Y3013D01*
G01X3140Y2893*
G01X3290Y2893*
G01X3290Y3013*
G37*
G36*
G01X860Y3210D02*
G01X710Y3210D01*
G01X710Y3090*
G01X860Y3090*
G01X860Y3210*
G37*
G36*
G01X860Y3013D02*
G01X710Y3013D01*
G01X710Y2893*
G01X860Y2893*
G01X860Y3013*
G37*
G36*
G01X1350Y2893D02*
G01X1500Y2893D01*
G01X1500Y3013*
G01X1350Y3013*
G01X1350Y2893*
G37*
G36*
G01X1350Y3090D02*
G01X1500Y3090D01*
G01X1500Y3210*
G01X1350Y3210*
G01X1350Y3090*
G37*
G36*
G01X3780Y2893D02*
G01X3930Y2893D01*
G01X3930Y3013*
G01X3780Y3013*
G01X3780Y2893*
G37*
G36*
G01X3780Y3090D02*
G01X3930Y3090D01*
G01X3930Y3210*
G01X3780Y3210*
G01X3780Y3090*
G37*
G36*
G01X3290Y2619D02*
G01X3140Y2619D01*
G01X3140Y2499*
G01X3290Y2499*
G01X3290Y2619*
G37*
G36*
G01X3290Y2422D02*
G01X3140Y2422D01*
G01X3140Y2302*
G01X3290Y2302*
G01X3290Y2422*
G37*
G36*
G01X860Y2619D02*
G01X710Y2619D01*
G01X710Y2499*
G01X860Y2499*
G01X860Y2619*
G37*
G36*
G01X860Y2422D02*
G01X710Y2422D01*
G01X710Y2302*
G01X860Y2302*
G01X860Y2422*
G37*
G36*
G01X1350Y2302D02*
G01X1500Y2302D01*
G01X1500Y2422*
G01X1350Y2422*
G01X1350Y2302*
G37*
G36*
G01X1350Y2499D02*
G01X1500Y2499D01*
G01X1500Y2619*
G01X1350Y2619*
G01X1350Y2499*
G37*
G36*
G01X3780Y2302D02*
G01X3930Y2302D01*
G01X3930Y2422*
G01X3780Y2422*
G01X3780Y2302*
G37*
G36*
G01X3780Y2499D02*
G01X3930Y2499D01*
G01X3930Y2619*
G01X3780Y2619*
G01X3780Y2499*
G37*
G36*
G01X3290Y2028D02*
G01X3140Y2028D01*
G01X3140Y1908*
G01X3290Y1908*
G01X3290Y2028*
G37*
G36*
G01X3290Y1831D02*
G01X3140Y1831D01*
G01X3140Y1711*
G01X3290Y1711*
G01X3290Y1831*
G37*
G36*
G01X860Y2028D02*
G01X710Y2028D01*
G01X710Y1908*
G01X860Y1908*
G01X860Y2028*
G37*
G36*
G01X860Y1831D02*
G01X710Y1831D01*
G01X710Y1711*
G01X860Y1711*
G01X860Y1831*
G37*
G36*
G01X1350Y1711D02*
G01X1500Y1711D01*
G01X1500Y1831*
G01X1350Y1831*
G01X1350Y1711*
G37*
G36*
G01X1350Y1908D02*
G01X1500Y1908D01*
G01X1500Y2028*
G01X1350Y2028*
G01X1350Y1908*
G37*
G36*
G01X3780Y1711D02*
G01X3930Y1711D01*
G01X3930Y1831*
G01X3780Y1831*
G01X3780Y1711*
G37*
G36*
G01X3780Y1908D02*
G01X3930Y1908D01*
G01X3930Y2028*
G01X3780Y2028*
G01X3780Y1908*
G37*
G36*
G01X860Y23093D02*
G01X710Y23093D01*
G01X710Y22973*
G01X860Y22973*
G01X860Y23093*
G37*
G36*
G01X860Y22896D02*
G01X710Y22896D01*
G01X710Y22776*
G01X860Y22776*
G01X860Y22896*
G37*
G36*
G01X1350Y23170D02*
G01X1500Y23170D01*
G01X1500Y23290*
G01X1350Y23290*
G01X1350Y23170*
G37*
G36*
G01X860Y22503D02*
G01X710Y22503D01*
G01X710Y22383*
G01X860Y22383*
G01X860Y22503*
G37*
G36*
G01X860Y22306D02*
G01X710Y22306D01*
G01X710Y22186*
G01X860Y22186*
G01X860Y22306*
G37*
G36*
G01X1350Y22579D02*
G01X1500Y22579D01*
G01X1500Y22699*
G01X1350Y22699*
G01X1350Y22579*
G37*
G36*
G01X860Y21912D02*
G01X710Y21912D01*
G01X710Y21792*
G01X860Y21792*
G01X860Y21912*
G37*
G36*
G01X860Y21715D02*
G01X710Y21715D01*
G01X710Y21595*
G01X860Y21595*
G01X860Y21715*
G37*
G36*
G01X1350Y21989D02*
G01X1500Y21989D01*
G01X1500Y22109*
G01X1350Y22109*
G01X1350Y21989*
G37*
G36*
G01X860Y21321D02*
G01X710Y21321D01*
G01X710Y21201*
G01X860Y21201*
G01X860Y21321*
G37*
G36*
G01X860Y21125D02*
G01X710Y21125D01*
G01X710Y21005*
G01X860Y21005*
G01X860Y21125*
G37*
G36*
G01X1350Y21398D02*
G01X1500Y21398D01*
G01X1500Y21518*
G01X1350Y21518*
G01X1350Y21398*
G37*
G36*
G01X860Y20731D02*
G01X710Y20731D01*
G01X710Y20611*
G01X860Y20611*
G01X860Y20731*
G37*
G36*
G01X860Y20534D02*
G01X710Y20534D01*
G01X710Y20414*
G01X860Y20414*
G01X860Y20534*
G37*
G36*
G01X1350Y20808D02*
G01X1500Y20808D01*
G01X1500Y20928*
G01X1350Y20928*
G01X1350Y20808*
G37*
G36*
G01X860Y20140D02*
G01X710Y20140D01*
G01X710Y20020*
G01X860Y20020*
G01X860Y20140*
G37*
G36*
G01X860Y19944D02*
G01X710Y19944D01*
G01X710Y19824*
G01X860Y19824*
G01X860Y19944*
G37*
G36*
G01X1350Y20217D02*
G01X1500Y20217D01*
G01X1500Y20337*
G01X1350Y20337*
G01X1350Y20217*
G37*
G36*
G01X860Y19550D02*
G01X710Y19550D01*
G01X710Y19430*
G01X860Y19430*
G01X860Y19550*
G37*
G36*
G01X860Y19353D02*
G01X710Y19353D01*
G01X710Y19233*
G01X860Y19233*
G01X860Y19353*
G37*
G36*
G01X1350Y19627D02*
G01X1500Y19627D01*
G01X1500Y19747*
G01X1350Y19747*
G01X1350Y19627*
G37*
G36*
G01X860Y18959D02*
G01X710Y18959D01*
G01X710Y18839*
G01X860Y18839*
G01X860Y18959*
G37*
G36*
G01X860Y18762D02*
G01X710Y18762D01*
G01X710Y18642*
G01X860Y18642*
G01X860Y18762*
G37*
G36*
G01X1350Y19036D02*
G01X1500Y19036D01*
G01X1500Y19156*
G01X1350Y19156*
G01X1350Y19036*
G37*
G36*
G01X860Y18369D02*
G01X710Y18369D01*
G01X710Y18249*
G01X860Y18249*
G01X860Y18369*
G37*
G36*
G01X860Y18172D02*
G01X710Y18172D01*
G01X710Y18052*
G01X860Y18052*
G01X860Y18172*
G37*
G36*
G01X1350Y18446D02*
G01X1500Y18446D01*
G01X1500Y18566*
G01X1350Y18566*
G01X1350Y18446*
G37*
G36*
G01X860Y17778D02*
G01X710Y17778D01*
G01X710Y17658*
G01X860Y17658*
G01X860Y17778*
G37*
G36*
G01X860Y17581D02*
G01X710Y17581D01*
G01X710Y17461*
G01X860Y17461*
G01X860Y17581*
G37*
G36*
G01X1350Y17855D02*
G01X1500Y17855D01*
G01X1500Y17975*
G01X1350Y17975*
G01X1350Y17855*
G37*
G36*
G01X860Y15218D02*
G01X710Y15218D01*
G01X710Y15098*
G01X860Y15098*
G01X860Y15218*
G37*
G36*
G01X860Y15021D02*
G01X710Y15021D01*
G01X710Y14901*
G01X860Y14901*
G01X860Y15021*
G37*
G36*
G01X1350Y15295D02*
G01X1500Y15295D01*
G01X1500Y15415*
G01X1350Y15415*
G01X1350Y15295*
G37*
G36*
G01X860Y14628D02*
G01X710Y14628D01*
G01X710Y14508*
G01X860Y14508*
G01X860Y14628*
G37*
G36*
G01X860Y14431D02*
G01X710Y14431D01*
G01X710Y14311*
G01X860Y14311*
G01X860Y14431*
G37*
G36*
G01X1350Y14704D02*
G01X1500Y14704D01*
G01X1500Y14824*
G01X1350Y14824*
G01X1350Y14704*
G37*
G36*
G01X860Y14037D02*
G01X710Y14037D01*
G01X710Y13917*
G01X860Y13917*
G01X860Y14037*
G37*
G36*
G01X860Y13840D02*
G01X710Y13840D01*
G01X710Y13720*
G01X860Y13720*
G01X860Y13840*
G37*
G36*
G01X1350Y14114D02*
G01X1500Y14114D01*
G01X1500Y14234*
G01X1350Y14234*
G01X1350Y14114*
G37*
G36*
G01X860Y13447D02*
G01X710Y13447D01*
G01X710Y13327*
G01X860Y13327*
G01X860Y13447*
G37*
G36*
G01X860Y13250D02*
G01X710Y13250D01*
G01X710Y13130*
G01X860Y13130*
G01X860Y13250*
G37*
G36*
G01X1350Y13523D02*
G01X1500Y13523D01*
G01X1500Y13643*
G01X1350Y13643*
G01X1350Y13523*
G37*
G36*
G01X860Y12856D02*
G01X710Y12856D01*
G01X710Y12736*
G01X860Y12736*
G01X860Y12856*
G37*
G36*
G01X860Y12659D02*
G01X710Y12659D01*
G01X710Y12539*
G01X860Y12539*
G01X860Y12659*
G37*
G36*
G01X1350Y12933D02*
G01X1500Y12933D01*
G01X1500Y13053*
G01X1350Y13053*
G01X1350Y12933*
G37*
G36*
G01X860Y12265D02*
G01X710Y12265D01*
G01X710Y12145*
G01X860Y12145*
G01X860Y12265*
G37*
G36*
G01X860Y12069D02*
G01X710Y12069D01*
G01X710Y11949*
G01X860Y11949*
G01X860Y12069*
G37*
G36*
G01X1350Y12342D02*
G01X1500Y12342D01*
G01X1500Y12462*
G01X1350Y12462*
G01X1350Y12342*
G37*
G36*
G01X860Y11675D02*
G01X710Y11675D01*
G01X710Y11555*
G01X860Y11555*
G01X860Y11675*
G37*
G36*
G01X860Y11478D02*
G01X710Y11478D01*
G01X710Y11358*
G01X860Y11358*
G01X860Y11478*
G37*
G36*
G01X1350Y11752D02*
G01X1500Y11752D01*
G01X1500Y11872*
G01X1350Y11872*
G01X1350Y11752*
G37*
G36*
G01X860Y11084D02*
G01X710Y11084D01*
G01X710Y10964*
G01X860Y10964*
G01X860Y11084*
G37*
G36*
G01X860Y10887D02*
G01X710Y10887D01*
G01X710Y10767*
G01X860Y10767*
G01X860Y10887*
G37*
G36*
G01X1350Y11161D02*
G01X1500Y11161D01*
G01X1500Y11281*
G01X1350Y11281*
G01X1350Y11161*
G37*
G36*
G01X860Y10494D02*
G01X710Y10494D01*
G01X710Y10374*
G01X860Y10374*
G01X860Y10494*
G37*
G36*
G01X860Y10297D02*
G01X710Y10297D01*
G01X710Y10177*
G01X860Y10177*
G01X860Y10297*
G37*
G36*
G01X1350Y10571D02*
G01X1500Y10571D01*
G01X1500Y10691*
G01X1350Y10691*
G01X1350Y10571*
G37*
G36*
G01X860Y9903D02*
G01X710Y9903D01*
G01X710Y9783*
G01X860Y9783*
G01X860Y9903*
G37*
G36*
G01X860Y9706D02*
G01X710Y9706D01*
G01X710Y9586*
G01X860Y9586*
G01X860Y9706*
G37*
G36*
G01X1350Y9980D02*
G01X1500Y9980D01*
G01X1500Y10100*
G01X1350Y10100*
G01X1350Y9980*
G37*
G36*
G01X3290Y9903D02*
G01X3140Y9903D01*
G01X3140Y9783*
G01X3290Y9783*
G01X3290Y9903*
G37*
G36*
G01X3290Y9706D02*
G01X3140Y9706D01*
G01X3140Y9586*
G01X3290Y9586*
G01X3290Y9706*
G37*
G36*
G01X3780Y10100D02*
G01X3872Y10100D01*
G75*
G02X3887Y10083I0J-15D01*
G03X3902Y9995I149J-20D01*
G02X3893Y9980I-9J-5D01*
G01X3780Y9980*
G01X3780Y10100*
G37*
G36*
G01X3290Y10494D02*
G01X3140Y10494D01*
G01X3140Y10374*
G01X3290Y10374*
G01X3290Y10494*
G37*
G36*
G01X3290Y10297D02*
G01X3140Y10297D01*
G01X3140Y10177*
G01X3290Y10177*
G01X3290Y10297*
G37*
G36*
G01X3780Y10691D02*
G01X3872Y10691D01*
G75*
G02X3887Y10674I0J-15D01*
G03X3902Y10585I149J-20D01*
G02X3893Y10571I-9J-5D01*
G01X3780Y10571*
G01X3780Y10691*
G37*
G36*
G01X3290Y11084D02*
G01X3140Y11084D01*
G01X3140Y10964*
G01X3290Y10964*
G01X3290Y11084*
G37*
G36*
G01X3290Y10887D02*
G01X3140Y10887D01*
G01X3140Y10767*
G01X3290Y10767*
G01X3290Y10887*
G37*
G36*
G01X3780Y11281D02*
G01X3872Y11281D01*
G75*
G02X3887Y11264I0J-15D01*
G03X3902Y11176I149J-20D01*
G02X3893Y11161I-9J-5D01*
G01X3780Y11161*
G01X3780Y11281*
G37*
G36*
G01X3290Y11675D02*
G01X3140Y11675D01*
G01X3140Y11555*
G01X3290Y11555*
G01X3290Y11675*
G37*
G36*
G01X3290Y11478D02*
G01X3140Y11478D01*
G01X3140Y11358*
G01X3290Y11358*
G01X3290Y11478*
G37*
G36*
G01X3780Y11872D02*
G01X3872Y11872D01*
G75*
G02X3887Y11855I0J-15D01*
G03X3902Y11766I149J-20D01*
G02X3893Y11752I-9J-5D01*
G01X3780Y11752*
G01X3780Y11872*
G37*
G36*
G01X3290Y12265D02*
G01X3140Y12265D01*
G01X3140Y12145*
G01X3290Y12145*
G01X3290Y12265*
G37*
G36*
G01X3290Y12069D02*
G01X3140Y12069D01*
G01X3140Y11949*
G01X3290Y11949*
G01X3290Y12069*
G37*
G36*
G01X3780Y12462D02*
G01X3872Y12462D01*
G75*
G02X3887Y12445I0J-15D01*
G03X3902Y12357I149J-20D01*
G02X3893Y12342I-9J-5D01*
G01X3780Y12342*
G01X3780Y12462*
G37*
G36*
G01X3290Y12856D02*
G01X3140Y12856D01*
G01X3140Y12736*
G01X3290Y12736*
G01X3290Y12856*
G37*
G36*
G01X3290Y12659D02*
G01X3140Y12659D01*
G01X3140Y12539*
G01X3290Y12539*
G01X3290Y12659*
G37*
G36*
G01X3780Y13053D02*
G01X3872Y13053D01*
G75*
G02X3887Y13036I0J-15D01*
G03X3902Y12947I149J-20D01*
G02X3893Y12933I-9J-5D01*
G01X3780Y12933*
G01X3780Y13053*
G37*
G36*
G01X3290Y13447D02*
G01X3140Y13447D01*
G01X3140Y13327*
G01X3290Y13327*
G01X3290Y13447*
G37*
G36*
G01X3290Y13250D02*
G01X3140Y13250D01*
G01X3140Y13130*
G01X3290Y13130*
G01X3290Y13250*
G37*
G36*
G01X3780Y13643D02*
G01X3872Y13643D01*
G75*
G02X3887Y13626I0J-15D01*
G03X3902Y13538I149J-20D01*
G02X3893Y13523I-9J-5D01*
G01X3780Y13523*
G01X3780Y13643*
G37*
G36*
G01X3290Y14037D02*
G01X3140Y14037D01*
G01X3140Y13917*
G01X3290Y13917*
G01X3290Y14037*
G37*
G36*
G01X3290Y13840D02*
G01X3140Y13840D01*
G01X3140Y13720*
G01X3290Y13720*
G01X3290Y13840*
G37*
G36*
G01X3780Y14234D02*
G01X3872Y14234D01*
G75*
G02X3887Y14217I0J-15D01*
G03X3902Y14128I149J-20D01*
G02X3893Y14114I-9J-5D01*
G01X3780Y14114*
G01X3780Y14234*
G37*
G36*
G01X3290Y14628D02*
G01X3140Y14628D01*
G01X3140Y14508*
G01X3290Y14508*
G01X3290Y14628*
G37*
G36*
G01X3290Y14431D02*
G01X3140Y14431D01*
G01X3140Y14311*
G01X3290Y14311*
G01X3290Y14431*
G37*
G36*
G01X3780Y14824D02*
G01X3872Y14824D01*
G75*
G02X3887Y14807I0J-15D01*
G03X3902Y14719I149J-20D01*
G02X3893Y14704I-9J-5D01*
G01X3780Y14704*
G01X3780Y14824*
G37*
G36*
G01X3290Y15218D02*
G01X3140Y15218D01*
G01X3140Y15098*
G01X3290Y15098*
G01X3290Y15218*
G37*
G36*
G01X3290Y15021D02*
G01X3140Y15021D01*
G01X3140Y14901*
G01X3290Y14901*
G01X3290Y15021*
G37*
G36*
G01X3290Y17778D02*
G01X3140Y17778D01*
G01X3140Y17658*
G01X3290Y17658*
G01X3290Y17778*
G37*
G36*
G01X3290Y17581D02*
G01X3140Y17581D01*
G01X3140Y17461*
G01X3290Y17461*
G01X3290Y17581*
G37*
G36*
G01X3780Y17975D02*
G01X3872Y17975D01*
G75*
G02X3887Y17958I0J-15D01*
G03X3902Y17870I149J-20D01*
G02X3893Y17855I-9J-5D01*
G01X3780Y17855*
G01X3780Y17975*
G37*
G36*
G01X3290Y18369D02*
G01X3140Y18369D01*
G01X3140Y18249*
G01X3290Y18249*
G01X3290Y18369*
G37*
G36*
G01X3290Y18172D02*
G01X3140Y18172D01*
G01X3140Y18052*
G01X3290Y18052*
G01X3290Y18172*
G37*
G36*
G01X3780Y18566D02*
G01X3872Y18566D01*
G75*
G02X3887Y18549I0J-15D01*
G03X3902Y18460I149J-20D01*
G02X3893Y18446I-9J-5D01*
G01X3780Y18446*
G01X3780Y18566*
G37*
G36*
G01X3290Y18959D02*
G01X3140Y18959D01*
G01X3140Y18839*
G01X3290Y18839*
G01X3290Y18959*
G37*
G36*
G01X3290Y18762D02*
G01X3140Y18762D01*
G01X3140Y18642*
G01X3290Y18642*
G01X3290Y18762*
G37*
G36*
G01X3780Y19156D02*
G01X3872Y19156D01*
G75*
G02X3887Y19139I0J-15D01*
G03X3902Y19051I149J-20D01*
G02X3893Y19036I-9J-5D01*
G01X3780Y19036*
G01X3780Y19156*
G37*
G36*
G01X3290Y19550D02*
G01X3140Y19550D01*
G01X3140Y19430*
G01X3290Y19430*
G01X3290Y19550*
G37*
G36*
G01X3290Y19353D02*
G01X3140Y19353D01*
G01X3140Y19233*
G01X3290Y19233*
G01X3290Y19353*
G37*
G36*
G01X3780Y19747D02*
G01X3872Y19747D01*
G75*
G02X3887Y19730I0J-15D01*
G03X3902Y19641I149J-20D01*
G02X3893Y19627I-9J-5D01*
G01X3780Y19627*
G01X3780Y19747*
G37*
G36*
G01X3290Y20140D02*
G01X3140Y20140D01*
G01X3140Y20020*
G01X3290Y20020*
G01X3290Y20140*
G37*
G36*
G01X3290Y19944D02*
G01X3140Y19944D01*
G01X3140Y19824*
G01X3290Y19824*
G01X3290Y19944*
G37*
G36*
G01X3780Y20337D02*
G01X3872Y20337D01*
G75*
G02X3887Y20320I0J-15D01*
G03X3902Y20232I149J-20D01*
G02X3893Y20217I-9J-5D01*
G01X3780Y20217*
G01X3780Y20337*
G37*
G36*
G01X3290Y20731D02*
G01X3140Y20731D01*
G01X3140Y20611*
G01X3290Y20611*
G01X3290Y20731*
G37*
G36*
G01X3290Y20534D02*
G01X3140Y20534D01*
G01X3140Y20414*
G01X3290Y20414*
G01X3290Y20534*
G37*
G36*
G01X3780Y20928D02*
G01X3872Y20928D01*
G75*
G02X3887Y20911I0J-15D01*
G03X3902Y20822I149J-20D01*
G02X3893Y20808I-9J-5D01*
G01X3780Y20808*
G01X3780Y20928*
G37*
G36*
G01X3290Y21322D02*
G01X3140Y21322D01*
G01X3140Y21202*
G01X3290Y21202*
G01X3290Y21322*
G37*
G36*
G01X3290Y21125D02*
G01X3140Y21125D01*
G01X3140Y21005*
G01X3290Y21005*
G01X3290Y21125*
G37*
G36*
G01X3780Y21518D02*
G01X3872Y21518D01*
G75*
G02X3887Y21501I0J-15D01*
G03X3902Y21413I149J-20D01*
G02X3893Y21398I-9J-5D01*
G01X3780Y21398*
G01X3780Y21518*
G37*
G36*
G01X3290Y21912D02*
G01X3140Y21912D01*
G01X3140Y21792*
G01X3290Y21792*
G01X3290Y21912*
G37*
G36*
G01X3290Y21715D02*
G01X3140Y21715D01*
G01X3140Y21595*
G01X3290Y21595*
G01X3290Y21715*
G37*
G36*
G01X3780Y22109D02*
G01X3872Y22109D01*
G75*
G02X3887Y22092I0J-15D01*
G03X3902Y22003I149J-20D01*
G02X3893Y21989I-9J-5D01*
G01X3780Y21989*
G01X3780Y22109*
G37*
G36*
G01X3290Y22503D02*
G01X3140Y22503D01*
G01X3140Y22383*
G01X3290Y22383*
G01X3290Y22503*
G37*
%ASAXBY*%
%FSLAX04Y04*%
%IPPOS*%
%LNLND-NS*%
%SFA1.0000B1.0000*%
%LPD*%
D23*
G01X1105Y4331D03*
G01X3535D03*
G01X1105Y4725D03*
G01X3535D03*
G01X1105Y4922D03*
G01X3535D03*
G01X1105Y5315D03*
G01X3535D03*
G01X1105Y5512D03*
G01X3535D03*
G01X1105Y5906D03*
G01X3535D03*
G01X1105Y6103D03*
G01X3535D03*
G01X1105Y6497D03*
G01X3535D03*
G01X1105Y6694D03*
G01X3535D03*
G01X1105Y7088D03*
G01X3535D03*
G01X1105Y7284D03*
G01X3535D03*
G01X1105Y9646D03*
G01X3535D03*
G01X1105Y9843D03*
G01X3535D03*
G01X1105Y10040D03*
G01X3535D03*
G01X1105Y10237D03*
G01X3535D03*
G01X1105Y10434D03*
G01X3535D03*
G01X1105Y10631D03*
G01X3535D03*
G01X1105Y10827D03*
G01X3535D03*
G01X1105Y11024D03*
G01X3535D03*
G01X1105Y11221D03*
G01X3535D03*
G01X1105Y11418D03*
G01X3535D03*
G01X1105Y11615D03*
G01X3535D03*
G01X1105Y11812D03*
G01X3535D03*
G01X1105Y12009D03*
G01X3535D03*
G01X1105Y12205D03*
G01X3535D03*
G01X1105Y12402D03*
G01X3535D03*
G01X1105Y12599D03*
G01X3535D03*
G01X1105Y12796D03*
G01X3535D03*
G01X1105Y12993D03*
G01X3535D03*
G01X1105Y13190D03*
G01X3535D03*
G01X1105Y13386D03*
G01X3535D03*
G01X1105Y13583D03*
G01X3535D03*
G01X1105Y13780D03*
G01X3535D03*
G01X1105Y13977D03*
G01X3535D03*
G01X1105Y14174D03*
G01X3535D03*
G01X1105Y14371D03*
G01X3535D03*
G01X1105Y14568D03*
G01X3535D03*
G01X1105Y14764D03*
G01X3535D03*
G01X1105Y14961D03*
G01X3535D03*
G01X1105Y15158D03*
G01X3535D03*
G01X1105Y15355D03*
G01X3535D03*
G01X1105Y17521D03*
G01X3535D03*
G01X1105Y17718D03*
G01X3535D03*
G01X1105Y17915D03*
G01X3535D03*
G01X1105Y18112D03*
G01X3535D03*
G01X1105Y18309D03*
G01X3535D03*
G01X1105Y18506D03*
G01X3535D03*
G01X1105Y18702D03*
G01X3535D03*
G01X1105Y18899D03*
G01X3535D03*
G01X1105Y19096D03*
G01X3535D03*
G01X1105Y19293D03*
G01X3535D03*
G01X1105Y19490D03*
G01X3535D03*
G01X1105Y19687D03*
G01X3535D03*
G01X1105Y19884D03*
G01X3535D03*
G01X1105Y20080D03*
G01X3535D03*
G01X1105Y20277D03*
G01X3535D03*
G01X1105Y20474D03*
G01X3535D03*
G01X1105Y20671D03*
G01X3535D03*
G01X1105Y20868D03*
G01X3535D03*
G01X1105Y21065D03*
G01X3535D03*
G01X1105Y21261D03*
G01X3535D03*
G01X1105Y21458D03*
G01X3535D03*
G01X1105Y21655D03*
G01X3535D03*
G01X1105Y21852D03*
G01X3535D03*
G01X1105Y22049D03*
G01X3535D03*
G01X1105Y22246D03*
G01X3535D03*
G01X1105Y22443D03*
G01X3535D03*
G01X1105Y22639D03*
G01X3535D03*
G01X1105Y22836D03*
G01X3535D03*
G01X1105Y23033D03*
G01X3535D03*
G01X1105Y23230D03*
G01X3535D03*
D24*
G01X2320Y1300D03*
D25*
G01Y3375D03*
G01Y5875D03*
D24*
G01Y7950D03*
G01Y9175D03*
D25*
G01Y11250D03*
G01Y13750D03*
D24*
G01Y15825D03*
G01Y17050D03*
D25*
G01Y19125D03*
G01Y21625D03*
D24*
G01Y23700D03*
D23*
G01X1105Y1771D03*
G01X3535D03*
G01X1105Y1968D03*
G01X3535D03*
G01X1105Y2362D03*
G01X3535D03*
G01X1105Y2559D03*
G01X3535D03*
G01X1105Y2953D03*
G01X3535D03*
G01X1105Y3150D03*
G01X3535D03*
G01X1105Y3543D03*
G01X3535D03*
G01X1105Y3740D03*
G01X3535D03*
G01X1105Y4134D03*
G01X3535D03*
%ASAXBY*%
%FSLAX04Y04*%
%IPPOS*%
%LNPAD-CM*%
%SFA1.0000B1.0000*%
%LPD*%
D17*
G01X1565Y13783D03*
G01X4036Y13607D03*
G01X15930D03*
G01X18263Y13780D03*
G01X4289Y13878D03*
G01X15675D03*
G01X18081Y13976D03*
G01X1565Y14373D03*
G01X4036Y14197D03*
G01X15930D03*
G01X18263Y14370D03*
G01X4289Y14468D03*
G01X15675D03*
G01X18081Y14567D03*
G01X1565Y14964D03*
G01X4036Y14788D03*
G01X15930D03*
G01X18263Y14961D03*
G01X4289Y15059D03*
G01X15675D03*
G01X18081Y15157D03*
G01X1565Y17524D03*
G01X4036Y17348D03*
G01X15930D03*
G01X18263Y17521D03*
G01X4289Y17619D03*
G01X15675D03*
G01X18081Y17718D03*
G01X1565Y18114D03*
G01X4036Y17938D03*
G01X15930D03*
G01X18263Y18111D03*
G01X4289Y18209D03*
G01X15675D03*
G01X18081Y18308D03*
G01X1565Y18705D03*
G01X4036Y18529D03*
G01X15930D03*
G01X18263Y18702D03*
G01X4289Y18800D03*
G01X15675D03*
G01X18081Y18899D03*
G01X1565Y19295D03*
G01X4036Y19119D03*
G01X15930D03*
G01X18263Y19292D03*
G01X4289Y19390D03*
G01X15675D03*
G01X18081Y19489D03*
G01X1565Y19886D03*
G01X4036Y19710D03*
G01X15930D03*
G01X18263Y19883D03*
G01X4289Y19981D03*
G01X15675D03*
G01X18081Y20080D03*
G01X1565Y20476D03*
G01X4036Y20300D03*
G01X15930D03*
G01X18263Y20473D03*
G01X4289Y20571D03*
G01X15675D03*
G01X18081Y20670D03*
G01X1565Y21067D03*
G01X4036Y20891D03*
G01X15930D03*
G01X18263Y21064D03*
G01X4289Y21162D03*
G01X15675D03*
G01X18081Y21261D03*
G01X1565Y21658D03*
G01X4036Y21482D03*
G01X15930D03*
G01X18263Y21655D03*
G01X4289Y21753D03*
G01X15675D03*
G01X18081Y21851D03*
G01X1565Y22248D03*
G01X4036Y22072D03*
G01X15930D03*
G01X18263Y22245D03*
G01X4289Y22343D03*
G01X15675D03*
G01X18081Y22442D03*
G01X1565Y22839D03*
G01X4036Y22663D03*
G01X15930D03*
G01X18263Y22836D03*
G01X4289Y22934D03*
G01X15675D03*
G01X1761Y23033D03*
G01X18081Y23032D03*
G01X230Y16438D03*
G01X18623Y16440D03*
G01X19770Y24170D03*
G01Y6471D03*
G01Y4531D03*
G01Y2412D03*
G01X19447Y230D03*
G01X17742D03*
G01X15692D03*
G01X19447Y24770D03*
G01X17742D03*
G01X15692D03*
G01X18758Y8565D03*
G01X230Y12398D03*
G01Y20509D03*
G01Y24391D03*
G01Y4527D03*
G01Y484D03*
G01X2316Y230D03*
G01X4369D03*
G01X2316Y24770D03*
G01X4369D03*
G01X1761Y22443D03*
G01Y21852D03*
G01Y21261D03*
G01Y20671D03*
G01Y20080D03*
G01Y19490D03*
G01Y18899D03*
G01Y18309D03*
G01Y17718D03*
G01Y15158D03*
G01Y14568D03*
G01Y13977D03*
G01Y13386D03*
G01Y12796D03*
G01Y12205D03*
G01Y11615D03*
G01Y11024D03*
G01Y10434D03*
G01Y9843D03*
G01X1565Y6497D03*
G01X4036Y6321D03*
G01X15930D03*
G01X18263Y6494D03*
G01X4289Y6592D03*
G01X15675D03*
G01X1565Y7088D03*
G01X1735Y7284D03*
G01X4036Y6912D03*
G01X15930D03*
G01X18263Y7085D03*
G01X4289Y7183D03*
G01X15675D03*
G01X18081Y7281D03*
G01X1735Y6694D03*
G01X18081Y6691D03*
G01X19510Y23588D03*
G01X1565Y9649D03*
G01X4036Y9473D03*
G01X15930D03*
G01X18263Y9646D03*
G01X4289Y9744D03*
G01X15675D03*
G01X18081Y9843D03*
G01X18263Y23229D03*
G01X17323Y23588D03*
G01X1672Y9115D03*
G01X3158D03*
G01X17323D03*
G01X1672Y17033D03*
G01X3158D03*
G01X17323D03*
G01X17730Y8565D03*
G01X3158D03*
G01X19510Y8010D03*
G01X550Y23594D03*
G01X3158Y23592D03*
G01Y16440D03*
G01X17730D03*
G01X19510Y15882D03*
G01X19770Y8565D03*
G01Y16442D03*
G01X230Y8563D03*
G01X838Y16438D03*
G01X1565Y10239D03*
G01X4036Y10063D03*
G01X15930D03*
G01X18263Y10236D03*
G01X4289Y10334D03*
G01X15675D03*
G01X18081Y10433D03*
G01X1565Y10830D03*
G01X4036Y10654D03*
G01X15930D03*
G01X18263Y10827D03*
G01X4289Y10925D03*
G01X15675D03*
G01X18081Y11024D03*
G01X1565Y11420D03*
G01X4036Y11244D03*
G01X15930D03*
G01X18263Y11417D03*
G01X4289Y11515D03*
G01X15675D03*
G01X18081Y11614D03*
G01X1565Y12011D03*
G01X4036Y11835D03*
G01X15930D03*
G01X18263Y12008D03*
G01X4289Y12106D03*
G01X15675D03*
G01X18081Y12205D03*
G01X1565Y12601D03*
G01X4036Y12425D03*
G01X15930D03*
G01X18263Y12598D03*
G01X4289Y12696D03*
G01X15675D03*
G01X18081Y12795D03*
G01X1565Y13192D03*
G01X4036Y13016D03*
G01X15930D03*
G01X18263Y13189D03*
G01X4289Y13287D03*
G01X15675D03*
G01X18081Y13386D03*
%ASAXBY*%
%FSLAX04Y04*%
%IPPOS*%
%LNTEA-NS*%
%SFA1.0000B1.0000*%
%LPD*%
D18*
G01X390Y8483D02*
G75*
G03X310Y8403J-80D01*
G01X390Y8643D02*
G75*
G02X310Y8723J80D01*
G01X19610Y16522D02*
G75*
G03X19690Y16602J80D01*
G01X19610Y16362D02*
G75*
G02X19690Y16282J-80D01*
G01X19610Y8645D02*
G75*
G03X19690Y8725J80D01*
G01X19610Y8485D02*
G75*
G02X19690Y8405J-80D01*
G01X2415Y24580D02*
G75*
G02X2525Y24690I110D01*
G01X2225Y24580D02*
G75*
G03X2115Y24690I-110D01*
G01X2225Y420D02*
G75*
G02X2115Y310I-110D01*
G01X2415Y420D02*
G75*
G03X2525Y310I110D01*
G01X2145Y8643D02*
G75*
G03X2225Y8723J80D01*
G01X2145Y8483D02*
G75*
G02X2225Y8403J-80D01*
G01X2145Y16518D02*
G75*
G03X2225Y16598J80D01*
G01X2145Y16358D02*
G75*
G02X2225Y16278J-80D01*
G01X2998Y15802D02*
G75*
G03X2918Y15722I0J-80D01*
G01X2998Y15962D02*
G75*
G02X2918Y16042I0J80D01*
G01X710Y16953D02*
G75*
G03X630Y16873J-80D01*
G01X710Y17113D02*
G75*
G02X630Y17193J80D01*
G01X2998Y10010D02*
G75*
G03X2918Y9930I0J-80D01*
G01X2998Y10070D02*
G75*
G02X2918Y10150I0J80D01*
G01X2998Y10601D02*
G75*
G03X2918Y10521I0J-80D01*
G01X2998Y10661D02*
G75*
G02X2918Y10741I0J80D01*
G01X2998Y11191D02*
G75*
G03X2918Y11111I0J-80D01*
G01X2998Y11251D02*
G75*
G02X2918Y11331I0J80D01*
G01X2998Y11782D02*
G75*
G03X2918Y11702I0J-80D01*
G01X2998Y11842D02*
G75*
G02X2918Y11922I0J80D01*
G01X2998Y12372D02*
G75*
G03X2918Y12292I0J-80D01*
G01X2998Y12432D02*
G75*
G02X2918Y12512I0J80D01*
G01X2998Y12963D02*
G75*
G03X2918Y12883I0J-80D01*
G01X2998Y13023D02*
G75*
G02X2918Y13103I0J80D01*
G01X2998Y13553D02*
G75*
G03X2918Y13473I0J-80D01*
G01X2998Y13613D02*
G75*
G02X2918Y13693I0J80D01*
G01X2998Y14144D02*
G75*
G03X2918Y14064I0J-80D01*
G01X2998Y14204D02*
G75*
G02X2918Y14284I0J80D01*
G01X2998Y14734D02*
G75*
G03X2918Y14654I0J-80D01*
G01X2998Y14794D02*
G75*
G02X2918Y14874I0J80D01*
G01X2998Y15325D02*
G75*
G03X2918Y15245I0J-80D01*
G01X2998Y15385D02*
G75*
G02X2918Y15465I0J80D01*
G01X2998Y17885D02*
G75*
G03X2918Y17805I0J-80D01*
G01X2998Y17945D02*
G75*
G02X2918Y18025I0J80D01*
G01X2998Y18476D02*
G75*
G03X2918Y18396I0J-80D01*
G01X2998Y18536D02*
G75*
G02X2918Y18616I0J80D01*
G01X2998Y19066D02*
G75*
G03X2918Y18986I0J-80D01*
G01X2998Y19126D02*
G75*
G02X2918Y19206I0J80D01*
G01X2998Y19657D02*
G75*
G03X2918Y19577I0J-80D01*
G01X2998Y19717D02*
G75*
G02X2918Y19797I0J80D01*
G01X2998Y20247D02*
G75*
G03X2918Y20167I0J-80D01*
G01X2998Y20307D02*
G75*
G02X2918Y20387I0J80D01*
G01X2998Y20838D02*
G75*
G03X2918Y20758I0J-80D01*
G01X2998Y20898D02*
G75*
G02X2918Y20978I0J80D01*
G01X2998Y21428D02*
G75*
G03X2918Y21348I0J-80D01*
G01X2998Y21488D02*
G75*
G02X2918Y21568I0J80D01*
G01X2998Y22019D02*
G75*
G03X2918Y21939I0J-80D01*
G01X2998Y22079D02*
G75*
G02X2918Y22159I0J80D01*
G01X2998Y22609D02*
G75*
G03X2918Y22529I0J-80D01*
G01X2998Y22669D02*
G75*
G02X2918Y22749I0J80D01*
G01X701Y10010D02*
G75*
G03X621Y9930I0J-80D01*
G01X701Y10070D02*
G75*
G02X621Y10150I0J80D01*
G01X710Y10601D02*
G75*
G03X630Y10521J-80D01*
G01X710Y10661D02*
G75*
G02X630Y10741J80D01*
G01X710Y11191D02*
G75*
G03X630Y11111J-80D01*
G01X710Y11251D02*
G75*
G02X630Y11331J80D01*
G01X710Y11782D02*
G75*
G03X630Y11702J-80D01*
G01X710Y11842D02*
G75*
G02X630Y11922J80D01*
G01X710Y12372D02*
G75*
G03X630Y12292J-80D01*
G01X710Y12432D02*
G75*
G02X630Y12512J80D01*
G01X710Y12963D02*
G75*
G03X630Y12883J-80D01*
G01X710Y13023D02*
G75*
G02X630Y13103J80D01*
G01X710Y13553D02*
G75*
G03X630Y13473J-80D01*
G01X710Y13613D02*
G75*
G02X630Y13693J80D01*
G01X710Y14144D02*
G75*
G03X630Y14064J-80D01*
G01X710Y14204D02*
G75*
G02X630Y14284J80D01*
G01X710Y14734D02*
G75*
G03X630Y14654J-80D01*
G01X710Y14794D02*
G75*
G02X630Y14874J80D01*
G01X710Y15325D02*
G75*
G03X630Y15245J-80D01*
G01X710Y15385D02*
G75*
G02X630Y15465J80D01*
G01X710Y17885D02*
G75*
G03X630Y17805J-80D01*
G01X710Y17945D02*
G75*
G02X630Y18025J80D01*
G01X710Y18476D02*
G75*
G03X630Y18396J-80D01*
G01X710Y18536D02*
G75*
G02X630Y18616J80D01*
G01X710Y19066D02*
G75*
G03X630Y18986J-80D01*
G01X710Y19126D02*
G75*
G02X630Y19206J80D01*
G01X710Y19657D02*
G75*
G03X630Y19577J-80D01*
G01X710Y19717D02*
G75*
G02X630Y19797J80D01*
G01X710Y20247D02*
G75*
G03X630Y20167J-80D01*
G01X710Y20307D02*
G75*
G02X630Y20387J80D01*
G01X710Y20838D02*
G75*
G03X630Y20758J-80D01*
G01X710Y20898D02*
G75*
G02X630Y20978J80D01*
G01X710Y21428D02*
G75*
G03X630Y21348J-80D01*
G01X710Y21488D02*
G75*
G02X630Y21568J80D01*
G01X710Y22019D02*
G75*
G03X630Y21939J-80D01*
G01X710Y22079D02*
G75*
G02X630Y22159J80D01*
G01X710Y22609D02*
G75*
G03X630Y22529J-80D01*
G01X710Y22669D02*
G75*
G02X630Y22749J80D01*
G01X710Y23200D02*
G75*
G03X630Y23120J-80D01*
G01X710Y23260D02*
G75*
G02X630Y23340J80D01*
D19*
G01X3820Y23193D02*
G01X3835Y23208D01*
G75*
G02X3889Y23230I53J-53D01*
G01X3820Y23268D02*
G01X3835Y23252D01*
G75*
G03X3889Y23230I53J53D01*
D20*
G01X1390Y13957D02*
G01X1420Y13971D01*
G75*
G02X1447Y13977I26J-56D01*
G01X1390Y13997D02*
G01X1420Y13983D01*
G75*
G03X1447Y13977I26J56D01*
D19*
G01X3820Y13940D02*
G01X3835Y13955D01*
G75*
G02X3889Y13977I53J-53D01*
G01X3820Y14015D02*
G01X3835Y13999D01*
G75*
G03X3889Y13977I53J53D01*
G01X3820Y13743D02*
G01X3835Y13758D01*
G75*
G02X3889Y13780I53J-53D01*
G01X3820Y13818D02*
G01X3835Y13802D01*
G75*
G03X3889Y13780I53J53D01*
D21*
G01X1529Y13817D02*
G01X1526Y13814D01*
G75*
G02X1448Y13780I-79J76D01*
G01X1530Y13746D02*
G01X1527Y13750D01*
G75*
G03X1448Y13780I-76J-79D01*
D20*
G01X1390Y14548D02*
G01X1420Y14562D01*
G75*
G02X1447Y14568I26J-56D01*
G01X1390Y14588D02*
G01X1420Y14573D01*
G75*
G03X1447Y14568I26J56D01*
D19*
G01X3820Y14530D02*
G01X3835Y14545D01*
G75*
G02X3889Y14568I53J-53D01*
G01X3820Y14605D02*
G01X3835Y14590D01*
G75*
G03X3889Y14568I53J53D01*
G01X3820Y14333D02*
G01X3835Y14349D01*
G75*
G02X3889Y14371I53J-53D01*
G01X3820Y14408D02*
G01X3835Y14393D01*
G75*
G03X3889Y14371I53J53D01*
D21*
G01X1529Y14408D02*
G01X1526Y14405D01*
G75*
G02X1448Y14371I-79J76D01*
G01X1530Y14337D02*
G01X1527Y14340D01*
G75*
G03X1448Y14371I-76J-79D01*
D20*
G01X1390Y15138D02*
G01X1420Y15152D01*
G75*
G02X1447Y15158I26J-56D01*
G01X1390Y15178D02*
G01X1420Y15164D01*
G75*
G03X1447Y15158I26J56D01*
D19*
G01X3820Y15121D02*
G01X3835Y15136D01*
G75*
G02X3889Y15158I53J-53D01*
G01X3820Y15196D02*
G01X3835Y15180D01*
G75*
G03X3889Y15158I53J53D01*
G01X3820Y14924D02*
G01X3835Y14939D01*
G75*
G02X3889Y14961I53J-53D01*
G01X3820Y14999D02*
G01X3835Y14983D01*
G75*
G03X3889Y14961I53J53D01*
D21*
G01X1529Y14998D02*
G01X1526Y14995D01*
G75*
G02X1448Y14961I-79J76D01*
G01X1530Y14928D02*
G01X1527Y14931D01*
G75*
G03X1448Y14961I-76J-79D01*
D20*
G01X1390Y17698D02*
G01X1420Y17712D01*
G75*
G02X1447Y17718I26J-56D01*
G01X1390Y17738D02*
G01X1420Y17724D01*
G75*
G03X1447Y17718I26J56D01*
D19*
G01X3820Y17681D02*
G01X3835Y17696D01*
G75*
G02X3889Y17718I53J-53D01*
G01X3820Y17756D02*
G01X3835Y17740D01*
G75*
G03X3889Y17718I53J53D01*
G01X3820Y17484D02*
G01X3835Y17499D01*
G75*
G02X3889Y17521I53J-53D01*
G01X3820Y17559D02*
G01X3835Y17543D01*
G75*
G03X3889Y17521I53J53D01*
D21*
G01X1529Y17558D02*
G01X1526Y17555D01*
G75*
G02X1448Y17521I-79J76D01*
G01X1530Y17488D02*
G01X1527Y17491D01*
G75*
G03X1448Y17521I-76J-79D01*
D20*
G01X1390Y18289D02*
G01X1420Y18303D01*
G75*
G02X1447Y18309I26J-56D01*
G01X1390Y18329D02*
G01X1420Y18315D01*
G75*
G03X1447Y18309I26J56D01*
D19*
G01X3820Y18271D02*
G01X3835Y18287D01*
G75*
G02X3889Y18309I53J-53D01*
G01X3820Y18346D02*
G01X3835Y18331D01*
G75*
G03X3889Y18309I53J53D01*
G01X3820Y18074D02*
G01X3835Y18090D01*
G75*
G02X3889Y18112I53J-53D01*
G01X3820Y18149D02*
G01X3835Y18134D01*
G75*
G03X3889Y18112I53J53D01*
D21*
G01X1529Y18149D02*
G01X1526Y18146D01*
G75*
G02X1448Y18112I-79J76D01*
G01X1530Y18078D02*
G01X1527Y18081D01*
G75*
G03X1448Y18112I-76J-79D01*
D20*
G01X1390Y18879D02*
G01X1420Y18893D01*
G75*
G02X1447Y18899I26J-56D01*
G01X1390Y18919D02*
G01X1420Y18905D01*
G75*
G03X1447Y18899I26J56D01*
D19*
G01X3820Y18862D02*
G01X3835Y18877D01*
G75*
G02X3889Y18899I53J-53D01*
G01X3820Y18937D02*
G01X3835Y18921D01*
G75*
G03X3889Y18899I53J53D01*
G01X3820Y18665D02*
G01X3835Y18680D01*
G75*
G02X3889Y18702I53J-53D01*
G01X3820Y18740D02*
G01X3835Y18725D01*
G75*
G03X3889Y18702I53J53D01*
D21*
G01X1529Y18739D02*
G01X1526Y18736D01*
G75*
G02X1448Y18702I-79J76D01*
G01X1530Y18669D02*
G01X1527Y18672D01*
G75*
G03X1448Y18702I-76J-79D01*
D20*
G01X1390Y19470D02*
G01X1420Y19484D01*
G75*
G02X1447Y19490I26J-56D01*
G01X1390Y19510D02*
G01X1420Y19496D01*
G75*
G03X1447Y19490I26J56D01*
D19*
G01X3820Y19452D02*
G01X3835Y19468D01*
G75*
G02X3889Y19490I53J-53D01*
G01X3820Y19527D02*
G01X3835Y19512D01*
G75*
G03X3889Y19490I53J53D01*
G01X3820Y19256D02*
G01X3835Y19271D01*
G75*
G02X3889Y19293I53J-53D01*
G01X3820Y19331D02*
G01X3835Y19315D01*
G75*
G03X3889Y19293I53J53D01*
D21*
G01X1529Y19330D02*
G01X1526Y19327D01*
G75*
G02X1448Y19293I-79J76D01*
G01X1530Y19259D02*
G01X1527Y19262D01*
G75*
G03X1448Y19293I-76J-79D01*
D20*
G01X1390Y20060D02*
G01X1420Y20075D01*
G75*
G02X1447Y20080I26J-56D01*
G01X1390Y20100D02*
G01X1420Y20086D01*
G75*
G03X1447Y20080I26J56D01*
D19*
G01X3820Y20043D02*
G01X3835Y20058D01*
G75*
G02X3889Y20080I53J-53D01*
G01X3820Y20118D02*
G01X3835Y20103D01*
G75*
G03X3889Y20080I53J53D01*
G01X3820Y19846D02*
G01X3835Y19861D01*
G75*
G02X3889Y19884I53J-53D01*
G01X3820Y19921D02*
G01X3835Y19906D01*
G75*
G03X3889Y19884I53J53D01*
D21*
G01X1529Y19921D02*
G01X1526Y19917D01*
G75*
G02X1448Y19884I-79J76D01*
G01X1530Y19850D02*
G01X1527Y19853D01*
G75*
G03X1448Y19884I-76J-79D01*
D20*
G01X1390Y20651D02*
G01X1420Y20665D01*
G75*
G02X1447Y20671I26J-56D01*
G01X1390Y20691D02*
G01X1420Y20677D01*
G75*
G03X1447Y20671I26J56D01*
D19*
G01X3820Y20633D02*
G01X3835Y20649D01*
G75*
G02X3889Y20671I53J-53D01*
G01X3820Y20708D02*
G01X3835Y20693D01*
G75*
G03X3889Y20671I53J53D01*
G01X3820Y20437D02*
G01X3835Y20452D01*
G75*
G02X3889Y20474I53J-53D01*
G01X3820Y20512D02*
G01X3835Y20496D01*
G75*
G03X3889Y20474I53J53D01*
D21*
G01X1529Y20511D02*
G01X1526Y20508D01*
G75*
G02X1448Y20474I-79J76D01*
G01X1530Y20440D02*
G01X1527Y20443D01*
G75*
G03X1448Y20474I-76J-79D01*
D20*
G01X1390Y21242D02*
G01X1420Y21256D01*
G75*
G02X1447Y21262I26J-56D01*
G01X1390Y21282D02*
G01X1420Y21267D01*
G75*
G03X1447Y21262I26J56D01*
D19*
G01X3820Y21224D02*
G01X3835Y21239D01*
G75*
G02X3889Y21262I53J-53D01*
G01X3820Y21299D02*
G01X3835Y21284D01*
G75*
G03X3889Y21262I53J53D01*
G01X3820Y21027D02*
G01X3835Y21043D01*
G75*
G02X3889Y21065I53J-53D01*
G01X3820Y21102D02*
G01X3835Y21087D01*
G75*
G03X3889Y21065I53J53D01*
D21*
G01X1529Y21102D02*
G01X1526Y21098D01*
G75*
G02X1448Y21065I-79J76D01*
G01X1530Y21031D02*
G01X1527Y21034D01*
G75*
G03X1448Y21065I-76J-79D01*
D20*
G01X1390Y21832D02*
G01X1420Y21846D01*
G75*
G02X1447Y21852I26J-56D01*
G01X1390Y21872D02*
G01X1420Y21858D01*
G75*
G03X1447Y21852I26J56D01*
D19*
G01X3820Y21815D02*
G01X3835Y21830D01*
G75*
G02X3889Y21852I53J-53D01*
G01X3820Y21890D02*
G01X3835Y21874D01*
G75*
G03X3889Y21852I53J53D01*
G01X3820Y21618D02*
G01X3835Y21633D01*
G75*
G02X3889Y21655I53J-53D01*
G01X3820Y21693D02*
G01X3835Y21677D01*
G75*
G03X3889Y21655I53J53D01*
D21*
G01X1529Y21692D02*
G01X1526Y21689D01*
G75*
G02X1448Y21655I-79J76D01*
G01X1530Y21621D02*
G01X1527Y21625D01*
G75*
G03X1448Y21655I-76J-79D01*
D20*
G01X1390Y22423D02*
G01X1420Y22437D01*
G75*
G02X1447Y22443I26J-56D01*
G01X1390Y22463D02*
G01X1420Y22448D01*
G75*
G03X1447Y22443I26J56D01*
D19*
G01X3820Y22405D02*
G01X3835Y22420D01*
G75*
G02X3889Y22443I53J-53D01*
G01X3820Y22480D02*
G01X3835Y22465D01*
G75*
G03X3889Y22443I53J53D01*
G01X3820Y22208D02*
G01X3835Y22224D01*
G75*
G02X3889Y22246I53J-53D01*
G01X3820Y22283D02*
G01X3835Y22268D01*
G75*
G03X3889Y22246I53J53D01*
D21*
G01X1529Y22283D02*
G01X1526Y22280D01*
G75*
G02X1448Y22246I-79J76D01*
G01X1530Y22212D02*
G01X1527Y22215D01*
G75*
G03X1448Y22246I-76J-79D01*
D20*
G01X1390Y23013D02*
G01X1420Y23027D01*
G75*
G02X1447Y23033I26J-56D01*
G01X1390Y23053D02*
G01X1420Y23039D01*
G75*
G03X1447Y23033I26J56D01*
D19*
G01X3820Y22996D02*
G01X3835Y23011D01*
G75*
G02X3889Y23033I53J-53D01*
G01X3820Y23071D02*
G01X3835Y23055D01*
G75*
G03X3889Y23033I53J53D01*
G01X3820Y22799D02*
G01X3835Y22814D01*
G75*
G02X3889Y22836I53J-53D01*
G01X3820Y22874D02*
G01X3835Y22858D01*
G75*
G03X3889Y22836I53J53D01*
D21*
G01X1529Y22873D02*
G01X1526Y22870D01*
G75*
G02X1448Y22836I-79J76D01*
G01X1530Y22803D02*
G01X1527Y22806D01*
G75*
G03X1448Y22836I-76J-79D01*
D20*
G01X1716Y23087D02*
G01X1683Y23059D01*
G75*
G02X1612Y23033I-71J84D01*
G01X1716Y22980D02*
G01X1683Y23007D01*
G75*
G03X1612Y23033I-71J-84D01*
G01X1716Y22496D02*
G01X1683Y22468D01*
G75*
G02X1612Y22443I-71J84D01*
G01X1716Y22389D02*
G01X1683Y22417D01*
G75*
G03X1612Y22443I-71J-84D01*
G01X1716Y21906D02*
G01X1683Y21878D01*
G75*
G02X1612Y21852I-71J84D01*
G01X1716Y21798D02*
G01X1683Y21826D01*
G75*
G03X1612Y21852I-71J-84D01*
G01X1716Y21315D02*
G01X1683Y21287D01*
G75*
G02X1612Y21261I-71J84D01*
G01X1716Y21208D02*
G01X1683Y21236D01*
G75*
G03X1612Y21261I-71J-84D01*
G01X1716Y20725D02*
G01X1683Y20697D01*
G75*
G02X1612Y20671I-71J84D01*
G01X1716Y20617D02*
G01X1683Y20645D01*
G75*
G03X1612Y20671I-71J-84D01*
G01X1716Y20134D02*
G01X1683Y20106D01*
G75*
G02X1612Y20080I-71J84D01*
G01X1716Y20027D02*
G01X1683Y20055D01*
G75*
G03X1612Y20080I-71J-84D01*
G01X1716Y19543D02*
G01X1683Y19516D01*
G75*
G02X1612Y19490I-71J84D01*
G01X1716Y19436D02*
G01X1683Y19464D01*
G75*
G03X1612Y19490I-71J-84D01*
G01X1716Y18953D02*
G01X1683Y18925D01*
G75*
G02X1612Y18899I-71J84D01*
G01X1716Y18846D02*
G01X1683Y18874D01*
G75*
G03X1612Y18899I-71J-84D01*
G01X1716Y18362D02*
G01X1683Y18334D01*
G75*
G02X1612Y18309I-71J84D01*
G01X1716Y18255D02*
G01X1683Y18283D01*
G75*
G03X1612Y18309I-71J-84D01*
G01X1716Y17772D02*
G01X1683Y17744D01*
G75*
G02X1612Y17718I-71J84D01*
G01X1716Y17665D02*
G01X1683Y17692D01*
G75*
G03X1612Y17718I-71J-84D01*
G01X1716Y15212D02*
G01X1683Y15184D01*
G75*
G02X1612Y15158I-71J84D01*
G01X1716Y15105D02*
G01X1683Y15132D01*
G75*
G03X1612Y15158I-71J-84D01*
G01X1716Y14621D02*
G01X1683Y14593D01*
G75*
G02X1612Y14568I-71J84D01*
G01X1716Y14514D02*
G01X1683Y14542D01*
G75*
G03X1612Y14568I-71J-84D01*
G01X1716Y14031D02*
G01X1683Y14003D01*
G75*
G02X1612Y13977I-71J84D01*
G01X1716Y13923D02*
G01X1683Y13951D01*
G75*
G03X1612Y13977I-71J-84D01*
G01X1716Y13440D02*
G01X1683Y13412D01*
G75*
G02X1612Y13386I-71J84D01*
G01X1716Y13333D02*
G01X1683Y13361D01*
G75*
G03X1612Y13386I-71J-84D01*
G01X1716Y12850D02*
G01X1683Y12822D01*
G75*
G02X1612Y12796I-71J84D01*
G01X1716Y12742D02*
G01X1683Y12770D01*
G75*
G03X1612Y12796I-71J-84D01*
G01X1716Y12259D02*
G01X1683Y12231D01*
G75*
G02X1612Y12205I-71J84D01*
G01X1716Y12152D02*
G01X1683Y12180D01*
G75*
G03X1612Y12205I-71J-84D01*
G01X1716Y11668D02*
G01X1683Y11641D01*
G75*
G02X1612Y11615I-71J84D01*
G01X1716Y11561D02*
G01X1683Y11589D01*
G75*
G03X1612Y11615I-71J-84D01*
G01X1716Y11078D02*
G01X1683Y11050D01*
G75*
G02X1612Y11024I-71J84D01*
G01X1716Y10971D02*
G01X1683Y10999D01*
G75*
G03X1612Y11024I-71J-84D01*
G01X1716Y10487D02*
G01X1683Y10459D01*
G75*
G02X1612Y10434I-71J84D01*
G01X1716Y10380D02*
G01X1683Y10408D01*
G75*
G03X1612Y10434I-71J-84D01*
G01X1716Y9897D02*
G01X1683Y9869D01*
G75*
G02X1612Y9843I-71J84D01*
G01X1716Y9790D02*
G01X1683Y9817D01*
G75*
G03X1612Y9843I-71J-84D01*
G01X1390Y6674D02*
G01X1420Y6688D01*
G75*
G02X1447Y6694I26J-56D01*
G01X1390Y6714D02*
G01X1420Y6700D01*
G75*
G03X1447Y6694I26J56D01*
G01X1390Y7264D02*
G01X1420Y7279D01*
G75*
G02X1447Y7284I26J-56D01*
G01X1390Y7304D02*
G01X1420Y7290D01*
G75*
G03X1447Y7284I26J56D01*
G01X1390Y9823D02*
G01X1420Y9837D01*
G75*
G02X1447Y9843I26J-56D01*
G01X1390Y9863D02*
G01X1420Y9849D01*
G75*
G03X1447Y9843I26J56D01*
D19*
G01X3820Y9806D02*
G01X3835Y9821D01*
G75*
G02X3889Y9843I53J-53D01*
G01X3820Y9881D02*
G01X3835Y9865D01*
G75*
G03X3889Y9843I53J53D01*
G01X3820Y9609D02*
G01X3835Y9624D01*
G75*
G02X3889Y9646I53J-53D01*
G01X3820Y9684D02*
G01X3835Y9668D01*
G75*
G03X3889Y9646I53J53D01*
D21*
G01X1529Y9683D02*
G01X1526Y9680D01*
G75*
G02X1448Y9646I-79J76D01*
G01X1530Y9613D02*
G01X1527Y9616D01*
G75*
G03X1448Y9646I-76J-79D01*
D20*
G01X1685Y6743D02*
G01X1668Y6726D01*
G75*
G02X1590Y6694I-78J78D01*
G01X1685Y6644D02*
G01X1668Y6661D01*
G75*
G03X1590Y6694I-78J-78D01*
G01X1685Y7334D02*
G01X1668Y7317D01*
G75*
G02X1590Y7284I-78J78D01*
G01X1685Y7235D02*
G01X1668Y7252D01*
G75*
G03X1590Y7284I-78J-78D01*
D21*
G01X1529Y7123D02*
G01X1526Y7120D01*
G75*
G02X1448Y7088I-78J78D01*
G01X1529Y7052D02*
G01X1526Y7055D01*
G75*
G03X1448Y7088I-78J-78D01*
G01X1529Y6532D02*
G01X1526Y6529D01*
G75*
G02X1448Y6497I-78J78D01*
G01X1529Y6461D02*
G01X1526Y6465D01*
G75*
G03X1448Y6497I-78J-78D01*
D19*
G01X3820Y6656D02*
G01X3835Y6672D01*
G75*
G02X3889Y6694I53J-53D01*
G01X3820Y6731D02*
G01X3835Y6716D01*
G75*
G03X3889Y6694I53J53D01*
G01X3820Y7050D02*
G01X3835Y7065D01*
G75*
G02X3889Y7087I53J-53D01*
G01X3820Y7125D02*
G01X3835Y7110D01*
G75*
G03X3889Y7087I53J53D01*
G01X3820Y7247D02*
G01X3835Y7262D01*
G75*
G02X3889Y7284I53J-53D01*
G01X3820Y7322D02*
G01X3835Y7307D01*
G75*
G03X3889Y7284I53J53D01*
G01X3820Y6459D02*
G01X3835Y6475D01*
G75*
G02X3889Y6497I53J-53D01*
G01X3820Y6534D02*
G01X3835Y6519D01*
G75*
G03X3889Y6497I53J53D01*
D20*
G01X1390Y10414D02*
G01X1420Y10428D01*
G75*
G02X1447Y10434I26J-56D01*
G01X1390Y10454D02*
G01X1420Y10440D01*
G75*
G03X1447Y10434I26J56D01*
D19*
G01X3820Y10396D02*
G01X3835Y10412D01*
G75*
G02X3889Y10434I53J-53D01*
G01X3820Y10471D02*
G01X3835Y10456D01*
G75*
G03X3889Y10434I53J53D01*
G01X3820Y10199D02*
G01X3835Y10215D01*
G75*
G02X3889Y10237I53J-53D01*
G01X3820Y10274D02*
G01X3835Y10259D01*
G75*
G03X3889Y10237I53J53D01*
D21*
G01X1529Y10274D02*
G01X1526Y10271D01*
G75*
G02X1448Y10237I-79J76D01*
G01X1530Y10203D02*
G01X1527Y10206D01*
G75*
G03X1448Y10237I-76J-79D01*
D20*
G01X1390Y11004D02*
G01X1420Y11018D01*
G75*
G02X1447Y11024I26J-56D01*
G01X1390Y11044D02*
G01X1420Y11030D01*
G75*
G03X1447Y11024I26J56D01*
D19*
G01X3820Y10987D02*
G01X3835Y11002D01*
G75*
G02X3889Y11024I53J-53D01*
G01X3820Y11062D02*
G01X3835Y11046D01*
G75*
G03X3889Y11024I53J53D01*
G01X3820Y10790D02*
G01X3835Y10805D01*
G75*
G02X3889Y10827I53J-53D01*
G01X3820Y10865D02*
G01X3835Y10850D01*
G75*
G03X3889Y10827I53J53D01*
D21*
G01X1529Y10864D02*
G01X1526Y10861D01*
G75*
G02X1448Y10827I-79J76D01*
G01X1530Y10794D02*
G01X1527Y10797D01*
G75*
G03X1448Y10827I-76J-79D01*
D20*
G01X1390Y11595D02*
G01X1420Y11609D01*
G75*
G02X1447Y11615I26J-56D01*
G01X1390Y11635D02*
G01X1420Y11621D01*
G75*
G03X1447Y11615I26J56D01*
D19*
G01X3820Y11577D02*
G01X3835Y11593D01*
G75*
G02X3889Y11615I53J-53D01*
G01X3820Y11652D02*
G01X3835Y11637D01*
G75*
G03X3889Y11615I53J53D01*
G01X3820Y11381D02*
G01X3835Y11396D01*
G75*
G02X3889Y11418I53J-53D01*
G01X3820Y11456D02*
G01X3835Y11440D01*
G75*
G03X3889Y11418I53J53D01*
D21*
G01X1529Y11455D02*
G01X1526Y11452D01*
G75*
G02X1448Y11418I-79J76D01*
G01X1530Y11384D02*
G01X1527Y11387D01*
G75*
G03X1448Y11418I-76J-79D01*
D20*
G01X1390Y12185D02*
G01X1420Y12200D01*
G75*
G02X1447Y12205I26J-56D01*
G01X1390Y12225D02*
G01X1420Y12211D01*
G75*
G03X1447Y12205I26J56D01*
D19*
G01X3820Y12168D02*
G01X3835Y12183D01*
G75*
G02X3889Y12205I53J-53D01*
G01X3820Y12243D02*
G01X3835Y12228D01*
G75*
G03X3889Y12205I53J53D01*
G01X3820Y11971D02*
G01X3835Y11986D01*
G75*
G02X3889Y12009I53J-53D01*
G01X3820Y12046D02*
G01X3835Y12031D01*
G75*
G03X3889Y12009I53J53D01*
D21*
G01X1529Y12046D02*
G01X1526Y12042D01*
G75*
G02X1448Y12009I-79J76D01*
G01X1530Y11975D02*
G01X1527Y11978D01*
G75*
G03X1448Y12009I-76J-79D01*
D20*
G01X1390Y12776D02*
G01X1420Y12790D01*
G75*
G02X1447Y12796I26J-56D01*
G01X1390Y12816D02*
G01X1420Y12802D01*
G75*
G03X1447Y12796I26J56D01*
D19*
G01X3820Y12758D02*
G01X3835Y12774D01*
G75*
G02X3889Y12796I53J-53D01*
G01X3820Y12833D02*
G01X3835Y12818D01*
G75*
G03X3889Y12796I53J53D01*
G01X3820Y12562D02*
G01X3835Y12577D01*
G75*
G02X3889Y12599I53J-53D01*
G01X3820Y12637D02*
G01X3835Y12621D01*
G75*
G03X3889Y12599I53J53D01*
D21*
G01X1529Y12636D02*
G01X1526Y12633D01*
G75*
G02X1448Y12599I-79J76D01*
G01X1530Y12565D02*
G01X1527Y12568D01*
G75*
G03X1448Y12599I-76J-79D01*
D20*
G01X1390Y13367D02*
G01X1420Y13381D01*
G75*
G02X1447Y13387I26J-56D01*
G01X1390Y13407D02*
G01X1420Y13392D01*
G75*
G03X1447Y13387I26J56D01*
D19*
G01X3820Y13349D02*
G01X3835Y13364D01*
G75*
G02X3889Y13387I53J-53D01*
G01X3820Y13424D02*
G01X3835Y13409D01*
G75*
G03X3889Y13387I53J53D01*
G01X3820Y13152D02*
G01X3835Y13168D01*
G75*
G02X3889Y13190I53J-53D01*
G01X3820Y13227D02*
G01X3835Y13212D01*
G75*
G03X3889Y13190I53J53D01*
D21*
G01X1529Y13227D02*
G01X1526Y13223D01*
G75*
G02X1448Y13190I-79J76D01*
G01X1530Y13156D02*
G01X1527Y13159D01*
G75*
G03X1448Y13190I-76J-79D01*
%ASAXBY*%
%FSLAX04Y04*%
%IPPOS*%
%LNTRA-NS*%
%SFA1.0000B1.0000*%
%LPD*%
D20*
G01X1105Y9843D02*
G01X1171D01*
G01X1612*
G01X1761*
G01X1105Y10434D02*
G01X1171D01*
G01X1612*
G01X1761*
G01X1105Y11024D02*
G01X1171D01*
G01X1612*
G01X1761*
G01X1105Y11615D02*
G01X1171D01*
G01X1612*
G01X1761*
G01X1105Y12205D02*
G01X1171D01*
G01X1612*
G01X1761*
G01X1105Y12796D02*
G01X1171D01*
G01X1612*
G01X1761*
G01X1105Y13386D02*
G01X1171D01*
G01X1612*
G01X1761*
G01X1105Y13977D02*
G01X1171D01*
G01X1612*
G01X1761*
G01X1105Y14568D02*
G01X1171D01*
G01X1612*
G01X1761*
G01X1105Y15158D02*
G01X1171D01*
G01X1612*
G01X1761*
G01X1105Y17718D02*
G01X1171D01*
G01X1612*
G01X1761*
G01X1105Y18309D02*
G01X1171D01*
G01X1612*
G01X1761*
G01X1105Y18899D02*
G01X1171D01*
G01X1612*
G01X1761*
G01X1105Y19490D02*
G01X1171D01*
G01X1612*
G01X1761*
G01X1105Y20080D02*
G01X1171D01*
G01X1612*
G01X1761*
G01X1105Y20671D02*
G01X1171D01*
G01X1612*
G01X1761*
G01X1105Y21261D02*
G01X1171D01*
G01X1612*
G01X1761*
G01X1105Y21852D02*
G01X1171D01*
G01X1612*
G01X1761*
G01X1105Y22443D02*
G01X1171D01*
G01X1612*
G01X1761*
D22*
G01X2320Y8562D02*
G01X230D01*
D19*
G01X18081Y23032D02*
G01X15898D01*
G75*
G02X15813Y23068I0J120D01*
G01X15793Y23088*
G75*
G03X15708Y23123I-85J-85D01*
G01X4254*
G75*
G03X4170Y23088I0J-120D01*
G01X4150Y23068*
G75*
G02X4065Y23033I-85J85D01*
G01X3535*
D20*
G01X1105D02*
G01X1171D01*
G01X1612*
G01X1761*
D19*
G01X3535Y22836D02*
G01X4070D01*
G75*
G02X4155Y22801I0J-120D01*
G01X4170Y22786*
G75*
G03X4254Y22751I85J85D01*
G01X4319*
G75*
G03X4379Y22767I0J120D01*
G01X4428Y22795*
G75*
G02X4488Y22811I60J-104D01*
G01X15487*
G75*
G02X15552Y22792I0J-120D01*
G01X15587Y22770*
G75*
G03X15651Y22751I65J101D01*
G01X15708*
G75*
G03X15793Y22786I0J120D01*
G01X15807Y22800*
G75*
G02X15892Y22836I85J-85D01*
G01X18263*
G01X4289Y22934D02*
G01X4445Y22959D01*
G75*
G02X4521Y22965I76J-474D01*
G01X15446*
G75*
G02X15524Y22958I0J-480D01*
G01X15675Y22934*
G01X4036Y22663D02*
G01X15930D01*
D21*
G01X1105Y22836D02*
G01X1448D01*
G01X1565*
D19*
G01X18081Y22442D02*
G01X15898D01*
G75*
G02X15813Y22477I0J120D01*
G01X15793Y22497*
G75*
G03X15708Y22532I-85J-85D01*
G01X4254*
G75*
G03X4170Y22497I0J-120D01*
G01X4150Y22478*
G75*
G02X4065Y22443I-85J85D01*
G01X3535*
G01Y22246D02*
G01X4070D01*
G75*
G02X4155Y22211I0J-120D01*
G01X4170Y22196*
G75*
G03X4254Y22161I85J85D01*
G01X4319*
G75*
G03X4379Y22177I0J120D01*
G01X4428Y22205*
G75*
G02X4488Y22221I60J-104D01*
G01X15487*
G75*
G02X15552Y22202I0J-120D01*
G01X15587Y22180*
G75*
G03X15651Y22161I65J101D01*
G01X15708*
G75*
G03X15793Y22196I0J120D01*
G01X15807Y22210*
G75*
G02X15892Y22245I85J-85D01*
G01X18263*
G01X4289Y22343D02*
G01X4445Y22368D01*
G75*
G02X4521Y22374I76J-474D01*
G01X15446*
G75*
G02X15524Y22368I0J-480D01*
G01X15675Y22343*
G01X4036Y22072D02*
G01X15930D01*
D21*
G01X1105Y22246D02*
G01X1448D01*
G01X1565*
D19*
G01X18081Y21851D02*
G01X15898D01*
G75*
G02X15813Y21887I0J120D01*
G01X15793Y21907*
G75*
G03X15708Y21942I-85J-85D01*
G01X4254*
G75*
G03X4170Y21907I0J-120D01*
G01X4150Y21887*
G75*
G02X4065Y21852I-85J85D01*
G01X3535*
G01Y21655D02*
G01X4070D01*
G75*
G02X4155Y21620I0J-120D01*
G01X4170Y21605*
G75*
G03X4254Y21570I85J85D01*
G01X4319*
G75*
G03X4379Y21586I0J120D01*
G01X4428Y21614*
G75*
G02X4488Y21630I60J-104D01*
G01X15487*
G75*
G02X15552Y21611I0J-120D01*
G01X15587Y21589*
G75*
G03X15651Y21570I65J101D01*
G01X15708*
G75*
G03X15793Y21605I0J120D01*
G01X15807Y21619*
G75*
G02X15892Y21655I85J-85D01*
G01X18263*
G01X4289Y21753D02*
G01X4445Y21778D01*
G75*
G02X4521Y21784I76J-474D01*
G01X15446*
G75*
G02X15524Y21777I0J-480D01*
G01X15675Y21753*
G01X4036Y21482D02*
G01X15930D01*
D21*
G01X1105Y21655D02*
G01X1448D01*
G01X1565*
D19*
G01X18081Y21261D02*
G01X15898D01*
G75*
G02X15813Y21296I0J120D01*
G01X15793Y21316*
G75*
G03X15708Y21351I-85J-85D01*
G01X4254*
G75*
G03X4170Y21316I0J-120D01*
G01X4150Y21297*
G75*
G02X4065Y21262I-85J85D01*
G01X3535*
G01Y21065D02*
G01X4070D01*
G75*
G02X4155Y21030I0J-120D01*
G01X4170Y21015*
G75*
G03X4254Y20979I85J85D01*
G01X4319*
G75*
G03X4379Y20996I0J120D01*
G01X4428Y21024*
G75*
G02X4488Y21040I60J-104D01*
G01X15487*
G75*
G02X15552Y21021I0J-120D01*
G01X15587Y20998*
G75*
G03X15651Y20979I65J101D01*
G01X15708*
G75*
G03X15793Y21015I0J120D01*
G01X15807Y21029*
G75*
G02X15892Y21064I85J-85D01*
G01X18263*
G01X4289Y21162D02*
G01X4445Y21187D01*
G75*
G02X4521Y21193I76J-474D01*
G01X15446*
G75*
G02X15524Y21187I0J-480D01*
G01X15675Y21162*
G01X4036Y20891D02*
G01X15930D01*
D21*
G01X1105Y21065D02*
G01X1448D01*
G01X1565*
D19*
G01X18081Y20670D02*
G01X15898D01*
G75*
G02X15813Y20705I0J120D01*
G01X15793Y20726*
G75*
G03X15708Y20761I-85J-85D01*
G01X4254*
G75*
G03X4170Y20726I0J-120D01*
G01X4150Y20706*
G75*
G02X4065Y20671I-85J85D01*
G01X3535*
G01Y20474D02*
G01X4070D01*
G75*
G02X4155Y20439I0J-120D01*
G01X4170Y20424*
G75*
G03X4254Y20389I85J85D01*
G01X4319*
G75*
G03X4379Y20405I0J120D01*
G01X4428Y20433*
G75*
G02X4488Y20449I60J-104D01*
G01X15487*
G75*
G02X15552Y20430I0J-120D01*
G01X15587Y20408*
G75*
G03X15651Y20389I65J101D01*
G01X15708*
G75*
G03X15793Y20424I0J120D01*
G01X15807Y20438*
G75*
G02X15892Y20473I85J-85D01*
G01X18263*
G01X4289Y20571D02*
G01X4445Y20597D01*
G75*
G02X4521Y20603I76J-474D01*
G01X15446*
G75*
G02X15524Y20596I0J-480D01*
G01X15675Y20571*
G01X4036Y20300D02*
G01X15930D01*
D21*
G01X1105Y20474D02*
G01X1448D01*
G01X1565*
D19*
G01X18081Y20080D02*
G01X15898D01*
G75*
G02X15813Y20115I0J120D01*
G01X15793Y20135*
G75*
G03X15708Y20170I-85J-85D01*
G01X4254*
G75*
G03X4170Y20135I0J-120D01*
G01X4150Y20116*
G75*
G02X4065Y20080I-85J85D01*
G01X3535*
G01Y19884D02*
G01X4070D01*
G75*
G02X4155Y19848I0J-120D01*
G01X4170Y19834*
G75*
G03X4254Y19798I85J85D01*
G01X4319*
G75*
G03X4379Y19814I0J120D01*
G01X4428Y19843*
G75*
G02X4488Y19859I60J-104D01*
G01X15487*
G75*
G02X15552Y19840I0J-120D01*
G01X15587Y19817*
G75*
G03X15651Y19798I65J101D01*
G01X15708*
G75*
G03X15793Y19834I0J120D01*
G01X15807Y19848*
G75*
G02X15892Y19883I85J-85D01*
G01X18263*
G01X4289Y19981D02*
G01X4445Y20006D01*
G75*
G02X4521Y20012I76J-474D01*
G01X15446*
G75*
G02X15524Y20006I0J-480D01*
G01X15675Y19981*
G01X4036Y19710D02*
G01X15930D01*
D21*
G01X1105Y19884D02*
G01X1448D01*
G01X1565*
D19*
G01X18081Y19489D02*
G01X15898D01*
G75*
G02X15813Y19524I0J120D01*
G01X15793Y19545*
G75*
G03X15708Y19580I-85J-85D01*
G01X4254*
G75*
G03X4170Y19545I0J-120D01*
G01X4150Y19525*
G75*
G02X4065Y19490I-85J85D01*
G01X3535*
G01Y19293D02*
G01X4070D01*
G75*
G02X4155Y19258I0J-120D01*
G01X4170Y19243*
G75*
G03X4254Y19208I85J85D01*
G01X4319*
G75*
G03X4379Y19224I0J120D01*
G01X4428Y19252*
G75*
G02X4488Y19268I60J-104D01*
G01X15487*
G75*
G02X15552Y19249I0J-120D01*
G01X15587Y19227*
G75*
G03X15651Y19208I65J101D01*
G01X15708*
G75*
G03X15793Y19243I0J120D01*
G01X15807Y19257*
G75*
G02X15892Y19292I85J-85D01*
G01X18263*
G01X4289Y19390D02*
G01X4445Y19415D01*
G75*
G02X4521Y19422I76J-474D01*
G01X15446*
G75*
G02X15524Y19415I0J-480D01*
G01X15675Y19390*
G01X4036Y19119D02*
G01X15930D01*
D21*
G01X1105Y19293D02*
G01X1448D01*
G01X1565*
D19*
G01X18081Y18899D02*
G01X15898D01*
G75*
G02X15813Y18934I0J120D01*
G01X15793Y18954*
G75*
G03X15708Y18989I-85J-85D01*
G01X4254*
G75*
G03X4170Y18954I0J-120D01*
G01X4150Y18934*
G75*
G02X4065Y18899I-85J85D01*
G01X3535*
G01Y18702D02*
G01X4070D01*
G75*
G02X4155Y18667I0J-120D01*
G01X4170Y18652*
G75*
G03X4254Y18617I85J85D01*
G01X4319*
G75*
G03X4379Y18633I0J120D01*
G01X4428Y18661*
G75*
G02X4488Y18678I60J-104D01*
G01X15487*
G75*
G02X15552Y18659I0J-120D01*
G01X15587Y18636*
G75*
G03X15651Y18617I65J101D01*
G01X15708*
G75*
G03X15793Y18652I0J120D01*
G01X15807Y18667*
G75*
G02X15892Y18702I85J-85D01*
G01X18263*
G01X4289Y18800D02*
G01X4445Y18825D01*
G75*
G02X4521Y18831I76J-474D01*
G01X15446*
G75*
G02X15524Y18825I0J-480D01*
G01X15675Y18800*
G01X4036Y18529D02*
G01X15930D01*
D21*
G01X1105Y18702D02*
G01X1448D01*
G01X1565*
D19*
G01X18081Y18308D02*
G01X15898D01*
G75*
G02X15813Y18343I0J120D01*
G01X15793Y18363*
G75*
G03X15708Y18399I-85J-85D01*
G01X4254*
G75*
G03X4170Y18363I0J-120D01*
G01X4150Y18344*
G75*
G02X4065Y18309I-85J85D01*
G01X3535*
G01Y18112D02*
G01X4070D01*
G75*
G02X4155Y18077I0J-120D01*
G01X4170Y18062*
G75*
G03X4254Y18027I85J85D01*
G01X4319*
G75*
G03X4379Y18043I0J120D01*
G01X4428Y18071*
G75*
G02X4488Y18087I60J-104D01*
G01X15487*
G75*
G02X15552Y18068I0J-120D01*
G01X15587Y18046*
G75*
G03X15651Y18027I65J101D01*
G01X15708*
G75*
G03X15793Y18062I0J120D01*
G01X15807Y18076*
G75*
G02X15892Y18111I85J-85D01*
G01X18263*
G01X4289Y18209D02*
G01X4445Y18234D01*
G75*
G02X4521Y18240I76J-474D01*
G01X15446*
G75*
G02X15524Y18234I0J-480D01*
G01X15675Y18209*
G01X4036Y17938D02*
G01X15930D01*
D21*
G01X1105Y18112D02*
G01X1448D01*
G01X1565*
D19*
G01X18081Y17718D02*
G01X15898D01*
G75*
G02X15813Y17753I0J120D01*
G01X15793Y17773*
G75*
G03X15708Y17808I-85J-85D01*
G01X4254*
G75*
G03X4170Y17773I0J-120D01*
G01X4150Y17753*
G75*
G02X4065Y17718I-85J85D01*
G01X3535*
G01Y17521D02*
G01X4070D01*
G75*
G02X4155Y17486I0J-120D01*
G01X4170Y17471*
G75*
G03X4254Y17436I85J85D01*
G01X4319*
G75*
G03X4379Y17452I0J120D01*
G01X4428Y17480*
G75*
G02X4488Y17496I60J-104D01*
G01X15487*
G75*
G02X15552Y17477I0J-120D01*
G01X15587Y17455*
G75*
G03X15651Y17436I65J101D01*
G01X15708*
G75*
G03X15793Y17471I0J120D01*
G01X15807Y17486*
G75*
G02X15892Y17521I85J-85D01*
G01X18263*
G01X4289Y17619D02*
G01X4445Y17644D01*
G75*
G02X4521Y17650I76J-474D01*
G01X15446*
G75*
G02X15524Y17644I0J-480D01*
G01X15675Y17619*
G01X4036Y17348D02*
G01X15930D01*
D21*
G01X1105Y17521D02*
G01X1448D01*
G01X1565*
D19*
G01X18081Y15157D02*
G01X15898D01*
G75*
G02X15813Y15193I0J120D01*
G01X15793Y15213*
G75*
G03X15708Y15248I-85J-85D01*
G01X4254*
G75*
G03X4170Y15213I0J-120D01*
G01X4150Y15193*
G75*
G02X4065Y15158I-85J85D01*
G01X3535*
G01Y14961D02*
G01X4070D01*
G75*
G02X4155Y14926I0J-120D01*
G01X4170Y14911*
G75*
G03X4254Y14876I85J85D01*
G01X4319*
G75*
G03X4379Y14892I0J120D01*
G01X4428Y14920*
G75*
G02X4488Y14936I60J-104D01*
G01X15487*
G75*
G02X15552Y14917I0J-120D01*
G01X15587Y14895*
G75*
G03X15651Y14876I65J101D01*
G01X15708*
G75*
G03X15793Y14911I0J120D01*
G01X15807Y14925*
G75*
G02X15892Y14961I85J-85D01*
G01X18263*
G01X4289Y15059D02*
G01X4445Y15084D01*
G75*
G02X4521Y15090I76J-474D01*
G01X15446*
G75*
G02X15524Y15083I0J-480D01*
G01X15675Y15059*
G01X4036Y14788D02*
G01X15930D01*
D21*
G01X1105Y14961D02*
G01X1448D01*
G01X1565*
D19*
G01X18081Y14567D02*
G01X15898D01*
G75*
G02X15813Y14602I0J120D01*
G01X15793Y14622*
G75*
G03X15708Y14657I-85J-85D01*
G01X4254*
G75*
G03X4170Y14622I0J-120D01*
G01X4150Y14603*
G75*
G02X4065Y14568I-85J85D01*
G01X3535*
G01Y14371D02*
G01X4070D01*
G75*
G02X4155Y14336I0J-120D01*
G01X4170Y14321*
G75*
G03X4254Y14286I85J85D01*
G01X4319*
G75*
G03X4379Y14302I0J120D01*
G01X4428Y14330*
G75*
G02X4488Y14346I60J-104D01*
G01X15487*
G75*
G02X15552Y14327I0J-120D01*
G01X15587Y14305*
G75*
G03X15651Y14286I65J101D01*
G01X15708*
G75*
G03X15793Y14321I0J120D01*
G01X15807Y14335*
G75*
G02X15892Y14370I85J-85D01*
G01X18263*
G01X4289Y14468D02*
G01X4445Y14493D01*
G75*
G02X4521Y14499I76J-474D01*
G01X15446*
G75*
G02X15524Y14493I0J-480D01*
G01X15675Y14468*
G01X4036Y14197D02*
G01X15930D01*
D21*
G01X1105Y14371D02*
G01X1448D01*
G01X1565*
D19*
G01X18081Y13976D02*
G01X15898D01*
G75*
G02X15813Y14012I0J120D01*
G01X15793Y14032*
G75*
G03X15708Y14067I-85J-85D01*
G01X4254*
G75*
G03X4170Y14032I0J-120D01*
G01X4150Y14012*
G75*
G02X4065Y13977I-85J85D01*
G01X3535*
G01Y13780D02*
G01X4070D01*
G75*
G02X4155Y13745I0J-120D01*
G01X4170Y13730*
G75*
G03X4254Y13695I85J85D01*
G01X4319*
G75*
G03X4379Y13711I0J120D01*
G01X4428Y13739*
G75*
G02X4488Y13755I60J-104D01*
G01X15487*
G75*
G02X15552Y13736I0J-120D01*
G01X15587Y13714*
G75*
G03X15651Y13695I65J101D01*
G01X15708*
G75*
G03X15793Y13730I0J120D01*
G01X15807Y13744*
G75*
G02X15892Y13780I85J-85D01*
G01X18263*
G01X4289Y13878D02*
G01X4445Y13903D01*
G75*
G02X4521Y13909I76J-474D01*
G01X15446*
G75*
G02X15524Y13902I0J-480D01*
G01X15675Y13878*
G01X4036Y13607D02*
G01X15930D01*
D21*
G01X1105Y13780D02*
G01X1448D01*
G01X1565*
D19*
G01X18081Y13386D02*
G01X15898D01*
G75*
G02X15813Y13421I0J120D01*
G01X15793Y13441*
G75*
G03X15708Y13476I-85J-85D01*
G01X4254*
G75*
G03X4170Y13441I0J-120D01*
G01X4150Y13422*
G75*
G02X4065Y13387I-85J85D01*
G01X3535*
G01Y13190D02*
G01X4070D01*
G75*
G02X4155Y13155I0J-120D01*
G01X4170Y13140*
G75*
G03X4254Y13104I85J85D01*
G01X4319*
G75*
G03X4379Y13121I0J120D01*
G01X4428Y13149*
G75*
G02X4488Y13165I60J-104D01*
G01X15487*
G75*
G02X15552Y13146I0J-120D01*
G01X15587Y13123*
G75*
G03X15651Y13104I65J101D01*
G01X15708*
G75*
G03X15793Y13140I0J120D01*
G01X15807Y13154*
G75*
G02X15892Y13189I85J-85D01*
G01X18263*
G01X4289Y13287D02*
G01X4445Y13312D01*
G75*
G02X4521Y13318I76J-474D01*
G01X15446*
G75*
G02X15524Y13312I0J-480D01*
G01X15675Y13287*
G01X4036Y13016D02*
G01X15930D01*
D21*
G01X1105Y13190D02*
G01X1448D01*
G01X1565*
D19*
G01X18081Y12795D02*
G01X15898D01*
G75*
G02X15813Y12830I0J120D01*
G01X15793Y12851*
G75*
G03X15708Y12886I-85J-85D01*
G01X4254*
G75*
G03X4170Y12851I0J-120D01*
G01X4150Y12831*
G75*
G02X4065Y12796I-85J85D01*
G01X3535*
G01Y12599D02*
G01X4070D01*
G75*
G02X4155Y12564I0J-120D01*
G01X4170Y12549*
G75*
G03X4254Y12514I85J85D01*
G01X4319*
G75*
G03X4379Y12530I0J120D01*
G01X4428Y12558*
G75*
G02X4488Y12574I60J-104D01*
G01X15487*
G75*
G02X15552Y12555I0J-120D01*
G01X15587Y12533*
G75*
G03X15651Y12514I65J101D01*
G01X15708*
G75*
G03X15793Y12549I0J120D01*
G01X15807Y12563*
G75*
G02X15892Y12598I85J-85D01*
G01X18263*
G01X4289Y12696D02*
G01X4445Y12722D01*
G75*
G02X4521Y12728I76J-474D01*
G01X15446*
G75*
G02X15524Y12721I0J-480D01*
G01X15675Y12696*
G01X4036Y12425D02*
G01X15930D01*
D21*
G01X1105Y12599D02*
G01X1448D01*
G01X1565*
D19*
G01X18081Y12205D02*
G01X15898D01*
G75*
G02X15813Y12240I0J120D01*
G01X15793Y12260*
G75*
G03X15708Y12295I-85J-85D01*
G01X4254*
G75*
G03X4170Y12260I0J-120D01*
G01X4150Y12241*
G75*
G02X4065Y12205I-85J85D01*
G01X3535*
G01Y12009D02*
G01X4070D01*
G75*
G02X4155Y11973I0J-120D01*
G01X4170Y11959*
G75*
G03X4254Y11923I85J85D01*
G01X4319*
G75*
G03X4379Y11939I0J120D01*
G01X4428Y11968*
G75*
G02X4488Y11984I60J-104D01*
G01X15487*
G75*
G02X15552Y11965I0J-120D01*
G01X15587Y11942*
G75*
G03X15651Y11923I65J101D01*
G01X15708*
G75*
G03X15793Y11959I0J120D01*
G01X15807Y11973*
G75*
G02X15892Y12008I85J-85D01*
G01X18263*
G01X4289Y12106D02*
G01X4445Y12131D01*
G75*
G02X4521Y12137I76J-474D01*
G01X15446*
G75*
G02X15524Y12131I0J-480D01*
G01X15675Y12106*
G01X4036Y11835D02*
G01X15930D01*
D21*
G01X1105Y12009D02*
G01X1448D01*
G01X1565*
D19*
G01X18081Y11614D02*
G01X15898D01*
G75*
G02X15813Y11649I0J120D01*
G01X15793Y11670*
G75*
G03X15708Y11705I-85J-85D01*
G01X4254*
G75*
G03X4170Y11670I0J-120D01*
G01X4150Y11650*
G75*
G02X4065Y11615I-85J85D01*
G01X3535*
G01Y11418D02*
G01X4070D01*
G75*
G02X4155Y11383I0J-120D01*
G01X4170Y11368*
G75*
G03X4254Y11333I85J85D01*
G01X4319*
G75*
G03X4379Y11349I0J120D01*
G01X4428Y11377*
G75*
G02X4488Y11393I60J-104D01*
G01X15487*
G75*
G02X15552Y11374I0J-120D01*
G01X15587Y11352*
G75*
G03X15651Y11333I65J101D01*
G01X15708*
G75*
G03X15793Y11368I0J120D01*
G01X15807Y11382*
G75*
G02X15892Y11417I85J-85D01*
G01X18263*
G01X4289Y11515D02*
G01X4445Y11540D01*
G75*
G02X4521Y11547I76J-474D01*
G01X15446*
G75*
G02X15524Y11540I0J-480D01*
G01X15675Y11515*
G01X4036Y11244D02*
G01X15930D01*
D21*
G01X1105Y11418D02*
G01X1448D01*
G01X1565*
D19*
G01X18081Y11024D02*
G01X15898D01*
G75*
G02X15813Y11059I0J120D01*
G01X15793Y11079*
G75*
G03X15708Y11114I-85J-85D01*
G01X4254*
G75*
G03X4170Y11079I0J-120D01*
G01X4150Y11059*
G75*
G02X4065Y11024I-85J85D01*
G01X3535*
G01Y10827D02*
G01X4070D01*
G75*
G02X4155Y10792I0J-120D01*
G01X4170Y10777*
G75*
G03X4254Y10742I85J85D01*
G01X4319*
G75*
G03X4379Y10758I0J120D01*
G01X4428Y10786*
G75*
G02X4488Y10803I60J-104D01*
G01X15487*
G75*
G02X15552Y10784I0J-120D01*
G01X15587Y10761*
G75*
G03X15651Y10742I65J101D01*
G01X15708*
G75*
G03X15793Y10777I0J120D01*
G01X15807Y10792*
G75*
G02X15892Y10827I85J-85D01*
G01X18263*
G01X4289Y10925D02*
G01X4445Y10950D01*
G75*
G02X4521Y10956I76J-474D01*
G01X15446*
G75*
G02X15524Y10950I0J-480D01*
G01X15675Y10925*
G01X4036Y10654D02*
G01X15930D01*
D21*
G01X1105Y10827D02*
G01X1448D01*
G01X1565*
D19*
G01X18081Y10433D02*
G01X15898D01*
G75*
G02X15813Y10468I0J120D01*
G01X15793Y10488*
G75*
G03X15708Y10524I-85J-85D01*
G01X4254*
G75*
G03X4170Y10488I0J-120D01*
G01X4150Y10469*
G75*
G02X4065Y10434I-85J85D01*
G01X3535*
G01Y10237D02*
G01X4070D01*
G75*
G02X4155Y10202I0J-120D01*
G01X4170Y10187*
G75*
G03X4254Y10152I85J85D01*
G01X4319*
G75*
G03X4379Y10168I0J120D01*
G01X4428Y10196*
G75*
G02X4488Y10212I60J-104D01*
G01X15487*
G75*
G02X15552Y10193I0J-120D01*
G01X15587Y10171*
G75*
G03X15651Y10152I65J101D01*
G01X15708*
G75*
G03X15793Y10187I0J120D01*
G01X15807Y10201*
G75*
G02X15892Y10236I85J-85D01*
G01X18263*
G01X4289Y10334D02*
G01X4445Y10359D01*
G75*
G02X4521Y10365I76J-474D01*
G01X15446*
G75*
G02X15524Y10359I0J-480D01*
G01X15675Y10334*
G01X4036Y10063D02*
G01X15930D01*
D21*
G01X1105Y10237D02*
G01X1448D01*
G01X1565*
D26*
G01X2320Y245D02*
G01Y24755D01*
D22*
G01Y16437D02*
G01X838D01*
G01X17730Y16442D02*
G01X19770D01*
G01X17730Y8565D02*
G01X19770D01*
G01X230Y24590D02*
G01Y410D01*
G75*
G03X410Y230I180D01*
G01X19590*
G75*
G03X19770Y410J180D01*
G01Y24590*
G75*
G03X19590Y24770I-180D01*
G01X410*
G75*
G03X230Y24590J-180D01*
G01X2838Y15882D02*
G01X19510D01*
G01X3158Y16440D02*
G01X17730D01*
G01X550Y23592D02*
G01Y9473D01*
G75*
G03X638Y9261I300J0D01*
G01X696Y9203*
G75*
G03X908Y9115I212J212D01*
G01X1672*
G01X17323Y23588D02*
G01X3158Y23592D01*
G01Y8565D02*
G01X17730D01*
G01X1672Y17033D02*
G01X550D01*
G01X3158D02*
G01X17323D01*
G01X3158Y9115D02*
G01X17323D01*
G01X19510Y23588D02*
G01X17888D01*
G75*
G02X17676Y23676I0J300D01*
G01X17497Y23856*
G75*
G03X17284Y23944I-212J-212D01*
G01X3188*
G75*
G03X2976Y23856I0J-300D01*
G01X2926Y23806*
G75*
G03X2838Y23593I212J-212D01*
G01Y8455*
G75*
G03X2926Y8242I300J0D01*
G01X3070Y8098*
G75*
G03X3283Y8010I212J212D01*
G01X19510*
D19*
G01X3535Y23230D02*
G01X4031D01*
G75*
G03X4082Y23244I0J100D01*
G01X4119Y23266*
G75*
G02X4170Y23280I51J-86D01*
G01X15667*
G75*
G02X15734Y23268I0J-200D01*
G01X15810Y23241*
G75*
G03X15877Y23229I67J188D01*
G01X18263*
G01X18081Y9843D02*
G01X15898D01*
G75*
G02X15813Y9878I0J120D01*
G01X15793Y9898*
G75*
G03X15708Y9933I-85J-85D01*
G01X4254*
G75*
G03X4170Y9898I0J-120D01*
G01X4150Y9878*
G75*
G02X4065Y9843I-85J85D01*
G01X3535*
G01Y9646D02*
G01X4070D01*
G75*
G02X4155Y9611I0J-120D01*
G01X4170Y9596*
G75*
G03X4254Y9561I85J85D01*
G01X4319*
G75*
G03X4379Y9577I0J120D01*
G01X4428Y9605*
G75*
G02X4488Y9621I60J-104D01*
G01X15487*
G75*
G02X15552Y9602I0J-120D01*
G01X15587Y9580*
G75*
G03X15651Y9561I65J101D01*
G01X15708*
G75*
G03X15793Y9596I0J120D01*
G01X15807Y9611*
G75*
G02X15892Y9646I85J-85D01*
G01X18263*
G01X4289Y9744D02*
G01X4445Y9769D01*
G75*
G02X4521Y9775I76J-474D01*
G01X15446*
G75*
G02X15524Y9769I0J-480D01*
G01X15675Y9744*
G01X4036Y9473D02*
G01X15930D01*
D21*
G01X1105Y9646D02*
G01X1448D01*
G01X1565*
G01X3535Y22639D02*
G01X2838D01*
G01X3535Y22049D02*
G01X2838D01*
G01X3535Y21458D02*
G01X2838D01*
G01X3535Y20868D02*
G01X2838D01*
G01X3535Y20277D02*
G01X2838D01*
G01X3535Y19687D02*
G01X2838D01*
G01X3535Y19096D02*
G01X2838D01*
G01X3535Y18506D02*
G01X2838D01*
G01X3535Y17915D02*
G01X2838D01*
G01X3535Y15355D02*
G01X2838D01*
G01X3535Y14764D02*
G01X2838D01*
G01X3535Y14174D02*
G01X2838D01*
G01X3535Y13583D02*
G01X2838D01*
G01X3535Y12993D02*
G01X2838D01*
G01X3535Y12402D02*
G01X2838D01*
G01X3535Y11812D02*
G01X2838D01*
G01X3535Y11221D02*
G01X2838D01*
G01X3535Y10631D02*
G01X2838D01*
G01X3535Y10040D02*
G01X2838D01*
G01X1105Y10631D02*
G01X550D01*
G01X1105Y11221D02*
G01X550D01*
G01X1105Y11812D02*
G01X550D01*
G01X1105Y12402D02*
G01X550D01*
G01X1105Y12993D02*
G01X550D01*
G01X1105Y13583D02*
G01X550D01*
G01X1105Y14174D02*
G01X550D01*
G01X1105Y14764D02*
G01X550D01*
G01X1105Y15355D02*
G01X550D01*
G01X1105Y17915D02*
G01X550D01*
G01X1105Y18506D02*
G01X550D01*
G01X1105Y19096D02*
G01X550D01*
G01X1105Y19687D02*
G01X550D01*
G01X1105Y20277D02*
G01X550D01*
G01X1105Y20868D02*
G01X550D01*
G01X1105Y21458D02*
G01X550D01*
G01X1105Y22049D02*
G01X550D01*
G01X1105Y22639D02*
G01X550D01*
G01X1105Y23230D02*
G01X550D01*
G01X1105Y10040D02*
G01X541D01*
D19*
G01X18081Y6691D02*
G01X15898D01*
G75*
G02X15813Y6726I0J120D01*
G01X15793Y6746*
G75*
G03X15708Y6781I-85J-85D01*
G01X4254*
G75*
G03X4170Y6746I0J-120D01*
G01X4152Y6729*
G75*
G02X4068Y6694I-85J85D01*
G01X3641*
G01X3535*
D20*
G01X1105D02*
G01X1171D01*
G01X1590*
G01X1735*
D19*
G01X3535Y7088D02*
G01X3641D01*
G01X4068*
G75*
G02X4152Y7052I0J-120D01*
G01X4170Y7035*
G75*
G03X4254Y7000I85J85D01*
G01X4319*
G75*
G03X4379Y7016I0J120D01*
G01X4428Y7044*
G75*
G02X4488Y7060I60J-104D01*
G01X15487*
G75*
G02X15552Y7041I0J-120D01*
G01X15587Y7019*
G75*
G03X15651Y7000I65J101D01*
G01X15708*
G75*
G03X15793Y7035I0J120D01*
G01X15807Y7049*
G75*
G02X15892Y7085I85J-85D01*
G01X18263*
G01X18081Y7281D02*
G01X15898D01*
G75*
G02X15813Y7317I0J120D01*
G01X15793Y7337*
G75*
G03X15708Y7372I-85J-85D01*
G01X4254*
G75*
G03X4170Y7337I0J-120D01*
G01X4152Y7320*
G75*
G02X4068Y7284I-85J85D01*
G01X3641*
G01X3535*
G01X4289Y7183D02*
G01X4459Y7210D01*
G75*
G02X4507Y7214I48J-296D01*
G01X15461*
G75*
G02X15509Y7210I0J-300D01*
G01X15675Y7183*
G01X4036Y6912D02*
G01X15930D01*
D20*
G01X1105Y7284D02*
G01X1171D01*
G01X1590*
G01X1735*
D21*
G01X1105Y7088D02*
G01X1448D01*
G01X1565*
D19*
G01X3535Y6497D02*
G01X3641D01*
G01X4068*
G75*
G02X4152Y6462I0J-120D01*
G01X4170Y6445*
G75*
G03X4254Y6409I85J85D01*
G01X4319*
G75*
G03X4379Y6425I0J120D01*
G01X4428Y6454*
G75*
G02X4488Y6470I60J-104D01*
G01X15487*
G75*
G02X15552Y6451I0J-120D01*
G01X15587Y6428*
G75*
G03X15651Y6409I65J101D01*
G01X15708*
G75*
G03X15793Y6445I0J120D01*
G01X15807Y6459*
G75*
G02X15892Y6494I85J-85D01*
G01X18263*
G01X4289Y6592D02*
G01X4459Y6619D01*
G75*
G02X4507Y6623I48J-296D01*
G01X15461*
G75*
G02X15509Y6619I0J-300D01*
G01X15675Y6592*
G01X4036Y6321D02*
G01X15930D01*
D21*
G01X1105Y6497D02*
G01X1448D01*
G01X1565*
D27*
G01X4011Y736D03*
G01X706Y24227D03*
D20*
G01X22921Y15396D02*
G01X23041Y15711*
G01Y15396D01*
G01X22936Y15711D02*
G01X23146D01*
G01X23161Y15396D02*
G01X23221Y15711*
G01Y15396D01*
G01Y15711D02*
G01X23356D01*
G01X23401Y15696*
G01X23416Y15681*
G01X23431Y15651*
G01Y15621*
G01X23416Y15591*
G01X23401Y15576*
G01X23356Y15561*
G01X23221*
G01X23326D02*
G01X23431Y15396D01*
G01X23476D02*
G01X23611Y15711*
G01X23491Y15396D01*
G01X23611Y15711D02*
G01X23731Y15396D01*
G01X23536Y15501D02*
G01X23686D01*
G01X23746Y15396D02*
G01X24016Y15636*
G01X24001Y15666D01*
G01X23971Y15696*
G01X23941Y15711*
G01X23881*
G01X23851Y15696*
G01X23821Y15666*
G01X23806Y15636*
G01X23791Y15591*
G01Y15516*
G01X23806Y15471*
G01X23821Y15441*
G01X23851Y15411*
G01X23881Y15396*
G01X23941*
G01X23971Y15411*
G01X24001Y15441*
G01X24016Y15471*
G01X24061Y15396D02*
G01X24121Y15711*
G01Y15396D01*
G01Y15711D02*
G01X24316D01*
G01X24121Y15561D02*
G01X24241D01*
G01X24121Y15396D02*
G01X24316D01*
G01X24346D02*
G01X24601Y15666*
G01X24571Y15696D01*
G01X24526Y15711*
G01X24466*
G01X24421Y15696*
G01X24391Y15666*
G01Y15636*
G01X24406Y15606*
G01X24421Y15591*
G01X24451Y15576*
G01X24541Y15546*
G01X24571Y15531*
G01X24586Y15516*
G01X24601Y15486*
G01Y15441*
G01X24571Y15411*
G01X24526Y15396*
G01X24466*
G01X24421Y15411*
G01X24391Y15441*
G01X24646Y15396D02*
G01X24961*
G01X25021Y15711*
G01Y15396D01*
G01Y15711D02*
G01X25231Y15396D01*
G01Y15711D02*
G01Y15396D01*
G01X25291D02*
G01X25351Y15711*
G01Y15396D01*
G01Y15711D02*
G01X25546D01*
G01X25351Y15561D02*
G01X25471D01*
G01X25351Y15396D02*
G01X25546D01*
G01X25576D02*
G01X25711Y15711*
G01X25591Y15396D01*
G01X25711Y15711D02*
G01X25831Y15396D01*
G01X25636Y15501D02*
G01X25786D01*
G01X25846Y15396D02*
G01X25906Y15711*
G01Y15396D01*
G01Y15711D02*
G01X26041D01*
G01X26086Y15696*
G01X26101Y15681*
G01X26116Y15651*
G01Y15621*
G01X26101Y15591*
G01X26086Y15576*
G01X26041Y15561*
G01X25906*
G01X26011D02*
G01X26116Y15396D01*
G01X26161D02*
G01X26476*
G01X26731Y15666*
G01X26701Y15696D01*
G01X26656Y15711*
G01X26596*
G01X26551Y15696*
G01X26521Y15666*
G01Y15636*
G01X26536Y15606*
G01X26551Y15591*
G01X26581Y15576*
G01X26671Y15546*
G01X26701Y15531*
G01X26716Y15516*
G01X26731Y15486*
G01Y15441*
G01X26701Y15411*
G01X26656Y15396*
G01X26596*
G01X26551Y15411*
G01X26521Y15441*
G01X26776Y15396D02*
G01X26836Y15711*
G01Y15396D01*
G01X26896D02*
G01X26956Y15711*
G01Y15396D01*
G01Y15711D02*
G01X27061D01*
G01X27106Y15696*
G01X27136Y15666*
G01X27151Y15636*
G01X27166Y15591*
G01Y15516*
G01X27151Y15471*
G01X27136Y15441*
G01X27106Y15411*
G01X27061Y15396*
G01X26956*
G01X27211D02*
G01X27271Y15711*
G01Y15396D01*
G01Y15711D02*
G01X27466D01*
G01X27271Y15561D02*
G01X27391D01*
G01X27271Y15396D02*
G01X27466D01*
G01X27496D02*
M02*
