%MOIN*%
%ADD17C,0.0220*%
%ADD18C,0.0060*%
%ADD19C,0.0045*%
%ADD20C,0.0080*%
%ADD21C,0.0120*%
%ADD22C,0.0220*%
%ADD23R,0.0570X0.0120*%
%ADD24R,0.0250X0.1000*%
%ADD25R,0.0250X0.1850*%
%ADD26C,0.0250*%
%ADD27C,0.0200*%
%ADD28C,0.0110*%
%ADD29C,0.0160*%
%ADD30R,0.0895X0.0110*%
%ADD31R,0.0170X0.1000*%
%ADD32R,0.0170X0.1850*%
%ADD33C,0.0170*%
%ADD34C,0.0079*%
%ADD35C,0.0380*%
%ADD36C,0.0276*%
%ADD37C,0.0492*%
%ADD38C,0.0250*%
%ADD39C,0.0005*%
%ASAXBY*%
%FSLAX04Y04*%
%IPPOS*%
%LNPCB*%
%SFA1.0000B1.0000*%
%LPD*%
%ASAXBY*%
%FSLAX04Y04*%
%IPPOS*%
%LNPCB*%
%SFA1.0000B1.0000*%
%LPD*%
D39*
G01X20000Y300D02*
G01Y24700D01*
G75*
G03X19700Y25000I-300D01*
G01X300*
G75*
G03X0Y24700J-300D01*
G01Y300*
G75*
G03X300Y0I300D01*
G01X19700*
G75*
G03X20000Y300J300D01*
D20*
G01X22938Y12951D02*
G01X22998Y13266*
G01Y12951D01*
G01Y13266D02*
G01X23133D01*
G01X23178Y13251*
G01X23193Y13236*
G01X23208Y13206*
G01Y13161*
G01X23193Y13131*
G01X23178Y13116*
G01X23133Y13101*
G01X22998*
G01X23253Y12951D02*
G01X23313Y13266*
G01Y12951D01*
G01Y13266D02*
G01X23508D01*
G01X23313Y13116D02*
G01X23433D01*
G01X23313Y12951D02*
G01X23508D01*
G01X23538D02*
G01X23598Y13266*
G01Y12951D01*
G01Y13266D02*
G01X23733D01*
G01X23778Y13251*
G01X23793Y13236*
G01X23808Y13206*
G01Y13176*
G01X23793Y13146*
G01X23778Y13131*
G01X23733Y13116*
G01X23598*
G01X23703D02*
G01X23808Y12951D01*
G01X23853D02*
G01X23913Y13266*
G01Y12951D01*
G01X23973D02*
G01X24033Y13266*
G01Y12951D01*
G01Y13266D02*
G01X24153Y12951D01*
G01X24273Y13266D02*
G01X24153Y12951D01*
G01X24273Y13266D02*
G01Y12951D01*
G01X24333D02*
G01X24393Y13266*
G01Y12951D01*
G01Y13266D02*
G01X24588D01*
G01X24393Y13116D02*
G01X24513D01*
G01X24393Y12951D02*
G01X24588D01*
G01X24618D02*
G01X24738Y13266*
G01Y12951D01*
G01X24633Y13266D02*
G01X24843D01*
G01X24858Y12951D02*
G01X24918Y13266*
G01Y12951D01*
G01Y13266D02*
G01X25113D01*
G01X24918Y13116D02*
G01X25038D01*
G01X24918Y12951D02*
G01X25113D01*
G01X25143D02*
G01X25203Y13266*
G01Y12951D01*
G01Y13266D02*
G01X25338D01*
G01X25383Y13251*
G01X25398Y13236*
G01X25413Y13206*
G01Y13176*
G01X25398Y13146*
G01X25383Y13131*
G01X25338Y13116*
G01X25203*
G01X25308D02*
G01X25413Y12951D01*
G01X25458D02*
M02*
