%MOIN*%
%ADD17C,0.0220*%
%ADD18C,0.0060*%
%ADD19C,0.0045*%
%ADD20C,0.0080*%
%ADD21C,0.0120*%
%ADD22C,0.0220*%
%ADD23R,0.0570X0.0120*%
%ADD24R,0.0250X0.1000*%
%ADD25R,0.0250X0.1850*%
%ADD26C,0.0250*%
%ADD27C,0.0200*%
%ADD28C,0.0110*%
%ADD29C,0.0160*%
%ADD30R,0.0895X0.0110*%
%ADD31R,0.0170X0.1000*%
%ADD32R,0.0170X0.1850*%
%ADD33C,0.0170*%
%ADD34C,0.0079*%
%ADD35C,0.0380*%
%ADD36C,0.0276*%
%ADD37C,0.0492*%
%ADD38C,0.0250*%
%ADD39C,0.0005*%
%ADD40R,0.0855X0.0070*%
%ADD41R,0.0130X0.0960*%
%ADD42R,0.0130X0.1810*%
%ADD43R,0.0060X0.0060*%
%ADD44C,0.0039*%
%ADD45C,0.0300*%
%ADD46C,0.0150*%
%ADD47R,0.0530X0.0080*%
%ADD48R,0.0210X0.0960*%
%ADD49R,0.0210X0.1810*%
%ASAXBY*%
%FSLAX04Y04*%
%IPPOS*%
%LNPST-NS*%
%SFA1.0000B1.0000*%
%LPD*%
%ASAXBY*%
%FSLAX04Y04*%
%IPPOS*%
%LNPST-NS*%
%SFA1.0000B1.0000*%
%LPD*%
D47*
G01X1105Y4331D03*
G01X3535D03*
G01X1105Y4725D03*
G01X3535D03*
G01X1105Y4922D03*
G01X3535D03*
G01X1105Y5315D03*
G01X3535D03*
G01X1105Y5512D03*
G01X3535D03*
G01X1105Y5906D03*
G01X3535D03*
G01X1105Y6103D03*
G01X3535D03*
G01X1105Y6497D03*
G01X3535D03*
G01X1105Y6694D03*
G01X3535D03*
G01X1105Y7088D03*
G01X3535D03*
G01X1105Y7284D03*
G01X3535D03*
G01X1105Y9646D03*
G01X3535D03*
G01X1105Y9843D03*
G01X3535D03*
G01X1105Y10040D03*
G01X3535D03*
G01X1105Y10237D03*
G01X3535D03*
G01X1105Y10434D03*
G01X3535D03*
G01X1105Y10631D03*
G01X3535D03*
G01X1105Y10827D03*
G01X3535D03*
G01X1105Y11024D03*
G01X3535D03*
G01X1105Y11221D03*
G01X3535D03*
G01X1105Y11418D03*
G01X3535D03*
G01X1105Y11615D03*
G01X3535D03*
G01X1105Y11812D03*
G01X3535D03*
G01X1105Y12009D03*
G01X3535D03*
G01X1105Y12205D03*
G01X3535D03*
G01X1105Y12402D03*
G01X3535D03*
G01X1105Y12599D03*
G01X3535D03*
G01X1105Y12796D03*
G01X3535D03*
G01X1105Y12993D03*
G01X3535D03*
G01X1105Y13190D03*
G01X3535D03*
G01X1105Y13386D03*
G01X3535D03*
G01X1105Y13583D03*
G01X3535D03*
G01X1105Y13780D03*
G01X3535D03*
G01X1105Y13977D03*
G01X3535D03*
G01X1105Y14174D03*
G01X3535D03*
G01X1105Y14371D03*
G01X3535D03*
G01X1105Y14568D03*
G01X3535D03*
G01X1105Y14764D03*
G01X3535D03*
G01X1105Y14961D03*
G01X3535D03*
G01X1105Y15158D03*
G01X3535D03*
G01X1105Y15355D03*
G01X3535D03*
G01X1105Y17521D03*
G01X3535D03*
G01X1105Y17718D03*
G01X3535D03*
G01X1105Y17915D03*
G01X3535D03*
G01X1105Y18112D03*
G01X3535D03*
G01X1105Y18309D03*
G01X3535D03*
G01X1105Y18506D03*
G01X3535D03*
G01X1105Y18702D03*
G01X3535D03*
G01X1105Y18899D03*
G01X3535D03*
G01X1105Y19096D03*
G01X3535D03*
G01X1105Y19293D03*
G01X3535D03*
G01X1105Y19490D03*
G01X3535D03*
G01X1105Y19687D03*
G01X3535D03*
G01X1105Y19884D03*
G01X3535D03*
G01X1105Y20080D03*
G01X3535D03*
G01X1105Y20277D03*
G01X3535D03*
G01X1105Y20474D03*
G01X3535D03*
G01X1105Y20671D03*
G01X3535D03*
G01X1105Y20868D03*
G01X3535D03*
G01X1105Y21065D03*
G01X3535D03*
G01X1105Y21261D03*
G01X3535D03*
G01X1105Y21458D03*
G01X3535D03*
G01X1105Y21655D03*
G01X3535D03*
G01X1105Y21852D03*
G01X3535D03*
G01X1105Y22049D03*
G01X3535D03*
G01X1105Y22246D03*
G01X3535D03*
G01X1105Y22443D03*
G01X3535D03*
G01X1105Y22639D03*
G01X3535D03*
G01X1105Y22836D03*
G01X3535D03*
G01X1105Y23033D03*
G01X3535D03*
G01X1105Y23230D03*
G01X3535D03*
D48*
G01X2320Y1300D03*
D49*
G01Y3375D03*
G01Y5875D03*
D48*
G01Y7950D03*
G01Y9175D03*
D49*
G01Y11250D03*
G01Y13750D03*
D48*
G01Y15825D03*
G01Y17050D03*
D49*
G01Y19125D03*
G01Y21625D03*
D48*
G01Y23700D03*
D47*
G01X1105Y1771D03*
G01X3535D03*
G01X1105Y1968D03*
G01X3535D03*
G01X1105Y2362D03*
G01X3535D03*
G01X1105Y2559D03*
G01X3535D03*
G01X1105Y2953D03*
G01X3535D03*
G01X1105Y3150D03*
G01X3535D03*
G01X1105Y3543D03*
G01X3535D03*
G01X1105Y3740D03*
G01X3535D03*
G01X1105Y4134D03*
G01X3535D03*
D20*
G01X22898Y11370D02*
G01X22958Y11685*
G01Y11370D01*
G01Y11685D02*
G01X23093D01*
G01X23138Y11670*
G01X23153Y11655*
G01X23168Y11625*
G01Y11580*
G01X23153Y11550*
G01X23138Y11535*
G01X23093Y11520*
G01X22958*
G01X23213Y11370D02*
G01X23348Y11685*
G01X23228Y11370D01*
G01X23348Y11685D02*
G01X23468Y11370D01*
G01X23273Y11475D02*
G01X23423D01*
G01X23483Y11370D02*
G01X23738Y11640*
G01X23708Y11670D01*
G01X23663Y11685*
G01X23603*
G01X23558Y11670*
G01X23528Y11640*
G01Y11610*
G01X23543Y11580*
G01X23558Y11565*
G01X23588Y11550*
G01X23678Y11520*
G01X23708Y11505*
G01X23723Y11490*
G01X23738Y11460*
G01Y11415*
G01X23708Y11385*
G01X23663Y11370*
G01X23603*
G01X23558Y11385*
G01X23528Y11415*
G01X23783Y11370D02*
G01X23903Y11685*
G01Y11370D01*
G01X23798Y11685D02*
G01X24008D01*
G01X24023Y11370D02*
G01X24083Y11685*
G01Y11370D01*
G01Y11685D02*
G01X24278D01*
G01X24083Y11535D02*
G01X24203D01*
G01X24083Y11370D02*
G01X24278D01*
G01X24308D02*
G01X24623*
G01X24683Y11685*
G01Y11370D01*
G01Y11685D02*
G01X24803Y11370D01*
G01X24923Y11685D02*
G01X24803Y11370D01*
G01X24923Y11685D02*
G01Y11370D01*
G01X24983D02*
G01X25118Y11685*
G01X24998Y11370D01*
G01X25118Y11685D02*
G01X25238Y11370D01*
G01X25043Y11475D02*
G01X25193D01*
G01X25253Y11370D02*
G01X25508Y11640*
G01X25478Y11670D01*
G01X25433Y11685*
G01X25373*
G01X25328Y11670*
G01X25298Y11640*
G01Y11610*
G01X25313Y11580*
G01X25328Y11565*
G01X25358Y11550*
G01X25448Y11520*
G01X25478Y11505*
G01X25493Y11490*
G01X25508Y11460*
G01Y11415*
G01X25478Y11385*
G01X25433Y11370*
G01X25373*
G01X25328Y11385*
G01X25298Y11415*
G01X25553Y11370D02*
G01X25613Y11685*
G01Y11370D01*
G01X25823Y11685D02*
G01X25613Y11475D01*
G01X25688Y11550D02*
G01X25823Y11370D01*
G01X25868D02*
G01X25958Y11385*
G01X25943Y11370D01*
G01X25928Y11385*
G01X25943Y11400*
G01X25958Y11385*
G01Y11355*
G01X25943Y11325*
G01X25928Y11310*
G01X26018Y11370D02*
G01X26333*
G01X26393Y11685*
G01Y11370D01*
G01Y11685D02*
G01X26588D01*
G01X26393Y11535D02*
G01X26513D01*
G01X26603Y11370D02*
G01X26738Y11685*
G01X26618Y11370D01*
G01X26738Y11685D02*
G01X26858Y11370D01*
G01X26663Y11475D02*
G01X26813D01*
G01X26873Y11370D02*
G01X26933Y11685*
G01Y11370D01*
G01Y11685D02*
G01X27068D01*
G01X27113Y11670*
G01X27128Y11655*
G01X27143Y11625*
G01Y11595*
G01X27128Y11565*
G01X27113Y11550*
G01X27068Y11535*
G01X26933*
G01X27038D02*
G01X27143Y11370D01*
G01X27188D02*
G01X27503*
G01X27758Y11640*
G01X27728Y11670D01*
G01X27683Y11685*
G01X27623*
G01X27578Y11670*
G01X27548Y11640*
G01Y11610*
G01X27563Y11580*
G01X27578Y11565*
G01X27608Y11550*
G01X27698Y11520*
G01X27728Y11505*
G01X27743Y11490*
G01X27758Y11460*
G01Y11415*
G01X27728Y11385*
G01X27683Y11370*
G01X27623*
G01X27578Y11385*
G01X27548Y11415*
G01X27803Y11370D02*
G01X27863Y11685*
G01Y11370D01*
G01X27923D02*
G01X27983Y11685*
G01Y11370D01*
G01Y11685D02*
G01X28088D01*
G01X28133Y11670*
G01X28163Y11640*
G01X28178Y11610*
G01X28193Y11565*
G01Y11490*
G01X28178Y11445*
G01X28163Y11415*
G01X28133Y11385*
G01X28088Y11370*
G01X27983*
G01X28238D02*
G01X28298Y11685*
G01Y11370D01*
G01Y11685D02*
G01X28493D01*
G01X28298Y11535D02*
G01X28418D01*
G01X28298Y11370D02*
G01X28493D01*
G01X28523D02*
M02*
