%MOIN*%
%ADD17C,0.0220*%
%ADD18C,0.0060*%
%ADD19C,0.0045*%
%ADD20C,0.0080*%
%ADD21C,0.0120*%
%ADD22C,0.0220*%
%ADD23R,0.0570X0.0120*%
%ADD24R,0.0250X0.1000*%
%ADD25R,0.0250X0.1850*%
%ADD26C,0.0250*%
%ADD27C,0.0200*%
%ADD28C,0.0110*%
%ADD29C,0.0160*%
%ADD30R,0.0895X0.0110*%
%ADD31R,0.0170X0.1000*%
%ADD32R,0.0170X0.1850*%
%ADD33C,0.0170*%
%ADD34C,0.0079*%
%ADD35C,0.0380*%
%ADD36C,0.0276*%
%ADD37C,0.0492*%
%ADD38C,0.0250*%
%ADD39C,0.0005*%
%ADD40R,0.0855X0.0070*%
%ADD41R,0.0130X0.0960*%
%ADD42R,0.0130X0.1810*%
%ASAXBY*%
%FSLAX04Y04*%
%IPPOS*%
%LNPST-FS*%
%SFA1.0000B1.0000*%
%LPD*%
%ASAXBY*%
%FSLAX04Y04*%
%IPPOS*%
%LNPST-FS*%
%SFA1.0000B1.0000*%
%LPD*%
D40*
G01X16603Y4919D03*
G01Y4722D03*
G01X16602Y5509D03*
G01Y5312D03*
G01X16603Y6100D03*
G01Y5903D03*
G01X16602Y6691D03*
G01Y6494D03*
G01X16603Y7281D03*
G01Y7085D03*
G01X18858Y23229D03*
G01Y23032D03*
G01Y22836D03*
G01X16603Y23229D03*
G01Y23032D03*
G01Y22836D03*
D41*
G01X17730Y23550D03*
D40*
G01X18858Y21458D03*
G01Y21655D03*
G01Y22639D03*
G01Y22442D03*
G01Y22245D03*
G01Y22048D03*
G01Y21851D03*
G01Y20867D03*
G01Y20670D03*
G01Y20473D03*
G01Y20277D03*
G01Y21261D03*
G01Y21064D03*
G01Y18899D03*
G01Y20080D03*
G01Y19686D03*
G01Y19489D03*
G01Y19292D03*
G01Y19095D03*
G01Y19883D03*
G01Y18308D03*
G01Y18505D03*
G01Y18111D03*
G01Y17914D03*
G01Y17718D03*
G01Y18702D03*
G01Y17521D03*
G01Y15157D03*
G01Y15354D03*
G01Y13780D03*
G01Y13976D03*
G01Y14370D03*
G01Y14567D03*
G01Y14764D03*
G01Y14961D03*
G01Y14173D03*
G01Y13386D03*
G01Y13583D03*
G01Y12598D03*
G01Y12795D03*
G01Y13189D03*
G01Y12992D03*
G01Y10039D03*
G01Y11220D03*
G01Y11811D03*
G01Y12008D03*
G01Y11417D03*
G01Y11614D03*
G01Y12205D03*
G01Y12402D03*
G01Y10236D03*
G01Y10827D03*
G01Y11024D03*
G01Y10630D03*
G01Y10433D03*
G01Y9843D03*
G01Y9646D03*
D41*
G01X17730Y17200D03*
D40*
G01X16603Y21655D03*
G01Y20867D03*
G01Y20670D03*
G01Y20473D03*
G01Y20277D03*
G01Y21458D03*
G01Y21261D03*
G01Y21064D03*
G01Y22639D03*
G01Y22442D03*
G01Y22245D03*
G01Y22048D03*
G01Y21851D03*
D42*
G01X17730Y21625D03*
D40*
G01X16603Y18308D03*
G01Y18505D03*
G01Y18111D03*
G01Y17914D03*
G01Y17718D03*
G01Y20080D03*
G01Y19489D03*
G01Y19292D03*
G01Y19095D03*
G01Y18899D03*
G01Y18702D03*
G01Y19883D03*
G01Y19686D03*
D42*
G01X17730Y19125D03*
D40*
G01X16603Y15157D03*
G01Y17521D03*
G01Y15354D03*
D41*
G01X17730Y15675D03*
D40*
G01X16603Y13386D03*
G01Y13583D03*
G01Y12598D03*
G01Y12795D03*
G01Y13189D03*
G01Y12992D03*
G01Y13780D03*
G01Y13976D03*
G01Y14370D03*
G01Y14567D03*
G01Y14764D03*
G01Y14961D03*
G01Y14173D03*
D42*
G01X17730Y13750D03*
D40*
G01X16603Y10039D03*
G01Y10236D03*
G01Y11811D03*
G01Y12008D03*
G01Y10827D03*
G01Y11024D03*
G01Y11220D03*
G01Y11417D03*
G01Y11614D03*
G01Y10630D03*
G01Y10433D03*
G01Y12205D03*
G01Y12402D03*
D42*
G01X17730Y11250D03*
D40*
G01X16603Y9843D03*
G01Y9646D03*
D41*
G01X17730Y9325D03*
D40*
G01X18858Y1965D03*
G01Y1768D03*
D41*
G01X17730Y7800D03*
D42*
G01Y5875D03*
G01Y3375D03*
D41*
G01Y1450D03*
D40*
G01X18858Y2556D03*
G01Y2359D03*
G01Y3147D03*
G01Y2950D03*
G01X18858Y3737D03*
G01Y3540D03*
G01X18858Y4328D03*
G01Y4131D03*
G01Y4919D03*
G01Y4722D03*
G01Y5509D03*
G01Y5312D03*
G01Y6100D03*
G01Y5903D03*
G01Y6691D03*
G01Y6494D03*
G01Y7281D03*
G01Y7085D03*
G01X16603Y1965D03*
G01Y1768D03*
G01Y2556D03*
G01Y2359D03*
G01Y3147D03*
G01Y2950D03*
G01Y3737D03*
G01Y3540D03*
G01Y4328D03*
G01Y4131D03*
D20*
G01X22898Y10839D02*
G01X22958Y11154*
G01Y10839D01*
G01Y11154D02*
G01X23093D01*
G01X23138Y11139*
G01X23153Y11124*
G01X23168Y11094*
G01Y11049*
G01X23153Y11019*
G01X23138Y11004*
G01X23093Y10989*
G01X22958*
G01X23213Y10839D02*
G01X23348Y11154*
G01X23228Y10839D01*
G01X23348Y11154D02*
G01X23468Y10839D01*
G01X23273Y10944D02*
G01X23423D01*
G01X23483Y10839D02*
G01X23738Y11109*
G01X23708Y11139D01*
G01X23663Y11154*
G01X23603*
G01X23558Y11139*
G01X23528Y11109*
G01Y11079*
G01X23543Y11049*
G01X23558Y11034*
G01X23588Y11019*
G01X23678Y10989*
G01X23708Y10974*
G01X23723Y10959*
G01X23738Y10929*
G01Y10884*
G01X23708Y10854*
G01X23663Y10839*
G01X23603*
G01X23558Y10854*
G01X23528Y10884*
G01X23783Y10839D02*
G01X23903Y11154*
G01Y10839D01*
G01X23798Y11154D02*
G01X24008D01*
G01X24023Y10839D02*
G01X24083Y11154*
G01Y10839D01*
G01Y11154D02*
G01X24278D01*
G01X24083Y11004D02*
G01X24203D01*
G01X24083Y10839D02*
G01X24278D01*
G01X24308D02*
G01X24623*
G01X24683Y11154*
G01Y10839D01*
G01Y11154D02*
G01X24803Y10839D01*
G01X24923Y11154D02*
G01X24803Y10839D01*
G01X24923Y11154D02*
G01Y10839D01*
G01X24983D02*
G01X25118Y11154*
G01X24998Y10839D01*
G01X25118Y11154D02*
G01X25238Y10839D01*
G01X25043Y10944D02*
G01X25193D01*
G01X25253Y10839D02*
G01X25508Y11109*
G01X25478Y11139D01*
G01X25433Y11154*
G01X25373*
G01X25328Y11139*
G01X25298Y11109*
G01Y11079*
G01X25313Y11049*
G01X25328Y11034*
G01X25358Y11019*
G01X25448Y10989*
G01X25478Y10974*
G01X25493Y10959*
G01X25508Y10929*
G01Y10884*
G01X25478Y10854*
G01X25433Y10839*
G01X25373*
G01X25328Y10854*
G01X25298Y10884*
G01X25553Y10839D02*
G01X25613Y11154*
G01Y10839D01*
G01X25823Y11154D02*
G01X25613Y10944D01*
G01X25688Y11019D02*
G01X25823Y10839D01*
G01X25868D02*
G01X25958Y10854*
G01X25943Y10839D01*
G01X25928Y10854*
G01X25943Y10869*
G01X25958Y10854*
G01Y10824*
G01X25943Y10794*
G01X25928Y10779*
G01X26018Y10839D02*
G01X26333*
G01X26393Y11154*
G01Y10839D01*
G01Y11154D02*
G01X26603Y10839D01*
G01Y11154D02*
G01Y10839D01*
G01X26663D02*
G01X26723Y11154*
G01Y10839D01*
G01Y11154D02*
G01X26918D01*
G01X26723Y11004D02*
G01X26843D01*
G01X26723Y10839D02*
G01X26918D01*
G01X26948D02*
G01X27083Y11154*
G01X26963Y10839D01*
G01X27083Y11154D02*
G01X27203Y10839D01*
G01X27008Y10944D02*
G01X27158D01*
G01X27218Y10839D02*
G01X27278Y11154*
G01Y10839D01*
G01Y11154D02*
G01X27413D01*
G01X27458Y11139*
G01X27473Y11124*
G01X27488Y11094*
G01Y11064*
G01X27473Y11034*
G01X27458Y11019*
G01X27413Y11004*
G01X27278*
G01X27383D02*
G01X27488Y10839D01*
G01X27533D02*
G01X27848*
G01X28103Y11109*
G01X28073Y11139D01*
G01X28028Y11154*
G01X27968*
G01X27923Y11139*
G01X27893Y11109*
G01Y11079*
G01X27908Y11049*
G01X27923Y11034*
G01X27953Y11019*
G01X28043Y10989*
G01X28073Y10974*
G01X28088Y10959*
G01X28103Y10929*
G01Y10884*
G01X28073Y10854*
G01X28028Y10839*
G01X27968*
G01X27923Y10854*
G01X27893Y10884*
G01X28148Y10839D02*
G01X28208Y11154*
G01Y10839D01*
G01X28268D02*
G01X28328Y11154*
G01Y10839D01*
G01Y11154D02*
G01X28433D01*
G01X28478Y11139*
G01X28508Y11109*
G01X28523Y11079*
G01X28538Y11034*
G01Y10959*
G01X28523Y10914*
G01X28508Y10884*
G01X28478Y10854*
G01X28433Y10839*
G01X28328*
G01X28583D02*
G01X28643Y11154*
G01Y10839D01*
G01Y11154D02*
G01X28838D01*
G01X28643Y11004D02*
G01X28763D01*
G01X28643Y10839D02*
G01X28838D01*
G01X28868D02*
M02*
