%MOIN*%
%ADD17C,0.0220*%
%ADD18C,0.0060*%
%ADD19C,0.0045*%
%ADD20C,0.0080*%
%ADD21C,0.0120*%
%ADD22C,0.0220*%
%ADD23R,0.0570X0.0120*%
%ADD24R,0.0250X0.1000*%
%ADD25R,0.0250X0.1850*%
%ADD26C,0.0250*%
%ADD27C,0.0200*%
%ADD28C,0.0110*%
%ADD29C,0.0160*%
%ADD30R,0.0895X0.0110*%
%ADD31R,0.0170X0.1000*%
%ADD32R,0.0170X0.1850*%
%ADD33C,0.0170*%
%ADD34C,0.0079*%
%ADD35C,0.0380*%
%ADD36C,0.0276*%
%ADD37C,0.0492*%
%ADD38C,0.0250*%
%ADD39C,0.0005*%
%ADD40R,0.0855X0.0070*%
%ADD41R,0.0130X0.0960*%
%ADD42R,0.0130X0.1810*%
%ADD43R,0.0060X0.0060*%
%ADD44C,0.0039*%
%ADD45C,0.0300*%
%ADD46C,0.0150*%
%ADD47R,0.0530X0.0080*%
%ADD48R,0.0210X0.0960*%
%ADD49R,0.0210X0.1810*%
%ADD50C,0.0007*%
%ADD51C,0.0020*%
%ADD52C,0.0139*%
%ASAXBY*%
%FSLAX04Y04*%
%IPPOS*%
%LNSLK-NS*%
%SFA1.0000B1.0000*%
%LPD*%
G36*
G01X9910Y7212D02*
G01X9910Y7205D01*
G01X9904Y7203*
G01X9910Y7212*
G37*
G36*
G01X9655Y7134D02*
G01X9649Y7131D01*
G01X9649Y7124*
G01X9655Y7134*
G37*
G36*
G01X9649Y7037D02*
G01X9649Y7029D01*
G01X9656Y7027*
G01X9649Y7037*
G37*
G36*
G01X9903Y6996D02*
G01X9910Y6994D01*
G01X9910Y6986*
G01X9903Y6996*
G37*
G36*
G01X9910Y6805D02*
G01X9910Y6792D01*
G01X9898Y6795*
G01X9910Y6805*
G37*
G36*
G01X9661Y6866D02*
G01X9649Y6868D01*
G01X9649Y6856*
G01X9661Y6866*
G37*
G36*
G01X9669Y6746D02*
G01X9669Y6739D01*
G01X9662Y6737*
G01X9669Y6746*
G37*
G36*
G01X9260Y7163D02*
G01X9260Y7170D01*
G01X9267Y7173*
G01X9260Y7163*
G37*
G36*
G01X9722Y7317D02*
G01X9729Y7320D01*
G01X9729Y7327*
G01X9722Y7317*
G37*
G36*
G01X9729Y7469D02*
G01X9729Y7483D01*
G01X9715Y7478*
G01X9729Y7469*
G37*
G36*
G01X9274Y7296D02*
G01X9260Y7291D01*
G01X9260Y7306*
G01X9274Y7296*
G37*
G36*
G01X9260Y7486D02*
G01X9260Y7493D01*
G01X9267Y7495*
G01X9260Y7486*
G37*
%ASAXBY*%
%FSLAX04Y04*%
%IPPOS*%
%LNSLK-NS*%
%SFA1.0000B1.0000*%
%LPD*%
D50*
G01X9317Y7633D02*
G01X9351Y7655D01*
G01X9286Y7611D02*
G01Y7639D01*
G01X9289Y7649*
G01X9292Y7652*
G01X9298Y7655*
G01X9305*
G01X9311Y7652*
G01X9314Y7649*
G01X9317Y7639*
G01Y7611*
G01X9286D02*
G01X9351D01*
G01X9264Y7627D02*
G75*
G02X9319Y7687I55J5D01*
G02X9264Y7627I0J-55D01*
D51*
G01X9270Y7486D02*
G01X9779Y7671D01*
G75*
G02X9900Y7586I31J-85D01*
G01Y7212*
G01X9659Y7124*
G01Y7037*
G01X9900Y6986*
G01Y6805*
G01X9659Y6856*
G01Y6746*
G01X9392Y6649*
G75*
G02X9270Y6735I-31J85D01*
G01Y7163*
G01X9719Y7327*
G01Y7469*
G01X9270Y7306*
G01Y7486*
G01X9532Y7078D02*
G01X9396Y7029D01*
G01Y6831*
G01X9532Y6881*
G01Y7078*
G01X9275Y6706D02*
G01Y7165D01*
G01Y7307D02*
G01Y7488D01*
G01X9285Y6685D02*
G01Y7169D01*
G01Y7311D02*
G01Y7491D01*
G01X9295Y6673D02*
G01Y7172D01*
G01Y7314D02*
G01Y7495D01*
G01X9305Y6663D02*
G01Y7176D01*
G01Y7318D02*
G01Y7498D01*
G01X9315Y6656D02*
G01Y7180D01*
G01Y7322D02*
G01Y7502D01*
G01X9325Y6651D02*
G01Y7183D01*
G01Y7325D02*
G01Y7506D01*
G01X9335Y6648D02*
G01Y7187D01*
G01Y7329D02*
G01Y7509D01*
G01X9345Y6645D02*
G01Y7190D01*
G01Y7333D02*
G01Y7513D01*
G01X9355Y6644D02*
G01Y7194D01*
G01Y7336D02*
G01Y7517D01*
G01X9365Y6644D02*
G01Y7198D01*
G01Y7340D02*
G01Y7520D01*
G01X9375Y6645D02*
G01Y7201D01*
G01Y7344D02*
G01Y7524D01*
G01X9385Y6647D02*
G01Y7205D01*
G01Y7347D02*
G01Y7528D01*
G01X9395Y6650D02*
G01Y7209D01*
G01Y7351D02*
G01Y7531D01*
G01X9405Y6654D02*
G01Y6834D01*
G01Y7355D02*
G01Y7535D01*
G01Y7032D02*
G01Y7212D01*
G01X9415Y6658D02*
G01Y6838D01*
G01Y7358D02*
G01Y7538D01*
G01Y7036D02*
G01Y7216D01*
G01X9425Y6661D02*
G01Y6842D01*
G01Y7362D02*
G01Y7542D01*
G01Y7039D02*
G01Y7220D01*
G01X9435Y6665D02*
G01Y6845D01*
G01Y7365D02*
G01Y7546D01*
G01Y7043D02*
G01Y7223D01*
G01X9445Y6669D02*
G01Y6849D01*
G01Y7369D02*
G01Y7549D01*
G01Y7047D02*
G01Y7227D01*
G01X9455Y6672D02*
G01Y6852D01*
G01Y7373D02*
G01Y7553D01*
G01Y7050D02*
G01Y7230D01*
G01X9465Y6676D02*
G01Y6856D01*
G01Y7376D02*
G01Y7557D01*
G01Y7054D02*
G01Y7234D01*
G01X9475Y6679D02*
G01Y6860D01*
G01Y7380D02*
G01Y7560D01*
G01Y7057D02*
G01Y7238D01*
G01X9485Y6683D02*
G01Y6863D01*
G01Y7384D02*
G01Y7564D01*
G01Y7061D02*
G01Y7241D01*
G01X9495Y6687D02*
G01Y6867D01*
G01Y7387D02*
G01Y7568D01*
G01Y7065D02*
G01Y7245D01*
G01X9505Y6690D02*
G01Y6871D01*
G01Y7391D02*
G01Y7571D01*
G01Y7068D02*
G01Y7249D01*
G01X9515Y6694D02*
G01Y6874D01*
G01Y7395D02*
G01Y7575D01*
G01Y7072D02*
G01Y7252D01*
G01X9525Y6698D02*
G01Y6878D01*
G01Y7398D02*
G01Y7579D01*
G01Y7076D02*
G01Y7256D01*
G01X9535Y6701D02*
G01Y7260D01*
G01Y7402D02*
G01Y7582D01*
G01X9545Y6705D02*
G01Y7263D01*
G01Y7405D02*
G01Y7586D01*
G01X9555Y6709D02*
G01Y7267D01*
G01Y7409D02*
G01Y7589D01*
G01X9565Y6712D02*
G01Y7271D01*
G01Y7413D02*
G01Y7593D01*
G01X9575Y6716D02*
G01Y7274D01*
G01Y7416D02*
G01Y7597D01*
G01X9585Y6719D02*
G01Y7278D01*
G01Y7420D02*
G01Y7600D01*
G01X9595Y6723D02*
G01Y7281D01*
G01Y7424D02*
G01Y7604D01*
G01X9605Y6727D02*
G01Y7285D01*
G01Y7427D02*
G01Y7608D01*
G01X9615Y6730D02*
G01Y7289D01*
G01Y7431D02*
G01Y7611D01*
G01X9625Y6734D02*
G01Y7292D01*
G01Y7435D02*
G01Y7615D01*
G01X9635Y6738D02*
G01Y7296D01*
G01Y7438D02*
G01Y7619D01*
G01X9645Y6741D02*
G01Y7300D01*
G01Y7442D02*
G01Y7622D01*
G01X9655Y6745D02*
G01Y7303D01*
G01Y7446D02*
G01Y7626D01*
G01X9665Y6855D02*
G01Y7036D01*
G01Y7449D02*
G01Y7629D01*
G01Y7127D02*
G01Y7307D01*
G01X9675Y6853D02*
G01Y7034D01*
G01Y7453D02*
G01Y7633D01*
G01Y7130D02*
G01Y7311D01*
G01X9685Y6850D02*
G01Y7032D01*
G01Y7456D02*
G01Y7637D01*
G01Y7134D02*
G01Y7314D01*
G01X9695Y6848D02*
G01Y7029D01*
G01Y7460D02*
G01Y7640D01*
G01Y7138D02*
G01Y7318D01*
G01X9705Y6846D02*
G01Y7027D01*
G01Y7464D02*
G01Y7644D01*
G01Y7141D02*
G01Y7321D01*
G01X9715Y6844D02*
G01Y7025D01*
G01Y7467D02*
G01Y7648D01*
G01Y7145D02*
G01Y7325D01*
G01X9725Y6842D02*
G01Y7023D01*
G01Y7148D02*
G01Y7651D01*
G01X9735Y6840D02*
G01Y7021D01*
G01Y7152D02*
G01Y7655D01*
G01X9745Y6838D02*
G01Y7019D01*
G01Y7156D02*
G01Y7659D01*
G01X9755Y6836D02*
G01Y7017D01*
G01Y7159D02*
G01Y7662D01*
G01X9765Y6833D02*
G01Y7015D01*
G01Y7163D02*
G01Y7666D01*
G01X9775Y6831D02*
G01Y7012D01*
G01Y7167D02*
G01Y7670D01*
G01X9785Y6829D02*
G01Y7010D01*
G01Y7170D02*
G01Y7673D01*
G01X9795Y6827D02*
G01Y7008D01*
G01Y7174D02*
G01Y7675D01*
G01X9805Y6825D02*
G01Y7006D01*
G01Y7178D02*
G01Y7676D01*
G01X9815Y6823D02*
G01Y7004D01*
G01Y7181D02*
G01Y7676D01*
G01X9825Y6821D02*
G01Y7002D01*
G01Y7185D02*
G01Y7675D01*
G01X9835Y6819D02*
G01Y7000D01*
G01Y7188D02*
G01Y7673D01*
G01X9845Y6816D02*
G01Y6998D01*
G01Y7192D02*
G01Y7669D01*
G01X9855Y6814D02*
G01Y6995D01*
G01Y7196D02*
G01Y7664D01*
G01X9865Y6812D02*
G01Y6993D01*
G01Y7199D02*
G01Y7658D01*
G01X9875Y6810D02*
G01Y6991D01*
G01Y7203D02*
G01Y7649D01*
G01X9885Y6808D02*
G01Y6989D01*
G01Y7207D02*
G01Y7636D01*
G01X9895Y6806D02*
G01Y6987D01*
G01Y7210D02*
G01Y7617D01*
D52*
G01X9844Y10383D02*
G01Y11103D01*
G75*
G03X9705Y11242I-139J0D01*
G01X9645*
G75*
G03X9506Y11103I0J-139D01*
G01Y10589*
G75*
G02X9371Y10454I-135J0D01*
G01X9322*
G75*
G02X9179Y10593I-4J139D01*
G01Y11311*
G01X9180Y11480D02*
G01Y12175D01*
G75*
G02X9300Y12312I139J0D01*
G01X9840*
G01Y11645*
G75*
G02X9741Y11549I-96J0D01*
G01X9604*
G75*
G02X9504Y11649I0J100D01*
G01Y12260*
G01X9917Y12653D02*
G01X9288D01*
G75*
G02X9180Y12798I30J136D01*
G01Y12950*
G75*
G02X9332Y13095I139J7D01*
G01X9910*
G01X9288*
G75*
G02X9180Y13240I30J136D01*
G01Y13392*
G75*
G02X9332Y13537I139J7D01*
G01X9918*
G01X9652Y16263D02*
G01X9760D01*
G75*
G02X9864Y16155I-4J-108D01*
G01Y15574*
G75*
G02X9741Y15456I-123J7D01*
G01X9285*
G75*
G02X9177Y15569I0J108D01*
G01Y16151*
G75*
G02X9285Y16257I105J0D01*
G01X9398*
G01X9500Y14375D02*
G01Y15123D01*
G01X9285*
G75*
G03X9177Y15018I-3J-105D01*
G01Y14435*
G75*
G03X9285Y14323I108J-4D01*
G01X9739*
G75*
G03X9859Y14460I-19J138D01*
G01Y15191*
G01X8879Y13558D02*
G01Y14191D01*
G01Y10387D02*
G01Y13359D01*
G01Y14391D02*
G01Y16335D01*
G01X10131Y10387D02*
G01Y13618D01*
G01Y14391D02*
G01Y16353D01*
G01X8544Y13884D02*
G01X9995D01*
G75*
G03X10131Y14023I-3J139D01*
G01Y14159*
D20*
G01X22889Y9759D02*
G01X23144Y10029*
G01X23114Y10059D01*
G01X23069Y10074*
G01X23009*
G01X22964Y10059*
G01X22934Y10029*
G01Y9999*
G01X22949Y9969*
G01X22964Y9954*
G01X22994Y9939*
G01X23084Y9909*
G01X23114Y9894*
G01X23129Y9879*
G01X23144Y9849*
G01Y9804*
G01X23114Y9774*
G01X23069Y9759*
G01X23009*
G01X22964Y9774*
G01X22934Y9804*
G01X23189Y9759D02*
G01X23249Y10074*
G01Y9759D01*
G01X23309D02*
G01X23369Y10074*
G01Y9759D01*
G01X23549*
G01X23564D02*
G01X23624Y10074*
G01Y9759D01*
G01X23834Y10074D02*
G01X23624Y9864D01*
G01X23699Y9939D02*
G01X23834Y9759D01*
G01X23879D02*
G01X24194*
G01X24254Y10074*
G01Y9759D01*
G01Y10074D02*
G01X24374Y9759D01*
G01X24494Y10074D02*
G01X24374Y9759D01*
G01X24494Y10074D02*
G01Y9759D01*
G01X24554D02*
G01X24689Y10074*
G01X24569Y9759D01*
G01X24689Y10074D02*
G01X24809Y9759D01*
G01X24614Y9864D02*
G01X24764D01*
G01X24824Y9759D02*
G01X25079Y10029*
G01X25049Y10059D01*
G01X25004Y10074*
G01X24944*
G01X24899Y10059*
G01X24869Y10029*
G01Y9999*
G01X24884Y9969*
G01X24899Y9954*
G01X24929Y9939*
G01X25019Y9909*
G01X25049Y9894*
G01X25064Y9879*
G01X25079Y9849*
G01Y9804*
G01X25049Y9774*
G01X25004Y9759*
G01X24944*
G01X24899Y9774*
G01X24869Y9804*
G01X25124Y9759D02*
G01X25184Y10074*
G01Y9759D01*
G01X25394Y10074D02*
G01X25184Y9864D01*
G01X25259Y9939D02*
G01X25394Y9759D01*
G01X25439D02*
G01X25529Y9774*
G01X25514Y9759D01*
G01X25499Y9774*
G01X25514Y9789*
G01X25529Y9774*
G01Y9744*
G01X25514Y9714*
G01X25499Y9699*
G01X25589Y9759D02*
G01X25904*
G01X25964Y10074*
G01Y9759D01*
G01Y10074D02*
G01X26159D01*
G01X25964Y9924D02*
G01X26084D01*
G01X26174Y9759D02*
G01X26309Y10074*
G01X26189Y9759D01*
G01X26309Y10074D02*
G01X26429Y9759D01*
G01X26234Y9864D02*
G01X26384D01*
G01X26444Y9759D02*
G01X26504Y10074*
G01Y9759D01*
G01Y10074D02*
G01X26639D01*
G01X26684Y10059*
G01X26699Y10044*
G01X26714Y10014*
G01Y9984*
G01X26699Y9954*
G01X26684Y9939*
G01X26639Y9924*
G01X26504*
G01X26609D02*
G01X26714Y9759D01*
G01X26759D02*
G01X27074*
G01X27329Y10029*
G01X27299Y10059D01*
G01X27254Y10074*
G01X27194*
G01X27149Y10059*
G01X27119Y10029*
G01Y9999*
G01X27134Y9969*
G01X27149Y9954*
G01X27179Y9939*
G01X27269Y9909*
G01X27299Y9894*
G01X27314Y9879*
G01X27329Y9849*
G01Y9804*
G01X27299Y9774*
G01X27254Y9759*
G01X27194*
G01X27149Y9774*
G01X27119Y9804*
G01X27374Y9759D02*
G01X27434Y10074*
G01Y9759D01*
G01X27494D02*
G01X27554Y10074*
G01Y9759D01*
G01Y10074D02*
G01X27659D01*
G01X27704Y10059*
G01X27734Y10029*
G01X27749Y9999*
G01X27764Y9954*
G01Y9879*
G01X27749Y9834*
G01X27734Y9804*
G01X27704Y9774*
G01X27659Y9759*
G01X27554*
G01X27809D02*
G01X27869Y10074*
G01Y9759D01*
G01Y10074D02*
G01X28064D01*
G01X27869Y9924D02*
G01X27989D01*
G01X27869Y9759D02*
G01X28064D01*
G01X28094D02*
G01X4582Y11957D02*
G01X4082Y12243*
G01X4463D01*
G01X4534Y12219*
G01X4558Y12196*
G01X4582Y12148*
G01Y12100*
G01X4558Y12053*
G01X4534Y12029*
G01X4463Y12005*
G01X4415*
G01X4582Y12338D02*
G01X4177Y12481*
G01X4154Y12529D01*
G01X4082Y12600*
G01X4582*
G01Y12815D02*
G01Y23239D02*
G01X4177Y23381*
G01X4154Y23429D01*
G01X4082Y23500*
G01X4582*
G01Y23715D02*
G01X4154Y24096*
G01X4106Y24072D01*
G01X4082Y24000*
G01Y23953*
G01X4106Y23881*
G01X4177Y23834*
G01X4296Y23810*
G01X4415*
G01X4511Y23834*
G01X4558Y23881*
G01X4582Y23953*
G01Y23977*
G01X4558Y24048*
G01X4511Y24096*
G01X4439Y24119*
G01X4415*
G01X4344Y24096*
G01X4296Y24048*
G01X4273Y23977*
G01Y23953*
G01X4296Y23881*
G01X4344Y23834*
G01X4415Y23810*
G01X4582Y24191D02*
G01X4082Y24405*
G01X4106Y24334D01*
G01X4177Y24286*
G01X4296Y24262*
G01X4368*
G01X4487Y24286*
G01X4558Y24334*
G01X4582Y24405*
G01Y24453*
G01X4558Y24524*
G01X4487Y24572*
G01X4368Y24596*
G01X4296*
G01X4177Y24572*
G01X4106Y24524*
G01X4082Y24453*
G01Y24405*
G01X4582Y24667D02*
G01Y1011D02*
G01X4201Y1106*
G01X4177D01*
G01X4130Y1130*
G01X4106Y1154*
G01X4082Y1201*
G01Y1297*
G01X4106Y1344*
G01X4130Y1368*
G01X4177Y1392*
G01X4225*
G01X4273Y1368*
G01X4344Y1320*
G01X4582Y1082*
G01Y1416*
G01Y1487D02*
G01X11368Y6770D02*
G01X10853Y7256*
G01X10796Y7198D01*
G01X10768Y7113*
G01Y6998*
G01X10796Y6913*
G01X10853Y6856*
G01X10910*
G01X10968Y6884*
G01X10996Y6913*
G01X11025Y6970*
G01X11082Y7141*
G01X11110Y7198*
G01X11139Y7227*
G01X11196Y7256*
G01X11282*
G01X11339Y7198*
G01X11368Y7113*
G01Y6998*
G01X11339Y6913*
G01X11282Y6856*
G01X11368Y7341D02*
G01X10910Y7856*
G01X10853Y7827D01*
G01X10796Y7770*
G01X10768Y7713*
G01Y7598*
G01X10796Y7541*
G01X10853Y7484*
G01X10910Y7456*
G01X10996Y7427*
G01X11139*
G01X11225Y7456*
G01X11282Y7484*
G01X11339Y7541*
G01X11368Y7598*
G01Y7713*
G01X11339Y7770*
G01X11282Y7827*
G01X11225Y7856*
G01X11368Y7941D02*
G01X10768Y8056*
G01X11368D01*
G01X10768D02*
G01Y8427D01*
G01X11053Y8056D02*
G01Y8284D01*
G01X11368Y8456D02*
G01X11110Y8570*
G01Y9084D01*
G01X11368Y9198D02*
G01X10882Y9370*
G01X10853Y9427D01*
G01X10768Y9513*
G01X11368*
G01Y9770D02*
G01X10768Y9913*
G01Y10227D01*
G01X10996Y10056*
G01Y10141*
G01X11025Y10198*
G01X11053Y10227*
G01X11139Y10256*
G01X11196*
G01X11282Y10227*
G01X11339Y10170*
G01X11368Y10084*
G01Y9998*
G01X11339Y9913*
G01X11310Y9884*
G01X11253Y9856*
G01X11368Y10341D02*
G01X10768Y10484*
G01Y10798D01*
G01X10996Y10627*
G01Y10713*
G01X11025Y10770*
G01X11053Y10798*
G01X11139Y10827*
G01X11196*
G01X11282Y10798*
G01X11339Y10741*
G01X11368Y10656*
G01Y10570*
G01X11339Y10484*
G01X11310Y10456*
G01X11253Y10427*
G01X11368Y10913D02*
G01X10882Y11084*
G01X10853Y11141D01*
G01X10768Y11227*
G01X11368*
G01Y11484D02*
G01X10768Y11713*
G01X10796Y11627D01*
G01X10853Y11598*
G01X10910*
G01X10968Y11627*
G01X10996Y11684*
G01X11025Y11798*
G01X11053Y11884*
G01X11110Y11941*
G01X11168Y11970*
G01X11253*
G01X11310Y11941*
G01X11339Y11913*
G01X11368Y11827*
G01Y11713*
G01X11339Y11627*
G01X11310Y11598*
G01X11253Y11570*
G01X11168*
G01X11110Y11598*
G01X11053Y11656*
G01X11025Y11741*
G01X10996Y11856*
G01X10968Y11913*
G01X10910Y11941*
G01X10853*
G01X10796Y11913*
G01X10768Y11827*
G01Y11713*
G01X11368Y12056D02*
G01X10768Y12541*
G01X11368Y12256D01*
G01X10768Y12141D02*
G01Y12541D01*
G01X11368Y12627D02*
G01X11110Y12741*
G01Y13256D01*
G01X11368Y13370D02*
G01X10768Y13627*
G01X10796Y13541D01*
G01X10882Y13484*
G01X11025Y13456*
G01X11110*
G01X11253Y13484*
G01X11339Y13541*
G01X11368Y13627*
G01Y13684*
G01X11339Y13770*
G01X11253Y13827*
G01X11110Y13856*
G01X11025*
G01X10882Y13827*
G01X10796Y13770*
G01X10768Y13684*
G01Y13627*
G01X11368Y13941D02*
G01X10882Y14113*
G01X10853Y14170D01*
G01X10768Y14256*
G01X11368*
G01Y14513D02*
G01X11110Y14627*
G01Y15141D01*
G01X11368Y15256D02*
G01X10768Y15370*
G01X11368D01*
G01X10768D02*
G01Y15570D01*
G01X10796Y15656*
G01X10853Y15713*
G01X10910Y15741*
G01X10996Y15770*
G01X11139*
G01X11225Y15741*
G01X11282Y15713*
G01X11339Y15656*
G01X11368Y15570*
G01Y15370*
G01Y15856D02*
G01X10768Y16113*
G01X11368Y15884D01*
G01X10768Y16113D02*
G01X11368Y16341D01*
G01X11168Y15970D02*
G01Y16256D01*
G01X11368Y16370D02*
G01X11110Y16484*
G01Y16998D01*
G01X11368Y17113D02*
G01X10768Y17227*
G01X11368D01*
G01X10768D02*
G01Y17484D01*
G01X10796Y17570*
G01X10825Y17598*
G01X10882Y17627*
G01X10939*
G01X10996Y17598*
G01X11025Y17570*
G01X11053Y17484*
G01Y17227*
G01Y17427D02*
G01X11368Y17627D01*
G01Y17713D02*
G01X10882Y17884*
G01X10853Y17941D01*
G01X10768Y18027*
G01X11368*
G01Y18284D02*
G01X9856Y17229D02*
G01X9256Y17486*
G01X9284Y17401D01*
G01X9370Y17344*
G01X9513Y17315*
G01X9599*
G01X9742Y17344*
G01X9827Y17401*
G01X9856Y17486*
G01Y17544*
G01X9827Y17629*
G01X9742Y17686*
G01X9599Y17715*
G01X9513*
G01X9370Y17686*
G01X9284Y17629*
G01X9256Y17544*
G01Y17486*
G01X9856Y17801D02*
G01X9399Y17915*
G01X9370D01*
G01X9313Y17944*
G01X9284Y17972*
G01X9256Y18029*
G01Y18144*
G01X9284Y18201*
G01X9313Y18229*
G01X9370Y18258*
G01X9427*
G01X9484Y18229*
G01X9570Y18172*
G01X9856Y17886*
G01Y18286*
G01Y18372D02*
G01Y8063D02*
G01X9256Y8091*
G01X9856Y8320D01*
G01X9256Y8548D02*
G01X9856Y8320D01*
G01Y8577D02*
G01X9599Y8691*
G01Y9205D01*
G01X9856Y9320D02*
G01X9256Y9577*
G01X9284Y9491D01*
G01X9370Y9434*
G01X9513Y9405*
G01X9599*
G01X9742Y9434*
G01X9827Y9491*
G01X9856Y9577*
G01Y9634*
G01X9827Y9720*
G01X9742Y9777*
G01X9599Y9805*
G01X9513*
G01X9370Y9777*
G01X9284Y9720*
G01X9256Y9634*
G01Y9577*
G01X9856Y9891D02*
G01X22889Y10275D02*
G01X23144Y10545*
G01X23114Y10575D01*
G01X23069Y10590*
G01X23009*
G01X22964Y10575*
G01X22934Y10545*
G01Y10515*
G01X22949Y10485*
G01X22964Y10470*
G01X22994Y10455*
G01X23084Y10425*
G01X23114Y10410*
G01X23129Y10395*
G01X23144Y10365*
G01Y10320*
G01X23114Y10290*
G01X23069Y10275*
G01X23009*
G01X22964Y10290*
G01X22934Y10320*
G01X23189Y10275D02*
G01X23249Y10590*
G01Y10275D01*
G01X23309D02*
G01X23369Y10590*
G01Y10275D01*
G01X23549*
G01X23564D02*
G01X23624Y10590*
G01Y10275D01*
G01X23834Y10590D02*
G01X23624Y10380D01*
G01X23699Y10455D02*
G01X23834Y10275D01*
G01X23879D02*
G01X24194*
G01X24254Y10590*
G01Y10275D01*
G01Y10590D02*
G01X24374Y10275D01*
G01X24494Y10590D02*
G01X24374Y10275D01*
G01X24494Y10590D02*
G01Y10275D01*
G01X24554D02*
G01X24689Y10590*
G01X24569Y10275D01*
G01X24689Y10590D02*
G01X24809Y10275D01*
G01X24614Y10380D02*
G01X24764D01*
G01X24824Y10275D02*
G01X25079Y10545*
G01X25049Y10575D01*
G01X25004Y10590*
G01X24944*
G01X24899Y10575*
G01X24869Y10545*
G01Y10515*
G01X24884Y10485*
G01X24899Y10470*
G01X24929Y10455*
G01X25019Y10425*
G01X25049Y10410*
G01X25064Y10395*
G01X25079Y10365*
G01Y10320*
G01X25049Y10290*
G01X25004Y10275*
G01X24944*
G01X24899Y10290*
G01X24869Y10320*
G01X25124Y10275D02*
G01X25184Y10590*
G01Y10275D01*
G01X25394Y10590D02*
G01X25184Y10380D01*
G01X25259Y10455D02*
G01X25394Y10275D01*
G01X25439D02*
G01X25529Y10290*
G01X25514Y10275D01*
G01X25499Y10290*
G01X25514Y10305*
G01X25529Y10290*
G01Y10260*
G01X25514Y10230*
G01X25499Y10215*
G01X25589Y10275D02*
G01X25904*
G01X25964Y10590*
G01Y10275D01*
G01Y10590D02*
G01X26174Y10275D01*
G01Y10590D02*
G01Y10275D01*
G01X26234D02*
G01X26294Y10590*
G01Y10275D01*
G01Y10590D02*
G01X26489D01*
G01X26294Y10440D02*
G01X26414D01*
G01X26294Y10275D02*
G01X26489D01*
G01X26519D02*
G01X26654Y10590*
G01X26534Y10275D01*
G01X26654Y10590D02*
G01X26774Y10275D01*
G01X26579Y10380D02*
G01X26729D01*
G01X26789Y10275D02*
G01X26849Y10590*
G01Y10275D01*
G01Y10590D02*
G01X26984D01*
G01X27029Y10575*
G01X27044Y10560*
G01X27059Y10530*
G01Y10500*
G01X27044Y10470*
G01X27029Y10455*
G01X26984Y10440*
G01X26849*
G01X26954D02*
G01X27059Y10275D01*
G01X27104D02*
G01X27419*
G01X27674Y10545*
G01X27644Y10575D01*
G01X27599Y10590*
G01X27539*
G01X27494Y10575*
G01X27464Y10545*
G01Y10515*
G01X27479Y10485*
G01X27494Y10470*
G01X27524Y10455*
G01X27614Y10425*
G01X27644Y10410*
G01X27659Y10395*
G01X27674Y10365*
G01Y10320*
G01X27644Y10290*
G01X27599Y10275*
G01X27539*
G01X27494Y10290*
G01X27464Y10320*
G01X27719Y10275D02*
G01X27779Y10590*
G01Y10275D01*
G01X27839D02*
G01X27899Y10590*
G01Y10275D01*
G01Y10590D02*
G01X28004D01*
G01X28049Y10575*
G01X28079Y10545*
G01X28094Y10515*
G01X28109Y10470*
G01Y10395*
G01X28094Y10350*
G01X28079Y10320*
G01X28049Y10290*
G01X28004Y10275*
G01X27899*
G01X28154D02*
G01X28214Y10590*
G01Y10275D01*
G01Y10590D02*
G01X28409D01*
G01X28214Y10440D02*
G01X28334D01*
G01X28214Y10275D02*
G01X28409D01*
G01X28439D02*
M02*
