%MOIN*%
%ADD17C,0.0220*%
%ADD18C,0.0060*%
%ADD19C,0.0045*%
%ADD20C,0.0080*%
%ADD21C,0.0120*%
%ADD22C,0.0220*%
%ADD23R,0.0570X0.0120*%
%ADD24R,0.0250X0.1000*%
%ADD25R,0.0250X0.1850*%
%ADD26C,0.0250*%
%ADD27C,0.0200*%
%ADD28C,0.0110*%
%ADD29C,0.0160*%
%ADD30R,0.0895X0.0110*%
%ADD31R,0.0170X0.1000*%
%ADD32R,0.0170X0.1850*%
%ADD33C,0.0170*%
%ADD34C,0.0079*%
%ADD35C,0.0380*%
%ADD36C,0.0276*%
%ADD37C,0.0492*%
%ADD38C,0.0250*%
%ADD39C,0.0005*%
%ADD40R,0.0855X0.0070*%
%ADD41R,0.0130X0.0960*%
%ADD42R,0.0130X0.1810*%
%ADD43R,0.0060X0.0060*%
%ADD44C,0.0039*%
%ADD45C,0.0300*%
%ADD46C,0.0150*%
%ADD47R,0.0530X0.0080*%
%ADD48R,0.0210X0.0960*%
%ADD49R,0.0210X0.1810*%
%ADD50C,0.0007*%
%ADD51C,0.0020*%
%ADD52C,0.0139*%
%ADD53C,0.1250*%
%ADD54C,0.0420*%
%ASAXBY*%
%FSLAX04Y04*%
%IPPOS*%
%LNSTF-01-NS*%
%SFA1.0000B1.0000*%
%LPD*%
%ASAXBY*%
%FSLAX04Y04*%
%IPPOS*%
%LNSTF-01-NS*%
%SFA1.0000B1.0000*%
%LPD*%
D39*
G01X15430Y28000D02*
G01X20000D01*
G01Y-3000*
G01X15430*
G01Y28000*
D54*
G01X18780Y664D03*
G01Y24336D03*
D53*
G01X17730Y-1500D03*
G01Y26500D03*
D36*
G01X19427Y24336D03*
G01X15811Y664D03*
D20*
G01X22913Y14407D02*
G01X23168Y14677*
G01X23138Y14707D01*
G01X23093Y14722*
G01X23033*
G01X22988Y14707*
G01X22958Y14677*
G01Y14647*
G01X22973Y14617*
G01X22988Y14602*
G01X23018Y14587*
G01X23108Y14557*
G01X23138Y14542*
G01X23153Y14527*
G01X23168Y14497*
G01Y14452*
G01X23138Y14422*
G01X23093Y14407*
G01X23033*
G01X22988Y14422*
G01X22958Y14452*
G01X23213Y14407D02*
G01X23333Y14722*
G01Y14407D01*
G01X23228Y14722D02*
G01X23438D01*
G01X23453Y14407D02*
G01X23513Y14722*
G01Y14407D01*
G01X23573D02*
G01X23633Y14722*
G01Y14407D01*
G01Y14722D02*
G01X23828D01*
G01X23633Y14572D02*
G01X23753D01*
G01X23843Y14407D02*
G01X23903Y14722*
G01Y14407D01*
G01Y14722D02*
G01X24098D01*
G01X23903Y14572D02*
G01X24023D01*
G01X24113Y14407D02*
G01X24173Y14722*
G01Y14407D01*
G01Y14722D02*
G01X24368D01*
G01X24173Y14572D02*
G01X24293D01*
G01X24173Y14407D02*
G01X24368D01*
G01X24398D02*
G01X24458Y14722*
G01Y14407D01*
G01Y14722D02*
G01X24668Y14407D01*
G01Y14722D02*
G01Y14407D01*
G01X24728D02*
G01X24788Y14722*
G01Y14407D01*
G01Y14722D02*
G01X24983D01*
G01X24788Y14572D02*
G01X24908D01*
G01X24788Y14407D02*
G01X24983D01*
G01X25013D02*
G01X25073Y14722*
G01Y14407D01*
G01Y14722D02*
G01X25208D01*
G01X25253Y14707*
G01X25268Y14692*
G01X25283Y14662*
G01Y14632*
G01X25268Y14602*
G01X25253Y14587*
G01X25208Y14572*
G01X25073*
G01X25178D02*
G01X25283Y14407D01*
G01X25328D02*
G01X25583Y14677*
G01X25553Y14707D01*
G01X25508Y14722*
G01X25448*
G01X25403Y14707*
G01X25373Y14677*
G01Y14647*
G01X25388Y14617*
G01X25403Y14602*
G01X25433Y14587*
G01X25523Y14557*
G01X25553Y14542*
G01X25568Y14527*
G01X25583Y14497*
G01Y14452*
G01X25553Y14422*
G01X25508Y14407*
G01X25448*
G01X25403Y14422*
G01X25373Y14452*
G01X25628Y14407D02*
G01X25718Y14422*
G01X25703Y14407D01*
G01X25688Y14422*
G01X25703Y14437*
G01X25718Y14422*
G01Y14392*
G01X25703Y14362*
G01X25688Y14347*
G01X25778Y14407D02*
G01X26093*
G01X26153Y14722*
G01Y14407D01*
G01Y14722D02*
G01X26363Y14407D01*
G01Y14722D02*
G01Y14407D01*
G01X26423D02*
G01X26483Y14722*
G01Y14407D01*
G01Y14722D02*
G01X26678D01*
G01X26483Y14572D02*
G01X26603D01*
G01X26483Y14407D02*
G01X26678D01*
G01X26708D02*
G01X26843Y14722*
G01X26723Y14407D01*
G01X26843Y14722D02*
G01X26963Y14407D01*
G01X26768Y14512D02*
G01X26918D01*
G01X26978Y14407D02*
G01X27038Y14722*
G01Y14407D01*
G01Y14722D02*
G01X27173D01*
G01X27218Y14707*
G01X27233Y14692*
G01X27248Y14662*
G01Y14632*
G01X27233Y14602*
G01X27218Y14587*
G01X27173Y14572*
G01X27038*
G01X27143D02*
G01X27248Y14407D01*
G01X27293D02*
G01X27608*
G01X27863Y14677*
G01X27833Y14707D01*
G01X27788Y14722*
G01X27728*
G01X27683Y14707*
G01X27653Y14677*
G01Y14647*
G01X27668Y14617*
G01X27683Y14602*
G01X27713Y14587*
G01X27803Y14557*
G01X27833Y14542*
G01X27848Y14527*
G01X27863Y14497*
G01Y14452*
G01X27833Y14422*
G01X27788Y14407*
G01X27728*
G01X27683Y14422*
G01X27653Y14452*
G01X27908Y14407D02*
G01X27968Y14722*
G01Y14407D01*
G01X28028D02*
G01X28088Y14722*
G01Y14407D01*
G01Y14722D02*
G01X28193D01*
G01X28238Y14707*
G01X28268Y14677*
G01X28283Y14647*
G01X28298Y14602*
G01Y14527*
G01X28283Y14482*
G01X28268Y14452*
G01X28238Y14422*
G01X28193Y14407*
G01X28088*
G01X28343D02*
G01X28403Y14722*
G01Y14407D01*
G01Y14722D02*
G01X28598D01*
G01X28403Y14572D02*
G01X28523D01*
G01X28403Y14407D02*
G01X28598D01*
G01X28628D02*
M02*
