%MOIN*%
%ADD17C,0.0220*%
%ADD18C,0.0060*%
%ADD19C,0.0045*%
%ADD20C,0.0080*%
%ADD21C,0.0120*%
%ADD22C,0.0220*%
%ADD23R,0.0570X0.0120*%
%ADD24R,0.0250X0.1000*%
%ADD25R,0.0250X0.1850*%
%ADD26C,0.0250*%
%ADD27C,0.0200*%
%ADD28C,0.0110*%
%ADD29C,0.0160*%
%ADD30R,0.0895X0.0110*%
%ADD31R,0.0170X0.1000*%
%ADD32R,0.0170X0.1850*%
%ADD33C,0.0170*%
%ADD34C,0.0079*%
%ADD35C,0.0380*%
%ADD36C,0.0276*%
%ADD37C,0.0492*%
%ADD38C,0.0250*%
%ADD39C,0.0005*%
%ADD40R,0.0855X0.0070*%
%ADD41R,0.0130X0.0960*%
%ADD42R,0.0130X0.1810*%
%ADD43R,0.0060X0.0060*%
%ADD44C,0.0039*%
%ADD45C,0.0300*%
%ADD46C,0.0150*%
%ADD47R,0.0530X0.0080*%
%ADD48R,0.0210X0.0960*%
%ADD49R,0.0210X0.1810*%
%ADD50C,0.0007*%
%ADD51C,0.0020*%
%ADD52C,0.0139*%
%ADD53C,0.1250*%
%ADD54C,0.0420*%
%ASAXBY*%
%FSLAX04Y04*%
%IPPOS*%
%LNSTF-01-FS*%
%SFA1.0000B1.0000*%
%LPD*%
%ASAXBY*%
%FSLAX04Y04*%
%IPPOS*%
%LNSTF-01-FS*%
%SFA1.0000B1.0000*%
%LPD*%
D39*
G01X4620Y28000D02*
G01X0D01*
G01Y-3000*
G01X4620*
G01Y28000*
D53*
G01X2320Y-1500D03*
G01Y26500D03*
D36*
G01X659Y987D03*
G01X3651Y24381D03*
D54*
G01X1520Y24012D03*
G01Y988D03*
D20*
G01X22913Y13922D02*
G01X23168Y14192*
G01X23138Y14222D01*
G01X23093Y14237*
G01X23033*
G01X22988Y14222*
G01X22958Y14192*
G01Y14162*
G01X22973Y14132*
G01X22988Y14117*
G01X23018Y14102*
G01X23108Y14072*
G01X23138Y14057*
G01X23153Y14042*
G01X23168Y14012*
G01Y13967*
G01X23138Y13937*
G01X23093Y13922*
G01X23033*
G01X22988Y13937*
G01X22958Y13967*
G01X23213Y13922D02*
G01X23333Y14237*
G01Y13922D01*
G01X23228Y14237D02*
G01X23438D01*
G01X23453Y13922D02*
G01X23513Y14237*
G01Y13922D01*
G01X23573D02*
G01X23633Y14237*
G01Y13922D01*
G01Y14237D02*
G01X23828D01*
G01X23633Y14087D02*
G01X23753D01*
G01X23843Y13922D02*
G01X23903Y14237*
G01Y13922D01*
G01Y14237D02*
G01X24098D01*
G01X23903Y14087D02*
G01X24023D01*
G01X24113Y13922D02*
G01X24173Y14237*
G01Y13922D01*
G01Y14237D02*
G01X24368D01*
G01X24173Y14087D02*
G01X24293D01*
G01X24173Y13922D02*
G01X24368D01*
G01X24398D02*
G01X24458Y14237*
G01Y13922D01*
G01Y14237D02*
G01X24668Y13922D01*
G01Y14237D02*
G01Y13922D01*
G01X24728D02*
G01X24788Y14237*
G01Y13922D01*
G01Y14237D02*
G01X24983D01*
G01X24788Y14087D02*
G01X24908D01*
G01X24788Y13922D02*
G01X24983D01*
G01X25013D02*
G01X25073Y14237*
G01Y13922D01*
G01Y14237D02*
G01X25208D01*
G01X25253Y14222*
G01X25268Y14207*
G01X25283Y14177*
G01Y14147*
G01X25268Y14117*
G01X25253Y14102*
G01X25208Y14087*
G01X25073*
G01X25178D02*
G01X25283Y13922D01*
G01X25328D02*
G01X25583Y14192*
G01X25553Y14222D01*
G01X25508Y14237*
G01X25448*
G01X25403Y14222*
G01X25373Y14192*
G01Y14162*
G01X25388Y14132*
G01X25403Y14117*
G01X25433Y14102*
G01X25523Y14072*
G01X25553Y14057*
G01X25568Y14042*
G01X25583Y14012*
G01Y13967*
G01X25553Y13937*
G01X25508Y13922*
G01X25448*
G01X25403Y13937*
G01X25373Y13967*
G01X25628Y13922D02*
G01X25718Y13937*
G01X25703Y13922D01*
G01X25688Y13937*
G01X25703Y13952*
G01X25718Y13937*
G01Y13907*
G01X25703Y13877*
G01X25688Y13862*
G01X25778Y13922D02*
G01X26093*
G01X26153Y14237*
G01Y13922D01*
G01Y14237D02*
G01X26348D01*
G01X26153Y14087D02*
G01X26273D01*
G01X26363Y13922D02*
G01X26498Y14237*
G01X26378Y13922D01*
G01X26498Y14237D02*
G01X26618Y13922D01*
G01X26423Y14027D02*
G01X26573D01*
G01X26633Y13922D02*
G01X26693Y14237*
G01Y13922D01*
G01Y14237D02*
G01X26828D01*
G01X26873Y14222*
G01X26888Y14207*
G01X26903Y14177*
G01Y14147*
G01X26888Y14117*
G01X26873Y14102*
G01X26828Y14087*
G01X26693*
G01X26798D02*
G01X26903Y13922D01*
G01X26948D02*
G01X27263*
G01X27518Y14192*
G01X27488Y14222D01*
G01X27443Y14237*
G01X27383*
G01X27338Y14222*
G01X27308Y14192*
G01Y14162*
G01X27323Y14132*
G01X27338Y14117*
G01X27368Y14102*
G01X27458Y14072*
G01X27488Y14057*
G01X27503Y14042*
G01X27518Y14012*
G01Y13967*
G01X27488Y13937*
G01X27443Y13922*
G01X27383*
G01X27338Y13937*
G01X27308Y13967*
G01X27563Y13922D02*
G01X27623Y14237*
G01Y13922D01*
G01X27683D02*
G01X27743Y14237*
G01Y13922D01*
G01Y14237D02*
G01X27848D01*
G01X27893Y14222*
G01X27923Y14192*
G01X27938Y14162*
G01X27953Y14117*
G01Y14042*
G01X27938Y13997*
G01X27923Y13967*
G01X27893Y13937*
G01X27848Y13922*
G01X27743*
G01X27998D02*
G01X28058Y14237*
G01Y13922D01*
G01Y14237D02*
G01X28253D01*
G01X28058Y14087D02*
G01X28178D01*
G01X28058Y13922D02*
G01X28253D01*
G01X28283D02*
M02*
