G04 ================== begin FILE IDENTIFICATION RECORD ==================*
G04 Layout Name:  G:/Layout_CP2008/HMB/for_altera/HMB_V20.brd*
G04 Film Name:    L4-Bottom*
G04 File Format:  Gerber RS274X*
G04 File Origin:  15.7-p007*
G04 Origin Date:  Wed Oct 08 14:49:08 2008*
G04 *
G04 Layer:  VIA CLASS/BOTTOM*
G04 Layer:  PIN/BOTTOM*
G04 Layer:  ETCH/BOTTOM*
G04 *
G04 Offset:    (0.00 0.00)*
G04 Mirror:    No*
G04 Mode:      Positive*
G04 Rotation:  0*
G04 FullContactRelief:  No*
G04 UndefLineWidth:     0.00*
G04 ================== end FILE IDENTIFICATION RECORD ====================*
%FSLAX53Y53*MOIN*%
%IR0*IPPOS*OFA0.00000B0.00000*MIA0B0*SFA1.00000B1.00000*%
%ADD12C,.02*%
%ADD31C,.04*%
%ADD15R,.01693X.1*%
%ADD23C,.043*%
%ADD34C,.053*%
%ADD25O,.055X.168*%
%ADD14C,.026*%
%ADD10C,.035*%
%ADD27O,.168X.055*%
%ADD22C,.018*%
%ADD20C,.063*%
%ADD19C,.09*%
%ADD39O,.069X.129*%
%ADD18C,.037*%
%ADD38O,.129X.069*%
%ADD36C,.094*%
%ADD35C,.067*%
%ADD24R,.043X.043*%
%ADD37R,.053X.053*%
%ADD30C,.069*%
%ADD17R,.035X.035*%
%ADD32R,.063X.063*%
%ADD29R,.069X.069*%
%ADD16R,.01693X.18504*%
%ADD26C,.104*%
%ADD11C,.25*%
%ADD28C,.207*%
%ADD21R,.071X.047*%
%ADD33R,.059X.024*%
%ADD13R,.08937X.01102*%
%ADD40C,.01*%
%ADD41C,.011*%
%ADD42C,.03*%
%ADD43C,.012*%
%ADD44C,.015*%
%ADD45C,.016*%
%ADD46C,.025*%
%ADD47C,.004*%
%ADD48C,.006*%
%ADD49C,.008*%
%ADD50C,.07304*%
%ADD51C,.08304*%
G75*
%LPD*%
G75*
G36*
G01X25Y880D02*
X20Y885D01*
Y2322D01*
G02X25Y2326I4J0D01*
G03X44Y2345I5J14D01*
G02X48Y2350I4J1D01*
G01X77D01*
G02X81Y2345I0J-4D01*
G03X104Y2328I14J-5D01*
G02X110Y2324I2J-3D01*
G01Y2300D01*
X105Y2295D01*
X62D01*
X60Y2292D01*
Y1703D01*
X62Y1700D01*
X105D01*
X110Y1695D01*
Y1515D01*
X105Y1510D01*
X65D01*
X60Y1505D01*
Y915D01*
X65Y910D01*
X105D01*
X109Y906D01*
X107Y903D01*
X106Y904D01*
G03X86Y885I-6J-14D01*
G02X82Y880I-4J-1D01*
G01X25D01*
G37*
G36*
G01X205Y3175D02*
X210Y3180D01*
X235D01*
X240Y3175D01*
Y1710D01*
X280Y1670D01*
Y1540D01*
X245Y1505D01*
Y815D01*
X240Y810D01*
X210D01*
X205Y815D01*
Y3175D01*
G37*
G36*
G01X920Y655D02*
X930Y645D01*
Y190D01*
X920Y180D01*
X510D01*
X500Y190D01*
Y645D01*
X510Y655D01*
X920D01*
G37*
G36*
G01X2630Y1325D02*
X2635Y1330D01*
X2690D01*
Y1260D01*
X2685Y1255D01*
X2630D01*
Y1325D01*
G37*
G36*
G01X4425Y275D02*
X3935D01*
X3925Y285D01*
Y620D01*
X3935Y630D01*
X4425D01*
X4435Y620D01*
Y285D01*
X4425Y275D01*
G37*
%LPC*%
G75*
G54D50*
X570Y610D03*
G54D51*
X4385Y370D03*
Y470D03*
%LPD*%
G75*
G54D10*
G01X3140Y3360D02*
Y3320D01*
G01Y3220D02*
Y3260D01*
G01X3902Y2584D02*
X3940Y2622D01*
Y2780D01*
X75Y75D03*
X70Y3925D03*
X4930Y65D03*
Y3930D03*
G54D11*
X200Y200D03*
X225Y600D03*
Y3400D03*
X200Y3800D03*
X4800Y200D03*
Y3800D03*
G54D20*
X570Y710D03*
Y610D03*
X3750Y460D03*
Y360D03*
X4105Y3684D03*
X3997D03*
X3889D03*
X4051Y3570D03*
X3943D03*
X4385Y370D03*
Y470D03*
X4213Y3684D03*
X4267Y3570D03*
X4159D03*
X4582Y512D03*
X4680D03*
X4582Y776D03*
X4680D03*
Y695D03*
Y593D03*
X4500Y3220D03*
Y3120D03*
Y3020D03*
X4600Y3220D03*
Y3120D03*
Y3020D03*
X4500Y3320D03*
X4600Y3420D03*
Y3320D03*
X4818Y2280D03*
X4878Y2180D03*
Y2580D03*
X4818Y2680D03*
G54D21*
X720Y3083D03*
Y3197D03*
G54D30*
X2580Y3665D03*
X2625Y3565D03*
X2535D03*
X2850Y3465D03*
X2760D03*
X2670D03*
X2850Y3665D03*
X2760D03*
X2670Y3665D03*
X2895Y3565D03*
X2805Y3565D03*
X2715D03*
X2940Y3465D03*
Y3665D03*
G54D12*
X180Y1003D03*
Y1028D03*
Y1065D03*
Y1090D03*
Y972D03*
X182Y947D03*
X150Y905D03*
X125D03*
X30Y890D03*
X50Y1015D03*
Y945D03*
X100Y890D03*
X182Y1325D03*
Y1355D03*
X180Y1268D03*
Y1146D03*
Y1180D03*
Y1208D03*
Y1238D03*
Y1120D03*
X182Y1298D03*
X50Y1230D03*
Y1160D03*
Y1395D03*
X182Y1383D03*
Y1505D03*
Y1475D03*
Y1443D03*
Y1415D03*
X50Y1510D03*
Y1465D03*
X30Y1570D03*
Y1610D03*
Y1650D03*
X182Y1790D03*
Y1816D03*
Y1852D03*
Y1878D03*
Y1905D03*
Y1938D03*
Y1968D03*
Y1995D03*
Y1734D03*
Y1761D03*
X50Y1945D03*
Y1830D03*
Y1715D03*
X182Y2238D03*
Y2210D03*
Y2266D03*
Y2292D03*
Y2182D03*
Y2022D03*
Y2049D03*
Y2138D03*
Y2075D03*
Y2108D03*
X50Y2250D03*
Y2015D03*
Y2180D03*
X170Y2581D03*
Y2541D03*
X185Y2410D03*
X112Y2499D03*
X155Y2353D03*
X95Y2340D03*
X30D03*
X400Y985D03*
X275Y927D03*
X225Y986D03*
Y819D03*
X275Y986D03*
Y1075D03*
X405Y1219D03*
X225Y1223D03*
X275Y1195D03*
Y1310D03*
X405Y1455D03*
X470Y1660D03*
X224Y1606D03*
X225Y1459D03*
X250Y1650D03*
Y1570D03*
X275Y1430D03*
X430Y1630D03*
Y1600D03*
Y1660D03*
X350Y1610D03*
Y1650D03*
Y1570D03*
X405Y1951D03*
X225Y1975D03*
Y1745D03*
X275Y1980D03*
Y1865D03*
Y1745D03*
X255Y2154D03*
X428Y2235D03*
X445Y2216D03*
X465Y2196D03*
X402Y2237D03*
X275Y2215D03*
Y2100D03*
X414Y2605D03*
X415Y2570D03*
X225Y2380D03*
X496Y2334D03*
X510Y2670D03*
X225Y2783D03*
Y3043D03*
X530Y470D03*
X590D03*
X560D03*
X700Y460D03*
X755D03*
Y360D03*
X640Y460D03*
Y380D03*
X700Y360D03*
X560Y290D03*
X530D03*
X590D03*
Y1660D03*
X655Y2000D03*
X765Y2295D03*
X745Y2235D03*
X725Y2255D03*
X765Y2216D03*
X785Y2196D03*
X745Y2275D03*
X655Y2150D03*
X685Y2110D03*
X765Y2330D03*
X725Y2334D03*
X650Y2670D03*
X682Y2714D03*
X780Y2880D03*
X740D03*
X514Y2740D03*
X760Y2634D03*
X780Y2786D03*
X660Y2900D03*
X754Y2794D03*
X794Y2740D03*
X806Y2794D03*
X794Y2670D03*
X780Y2960D03*
X760Y3044D03*
X514Y3020D03*
X740Y2920D03*
Y2960D03*
X780Y2920D03*
X794Y3048D03*
X514Y2950D03*
X734Y3044D03*
X780Y3230D03*
X854Y302D03*
X906D03*
X880D03*
X820Y360D03*
X850Y480D03*
X880D03*
X910D03*
X980Y1050D03*
X1030Y910D03*
Y1190D03*
X960Y1230D03*
X950Y1140D03*
X840Y1230D03*
X820Y2880D03*
X860Y2670D03*
X1048Y2950D03*
X820Y3192D03*
X835Y3125D03*
X820Y2960D03*
Y2920D03*
X960Y2922D03*
X1340Y910D03*
Y1050D03*
X1180Y910D03*
X1338Y1302D03*
X1298Y1302D03*
X1340Y1190D03*
X1180D03*
X1123Y1580D03*
X1460Y960D03*
X1500D03*
X1420D03*
X1569Y1230D03*
X1460Y1140D03*
X1420D03*
X1500D03*
X1451Y1230D03*
X1480Y2385D03*
X1880Y74D03*
X1975Y1675D03*
X1945Y1679D03*
X1915Y1680D03*
X1885Y1681D03*
X2000Y2480D03*
X1870Y2535D03*
X1905Y2615D03*
X1915Y2770D03*
X1870Y2705D03*
X1905Y2820D03*
X1840Y2775D03*
X2004Y2645D03*
X1810Y2775D03*
X1925Y2890D03*
X1905Y2850D03*
X1915Y2720D03*
X1770Y2810D03*
X1905Y2670D03*
X2001Y2715D03*
X2010Y2870D03*
Y2810D03*
Y2750D03*
X2001Y2975D03*
X1910Y3020D03*
X1981Y2955D03*
X1910Y3270D03*
X2250Y70D03*
X2040Y74D03*
X2250Y206D03*
X2254Y264D03*
X2215Y1395D03*
X2175Y1390D03*
X2190Y1440D03*
X2155D03*
X2165Y1480D03*
X2135D03*
X2244Y1986D03*
X2217D03*
X2190D03*
X2163D03*
X2136D03*
X2109D03*
X2271D03*
X2298D03*
X2040Y2666D03*
X2060Y2715D03*
X2080Y2905D03*
X2159Y2666D03*
X2162Y2761D03*
X2070Y2810D03*
X2130Y2870D03*
X2070D03*
Y2750D03*
X2130Y2810D03*
Y2750D03*
X2040Y2620D03*
X2218Y2780D03*
X2216Y2721D03*
X2021Y2954D03*
X2060Y2956D03*
X2205Y2945D03*
X2040Y2975D03*
X2255Y2925D03*
X2230Y3150D03*
Y3020D03*
X2050D03*
X2090Y2975D03*
X2230Y3270D03*
X2070D03*
X2530Y200D03*
X2500D03*
Y70D03*
X2420D03*
X2340D03*
X2580D03*
X2608Y370D03*
Y355D03*
X2568Y1986D03*
X2541D03*
X2514D03*
X2487D03*
X2460D03*
X2433D03*
X2406D03*
X2379D03*
X2352D03*
X2325D03*
X2595D03*
X2430Y3268D03*
X2570D03*
X2500D03*
X2750Y70D03*
X2840D03*
X2660D03*
Y208D03*
X2790Y70D03*
X2720D03*
X2726Y238D03*
X2746Y355D03*
X2754Y238D03*
X2766Y394D03*
X2815Y259D03*
X2785Y238D03*
X2800Y910D03*
X2770D03*
X2740D03*
X2710D03*
X2800Y870D03*
X2770D03*
X2740D03*
X2710D03*
Y830D03*
X2770Y1070D03*
X2800D03*
X2830D03*
X2860D03*
X2635Y1390D03*
X2825Y1325D03*
X2860Y1373D03*
X2825Y1295D03*
Y1265D03*
X2765Y1390D03*
X2640Y1270D03*
Y1320D03*
Y1295D03*
Y1535D03*
X2730Y1420D03*
Y1505D03*
X2880Y1577D03*
X2765Y1517D03*
X2676Y1986D03*
X2703D03*
X2649D03*
X2622D03*
X2892D03*
X2865D03*
X2784D03*
X2757D03*
X2811D03*
X2730D03*
X2838D03*
X2765Y1734D03*
X2880Y2762D03*
X2680Y2970D03*
X2790D03*
X2770Y3080D03*
X2740Y3122D03*
X2750Y2970D03*
X2711D03*
X2829D03*
X2849D03*
X2868D03*
X2640Y3268D03*
X2850D03*
X2780D03*
X2710D03*
X3000Y70D03*
X3016Y404D03*
X3000Y420D03*
X3082Y402D03*
X3100Y420D03*
Y920D03*
X3125D03*
X3150D03*
X2975Y1030D03*
Y990D03*
Y955D03*
Y900D03*
Y870D03*
Y840D03*
X3050Y900D03*
Y870D03*
Y840D03*
X3060Y953D03*
X3120Y1100D03*
X3090D03*
X3150D03*
X3030Y1060D03*
X3060D03*
X3000D03*
X3090Y1140D03*
X3120D03*
X3150D03*
X2925Y1517D03*
X2946Y1986D03*
X2919D03*
X2965Y1734D03*
X3500Y74D03*
X3430D03*
X3360D03*
X3290D03*
X3500Y360D03*
X3474Y356D03*
X3448Y358D03*
X3320Y230D03*
X3293Y537D03*
X3415Y795D03*
X3455D03*
X3490D03*
X3430Y750D03*
X3500D03*
X3360D03*
X3290D03*
X3474Y616D03*
X3415Y1020D03*
Y990D03*
Y955D03*
X3507Y953D03*
X3250Y1170D03*
Y1145D03*
Y1120D03*
X3425Y1535D03*
X3375Y1420D03*
X3350Y1670D03*
X3400Y2860D03*
Y2730D03*
Y2990D03*
X3450Y3214D03*
X3570Y74D03*
X3590Y332D03*
X3564D03*
X3616D03*
Y508D03*
X3564D03*
X3590Y508D03*
X3535Y810D03*
X3565D03*
X3595D03*
X3647Y752D03*
X3595Y925D03*
X3565D03*
X3535D03*
X3570Y1100D03*
X3600D03*
X3530D03*
Y1140D03*
X3560D03*
X3590D03*
X3750Y1150D03*
Y1215D03*
X3545Y1505D03*
X3590Y1420D03*
X3750Y1510D03*
X3525Y1425D03*
X3600Y1670D03*
X3590Y1540D03*
X3750Y1710D03*
Y1905D03*
Y1805D03*
X3770Y2060D03*
X3534Y2538D03*
X3646Y2520D03*
X3789Y2450D03*
X3645Y2341D03*
X3666Y2544D03*
X3724Y2520D03*
X3534Y2322D03*
X3750Y2690D03*
X3642Y2642D03*
X3720Y2730D03*
X3560D03*
X3720Y2990D03*
X3560D03*
X3550Y3360D03*
Y3230D03*
X3592D03*
X3710D03*
X3935Y445D03*
X3965D03*
X3995D03*
X4080D03*
X3965Y330D03*
X3995D03*
X3935D03*
X3980Y610D03*
X3870Y1151D03*
Y1215D03*
X3916Y1314D03*
X3869Y1710D03*
X3920Y1609D03*
Y1510D03*
X3870Y1805D03*
X4006Y2444D03*
X4010Y2580D03*
X3820Y2492D03*
X4000Y2470D03*
X3958Y2420D03*
Y2528D03*
X3857Y2361D03*
X3858Y2414D03*
X4002Y2498D03*
X4010Y2700D03*
X3840Y2842D03*
X3872Y2690D03*
X3876Y3295D03*
X4120Y445D03*
X4160D03*
X4170Y733D03*
X4275Y515D03*
X4250D03*
X4300D03*
X4170Y807D03*
X4335Y810D03*
Y740D03*
X4130Y950D03*
X4165Y873D03*
X4335Y1020D03*
X4214Y972D03*
X4335Y880D03*
X4262Y2270D03*
Y2130D03*
X4135D03*
X4136Y2200D03*
X4132Y2270D03*
X4130Y2400D03*
Y2460D03*
X4128Y2520D03*
X4262Y2460D03*
Y2400D03*
X4132Y2340D03*
X4128Y2640D03*
Y2700D03*
X4385Y2910D03*
X4254Y2909D03*
X4385Y3090D03*
X4130Y2940D03*
X4355Y3090D03*
X4325D03*
X4355Y3270D03*
X4385D03*
X4325D03*
X4455Y810D03*
Y1020D03*
X4515Y2910D03*
G54D40*
G01X1200Y1770D02*
X1174Y1796D01*
X1139D01*
X1121Y1778D01*
G01X2090Y2975D02*
X2073D01*
X2050Y2998D01*
X2027D01*
X2005Y3020D01*
G54D13*
X112Y927D03*
Y947D03*
Y967D03*
Y986D03*
Y1006D03*
Y1026D03*
Y1045D03*
Y1065D03*
Y1085D03*
Y1104D03*
Y1124D03*
Y1144D03*
Y1163D03*
Y1183D03*
Y1203D03*
Y1222D03*
Y1242D03*
Y1262D03*
Y1282D03*
Y1301D03*
Y1321D03*
Y1341D03*
Y1360D03*
Y1380D03*
Y1400D03*
Y1419D03*
Y1439D03*
Y1459D03*
Y1478D03*
Y1498D03*
Y1715D03*
Y1734D03*
Y1754D03*
Y1774D03*
Y1793D03*
Y1813D03*
Y1833D03*
Y1852D03*
Y1872D03*
Y1892D03*
Y1911D03*
Y1931D03*
Y1951D03*
Y1970D03*
Y1990D03*
Y2010D03*
Y2030D03*
Y2049D03*
Y2069D03*
Y2089D03*
Y2108D03*
Y2128D03*
Y2148D03*
Y2167D03*
Y2187D03*
Y2207D03*
Y2226D03*
Y2246D03*
Y2266D03*
Y2285D03*
Y2522D03*
Y2541D03*
Y2581D03*
Y2600D03*
Y2640D03*
Y2659D03*
Y2699D03*
Y2718D03*
Y2758D03*
Y2778D03*
Y2817D03*
Y2837D03*
Y2876D03*
Y2896D03*
Y2935D03*
Y2955D03*
Y2994D03*
Y3014D03*
Y3053D03*
Y3073D03*
X338Y927D03*
Y947D03*
Y967D03*
Y986D03*
Y1006D03*
Y1026D03*
Y1045D03*
Y1065D03*
Y1085D03*
Y1104D03*
Y1124D03*
Y1144D03*
Y1163D03*
Y1183D03*
Y1203D03*
Y1222D03*
Y1242D03*
Y1262D03*
Y1282D03*
Y1301D03*
Y1321D03*
Y1341D03*
Y1360D03*
Y1380D03*
Y1400D03*
Y1419D03*
Y1439D03*
Y1459D03*
Y1478D03*
Y1498D03*
Y1715D03*
Y1734D03*
Y1754D03*
Y1774D03*
Y1793D03*
Y1813D03*
Y1833D03*
Y1852D03*
Y1872D03*
Y1892D03*
Y1911D03*
Y1931D03*
Y1951D03*
Y1970D03*
Y1990D03*
Y2010D03*
Y2030D03*
Y2049D03*
Y2069D03*
Y2089D03*
Y2108D03*
Y2128D03*
Y2148D03*
Y2167D03*
Y2187D03*
Y2207D03*
Y2226D03*
Y2246D03*
Y2266D03*
Y2285D03*
Y2522D03*
Y2541D03*
Y2581D03*
Y2600D03*
Y2640D03*
Y2659D03*
Y2699D03*
Y2718D03*
Y2758D03*
Y2778D03*
Y2817D03*
Y2837D03*
Y2876D03*
Y2896D03*
Y2935D03*
Y2955D03*
Y2994D03*
Y3014D03*
Y3053D03*
Y3073D03*
G54D22*
G01X930Y1230D02*
X960D01*
G01X870D02*
X840D01*
G01X1065Y1660D02*
Y1638D01*
X1082Y1621D01*
G01Y1699D02*
X1065Y1682D01*
Y1660D01*
G01X930Y2090D02*
Y2032D01*
X944Y2018D01*
G01X870Y2090D02*
Y2023D01*
X865Y2018D01*
G01X810Y3140D02*
X820D01*
X835Y3125D01*
G01X1320Y1660D02*
X1318Y1658D01*
Y1621D01*
G01X1260Y1660D02*
Y1679D01*
X1239Y1699D01*
G01X1260Y1660D02*
Y1639D01*
X1279Y1621D01*
G01X1200Y1630D02*
X1171Y1659D01*
X1160D01*
G01X1200Y1710D02*
X1171D01*
X1161Y1699D01*
G01X1125Y1660D02*
Y1656D01*
X1161Y1621D01*
G01X1125Y1660D02*
X1121Y1664D01*
Y1699D01*
G01X1200Y1570D02*
X1228D01*
X1239Y1581D01*
G01X1540Y1230D02*
X1569D01*
G01X3550Y3320D02*
Y3360D01*
G01Y3260D02*
Y3230D01*
G01X4100Y950D02*
X4130D01*
G01X4365Y1020D02*
X4335D01*
G01X4425D02*
X4455D01*
X1003Y1306D03*
X1043Y1384D03*
X964D03*
X1043Y1345D03*
X1003Y1384D03*
X964Y1306D03*
X1003Y1345D03*
X964D03*
X885D03*
X846Y1306D03*
X845Y1404D03*
X924Y1306D03*
X1043D03*
X964Y1581D03*
X1043Y1463D03*
X964D03*
X1003Y1424D03*
X964D03*
X1043D03*
X1003Y1699D03*
X964D03*
X1003Y1542D03*
X964Y1621D03*
X1043Y1581D03*
X1008Y1640D03*
X1082Y1699D03*
Y1621D03*
X964Y1503D03*
X1043D03*
X1082Y1502D03*
X964Y1542D03*
X1003Y1503D03*
X1043Y1542D03*
X1003Y1581D03*
Y1463D03*
X1040Y1855D03*
X1041Y1740D03*
X1083D03*
X964Y1739D03*
X1003Y1779D03*
X1043Y1818D03*
X964Y1817D03*
X964Y1896D03*
X925Y1975D03*
X845Y1916D03*
X964Y1857D03*
X865Y2018D03*
X944D03*
X1397Y1699D03*
X1318Y1542D03*
X1397D03*
Y1581D03*
X1357D03*
X1397Y1621D03*
X1357Y1542D03*
X1121Y1699D03*
X1239D03*
X1161Y1621D03*
X1279D03*
X1239Y1581D03*
X1279Y1699D03*
X1160Y1659D03*
X1161Y1699D03*
Y1542D03*
X1239D03*
X1318Y1621D03*
X1121Y1896D03*
X1397Y1857D03*
X1318Y1778D03*
X1357Y1817D03*
X1121Y1857D03*
X1161Y1896D03*
Y1857D03*
X1239D03*
Y1896D03*
X1279Y1857D03*
X1357Y1739D03*
Y1778D03*
X1397D03*
Y1817D03*
Y1896D03*
X1357D03*
Y1857D03*
X1318Y1896D03*
X1279D03*
X1318Y1857D03*
X1397Y1739D03*
X1121Y1778D03*
X1161D03*
X1239D03*
X1515Y1345D03*
X1554Y1345D03*
X1555Y1404D03*
X1475Y1345D03*
X1436Y1699D03*
Y1621D03*
Y1503D03*
Y1542D03*
Y1581D03*
Y1896D03*
Y1778D03*
Y1817D03*
Y1739D03*
X1555Y1995D03*
Y1916D03*
X1456Y2015D03*
G54D31*
X4083Y1085D03*
Y1915D03*
G54D41*
G01X59Y1104D02*
X112D01*
G01X58Y1045D02*
X112D01*
G01X59Y986D02*
X112D01*
G01X58Y927D02*
X112D01*
G01X58Y1222D02*
G01X58Y1400D02*
X112D01*
G01X58Y1341D02*
X112D01*
G01X58Y1282D02*
X112D01*
G01X58Y1222D02*
X112D01*
G01X59Y1163D02*
X112D01*
G01X59Y1459D02*
X112D01*
G01X58Y1951D02*
X112D01*
G01X57Y1892D02*
X112D01*
G01X55Y1833D02*
X112D01*
G01X56Y1774D02*
X112D01*
G01X58Y1715D02*
X112D01*
G01X59Y2246D02*
X112D01*
G01X58Y2187D02*
X112D01*
G01X58Y2128D02*
X112D01*
G01X59Y2069D02*
X112D01*
G01X58Y2010D02*
X112D01*
G01X338Y927D02*
X275D01*
G01X338Y1045D02*
X285D01*
X275Y1055D01*
Y1075D01*
G54D32*
X3835Y3570D03*
X4500Y3420D03*
G54D14*
X145Y849D03*
Y3151D03*
X330Y816D03*
Y3184D03*
G54D23*
X881Y2289D03*
X960D03*
X881Y2210D03*
Y2525D03*
X960D03*
X881Y2446D03*
X960D03*
X881Y2367D03*
X960D03*
G54D42*
G01X3902Y2584D02*
X3604D01*
X3560Y2540D01*
G01D02*
Y2520D01*
G01X3534Y2538D02*
X3558D01*
X3560Y2540D01*
G01X3958Y2528D02*
X3902Y2584D01*
G01X3958Y2420D02*
Y2528D01*
G54D33*
X4214Y733D03*
Y807D03*
X4296Y770D03*
X4214Y873D03*
Y947D03*
X4296Y910D03*
G54D24*
X960Y2210D03*
G54D15*
X225Y895D03*
Y1530D03*
Y1683D03*
Y2317D03*
Y2470D03*
Y3105D03*
G54D43*
G01X338Y1104D02*
X286D01*
X275Y1093D01*
Y1075D01*
G01X338Y986D02*
X275D01*
G01X338Y1341D02*
X286D01*
X275Y1330D01*
Y1310D01*
G01X338Y1400D02*
X285D01*
X275Y1410D01*
Y1430D01*
G01X338Y1282D02*
X288D01*
X275Y1295D01*
Y1310D01*
G01X338Y1222D02*
X287D01*
X275Y1210D01*
Y1195D01*
G01X338Y1163D02*
X287D01*
X275Y1175D01*
Y1195D01*
G01X500Y1660D02*
X470D01*
G01X338Y1459D02*
X289D01*
X275Y1445D01*
Y1430D01*
G01X338Y1774D02*
X284D01*
X275Y1765D01*
Y1745D01*
G01X338Y1892D02*
X287D01*
X275Y1880D01*
Y1865D01*
G01X338Y2010D02*
X285D01*
X275Y2000D01*
Y1980D01*
G01X338Y1951D02*
X285D01*
X275Y1961D01*
Y1980D01*
G01X338Y1833D02*
X287D01*
X275Y1845D01*
Y1865D01*
G01X338Y1715D02*
X285D01*
X275Y1725D01*
Y1745D01*
G01X338Y2128D02*
X285D01*
X275Y2118D01*
Y2100D01*
G01X338Y2069D02*
X286D01*
X275Y2080D01*
Y2100D01*
G01X338Y2187D02*
X288D01*
X275Y2200D01*
Y2215D01*
G01X338Y2246D02*
X286D01*
X275Y2235D01*
Y2215D01*
G01X590Y1660D02*
X560D01*
G01X514Y2740D02*
Y2908D01*
X598Y2992D01*
X834D01*
X1090Y3248D01*
Y3770D01*
X1015Y3845D01*
G01X830Y2730D02*
X820Y2740D01*
X794D01*
G01X760Y2670D02*
Y2634D01*
G01X794Y2740D02*
X770D01*
X760Y2730D01*
G01X794Y3048D02*
Y3064D01*
X810Y3080D01*
G01X1015Y3625D02*
Y3211D01*
X822Y3018D01*
X582D01*
X514Y2950D01*
G01X720Y3083D02*
X734Y3069D01*
Y3044D01*
G01X830Y2670D02*
X860D01*
G01X1980Y2918D02*
X1908D01*
X1870Y2880D01*
G01Y2810D02*
Y2740D01*
G01Y2810D02*
X1895D01*
X1905Y2820D01*
G01X1810Y2670D02*
Y2740D01*
G01X1840Y2775D02*
X1810Y2745D01*
Y2740D01*
G01Y2880D02*
Y2950D01*
G01Y2810D02*
X1770D01*
G01X1870Y2670D02*
X1905D01*
G01X1945Y3020D02*
X1910D01*
G01X2080D02*
X2050D01*
G01X2726Y238D02*
X2720Y232D01*
Y170D01*
G01X2754Y238D02*
X2790Y202D01*
Y170D01*
G01Y110D02*
Y70D01*
G01X2720Y110D02*
Y70D01*
G01X2680Y3010D02*
Y2970D01*
G01X2790D02*
Y2990D01*
X2810Y3010D01*
G01X2740D02*
Y3122D01*
G01X3620Y2520D02*
X3646D01*
G01X3750D02*
X3724D01*
G01X3620Y2340D02*
X3644D01*
X3645Y2341D01*
G01X3690Y2520D02*
X3666Y2544D01*
G01X3534Y2322D02*
X3552Y2340D01*
X3560D01*
G01X4296Y770D02*
Y738D01*
X4365Y670D01*
G01Y740D02*
Y810D01*
G01X4170Y733D02*
X4214D01*
G01X4365Y740D02*
X4335D01*
G01X4296Y910D02*
X4319D01*
X4359Y950D01*
X4365D01*
G01Y880D02*
Y810D01*
G01X4170Y807D02*
X4214D01*
G01X4165Y873D02*
X4214D01*
G01Y947D02*
Y972D01*
G01X4365Y880D02*
X4335D01*
G01X4365Y810D02*
X4335D01*
G01X4425Y670D02*
Y740D01*
G01X4680Y695D02*
X4655Y670D01*
X4425D01*
G01X4582Y776D02*
X4529D01*
X4425Y880D01*
G01D02*
Y950D01*
G01Y810D02*
X4455D01*
G54D16*
X225Y1088D03*
Y1337D03*
Y1875D03*
Y2125D03*
Y2663D03*
Y2912D03*
G54D25*
X1610Y3670D03*
X2060D03*
G54D34*
X4335Y2305D03*
Y2605D03*
Y2505D03*
Y2405D03*
X4435Y2555D03*
Y2455D03*
Y2355D03*
G54D44*
G01X1981Y2955D02*
X1976Y2950D01*
X1950D01*
G54D26*
X1835Y3670D03*
G54D17*
X500Y1660D03*
X560D03*
X760Y2730D03*
Y2670D03*
X810Y3080D03*
Y3140D03*
X870Y1230D03*
X930D03*
X1065Y1660D03*
X930Y2090D03*
X870D03*
X830Y2730D03*
Y2670D03*
X1200Y1710D03*
X1320Y1660D03*
X1260D03*
X1125D03*
X1200Y1630D03*
Y1570D03*
Y1770D03*
X1480Y1230D03*
X1540D03*
X1620Y1375D03*
X1680D03*
X1620Y1310D03*
X1680D03*
Y2015D03*
X1620D03*
X1680Y1950D03*
X1620D03*
X1675Y2950D03*
X1810Y2880D03*
X1870D03*
X1810Y2810D03*
X1870D03*
X1810Y2740D03*
X1870D03*
Y2670D03*
X1810D03*
X1870Y3090D03*
X1810D03*
X1735Y2950D03*
X1870Y3160D03*
X1810D03*
X1870Y3020D03*
X1810D03*
X2005D03*
X1945D03*
X1870Y2950D03*
X1810D03*
X2140Y3020D03*
X2080D03*
X2720Y110D03*
Y170D03*
X2790Y110D03*
Y170D03*
X2870Y2760D03*
X2810D03*
X2680Y3010D03*
X2740D03*
X2810D03*
X2870D03*
X3140Y3260D03*
Y3320D03*
X3820Y2520D03*
Y2450D03*
X3560Y2340D03*
X3620D03*
X3560Y2520D03*
X3620D03*
X3750D03*
X3690D03*
X3550Y3260D03*
Y3320D03*
X4040Y950D03*
X4100D03*
X4040Y2060D03*
X4100D03*
X3880Y2520D03*
Y2450D03*
X4365Y740D03*
Y670D03*
Y810D03*
Y880D03*
Y950D03*
Y1020D03*
X4425Y740D03*
Y670D03*
Y810D03*
Y880D03*
Y950D03*
Y1020D03*
G54D35*
X4685Y2205D03*
Y2655D03*
G54D45*
G01X4385Y370D02*
X4418Y337D01*
G01X4352Y403D02*
X4385Y370D01*
G01D02*
X4418Y403D01*
G01X4352Y337D02*
X4385Y370D01*
G01Y470D02*
X4418Y437D01*
G01X4352Y503D02*
X4385Y470D01*
G01D02*
X4418Y503D01*
G01X4352Y437D02*
X4385Y470D01*
G54D36*
X4565Y2120D03*
Y2740D03*
G54D18*
X508Y3160D03*
Y3230D03*
X777Y3197D03*
X634Y3160D03*
X636Y3230D03*
X860Y220D03*
X1400Y3210D03*
Y3110D03*
Y3010D03*
X1660Y1245D03*
X1595Y2950D03*
Y3010D03*
X1645Y3000D03*
X1695Y3314D03*
X1645D03*
X1844Y360D03*
X1725Y1995D03*
X1769Y2880D03*
X1840Y2625D03*
X1870Y3190D03*
X1913Y3225D03*
X1745Y3314D03*
X1795D03*
X2170Y3020D03*
X2900Y3010D03*
X3156Y360D03*
X3223Y2710D03*
X3070Y2960D03*
Y3120D03*
X3140Y3220D03*
X3160Y3080D03*
Y3010D03*
X3140Y3360D03*
X3325Y825D03*
X3363Y2046D03*
X3477D03*
X3337Y2710D03*
X3460Y2990D03*
X3740Y2780D03*
X3660Y2870D03*
X4040Y910D03*
X3990Y2060D03*
X3940Y2780D03*
X4100Y2842D03*
X3970D03*
X4040D03*
X3910D03*
X4130Y995D03*
Y2000D03*
Y2060D03*
X4142Y2573D03*
X4302Y2850D03*
X4200Y2640D03*
X4795Y995D03*
Y2065D03*
G54D27*
X1835Y3890D03*
G54D46*
G01X720Y3197D02*
X777D01*
G01X1480Y1230D02*
Y1215D01*
X1530Y1165D01*
X2540D01*
X2640Y1265D01*
G01X1680Y1310D02*
Y1265D01*
X1660Y1245D01*
G01X1680Y1375D02*
Y1310D01*
G01X1480Y1230D02*
X1451D01*
G01X1620Y1375D02*
X1591Y1404D01*
X1555D01*
G01X1620Y1310D02*
Y1375D01*
G01Y1991D02*
Y1950D01*
G01Y1991D02*
Y2015D01*
G01X1680Y1990D02*
X1685Y1995D01*
X1725D01*
G01X1680Y1950D02*
Y1990D01*
G01X1555Y1995D02*
X1616D01*
X1620Y1991D01*
G01X1680Y1990D02*
Y2015D01*
G01X1675Y2950D02*
X1595D01*
G01X1810Y3160D02*
X1745D01*
X1595Y3010D01*
G01X1810Y3090D02*
X1735D01*
X1645Y3000D01*
G01X1735Y2950D02*
Y2914D01*
X1769Y2880D01*
G01X1950Y2950D02*
X1870D01*
G01Y3160D02*
Y3190D01*
G01Y3090D02*
Y3160D01*
G01Y3020D02*
Y3090D01*
G01Y3020D02*
Y2950D01*
G01X2140Y3020D02*
X2170D01*
G01X2640Y1265D02*
Y1270D01*
G01X2645D02*
X2765Y1390D01*
G01X2640Y1270D02*
X2645D01*
G01X2765Y1390D02*
Y1517D01*
G01D02*
Y1734D01*
G01X2810Y2760D02*
X2900Y2850D01*
Y3010D01*
G01X2870D02*
X2900D01*
G01X3325Y825D02*
X3520D01*
X3535Y810D01*
G01X4040Y910D02*
Y950D01*
G01X4100Y2060D02*
X4130D01*
G01X4040D02*
X3990D01*
G54D28*
X2258Y3565D03*
X3242D03*
X3559Y3627D03*
X4543D03*
G54D37*
X4435Y2255D03*
G54D19*
X515Y3475D03*
Y3695D03*
Y3935D03*
X595Y3625D03*
Y3845D03*
X935Y3475D03*
Y3695D03*
X1015Y3625D03*
Y3845D03*
X935Y3935D03*
X1355Y3475D03*
Y3695D03*
X1435Y3625D03*
Y3845D03*
X1355Y3935D03*
G54D47*
G01X112Y2499D02*
Y2522D01*
G01Y2600D02*
X70D01*
X50Y2580D01*
Y2430D01*
X127Y2353D01*
X155D01*
G01X338Y967D02*
X452Y967D01*
X765Y1279D01*
X976D01*
X1003Y1306D01*
G01X338Y1085D02*
X455D01*
X731Y1360D01*
X1028D01*
X1043Y1345D01*
G01X338Y1006D02*
X456D01*
X739Y1289D01*
X947D01*
X964Y1306D01*
G01X338Y1026D02*
X456D01*
X752Y1321D01*
X979D01*
X988Y1330D01*
X1003Y1345D01*
G01X338Y1065D02*
X456D01*
X720Y1329D01*
X948D01*
X964Y1345D01*
G01X338Y947D02*
X453D01*
X777Y1271D01*
X1008D01*
X1043Y1306D01*
G01X338Y1301D02*
X452D01*
X599Y1448D01*
X1027D01*
X1043Y1463D01*
G01X338Y1321D02*
X452D01*
X594Y1463D01*
X964D01*
G01X338Y1124D02*
X455D01*
X700Y1369D01*
X1027D01*
X1043Y1384D01*
G01X338Y1144D02*
X456D01*
X691Y1379D01*
X958D01*
X964Y1384D01*
G01X338Y1203D02*
X453D01*
X671Y1420D01*
X855D01*
X867Y1408D01*
X987D01*
X1003Y1424D01*
G01X338Y1183D02*
X454D01*
X659Y1388D01*
X855D01*
X867Y1400D01*
X988D01*
X1003Y1384D01*
G01X338Y1242D02*
X453D01*
X640Y1429D01*
X959D01*
X964Y1424D01*
G01X338Y1262D02*
X453D01*
X629Y1439D01*
X1028D01*
X1043Y1424D01*
G01X338Y1380D02*
X456D01*
X563Y1487D01*
X988D01*
X1003Y1503D01*
G01X338Y1360D02*
X456D01*
X575Y1479D01*
X987D01*
X1003Y1463D01*
G01X338Y1419D02*
X455D01*
X538Y1503D01*
X964D01*
G01X338Y1439D02*
X455D01*
X535Y1519D01*
X1026D01*
X1043Y1503D01*
G01X338Y1478D02*
X454D01*
X503Y1527D01*
X1057D01*
X1082Y1502D01*
G01X338Y1498D02*
X454D01*
X498Y1542D01*
X964D01*
G01X338Y1793D02*
X524D01*
X736Y1581D01*
X964D01*
G01X338Y1931D02*
X489D01*
X738Y1682D01*
X986D01*
X1003Y1699D01*
G01X338Y1970D02*
X475D01*
X746Y1699D01*
X964D01*
G01X338Y1990D02*
X470D01*
X745Y1715D01*
X984D01*
X1009Y1740D01*
X1041D01*
G01X338Y2030D02*
X459D01*
X765Y1723D01*
X981D01*
X1013Y1755D01*
X1068D01*
X1083Y1740D01*
G01X338Y1734D02*
X544D01*
X722Y1557D01*
X988D01*
X1003Y1542D01*
G01X338Y1872D02*
X508D01*
X759Y1621D01*
X964D01*
G01X338Y1852D02*
X508D01*
X755Y1606D01*
X1018D01*
X1043Y1581D01*
G01X338Y1911D02*
X492D01*
X763Y1640D01*
X1008D01*
G01X338Y1813D02*
X522D01*
X739Y1596D01*
X1014D01*
X1023Y1587D01*
Y1561D01*
X1043Y1542D01*
G01X338Y1754D02*
X541D01*
X730Y1565D01*
X987D01*
X1003Y1581D01*
G01X255Y2154D02*
Y2255D01*
X285Y2285D01*
X338D01*
G01X428Y2235D02*
X398Y2266D01*
X338D01*
G01X445Y2216D02*
X401D01*
X390Y2226D01*
X338D01*
G01Y2167D02*
X437D01*
X769Y1835D01*
X966D01*
X986Y1855D01*
X1040D01*
G01X465Y2196D02*
X399D01*
X388Y2207D01*
X338D01*
G01Y2049D02*
X456D01*
X766Y1739D01*
X964D01*
G01X338Y2089D02*
X448D01*
X782Y1754D01*
X978D01*
X1003Y1779D01*
G01X338Y2108D02*
X448D01*
X778Y1778D01*
X963D01*
X1003Y1818D01*
X1043D01*
G01X964Y1817D02*
X768D01*
X437Y2148D01*
X338D01*
G01X338Y2522D02*
Y2367D01*
X809Y1896D01*
X964D01*
G01X338Y2600D02*
X285D01*
X270Y2585D01*
Y2420D01*
X833Y1857D01*
X964D01*
G01X1625Y1452D02*
X1208D01*
X1029Y1631D01*
Y1673D01*
X1003Y1699D01*
G01X964D02*
X980D01*
X1005Y1724D01*
X1021D01*
X1038Y1707D01*
Y1637D01*
X1211Y1464D01*
X1625D01*
G01X1041Y1740D02*
X1061Y1720D01*
X1088D01*
X1098Y1710D01*
Y1694D01*
X1090Y1686D01*
Y1637D01*
X1251Y1476D01*
X1625D01*
G01X1083Y1740D02*
X1106Y1717D01*
Y1691D01*
X1098Y1683D01*
Y1642D01*
X1143Y1597D01*
X1248D01*
X1273Y1572D01*
Y1557D01*
X1342Y1488D01*
X1430D01*
X1442Y1488D01*
X1443Y1488D01*
X1625D01*
G01X964Y1621D02*
X1024D01*
X1205Y1440D01*
X1625D01*
G01Y1428D02*
X1196D01*
X1043Y1581D01*
G01X1397Y1857D02*
X1380Y1840D01*
X1117D01*
X1100Y1857D01*
Y1875D01*
G01X1436Y1896D02*
Y1856D01*
X1416Y1836D01*
X1390D01*
X1380Y1826D01*
Y1810D01*
X1370Y1800D01*
X1335D01*
X1312Y1823D01*
X1108D01*
X1070Y1861D01*
Y1875D01*
G01X1318Y1778D02*
X1281Y1815D01*
X1104D01*
X1055Y1864D01*
Y1875D01*
G01X1357Y1817D02*
X1344Y1831D01*
X1111D01*
X1085Y1857D01*
Y1875D01*
G01X964Y1739D02*
X985D01*
X1013Y1767D01*
X1078D01*
X1140Y1705D01*
Y1694D01*
X1156Y1678D01*
X1202D01*
X1230Y1650D01*
Y1631D01*
X1255Y1606D01*
X1256Y1605D01*
X1340D01*
X1372Y1638D01*
X1625D01*
G01X1003Y1779D02*
X1081D01*
X1125Y1735D01*
X1305D01*
X1390Y1650D01*
X1625D01*
G01X1043Y1818D02*
X1056D01*
X1130Y1744D01*
X1310D01*
X1391Y1664D01*
X1625D01*
G01Y1681D02*
X1389D01*
X1263Y1807D01*
X1101D01*
X1072Y1836D01*
X983D01*
X964Y1817D01*
G01X1625Y1714D02*
X1528D01*
X1412Y1714D01*
X1397Y1699D01*
G01X1625Y1514D02*
X1600D01*
X1596Y1518D01*
X1342D01*
X1318Y1542D01*
G01X1625Y1528D02*
X1596D01*
X1595Y1527D01*
X1412D01*
X1397Y1542D01*
G01X1625Y1598D02*
X1597D01*
X1596Y1596D01*
X1412D01*
X1397Y1581D01*
G01X1625Y1570D02*
X1600D01*
X1596Y1566D01*
X1373D01*
X1357Y1581D01*
G01X1625Y1612D02*
X1600D01*
X1592Y1604D01*
X1413D01*
X1397Y1621D01*
G01X1625Y1556D02*
X1600D01*
X1599Y1557D01*
X1372D01*
X1357Y1542D01*
G01X1121Y1896D02*
X1150Y1925D01*
X1165D01*
X1290Y2050D01*
G01X1310Y2048D02*
X1176Y1915D01*
X1153D01*
X1140Y1902D01*
Y1876D01*
X1121Y1857D01*
G01X1328Y2047D02*
X1177Y1896D01*
X1161D01*
G01X1345Y2044D02*
X1161Y1860D01*
Y1857D01*
G01X1365Y2045D02*
X1220Y1900D01*
Y1876D01*
X1239Y1857D01*
G01X1382Y2042D02*
X1239Y1900D01*
Y1896D01*
G01X1402Y2043D02*
X1260Y1902D01*
Y1876D01*
X1279Y1857D01*
G01X1625Y1756D02*
X1532D01*
X1530Y1754D01*
X1373D01*
X1357Y1739D01*
G01X1625Y1770D02*
X1528D01*
X1520Y1762D01*
X1374D01*
X1357Y1778D01*
G01X1625Y1798D02*
X1524D01*
X1519Y1793D01*
X1412D01*
X1397Y1778D01*
G01X1625Y1812D02*
X1524D01*
X1514Y1802D01*
X1412D01*
X1397Y1817D01*
G01X1625Y1840D02*
X1525D01*
X1450Y1915D01*
X1416D01*
X1397Y1896D01*
G01X1625Y1854D02*
X1526D01*
X1455Y1925D01*
X1386D01*
X1357Y1896D01*
G01X1625Y1868D02*
X1527D01*
X1460Y1935D01*
X1367D01*
X1338Y1906D01*
Y1876D01*
X1357Y1857D01*
G01X1625Y1882D02*
X1528D01*
X1465Y1945D01*
X1360D01*
X1318Y1903D01*
Y1896D01*
G01X1625Y1910D02*
X1590D01*
X1535Y1965D01*
X1342D01*
X1279Y1901D01*
Y1896D01*
G01X1625Y1896D02*
X1529D01*
X1470Y1955D01*
X1352D01*
X1300Y1903D01*
Y1875D01*
X1318Y1857D01*
G01X1625Y1728D02*
X1536D01*
X1530Y1722D01*
X1413D01*
X1397Y1739D01*
G01X1625Y1700D02*
X1544D01*
X1543Y1699D01*
X1436D01*
G01X1625Y1626D02*
X1598D01*
X1593Y1621D01*
X1436D01*
G01X1625Y1500D02*
X1439D01*
X1436Y1503D01*
G01X1625Y1542D02*
X1436D01*
G01X1625Y1584D02*
X1598D01*
X1595Y1581D01*
X1436D01*
G01X1625Y1784D02*
X1526D01*
X1520Y1778D01*
X1436D01*
G01X1625Y1826D02*
X1520D01*
X1511Y1817D01*
X1436D01*
G01X1625Y1742D02*
X1532D01*
X1529Y1739D01*
X1436D01*
G54D29*
X2580Y3465D03*
G54D38*
X4801Y369D03*
Y919D03*
G54D48*
G01X112Y1006D02*
X177D01*
X180Y1003D01*
G01X112Y1026D02*
X177D01*
X180Y1028D01*
G01X112Y1065D02*
X180D01*
G01Y1090D02*
X175Y1085D01*
X112D01*
G01X112Y967D02*
X174D01*
X180Y972D01*
G01X182Y947D02*
X112D01*
G01X182Y1325D02*
X178Y1321D01*
X114D01*
X112Y1321D01*
G01Y1360D02*
X177D01*
X182Y1355D01*
G01X112Y1262D02*
X174D01*
X180Y1268D01*
G01X112Y1144D02*
X177D01*
X180Y1146D01*
G01Y1180D02*
X177Y1183D01*
X112D01*
G01X180Y1208D02*
X175Y1203D01*
X120D01*
X112Y1203D01*
G01Y1242D02*
X175D01*
X180Y1238D01*
G01X112Y1124D02*
X176D01*
X180Y1120D01*
G01X182Y1298D02*
X179Y1301D01*
X112D01*
G01Y1380D02*
X180D01*
X182Y1383D01*
G01Y1505D02*
X176Y1498D01*
X112D01*
G01Y1478D02*
X179D01*
X182Y1475D01*
G01Y1443D02*
X179Y1439D01*
X112D01*
G01X112Y1419D02*
X178D01*
X182Y1415D01*
G01X112Y1813D02*
X180D01*
X182Y1816D01*
G01X112Y1852D02*
X182D01*
G01Y1878D02*
X177Y1872D01*
X112D01*
G01Y1911D02*
X176D01*
X182Y1905D01*
G01X112Y1931D02*
X176D01*
X182Y1938D01*
G01Y1968D02*
X180Y1970D01*
X112D01*
G01X182Y1995D02*
X178Y1990D01*
X112D01*
G01X112Y1734D02*
X182D01*
G01Y1761D02*
X175Y1754D01*
X112D01*
G01X182Y2238D02*
X171Y2226D01*
X112D01*
G01X182Y2210D02*
X179Y2207D01*
X112D01*
G01Y2266D02*
X182D01*
G01X112Y2285D02*
X175D01*
X182Y2292D01*
G01Y2182D02*
X167Y2167D01*
X112D01*
G01Y2030D02*
X175D01*
X182Y2022D01*
G01X112Y2049D02*
X182D01*
G01Y2138D02*
X172Y2148D01*
X112D01*
G01X182Y2075D02*
X169Y2089D01*
X112D01*
G01X182Y2108D02*
X116D01*
X112Y2108D01*
G01Y2581D02*
X170D01*
G01X103D02*
X112D01*
G01Y2541D02*
X170D01*
G01X103D02*
X112D01*
G01X485Y-432D02*
G03I-20J-47D01*
G01X338Y2581D02*
X389D01*
X414Y2605D01*
G01X338Y2541D02*
X386D01*
X415Y2570D01*
G01X570Y610D02*
X599Y581D01*
G01X541Y639D02*
X570Y610D01*
G01D02*
X599Y639D01*
G01X541Y581D02*
X570Y610D01*
G01X4296Y770D02*
Y814D01*
X4255Y855D01*
Y1460D01*
X3885Y1830D01*
X3215D01*
X2976Y2068D01*
X2266D01*
X1718Y2616D01*
X848D01*
X785Y2553D01*
Y2315D01*
X765Y2295D01*
G01X745Y2235D02*
X760D01*
X815Y2290D01*
Y2545D01*
X858Y2588D01*
X1707D01*
X2254Y2041D01*
X2964D01*
X3255Y1750D01*
X3829D01*
X3869Y1710D01*
G01X3870Y1805D02*
X3830Y1765D01*
X3259D01*
X2970Y2054D01*
X2260D01*
X1712Y2602D01*
X854D01*
X800Y2548D01*
Y2300D01*
X755Y2255D01*
X725D01*
G01X3870Y1215D02*
X3350Y1735D01*
X3250D01*
X2958Y2026D01*
X2248D01*
X1701Y2574D01*
X864D01*
X830Y2540D01*
Y2281D01*
X765Y2216D01*
G01X2766Y394D02*
X3200Y828D01*
Y1765D01*
X2952Y2013D01*
X2242D01*
X1695Y2560D01*
X870D01*
X845Y2535D01*
Y2256D01*
X785Y2196D01*
G01X745Y2275D02*
Y2554D01*
X835Y2644D01*
X1730D01*
X2277Y2097D01*
X2985D01*
X3578Y2690D01*
X3750D01*
G01X4365Y950D02*
X4270Y1045D01*
Y1466D01*
X3891Y1845D01*
X3220D01*
X2982Y2082D01*
X2272D01*
X1724Y2630D01*
X842D01*
X765Y2553D01*
Y2330D01*
G01X650Y2670D02*
X695D01*
X725Y2700D01*
X885D01*
X927Y2658D01*
X1737D01*
X1820Y2575D01*
X1934D01*
X2004Y2645D01*
G01X2040Y2666D02*
X1996D01*
X1920Y2590D01*
X1825D01*
X1743Y2672D01*
X938D01*
X850Y2760D01*
X728D01*
X682Y2714D01*
G01X2190Y1440D02*
X2172Y1422D01*
X2113D01*
X2083Y1452D01*
X1625D01*
G01Y1464D02*
X2091D01*
X2115Y1440D01*
X2155D01*
G01X1625Y1476D02*
X2099D01*
X2115Y1460D01*
X2145D01*
X2165Y1480D01*
G01X1625Y1488D02*
X2127D01*
X2135Y1480D01*
G01X1625Y1440D02*
X2075D01*
X2107Y1408D01*
X2202D01*
X2215Y1395D01*
G01X2175Y1390D02*
X2105D01*
X2067Y1428D01*
X1625D01*
G01X1100Y1875D02*
Y2227D01*
X960Y2367D01*
G01X1070Y1875D02*
Y2100D01*
X960Y2210D01*
G01X1055Y1875D02*
Y2040D01*
X920Y2175D01*
Y2485D01*
X960Y2525D01*
G01X1085Y1875D02*
Y2164D01*
X960Y2289D01*
G01X1625Y1638D02*
X1938D01*
X1975Y1675D01*
G01X1625Y1650D02*
X1916D01*
X1945Y1679D01*
G01X1625Y1664D02*
X1899D01*
X1915Y1680D01*
G01X1885Y1681D02*
X1625D01*
G01X1338Y1302D02*
X1548D01*
X1640Y1210D01*
X2425D01*
X2640Y1425D01*
Y1535D01*
G01X1298Y1302D02*
X1315Y1285D01*
X1545D01*
X1635Y1195D01*
X2440D01*
X2635Y1390D01*
G01X2649Y1986D02*
X2377Y1714D01*
X1625D01*
G01X2919Y1986D02*
X2447Y1514D01*
X1625D01*
G01X2892Y1986D02*
X2434Y1528D01*
X1625D01*
G01X2757Y1986D02*
X2369Y1598D01*
X1625D01*
G01X2811Y1986D02*
X2395Y1570D01*
X1625D01*
G01X2730Y1986D02*
X2356Y1612D01*
X1625D01*
G01X2838Y1986D02*
X2408Y1556D01*
X1625D01*
G01X1290Y2050D02*
X1480Y2240D01*
Y2385D01*
G01X2244Y1986D02*
X2110Y2120D01*
X1382D01*
X1310Y2048D01*
G01X2217Y1986D02*
X2097Y2106D01*
X1388D01*
X1328Y2047D01*
G01X2190Y1986D02*
X2084Y2093D01*
X1394D01*
X1345Y2044D01*
G01X2163Y1986D02*
X2070Y2078D01*
X1398D01*
X1365Y2045D01*
G01X2136Y1986D02*
X2058Y2064D01*
X1404D01*
X1382Y2042D01*
G01X2109Y1986D02*
X2045Y2050D01*
X1408D01*
X1402Y2043D01*
G01X2568Y1986D02*
X2338Y1756D01*
X1625D01*
G01X2541Y1986D02*
X2325Y1770D01*
X1625D01*
G01X2487Y1986D02*
X2299Y1798D01*
X1625D01*
G01X2460Y1986D02*
X2286Y1812D01*
X1625D01*
G01X2406Y1986D02*
X2260Y1840D01*
X1625D01*
G01X2379Y1986D02*
X2247Y1854D01*
X1625D01*
G01X2352Y1986D02*
X2234Y1868D01*
X1625D01*
G01X2325Y1986D02*
X2221Y1882D01*
X1625D01*
G01X2271Y1986D02*
X2195Y1910D01*
X1625D01*
G01X2298Y1986D02*
X2208Y1896D01*
X1625D01*
G01X2622Y1986D02*
X2364Y1728D01*
X1625D01*
G01X2676Y1986D02*
X2390Y1700D01*
X1625D01*
G01X2703Y1986D02*
X2343Y1626D01*
X1625D01*
G01X2946Y1986D02*
X2460Y1500D01*
X1625D01*
G01X2865Y1986D02*
X2421Y1542D01*
X1625D01*
G01X2784Y1986D02*
X2382Y1584D01*
X1625D01*
G01X2514Y1986D02*
X2312Y1784D01*
X1625D01*
G01X2433Y1986D02*
X2273Y1826D01*
X1625D01*
G01X2595Y1986D02*
X2351Y1742D01*
X1625D01*
G01X2021Y2954D02*
Y2926D01*
X1955Y2860D01*
Y2665D01*
X1905Y2615D01*
G01X2205Y2945D02*
X2071D01*
X2060Y2956D01*
G01X2255Y2925D02*
X2061D01*
X2040Y2946D01*
Y2975D01*
G01X3293Y537D02*
X2952D01*
X2770Y355D01*
X2746D01*
G01X3545Y1505D02*
X3870Y1180D01*
Y1151D01*
G01X4006Y2444D02*
X4024Y2462D01*
Y2566D01*
X4010Y2580D01*
G01X4878D02*
X4704Y2406D01*
X4406D01*
X4370Y2370D01*
X3960D01*
X3880Y2450D01*
G01X4000Y2470D02*
X3984Y2486D01*
Y2674D01*
X4010Y2700D01*
G01X4818Y2280D02*
X4788Y2310D01*
X4418D01*
X4370Y2358D01*
X3889D01*
X3840Y2407D01*
Y2422D01*
X3850Y2432D01*
Y2490D01*
X3880Y2520D01*
G54D39*
X4830Y644D03*
G54D49*
G01X20Y-635D02*
Y-735D01*
G01X5Y-635D02*
X35D01*
G01X55Y-690D02*
X76D01*
X74Y-678D01*
X71Y-672D01*
X66Y-668D01*
X62Y-670D01*
X58Y-675D01*
X55Y-687D01*
X54Y-697D01*
Y-707D01*
X55Y-717D01*
X58Y-727D01*
X62Y-733D01*
X67Y-735D01*
X72Y-732D01*
X76Y-722D01*
G01X101Y-735D02*
Y-668D01*
G01Y-682D02*
X104Y-675D01*
X107Y-670D01*
X112Y-668D01*
X115Y-670D01*
X119Y-675D01*
G01X167Y-735D02*
Y-668D01*
G01Y-680D02*
X164Y-673D01*
X160Y-670D01*
X156Y-668D01*
X151Y-672D01*
X147Y-678D01*
X144Y-688D01*
X143Y-702D01*
X144Y-715D01*
X147Y-725D01*
X151Y-732D01*
X156Y-735D01*
X160Y-733D01*
X164Y-728D01*
X167Y-722D01*
G01X190Y-723D02*
X193Y-730D01*
X198Y-735D01*
X202D01*
X206Y-732D01*
X209Y-727D01*
X210Y-720D01*
X209Y-710D01*
X207Y-705D01*
X195Y-695D01*
X192Y-683D01*
X193Y-675D01*
X196Y-670D01*
X200Y-668D01*
X204Y-670D01*
X208Y-675D01*
G01X245Y-668D02*
Y-735D01*
G01Y-642D02*
X244Y-640D01*
Y-637D01*
X245Y-635D01*
X246Y-637D01*
Y-640D01*
X245Y-642D01*
G01X301Y-677D02*
X296Y-670D01*
X292Y-668D01*
X287Y-672D01*
X283Y-678D01*
X280Y-690D01*
X279Y-702D01*
X280Y-713D01*
X283Y-723D01*
X287Y-732D01*
X292Y-735D01*
X297Y-732D01*
X301Y-725D01*
G01X391Y-677D02*
X386Y-670D01*
X382Y-668D01*
X377Y-672D01*
X373Y-678D01*
X370Y-690D01*
X369Y-702D01*
X370Y-713D01*
X373Y-723D01*
X377Y-732D01*
X382Y-735D01*
X387Y-732D01*
X391Y-725D01*
G01X437Y-735D02*
Y-668D01*
G01Y-680D02*
X434Y-673D01*
X430Y-670D01*
X426Y-668D01*
X421Y-672D01*
X417Y-678D01*
X414Y-688D01*
X413Y-702D01*
X414Y-715D01*
X417Y-725D01*
X421Y-732D01*
X426Y-735D01*
X430Y-733D01*
X434Y-728D01*
X437Y-722D01*
G01X459Y-735D02*
Y-668D01*
G01Y-685D02*
X461Y-677D01*
X465Y-670D01*
X471Y-668D01*
X475Y-670D01*
X479Y-677D01*
X481Y-688D01*
Y-735D01*
G01X504D02*
Y-668D01*
G01Y-685D02*
X506Y-677D01*
X510Y-670D01*
X516Y-668D01*
X520Y-670D01*
X524Y-677D01*
X526Y-688D01*
Y-735D01*
G01X560D02*
X556Y-733D01*
X552Y-727D01*
X549Y-715D01*
X548Y-702D01*
X549Y-688D01*
X552Y-677D01*
X556Y-670D01*
X560Y-668D01*
X564Y-670D01*
X568Y-677D01*
X571Y-688D01*
X571Y-702D01*
X571Y-715D01*
X568Y-727D01*
X564Y-733D01*
X560Y-735D01*
G01X605Y-635D02*
Y-735D01*
G01X596Y-668D02*
X614D01*
G01X707Y-735D02*
Y-668D01*
G01Y-680D02*
X704Y-673D01*
X700Y-670D01*
X696Y-668D01*
X691Y-672D01*
X687Y-678D01*
X684Y-688D01*
X683Y-702D01*
X684Y-715D01*
X687Y-725D01*
X691Y-732D01*
X696Y-735D01*
X700Y-733D01*
X704Y-728D01*
X707Y-722D01*
G01X729Y-735D02*
Y-668D01*
G01Y-685D02*
X731Y-677D01*
X735Y-670D01*
X741Y-668D01*
X745Y-670D01*
X749Y-677D01*
X751Y-688D01*
Y-735D01*
G01X797Y-635D02*
Y-735D01*
G01Y-720D02*
X794Y-728D01*
X790Y-733D01*
X786Y-735D01*
X780Y-732D01*
X776Y-723D01*
X774Y-713D01*
X773Y-702D01*
X774Y-690D01*
X776Y-680D01*
X780Y-672D01*
X786Y-668D01*
X790Y-670D01*
X794Y-673D01*
X797Y-680D01*
G01X858Y-668D02*
X866Y-735D01*
X875Y-668D01*
X884Y-735D01*
X892Y-668D01*
G01X920D02*
Y-735D01*
G01Y-642D02*
X919Y-640D01*
Y-637D01*
X920Y-635D01*
X921Y-637D01*
Y-640D01*
X920Y-642D01*
G01X965Y-735D02*
Y-635D01*
G01X1010Y-735D02*
Y-635D01*
G01X1089Y-735D02*
Y-668D01*
G01Y-685D02*
X1091Y-677D01*
X1095Y-670D01*
X1101Y-668D01*
X1105Y-670D01*
X1109Y-677D01*
X1111Y-688D01*
Y-735D01*
G01X1145D02*
X1141Y-733D01*
X1137Y-727D01*
X1134Y-715D01*
X1133Y-702D01*
X1134Y-688D01*
X1137Y-677D01*
X1141Y-670D01*
X1145Y-668D01*
X1149Y-670D01*
X1153Y-677D01*
X1156Y-688D01*
X1156Y-702D01*
X1156Y-715D01*
X1153Y-727D01*
X1149Y-733D01*
X1145Y-735D01*
G01X1190Y-635D02*
Y-735D01*
G01X1181Y-668D02*
X1199D01*
G01X1268Y-735D02*
Y-635D01*
G01Y-685D02*
X1271Y-675D01*
X1275Y-670D01*
X1279Y-668D01*
X1285Y-672D01*
X1289Y-678D01*
X1292Y-690D01*
Y-703D01*
X1291Y-717D01*
X1288Y-727D01*
X1283Y-733D01*
X1279Y-735D01*
X1275Y-733D01*
X1271Y-728D01*
X1268Y-720D01*
G01X1315Y-690D02*
X1336D01*
X1334Y-678D01*
X1331Y-672D01*
X1326Y-668D01*
X1322Y-670D01*
X1318Y-675D01*
X1315Y-687D01*
X1314Y-697D01*
Y-707D01*
X1315Y-717D01*
X1318Y-727D01*
X1322Y-733D01*
X1327Y-735D01*
X1332Y-732D01*
X1336Y-722D01*
G01X1404Y-735D02*
Y-635D01*
G01Y-683D02*
X1407Y-675D01*
X1410Y-670D01*
X1416Y-668D01*
X1420Y-670D01*
X1424Y-677D01*
X1426Y-687D01*
Y-735D01*
G01X1450Y-690D02*
X1471D01*
X1469Y-678D01*
X1466Y-672D01*
X1461Y-668D01*
X1457Y-670D01*
X1453Y-675D01*
X1450Y-687D01*
X1449Y-697D01*
Y-707D01*
X1450Y-717D01*
X1453Y-727D01*
X1457Y-733D01*
X1462Y-735D01*
X1467Y-732D01*
X1471Y-722D01*
G01X1505Y-735D02*
Y-635D01*
G01X1562D02*
Y-735D01*
G01Y-720D02*
X1559Y-728D01*
X1555Y-733D01*
X1551Y-735D01*
X1545Y-732D01*
X1541Y-723D01*
X1539Y-713D01*
X1538Y-702D01*
X1539Y-690D01*
X1541Y-680D01*
X1545Y-672D01*
X1551Y-668D01*
X1555Y-670D01*
X1559Y-673D01*
X1562Y-680D01*
G01X1631Y-735D02*
Y-668D01*
G01Y-682D02*
X1634Y-675D01*
X1637Y-670D01*
X1642Y-668D01*
X1645Y-670D01*
X1649Y-675D01*
G01X1675Y-690D02*
X1696D01*
X1694Y-678D01*
X1691Y-672D01*
X1686Y-668D01*
X1682Y-670D01*
X1678Y-675D01*
X1675Y-687D01*
X1674Y-697D01*
Y-707D01*
X1675Y-717D01*
X1678Y-727D01*
X1682Y-733D01*
X1687Y-735D01*
X1692Y-732D01*
X1696Y-722D01*
G01X1720Y-723D02*
X1723Y-730D01*
X1728Y-735D01*
X1732D01*
X1736Y-732D01*
X1739Y-727D01*
X1740Y-720D01*
X1739Y-710D01*
X1737Y-705D01*
X1725Y-695D01*
X1722Y-683D01*
X1723Y-675D01*
X1726Y-670D01*
X1730Y-668D01*
X1734Y-670D01*
X1738Y-675D01*
G01X1763Y-768D02*
Y-668D01*
G01Y-683D02*
X1766Y-675D01*
X1770Y-670D01*
X1775Y-668D01*
X1780Y-670D01*
X1784Y-678D01*
X1786Y-690D01*
X1787Y-702D01*
X1786Y-713D01*
X1784Y-725D01*
X1780Y-732D01*
X1775Y-735D01*
X1770Y-733D01*
X1766Y-728D01*
X1763Y-722D01*
G01X1820Y-735D02*
X1816Y-733D01*
X1812Y-727D01*
X1809Y-715D01*
X1808Y-702D01*
X1809Y-688D01*
X1812Y-677D01*
X1816Y-670D01*
X1820Y-668D01*
X1824Y-670D01*
X1828Y-677D01*
X1831Y-688D01*
X1831Y-702D01*
X1831Y-715D01*
X1828Y-727D01*
X1824Y-733D01*
X1820Y-735D01*
G01X1854D02*
Y-668D01*
G01Y-685D02*
X1856Y-677D01*
X1860Y-670D01*
X1866Y-668D01*
X1870Y-670D01*
X1874Y-677D01*
X1876Y-688D01*
Y-735D01*
G01X1900Y-723D02*
X1903Y-730D01*
X1908Y-735D01*
X1912D01*
X1916Y-732D01*
X1919Y-727D01*
X1920Y-720D01*
X1919Y-710D01*
X1917Y-705D01*
X1905Y-695D01*
X1902Y-683D01*
X1903Y-675D01*
X1906Y-670D01*
X1910Y-668D01*
X1914Y-670D01*
X1918Y-675D01*
G01X1955Y-668D02*
Y-735D01*
G01Y-642D02*
X1954Y-640D01*
Y-637D01*
X1955Y-635D01*
X1956Y-637D01*
Y-640D01*
X1955Y-642D01*
G01X1988Y-735D02*
Y-635D01*
G01Y-685D02*
X1991Y-675D01*
X1995Y-670D01*
X1999Y-668D01*
X2005Y-672D01*
X2009Y-678D01*
X2012Y-690D01*
Y-703D01*
X2011Y-717D01*
X2008Y-727D01*
X2003Y-733D01*
X1999Y-735D01*
X1995Y-733D01*
X1991Y-728D01*
X1988Y-720D01*
G01X2045Y-735D02*
Y-635D01*
G01X2080Y-690D02*
X2101D01*
X2099Y-678D01*
X2096Y-672D01*
X2091Y-668D01*
X2087Y-670D01*
X2083Y-675D01*
X2080Y-687D01*
X2079Y-697D01*
Y-707D01*
X2080Y-717D01*
X2083Y-727D01*
X2087Y-733D01*
X2092Y-735D01*
X2097Y-732D01*
X2101Y-722D01*
G01X2176Y-735D02*
Y-650D01*
X2177Y-642D01*
X2180Y-637D01*
X2184Y-635D01*
X2188Y-638D01*
X2190Y-647D01*
G01X2182Y-675D02*
X2169D01*
G01X2225Y-735D02*
X2221Y-733D01*
X2217Y-727D01*
X2214Y-715D01*
X2213Y-702D01*
X2214Y-688D01*
X2217Y-677D01*
X2221Y-670D01*
X2225Y-668D01*
X2229Y-670D01*
X2233Y-677D01*
X2236Y-688D01*
X2236Y-702D01*
X2236Y-715D01*
X2233Y-727D01*
X2229Y-733D01*
X2225Y-735D01*
G01X2261D02*
Y-668D01*
G01Y-682D02*
X2264Y-675D01*
X2267Y-670D01*
X2272Y-668D01*
X2275Y-670D01*
X2279Y-675D01*
G01X2372Y-735D02*
Y-668D01*
G01Y-680D02*
X2369Y-673D01*
X2365Y-670D01*
X2361Y-668D01*
X2356Y-672D01*
X2352Y-678D01*
X2349Y-688D01*
X2348Y-702D01*
X2349Y-715D01*
X2352Y-725D01*
X2356Y-732D01*
X2361Y-735D01*
X2365Y-733D01*
X2369Y-728D01*
X2372Y-722D01*
G01X2394Y-735D02*
Y-668D01*
G01Y-685D02*
X2396Y-677D01*
X2400Y-670D01*
X2406Y-668D01*
X2410Y-670D01*
X2414Y-677D01*
X2416Y-688D01*
Y-735D01*
G01X2436Y-765D02*
X2440Y-768D01*
X2445Y-765D01*
X2449Y-758D01*
X2451Y-750D01*
X2455Y-723D01*
X2464Y-668D01*
G01X2443D02*
X2455Y-723D01*
G01X2540Y-735D02*
Y-635D01*
G01X2575Y-690D02*
X2596D01*
X2594Y-678D01*
X2591Y-672D01*
X2586Y-668D01*
X2582Y-670D01*
X2578Y-675D01*
X2575Y-687D01*
X2574Y-697D01*
Y-707D01*
X2575Y-717D01*
X2578Y-727D01*
X2582Y-733D01*
X2587Y-735D01*
X2592Y-732D01*
X2596Y-722D01*
G01X2621Y-760D02*
X2625Y-767D01*
X2631Y-768D01*
X2635Y-767D01*
X2639Y-758D01*
X2642Y-747D01*
Y-668D01*
G01Y-682D02*
X2639Y-675D01*
X2635Y-670D01*
X2631Y-668D01*
X2625Y-672D01*
X2622Y-678D01*
X2619Y-690D01*
X2618Y-702D01*
X2619Y-712D01*
X2621Y-723D01*
X2625Y-732D01*
X2631Y-735D01*
X2635Y-733D01*
X2639Y-727D01*
X2642Y-720D01*
G01X2687Y-735D02*
Y-668D01*
G01Y-680D02*
X2684Y-673D01*
X2680Y-670D01*
X2676Y-668D01*
X2671Y-672D01*
X2667Y-678D01*
X2664Y-688D01*
X2663Y-702D01*
X2664Y-715D01*
X2667Y-725D01*
X2671Y-732D01*
X2676Y-735D01*
X2680Y-733D01*
X2684Y-728D01*
X2687Y-722D01*
G01X2720Y-735D02*
Y-635D01*
G01X2821Y-677D02*
X2816Y-670D01*
X2812Y-668D01*
X2807Y-672D01*
X2803Y-678D01*
X2800Y-690D01*
X2799Y-702D01*
X2800Y-713D01*
X2803Y-723D01*
X2807Y-732D01*
X2812Y-735D01*
X2817Y-732D01*
X2821Y-725D01*
G01X2855Y-735D02*
X2851Y-733D01*
X2847Y-727D01*
X2844Y-715D01*
X2843Y-702D01*
X2844Y-688D01*
X2847Y-677D01*
X2851Y-670D01*
X2855Y-668D01*
X2859Y-670D01*
X2863Y-677D01*
X2866Y-688D01*
X2866Y-702D01*
X2866Y-715D01*
X2863Y-727D01*
X2859Y-733D01*
X2855Y-735D01*
G01X2889D02*
Y-668D01*
G01Y-685D02*
X2891Y-677D01*
X2895Y-670D01*
X2901Y-668D01*
X2905Y-670D01*
X2909Y-677D01*
X2911Y-688D01*
Y-735D01*
G01X2935Y-723D02*
X2938Y-730D01*
X2943Y-735D01*
X2947D01*
X2951Y-732D01*
X2954Y-727D01*
X2955Y-720D01*
X2954Y-710D01*
X2952Y-705D01*
X2940Y-695D01*
X2937Y-683D01*
X2938Y-675D01*
X2941Y-670D01*
X2945Y-668D01*
X2949Y-670D01*
X2953Y-675D01*
G01X2980Y-690D02*
X3001D01*
X2999Y-678D01*
X2996Y-672D01*
X2991Y-668D01*
X2987Y-670D01*
X2983Y-675D01*
X2980Y-687D01*
X2979Y-697D01*
Y-707D01*
X2980Y-717D01*
X2983Y-727D01*
X2987Y-733D01*
X2992Y-735D01*
X2997Y-732D01*
X3001Y-722D01*
G01X3047Y-768D02*
Y-668D01*
G01Y-683D02*
X3044Y-675D01*
X3040Y-670D01*
X3035Y-668D01*
X3031Y-670D01*
X3026Y-678D01*
X3024Y-690D01*
X3023Y-702D01*
X3024Y-713D01*
X3026Y-725D01*
X3031Y-733D01*
X3035Y-735D01*
X3040Y-733D01*
X3044Y-728D01*
X3047Y-720D01*
G01X3069Y-668D02*
Y-715D01*
X3071Y-727D01*
X3075Y-733D01*
X3080Y-735D01*
X3085Y-733D01*
X3089Y-727D01*
X3091Y-715D01*
G01Y-735D02*
Y-668D01*
G01X3115Y-690D02*
X3136D01*
X3134Y-678D01*
X3131Y-672D01*
X3126Y-668D01*
X3122Y-670D01*
X3118Y-675D01*
X3115Y-687D01*
X3114Y-697D01*
Y-707D01*
X3115Y-717D01*
X3118Y-727D01*
X3122Y-733D01*
X3127Y-735D01*
X3132Y-732D01*
X3136Y-722D01*
G01X3159Y-735D02*
Y-668D01*
G01Y-685D02*
X3161Y-677D01*
X3165Y-670D01*
X3171Y-668D01*
X3175Y-670D01*
X3179Y-677D01*
X3181Y-688D01*
Y-735D01*
G01X3226Y-677D02*
X3221Y-670D01*
X3217Y-668D01*
X3212Y-672D01*
X3208Y-678D01*
X3205Y-690D01*
X3204Y-702D01*
X3205Y-713D01*
X3208Y-723D01*
X3212Y-732D01*
X3217Y-735D01*
X3222Y-732D01*
X3226Y-725D01*
G01X3250Y-690D02*
X3271D01*
X3269Y-678D01*
X3266Y-672D01*
X3261Y-668D01*
X3257Y-670D01*
X3253Y-675D01*
X3250Y-687D01*
X3249Y-697D01*
Y-707D01*
X3250Y-717D01*
X3253Y-727D01*
X3257Y-733D01*
X3262Y-735D01*
X3267Y-732D01*
X3271Y-722D01*
G01X3295Y-723D02*
X3298Y-730D01*
X3303Y-735D01*
X3307D01*
X3311Y-732D01*
X3314Y-727D01*
X3315Y-720D01*
X3314Y-710D01*
X3312Y-705D01*
X3300Y-695D01*
X3297Y-683D01*
X3298Y-675D01*
X3301Y-670D01*
X3305Y-668D01*
X3309Y-670D01*
X3313Y-675D01*
G01X3395Y-735D02*
X3391Y-733D01*
X3387Y-727D01*
X3384Y-715D01*
X3383Y-702D01*
X3384Y-688D01*
X3387Y-677D01*
X3391Y-670D01*
X3395Y-668D01*
X3399Y-670D01*
X3403Y-677D01*
X3406Y-688D01*
X3406Y-702D01*
X3406Y-715D01*
X3403Y-727D01*
X3399Y-733D01*
X3395Y-735D01*
G01X3436D02*
Y-650D01*
X3437Y-642D01*
X3440Y-637D01*
X3444Y-635D01*
X3448Y-638D01*
X3450Y-647D01*
G01X3442Y-675D02*
X3429D01*
G01X3519Y-668D02*
Y-715D01*
X3521Y-727D01*
X3525Y-733D01*
X3530Y-735D01*
X3535Y-733D01*
X3539Y-727D01*
X3541Y-715D01*
G01Y-735D02*
Y-668D01*
G01X3565Y-723D02*
X3568Y-730D01*
X3573Y-735D01*
X3577D01*
X3581Y-732D01*
X3584Y-727D01*
X3585Y-720D01*
X3584Y-710D01*
X3582Y-705D01*
X3570Y-695D01*
X3567Y-683D01*
X3568Y-675D01*
X3571Y-670D01*
X3575Y-668D01*
X3579Y-670D01*
X3583Y-675D01*
G01X3620Y-668D02*
Y-735D01*
G01Y-642D02*
X3619Y-640D01*
Y-637D01*
X3620Y-635D01*
X3621Y-637D01*
Y-640D01*
X3620Y-642D01*
G01X3654Y-735D02*
Y-668D01*
G01Y-685D02*
X3656Y-677D01*
X3660Y-670D01*
X3666Y-668D01*
X3670Y-670D01*
X3674Y-677D01*
X3676Y-688D01*
Y-735D01*
G01X3701Y-760D02*
X3705Y-767D01*
X3711Y-768D01*
X3715Y-767D01*
X3719Y-758D01*
X3722Y-747D01*
Y-668D01*
G01Y-682D02*
X3719Y-675D01*
X3715Y-670D01*
X3711Y-668D01*
X3705Y-672D01*
X3702Y-678D01*
X3699Y-690D01*
X3698Y-702D01*
X3699Y-712D01*
X3701Y-723D01*
X3705Y-732D01*
X3711Y-735D01*
X3715Y-733D01*
X3719Y-727D01*
X3722Y-720D01*
G01X3800Y-635D02*
Y-735D01*
G01X3791Y-668D02*
X3809D01*
G01X3834Y-735D02*
Y-635D01*
G01Y-683D02*
X3837Y-675D01*
X3840Y-670D01*
X3846Y-668D01*
X3850Y-670D01*
X3854Y-677D01*
X3856Y-687D01*
Y-735D01*
G01X3890Y-668D02*
Y-735D01*
G01Y-642D02*
X3889Y-640D01*
Y-637D01*
X3890Y-635D01*
X3891Y-637D01*
Y-640D01*
X3890Y-642D01*
G01X3925Y-723D02*
X3928Y-730D01*
X3933Y-735D01*
X3937D01*
X3941Y-732D01*
X3944Y-727D01*
X3945Y-720D01*
X3944Y-710D01*
X3942Y-705D01*
X3930Y-695D01*
X3927Y-683D01*
X3928Y-675D01*
X3931Y-670D01*
X3935Y-668D01*
X3939Y-670D01*
X3943Y-675D01*
G01X4037Y-635D02*
Y-735D01*
G01Y-720D02*
X4034Y-728D01*
X4030Y-733D01*
X4026Y-735D01*
X4020Y-732D01*
X4016Y-723D01*
X4014Y-713D01*
X4013Y-702D01*
X4014Y-690D01*
X4016Y-680D01*
X4020Y-672D01*
X4026Y-668D01*
X4030Y-670D01*
X4034Y-673D01*
X4037Y-680D01*
G01X4060Y-690D02*
X4081D01*
X4079Y-678D01*
X4076Y-672D01*
X4071Y-668D01*
X4067Y-670D01*
X4063Y-675D01*
X4060Y-687D01*
X4059Y-697D01*
Y-707D01*
X4060Y-717D01*
X4063Y-727D01*
X4067Y-733D01*
X4072Y-735D01*
X4077Y-732D01*
X4081Y-722D01*
G01X4105Y-723D02*
X4108Y-730D01*
X4113Y-735D01*
X4117D01*
X4121Y-732D01*
X4124Y-727D01*
X4125Y-720D01*
X4124Y-710D01*
X4122Y-705D01*
X4110Y-695D01*
X4107Y-683D01*
X4108Y-675D01*
X4111Y-670D01*
X4115Y-668D01*
X4119Y-670D01*
X4123Y-675D01*
G01X4160Y-668D02*
Y-735D01*
G01Y-642D02*
X4159Y-640D01*
Y-637D01*
X4160Y-635D01*
X4161Y-637D01*
Y-640D01*
X4160Y-642D01*
G01X4196Y-760D02*
X4200Y-767D01*
X4206Y-768D01*
X4210Y-767D01*
X4214Y-758D01*
X4217Y-747D01*
Y-668D01*
G01Y-682D02*
X4214Y-675D01*
X4210Y-670D01*
X4206Y-668D01*
X4200Y-672D01*
X4197Y-678D01*
X4194Y-690D01*
X4193Y-702D01*
X4194Y-712D01*
X4196Y-723D01*
X4200Y-732D01*
X4206Y-735D01*
X4210Y-733D01*
X4214Y-727D01*
X4217Y-720D01*
G01X4239Y-735D02*
Y-668D01*
G01Y-685D02*
X4241Y-677D01*
X4245Y-670D01*
X4251Y-668D01*
X4255Y-670D01*
X4259Y-677D01*
X4261Y-688D01*
Y-735D01*
G01X4336D02*
Y-650D01*
X4337Y-642D01*
X4340Y-637D01*
X4344Y-635D01*
X4348Y-638D01*
X4350Y-647D01*
G01X4342Y-675D02*
X4329D01*
G01X4385Y-668D02*
Y-735D01*
G01Y-642D02*
X4384Y-640D01*
Y-637D01*
X4385Y-635D01*
X4386Y-637D01*
Y-640D01*
X4385Y-642D01*
G01X4430Y-735D02*
Y-635D01*
G01X4465Y-690D02*
X4486D01*
X4484Y-678D01*
X4481Y-672D01*
X4476Y-668D01*
X4472Y-670D01*
X4468Y-675D01*
X4465Y-687D01*
X4464Y-697D01*
Y-707D01*
X4465Y-717D01*
X4468Y-727D01*
X4472Y-733D01*
X4477Y-735D01*
X4482Y-732D01*
X4486Y-722D01*
G01X4565Y-635D02*
Y-735D01*
G01X4556Y-668D02*
X4574D01*
G01X4610Y-735D02*
X4606Y-733D01*
X4602Y-727D01*
X4599Y-715D01*
X4598Y-702D01*
X4599Y-688D01*
X4602Y-677D01*
X4606Y-670D01*
X4610Y-668D01*
X4614Y-670D01*
X4618Y-677D01*
X4621Y-688D01*
X4621Y-702D01*
X4621Y-715D01*
X4618Y-727D01*
X4614Y-733D01*
X4610Y-735D01*
G01X4680D02*
Y-668D01*
G01Y-687D02*
X4682Y-678D01*
X4685Y-672D01*
X4690Y-668D01*
X4695Y-672D01*
X4698Y-678D01*
X4700Y-687D01*
Y-735D01*
G01Y-687D02*
X4702Y-678D01*
X4705Y-672D01*
X4710Y-668D01*
X4715Y-672D01*
X4718Y-678D01*
X4720Y-688D01*
Y-735D01*
G01X4757D02*
Y-668D01*
G01Y-680D02*
X4754Y-673D01*
X4750Y-670D01*
X4746Y-668D01*
X4741Y-672D01*
X4737Y-678D01*
X4734Y-688D01*
X4733Y-702D01*
X4734Y-715D01*
X4737Y-725D01*
X4741Y-732D01*
X4746Y-735D01*
X4750Y-733D01*
X4754Y-728D01*
X4757Y-722D01*
G01X4779Y-735D02*
Y-635D01*
G01X4800Y-668D02*
X4779Y-707D01*
G01X4787Y-692D02*
X4801Y-735D01*
G01X4825Y-690D02*
X4846D01*
X4844Y-678D01*
X4841Y-672D01*
X4836Y-668D01*
X4832Y-670D01*
X4828Y-675D01*
X4825Y-687D01*
X4824Y-697D01*
Y-707D01*
X4825Y-717D01*
X4828Y-727D01*
X4832Y-733D01*
X4837Y-735D01*
X4842Y-732D01*
X4846Y-722D01*
G01X4912Y-735D02*
Y-635D01*
X4928D01*
X4933Y-640D01*
X4937Y-652D01*
X4938Y-665D01*
X4937Y-678D01*
X4934Y-688D01*
X4928Y-693D01*
X4912D01*
G01X4985Y-643D02*
X4981Y-638D01*
X4976Y-635D01*
X4971D01*
X4965Y-640D01*
X4960Y-648D01*
X4957Y-658D01*
X4954Y-675D01*
X4953Y-690D01*
X4955Y-705D01*
X4957Y-715D01*
X4961Y-725D01*
X4965Y-732D01*
X4970Y-735D01*
X4975D01*
X4979Y-732D01*
X4983Y-727D01*
X4987Y-720D01*
G01X5020Y-682D02*
X5023Y-677D01*
X5025Y-668D01*
X5026Y-657D01*
X5025Y-647D01*
X5022Y-640D01*
X5018Y-635D01*
X5000D01*
Y-735D01*
X5022D01*
X5026Y-728D01*
X5029Y-718D01*
X5030Y-707D01*
X5029Y-695D01*
X5025Y-685D01*
X5020Y-682D01*
X5000D01*
G01X5117Y-635D02*
Y-735D01*
G01Y-720D02*
X5114Y-728D01*
X5110Y-733D01*
X5106Y-735D01*
X5100Y-732D01*
X5096Y-723D01*
X5094Y-713D01*
X5093Y-702D01*
X5094Y-690D01*
X5096Y-680D01*
X5100Y-672D01*
X5106Y-668D01*
X5110Y-670D01*
X5114Y-673D01*
X5117Y-680D01*
G01X5150Y-668D02*
Y-735D01*
G01Y-642D02*
X5149Y-640D01*
Y-637D01*
X5150Y-635D01*
X5151Y-637D01*
Y-640D01*
X5150Y-642D01*
G01X5186Y-735D02*
Y-668D01*
G01Y-682D02*
X5189Y-675D01*
X5192Y-670D01*
X5197Y-668D01*
X5200Y-670D01*
X5204Y-675D01*
G01X5230Y-690D02*
X5251D01*
X5249Y-678D01*
X5246Y-672D01*
X5241Y-668D01*
X5237Y-670D01*
X5233Y-675D01*
X5230Y-687D01*
X5229Y-697D01*
Y-707D01*
X5230Y-717D01*
X5233Y-727D01*
X5237Y-733D01*
X5242Y-735D01*
X5247Y-732D01*
X5251Y-722D01*
G01X5296Y-677D02*
X5291Y-670D01*
X5287Y-668D01*
X5282Y-672D01*
X5278Y-678D01*
X5275Y-690D01*
X5274Y-702D01*
X5275Y-713D01*
X5278Y-723D01*
X5282Y-732D01*
X5287Y-735D01*
X5292Y-732D01*
X5296Y-725D01*
G01X5330Y-635D02*
Y-735D01*
G01X5321Y-668D02*
X5339D01*
G01X5375Y-735D02*
Y-635D01*
G01X5406Y-765D02*
X5410Y-768D01*
X5415Y-765D01*
X5419Y-758D01*
X5421Y-750D01*
X5425Y-723D01*
X5434Y-668D01*
G01X5413D02*
X5425Y-723D01*
G01X5465Y-738D02*
X5464Y-737D01*
Y-733D01*
X5465Y-732D01*
X5466Y-733D01*
Y-737D01*
X5465Y-738D01*
G01X35Y-443D02*
X31Y-438D01*
X26Y-435D01*
X21D01*
X15Y-440D01*
X10Y-448D01*
X7Y-458D01*
X4Y-475D01*
X3Y-490D01*
X5Y-505D01*
X7Y-515D01*
X11Y-525D01*
X15Y-532D01*
X20Y-535D01*
X25D01*
X29Y-532D01*
X33Y-527D01*
X37Y-520D01*
G01X65Y-535D02*
X61Y-533D01*
X57Y-527D01*
X54Y-515D01*
X53Y-502D01*
X54Y-488D01*
X57Y-477D01*
X61Y-470D01*
X65Y-468D01*
X69Y-470D01*
X73Y-477D01*
X76Y-488D01*
X76Y-502D01*
X76Y-515D01*
X73Y-527D01*
X69Y-533D01*
X65Y-535D01*
G01X98Y-568D02*
Y-468D01*
G01Y-483D02*
X101Y-475D01*
X105Y-470D01*
X110Y-468D01*
X115Y-470D01*
X119Y-478D01*
X121Y-490D01*
X122Y-502D01*
X121Y-513D01*
X119Y-525D01*
X115Y-532D01*
X110Y-535D01*
X105Y-533D01*
X101Y-528D01*
X98Y-522D01*
G01X141Y-565D02*
X145Y-568D01*
X150Y-565D01*
X154Y-558D01*
X156Y-550D01*
X160Y-523D01*
X169Y-468D01*
G01X148D02*
X160Y-523D01*
G01X191Y-535D02*
Y-468D01*
G01Y-482D02*
X194Y-475D01*
X197Y-470D01*
X202Y-468D01*
X205Y-470D01*
X209Y-475D01*
G01X245Y-468D02*
Y-535D01*
G01Y-442D02*
X244Y-440D01*
Y-437D01*
X245Y-435D01*
X246Y-437D01*
Y-440D01*
X245Y-442D01*
G01X281Y-560D02*
X285Y-567D01*
X291Y-568D01*
X295Y-567D01*
X299Y-558D01*
X302Y-547D01*
Y-468D01*
G01Y-482D02*
X299Y-475D01*
X295Y-470D01*
X291Y-468D01*
X285Y-472D01*
X282Y-478D01*
X279Y-490D01*
X278Y-502D01*
X279Y-512D01*
X281Y-523D01*
X285Y-532D01*
X291Y-535D01*
X295Y-533D01*
X299Y-527D01*
X302Y-520D01*
G01X324Y-535D02*
Y-435D01*
G01Y-483D02*
X327Y-475D01*
X330Y-470D01*
X336Y-468D01*
X340Y-470D01*
X344Y-477D01*
X346Y-487D01*
Y-535D01*
G01X380Y-435D02*
Y-535D01*
G01X371Y-468D02*
X389D01*
G01X547Y-452D02*
X551Y-442D01*
X556Y-437D01*
X561Y-435D01*
X568Y-438D01*
X573Y-447D01*
X574Y-457D01*
X573Y-467D01*
X571Y-475D01*
X557Y-492D01*
X551Y-503D01*
X547Y-520D01*
X546Y-535D01*
X574D01*
G01X605Y-435D02*
X600Y-438D01*
X596Y-447D01*
X593Y-457D01*
X591Y-470D01*
X590Y-485D01*
X591Y-500D01*
X593Y-513D01*
X596Y-523D01*
X600Y-532D01*
X605Y-535D01*
X610Y-532D01*
X614Y-523D01*
X617Y-513D01*
X619Y-500D01*
X620Y-485D01*
X619Y-470D01*
X617Y-457D01*
X614Y-447D01*
X610Y-438D01*
X605Y-435D01*
G01X650D02*
X645Y-438D01*
X641Y-447D01*
X638Y-457D01*
X636Y-470D01*
X635Y-485D01*
X636Y-500D01*
X638Y-513D01*
X641Y-523D01*
X645Y-532D01*
X650Y-535D01*
X655Y-532D01*
X659Y-523D01*
X662Y-513D01*
X664Y-500D01*
X665Y-485D01*
X664Y-470D01*
X662Y-457D01*
X659Y-447D01*
X655Y-438D01*
X650Y-435D01*
G01X682Y-493D02*
X687Y-482D01*
X691Y-475D01*
X696Y-472D01*
X701Y-475D01*
X704Y-482D01*
X707Y-492D01*
X708Y-503D01*
X707Y-513D01*
X704Y-523D01*
X700Y-532D01*
X696Y-535D01*
X690Y-532D01*
X686Y-522D01*
X683Y-507D01*
X682Y-490D01*
X684Y-468D01*
X686Y-457D01*
X689Y-445D01*
X694Y-437D01*
X698Y-435D01*
X703Y-438D01*
X706Y-447D01*
G01X773Y-535D02*
Y-435D01*
G01Y-485D02*
X776Y-475D01*
X780Y-470D01*
X784Y-468D01*
X790Y-472D01*
X794Y-478D01*
X797Y-490D01*
Y-503D01*
X796Y-517D01*
X793Y-527D01*
X788Y-533D01*
X784Y-535D01*
X780Y-533D01*
X776Y-528D01*
X773Y-520D01*
G01X816Y-565D02*
X820Y-568D01*
X825Y-565D01*
X829Y-558D01*
X831Y-550D01*
X835Y-523D01*
X844Y-468D01*
G01X823D02*
X835Y-523D01*
G01X920Y-435D02*
Y-535D01*
G01X905Y-435D02*
X935D01*
G01X955Y-490D02*
X976D01*
X974Y-478D01*
X971Y-472D01*
X966Y-468D01*
X962Y-470D01*
X958Y-475D01*
X955Y-487D01*
X954Y-497D01*
Y-507D01*
X955Y-517D01*
X958Y-527D01*
X962Y-533D01*
X967Y-535D01*
X972Y-532D01*
X976Y-522D01*
G01X1001Y-535D02*
Y-468D01*
G01Y-482D02*
X1004Y-475D01*
X1007Y-470D01*
X1012Y-468D01*
X1015Y-470D01*
X1019Y-475D01*
G01X1067Y-535D02*
Y-468D01*
G01Y-480D02*
X1064Y-473D01*
X1060Y-470D01*
X1056Y-468D01*
X1051Y-472D01*
X1047Y-478D01*
X1044Y-488D01*
X1043Y-502D01*
X1044Y-515D01*
X1047Y-525D01*
X1051Y-532D01*
X1056Y-535D01*
X1060Y-533D01*
X1064Y-528D01*
X1067Y-522D01*
G01X1090Y-523D02*
X1093Y-530D01*
X1098Y-535D01*
X1102D01*
X1106Y-532D01*
X1109Y-527D01*
X1110Y-520D01*
X1109Y-510D01*
X1107Y-505D01*
X1095Y-495D01*
X1092Y-483D01*
X1093Y-475D01*
X1096Y-470D01*
X1100Y-468D01*
X1104Y-470D01*
X1108Y-475D01*
G01X1145Y-468D02*
Y-535D01*
G01Y-442D02*
X1144Y-440D01*
Y-437D01*
X1145Y-435D01*
X1146Y-437D01*
Y-440D01*
X1145Y-442D01*
G01X1201Y-477D02*
X1196Y-470D01*
X1192Y-468D01*
X1187Y-472D01*
X1183Y-478D01*
X1180Y-490D01*
X1179Y-502D01*
X1180Y-513D01*
X1183Y-523D01*
X1187Y-532D01*
X1192Y-535D01*
X1197Y-532D01*
X1201Y-525D01*
G01X1280Y-435D02*
Y-535D01*
G01X1265Y-435D02*
X1295D01*
G01X1315Y-490D02*
X1336D01*
X1334Y-478D01*
X1331Y-472D01*
X1326Y-468D01*
X1322Y-470D01*
X1318Y-475D01*
X1315Y-487D01*
X1314Y-497D01*
Y-507D01*
X1315Y-517D01*
X1318Y-527D01*
X1322Y-533D01*
X1327Y-535D01*
X1332Y-532D01*
X1336Y-522D01*
G01X1381Y-477D02*
X1376Y-470D01*
X1372Y-468D01*
X1367Y-472D01*
X1363Y-478D01*
X1360Y-490D01*
X1359Y-502D01*
X1360Y-513D01*
X1363Y-523D01*
X1367Y-532D01*
X1372Y-535D01*
X1377Y-532D01*
X1381Y-525D01*
G01X1404Y-535D02*
Y-435D01*
G01Y-483D02*
X1407Y-475D01*
X1410Y-470D01*
X1416Y-468D01*
X1420Y-470D01*
X1424Y-477D01*
X1426Y-487D01*
Y-535D01*
G01X1449D02*
Y-468D01*
G01Y-485D02*
X1451Y-477D01*
X1455Y-470D01*
X1461Y-468D01*
X1465Y-470D01*
X1469Y-477D01*
X1471Y-488D01*
Y-535D01*
G01X1505D02*
X1501Y-533D01*
X1497Y-527D01*
X1494Y-515D01*
X1493Y-502D01*
X1494Y-488D01*
X1497Y-477D01*
X1501Y-470D01*
X1505Y-468D01*
X1509Y-470D01*
X1513Y-477D01*
X1516Y-488D01*
X1516Y-502D01*
X1516Y-515D01*
X1513Y-527D01*
X1509Y-533D01*
X1505Y-535D01*
G01X1550D02*
Y-435D01*
G01X1595Y-535D02*
X1591Y-533D01*
X1587Y-527D01*
X1584Y-515D01*
X1583Y-502D01*
X1584Y-488D01*
X1587Y-477D01*
X1591Y-470D01*
X1595Y-468D01*
X1599Y-470D01*
X1603Y-477D01*
X1606Y-488D01*
X1606Y-502D01*
X1606Y-515D01*
X1603Y-527D01*
X1599Y-533D01*
X1595Y-535D01*
G01X1631Y-560D02*
X1635Y-567D01*
X1641Y-568D01*
X1645Y-567D01*
X1649Y-558D01*
X1652Y-547D01*
Y-468D01*
G01Y-482D02*
X1649Y-475D01*
X1645Y-470D01*
X1641Y-468D01*
X1635Y-472D01*
X1632Y-478D01*
X1629Y-490D01*
X1628Y-502D01*
X1629Y-512D01*
X1631Y-523D01*
X1635Y-532D01*
X1641Y-535D01*
X1645Y-533D01*
X1649Y-527D01*
X1652Y-520D01*
G01X1685Y-468D02*
Y-535D01*
G01Y-442D02*
X1684Y-440D01*
Y-437D01*
X1685Y-435D01*
X1686Y-437D01*
Y-440D01*
X1685Y-442D01*
G01X1720Y-490D02*
X1741D01*
X1739Y-478D01*
X1736Y-472D01*
X1731Y-468D01*
X1727Y-470D01*
X1723Y-475D01*
X1720Y-487D01*
X1719Y-497D01*
Y-507D01*
X1720Y-517D01*
X1723Y-527D01*
X1727Y-533D01*
X1732Y-535D01*
X1737Y-532D01*
X1741Y-522D01*
G01X1765Y-523D02*
X1768Y-530D01*
X1773Y-535D01*
X1777D01*
X1781Y-532D01*
X1784Y-527D01*
X1785Y-520D01*
X1784Y-510D01*
X1782Y-505D01*
X1770Y-495D01*
X1767Y-483D01*
X1768Y-475D01*
X1771Y-470D01*
X1775Y-468D01*
X1779Y-470D01*
X1783Y-475D01*
G01X1857Y-435D02*
X1873D01*
G01X1865D02*
Y-535D01*
G01X1857D02*
X1873D01*
G01X1899D02*
Y-468D01*
G01Y-485D02*
X1901Y-477D01*
X1905Y-470D01*
X1911Y-468D01*
X1915Y-470D01*
X1919Y-477D01*
X1921Y-488D01*
Y-535D01*
G01X1966Y-477D02*
X1961Y-470D01*
X1957Y-468D01*
X1952Y-472D01*
X1948Y-478D01*
X1945Y-490D01*
X1944Y-502D01*
X1945Y-513D01*
X1948Y-523D01*
X1952Y-532D01*
X1957Y-535D01*
X1962Y-532D01*
X1966Y-525D01*
G01X2000Y-538D02*
X1999Y-537D01*
Y-533D01*
X2000Y-532D01*
X2001Y-533D01*
Y-537D01*
X2000Y-538D01*
G01X2073Y-535D02*
X2090Y-435D01*
X2107Y-535D01*
G01X2101Y-500D02*
X2079D01*
G01X2135Y-535D02*
Y-435D01*
G01X2180Y-535D02*
Y-435D01*
G01X2257Y-535D02*
Y-435D01*
X2273D01*
X2279Y-440D01*
X2282Y-447D01*
X2283Y-460D01*
X2282Y-473D01*
X2278Y-482D01*
X2273Y-487D01*
X2257D01*
G01X2273D02*
X2283Y-535D01*
G01X2315Y-468D02*
Y-535D01*
G01Y-442D02*
X2314Y-440D01*
Y-437D01*
X2315Y-435D01*
X2316Y-437D01*
Y-440D01*
X2315Y-442D01*
G01X2351Y-560D02*
X2355Y-567D01*
X2361Y-568D01*
X2365Y-567D01*
X2369Y-558D01*
X2372Y-547D01*
Y-468D01*
G01Y-482D02*
X2369Y-475D01*
X2365Y-470D01*
X2361Y-468D01*
X2355Y-472D01*
X2352Y-478D01*
X2349Y-490D01*
X2348Y-502D01*
X2349Y-512D01*
X2351Y-523D01*
X2355Y-532D01*
X2361Y-535D01*
X2365Y-533D01*
X2369Y-527D01*
X2372Y-520D01*
G01X2394Y-535D02*
Y-435D01*
G01Y-483D02*
X2397Y-475D01*
X2400Y-470D01*
X2406Y-468D01*
X2410Y-470D01*
X2414Y-477D01*
X2416Y-487D01*
Y-535D01*
G01X2450Y-435D02*
Y-535D01*
G01X2441Y-468D02*
X2459D01*
G01X2485Y-523D02*
X2488Y-530D01*
X2493Y-535D01*
X2497D01*
X2501Y-532D01*
X2504Y-527D01*
X2505Y-520D01*
X2504Y-510D01*
X2502Y-505D01*
X2490Y-495D01*
X2487Y-483D01*
X2488Y-475D01*
X2491Y-470D01*
X2495Y-468D01*
X2499Y-470D01*
X2503Y-475D01*
G01X2572Y-535D02*
Y-435D01*
X2588D01*
X2594Y-440D01*
X2597Y-447D01*
X2598Y-460D01*
X2597Y-473D01*
X2593Y-482D01*
X2588Y-487D01*
X2572D01*
G01X2588D02*
X2598Y-535D01*
G01X2620Y-490D02*
X2641D01*
X2639Y-478D01*
X2636Y-472D01*
X2631Y-468D01*
X2627Y-470D01*
X2623Y-475D01*
X2620Y-487D01*
X2619Y-497D01*
Y-507D01*
X2620Y-517D01*
X2623Y-527D01*
X2627Y-533D01*
X2632Y-535D01*
X2637Y-532D01*
X2641Y-522D01*
G01X2665Y-523D02*
X2668Y-530D01*
X2673Y-535D01*
X2677D01*
X2681Y-532D01*
X2684Y-527D01*
X2685Y-520D01*
X2684Y-510D01*
X2682Y-505D01*
X2670Y-495D01*
X2667Y-483D01*
X2668Y-475D01*
X2671Y-470D01*
X2675Y-468D01*
X2679Y-470D01*
X2683Y-475D01*
G01X2710Y-490D02*
X2731D01*
X2729Y-478D01*
X2726Y-472D01*
X2721Y-468D01*
X2717Y-470D01*
X2713Y-475D01*
X2710Y-487D01*
X2709Y-497D01*
Y-507D01*
X2710Y-517D01*
X2713Y-527D01*
X2717Y-533D01*
X2722Y-535D01*
X2727Y-532D01*
X2731Y-522D01*
G01X2756Y-535D02*
Y-468D01*
G01Y-482D02*
X2759Y-475D01*
X2762Y-470D01*
X2767Y-468D01*
X2770Y-470D01*
X2774Y-475D01*
G01X2798Y-468D02*
X2810Y-535D01*
X2822Y-468D01*
G01X2845Y-490D02*
X2866D01*
X2864Y-478D01*
X2861Y-472D01*
X2856Y-468D01*
X2852Y-470D01*
X2848Y-475D01*
X2845Y-487D01*
X2844Y-497D01*
Y-507D01*
X2845Y-517D01*
X2848Y-527D01*
X2852Y-533D01*
X2857Y-535D01*
X2862Y-532D01*
X2866Y-522D01*
G01X2912Y-435D02*
Y-535D01*
G01Y-520D02*
X2909Y-528D01*
X2905Y-533D01*
X2901Y-535D01*
X2895Y-532D01*
X2891Y-523D01*
X2889Y-513D01*
X2888Y-502D01*
X2889Y-490D01*
X2891Y-480D01*
X2895Y-472D01*
X2901Y-468D01*
X2905Y-470D01*
X2909Y-473D01*
X2912Y-480D01*
G01X2945Y-538D02*
X2944Y-537D01*
Y-533D01*
X2945Y-532D01*
X2946Y-533D01*
Y-537D01*
X2945Y-538D01*
G01X3020Y-435D02*
Y-507D01*
X3023Y-522D01*
X3028Y-532D01*
X3035Y-535D01*
X3042Y-532D01*
X3047Y-522D01*
X3050Y-507D01*
Y-435D01*
G01X3070Y-523D02*
X3073Y-530D01*
X3078Y-535D01*
X3082D01*
X3086Y-532D01*
X3089Y-527D01*
X3090Y-520D01*
X3089Y-510D01*
X3087Y-505D01*
X3075Y-495D01*
X3072Y-483D01*
X3073Y-475D01*
X3076Y-470D01*
X3080Y-468D01*
X3084Y-470D01*
X3088Y-475D01*
G01X3125Y-468D02*
Y-535D01*
G01Y-442D02*
X3124Y-440D01*
Y-437D01*
X3125Y-435D01*
X3126Y-437D01*
Y-440D01*
X3125Y-442D01*
G01X3159Y-535D02*
Y-468D01*
G01Y-485D02*
X3161Y-477D01*
X3165Y-470D01*
X3171Y-468D01*
X3175Y-470D01*
X3179Y-477D01*
X3181Y-488D01*
Y-535D01*
G01X3206Y-560D02*
X3210Y-567D01*
X3216Y-568D01*
X3220Y-567D01*
X3224Y-558D01*
X3227Y-547D01*
Y-468D01*
G01Y-482D02*
X3224Y-475D01*
X3220Y-470D01*
X3216Y-468D01*
X3210Y-472D01*
X3207Y-478D01*
X3204Y-490D01*
X3203Y-502D01*
X3204Y-512D01*
X3206Y-523D01*
X3210Y-532D01*
X3216Y-535D01*
X3220Y-533D01*
X3224Y-527D01*
X3227Y-520D01*
G01X3305Y-435D02*
Y-535D01*
G01X3296Y-468D02*
X3314D01*
G01X3339Y-535D02*
Y-435D01*
G01Y-483D02*
X3342Y-475D01*
X3345Y-470D01*
X3351Y-468D01*
X3355Y-470D01*
X3359Y-477D01*
X3361Y-487D01*
Y-535D01*
G01X3395Y-468D02*
Y-535D01*
G01Y-442D02*
X3394Y-440D01*
Y-437D01*
X3395Y-435D01*
X3396Y-437D01*
Y-440D01*
X3395Y-442D01*
G01X3430Y-523D02*
X3433Y-530D01*
X3438Y-535D01*
X3442D01*
X3446Y-532D01*
X3449Y-527D01*
X3450Y-520D01*
X3449Y-510D01*
X3447Y-505D01*
X3435Y-495D01*
X3432Y-483D01*
X3433Y-475D01*
X3436Y-470D01*
X3440Y-468D01*
X3444Y-470D01*
X3448Y-475D01*
G01X3530Y-535D02*
Y-435D01*
G01X3587Y-535D02*
Y-468D01*
G01Y-480D02*
X3584Y-473D01*
X3580Y-470D01*
X3576Y-468D01*
X3571Y-472D01*
X3567Y-478D01*
X3564Y-488D01*
X3563Y-502D01*
X3564Y-515D01*
X3567Y-525D01*
X3571Y-532D01*
X3576Y-535D01*
X3580Y-533D01*
X3584Y-528D01*
X3587Y-522D01*
G01X3606Y-565D02*
X3610Y-568D01*
X3615Y-565D01*
X3619Y-558D01*
X3621Y-550D01*
X3625Y-523D01*
X3634Y-468D01*
G01X3613D02*
X3625Y-523D01*
G01X3665Y-535D02*
X3661Y-533D01*
X3657Y-527D01*
X3654Y-515D01*
X3653Y-502D01*
X3654Y-488D01*
X3657Y-477D01*
X3661Y-470D01*
X3665Y-468D01*
X3669Y-470D01*
X3673Y-477D01*
X3676Y-488D01*
X3676Y-502D01*
X3676Y-515D01*
X3673Y-527D01*
X3669Y-533D01*
X3665Y-535D01*
G01X3699Y-468D02*
Y-515D01*
X3701Y-527D01*
X3705Y-533D01*
X3710Y-535D01*
X3715Y-533D01*
X3719Y-527D01*
X3721Y-515D01*
G01Y-535D02*
Y-468D01*
G01X3755Y-435D02*
Y-535D01*
G01X3746Y-468D02*
X3764D01*
G01X3857Y-435D02*
Y-535D01*
G01Y-520D02*
X3854Y-528D01*
X3850Y-533D01*
X3846Y-535D01*
X3840Y-532D01*
X3836Y-523D01*
X3834Y-513D01*
X3833Y-502D01*
X3834Y-490D01*
X3836Y-480D01*
X3840Y-472D01*
X3846Y-468D01*
X3850Y-470D01*
X3854Y-473D01*
X3857Y-480D01*
G01X3880Y-490D02*
X3901D01*
X3899Y-478D01*
X3896Y-472D01*
X3891Y-468D01*
X3887Y-470D01*
X3883Y-475D01*
X3880Y-487D01*
X3879Y-497D01*
Y-507D01*
X3880Y-517D01*
X3883Y-527D01*
X3887Y-533D01*
X3892Y-535D01*
X3897Y-532D01*
X3901Y-522D01*
G01X3925Y-523D02*
X3928Y-530D01*
X3933Y-535D01*
X3937D01*
X3941Y-532D01*
X3944Y-527D01*
X3945Y-520D01*
X3944Y-510D01*
X3942Y-505D01*
X3930Y-495D01*
X3927Y-483D01*
X3928Y-475D01*
X3931Y-470D01*
X3935Y-468D01*
X3939Y-470D01*
X3943Y-475D01*
G01X3980Y-468D02*
Y-535D01*
G01Y-442D02*
X3979Y-440D01*
Y-437D01*
X3980Y-435D01*
X3981Y-437D01*
Y-440D01*
X3980Y-442D01*
G01X4016Y-560D02*
X4020Y-567D01*
X4026Y-568D01*
X4030Y-567D01*
X4034Y-558D01*
X4037Y-547D01*
Y-468D01*
G01Y-482D02*
X4034Y-475D01*
X4030Y-470D01*
X4026Y-468D01*
X4020Y-472D01*
X4017Y-478D01*
X4014Y-490D01*
X4013Y-502D01*
X4014Y-512D01*
X4016Y-523D01*
X4020Y-532D01*
X4026Y-535D01*
X4030Y-533D01*
X4034Y-527D01*
X4037Y-520D01*
G01X4059Y-535D02*
Y-468D01*
G01Y-485D02*
X4061Y-477D01*
X4065Y-470D01*
X4071Y-468D01*
X4075Y-470D01*
X4079Y-477D01*
X4081Y-488D01*
Y-535D01*
G01X4160Y-435D02*
Y-535D01*
G01X4151Y-468D02*
X4169D01*
G01X4205Y-535D02*
X4201Y-533D01*
X4197Y-527D01*
X4194Y-515D01*
X4193Y-502D01*
X4194Y-488D01*
X4197Y-477D01*
X4201Y-470D01*
X4205Y-468D01*
X4209Y-470D01*
X4213Y-477D01*
X4216Y-488D01*
X4216Y-502D01*
X4216Y-515D01*
X4213Y-527D01*
X4209Y-533D01*
X4205Y-535D01*
G01X4275D02*
Y-468D01*
G01Y-487D02*
X4277Y-478D01*
X4280Y-472D01*
X4285Y-468D01*
X4290Y-472D01*
X4293Y-478D01*
X4295Y-487D01*
Y-535D01*
G01Y-487D02*
X4297Y-478D01*
X4300Y-472D01*
X4305Y-468D01*
X4310Y-472D01*
X4313Y-478D01*
X4315Y-488D01*
Y-535D01*
G01X4352D02*
Y-468D01*
G01Y-480D02*
X4349Y-473D01*
X4345Y-470D01*
X4341Y-468D01*
X4336Y-472D01*
X4332Y-478D01*
X4329Y-488D01*
X4328Y-502D01*
X4329Y-515D01*
X4332Y-525D01*
X4336Y-532D01*
X4341Y-535D01*
X4345Y-533D01*
X4349Y-528D01*
X4352Y-522D01*
G01X4374Y-535D02*
Y-435D01*
G01X4395Y-468D02*
X4374Y-507D01*
G01X4382Y-492D02*
X4396Y-535D01*
G01X4420Y-490D02*
X4441D01*
X4439Y-478D01*
X4436Y-472D01*
X4431Y-468D01*
X4427Y-470D01*
X4423Y-475D01*
X4420Y-487D01*
X4419Y-497D01*
Y-507D01*
X4420Y-517D01*
X4423Y-527D01*
X4427Y-533D01*
X4432Y-535D01*
X4437Y-532D01*
X4441Y-522D01*
G01X4507Y-535D02*
Y-435D01*
X4523D01*
X4528Y-440D01*
X4532Y-452D01*
X4533Y-465D01*
X4532Y-478D01*
X4529Y-488D01*
X4523Y-493D01*
X4507D01*
G01X4580Y-443D02*
X4576Y-438D01*
X4571Y-435D01*
X4566D01*
X4560Y-440D01*
X4555Y-448D01*
X4552Y-458D01*
X4549Y-475D01*
X4548Y-490D01*
X4550Y-505D01*
X4552Y-515D01*
X4556Y-525D01*
X4560Y-532D01*
X4565Y-535D01*
X4570D01*
X4574Y-532D01*
X4578Y-527D01*
X4582Y-520D01*
G01X4615Y-482D02*
X4618Y-477D01*
X4620Y-468D01*
X4621Y-457D01*
X4620Y-447D01*
X4617Y-440D01*
X4613Y-435D01*
X4595D01*
Y-535D01*
X4617D01*
X4621Y-528D01*
X4624Y-518D01*
X4625Y-507D01*
X4624Y-495D01*
X4620Y-485D01*
X4615Y-482D01*
X4595D01*
G01X4712Y-435D02*
Y-535D01*
G01Y-520D02*
X4709Y-528D01*
X4705Y-533D01*
X4701Y-535D01*
X4695Y-532D01*
X4691Y-523D01*
X4689Y-513D01*
X4688Y-502D01*
X4689Y-490D01*
X4691Y-480D01*
X4695Y-472D01*
X4701Y-468D01*
X4705Y-470D01*
X4709Y-473D01*
X4712Y-480D01*
G01X4745Y-468D02*
Y-535D01*
G01Y-442D02*
X4744Y-440D01*
Y-437D01*
X4745Y-435D01*
X4746Y-437D01*
Y-440D01*
X4745Y-442D01*
G01X4781Y-535D02*
Y-468D01*
G01Y-482D02*
X4784Y-475D01*
X4787Y-470D01*
X4792Y-468D01*
X4795Y-470D01*
X4799Y-475D01*
G01X4825Y-490D02*
X4846D01*
X4844Y-478D01*
X4841Y-472D01*
X4836Y-468D01*
X4832Y-470D01*
X4828Y-475D01*
X4825Y-487D01*
X4824Y-497D01*
Y-507D01*
X4825Y-517D01*
X4828Y-527D01*
X4832Y-533D01*
X4837Y-535D01*
X4842Y-532D01*
X4846Y-522D01*
G01X4891Y-477D02*
X4886Y-470D01*
X4882Y-468D01*
X4877Y-472D01*
X4873Y-478D01*
X4870Y-490D01*
X4869Y-502D01*
X4870Y-513D01*
X4873Y-523D01*
X4877Y-532D01*
X4882Y-535D01*
X4887Y-532D01*
X4891Y-525D01*
G01X4925Y-435D02*
Y-535D01*
G01X4916Y-468D02*
X4934D01*
G01X4970Y-535D02*
Y-435D01*
G01X5001Y-565D02*
X5005Y-568D01*
X5010Y-565D01*
X5014Y-558D01*
X5016Y-550D01*
X5020Y-523D01*
X5029Y-468D01*
G01X5008D02*
X5020Y-523D01*
G01X5105Y-468D02*
Y-535D01*
G01Y-442D02*
X5104Y-440D01*
Y-437D01*
X5105Y-435D01*
X5106Y-437D01*
Y-440D01*
X5105Y-442D01*
G01X5140Y-523D02*
X5143Y-530D01*
X5148Y-535D01*
X5152D01*
X5156Y-532D01*
X5159Y-527D01*
X5160Y-520D01*
X5159Y-510D01*
X5157Y-505D01*
X5145Y-495D01*
X5142Y-483D01*
X5143Y-475D01*
X5146Y-470D01*
X5150Y-468D01*
X5154Y-470D01*
X5158Y-475D01*
G01X5228Y-568D02*
Y-468D01*
G01Y-483D02*
X5231Y-475D01*
X5235Y-470D01*
X5240Y-468D01*
X5245Y-470D01*
X5249Y-478D01*
X5251Y-490D01*
X5252Y-502D01*
X5251Y-513D01*
X5249Y-525D01*
X5245Y-532D01*
X5240Y-535D01*
X5235Y-533D01*
X5231Y-528D01*
X5228Y-522D01*
G01X5276Y-535D02*
Y-468D01*
G01Y-482D02*
X5279Y-475D01*
X5282Y-470D01*
X5287Y-468D01*
X5290Y-470D01*
X5294Y-475D01*
G01X5330Y-535D02*
X5326Y-533D01*
X5322Y-527D01*
X5319Y-515D01*
X5318Y-502D01*
X5319Y-488D01*
X5322Y-477D01*
X5326Y-470D01*
X5330Y-468D01*
X5334Y-470D01*
X5338Y-477D01*
X5341Y-488D01*
X5341Y-502D01*
X5341Y-515D01*
X5338Y-527D01*
X5334Y-533D01*
X5330Y-535D01*
G01X5364D02*
Y-435D01*
G01Y-483D02*
X5367Y-475D01*
X5370Y-470D01*
X5376Y-468D01*
X5380Y-470D01*
X5384Y-477D01*
X5386Y-487D01*
Y-535D01*
G01X5420Y-468D02*
Y-535D01*
G01Y-442D02*
X5419Y-440D01*
Y-437D01*
X5420Y-435D01*
X5421Y-437D01*
Y-440D01*
X5420Y-442D01*
G01X5453Y-535D02*
Y-435D01*
G01Y-485D02*
X5456Y-475D01*
X5460Y-470D01*
X5464Y-468D01*
X5470Y-472D01*
X5474Y-478D01*
X5477Y-490D01*
Y-503D01*
X5476Y-517D01*
X5473Y-527D01*
X5468Y-533D01*
X5464Y-535D01*
X5460Y-533D01*
X5456Y-528D01*
X5453Y-520D01*
G01X5510Y-468D02*
Y-535D01*
G01Y-442D02*
X5509Y-440D01*
Y-437D01*
X5510Y-435D01*
X5511Y-437D01*
Y-440D01*
X5510Y-442D01*
G01X5555Y-435D02*
Y-535D01*
G01X5546Y-468D02*
X5564D01*
G01X5590Y-490D02*
X5611D01*
X5609Y-478D01*
X5606Y-472D01*
X5601Y-468D01*
X5597Y-470D01*
X5593Y-475D01*
X5590Y-487D01*
X5589Y-497D01*
Y-507D01*
X5590Y-517D01*
X5593Y-527D01*
X5597Y-533D01*
X5602Y-535D01*
X5607Y-532D01*
X5611Y-522D01*
G01X5657Y-435D02*
Y-535D01*
G01Y-520D02*
X5654Y-528D01*
X5650Y-533D01*
X5646Y-535D01*
X5640Y-532D01*
X5636Y-523D01*
X5634Y-513D01*
X5633Y-502D01*
X5634Y-490D01*
X5636Y-480D01*
X5640Y-472D01*
X5646Y-468D01*
X5650Y-470D01*
X5654Y-473D01*
X5657Y-480D01*
G01X5690Y-538D02*
X5689Y-537D01*
Y-533D01*
X5690Y-532D01*
X5691Y-533D01*
Y-537D01*
X5690Y-538D01*
G01X182Y1790D02*
X179Y1793D01*
X112D01*
G01X471Y-457D02*
X466Y-450D01*
X462Y-448D01*
X457Y-452D01*
X453Y-458D01*
X450Y-470D01*
X449Y-482D01*
X450Y-493D01*
X453Y-503D01*
X457Y-512D01*
X462Y-515D01*
X467Y-512D01*
X471Y-505D01*
G01X2001Y2975D02*
Y2939D01*
X1980Y2918D01*
G01X1870Y2880D02*
X1840Y2910D01*
Y2990D01*
X1810Y3020D01*
G01X3789Y2450D02*
X3820D01*
G01Y2492D02*
Y2520D01*
M02*
