G04 ================== begin FILE IDENTIFICATION RECORD ==================*
G04 Layout Name:  G:/Layout_CP2008/HMB/for_altera/HMB_V20.brd*
G04 Film Name:    Paste_Bot*
G04 File Format:  Gerber RS274X*
G04 File Origin:  15.7-p007*
G04 Origin Date:  Wed Oct 08 14:49:09 2008*
G04 *
G04 Layer:  VIA CLASS/PASTEMASK_BOTTOM*
G04 Layer:  PIN/PASTEMASK_BOTTOM*
G04 *
G04 Offset:    (0.00 0.00)*
G04 Mirror:    No*
G04 Mode:      Positive*
G04 Rotation:  0*
G04 FullContactRelief:  No*
G04 UndefLineWidth:     0.00*
G04 ================== end FILE IDENTIFICATION RECORD ====================*
%FSLAX53Y53*MOIN*%
%IR0*IPPOS*OFA0.00000B0.00000*MIA0B0*SFA1.00000B1.00000*%
%ADD12R,.01693X.1*%
%ADD10C,.035*%
%ADD14R,.035X.035*%
%ADD13R,.01693X.18504*%
%ADD15R,.071X.047*%
%ADD16R,.059X.024*%
%ADD11R,.08937X.01102*%
%LPD*%
G75*
G54D10*
X75Y75D03*
X70Y3925D03*
X4930Y65D03*
Y3930D03*
G54D11*
X112Y927D03*
Y947D03*
Y967D03*
Y986D03*
Y1006D03*
Y1026D03*
Y1045D03*
Y1065D03*
Y1085D03*
Y1104D03*
Y1124D03*
Y1144D03*
Y1163D03*
Y1183D03*
Y1203D03*
Y1222D03*
Y1242D03*
Y1262D03*
Y1282D03*
Y1301D03*
Y1321D03*
Y1341D03*
Y1360D03*
Y1380D03*
Y1400D03*
Y1419D03*
Y1439D03*
Y1459D03*
Y1478D03*
Y1498D03*
Y1715D03*
Y1734D03*
Y1754D03*
Y1774D03*
Y1793D03*
Y1813D03*
Y1833D03*
Y1852D03*
Y1872D03*
Y1892D03*
Y1911D03*
Y1931D03*
Y1951D03*
Y1970D03*
Y1990D03*
Y2010D03*
Y2030D03*
Y2049D03*
Y2069D03*
Y2089D03*
Y2108D03*
Y2128D03*
Y2148D03*
Y2167D03*
Y2187D03*
Y2207D03*
Y2226D03*
Y2246D03*
Y2266D03*
Y2285D03*
Y2522D03*
Y2541D03*
Y2581D03*
Y2600D03*
Y2640D03*
Y2659D03*
Y2699D03*
Y2718D03*
Y2758D03*
Y2778D03*
Y2817D03*
Y2837D03*
Y2876D03*
Y2896D03*
Y2935D03*
Y2955D03*
Y2994D03*
Y3014D03*
Y3053D03*
Y3073D03*
X338Y927D03*
Y947D03*
Y967D03*
Y986D03*
Y1006D03*
Y1026D03*
Y1045D03*
Y1065D03*
Y1085D03*
Y1104D03*
Y1124D03*
Y1144D03*
Y1163D03*
Y1183D03*
Y1203D03*
Y1222D03*
Y1242D03*
Y1262D03*
Y1282D03*
Y1301D03*
Y1321D03*
Y1341D03*
Y1360D03*
Y1380D03*
Y1400D03*
Y1419D03*
Y1439D03*
Y1459D03*
Y1478D03*
Y1498D03*
Y1715D03*
Y1734D03*
Y1754D03*
Y1774D03*
Y1793D03*
Y1813D03*
Y1833D03*
Y1852D03*
Y1872D03*
Y1892D03*
Y1911D03*
Y1931D03*
Y1951D03*
Y1970D03*
Y1990D03*
Y2010D03*
Y2030D03*
Y2049D03*
Y2069D03*
Y2089D03*
Y2108D03*
Y2128D03*
Y2148D03*
Y2167D03*
Y2187D03*
Y2207D03*
Y2226D03*
Y2246D03*
Y2266D03*
Y2285D03*
Y2522D03*
Y2541D03*
Y2581D03*
Y2600D03*
Y2640D03*
Y2659D03*
Y2699D03*
Y2718D03*
Y2758D03*
Y2778D03*
Y2817D03*
Y2837D03*
Y2876D03*
Y2896D03*
Y2935D03*
Y2955D03*
Y2994D03*
Y3014D03*
Y3053D03*
Y3073D03*
G54D12*
X225Y895D03*
Y1530D03*
Y1683D03*
Y2317D03*
Y2470D03*
Y3105D03*
G54D13*
Y1088D03*
Y1337D03*
Y1875D03*
Y2125D03*
Y2663D03*
Y2912D03*
G54D14*
X500Y1660D03*
X560D03*
X760Y2730D03*
Y2670D03*
X810Y3080D03*
Y3140D03*
X870Y1230D03*
X930D03*
X1065Y1660D03*
X930Y2090D03*
X870D03*
X830Y2730D03*
Y2670D03*
X1200Y1710D03*
X1320Y1660D03*
X1260D03*
X1125D03*
X1200Y1630D03*
Y1570D03*
Y1770D03*
X1480Y1230D03*
X1540D03*
X1620Y1375D03*
X1680D03*
X1620Y1310D03*
X1680D03*
Y2015D03*
X1620D03*
X1680Y1950D03*
X1620D03*
X1675Y2950D03*
X1810Y2880D03*
X1870D03*
X1810Y2810D03*
X1870D03*
X1810Y2740D03*
X1870D03*
Y2670D03*
X1810D03*
X1870Y3090D03*
X1810D03*
X1735Y2950D03*
X1870Y3160D03*
X1810D03*
X1870Y3020D03*
X1810D03*
X2005D03*
X1945D03*
X1870Y2950D03*
X1810D03*
X2140Y3020D03*
X2080D03*
X2720Y110D03*
Y170D03*
X2790Y110D03*
Y170D03*
X2870Y2760D03*
X2810D03*
X2680Y3010D03*
X2740D03*
X2810D03*
X2870D03*
X3140Y3260D03*
Y3320D03*
X3820Y2520D03*
Y2450D03*
X3560Y2340D03*
X3620D03*
X3560Y2520D03*
X3620D03*
X3750D03*
X3690D03*
X3550Y3260D03*
Y3320D03*
X4040Y950D03*
X4100D03*
X4040Y2060D03*
X4100D03*
X3880Y2520D03*
Y2450D03*
X4365Y740D03*
Y670D03*
Y810D03*
Y880D03*
Y950D03*
Y1020D03*
X4425Y740D03*
Y670D03*
Y810D03*
Y880D03*
Y950D03*
Y1020D03*
G54D15*
X720Y3083D03*
Y3197D03*
G54D16*
X4214Y733D03*
Y807D03*
X4296Y770D03*
X4214Y873D03*
Y947D03*
X4296Y910D03*
M02*
